G04 #@! TF.GenerationSoftware,KiCad,Pcbnew,7.0.6*
G04 #@! TF.CreationDate,2023-09-28T23:10:25+01:00*
G04 #@! TF.ProjectId,GalaxyModPCB,47616c61-7879-44d6-9f64-5043422e6b69,rev?*
G04 #@! TF.SameCoordinates,Original*
G04 #@! TF.FileFunction,Copper,L1,Top*
G04 #@! TF.FilePolarity,Positive*
%FSLAX46Y46*%
G04 Gerber Fmt 4.6, Leading zero omitted, Abs format (unit mm)*
G04 Created by KiCad (PCBNEW 7.0.6) date 2023-09-28 23:10:25*
%MOMM*%
%LPD*%
G01*
G04 APERTURE LIST*
G04 Aperture macros list*
%AMRoundRect*
0 Rectangle with rounded corners*
0 $1 Rounding radius*
0 $2 $3 $4 $5 $6 $7 $8 $9 X,Y pos of 4 corners*
0 Add a 4 corners polygon primitive as box body*
4,1,4,$2,$3,$4,$5,$6,$7,$8,$9,$2,$3,0*
0 Add four circle primitives for the rounded corners*
1,1,$1+$1,$2,$3*
1,1,$1+$1,$4,$5*
1,1,$1+$1,$6,$7*
1,1,$1+$1,$8,$9*
0 Add four rect primitives between the rounded corners*
20,1,$1+$1,$2,$3,$4,$5,0*
20,1,$1+$1,$4,$5,$6,$7,0*
20,1,$1+$1,$6,$7,$8,$9,0*
20,1,$1+$1,$8,$9,$2,$3,0*%
G04 Aperture macros list end*
G04 #@! TA.AperFunction,SMDPad,CuDef*
%ADD10RoundRect,0.250000X0.250000X0.475000X-0.250000X0.475000X-0.250000X-0.475000X0.250000X-0.475000X0*%
G04 #@! TD*
G04 #@! TA.AperFunction,SMDPad,CuDef*
%ADD11RoundRect,0.250000X0.475000X-0.250000X0.475000X0.250000X-0.475000X0.250000X-0.475000X-0.250000X0*%
G04 #@! TD*
G04 #@! TA.AperFunction,SMDPad,CuDef*
%ADD12R,1.550000X1.300000*%
G04 #@! TD*
G04 #@! TA.AperFunction,SMDPad,CuDef*
%ADD13RoundRect,0.150000X-0.150000X0.587500X-0.150000X-0.587500X0.150000X-0.587500X0.150000X0.587500X0*%
G04 #@! TD*
G04 #@! TA.AperFunction,SMDPad,CuDef*
%ADD14RoundRect,0.249999X-1.425001X0.450001X-1.425001X-0.450001X1.425001X-0.450001X1.425001X0.450001X0*%
G04 #@! TD*
G04 #@! TA.AperFunction,SMDPad,CuDef*
%ADD15RoundRect,0.150000X0.150000X-0.587500X0.150000X0.587500X-0.150000X0.587500X-0.150000X-0.587500X0*%
G04 #@! TD*
G04 #@! TA.AperFunction,SMDPad,CuDef*
%ADD16RoundRect,0.250000X-0.350000X-0.450000X0.350000X-0.450000X0.350000X0.450000X-0.350000X0.450000X0*%
G04 #@! TD*
G04 #@! TA.AperFunction,SMDPad,CuDef*
%ADD17RoundRect,0.250000X-0.250000X-0.475000X0.250000X-0.475000X0.250000X0.475000X-0.250000X0.475000X0*%
G04 #@! TD*
G04 #@! TA.AperFunction,ComponentPad*
%ADD18R,1.700000X1.700000*%
G04 #@! TD*
G04 #@! TA.AperFunction,ComponentPad*
%ADD19O,1.700000X1.700000*%
G04 #@! TD*
G04 #@! TA.AperFunction,ViaPad*
%ADD20C,1.000000*%
G04 #@! TD*
G04 #@! TA.AperFunction,Conductor*
%ADD21C,0.500000*%
G04 #@! TD*
G04 #@! TA.AperFunction,Conductor*
%ADD22C,0.600000*%
G04 #@! TD*
G04 #@! TA.AperFunction,Conductor*
%ADD23C,0.250000*%
G04 #@! TD*
G04 #@! TA.AperFunction,Conductor*
%ADD24C,0.300000*%
G04 #@! TD*
G04 #@! TA.AperFunction,Conductor*
%ADD25C,1.200000*%
G04 #@! TD*
G04 APERTURE END LIST*
D10*
X118950000Y-59500000D03*
X117050000Y-59500000D03*
D11*
X143000000Y-60450000D03*
X143000000Y-58550000D03*
D12*
X154800000Y-63300000D03*
X145200000Y-63250000D03*
X154800000Y-58800000D03*
X145200000Y-58750000D03*
D13*
X155950000Y-81525000D03*
X154050000Y-81525000D03*
X155000000Y-83400000D03*
D14*
X131200000Y-69450000D03*
X131200000Y-75550000D03*
D15*
X154050000Y-76437500D03*
X155950000Y-76437500D03*
X155000000Y-74562500D03*
D11*
X140000000Y-60450000D03*
X140000000Y-58550000D03*
D12*
X171800000Y-57300000D03*
X162200000Y-57250000D03*
X171800000Y-52800000D03*
X162200000Y-52750000D03*
D15*
X139050000Y-76437500D03*
X140950000Y-76437500D03*
X140000000Y-74562500D03*
X146550000Y-76437500D03*
X148450000Y-76437500D03*
X147500000Y-74562500D03*
D12*
X121800000Y-57300000D03*
X112200000Y-57250000D03*
X121800000Y-52800000D03*
X112200000Y-52750000D03*
D16*
X112500000Y-66000000D03*
X114500000Y-66000000D03*
D14*
X127200000Y-69450000D03*
X127200000Y-75550000D03*
X135200000Y-69450000D03*
X135200000Y-75550000D03*
X123200000Y-69450000D03*
X123200000Y-75550000D03*
D12*
X137800000Y-63300000D03*
X128200000Y-63250000D03*
X137800000Y-58800000D03*
X128200000Y-58750000D03*
D17*
X165050000Y-59500000D03*
X166950000Y-59500000D03*
D13*
X115450000Y-61825000D03*
X113550000Y-61825000D03*
X114500000Y-63700000D03*
D18*
X112500000Y-68500000D03*
D19*
X115040000Y-68500000D03*
D18*
X148725000Y-53000000D03*
D19*
X151265000Y-53000000D03*
D18*
X158000000Y-87700000D03*
D19*
X155460000Y-87700000D03*
X152920000Y-87700000D03*
D18*
X171575000Y-64500000D03*
D19*
X169035000Y-64500000D03*
X166495000Y-64500000D03*
X163955000Y-64500000D03*
X161415000Y-64500000D03*
D18*
X135275000Y-53000000D03*
D19*
X132735000Y-53000000D03*
D20*
X165400000Y-62500000D03*
X158800000Y-77300000D03*
X121500000Y-55000000D03*
X172700000Y-55000000D03*
X168500000Y-58900000D03*
X157900000Y-83300000D03*
X122800000Y-81900000D03*
X172700000Y-51900000D03*
X126600000Y-71100000D03*
X165700000Y-68200000D03*
X168500000Y-51900000D03*
X111000000Y-59500000D03*
X152200000Y-59700000D03*
X131250000Y-73800000D03*
X133100000Y-59700000D03*
X116350000Y-70600000D03*
X143900000Y-81600000D03*
X124250000Y-64000000D03*
X130700000Y-58600000D03*
X143000000Y-73000000D03*
X160800000Y-56100000D03*
X122800000Y-87600000D03*
X126100000Y-81600000D03*
X111000000Y-55750000D03*
X125500000Y-67800000D03*
X159000000Y-69000000D03*
X143000000Y-75900000D03*
X137250000Y-81600000D03*
X147800000Y-81900000D03*
X137750000Y-76750000D03*
X159000000Y-63250000D03*
X153600000Y-51800000D03*
X162500000Y-62500000D03*
X133500000Y-77400000D03*
X150000000Y-64600000D03*
X119250000Y-55000000D03*
X126750000Y-51750000D03*
X138900000Y-69900000D03*
X113000000Y-59750000D03*
X121250000Y-62500000D03*
X133925000Y-81600000D03*
X125750000Y-78931500D03*
X140575000Y-81600000D03*
X145300000Y-56900000D03*
X153000000Y-84500000D03*
X138250000Y-56750000D03*
X110750000Y-64750000D03*
X134200000Y-71300000D03*
X167000000Y-55000000D03*
X118000000Y-51750000D03*
X150100000Y-55400000D03*
X117800000Y-69500000D03*
X172700000Y-58900498D03*
X147200000Y-59900000D03*
X152000000Y-77000000D03*
X154800000Y-54400000D03*
X157500000Y-64750000D03*
X111050000Y-70250000D03*
X151000000Y-73500000D03*
X119000000Y-68500000D03*
X156500000Y-55300000D03*
X164700000Y-52700000D03*
X157500000Y-74000000D03*
X157000000Y-79000000D03*
X141500000Y-61500000D03*
X153000000Y-83300000D03*
X156800000Y-51800000D03*
X150700000Y-80200000D03*
X120150000Y-67500000D03*
X120050000Y-72750000D03*
X146850000Y-54700000D03*
X157100000Y-70000000D03*
X130500000Y-64500000D03*
X111900000Y-63500000D03*
X154000000Y-60750000D03*
X122800000Y-84800000D03*
X134600000Y-59600000D03*
X137050000Y-54900000D03*
X130600000Y-78300000D03*
X168500000Y-62500000D03*
X130250000Y-51750000D03*
X111050000Y-52200000D03*
X151200000Y-69000000D03*
X130600000Y-81600000D03*
X118700000Y-62600000D03*
X142950000Y-69900000D03*
X172550000Y-62350000D03*
X110900000Y-61800000D03*
X117000000Y-55000000D03*
X144500000Y-65500000D03*
X142500000Y-65500000D03*
X140500000Y-65500000D03*
X138500000Y-65500000D03*
X163000000Y-68857500D03*
X162000000Y-69806167D03*
X161043565Y-70799232D03*
X158500000Y-79000000D03*
D21*
X156000000Y-76487500D02*
X155950000Y-76437500D01*
D22*
X113550000Y-61825000D02*
X110925000Y-61825000D01*
D21*
X110925000Y-61825000D02*
X110900000Y-61800000D01*
D23*
X163500000Y-59500000D02*
X162200000Y-58200000D01*
D24*
X157000000Y-63425000D02*
X154925000Y-65500000D01*
X157750000Y-57250000D02*
X157000000Y-58000000D01*
X162200000Y-57250000D02*
X157750000Y-57250000D01*
D23*
X165050000Y-59500000D02*
X163500000Y-59500000D01*
D24*
X154925000Y-65500000D02*
X144500000Y-65500000D01*
X157000000Y-58000000D02*
X157000000Y-63425000D01*
D23*
X165050000Y-58000000D02*
X165750000Y-57300000D01*
X165050000Y-59500000D02*
X165050000Y-58000000D01*
X165750000Y-57300000D02*
X171800000Y-57300000D01*
X162200000Y-58200000D02*
X162200000Y-57250000D01*
D24*
X142500000Y-64500000D02*
X143750000Y-63250000D01*
X145200000Y-63250000D02*
X154750000Y-63250000D01*
X142500000Y-65500000D02*
X142500000Y-64500000D01*
X143000000Y-60450000D02*
X144450000Y-60450000D01*
X144450000Y-60450000D02*
X145200000Y-61200000D01*
X145200000Y-61200000D02*
X145200000Y-63250000D01*
X143750000Y-63250000D02*
X145200000Y-63250000D01*
X154750000Y-63250000D02*
X154800000Y-63300000D01*
X140500000Y-65500000D02*
X140500000Y-64500000D01*
X137800000Y-63300000D02*
X128250000Y-63300000D01*
X140500000Y-64500000D02*
X139300000Y-63300000D01*
X137800000Y-61200000D02*
X138550000Y-60450000D01*
X139300000Y-63300000D02*
X137800000Y-63300000D01*
X137800000Y-63300000D02*
X137800000Y-61200000D01*
X138550000Y-60450000D02*
X140000000Y-60450000D01*
X128250000Y-63300000D02*
X128200000Y-63250000D01*
D23*
X121800000Y-58700000D02*
X121800000Y-57300000D01*
D24*
X128000000Y-65500000D02*
X138500000Y-65500000D01*
X119000000Y-58000000D02*
X119000000Y-59450000D01*
X119000000Y-59450000D02*
X118950000Y-59500000D01*
X118250000Y-57250000D02*
X119000000Y-58000000D01*
X125300000Y-57300000D02*
X126500000Y-58500000D01*
D23*
X121000000Y-59500000D02*
X121800000Y-58700000D01*
D24*
X118250000Y-57250000D02*
X112200000Y-57250000D01*
X121800000Y-57300000D02*
X125300000Y-57300000D01*
X126500000Y-64000000D02*
X128000000Y-65500000D01*
X126500000Y-58500000D02*
X126500000Y-64000000D01*
D23*
X118950000Y-59500000D02*
X121000000Y-59500000D01*
D22*
X114500000Y-63700000D02*
X114500000Y-66000000D01*
D21*
X145672639Y-68331000D02*
X146095639Y-67908000D01*
X136720864Y-67908000D02*
X137143864Y-68331000D01*
X135200000Y-68300000D02*
X135592000Y-67908000D01*
X167035000Y-66500000D02*
X169035000Y-64500000D01*
X135592000Y-67908000D02*
X136720864Y-67908000D01*
X146095639Y-67908000D02*
X163973712Y-67908000D01*
X163973712Y-67908000D02*
X165381712Y-66500000D01*
X137143864Y-68331000D02*
X145672639Y-68331000D01*
X135200000Y-69450000D02*
X135200000Y-68300000D01*
X165381712Y-66500000D02*
X167035000Y-66500000D01*
X131200000Y-69450000D02*
X131200000Y-68300000D01*
X163714000Y-67281000D02*
X166495000Y-64500000D01*
X145412927Y-67704000D02*
X145835927Y-67281000D01*
X131200000Y-68300000D02*
X132219000Y-67281000D01*
X145835927Y-67281000D02*
X163714000Y-67281000D01*
X132219000Y-67281000D02*
X136980576Y-67281000D01*
X137403576Y-67704000D02*
X145412927Y-67704000D01*
X136980576Y-67281000D02*
X137403576Y-67704000D01*
X145153215Y-67077000D02*
X145576215Y-66654000D01*
X127200000Y-69450000D02*
X127200000Y-68300000D01*
X137663288Y-67077000D02*
X145153215Y-67077000D01*
X128846000Y-66654000D02*
X137240288Y-66654000D01*
X137240288Y-66654000D02*
X137663288Y-67077000D01*
X161801000Y-66654000D02*
X163955000Y-64500000D01*
X145576215Y-66654000D02*
X161801000Y-66654000D01*
X127200000Y-68300000D02*
X128846000Y-66654000D01*
X159888000Y-66027000D02*
X161415000Y-64500000D01*
X123200000Y-69450000D02*
X123200000Y-68300000D01*
X125473000Y-66027000D02*
X137500000Y-66027000D01*
X123200000Y-68300000D02*
X125473000Y-66027000D01*
X145316503Y-66027000D02*
X159888000Y-66027000D01*
X137923000Y-66450000D02*
X144893503Y-66450000D01*
X144893503Y-66450000D02*
X145316503Y-66027000D01*
X137500000Y-66027000D02*
X137923000Y-66450000D01*
X139050000Y-72950000D02*
X139050000Y-76437500D01*
X160643833Y-68856167D02*
X162998667Y-68856167D01*
X162998667Y-68856167D02*
X163000000Y-68857500D01*
X140500000Y-71500000D02*
X158000000Y-71500000D01*
X158000000Y-71500000D02*
X160643833Y-68856167D01*
X139050000Y-72950000D02*
X140500000Y-71500000D01*
X158259712Y-72127000D02*
X147373000Y-72127000D01*
X146500000Y-73000000D02*
X146500000Y-76387500D01*
X160580545Y-69806167D02*
X158259712Y-72127000D01*
X162000000Y-69806167D02*
X160580545Y-69806167D01*
X146500000Y-76387500D02*
X146550000Y-76437500D01*
X147373000Y-72127000D02*
X146500000Y-73000000D01*
X135200000Y-77200000D02*
X136000000Y-78000000D01*
X139250000Y-78000000D02*
X140000000Y-77250000D01*
X135200000Y-75550000D02*
X135200000Y-77200000D01*
X136000000Y-78000000D02*
X139250000Y-78000000D01*
X140000000Y-77250000D02*
X140000000Y-74562500D01*
X154000000Y-73500000D02*
X154000000Y-76387500D01*
X158519424Y-72754000D02*
X154746000Y-72754000D01*
X160474192Y-70799232D02*
X158519424Y-72754000D01*
X161043565Y-70799232D02*
X160474192Y-70799232D01*
X154000000Y-76387500D02*
X154050000Y-76437500D01*
X154746000Y-72754000D02*
X154000000Y-73500000D01*
X131200000Y-77200000D02*
X131200000Y-75550000D01*
X132627000Y-78627000D02*
X131200000Y-77200000D01*
X147500000Y-78377000D02*
X147250000Y-78627000D01*
X147250000Y-78627000D02*
X132627000Y-78627000D01*
X147500000Y-74562500D02*
X147500000Y-78377000D01*
X158500000Y-80300000D02*
X158500000Y-79000000D01*
X155950000Y-81525000D02*
X157275000Y-81525000D01*
X157275000Y-81525000D02*
X158500000Y-80300000D01*
X149000000Y-78500000D02*
X148246000Y-79254000D01*
X155000000Y-74562500D02*
X155000000Y-77500000D01*
X129254000Y-79254000D02*
X127200000Y-77200000D01*
X127200000Y-77200000D02*
X127200000Y-75550000D01*
X155000000Y-77500000D02*
X154000000Y-78500000D01*
X154000000Y-78500000D02*
X149000000Y-78500000D01*
X148246000Y-79254000D02*
X129254000Y-79254000D01*
X154027000Y-79127000D02*
X155000000Y-80100000D01*
X155000000Y-80100000D02*
X155000000Y-83400000D01*
X148505712Y-79881000D02*
X149259712Y-79127000D01*
X123200000Y-77900000D02*
X125181000Y-79881000D01*
X149259712Y-79127000D02*
X154027000Y-79127000D01*
X125181000Y-79881000D02*
X148505712Y-79881000D01*
X123200000Y-75550000D02*
X123200000Y-77900000D01*
D25*
X112500000Y-66000000D02*
X112500000Y-68500000D01*
G04 #@! TA.AperFunction,Conductor*
G36*
X121258808Y-76566965D02*
G01*
X121294142Y-76591825D01*
X121301341Y-76599024D01*
X121301347Y-76599029D01*
X121301348Y-76599030D01*
X121452261Y-76692115D01*
X121620573Y-76747887D01*
X121660527Y-76751968D01*
X121724446Y-76758500D01*
X121724454Y-76758500D01*
X122315500Y-76758500D01*
X122383621Y-76778502D01*
X122430114Y-76832158D01*
X122441500Y-76884500D01*
X122441500Y-77835559D01*
X122440170Y-77853819D01*
X122436659Y-77877786D01*
X122436659Y-77877791D01*
X122441259Y-77930384D01*
X122441499Y-77935868D01*
X122441499Y-77944171D01*
X122441500Y-77944183D01*
X122445347Y-77977095D01*
X122452112Y-78054419D01*
X122453596Y-78061606D01*
X122453531Y-78061619D01*
X122455165Y-78068989D01*
X122455229Y-78068975D01*
X122456921Y-78076116D01*
X122483473Y-78149064D01*
X122507885Y-78222736D01*
X122510987Y-78229388D01*
X122510926Y-78229416D01*
X122514211Y-78236202D01*
X122514270Y-78236173D01*
X122517560Y-78242724D01*
X122517564Y-78242731D01*
X122517565Y-78242732D01*
X122544334Y-78283432D01*
X122560233Y-78307605D01*
X122600967Y-78373648D01*
X122605522Y-78379408D01*
X122605468Y-78379450D01*
X122610228Y-78385292D01*
X122610279Y-78385250D01*
X122614993Y-78390868D01*
X122671482Y-78444163D01*
X124599092Y-80371773D01*
X124611065Y-80385627D01*
X124613321Y-80388658D01*
X124625531Y-80405058D01*
X124636403Y-80414181D01*
X124665975Y-80438994D01*
X124670021Y-80442702D01*
X124675899Y-80448580D01*
X124701896Y-80469136D01*
X124761360Y-80519032D01*
X124761366Y-80519035D01*
X124767495Y-80523067D01*
X124767457Y-80523123D01*
X124773811Y-80527171D01*
X124773847Y-80527114D01*
X124780089Y-80530964D01*
X124780091Y-80530965D01*
X124780094Y-80530967D01*
X124850447Y-80563773D01*
X124919812Y-80598609D01*
X124919814Y-80598609D01*
X124926713Y-80601121D01*
X124926689Y-80601184D01*
X124933806Y-80603658D01*
X124933828Y-80603594D01*
X124940792Y-80605902D01*
X125016818Y-80621599D01*
X125092343Y-80639500D01*
X125099632Y-80640352D01*
X125099624Y-80640418D01*
X125107123Y-80641184D01*
X125107129Y-80641118D01*
X125114434Y-80641756D01*
X125114442Y-80641758D01*
X125192061Y-80639500D01*
X148441271Y-80639500D01*
X148459531Y-80640830D01*
X148464427Y-80641547D01*
X148483501Y-80644341D01*
X148516858Y-80641422D01*
X148536097Y-80639740D01*
X148541590Y-80639500D01*
X148549888Y-80639500D01*
X148549892Y-80639500D01*
X148576224Y-80636421D01*
X148582808Y-80635652D01*
X148589572Y-80635060D01*
X148660138Y-80628887D01*
X148660144Y-80628884D01*
X148667330Y-80627402D01*
X148667343Y-80627468D01*
X148674699Y-80625836D01*
X148674684Y-80625771D01*
X148681816Y-80624079D01*
X148681825Y-80624079D01*
X148754777Y-80597526D01*
X148828450Y-80573114D01*
X148828452Y-80573112D01*
X148835101Y-80570012D01*
X148835130Y-80570074D01*
X148841915Y-80566789D01*
X148841885Y-80566729D01*
X148848440Y-80563436D01*
X148848444Y-80563435D01*
X148913317Y-80520766D01*
X148979363Y-80480030D01*
X148979372Y-80480020D01*
X148985120Y-80475477D01*
X148985162Y-80475531D01*
X148991001Y-80470775D01*
X148990958Y-80470723D01*
X148996577Y-80466006D01*
X148996586Y-80466001D01*
X149022065Y-80438994D01*
X149049876Y-80409517D01*
X149536989Y-79922404D01*
X149599301Y-79888379D01*
X149626084Y-79885500D01*
X153660629Y-79885500D01*
X153728750Y-79905502D01*
X153749724Y-79922405D01*
X154204595Y-80377276D01*
X154238621Y-80439588D01*
X154241500Y-80466371D01*
X154241500Y-82528745D01*
X154236497Y-82563897D01*
X154194438Y-82708667D01*
X154194437Y-82708670D01*
X154191500Y-82745994D01*
X154191500Y-84054006D01*
X154194437Y-84091329D01*
X154240856Y-84251105D01*
X154325544Y-84394303D01*
X154325549Y-84394310D01*
X154443189Y-84511950D01*
X154443196Y-84511955D01*
X154586394Y-84596643D01*
X154586397Y-84596643D01*
X154586399Y-84596645D01*
X154746169Y-84643062D01*
X154753634Y-84643649D01*
X154783494Y-84646000D01*
X154783498Y-84646000D01*
X155216506Y-84646000D01*
X155241388Y-84644041D01*
X155253831Y-84643062D01*
X155413601Y-84596645D01*
X155413603Y-84596643D01*
X155413605Y-84596643D01*
X155485204Y-84554299D01*
X155556807Y-84511953D01*
X155674453Y-84394307D01*
X155759145Y-84251101D01*
X155805562Y-84091331D01*
X155808500Y-84054002D01*
X155808500Y-82896999D01*
X155828502Y-82828879D01*
X155882158Y-82782386D01*
X155934500Y-82771000D01*
X156166506Y-82771000D01*
X156191388Y-82769041D01*
X156203831Y-82768062D01*
X156363601Y-82721645D01*
X156363603Y-82721643D01*
X156363605Y-82721643D01*
X156435203Y-82679298D01*
X156506807Y-82636953D01*
X156624453Y-82519307D01*
X156709145Y-82376101D01*
X156709654Y-82374347D01*
X156710428Y-82373134D01*
X156712291Y-82368831D01*
X156712985Y-82369131D01*
X156747866Y-82314512D01*
X156812362Y-82284834D01*
X156830651Y-82283500D01*
X157210559Y-82283500D01*
X157228819Y-82284830D01*
X157233715Y-82285547D01*
X157252789Y-82288341D01*
X157286146Y-82285422D01*
X157305385Y-82283740D01*
X157310878Y-82283500D01*
X157319176Y-82283500D01*
X157319180Y-82283500D01*
X157345512Y-82280421D01*
X157352096Y-82279652D01*
X157358861Y-82279060D01*
X157429426Y-82272887D01*
X157429432Y-82272884D01*
X157436618Y-82271402D01*
X157436631Y-82271468D01*
X157443987Y-82269836D01*
X157443972Y-82269771D01*
X157451104Y-82268079D01*
X157451113Y-82268079D01*
X157524065Y-82241526D01*
X157597738Y-82217114D01*
X157597740Y-82217112D01*
X157604389Y-82214012D01*
X157604418Y-82214074D01*
X157611203Y-82210789D01*
X157611173Y-82210729D01*
X157617728Y-82207436D01*
X157617732Y-82207435D01*
X157682605Y-82164766D01*
X157748651Y-82124030D01*
X157748660Y-82124020D01*
X157754408Y-82119477D01*
X157754450Y-82119531D01*
X157760289Y-82114775D01*
X157760246Y-82114723D01*
X157765865Y-82110006D01*
X157765874Y-82110001D01*
X157819163Y-82053517D01*
X158990784Y-80881895D01*
X159004617Y-80869941D01*
X159024058Y-80855469D01*
X159058001Y-80815015D01*
X159061700Y-80810979D01*
X159067581Y-80805100D01*
X159077547Y-80792494D01*
X159088135Y-80779105D01*
X159115495Y-80746498D01*
X159138032Y-80719640D01*
X159138033Y-80719636D01*
X159138036Y-80719634D01*
X159142070Y-80713502D01*
X159142127Y-80713539D01*
X159146171Y-80707191D01*
X159146112Y-80707155D01*
X159149961Y-80700912D01*
X159149967Y-80700905D01*
X159182775Y-80630547D01*
X159217609Y-80561188D01*
X159217610Y-80561182D01*
X159220119Y-80554291D01*
X159220184Y-80554314D01*
X159222658Y-80547197D01*
X159222594Y-80547176D01*
X159224903Y-80540208D01*
X159240607Y-80464150D01*
X159252719Y-80413047D01*
X159258500Y-80388656D01*
X159258500Y-80388649D01*
X159259352Y-80381368D01*
X159259419Y-80381375D01*
X159260185Y-80373877D01*
X159260119Y-80373872D01*
X159260757Y-80366565D01*
X159260759Y-80366558D01*
X159258500Y-80288920D01*
X159258500Y-79710555D01*
X159278502Y-79642435D01*
X159287097Y-79630627D01*
X159306102Y-79607469D01*
X159364779Y-79567502D01*
X159435750Y-79565602D01*
X159496482Y-79602374D01*
X159527693Y-79666142D01*
X159529500Y-79687405D01*
X159529500Y-89033500D01*
X159509498Y-89101621D01*
X159455842Y-89148114D01*
X159403500Y-89159500D01*
X156114951Y-89159500D01*
X156046830Y-89139498D01*
X156000337Y-89085842D01*
X155990233Y-89015568D01*
X156019727Y-88950988D01*
X156054982Y-88922686D01*
X156205576Y-88841189D01*
X156383240Y-88702906D01*
X156535722Y-88537268D01*
X156658860Y-88348791D01*
X156749296Y-88142616D01*
X156804564Y-87924368D01*
X156823156Y-87700000D01*
X156804564Y-87475632D01*
X156749296Y-87257384D01*
X156658860Y-87051209D01*
X156603492Y-86966462D01*
X156535724Y-86862734D01*
X156535720Y-86862729D01*
X156383237Y-86697091D01*
X156301382Y-86633381D01*
X156205576Y-86558811D01*
X156007574Y-86451658D01*
X156007572Y-86451657D01*
X156007571Y-86451656D01*
X155794639Y-86378557D01*
X155794630Y-86378555D01*
X155750476Y-86371187D01*
X155572569Y-86341500D01*
X155347431Y-86341500D01*
X155199210Y-86366233D01*
X155125369Y-86378555D01*
X155125360Y-86378557D01*
X154912428Y-86451656D01*
X154912426Y-86451658D01*
X154714426Y-86558810D01*
X154714424Y-86558811D01*
X154536762Y-86697091D01*
X154384279Y-86862729D01*
X154384279Y-86862730D01*
X154295482Y-86998643D01*
X154241478Y-87044731D01*
X154171130Y-87054306D01*
X154106773Y-87024328D01*
X154084516Y-86998642D01*
X153995724Y-86862734D01*
X153995720Y-86862729D01*
X153843237Y-86697091D01*
X153761382Y-86633381D01*
X153665576Y-86558811D01*
X153467574Y-86451658D01*
X153467572Y-86451657D01*
X153467571Y-86451656D01*
X153254639Y-86378557D01*
X153254630Y-86378555D01*
X153210476Y-86371187D01*
X153032569Y-86341500D01*
X152807431Y-86341500D01*
X152659211Y-86366233D01*
X152585369Y-86378555D01*
X152585360Y-86378557D01*
X152372428Y-86451656D01*
X152372426Y-86451658D01*
X152174426Y-86558810D01*
X152174424Y-86558811D01*
X151996762Y-86697091D01*
X151844279Y-86862729D01*
X151844275Y-86862734D01*
X151731483Y-87035377D01*
X151677479Y-87081466D01*
X151607132Y-87091041D01*
X151542774Y-87061064D01*
X151504841Y-87001051D01*
X151500000Y-86966462D01*
X151500000Y-82500000D01*
X123500000Y-82500000D01*
X123500000Y-89033500D01*
X123479998Y-89101621D01*
X123426342Y-89148114D01*
X123374000Y-89159500D01*
X121625070Y-89159500D01*
X121556949Y-89139498D01*
X121510456Y-89085842D01*
X121499078Y-89034932D01*
X121498124Y-88950988D01*
X121430500Y-82999983D01*
X121430500Y-78999901D01*
X121430500Y-78739676D01*
X121409996Y-78439927D01*
X121407183Y-78361145D01*
X121403815Y-78349555D01*
X121394970Y-78220241D01*
X121350086Y-77893687D01*
X121343171Y-77829372D01*
X121340093Y-77820987D01*
X121324075Y-77704443D01*
X121321255Y-77690874D01*
X121250262Y-77349235D01*
X121241993Y-77303405D01*
X121239651Y-77298172D01*
X121218146Y-77194684D01*
X121109775Y-76807905D01*
X121104131Y-76785792D01*
X121102969Y-76783614D01*
X121083720Y-76714915D01*
X121084601Y-76643924D01*
X121123723Y-76584679D01*
X121188665Y-76555990D01*
X121258808Y-76566965D01*
G37*
G04 #@! TD.AperFunction*
G04 #@! TA.AperFunction,Conductor*
G36*
X136941621Y-51020502D02*
G01*
X136988114Y-51074158D01*
X136999500Y-51126500D01*
X136999500Y-51218326D01*
X137020674Y-51460355D01*
X137024506Y-51545683D01*
X137029559Y-51561915D01*
X137037556Y-51653314D01*
X137082236Y-51906707D01*
X137092905Y-51985468D01*
X137098545Y-51999200D01*
X137105881Y-52040803D01*
X137113381Y-52083337D01*
X137183992Y-52346860D01*
X137200109Y-52417473D01*
X137205918Y-52428694D01*
X137226396Y-52505116D01*
X137325460Y-52777293D01*
X137345259Y-52838229D01*
X137350838Y-52847018D01*
X137375740Y-52915434D01*
X137505932Y-53194632D01*
X137527219Y-53244435D01*
X137532169Y-53250899D01*
X137560276Y-53311172D01*
X137724554Y-53595711D01*
X137744550Y-53632870D01*
X137748496Y-53637180D01*
X137778598Y-53689319D01*
X137778598Y-53689318D01*
X137778603Y-53689326D01*
X137967568Y-53959196D01*
X137980266Y-53977331D01*
X137995542Y-54000473D01*
X137998125Y-54002837D01*
X138015526Y-54027688D01*
X138029057Y-54047012D01*
X138271996Y-54336536D01*
X138278196Y-54344310D01*
X138279100Y-54345001D01*
X138309732Y-54381507D01*
X138618493Y-54690268D01*
X138952988Y-54970943D01*
X139310674Y-55221397D01*
X139310678Y-55221399D01*
X139310682Y-55221402D01*
X139501314Y-55331463D01*
X139688826Y-55439723D01*
X139688828Y-55439724D01*
X139688827Y-55439724D01*
X139884754Y-55531086D01*
X140084568Y-55624261D01*
X140206213Y-55668536D01*
X140494884Y-55773604D01*
X140494883Y-55773604D01*
X140916663Y-55886619D01*
X141346686Y-55962444D01*
X141346686Y-55962443D01*
X141781673Y-56000500D01*
X141781674Y-56000500D01*
X142218326Y-56000500D01*
X142218327Y-56000500D01*
X142653314Y-55962443D01*
X142653314Y-55962444D01*
X143083337Y-55886619D01*
X143505117Y-55773604D01*
X143505116Y-55773604D01*
X143793787Y-55668536D01*
X143915432Y-55624261D01*
X144115246Y-55531086D01*
X144311173Y-55439724D01*
X144311172Y-55439724D01*
X144311174Y-55439723D01*
X144498686Y-55331463D01*
X144689318Y-55221402D01*
X144689321Y-55221399D01*
X144689326Y-55221397D01*
X145047012Y-54970943D01*
X145381507Y-54690268D01*
X145690264Y-54381511D01*
X145690263Y-54381513D01*
X145690779Y-54380896D01*
X145720898Y-54345002D01*
X145721645Y-54344505D01*
X145727949Y-54336600D01*
X145970943Y-54047012D01*
X146001873Y-54002839D01*
X146004035Y-54001110D01*
X146019699Y-53977380D01*
X146074827Y-53898649D01*
X147366500Y-53898649D01*
X147373009Y-53959196D01*
X147373011Y-53959204D01*
X147424110Y-54096202D01*
X147424112Y-54096207D01*
X147511738Y-54213261D01*
X147628792Y-54300887D01*
X147628794Y-54300888D01*
X147628796Y-54300889D01*
X147683900Y-54321442D01*
X147765795Y-54351988D01*
X147765803Y-54351990D01*
X147826350Y-54358499D01*
X147826355Y-54358499D01*
X147826362Y-54358500D01*
X147826368Y-54358500D01*
X149623632Y-54358500D01*
X149623638Y-54358500D01*
X149623645Y-54358499D01*
X149623649Y-54358499D01*
X149684196Y-54351990D01*
X149684199Y-54351989D01*
X149684201Y-54351989D01*
X149821204Y-54300889D01*
X149889852Y-54249500D01*
X149938261Y-54213261D01*
X150025886Y-54096208D01*
X150025885Y-54096208D01*
X150025889Y-54096204D01*
X150069999Y-53977939D01*
X150112545Y-53921107D01*
X150179066Y-53896296D01*
X150248440Y-53911388D01*
X150280753Y-53936635D01*
X150341699Y-54002840D01*
X150341762Y-54002908D01*
X150345853Y-54006092D01*
X150519424Y-54141189D01*
X150717426Y-54248342D01*
X150717427Y-54248342D01*
X150717428Y-54248343D01*
X150819640Y-54283432D01*
X150930365Y-54321444D01*
X151152431Y-54358500D01*
X151152435Y-54358500D01*
X151377565Y-54358500D01*
X151377569Y-54358500D01*
X151599635Y-54321444D01*
X151812574Y-54248342D01*
X152010576Y-54141189D01*
X152188240Y-54002906D01*
X152340722Y-53837268D01*
X152463860Y-53648791D01*
X152554296Y-53442616D01*
X152609564Y-53224368D01*
X152628156Y-53000000D01*
X152609564Y-52775632D01*
X152554296Y-52557384D01*
X152463860Y-52351209D01*
X152446500Y-52324637D01*
X152340724Y-52162734D01*
X152340720Y-52162729D01*
X152211220Y-52022057D01*
X152188240Y-51997094D01*
X152188239Y-51997093D01*
X152188237Y-51997091D01*
X152068372Y-51903796D01*
X152010576Y-51858811D01*
X151812574Y-51751658D01*
X151812572Y-51751657D01*
X151812571Y-51751656D01*
X151599639Y-51678557D01*
X151599630Y-51678555D01*
X151555476Y-51671187D01*
X151377569Y-51641500D01*
X151152431Y-51641500D01*
X151004211Y-51666233D01*
X150930369Y-51678555D01*
X150930360Y-51678557D01*
X150717428Y-51751656D01*
X150717426Y-51751658D01*
X150519426Y-51858810D01*
X150519424Y-51858811D01*
X150341762Y-51997091D01*
X150280754Y-52063363D01*
X150219901Y-52099933D01*
X150148936Y-52097798D01*
X150090391Y-52057636D01*
X150069999Y-52022057D01*
X150026989Y-51906746D01*
X150025889Y-51903796D01*
X150025888Y-51903794D01*
X150025887Y-51903792D01*
X149938261Y-51786738D01*
X149821207Y-51699112D01*
X149821202Y-51699110D01*
X149684204Y-51648011D01*
X149684196Y-51648009D01*
X149623649Y-51641500D01*
X149623638Y-51641500D01*
X147826362Y-51641500D01*
X147826350Y-51641500D01*
X147765803Y-51648009D01*
X147765795Y-51648011D01*
X147628797Y-51699110D01*
X147628792Y-51699112D01*
X147511738Y-51786738D01*
X147424112Y-51903792D01*
X147424110Y-51903797D01*
X147373011Y-52040795D01*
X147373009Y-52040803D01*
X147366500Y-52101350D01*
X147366500Y-53898649D01*
X146074827Y-53898649D01*
X146221397Y-53689326D01*
X146251501Y-53637183D01*
X146254840Y-53633999D01*
X146275433Y-53595732D01*
X146275446Y-53595711D01*
X146439723Y-53311174D01*
X146467830Y-53250899D01*
X146472079Y-53246072D01*
X146494046Y-53194676D01*
X146624261Y-52915432D01*
X146649161Y-52847018D01*
X146654032Y-52840402D01*
X146674521Y-52777342D01*
X146773605Y-52505112D01*
X146794079Y-52428699D01*
X146799272Y-52420179D01*
X146815993Y-52346914D01*
X146886619Y-52083337D01*
X146901453Y-51999208D01*
X146906652Y-51988716D01*
X146917753Y-51906765D01*
X146954368Y-51699112D01*
X146962444Y-51653314D01*
X146962443Y-51653315D01*
X146970429Y-51562035D01*
X146975318Y-51549536D01*
X146979321Y-51460397D01*
X147000500Y-51218327D01*
X147000500Y-51126785D01*
X147020502Y-51058665D01*
X147074158Y-51012172D01*
X147126780Y-51000786D01*
X173373786Y-51060213D01*
X173441861Y-51080370D01*
X173488232Y-51134130D01*
X173499500Y-51186213D01*
X173499500Y-66173500D01*
X173479498Y-66241621D01*
X173425842Y-66288114D01*
X173373500Y-66299500D01*
X169694750Y-66299500D01*
X169690849Y-66299226D01*
X169690064Y-66299404D01*
X169689616Y-66299616D01*
X169688796Y-66299958D01*
X169685984Y-66302384D01*
X159542158Y-73910254D01*
X159534663Y-73914555D01*
X159529489Y-73919744D01*
X159528411Y-73927399D01*
X159529500Y-73936002D01*
X159529500Y-78312594D01*
X159509498Y-78380715D01*
X159455842Y-78427208D01*
X159385568Y-78437312D01*
X159320988Y-78407818D01*
X159306101Y-78392528D01*
X159303816Y-78389744D01*
X159216568Y-78283432D01*
X159063004Y-78157405D01*
X158887804Y-78063759D01*
X158697701Y-78006092D01*
X158697700Y-78006091D01*
X158697694Y-78006090D01*
X158500003Y-77986620D01*
X158499997Y-77986620D01*
X158302305Y-78006090D01*
X158112195Y-78063759D01*
X157936995Y-78157405D01*
X157783432Y-78283432D01*
X157657405Y-78436995D01*
X157563759Y-78612195D01*
X157506090Y-78802305D01*
X157486620Y-78999996D01*
X157486620Y-79000003D01*
X157506090Y-79197694D01*
X157506091Y-79197700D01*
X157506092Y-79197701D01*
X157563759Y-79387804D01*
X157657405Y-79563004D01*
X157712898Y-79630622D01*
X157740653Y-79695968D01*
X157741500Y-79710556D01*
X157741500Y-79933629D01*
X157721498Y-80001750D01*
X157704595Y-80022724D01*
X156997724Y-80729595D01*
X156935412Y-80763621D01*
X156908629Y-80766500D01*
X156830651Y-80766500D01*
X156762530Y-80746498D01*
X156716037Y-80692842D01*
X156709654Y-80675652D01*
X156709145Y-80673899D01*
X156691664Y-80644341D01*
X156624455Y-80530696D01*
X156624450Y-80530689D01*
X156506810Y-80413049D01*
X156506803Y-80413044D01*
X156363605Y-80328356D01*
X156203829Y-80281937D01*
X156166506Y-80279000D01*
X156166502Y-80279000D01*
X155886176Y-80279000D01*
X155818055Y-80258998D01*
X155771562Y-80205342D01*
X155761458Y-80135068D01*
X155761506Y-80134743D01*
X155763340Y-80122217D01*
X155763341Y-80122211D01*
X155760875Y-80094027D01*
X155758740Y-80069614D01*
X155758500Y-80064121D01*
X155758500Y-80055819D01*
X155754652Y-80022905D01*
X155752801Y-80001750D01*
X155747887Y-79945574D01*
X155747885Y-79945570D01*
X155746403Y-79938388D01*
X155746469Y-79938374D01*
X155744837Y-79931012D01*
X155744772Y-79931028D01*
X155743080Y-79923890D01*
X155716526Y-79850934D01*
X155716525Y-79850933D01*
X155692114Y-79777262D01*
X155692109Y-79777255D01*
X155689012Y-79770611D01*
X155689074Y-79770581D01*
X155685788Y-79763795D01*
X155685728Y-79763826D01*
X155682433Y-79757265D01*
X155639766Y-79692394D01*
X155599031Y-79626351D01*
X155599030Y-79626349D01*
X155599027Y-79626346D01*
X155594478Y-79620592D01*
X155594531Y-79620549D01*
X155589766Y-79614700D01*
X155589715Y-79614744D01*
X155584998Y-79609122D01*
X155528518Y-79555837D01*
X155360485Y-79387804D01*
X154861774Y-78889093D01*
X154827751Y-78826783D01*
X154832815Y-78755968D01*
X154861773Y-78710907D01*
X155490781Y-78081898D01*
X155504620Y-78069938D01*
X155524058Y-78055469D01*
X155558001Y-78015015D01*
X155561700Y-78010979D01*
X155567581Y-78005100D01*
X155577547Y-77992494D01*
X155588135Y-77979105D01*
X155612596Y-77949953D01*
X155638032Y-77919640D01*
X155638033Y-77919636D01*
X155638036Y-77919634D01*
X155642070Y-77913502D01*
X155642127Y-77913539D01*
X155646171Y-77907191D01*
X155646112Y-77907155D01*
X155649961Y-77900912D01*
X155649967Y-77900905D01*
X155682775Y-77830547D01*
X155717609Y-77761188D01*
X155717610Y-77761182D01*
X155720119Y-77754291D01*
X155720184Y-77754314D01*
X155722658Y-77747197D01*
X155722594Y-77747176D01*
X155724903Y-77740208D01*
X155740607Y-77664150D01*
X155747742Y-77634047D01*
X155758500Y-77588656D01*
X155758500Y-77588649D01*
X155759352Y-77581368D01*
X155759419Y-77581375D01*
X155760185Y-77573877D01*
X155760119Y-77573872D01*
X155760757Y-77566565D01*
X155760759Y-77566558D01*
X155758500Y-77488920D01*
X155758500Y-75433751D01*
X155763503Y-75398599D01*
X155805562Y-75253831D01*
X155808500Y-75216502D01*
X155808500Y-73908498D01*
X155805562Y-73871169D01*
X155759145Y-73711399D01*
X155753965Y-73702640D01*
X155736505Y-73633824D01*
X155759021Y-73566493D01*
X155814365Y-73522023D01*
X155862418Y-73512500D01*
X158454983Y-73512500D01*
X158473243Y-73513830D01*
X158478139Y-73514547D01*
X158497213Y-73517341D01*
X158530570Y-73514422D01*
X158549809Y-73512740D01*
X158555302Y-73512500D01*
X158563600Y-73512500D01*
X158563604Y-73512500D01*
X158589936Y-73509421D01*
X158596520Y-73508652D01*
X158603284Y-73508060D01*
X158673850Y-73501887D01*
X158673856Y-73501884D01*
X158681042Y-73500402D01*
X158681055Y-73500468D01*
X158688411Y-73498836D01*
X158688396Y-73498771D01*
X158695528Y-73497079D01*
X158695537Y-73497079D01*
X158768489Y-73470526D01*
X158842162Y-73446114D01*
X158842164Y-73446112D01*
X158848813Y-73443012D01*
X158848842Y-73443074D01*
X158855627Y-73439789D01*
X158855597Y-73439729D01*
X158862152Y-73436436D01*
X158862156Y-73436435D01*
X158927029Y-73393766D01*
X158993075Y-73353030D01*
X158993084Y-73353020D01*
X158998832Y-73348477D01*
X158998874Y-73348531D01*
X159004713Y-73343775D01*
X159004670Y-73343723D01*
X159010289Y-73339006D01*
X159010298Y-73339001D01*
X159063587Y-73282517D01*
X160567735Y-71778368D01*
X160630044Y-71744346D01*
X160693401Y-71746890D01*
X160845864Y-71793140D01*
X160845868Y-71793140D01*
X160845870Y-71793141D01*
X161043562Y-71812612D01*
X161043565Y-71812612D01*
X161043568Y-71812612D01*
X161241259Y-71793141D01*
X161241260Y-71793140D01*
X161241266Y-71793140D01*
X161431369Y-71735473D01*
X161606569Y-71641827D01*
X161760133Y-71515800D01*
X161886160Y-71362236D01*
X161979806Y-71187036D01*
X162037473Y-70996933D01*
X162045346Y-70916990D01*
X162071927Y-70851159D01*
X162129881Y-70810148D01*
X162158390Y-70803947D01*
X162197694Y-70800076D01*
X162197695Y-70800075D01*
X162197701Y-70800075D01*
X162387804Y-70742408D01*
X162563004Y-70648762D01*
X162716568Y-70522735D01*
X162842595Y-70369171D01*
X162936241Y-70193971D01*
X162993908Y-70003868D01*
X162996939Y-69973090D01*
X163023519Y-69907261D01*
X163081472Y-69866249D01*
X163109981Y-69860047D01*
X163162393Y-69854885D01*
X163197693Y-69851409D01*
X163197694Y-69851408D01*
X163197701Y-69851408D01*
X163387804Y-69793741D01*
X163563004Y-69700095D01*
X163716568Y-69574068D01*
X163842595Y-69420504D01*
X163936241Y-69245304D01*
X163993908Y-69055201D01*
X163997069Y-69023115D01*
X164013380Y-68857503D01*
X164013380Y-68857499D01*
X164007158Y-68794334D01*
X164020386Y-68724580D01*
X164069225Y-68673051D01*
X164121570Y-68656461D01*
X164128138Y-68655887D01*
X164128144Y-68655884D01*
X164135330Y-68654402D01*
X164135343Y-68654468D01*
X164142699Y-68652836D01*
X164142684Y-68652771D01*
X164149816Y-68651079D01*
X164149825Y-68651079D01*
X164222777Y-68624526D01*
X164296450Y-68600114D01*
X164296452Y-68600112D01*
X164303101Y-68597012D01*
X164303130Y-68597074D01*
X164309915Y-68593789D01*
X164309885Y-68593729D01*
X164316440Y-68590436D01*
X164316444Y-68590435D01*
X164381317Y-68547766D01*
X164447363Y-68507030D01*
X164447372Y-68507020D01*
X164453120Y-68502477D01*
X164453162Y-68502531D01*
X164459001Y-68497775D01*
X164458958Y-68497723D01*
X164464577Y-68493006D01*
X164464586Y-68493001D01*
X164517875Y-68436517D01*
X165658987Y-67295405D01*
X165721300Y-67261379D01*
X165748083Y-67258500D01*
X166970559Y-67258500D01*
X166988819Y-67259830D01*
X166993715Y-67260547D01*
X167012789Y-67263341D01*
X167046146Y-67260422D01*
X167065385Y-67258740D01*
X167070878Y-67258500D01*
X167079176Y-67258500D01*
X167079180Y-67258500D01*
X167105512Y-67255421D01*
X167112096Y-67254652D01*
X167118860Y-67254060D01*
X167189426Y-67247887D01*
X167189432Y-67247884D01*
X167196618Y-67246402D01*
X167196631Y-67246468D01*
X167203987Y-67244836D01*
X167203972Y-67244771D01*
X167211104Y-67243079D01*
X167211113Y-67243079D01*
X167284065Y-67216526D01*
X167357738Y-67192114D01*
X167357740Y-67192112D01*
X167364389Y-67189012D01*
X167364418Y-67189074D01*
X167371203Y-67185789D01*
X167371173Y-67185729D01*
X167377728Y-67182436D01*
X167377732Y-67182435D01*
X167442605Y-67139766D01*
X167508651Y-67099030D01*
X167508660Y-67099020D01*
X167514408Y-67094477D01*
X167514450Y-67094531D01*
X167520289Y-67089775D01*
X167520246Y-67089723D01*
X167525865Y-67085006D01*
X167525874Y-67085001D01*
X167579163Y-67028517D01*
X168728097Y-65879582D01*
X168790406Y-65845560D01*
X168837928Y-65844399D01*
X168922429Y-65858500D01*
X168922431Y-65858500D01*
X169147565Y-65858500D01*
X169147569Y-65858500D01*
X169369635Y-65821444D01*
X169582574Y-65748342D01*
X169780576Y-65641189D01*
X169958240Y-65502906D01*
X170019245Y-65436637D01*
X170080096Y-65400067D01*
X170151061Y-65402200D01*
X170209606Y-65442362D01*
X170230000Y-65477941D01*
X170274111Y-65596204D01*
X170274112Y-65596207D01*
X170361738Y-65713261D01*
X170478792Y-65800887D01*
X170478794Y-65800888D01*
X170478796Y-65800889D01*
X170533900Y-65821442D01*
X170615795Y-65851988D01*
X170615803Y-65851990D01*
X170676350Y-65858499D01*
X170676355Y-65858499D01*
X170676362Y-65858500D01*
X170676368Y-65858500D01*
X172473632Y-65858500D01*
X172473638Y-65858500D01*
X172473645Y-65858499D01*
X172473649Y-65858499D01*
X172534196Y-65851990D01*
X172534199Y-65851989D01*
X172534201Y-65851989D01*
X172671204Y-65800889D01*
X172741399Y-65748342D01*
X172788261Y-65713261D01*
X172875887Y-65596207D01*
X172875887Y-65596206D01*
X172875889Y-65596204D01*
X172926989Y-65459201D01*
X172928800Y-65442362D01*
X172933499Y-65398649D01*
X172933500Y-65398632D01*
X172933500Y-63601367D01*
X172933499Y-63601350D01*
X172926990Y-63540803D01*
X172926988Y-63540795D01*
X172875889Y-63403797D01*
X172875887Y-63403792D01*
X172788261Y-63286738D01*
X172671207Y-63199112D01*
X172671202Y-63199110D01*
X172534204Y-63148011D01*
X172534196Y-63148009D01*
X172473649Y-63141500D01*
X172473638Y-63141500D01*
X170676362Y-63141500D01*
X170676350Y-63141500D01*
X170615803Y-63148009D01*
X170615795Y-63148011D01*
X170478797Y-63199110D01*
X170478792Y-63199112D01*
X170361738Y-63286738D01*
X170274112Y-63403792D01*
X170274111Y-63403795D01*
X170230000Y-63522058D01*
X170187453Y-63578893D01*
X170120932Y-63603703D01*
X170051558Y-63588611D01*
X170019246Y-63563363D01*
X169958240Y-63497094D01*
X169958239Y-63497093D01*
X169958237Y-63497091D01*
X169838372Y-63403796D01*
X169780576Y-63358811D01*
X169582574Y-63251658D01*
X169582572Y-63251657D01*
X169582571Y-63251656D01*
X169369639Y-63178557D01*
X169369630Y-63178555D01*
X169325476Y-63171187D01*
X169147569Y-63141500D01*
X168922431Y-63141500D01*
X168774211Y-63166233D01*
X168700369Y-63178555D01*
X168700360Y-63178557D01*
X168487428Y-63251656D01*
X168487426Y-63251658D01*
X168289426Y-63358810D01*
X168289424Y-63358811D01*
X168111762Y-63497091D01*
X167959279Y-63662729D01*
X167870483Y-63798643D01*
X167816479Y-63844731D01*
X167746131Y-63854306D01*
X167681774Y-63824329D01*
X167659517Y-63798643D01*
X167570720Y-63662729D01*
X167418237Y-63497091D01*
X167298372Y-63403796D01*
X167240576Y-63358811D01*
X167042574Y-63251658D01*
X167042572Y-63251657D01*
X167042571Y-63251656D01*
X166829639Y-63178557D01*
X166829630Y-63178555D01*
X166785476Y-63171187D01*
X166607569Y-63141500D01*
X166382431Y-63141500D01*
X166234211Y-63166233D01*
X166160369Y-63178555D01*
X166160360Y-63178557D01*
X165947428Y-63251656D01*
X165947426Y-63251658D01*
X165749426Y-63358810D01*
X165749424Y-63358811D01*
X165571762Y-63497091D01*
X165419279Y-63662729D01*
X165330483Y-63798643D01*
X165276479Y-63844731D01*
X165206131Y-63854306D01*
X165141774Y-63824329D01*
X165119517Y-63798643D01*
X165030720Y-63662729D01*
X164878237Y-63497091D01*
X164758372Y-63403796D01*
X164700576Y-63358811D01*
X164502574Y-63251658D01*
X164502572Y-63251657D01*
X164502571Y-63251656D01*
X164289639Y-63178557D01*
X164289630Y-63178555D01*
X164245476Y-63171187D01*
X164067569Y-63141500D01*
X163842431Y-63141500D01*
X163694211Y-63166233D01*
X163620369Y-63178555D01*
X163620360Y-63178557D01*
X163407428Y-63251656D01*
X163407426Y-63251658D01*
X163209426Y-63358810D01*
X163209424Y-63358811D01*
X163031762Y-63497091D01*
X162879279Y-63662729D01*
X162790483Y-63798643D01*
X162736479Y-63844731D01*
X162666131Y-63854306D01*
X162601774Y-63824329D01*
X162579517Y-63798643D01*
X162490720Y-63662729D01*
X162338237Y-63497091D01*
X162218372Y-63403796D01*
X162160576Y-63358811D01*
X161962574Y-63251658D01*
X161962572Y-63251657D01*
X161962571Y-63251656D01*
X161749639Y-63178557D01*
X161749630Y-63178555D01*
X161705476Y-63171187D01*
X161527569Y-63141500D01*
X161302431Y-63141500D01*
X161154211Y-63166233D01*
X161080369Y-63178555D01*
X161080360Y-63178557D01*
X160867428Y-63251656D01*
X160867426Y-63251658D01*
X160669426Y-63358810D01*
X160669424Y-63358811D01*
X160491762Y-63497091D01*
X160339279Y-63662729D01*
X160339275Y-63662734D01*
X160216141Y-63851206D01*
X160125703Y-64057386D01*
X160125702Y-64057387D01*
X160070437Y-64275624D01*
X160070436Y-64275630D01*
X160070436Y-64275632D01*
X160055822Y-64451989D01*
X160051844Y-64500000D01*
X160069249Y-64710042D01*
X160054940Y-64779582D01*
X160032775Y-64809542D01*
X159610724Y-65231595D01*
X159548412Y-65265620D01*
X159521628Y-65268500D01*
X156391950Y-65268500D01*
X156323829Y-65248498D01*
X156277336Y-65194842D01*
X156267232Y-65124568D01*
X156296726Y-65059988D01*
X156302842Y-65053417D01*
X157404390Y-63951868D01*
X157417129Y-63941664D01*
X157416969Y-63941471D01*
X157423074Y-63936419D01*
X157423080Y-63936416D01*
X157472945Y-63883314D01*
X157494927Y-63861333D01*
X157499470Y-63855475D01*
X157503308Y-63850980D01*
X157536972Y-63815133D01*
X157547310Y-63796327D01*
X157558152Y-63779823D01*
X157571304Y-63762868D01*
X157590837Y-63717728D01*
X157593433Y-63712429D01*
X157617124Y-63669337D01*
X157622456Y-63648565D01*
X157628859Y-63629866D01*
X157637380Y-63610177D01*
X157645072Y-63561610D01*
X157646270Y-63555817D01*
X157658500Y-63508188D01*
X157658500Y-63486741D01*
X157660051Y-63467030D01*
X157663406Y-63445848D01*
X157658780Y-63396903D01*
X157658500Y-63390971D01*
X157658500Y-61086432D01*
X157678502Y-61018311D01*
X157732158Y-60971818D01*
X157802432Y-60961714D01*
X157867012Y-60991208D01*
X157883929Y-61009038D01*
X157888433Y-61014824D01*
X157892267Y-61019750D01*
X158075214Y-61188164D01*
X158283393Y-61324173D01*
X158283392Y-61324173D01*
X158429411Y-61388222D01*
X158511119Y-61424063D01*
X158511120Y-61424063D01*
X158511122Y-61424064D01*
X158703414Y-61472759D01*
X158752179Y-61485108D01*
X158917446Y-61498802D01*
X158937931Y-61500500D01*
X158937933Y-61500500D01*
X159062069Y-61500500D01*
X159081483Y-61498891D01*
X159247821Y-61485108D01*
X159488881Y-61424063D01*
X159716607Y-61324173D01*
X159924785Y-61188164D01*
X159957588Y-61157967D01*
X160107732Y-61019750D01*
X160107733Y-61019748D01*
X160107738Y-61019744D01*
X160260474Y-60823509D01*
X160378828Y-60604810D01*
X160459571Y-60369614D01*
X160500500Y-60124335D01*
X160500500Y-59875665D01*
X160459571Y-59630386D01*
X160398370Y-59452113D01*
X160378829Y-59395192D01*
X160378828Y-59395190D01*
X160260474Y-59176491D01*
X160260473Y-59176490D01*
X160232788Y-59140920D01*
X160107738Y-58980256D01*
X160107735Y-58980253D01*
X160107732Y-58980249D01*
X159924785Y-58811835D01*
X159716606Y-58675826D01*
X159716607Y-58675826D01*
X159488884Y-58575938D01*
X159488877Y-58575935D01*
X159247828Y-58514893D01*
X159247823Y-58514892D01*
X159247821Y-58514892D01*
X159114630Y-58503855D01*
X159062069Y-58499500D01*
X159062067Y-58499500D01*
X158937933Y-58499500D01*
X158937931Y-58499500D01*
X158876707Y-58504573D01*
X158752179Y-58514892D01*
X158752177Y-58514892D01*
X158752171Y-58514893D01*
X158511122Y-58575935D01*
X158511115Y-58575938D01*
X158283393Y-58675826D01*
X158075214Y-58811835D01*
X157892266Y-58980250D01*
X157892262Y-58980254D01*
X157883929Y-58990961D01*
X157826303Y-59032431D01*
X157755404Y-59036162D01*
X157693743Y-59000970D01*
X157660897Y-58938028D01*
X157658500Y-58913567D01*
X157658500Y-58324950D01*
X157678502Y-58256829D01*
X157695405Y-58235855D01*
X157985855Y-57945405D01*
X158048167Y-57911379D01*
X158074950Y-57908500D01*
X160799519Y-57908500D01*
X160867640Y-57928502D01*
X160914133Y-57982158D01*
X160922141Y-58005522D01*
X160923010Y-58009200D01*
X160974110Y-58146202D01*
X160974112Y-58146207D01*
X161061738Y-58263261D01*
X161178792Y-58350887D01*
X161178794Y-58350888D01*
X161178796Y-58350889D01*
X161225104Y-58368161D01*
X161315795Y-58401988D01*
X161315803Y-58401990D01*
X161376350Y-58408499D01*
X161376355Y-58408499D01*
X161376362Y-58408500D01*
X161515444Y-58408500D01*
X161583565Y-58428502D01*
X161623888Y-58470345D01*
X161624282Y-58471011D01*
X161632988Y-58488779D01*
X161640444Y-58507609D01*
X161640450Y-58507620D01*
X161668177Y-58545783D01*
X161671437Y-58550746D01*
X161686336Y-58575937D01*
X161692649Y-58586613D01*
X161695460Y-58591365D01*
X161709779Y-58605684D01*
X161722617Y-58620714D01*
X161726537Y-58626109D01*
X161734528Y-58637107D01*
X161755937Y-58654818D01*
X161770886Y-58667185D01*
X161775267Y-58671171D01*
X162430309Y-59326213D01*
X162992753Y-59888657D01*
X163002720Y-59901097D01*
X163002947Y-59900910D01*
X163007999Y-59907017D01*
X163008000Y-59907018D01*
X163059095Y-59954999D01*
X163080231Y-59976135D01*
X163085770Y-59980431D01*
X163090282Y-59984285D01*
X163111853Y-60004542D01*
X163124678Y-60016585D01*
X163124682Y-60016588D01*
X163142430Y-60026345D01*
X163158957Y-60037201D01*
X163169800Y-60045612D01*
X163174960Y-60049614D01*
X163218259Y-60068351D01*
X163223585Y-60070960D01*
X163264935Y-60093693D01*
X163264938Y-60093694D01*
X163264940Y-60093695D01*
X163284562Y-60098733D01*
X163303263Y-60105135D01*
X163315814Y-60110567D01*
X163321852Y-60113180D01*
X163321853Y-60113180D01*
X163321855Y-60113181D01*
X163368477Y-60120564D01*
X163374262Y-60121763D01*
X163419970Y-60133500D01*
X163440224Y-60133500D01*
X163459934Y-60135051D01*
X163462141Y-60135400D01*
X163479943Y-60138220D01*
X163514472Y-60134956D01*
X163526917Y-60133780D01*
X163532850Y-60133500D01*
X163962477Y-60133500D01*
X164030598Y-60153502D01*
X164077091Y-60207158D01*
X164082082Y-60219867D01*
X164107885Y-60297738D01*
X164200970Y-60448652D01*
X164200975Y-60448658D01*
X164326341Y-60574024D01*
X164326347Y-60574029D01*
X164326348Y-60574030D01*
X164477262Y-60667115D01*
X164645574Y-60722887D01*
X164749455Y-60733500D01*
X165350544Y-60733499D01*
X165454426Y-60722887D01*
X165622738Y-60667115D01*
X165773652Y-60574030D01*
X165899030Y-60448652D01*
X165992115Y-60297738D01*
X166047887Y-60129426D01*
X166058500Y-60025545D01*
X166058499Y-58974456D01*
X166047887Y-58870574D01*
X165992115Y-58702262D01*
X165899030Y-58551348D01*
X165899029Y-58551347D01*
X165899024Y-58551341D01*
X165773658Y-58425975D01*
X165773653Y-58425971D01*
X165773653Y-58425970D01*
X165773652Y-58425970D01*
X165752351Y-58412831D01*
X165704875Y-58360045D01*
X165693473Y-58289970D01*
X165721767Y-58224855D01*
X165729384Y-58216519D01*
X165975501Y-57970402D01*
X166037811Y-57936379D01*
X166064594Y-57933500D01*
X170396317Y-57933500D01*
X170464438Y-57953502D01*
X170510931Y-58007158D01*
X170521595Y-58046034D01*
X170523009Y-58059195D01*
X170523011Y-58059204D01*
X170574110Y-58196202D01*
X170574112Y-58196207D01*
X170661738Y-58313261D01*
X170778792Y-58400887D01*
X170778794Y-58400888D01*
X170778796Y-58400889D01*
X170820983Y-58416624D01*
X170915795Y-58451988D01*
X170915803Y-58451990D01*
X170976350Y-58458499D01*
X170976355Y-58458499D01*
X170976362Y-58458500D01*
X170976368Y-58458500D01*
X172623632Y-58458500D01*
X172623638Y-58458500D01*
X172623645Y-58458499D01*
X172623649Y-58458499D01*
X172684196Y-58451990D01*
X172684199Y-58451989D01*
X172684201Y-58451989D01*
X172821204Y-58400889D01*
X172821226Y-58400873D01*
X172938261Y-58313261D01*
X173025887Y-58196207D01*
X173025887Y-58196206D01*
X173025889Y-58196204D01*
X173076989Y-58059201D01*
X173078447Y-58045644D01*
X173083499Y-57998649D01*
X173083500Y-57998632D01*
X173083500Y-56601367D01*
X173083499Y-56601350D01*
X173076990Y-56540803D01*
X173076988Y-56540795D01*
X173025889Y-56403797D01*
X173025887Y-56403792D01*
X172938261Y-56286738D01*
X172821207Y-56199112D01*
X172821202Y-56199110D01*
X172684204Y-56148011D01*
X172684196Y-56148009D01*
X172623649Y-56141500D01*
X172623638Y-56141500D01*
X170976362Y-56141500D01*
X170976350Y-56141500D01*
X170915803Y-56148009D01*
X170915795Y-56148011D01*
X170778797Y-56199110D01*
X170778792Y-56199112D01*
X170661738Y-56286738D01*
X170574112Y-56403792D01*
X170574110Y-56403797D01*
X170523011Y-56540795D01*
X170523009Y-56540804D01*
X170521595Y-56553966D01*
X170494428Y-56619559D01*
X170436110Y-56660051D01*
X170396317Y-56666500D01*
X165833849Y-56666500D01*
X165818010Y-56664751D01*
X165817983Y-56665045D01*
X165810091Y-56664299D01*
X165740060Y-56666500D01*
X165710144Y-56666500D01*
X165703172Y-56667379D01*
X165697265Y-56667844D01*
X165650110Y-56669326D01*
X165650105Y-56669327D01*
X165630660Y-56674977D01*
X165611302Y-56678986D01*
X165591207Y-56681524D01*
X165591205Y-56681525D01*
X165547324Y-56698897D01*
X165541709Y-56700819D01*
X165496410Y-56713980D01*
X165496404Y-56713982D01*
X165478966Y-56724295D01*
X165461220Y-56732989D01*
X165442381Y-56740448D01*
X165442380Y-56740449D01*
X165404213Y-56768178D01*
X165399252Y-56771437D01*
X165358637Y-56795458D01*
X165344307Y-56809787D01*
X165329281Y-56822620D01*
X165312895Y-56834526D01*
X165312894Y-56834526D01*
X165282818Y-56870880D01*
X165278823Y-56875271D01*
X164661336Y-57492757D01*
X164648901Y-57502721D01*
X164649089Y-57502948D01*
X164642980Y-57508001D01*
X164595016Y-57559078D01*
X164573866Y-57580227D01*
X164569560Y-57585777D01*
X164565714Y-57590279D01*
X164533417Y-57624674D01*
X164533411Y-57624683D01*
X164523651Y-57642435D01*
X164512803Y-57658950D01*
X164500386Y-57674958D01*
X164481645Y-57718264D01*
X164479034Y-57723594D01*
X164456305Y-57764939D01*
X164456303Y-57764944D01*
X164451267Y-57784559D01*
X164444864Y-57803262D01*
X164436819Y-57821852D01*
X164429437Y-57868456D01*
X164428233Y-57874268D01*
X164416500Y-57919968D01*
X164416500Y-57940223D01*
X164414949Y-57959933D01*
X164411780Y-57979942D01*
X164411780Y-57979943D01*
X164416220Y-58026917D01*
X164416500Y-58032850D01*
X164416500Y-58300040D01*
X164396498Y-58368161D01*
X164356649Y-58407280D01*
X164326346Y-58425971D01*
X164326341Y-58425975D01*
X164200975Y-58551341D01*
X164200970Y-58551347D01*
X164107885Y-58702261D01*
X164107885Y-58702262D01*
X164082116Y-58780031D01*
X164082082Y-58780133D01*
X164041668Y-58838504D01*
X163976111Y-58865760D01*
X163962477Y-58866500D01*
X163814595Y-58866500D01*
X163746474Y-58846498D01*
X163725499Y-58829595D01*
X163337808Y-58441903D01*
X163303783Y-58379591D01*
X163308848Y-58308775D01*
X163333268Y-58270779D01*
X163332861Y-58270475D01*
X163337127Y-58264775D01*
X163337815Y-58263706D01*
X163338253Y-58263266D01*
X163338261Y-58263261D01*
X163425889Y-58146204D01*
X163475088Y-58014299D01*
X163476988Y-58009204D01*
X163476990Y-58009196D01*
X163483499Y-57948649D01*
X163483500Y-57948632D01*
X163483500Y-56551367D01*
X163483499Y-56551350D01*
X163476990Y-56490803D01*
X163476988Y-56490795D01*
X163436777Y-56382988D01*
X163425889Y-56353796D01*
X163425888Y-56353794D01*
X163425887Y-56353792D01*
X163338261Y-56236738D01*
X163221207Y-56149112D01*
X163221202Y-56149110D01*
X163084204Y-56098011D01*
X163084196Y-56098009D01*
X163023649Y-56091500D01*
X163023638Y-56091500D01*
X161376362Y-56091500D01*
X161376350Y-56091500D01*
X161315803Y-56098009D01*
X161315795Y-56098011D01*
X161178797Y-56149110D01*
X161178792Y-56149112D01*
X161061738Y-56236738D01*
X160974112Y-56353792D01*
X160974110Y-56353797D01*
X160923010Y-56490799D01*
X160922141Y-56494478D01*
X160920683Y-56497036D01*
X160920256Y-56498184D01*
X160920070Y-56498114D01*
X160887009Y-56556173D01*
X160824099Y-56589079D01*
X160799519Y-56591500D01*
X159981301Y-56591500D01*
X159913180Y-56571498D01*
X159866687Y-56517842D01*
X159856583Y-56447568D01*
X159886077Y-56382988D01*
X159890229Y-56378426D01*
X159981630Y-56282827D01*
X159981631Y-56282826D01*
X159981632Y-56282825D01*
X160105635Y-56094968D01*
X160194103Y-55887988D01*
X160244191Y-55668537D01*
X160254290Y-55443670D01*
X160224075Y-55220613D01*
X160216630Y-55197701D01*
X160203228Y-55156453D01*
X160154517Y-55006536D01*
X160154515Y-55006532D01*
X160047855Y-54808324D01*
X160047851Y-54808317D01*
X159907506Y-54632332D01*
X159737998Y-54484237D01*
X159737996Y-54484235D01*
X159544764Y-54368785D01*
X159363856Y-54300889D01*
X159334019Y-54289691D01*
X159144091Y-54255224D01*
X159112547Y-54249500D01*
X158943845Y-54249500D01*
X158912558Y-54252315D01*
X158775810Y-54264622D01*
X158775810Y-54264623D01*
X158558832Y-54324505D01*
X158356031Y-54422168D01*
X158356023Y-54422173D01*
X158173921Y-54554478D01*
X158173920Y-54554479D01*
X158018369Y-54717172D01*
X157894367Y-54905027D01*
X157894363Y-54905035D01*
X157805897Y-55112011D01*
X157805896Y-55112013D01*
X157755809Y-55331461D01*
X157755809Y-55331463D01*
X157750770Y-55443673D01*
X157745710Y-55556330D01*
X157754912Y-55624260D01*
X157775925Y-55779390D01*
X157845484Y-55993467D01*
X157952144Y-56191675D01*
X157952148Y-56191682D01*
X158092492Y-56367666D01*
X158095867Y-56370615D01*
X158134005Y-56430499D01*
X158133713Y-56501495D01*
X158095085Y-56561063D01*
X158030383Y-56590290D01*
X158012964Y-56591500D01*
X157836611Y-56591500D01*
X157820379Y-56589708D01*
X157820356Y-56589958D01*
X157812463Y-56589211D01*
X157741877Y-56591430D01*
X157739658Y-56591500D01*
X157708568Y-56591500D01*
X157701222Y-56592427D01*
X157695309Y-56592893D01*
X157646172Y-56594437D01*
X157646170Y-56594437D01*
X157646169Y-56594438D01*
X157625571Y-56600421D01*
X157606221Y-56604428D01*
X157584940Y-56607116D01*
X157584935Y-56607118D01*
X157539214Y-56625219D01*
X157533599Y-56627141D01*
X157486406Y-56640852D01*
X157486398Y-56640855D01*
X157467941Y-56651771D01*
X157450193Y-56660466D01*
X157432734Y-56667379D01*
X157430244Y-56668365D01*
X157430239Y-56668368D01*
X157390461Y-56697268D01*
X157385510Y-56700520D01*
X157351289Y-56720759D01*
X157343191Y-56725549D01*
X157328029Y-56740711D01*
X157313002Y-56753545D01*
X157295646Y-56766156D01*
X157295643Y-56766158D01*
X157264299Y-56804045D01*
X157260303Y-56808436D01*
X156595608Y-57473130D01*
X156582865Y-57483340D01*
X156583025Y-57483533D01*
X156576921Y-57488582D01*
X156527054Y-57541685D01*
X156505071Y-57563668D01*
X156500527Y-57569525D01*
X156496678Y-57574031D01*
X156463029Y-57609865D01*
X156463027Y-57609867D01*
X156452691Y-57628667D01*
X156441843Y-57645180D01*
X156428699Y-57662126D01*
X156428694Y-57662135D01*
X156409172Y-57707247D01*
X156406560Y-57712577D01*
X156382877Y-57755660D01*
X156382873Y-57755670D01*
X156377541Y-57776436D01*
X156371139Y-57795136D01*
X156362620Y-57814820D01*
X156362619Y-57814824D01*
X156354928Y-57863384D01*
X156353724Y-57869197D01*
X156341500Y-57916810D01*
X156341500Y-57938258D01*
X156339949Y-57957967D01*
X156336594Y-57979150D01*
X156336594Y-57979152D01*
X156341220Y-58028094D01*
X156341500Y-58034027D01*
X156341500Y-63100048D01*
X156321498Y-63168169D01*
X156304595Y-63189143D01*
X156298595Y-63195143D01*
X156236283Y-63229169D01*
X156165468Y-63224104D01*
X156108632Y-63181557D01*
X156083821Y-63115037D01*
X156083500Y-63106048D01*
X156083500Y-62601367D01*
X156083499Y-62601350D01*
X156076990Y-62540803D01*
X156076988Y-62540795D01*
X156025889Y-62403797D01*
X156025887Y-62403792D01*
X155938261Y-62286738D01*
X155821207Y-62199112D01*
X155821202Y-62199110D01*
X155684204Y-62148011D01*
X155684196Y-62148009D01*
X155623649Y-62141500D01*
X155623638Y-62141500D01*
X153976362Y-62141500D01*
X153976350Y-62141500D01*
X153915803Y-62148009D01*
X153915795Y-62148011D01*
X153778797Y-62199110D01*
X153778792Y-62199112D01*
X153661738Y-62286738D01*
X153574112Y-62403792D01*
X153574110Y-62403797D01*
X153534672Y-62509533D01*
X153492125Y-62566369D01*
X153425605Y-62591179D01*
X153416617Y-62591500D01*
X146600481Y-62591500D01*
X146532360Y-62571498D01*
X146485867Y-62517842D01*
X146477859Y-62494478D01*
X146476989Y-62490799D01*
X146464359Y-62456937D01*
X146425889Y-62353796D01*
X146425888Y-62353794D01*
X146425887Y-62353792D01*
X146338261Y-62236738D01*
X146221207Y-62149112D01*
X146221202Y-62149110D01*
X146084204Y-62098011D01*
X146084196Y-62098009D01*
X146023649Y-62091500D01*
X146023638Y-62091500D01*
X145984500Y-62091500D01*
X145916379Y-62071498D01*
X145869886Y-62017842D01*
X145858500Y-61965500D01*
X145858500Y-61286611D01*
X145860292Y-61270382D01*
X145860042Y-61270359D01*
X145860788Y-61262465D01*
X145858500Y-61189657D01*
X145858500Y-61158576D01*
X145858500Y-61158568D01*
X145857571Y-61151220D01*
X145857106Y-61145316D01*
X145855562Y-61096169D01*
X145849579Y-61075576D01*
X145845571Y-61056218D01*
X145842882Y-61034939D01*
X145842882Y-61034936D01*
X145824777Y-60989208D01*
X145822863Y-60983619D01*
X145809145Y-60936400D01*
X145798226Y-60917939D01*
X145789528Y-60900182D01*
X145781635Y-60880244D01*
X145762873Y-60854420D01*
X145752731Y-60840461D01*
X145749471Y-60835498D01*
X145746629Y-60830693D01*
X145724452Y-60793193D01*
X145724451Y-60793192D01*
X145724450Y-60793190D01*
X145709291Y-60778031D01*
X145696450Y-60762998D01*
X145687408Y-60750553D01*
X145683841Y-60745643D01*
X145645959Y-60714304D01*
X145641566Y-60710307D01*
X144976872Y-60045612D01*
X144966664Y-60032869D01*
X144966471Y-60033030D01*
X144961417Y-60026921D01*
X144950413Y-60016588D01*
X144908314Y-59977054D01*
X144897416Y-59966156D01*
X144886343Y-59955082D01*
X144886325Y-59955066D01*
X144880482Y-59950534D01*
X144875967Y-59946678D01*
X144869613Y-59940711D01*
X144840133Y-59913028D01*
X144840130Y-59913026D01*
X144840125Y-59913023D01*
X144821338Y-59902694D01*
X144804818Y-59891843D01*
X144787867Y-59878695D01*
X144742739Y-59859166D01*
X144737421Y-59856561D01*
X144708851Y-59840855D01*
X144694338Y-59832876D01*
X144694335Y-59832875D01*
X144673568Y-59827543D01*
X144654865Y-59821140D01*
X144644703Y-59816743D01*
X144635176Y-59812620D01*
X144635174Y-59812619D01*
X144635175Y-59812619D01*
X144586619Y-59804929D01*
X144580804Y-59803725D01*
X144533188Y-59791500D01*
X144511741Y-59791500D01*
X144492032Y-59789949D01*
X144470848Y-59786594D01*
X144470847Y-59786594D01*
X144421906Y-59791220D01*
X144415973Y-59791500D01*
X144184539Y-59791500D01*
X144116418Y-59771498D01*
X144077298Y-59731647D01*
X144074029Y-59726347D01*
X144074024Y-59726341D01*
X143948658Y-59600975D01*
X143948652Y-59600970D01*
X143948652Y-59600969D01*
X143797738Y-59507885D01*
X143713581Y-59479998D01*
X143629427Y-59452113D01*
X143629420Y-59452112D01*
X143525553Y-59441500D01*
X142474455Y-59441500D01*
X142370574Y-59452112D01*
X142202261Y-59507885D01*
X142051347Y-59600970D01*
X142051341Y-59600975D01*
X141925975Y-59726341D01*
X141925970Y-59726347D01*
X141832885Y-59877262D01*
X141777113Y-60045572D01*
X141777113Y-60045574D01*
X141775685Y-60059551D01*
X141766500Y-60149446D01*
X141766500Y-60750544D01*
X141777112Y-60854425D01*
X141832885Y-61022738D01*
X141925970Y-61173652D01*
X141925975Y-61173658D01*
X142051341Y-61299024D01*
X142051347Y-61299029D01*
X142051348Y-61299030D01*
X142202262Y-61392115D01*
X142370574Y-61447887D01*
X142474455Y-61458500D01*
X143525544Y-61458499D01*
X143629426Y-61447887D01*
X143797738Y-61392115D01*
X143948652Y-61299030D01*
X144069117Y-61178564D01*
X144131427Y-61144541D01*
X144202243Y-61149605D01*
X144247306Y-61178566D01*
X144504595Y-61435855D01*
X144538621Y-61498167D01*
X144541500Y-61524950D01*
X144541500Y-61965500D01*
X144521498Y-62033621D01*
X144467842Y-62080114D01*
X144415500Y-62091500D01*
X144376350Y-62091500D01*
X144315803Y-62098009D01*
X144315795Y-62098011D01*
X144178797Y-62149110D01*
X144178792Y-62149112D01*
X144061738Y-62236738D01*
X143974112Y-62353792D01*
X143974110Y-62353797D01*
X143923010Y-62490799D01*
X143922601Y-62492531D01*
X143921915Y-62493733D01*
X143920256Y-62498184D01*
X143919534Y-62497914D01*
X143887462Y-62554222D01*
X143824549Y-62587123D01*
X143803941Y-62589479D01*
X143742043Y-62591425D01*
X143739658Y-62591500D01*
X143708568Y-62591500D01*
X143701222Y-62592427D01*
X143695309Y-62592893D01*
X143646172Y-62594437D01*
X143646170Y-62594437D01*
X143646169Y-62594438D01*
X143625571Y-62600421D01*
X143606221Y-62604428D01*
X143584940Y-62607116D01*
X143584935Y-62607118D01*
X143539214Y-62625219D01*
X143533599Y-62627141D01*
X143486406Y-62640852D01*
X143486399Y-62640855D01*
X143467937Y-62651773D01*
X143450191Y-62660466D01*
X143430248Y-62668362D01*
X143430245Y-62668364D01*
X143390470Y-62697262D01*
X143385508Y-62700521D01*
X143343194Y-62725546D01*
X143328022Y-62740717D01*
X143312996Y-62753550D01*
X143295644Y-62766157D01*
X143295643Y-62766158D01*
X143264299Y-62804045D01*
X143260303Y-62808436D01*
X142095611Y-63973127D01*
X142082865Y-63983340D01*
X142083025Y-63983533D01*
X142076921Y-63988582D01*
X142027054Y-64041685D01*
X142005071Y-64063668D01*
X142000527Y-64069525D01*
X141996678Y-64074031D01*
X141963029Y-64109865D01*
X141963027Y-64109867D01*
X141952691Y-64128667D01*
X141941843Y-64145180D01*
X141928699Y-64162126D01*
X141928694Y-64162135D01*
X141909172Y-64207247D01*
X141906560Y-64212577D01*
X141882877Y-64255660D01*
X141882873Y-64255670D01*
X141877541Y-64276436D01*
X141871139Y-64295136D01*
X141862620Y-64314820D01*
X141862619Y-64314824D01*
X141854928Y-64363384D01*
X141853724Y-64369197D01*
X141841500Y-64416810D01*
X141841500Y-64438258D01*
X141839949Y-64457967D01*
X141836594Y-64479150D01*
X141836594Y-64479152D01*
X141841220Y-64528094D01*
X141841500Y-64534027D01*
X141841500Y-64676183D01*
X141821498Y-64744304D01*
X141795434Y-64773582D01*
X141783431Y-64783432D01*
X141657405Y-64936995D01*
X141611122Y-65023585D01*
X141561370Y-65074233D01*
X141492133Y-65089943D01*
X141425394Y-65065727D01*
X141388878Y-65023585D01*
X141350064Y-64950970D01*
X141342595Y-64936996D01*
X141216568Y-64783432D01*
X141204566Y-64773582D01*
X141164597Y-64714904D01*
X141158500Y-64676183D01*
X141158500Y-64586611D01*
X141160292Y-64570382D01*
X141160042Y-64570359D01*
X141160788Y-64562465D01*
X141158500Y-64489657D01*
X141158500Y-64458576D01*
X141158500Y-64458568D01*
X141157571Y-64451220D01*
X141157106Y-64445316D01*
X141155562Y-64396169D01*
X141149579Y-64375576D01*
X141145571Y-64356218D01*
X141142882Y-64334939D01*
X141142882Y-64334936D01*
X141124777Y-64289208D01*
X141122863Y-64283619D01*
X141109145Y-64236400D01*
X141098226Y-64217939D01*
X141089528Y-64200182D01*
X141087955Y-64196208D01*
X141081635Y-64180244D01*
X141058801Y-64148816D01*
X141052731Y-64140461D01*
X141049471Y-64135498D01*
X141032546Y-64106880D01*
X141024452Y-64093193D01*
X141024451Y-64093192D01*
X141024450Y-64093190D01*
X141009291Y-64078031D01*
X140996450Y-64062998D01*
X140983841Y-64045643D01*
X140945945Y-64014293D01*
X140941571Y-64010312D01*
X139826875Y-62895615D01*
X139816664Y-62882869D01*
X139816471Y-62883030D01*
X139811417Y-62876921D01*
X139758314Y-62827054D01*
X139736343Y-62805082D01*
X139736325Y-62805066D01*
X139730482Y-62800534D01*
X139725967Y-62796678D01*
X139723017Y-62793908D01*
X139690133Y-62763028D01*
X139690130Y-62763026D01*
X139690125Y-62763023D01*
X139671338Y-62752694D01*
X139654818Y-62741843D01*
X139637867Y-62728695D01*
X139592739Y-62709166D01*
X139587421Y-62706561D01*
X139560235Y-62691616D01*
X139544338Y-62682876D01*
X139544335Y-62682875D01*
X139523568Y-62677543D01*
X139504865Y-62671140D01*
X139494703Y-62666743D01*
X139485176Y-62662620D01*
X139485174Y-62662619D01*
X139485175Y-62662619D01*
X139436619Y-62654929D01*
X139430804Y-62653725D01*
X139383188Y-62641500D01*
X139361741Y-62641500D01*
X139342032Y-62639949D01*
X139320848Y-62636594D01*
X139320847Y-62636594D01*
X139271906Y-62641220D01*
X139265973Y-62641500D01*
X139200481Y-62641500D01*
X139132360Y-62621498D01*
X139085867Y-62567842D01*
X139077859Y-62544478D01*
X139076989Y-62540799D01*
X139061094Y-62498184D01*
X139025889Y-62403796D01*
X139025888Y-62403794D01*
X139025887Y-62403792D01*
X138938261Y-62286738D01*
X138821207Y-62199112D01*
X138821202Y-62199110D01*
X138684204Y-62148011D01*
X138684196Y-62148009D01*
X138623649Y-62141500D01*
X138623638Y-62141500D01*
X138584500Y-62141500D01*
X138516379Y-62121498D01*
X138469886Y-62067842D01*
X138458500Y-62015500D01*
X138458500Y-61524950D01*
X138478502Y-61456829D01*
X138495404Y-61435855D01*
X138607086Y-61324173D01*
X138752695Y-61178563D01*
X138815005Y-61144541D01*
X138885820Y-61149605D01*
X138930883Y-61178566D01*
X139051341Y-61299024D01*
X139051347Y-61299029D01*
X139051348Y-61299030D01*
X139202262Y-61392115D01*
X139370574Y-61447887D01*
X139474455Y-61458500D01*
X140525544Y-61458499D01*
X140629426Y-61447887D01*
X140797738Y-61392115D01*
X140948652Y-61299030D01*
X141074030Y-61173652D01*
X141167115Y-61022738D01*
X141222887Y-60854426D01*
X141233500Y-60750545D01*
X141233499Y-60149456D01*
X141232027Y-60135051D01*
X141222887Y-60045574D01*
X141222886Y-60045572D01*
X141167115Y-59877262D01*
X141074030Y-59726348D01*
X141074029Y-59726347D01*
X141074024Y-59726341D01*
X140948658Y-59600975D01*
X140948652Y-59600970D01*
X140948652Y-59600969D01*
X140797738Y-59507885D01*
X140713581Y-59479998D01*
X140629427Y-59452113D01*
X140629420Y-59452112D01*
X140525553Y-59441500D01*
X139474455Y-59441500D01*
X139370574Y-59452112D01*
X139202261Y-59507885D01*
X139051347Y-59600970D01*
X139051341Y-59600975D01*
X138925975Y-59726341D01*
X138925970Y-59726347D01*
X138922702Y-59731647D01*
X138869916Y-59779125D01*
X138815461Y-59791500D01*
X138636611Y-59791500D01*
X138620379Y-59789708D01*
X138620356Y-59789958D01*
X138612463Y-59789211D01*
X138541877Y-59791430D01*
X138539658Y-59791500D01*
X138508568Y-59791500D01*
X138501222Y-59792427D01*
X138495309Y-59792893D01*
X138446172Y-59794437D01*
X138446170Y-59794437D01*
X138446169Y-59794438D01*
X138425571Y-59800421D01*
X138406221Y-59804428D01*
X138384940Y-59807116D01*
X138384935Y-59807118D01*
X138339214Y-59825219D01*
X138333599Y-59827141D01*
X138286406Y-59840852D01*
X138286398Y-59840855D01*
X138267941Y-59851771D01*
X138250193Y-59860466D01*
X138230244Y-59868364D01*
X138230244Y-59868365D01*
X138230239Y-59868368D01*
X138190461Y-59897268D01*
X138185510Y-59900520D01*
X138151289Y-59920759D01*
X138143191Y-59925549D01*
X138128029Y-59940711D01*
X138113002Y-59953545D01*
X138095646Y-59966156D01*
X138095643Y-59966158D01*
X138064299Y-60004045D01*
X138060303Y-60008436D01*
X137395608Y-60673130D01*
X137382865Y-60683340D01*
X137383025Y-60683533D01*
X137376921Y-60688582D01*
X137327054Y-60741685D01*
X137305071Y-60763668D01*
X137300527Y-60769525D01*
X137296678Y-60774031D01*
X137263029Y-60809865D01*
X137263027Y-60809867D01*
X137252691Y-60828667D01*
X137241843Y-60845180D01*
X137228699Y-60862126D01*
X137228694Y-60862135D01*
X137209172Y-60907247D01*
X137206560Y-60912577D01*
X137182877Y-60955660D01*
X137182873Y-60955670D01*
X137177541Y-60976436D01*
X137171139Y-60995136D01*
X137162620Y-61014820D01*
X137162619Y-61014824D01*
X137154928Y-61063384D01*
X137153724Y-61069197D01*
X137141500Y-61116810D01*
X137141500Y-61138258D01*
X137139949Y-61157967D01*
X137136594Y-61179150D01*
X137136594Y-61179152D01*
X137141220Y-61228094D01*
X137141500Y-61234027D01*
X137141500Y-62015500D01*
X137121498Y-62083621D01*
X137067842Y-62130114D01*
X137015500Y-62141500D01*
X136976350Y-62141500D01*
X136915803Y-62148009D01*
X136915795Y-62148011D01*
X136778797Y-62199110D01*
X136778792Y-62199112D01*
X136661738Y-62286738D01*
X136574112Y-62403792D01*
X136574110Y-62403797D01*
X136523010Y-62540799D01*
X136522141Y-62544478D01*
X136520683Y-62547036D01*
X136520256Y-62548184D01*
X136520070Y-62548114D01*
X136487009Y-62606173D01*
X136424099Y-62639079D01*
X136399519Y-62641500D01*
X129606371Y-62641500D01*
X129538250Y-62621498D01*
X129491757Y-62567842D01*
X129481093Y-62528968D01*
X129476990Y-62490803D01*
X129476988Y-62490795D01*
X129425889Y-62353797D01*
X129425887Y-62353792D01*
X129338261Y-62236738D01*
X129221207Y-62149112D01*
X129221202Y-62149110D01*
X129084204Y-62098011D01*
X129084196Y-62098009D01*
X129023649Y-62091500D01*
X129023638Y-62091500D01*
X127376362Y-62091500D01*
X127376350Y-62091500D01*
X127315798Y-62098010D01*
X127313468Y-62098561D01*
X127311606Y-62098461D01*
X127307961Y-62098853D01*
X127307897Y-62098262D01*
X127242573Y-62094756D01*
X127184990Y-62053227D01*
X127159000Y-61987159D01*
X127158499Y-61975957D01*
X127158499Y-58586612D01*
X127160292Y-58570378D01*
X127160041Y-58570355D01*
X127160785Y-58562472D01*
X127160788Y-58562463D01*
X127158500Y-58489657D01*
X127158500Y-58458568D01*
X127157571Y-58451220D01*
X127157106Y-58445316D01*
X127155562Y-58396169D01*
X127149579Y-58375576D01*
X127145571Y-58356218D01*
X127142882Y-58334939D01*
X127142882Y-58334936D01*
X127124777Y-58289208D01*
X127122863Y-58283619D01*
X127109145Y-58236400D01*
X127098226Y-58217939D01*
X127089528Y-58200182D01*
X127081635Y-58180244D01*
X127067439Y-58160705D01*
X127052731Y-58140461D01*
X127049471Y-58135498D01*
X127024450Y-58093190D01*
X127009291Y-58078031D01*
X126996450Y-58062998D01*
X126996061Y-58062463D01*
X126983841Y-58045643D01*
X126945945Y-58014293D01*
X126941571Y-58010312D01*
X125826875Y-56895615D01*
X125816664Y-56882869D01*
X125816471Y-56883030D01*
X125811417Y-56876921D01*
X125758314Y-56827054D01*
X125736343Y-56805082D01*
X125736325Y-56805066D01*
X125730482Y-56800534D01*
X125725967Y-56796678D01*
X125705069Y-56777054D01*
X125690133Y-56763028D01*
X125690130Y-56763026D01*
X125690125Y-56763023D01*
X125671338Y-56752694D01*
X125654818Y-56741843D01*
X125637867Y-56728695D01*
X125592739Y-56709166D01*
X125587421Y-56706561D01*
X125560235Y-56691616D01*
X125544338Y-56682876D01*
X125544335Y-56682875D01*
X125523568Y-56677543D01*
X125504865Y-56671140D01*
X125494142Y-56666500D01*
X125485176Y-56662620D01*
X125485174Y-56662619D01*
X125485175Y-56662619D01*
X125436619Y-56654929D01*
X125430804Y-56653725D01*
X125395383Y-56644631D01*
X125334376Y-56608316D01*
X125302687Y-56544784D01*
X125310377Y-56474205D01*
X125335643Y-56435517D01*
X125481632Y-56282825D01*
X125605635Y-56094968D01*
X125694103Y-55887988D01*
X125744191Y-55668537D01*
X125754290Y-55443670D01*
X125724075Y-55220613D01*
X125716630Y-55197701D01*
X125703228Y-55156453D01*
X125654517Y-55006536D01*
X125654515Y-55006532D01*
X125547855Y-54808324D01*
X125547851Y-54808317D01*
X125407506Y-54632332D01*
X125237998Y-54484237D01*
X125237996Y-54484235D01*
X125044764Y-54368785D01*
X124863856Y-54300889D01*
X124834019Y-54289691D01*
X124644091Y-54255224D01*
X124612547Y-54249500D01*
X124443845Y-54249500D01*
X124412558Y-54252315D01*
X124275810Y-54264622D01*
X124275810Y-54264623D01*
X124058832Y-54324505D01*
X123856031Y-54422168D01*
X123856023Y-54422173D01*
X123673921Y-54554478D01*
X123673920Y-54554479D01*
X123518369Y-54717172D01*
X123394367Y-54905027D01*
X123394363Y-54905035D01*
X123305897Y-55112011D01*
X123305896Y-55112013D01*
X123255809Y-55331461D01*
X123255809Y-55331463D01*
X123250770Y-55443673D01*
X123245710Y-55556330D01*
X123254912Y-55624260D01*
X123275925Y-55779390D01*
X123345484Y-55993467D01*
X123452144Y-56191675D01*
X123452148Y-56191682D01*
X123592493Y-56367667D01*
X123653094Y-56420613D01*
X123691234Y-56480495D01*
X123690944Y-56551491D01*
X123652317Y-56611060D01*
X123587617Y-56640290D01*
X123570194Y-56641500D01*
X123200481Y-56641500D01*
X123132360Y-56621498D01*
X123085867Y-56567842D01*
X123077859Y-56544478D01*
X123076989Y-56540799D01*
X123058338Y-56490795D01*
X123025889Y-56403796D01*
X123025888Y-56403794D01*
X123025887Y-56403792D01*
X122938261Y-56286738D01*
X122821207Y-56199112D01*
X122821202Y-56199110D01*
X122684204Y-56148011D01*
X122684196Y-56148009D01*
X122623649Y-56141500D01*
X122623638Y-56141500D01*
X120976362Y-56141500D01*
X120976350Y-56141500D01*
X120915803Y-56148009D01*
X120915795Y-56148011D01*
X120778797Y-56199110D01*
X120778792Y-56199112D01*
X120661738Y-56286738D01*
X120574112Y-56403792D01*
X120574110Y-56403797D01*
X120523011Y-56540795D01*
X120523009Y-56540803D01*
X120516500Y-56601350D01*
X120516500Y-57998649D01*
X120523009Y-58059196D01*
X120523011Y-58059204D01*
X120574110Y-58196202D01*
X120574112Y-58196207D01*
X120661738Y-58313261D01*
X120778791Y-58400886D01*
X120778792Y-58400886D01*
X120778796Y-58400889D01*
X120904216Y-58447668D01*
X120961049Y-58490214D01*
X120985860Y-58556735D01*
X120970768Y-58626109D01*
X120949276Y-58654818D01*
X120774499Y-58829595D01*
X120712187Y-58863621D01*
X120685404Y-58866500D01*
X120037523Y-58866500D01*
X119969402Y-58846498D01*
X119922909Y-58792842D01*
X119917918Y-58780133D01*
X119892115Y-58702262D01*
X119799030Y-58551348D01*
X119799029Y-58551347D01*
X119799024Y-58551341D01*
X119695404Y-58447721D01*
X119661378Y-58385409D01*
X119658499Y-58358635D01*
X119658500Y-58086611D01*
X119660292Y-58070382D01*
X119660042Y-58070359D01*
X119660788Y-58062465D01*
X119658500Y-57989657D01*
X119658500Y-57958576D01*
X119658500Y-57958568D01*
X119657571Y-57951220D01*
X119657106Y-57945316D01*
X119655562Y-57896169D01*
X119649579Y-57875576D01*
X119645571Y-57856218D01*
X119642882Y-57834939D01*
X119642882Y-57834936D01*
X119624777Y-57789208D01*
X119622863Y-57783619D01*
X119609145Y-57736400D01*
X119598226Y-57717939D01*
X119589528Y-57700182D01*
X119581635Y-57680244D01*
X119560473Y-57651117D01*
X119552731Y-57640461D01*
X119549471Y-57635498D01*
X119524450Y-57593190D01*
X119509291Y-57578031D01*
X119496450Y-57562998D01*
X119493602Y-57559078D01*
X119483841Y-57545643D01*
X119445959Y-57514304D01*
X119441566Y-57510307D01*
X118776872Y-56845612D01*
X118766664Y-56832869D01*
X118766471Y-56833030D01*
X118761417Y-56826921D01*
X118741732Y-56808436D01*
X118708314Y-56777054D01*
X118697416Y-56766156D01*
X118686343Y-56755082D01*
X118686325Y-56755066D01*
X118680482Y-56750534D01*
X118675967Y-56746678D01*
X118669334Y-56740449D01*
X118640133Y-56713028D01*
X118640130Y-56713026D01*
X118640125Y-56713023D01*
X118621338Y-56702694D01*
X118604818Y-56691843D01*
X118587867Y-56678695D01*
X118542739Y-56659166D01*
X118537421Y-56656561D01*
X118508851Y-56640855D01*
X118494338Y-56632876D01*
X118494335Y-56632875D01*
X118473568Y-56627543D01*
X118454865Y-56621140D01*
X118444703Y-56616743D01*
X118435176Y-56612620D01*
X118435174Y-56612619D01*
X118435175Y-56612619D01*
X118386619Y-56604929D01*
X118380804Y-56603725D01*
X118333188Y-56591500D01*
X118311741Y-56591500D01*
X118292032Y-56589949D01*
X118270848Y-56586594D01*
X118270847Y-56586594D01*
X118221906Y-56591220D01*
X118215973Y-56591500D01*
X113600481Y-56591500D01*
X113532360Y-56571498D01*
X113485867Y-56517842D01*
X113477859Y-56494478D01*
X113476989Y-56490799D01*
X113470800Y-56474205D01*
X113425889Y-56353796D01*
X113425888Y-56353794D01*
X113425887Y-56353792D01*
X113338261Y-56236738D01*
X113221207Y-56149112D01*
X113221202Y-56149110D01*
X113084204Y-56098011D01*
X113084196Y-56098009D01*
X113023649Y-56091500D01*
X113023638Y-56091500D01*
X111376362Y-56091500D01*
X111376350Y-56091500D01*
X111315803Y-56098009D01*
X111315795Y-56098011D01*
X111178797Y-56149110D01*
X111178792Y-56149112D01*
X111061738Y-56236738D01*
X110974112Y-56353792D01*
X110974110Y-56353797D01*
X110923011Y-56490795D01*
X110923009Y-56490803D01*
X110916500Y-56551350D01*
X110916500Y-57948649D01*
X110923009Y-58009196D01*
X110923011Y-58009204D01*
X110974110Y-58146202D01*
X110974112Y-58146207D01*
X111061738Y-58263261D01*
X111178792Y-58350887D01*
X111178794Y-58350888D01*
X111178796Y-58350889D01*
X111225104Y-58368161D01*
X111315795Y-58401988D01*
X111315803Y-58401990D01*
X111376350Y-58408499D01*
X111376355Y-58408499D01*
X111376362Y-58408500D01*
X111376368Y-58408500D01*
X113023632Y-58408500D01*
X113023638Y-58408500D01*
X113023645Y-58408499D01*
X113023649Y-58408499D01*
X113084196Y-58401990D01*
X113084199Y-58401989D01*
X113084201Y-58401989D01*
X113221204Y-58350889D01*
X113235840Y-58339933D01*
X113338261Y-58263261D01*
X113425887Y-58146207D01*
X113425887Y-58146206D01*
X113425889Y-58146204D01*
X113476989Y-58009201D01*
X113476990Y-58009196D01*
X113477859Y-58005522D01*
X113479316Y-58002963D01*
X113479744Y-58001816D01*
X113479929Y-58001885D01*
X113512991Y-57943827D01*
X113575901Y-57910921D01*
X113600481Y-57908500D01*
X117925050Y-57908500D01*
X117993171Y-57928502D01*
X118014145Y-57945405D01*
X118279650Y-58210910D01*
X118313676Y-58273222D01*
X118308611Y-58344037D01*
X118266064Y-58400873D01*
X118256706Y-58407243D01*
X118226352Y-58425966D01*
X118226341Y-58425975D01*
X118100975Y-58551341D01*
X118100970Y-58551347D01*
X118007885Y-58702262D01*
X117952113Y-58870572D01*
X117952112Y-58870579D01*
X117941500Y-58974446D01*
X117941500Y-60025544D01*
X117952112Y-60129425D01*
X118007885Y-60297738D01*
X118100970Y-60448652D01*
X118100975Y-60448658D01*
X118226341Y-60574024D01*
X118226347Y-60574029D01*
X118226348Y-60574030D01*
X118377262Y-60667115D01*
X118545574Y-60722887D01*
X118649455Y-60733500D01*
X119250544Y-60733499D01*
X119354426Y-60722887D01*
X119522738Y-60667115D01*
X119673652Y-60574030D01*
X119799030Y-60448652D01*
X119892115Y-60297738D01*
X119917918Y-60219865D01*
X119958332Y-60161496D01*
X120023889Y-60134240D01*
X120037523Y-60133500D01*
X120916147Y-60133500D01*
X120931988Y-60135249D01*
X120932016Y-60134956D01*
X120939902Y-60135700D01*
X120939909Y-60135702D01*
X121009958Y-60133500D01*
X121039856Y-60133500D01*
X121046818Y-60132619D01*
X121052719Y-60132154D01*
X121099889Y-60130673D01*
X121119347Y-60125019D01*
X121138694Y-60121013D01*
X121158797Y-60118474D01*
X121202679Y-60101099D01*
X121208274Y-60099183D01*
X121236816Y-60090891D01*
X121253591Y-60086019D01*
X121253595Y-60086017D01*
X121271026Y-60075708D01*
X121288780Y-60067009D01*
X121307617Y-60059552D01*
X121345786Y-60031818D01*
X121350744Y-60028562D01*
X121391362Y-60004542D01*
X121405685Y-59990218D01*
X121420724Y-59977374D01*
X121437107Y-59965472D01*
X121467193Y-59929103D01*
X121471161Y-59924741D01*
X122188657Y-59207245D01*
X122201097Y-59197282D01*
X122200908Y-59197054D01*
X122207019Y-59191999D01*
X122254984Y-59140920D01*
X122276128Y-59119777D01*
X122276128Y-59119776D01*
X122276135Y-59119770D01*
X122280445Y-59114212D01*
X122284274Y-59109729D01*
X122316586Y-59075321D01*
X122326346Y-59057565D01*
X122337195Y-59041050D01*
X122349614Y-59025041D01*
X122368363Y-58981710D01*
X122370953Y-58976423D01*
X122393695Y-58935060D01*
X122398733Y-58915434D01*
X122405137Y-58896732D01*
X122413180Y-58878147D01*
X122413179Y-58878147D01*
X122413181Y-58878145D01*
X122420561Y-58831547D01*
X122421762Y-58825740D01*
X122433500Y-58780030D01*
X122433500Y-58759775D01*
X122435051Y-58740064D01*
X122435718Y-58735853D01*
X122438220Y-58720057D01*
X122435574Y-58692071D01*
X122433779Y-58673079D01*
X122433499Y-58667146D01*
X122433499Y-58584500D01*
X122453501Y-58516379D01*
X122507157Y-58469886D01*
X122559499Y-58458500D01*
X122623632Y-58458500D01*
X122623638Y-58458500D01*
X122623645Y-58458499D01*
X122623649Y-58458499D01*
X122684196Y-58451990D01*
X122684199Y-58451989D01*
X122684201Y-58451989D01*
X122821204Y-58400889D01*
X122821226Y-58400873D01*
X122938261Y-58313261D01*
X123025887Y-58196207D01*
X123025887Y-58196206D01*
X123025889Y-58196204D01*
X123076989Y-58059201D01*
X123076990Y-58059195D01*
X123077859Y-58055522D01*
X123079316Y-58052963D01*
X123079744Y-58051816D01*
X123079929Y-58051885D01*
X123112991Y-57993827D01*
X123175901Y-57960921D01*
X123200481Y-57958500D01*
X124975049Y-57958500D01*
X125043170Y-57978502D01*
X125064144Y-57995404D01*
X125804594Y-58735853D01*
X125838619Y-58798166D01*
X125841499Y-58824949D01*
X125841499Y-58913567D01*
X125821497Y-58981688D01*
X125767841Y-59028181D01*
X125697567Y-59038285D01*
X125632987Y-59008791D01*
X125616067Y-58990957D01*
X125607736Y-58980253D01*
X125607733Y-58980250D01*
X125424785Y-58811835D01*
X125216606Y-58675826D01*
X125216607Y-58675826D01*
X124988884Y-58575938D01*
X124988877Y-58575935D01*
X124747828Y-58514893D01*
X124747823Y-58514892D01*
X124747821Y-58514892D01*
X124614630Y-58503855D01*
X124562069Y-58499500D01*
X124562067Y-58499500D01*
X124437933Y-58499500D01*
X124437931Y-58499500D01*
X124376707Y-58504573D01*
X124252179Y-58514892D01*
X124252177Y-58514892D01*
X124252171Y-58514893D01*
X124011122Y-58575935D01*
X124011115Y-58575938D01*
X123783393Y-58675826D01*
X123575214Y-58811835D01*
X123392267Y-58980249D01*
X123239526Y-59176490D01*
X123239525Y-59176491D01*
X123121171Y-59395190D01*
X123121170Y-59395192D01*
X123040430Y-59630381D01*
X123040428Y-59630386D01*
X123040429Y-59630386D01*
X122999500Y-59875665D01*
X122999500Y-60124335D01*
X123028435Y-60297737D01*
X123040428Y-60369609D01*
X123040430Y-60369618D01*
X123121170Y-60604807D01*
X123121171Y-60604809D01*
X123223120Y-60793193D01*
X123239526Y-60823509D01*
X123388429Y-61014820D01*
X123392267Y-61019750D01*
X123575214Y-61188164D01*
X123783393Y-61324173D01*
X123783392Y-61324173D01*
X123929411Y-61388222D01*
X124011119Y-61424063D01*
X124011120Y-61424063D01*
X124011122Y-61424064D01*
X124203414Y-61472759D01*
X124252179Y-61485108D01*
X124417446Y-61498802D01*
X124437931Y-61500500D01*
X124437933Y-61500500D01*
X124562069Y-61500500D01*
X124581483Y-61498891D01*
X124747821Y-61485108D01*
X124988881Y-61424063D01*
X125216607Y-61324173D01*
X125424785Y-61188164D01*
X125472172Y-61144541D01*
X125607733Y-61019749D01*
X125607736Y-61019746D01*
X125611571Y-61014820D01*
X125616066Y-61009043D01*
X125673691Y-60967571D01*
X125744590Y-60963837D01*
X125806252Y-60999026D01*
X125839101Y-61061967D01*
X125841499Y-61086433D01*
X125841499Y-63913389D01*
X125839709Y-63929620D01*
X125839958Y-63929644D01*
X125839211Y-63937536D01*
X125841500Y-64010341D01*
X125841500Y-64041430D01*
X125842427Y-64048776D01*
X125842893Y-64054690D01*
X125844437Y-64103829D01*
X125844438Y-64103832D01*
X125850421Y-64124429D01*
X125854428Y-64143780D01*
X125857117Y-64165060D01*
X125857117Y-64165062D01*
X125875216Y-64210778D01*
X125877139Y-64216394D01*
X125890853Y-64263597D01*
X125890853Y-64263598D01*
X125901771Y-64282058D01*
X125910468Y-64299811D01*
X125918364Y-64319755D01*
X125918367Y-64319760D01*
X125929394Y-64334936D01*
X125947265Y-64359532D01*
X125950521Y-64364490D01*
X125972697Y-64401989D01*
X125975547Y-64406807D01*
X125990714Y-64421974D01*
X126003552Y-64437005D01*
X126016158Y-64454356D01*
X126054034Y-64485690D01*
X126058427Y-64489687D01*
X126426625Y-64857885D01*
X126622145Y-65053404D01*
X126656170Y-65115717D01*
X126651106Y-65186532D01*
X126608559Y-65243368D01*
X126542039Y-65268179D01*
X126533050Y-65268500D01*
X125537441Y-65268500D01*
X125519181Y-65267170D01*
X125495211Y-65263659D01*
X125442615Y-65268260D01*
X125437122Y-65268500D01*
X125428818Y-65268500D01*
X125406876Y-65271064D01*
X125395905Y-65272347D01*
X125386732Y-65273149D01*
X125318577Y-65279112D01*
X125311386Y-65280597D01*
X125311372Y-65280532D01*
X125304014Y-65282163D01*
X125304030Y-65282228D01*
X125296889Y-65283920D01*
X125223944Y-65310469D01*
X125150260Y-65334885D01*
X125143613Y-65337986D01*
X125143585Y-65337926D01*
X125136798Y-65341212D01*
X125136827Y-65341270D01*
X125130271Y-65344562D01*
X125065395Y-65387232D01*
X124999349Y-65427969D01*
X124993596Y-65432519D01*
X124993555Y-65432467D01*
X124987704Y-65437233D01*
X124987746Y-65437283D01*
X124982128Y-65441996D01*
X124928836Y-65498482D01*
X122709225Y-67718092D01*
X122695376Y-67730062D01*
X122675943Y-67744530D01*
X122642007Y-67784971D01*
X122638300Y-67789017D01*
X122632421Y-67794897D01*
X122632412Y-67794907D01*
X122611863Y-67820896D01*
X122561965Y-67880364D01*
X122557935Y-67886491D01*
X122557880Y-67886455D01*
X122553825Y-67892820D01*
X122553882Y-67892855D01*
X122550028Y-67899101D01*
X122517220Y-67969458D01*
X122482391Y-68038812D01*
X122479882Y-68045707D01*
X122479820Y-68045684D01*
X122477343Y-68052810D01*
X122477404Y-68052831D01*
X122475098Y-68059789D01*
X122475096Y-68059794D01*
X122475097Y-68059794D01*
X122459392Y-68135850D01*
X122457328Y-68144554D01*
X122422159Y-68206226D01*
X122359229Y-68239094D01*
X122334725Y-68241500D01*
X121724446Y-68241500D01*
X121620578Y-68252112D01*
X121620571Y-68252113D01*
X121452261Y-68307885D01*
X121301347Y-68400970D01*
X121301341Y-68400975D01*
X121175975Y-68526341D01*
X121175970Y-68526347D01*
X121082885Y-68677261D01*
X121027113Y-68845571D01*
X121027112Y-68845578D01*
X121016499Y-68949445D01*
X121016500Y-69950554D01*
X121016499Y-69950554D01*
X121027112Y-70054421D01*
X121027113Y-70054427D01*
X121082885Y-70222739D01*
X121173206Y-70369171D01*
X121175970Y-70373652D01*
X121175975Y-70373658D01*
X121301341Y-70499024D01*
X121301347Y-70499029D01*
X121301348Y-70499030D01*
X121452261Y-70592115D01*
X121620573Y-70647887D01*
X121660527Y-70651968D01*
X121724446Y-70658500D01*
X121724454Y-70658500D01*
X124675554Y-70658500D01*
X124734906Y-70652435D01*
X124779427Y-70647887D01*
X124947739Y-70592115D01*
X125098652Y-70499030D01*
X125110904Y-70486777D01*
X125173213Y-70452752D01*
X125244029Y-70457815D01*
X125289095Y-70486777D01*
X125301348Y-70499030D01*
X125452261Y-70592115D01*
X125620573Y-70647887D01*
X125660527Y-70651968D01*
X125724446Y-70658500D01*
X125724454Y-70658500D01*
X128675554Y-70658500D01*
X128734906Y-70652435D01*
X128779427Y-70647887D01*
X128947739Y-70592115D01*
X129098652Y-70499030D01*
X129110904Y-70486777D01*
X129173213Y-70452752D01*
X129244029Y-70457815D01*
X129289095Y-70486777D01*
X129301348Y-70499030D01*
X129452261Y-70592115D01*
X129620573Y-70647887D01*
X129660527Y-70651968D01*
X129724446Y-70658500D01*
X129724454Y-70658500D01*
X132675554Y-70658500D01*
X132734906Y-70652435D01*
X132779427Y-70647887D01*
X132947739Y-70592115D01*
X133098652Y-70499030D01*
X133110904Y-70486777D01*
X133173213Y-70452752D01*
X133244029Y-70457815D01*
X133289095Y-70486777D01*
X133301348Y-70499030D01*
X133452261Y-70592115D01*
X133620573Y-70647887D01*
X133660527Y-70651968D01*
X133724446Y-70658500D01*
X133724454Y-70658500D01*
X136675554Y-70658500D01*
X136734906Y-70652435D01*
X136779427Y-70647887D01*
X136947739Y-70592115D01*
X137098652Y-70499030D01*
X137224030Y-70373652D01*
X137317115Y-70222739D01*
X137372887Y-70054427D01*
X137378053Y-70003865D01*
X137383500Y-69950554D01*
X137383500Y-69215500D01*
X137403502Y-69147379D01*
X137457158Y-69100886D01*
X137509500Y-69089500D01*
X145608198Y-69089500D01*
X145626458Y-69090830D01*
X145631354Y-69091547D01*
X145650428Y-69094341D01*
X145683785Y-69091422D01*
X145703024Y-69089740D01*
X145708517Y-69089500D01*
X145716815Y-69089500D01*
X145716819Y-69089500D01*
X145743151Y-69086421D01*
X145749735Y-69085652D01*
X145756500Y-69085060D01*
X145827065Y-69078887D01*
X145827071Y-69078884D01*
X145834257Y-69077402D01*
X145834270Y-69077468D01*
X145841626Y-69075836D01*
X145841611Y-69075771D01*
X145848743Y-69074079D01*
X145848752Y-69074079D01*
X145921704Y-69047526D01*
X145995377Y-69023114D01*
X145995379Y-69023112D01*
X146002028Y-69020012D01*
X146002057Y-69020074D01*
X146008842Y-69016789D01*
X146008812Y-69016729D01*
X146015367Y-69013436D01*
X146015371Y-69013435D01*
X146080244Y-68970766D01*
X146146290Y-68930030D01*
X146146299Y-68930020D01*
X146152047Y-68925477D01*
X146152089Y-68925531D01*
X146157928Y-68920775D01*
X146157885Y-68920723D01*
X146163504Y-68916006D01*
X146163513Y-68916001D01*
X146216802Y-68859517D01*
X146372915Y-68703404D01*
X146435228Y-68669379D01*
X146462011Y-68666500D01*
X159456629Y-68666500D01*
X159524750Y-68686502D01*
X159571243Y-68740158D01*
X159581347Y-68810432D01*
X159551853Y-68875012D01*
X159545724Y-68881595D01*
X157722724Y-70704595D01*
X157660412Y-70738621D01*
X157633629Y-70741500D01*
X140564441Y-70741500D01*
X140546182Y-70740170D01*
X140522212Y-70736659D01*
X140522211Y-70736659D01*
X140515773Y-70737222D01*
X140469615Y-70741260D01*
X140464122Y-70741500D01*
X140455817Y-70741500D01*
X140422904Y-70745347D01*
X140345574Y-70752112D01*
X140338389Y-70753596D01*
X140338376Y-70753533D01*
X140331003Y-70755168D01*
X140331018Y-70755231D01*
X140323881Y-70756922D01*
X140268088Y-70777229D01*
X140250934Y-70783473D01*
X140214097Y-70795679D01*
X140177261Y-70807886D01*
X140170612Y-70810987D01*
X140170583Y-70810926D01*
X140163792Y-70814214D01*
X140163822Y-70814273D01*
X140157269Y-70817563D01*
X140092394Y-70860232D01*
X140026351Y-70900968D01*
X140020588Y-70905525D01*
X140020547Y-70905473D01*
X140014704Y-70910233D01*
X140014746Y-70910283D01*
X140009128Y-70914996D01*
X139955836Y-70971482D01*
X138559225Y-72368092D01*
X138545376Y-72380062D01*
X138525943Y-72394530D01*
X138492007Y-72434971D01*
X138488300Y-72439017D01*
X138482421Y-72444897D01*
X138482412Y-72444907D01*
X138461863Y-72470896D01*
X138411965Y-72530364D01*
X138407935Y-72536491D01*
X138407880Y-72536455D01*
X138403825Y-72542820D01*
X138403882Y-72542855D01*
X138400028Y-72549101D01*
X138367220Y-72619458D01*
X138332391Y-72688812D01*
X138329882Y-72695707D01*
X138329820Y-72695684D01*
X138327343Y-72702810D01*
X138327404Y-72702831D01*
X138325097Y-72709790D01*
X138309392Y-72785849D01*
X138291500Y-72861345D01*
X138290648Y-72868634D01*
X138290581Y-72868626D01*
X138289814Y-72876126D01*
X138289881Y-72876132D01*
X138289241Y-72883442D01*
X138291500Y-72961079D01*
X138291500Y-75566245D01*
X138286497Y-75601397D01*
X138244438Y-75746167D01*
X138244437Y-75746170D01*
X138241500Y-75783494D01*
X138241500Y-77091506D01*
X138242610Y-77105612D01*
X138228016Y-77175092D01*
X138178174Y-77225653D01*
X138116999Y-77241500D01*
X136366371Y-77241500D01*
X136298250Y-77221498D01*
X136277276Y-77204595D01*
X136046276Y-76973595D01*
X136012250Y-76911283D01*
X136017315Y-76840468D01*
X136059862Y-76783632D01*
X136126382Y-76758821D01*
X136135371Y-76758500D01*
X136675554Y-76758500D01*
X136734906Y-76752435D01*
X136779427Y-76747887D01*
X136947739Y-76692115D01*
X137098652Y-76599030D01*
X137224030Y-76473652D01*
X137317115Y-76322739D01*
X137372887Y-76154427D01*
X137377435Y-76109906D01*
X137383500Y-76050554D01*
X137383500Y-75049445D01*
X137376677Y-74982673D01*
X137372887Y-74945573D01*
X137317115Y-74777261D01*
X137224030Y-74626348D01*
X137224029Y-74626347D01*
X137224024Y-74626341D01*
X137098658Y-74500975D01*
X137098652Y-74500970D01*
X137098651Y-74500969D01*
X136947739Y-74407885D01*
X136863582Y-74379999D01*
X136779428Y-74352113D01*
X136779421Y-74352112D01*
X136675554Y-74341500D01*
X136675546Y-74341500D01*
X133724454Y-74341500D01*
X133724446Y-74341500D01*
X133620578Y-74352112D01*
X133620571Y-74352113D01*
X133452261Y-74407885D01*
X133301347Y-74500970D01*
X133301341Y-74500975D01*
X133289095Y-74513222D01*
X133226783Y-74547248D01*
X133155968Y-74542183D01*
X133110905Y-74513222D01*
X133098658Y-74500975D01*
X133098652Y-74500970D01*
X133098651Y-74500969D01*
X132947739Y-74407885D01*
X132863582Y-74379999D01*
X132779428Y-74352113D01*
X132779421Y-74352112D01*
X132675554Y-74341500D01*
X132675546Y-74341500D01*
X129724454Y-74341500D01*
X129724446Y-74341500D01*
X129620578Y-74352112D01*
X129620571Y-74352113D01*
X129452261Y-74407885D01*
X129301347Y-74500970D01*
X129301341Y-74500975D01*
X129289095Y-74513222D01*
X129226783Y-74547248D01*
X129155968Y-74542183D01*
X129110905Y-74513222D01*
X129098658Y-74500975D01*
X129098652Y-74500970D01*
X129098651Y-74500969D01*
X128947739Y-74407885D01*
X128863582Y-74379998D01*
X128779428Y-74352113D01*
X128779421Y-74352112D01*
X128675554Y-74341500D01*
X128675546Y-74341500D01*
X125724454Y-74341500D01*
X125724446Y-74341500D01*
X125620578Y-74352112D01*
X125620571Y-74352113D01*
X125452261Y-74407885D01*
X125301347Y-74500970D01*
X125301341Y-74500975D01*
X125289095Y-74513222D01*
X125226783Y-74547248D01*
X125155968Y-74542183D01*
X125110905Y-74513222D01*
X125098658Y-74500975D01*
X125098652Y-74500970D01*
X125098651Y-74500969D01*
X124947739Y-74407885D01*
X124863582Y-74379998D01*
X124779428Y-74352113D01*
X124779421Y-74352112D01*
X124675554Y-74341500D01*
X124675546Y-74341500D01*
X121724454Y-74341500D01*
X121724446Y-74341500D01*
X121620578Y-74352112D01*
X121620571Y-74352113D01*
X121452261Y-74407885D01*
X121301347Y-74500970D01*
X121301341Y-74500975D01*
X121175975Y-74626341D01*
X121175970Y-74626347D01*
X121082885Y-74777261D01*
X121027113Y-74945571D01*
X121027112Y-74945578D01*
X121016500Y-75049445D01*
X121016500Y-75856973D01*
X120996498Y-75925094D01*
X120942842Y-75971587D01*
X120872568Y-75981691D01*
X120807988Y-75952197D01*
X120774932Y-75907172D01*
X120704998Y-75746170D01*
X120695895Y-75725212D01*
X120456363Y-75262937D01*
X120185843Y-74818085D01*
X119885595Y-74392731D01*
X119557020Y-73988858D01*
X119297886Y-73711394D01*
X119201650Y-73608350D01*
X118821140Y-73252978D01*
X118600439Y-73073425D01*
X118417269Y-72924405D01*
X117991915Y-72624157D01*
X117991914Y-72624156D01*
X117547063Y-72353637D01*
X117547062Y-72353636D01*
X117547058Y-72353634D01*
X117317639Y-72234759D01*
X117084788Y-72114105D01*
X116607243Y-71906678D01*
X116116657Y-71732324D01*
X116083815Y-71723122D01*
X116026382Y-71707029D01*
X116024743Y-71706004D01*
X116002046Y-71700211D01*
X115793667Y-71641826D01*
X115615316Y-71591854D01*
X115615314Y-71591853D01*
X115511825Y-71570347D01*
X115507871Y-71568235D01*
X115460713Y-71559727D01*
X115365150Y-71539869D01*
X115105557Y-71485925D01*
X115022753Y-71474543D01*
X114989013Y-71469906D01*
X114982639Y-71467043D01*
X114916244Y-71459904D01*
X114790387Y-71442605D01*
X114589759Y-71415030D01*
X114460432Y-71406183D01*
X114451578Y-71402912D01*
X114370023Y-71399999D01*
X114085543Y-71380541D01*
X114070324Y-71379500D01*
X114070323Y-71379500D01*
X110126500Y-71379500D01*
X110058379Y-71359498D01*
X110011886Y-71305842D01*
X110000500Y-71253500D01*
X110000500Y-62632844D01*
X110020502Y-62564723D01*
X110074158Y-62518230D01*
X110144432Y-62508126D01*
X110206433Y-62535444D01*
X110336996Y-62642595D01*
X110512196Y-62736241D01*
X110702299Y-62793908D01*
X110702303Y-62793908D01*
X110702305Y-62793909D01*
X110899997Y-62813380D01*
X110900000Y-62813380D01*
X110900003Y-62813380D01*
X111097694Y-62793909D01*
X111097695Y-62793908D01*
X111097701Y-62793908D01*
X111287804Y-62736241D01*
X111442181Y-62653725D01*
X111452185Y-62648378D01*
X111511581Y-62633500D01*
X112693792Y-62633500D01*
X112761913Y-62653502D01*
X112802244Y-62695359D01*
X112842261Y-62763023D01*
X112875548Y-62819309D01*
X112993189Y-62936950D01*
X112993196Y-62936955D01*
X113136394Y-63021643D01*
X113136397Y-63021643D01*
X113136399Y-63021645D01*
X113296169Y-63068062D01*
X113303634Y-63068649D01*
X113333494Y-63071000D01*
X113333498Y-63071000D01*
X113565500Y-63071000D01*
X113633621Y-63091002D01*
X113680114Y-63144658D01*
X113691500Y-63197000D01*
X113691500Y-63654594D01*
X113691499Y-64883627D01*
X113671497Y-64951748D01*
X113654595Y-64972722D01*
X113589096Y-65038222D01*
X113526784Y-65072247D01*
X113455968Y-65067183D01*
X113410905Y-65038222D01*
X113323658Y-64950975D01*
X113323652Y-64950970D01*
X113257894Y-64910410D01*
X113172738Y-64857885D01*
X113026846Y-64809542D01*
X113004427Y-64802113D01*
X113004420Y-64802112D01*
X112900553Y-64791500D01*
X112099455Y-64791500D01*
X111995574Y-64802112D01*
X111827261Y-64857885D01*
X111676347Y-64950970D01*
X111676341Y-64950975D01*
X111550975Y-65076341D01*
X111550970Y-65076347D01*
X111457885Y-65227262D01*
X111402113Y-65395572D01*
X111402112Y-65395579D01*
X111391500Y-65499446D01*
X111391500Y-67145244D01*
X111371498Y-67213365D01*
X111341010Y-67246111D01*
X111286738Y-67286738D01*
X111199112Y-67403792D01*
X111199110Y-67403797D01*
X111148011Y-67540795D01*
X111148009Y-67540803D01*
X111141500Y-67601350D01*
X111141500Y-69398649D01*
X111148009Y-69459196D01*
X111148011Y-69459204D01*
X111199110Y-69596202D01*
X111199112Y-69596207D01*
X111286738Y-69713261D01*
X111403792Y-69800887D01*
X111403794Y-69800888D01*
X111403796Y-69800889D01*
X111462875Y-69822924D01*
X111540795Y-69851988D01*
X111540803Y-69851990D01*
X111601350Y-69858499D01*
X111601355Y-69858499D01*
X111601362Y-69858500D01*
X111601368Y-69858500D01*
X113398632Y-69858500D01*
X113398638Y-69858500D01*
X113398645Y-69858499D01*
X113398649Y-69858499D01*
X113459196Y-69851990D01*
X113459199Y-69851989D01*
X113459201Y-69851989D01*
X113596204Y-69800889D01*
X113713261Y-69713261D01*
X113800889Y-69596204D01*
X113851989Y-69459201D01*
X113856150Y-69420504D01*
X113858499Y-69398649D01*
X113858500Y-69398632D01*
X113858500Y-67601367D01*
X113858499Y-67601350D01*
X113851990Y-67540803D01*
X113851988Y-67540795D01*
X113800889Y-67403797D01*
X113800887Y-67403792D01*
X113772267Y-67365561D01*
X113747456Y-67299041D01*
X113762547Y-67229667D01*
X113812749Y-67179465D01*
X113882123Y-67164373D01*
X113912765Y-67170447D01*
X113939979Y-67179465D01*
X113995567Y-67197885D01*
X113995568Y-67197885D01*
X113995574Y-67197887D01*
X114099455Y-67208500D01*
X114900544Y-67208499D01*
X115004426Y-67197887D01*
X115172738Y-67142115D01*
X115323652Y-67049030D01*
X115449030Y-66923652D01*
X115542115Y-66772738D01*
X115597887Y-66604426D01*
X115608500Y-66500545D01*
X115608499Y-65499456D01*
X115602002Y-65435861D01*
X115597887Y-65395574D01*
X115587475Y-65364151D01*
X115542115Y-65227262D01*
X115449030Y-65076348D01*
X115449029Y-65076347D01*
X115449024Y-65076341D01*
X115345405Y-64972722D01*
X115311379Y-64910410D01*
X115308500Y-64883627D01*
X115308500Y-63045994D01*
X115305562Y-63008670D01*
X115284727Y-62936955D01*
X115259145Y-62848899D01*
X115259143Y-62848897D01*
X115259143Y-62848894D01*
X115174455Y-62705696D01*
X115174450Y-62705689D01*
X115056810Y-62588049D01*
X115056803Y-62588044D01*
X114913605Y-62503356D01*
X114753829Y-62456937D01*
X114716506Y-62454000D01*
X114716502Y-62454000D01*
X114484500Y-62454000D01*
X114416379Y-62433998D01*
X114369886Y-62380342D01*
X114358500Y-62328000D01*
X114358500Y-61873948D01*
X114358896Y-61866889D01*
X114363616Y-61825000D01*
X114358895Y-61783107D01*
X114358500Y-61776051D01*
X114358500Y-61170994D01*
X114355562Y-61133670D01*
X114355562Y-61133669D01*
X114309145Y-60973899D01*
X114309143Y-60973897D01*
X114309143Y-60973894D01*
X114224455Y-60830696D01*
X114224450Y-60830689D01*
X114106810Y-60713049D01*
X114106803Y-60713044D01*
X113963605Y-60628356D01*
X113803829Y-60581937D01*
X113766506Y-60579000D01*
X113766502Y-60579000D01*
X113333498Y-60579000D01*
X113333494Y-60579000D01*
X113296170Y-60581937D01*
X113136394Y-60628356D01*
X112993196Y-60713044D01*
X112993189Y-60713049D01*
X112875548Y-60830690D01*
X112835413Y-60898554D01*
X112802244Y-60954640D01*
X112750353Y-61003092D01*
X112693792Y-61016500D01*
X111580095Y-61016500D01*
X111511974Y-60996498D01*
X111500161Y-60987899D01*
X111463004Y-60957405D01*
X111287804Y-60863759D01*
X111226557Y-60845180D01*
X111097701Y-60806092D01*
X111097700Y-60806091D01*
X111097694Y-60806090D01*
X110900003Y-60786620D01*
X110899997Y-60786620D01*
X110702305Y-60806090D01*
X110512195Y-60863759D01*
X110336992Y-60957406D01*
X110336992Y-60957407D01*
X110206433Y-61064554D01*
X110141086Y-61092308D01*
X110071108Y-61080326D01*
X110018716Y-61032413D01*
X110000500Y-60967155D01*
X110000500Y-55000003D01*
X115986620Y-55000003D01*
X116006090Y-55197694D01*
X116006091Y-55197700D01*
X116006092Y-55197701D01*
X116063759Y-55387804D01*
X116157405Y-55563004D01*
X116283432Y-55716568D01*
X116436996Y-55842595D01*
X116612196Y-55936241D01*
X116802299Y-55993908D01*
X116802303Y-55993908D01*
X116802305Y-55993909D01*
X116999997Y-56013380D01*
X117000000Y-56013380D01*
X117000003Y-56013380D01*
X117197694Y-55993909D01*
X117197695Y-55993908D01*
X117197701Y-55993908D01*
X117387804Y-55936241D01*
X117563004Y-55842595D01*
X117716568Y-55716568D01*
X117842595Y-55563004D01*
X117936241Y-55387804D01*
X117993908Y-55197701D01*
X118012737Y-55006536D01*
X118013380Y-55000003D01*
X118013380Y-54999996D01*
X117993909Y-54802305D01*
X117993908Y-54802303D01*
X117993908Y-54802299D01*
X117936241Y-54612196D01*
X117842595Y-54436996D01*
X117716568Y-54283432D01*
X117563004Y-54157405D01*
X117387804Y-54063759D01*
X117197701Y-54006092D01*
X117197700Y-54006091D01*
X117197694Y-54006090D01*
X117000003Y-53986620D01*
X116999997Y-53986620D01*
X116802305Y-54006090D01*
X116612195Y-54063759D01*
X116436995Y-54157405D01*
X116283432Y-54283432D01*
X116157405Y-54436995D01*
X116063759Y-54612195D01*
X116006090Y-54802305D01*
X115986620Y-54999996D01*
X115986620Y-55000003D01*
X110000500Y-55000003D01*
X110000500Y-53000000D01*
X131371844Y-53000000D01*
X131387974Y-53194662D01*
X131390437Y-53224375D01*
X131445702Y-53442612D01*
X131445703Y-53442613D01*
X131445704Y-53442616D01*
X131529652Y-53633999D01*
X131536141Y-53648793D01*
X131659275Y-53837265D01*
X131659279Y-53837270D01*
X131727511Y-53911388D01*
X131811696Y-54002837D01*
X131811762Y-54002908D01*
X131815853Y-54006092D01*
X131989424Y-54141189D01*
X132187426Y-54248342D01*
X132187427Y-54248342D01*
X132187428Y-54248343D01*
X132289640Y-54283432D01*
X132400365Y-54321444D01*
X132622431Y-54358500D01*
X132622435Y-54358500D01*
X132847565Y-54358500D01*
X132847569Y-54358500D01*
X133069635Y-54321444D01*
X133282574Y-54248342D01*
X133480576Y-54141189D01*
X133658240Y-54002906D01*
X133719245Y-53936637D01*
X133780096Y-53900067D01*
X133851061Y-53902200D01*
X133909606Y-53942362D01*
X133930000Y-53977941D01*
X133974111Y-54096204D01*
X133974112Y-54096207D01*
X134061738Y-54213261D01*
X134178792Y-54300887D01*
X134178794Y-54300888D01*
X134178796Y-54300889D01*
X134233900Y-54321442D01*
X134315795Y-54351988D01*
X134315803Y-54351990D01*
X134376350Y-54358499D01*
X134376355Y-54358499D01*
X134376362Y-54358500D01*
X134376368Y-54358500D01*
X136173632Y-54358500D01*
X136173638Y-54358500D01*
X136173645Y-54358499D01*
X136173649Y-54358499D01*
X136234196Y-54351990D01*
X136234199Y-54351989D01*
X136234201Y-54351989D01*
X136371204Y-54300889D01*
X136439852Y-54249500D01*
X136488261Y-54213261D01*
X136575887Y-54096207D01*
X136575887Y-54096206D01*
X136575889Y-54096204D01*
X136626989Y-53959201D01*
X136628800Y-53942362D01*
X136633499Y-53898649D01*
X136633500Y-53898632D01*
X136633500Y-52101367D01*
X136633499Y-52101350D01*
X136626990Y-52040803D01*
X136626988Y-52040795D01*
X136576989Y-51906746D01*
X136575889Y-51903796D01*
X136575888Y-51903794D01*
X136575887Y-51903792D01*
X136488261Y-51786738D01*
X136371207Y-51699112D01*
X136371202Y-51699110D01*
X136234204Y-51648011D01*
X136234196Y-51648009D01*
X136173649Y-51641500D01*
X136173638Y-51641500D01*
X134376362Y-51641500D01*
X134376350Y-51641500D01*
X134315803Y-51648009D01*
X134315795Y-51648011D01*
X134178797Y-51699110D01*
X134178792Y-51699112D01*
X134061738Y-51786738D01*
X133974112Y-51903792D01*
X133974111Y-51903795D01*
X133930000Y-52022058D01*
X133887453Y-52078893D01*
X133820932Y-52103703D01*
X133751558Y-52088611D01*
X133719246Y-52063363D01*
X133658240Y-51997094D01*
X133658239Y-51997093D01*
X133658237Y-51997091D01*
X133538372Y-51903796D01*
X133480576Y-51858811D01*
X133282574Y-51751658D01*
X133282572Y-51751657D01*
X133282571Y-51751656D01*
X133069639Y-51678557D01*
X133069630Y-51678555D01*
X133025476Y-51671187D01*
X132847569Y-51641500D01*
X132622431Y-51641500D01*
X132474211Y-51666233D01*
X132400369Y-51678555D01*
X132400360Y-51678557D01*
X132187428Y-51751656D01*
X132187426Y-51751658D01*
X131989426Y-51858810D01*
X131989424Y-51858811D01*
X131811762Y-51997091D01*
X131659279Y-52162729D01*
X131659275Y-52162734D01*
X131536141Y-52351206D01*
X131445703Y-52557386D01*
X131445702Y-52557387D01*
X131390437Y-52775624D01*
X131390436Y-52775630D01*
X131390436Y-52775632D01*
X131371844Y-53000000D01*
X110000500Y-53000000D01*
X110000500Y-51126500D01*
X110020502Y-51058379D01*
X110074158Y-51011886D01*
X110126500Y-51000500D01*
X136873500Y-51000500D01*
X136941621Y-51020502D01*
G37*
G04 #@! TD.AperFunction*
G04 #@! TA.AperFunction,Conductor*
G36*
X125244029Y-76557815D02*
G01*
X125289095Y-76586777D01*
X125301348Y-76599030D01*
X125452261Y-76692115D01*
X125620573Y-76747887D01*
X125660527Y-76751968D01*
X125724446Y-76758500D01*
X125724454Y-76758500D01*
X126315500Y-76758500D01*
X126383621Y-76778502D01*
X126430114Y-76832158D01*
X126441500Y-76884500D01*
X126441500Y-77135559D01*
X126440170Y-77153819D01*
X126436659Y-77177786D01*
X126436659Y-77177794D01*
X126441260Y-77230372D01*
X126441500Y-77235866D01*
X126441500Y-77244182D01*
X126445347Y-77277094D01*
X126452112Y-77354419D01*
X126453596Y-77361606D01*
X126453531Y-77361619D01*
X126455165Y-77368989D01*
X126455229Y-77368975D01*
X126456921Y-77376116D01*
X126483473Y-77449064D01*
X126507885Y-77522736D01*
X126510987Y-77529388D01*
X126510926Y-77529416D01*
X126514211Y-77536202D01*
X126514270Y-77536173D01*
X126517560Y-77542724D01*
X126517564Y-77542731D01*
X126517565Y-77542732D01*
X126542977Y-77581368D01*
X126560233Y-77607605D01*
X126600967Y-77673648D01*
X126605522Y-77679408D01*
X126605468Y-77679450D01*
X126610228Y-77685292D01*
X126610279Y-77685250D01*
X126614993Y-77690868D01*
X126614998Y-77690873D01*
X126614999Y-77690874D01*
X126642021Y-77716368D01*
X126671482Y-77744163D01*
X127834724Y-78907405D01*
X127868749Y-78969717D01*
X127863685Y-79040532D01*
X127821138Y-79097368D01*
X127754618Y-79122179D01*
X127745629Y-79122500D01*
X125547371Y-79122500D01*
X125479250Y-79102498D01*
X125458276Y-79085595D01*
X123995405Y-77622723D01*
X123961379Y-77560411D01*
X123958500Y-77533628D01*
X123958500Y-76884500D01*
X123978502Y-76816379D01*
X124032158Y-76769886D01*
X124084500Y-76758500D01*
X124675554Y-76758500D01*
X124734906Y-76752435D01*
X124779427Y-76747887D01*
X124947739Y-76692115D01*
X125098652Y-76599030D01*
X125110904Y-76586777D01*
X125173213Y-76552752D01*
X125244029Y-76557815D01*
G37*
G04 #@! TD.AperFunction*
G04 #@! TA.AperFunction,Conductor*
G36*
X129244029Y-76557815D02*
G01*
X129289095Y-76586777D01*
X129301348Y-76599030D01*
X129452261Y-76692115D01*
X129620573Y-76747887D01*
X129660527Y-76751968D01*
X129724446Y-76758500D01*
X129724454Y-76758500D01*
X130315500Y-76758500D01*
X130383621Y-76778502D01*
X130430114Y-76832158D01*
X130441500Y-76884500D01*
X130441500Y-77135559D01*
X130440170Y-77153819D01*
X130436659Y-77177786D01*
X130436659Y-77177794D01*
X130441260Y-77230372D01*
X130441500Y-77235866D01*
X130441500Y-77244182D01*
X130445347Y-77277094D01*
X130452112Y-77354419D01*
X130453596Y-77361606D01*
X130453531Y-77361619D01*
X130455165Y-77368989D01*
X130455229Y-77368975D01*
X130456921Y-77376116D01*
X130483473Y-77449064D01*
X130507885Y-77522736D01*
X130510987Y-77529388D01*
X130510926Y-77529416D01*
X130514211Y-77536202D01*
X130514270Y-77536173D01*
X130517560Y-77542724D01*
X130517564Y-77542731D01*
X130517565Y-77542732D01*
X130542977Y-77581368D01*
X130560233Y-77607605D01*
X130600967Y-77673648D01*
X130605522Y-77679408D01*
X130605468Y-77679450D01*
X130610228Y-77685292D01*
X130610279Y-77685250D01*
X130614993Y-77690868D01*
X130614998Y-77690873D01*
X130614999Y-77690874D01*
X130671482Y-77744163D01*
X131207725Y-78280406D01*
X131241749Y-78342717D01*
X131236685Y-78413532D01*
X131194138Y-78470368D01*
X131127618Y-78495179D01*
X131118629Y-78495500D01*
X129620371Y-78495500D01*
X129552250Y-78475498D01*
X129531276Y-78458595D01*
X128046276Y-76973595D01*
X128012250Y-76911283D01*
X128017315Y-76840468D01*
X128059862Y-76783632D01*
X128126382Y-76758821D01*
X128135371Y-76758500D01*
X128675554Y-76758500D01*
X128734906Y-76752435D01*
X128779427Y-76747887D01*
X128947739Y-76692115D01*
X129098652Y-76599030D01*
X129110904Y-76586777D01*
X129173213Y-76552752D01*
X129244029Y-76557815D01*
G37*
G04 #@! TD.AperFunction*
G04 #@! TA.AperFunction,Conductor*
G36*
X153324569Y-72905502D02*
G01*
X153371062Y-72959158D01*
X153381166Y-73029432D01*
X153364489Y-73073425D01*
X153365257Y-73073811D01*
X153362726Y-73078849D01*
X153362003Y-73079983D01*
X153361715Y-73080744D01*
X153357934Y-73086492D01*
X153357879Y-73086456D01*
X153353825Y-73092820D01*
X153353882Y-73092855D01*
X153350028Y-73099101D01*
X153317220Y-73169458D01*
X153282391Y-73238812D01*
X153279882Y-73245707D01*
X153279820Y-73245684D01*
X153277343Y-73252810D01*
X153277404Y-73252831D01*
X153275097Y-73259790D01*
X153259392Y-73335849D01*
X153241500Y-73411345D01*
X153240648Y-73418634D01*
X153240581Y-73418626D01*
X153239814Y-73426126D01*
X153239881Y-73426132D01*
X153239241Y-73433442D01*
X153241500Y-73511079D01*
X153241500Y-76323059D01*
X153240170Y-76341319D01*
X153236659Y-76365286D01*
X153236659Y-76365294D01*
X153241260Y-76417872D01*
X153241500Y-76423366D01*
X153241500Y-77091506D01*
X153244437Y-77128829D01*
X153290856Y-77288605D01*
X153375544Y-77431803D01*
X153375549Y-77431810D01*
X153470144Y-77526405D01*
X153504170Y-77588717D01*
X153499105Y-77659532D01*
X153456558Y-77716368D01*
X153390038Y-77741179D01*
X153381049Y-77741500D01*
X149064441Y-77741500D01*
X149046181Y-77740170D01*
X149022211Y-77736659D01*
X148969615Y-77741260D01*
X148964122Y-77741500D01*
X148955817Y-77741500D01*
X148922904Y-77745347D01*
X148845574Y-77752112D01*
X148838389Y-77753596D01*
X148838376Y-77753533D01*
X148831003Y-77755168D01*
X148831018Y-77755231D01*
X148823881Y-77756922D01*
X148768088Y-77777229D01*
X148750934Y-77783473D01*
X148716625Y-77794842D01*
X148677261Y-77807886D01*
X148670612Y-77810987D01*
X148670583Y-77810926D01*
X148663792Y-77814214D01*
X148663822Y-77814273D01*
X148657269Y-77817563D01*
X148592394Y-77860232D01*
X148526351Y-77900968D01*
X148520588Y-77905525D01*
X148520547Y-77905473D01*
X148514704Y-77910233D01*
X148514746Y-77910283D01*
X148509128Y-77914996D01*
X148476148Y-77949953D01*
X148414851Y-77985775D01*
X148343918Y-77982771D01*
X148285869Y-77941894D01*
X148259135Y-77876123D01*
X148258500Y-77863485D01*
X148258500Y-75433752D01*
X148263503Y-75398599D01*
X148305562Y-75253831D01*
X148308500Y-75216502D01*
X148308500Y-73908498D01*
X148305562Y-73871169D01*
X148259145Y-73711399D01*
X148259143Y-73711397D01*
X148259143Y-73711394D01*
X148174455Y-73568196D01*
X148174450Y-73568189D01*
X148056810Y-73450549D01*
X148056803Y-73450544D01*
X147913605Y-73365856D01*
X147753829Y-73319437D01*
X147716506Y-73316500D01*
X147716502Y-73316500D01*
X147560371Y-73316500D01*
X147492250Y-73296498D01*
X147445757Y-73242842D01*
X147435653Y-73172568D01*
X147465147Y-73107988D01*
X147471276Y-73101405D01*
X147650276Y-72922405D01*
X147712588Y-72888379D01*
X147739371Y-72885500D01*
X153256448Y-72885500D01*
X153324569Y-72905502D01*
G37*
G04 #@! TD.AperFunction*
G04 #@! TA.AperFunction,Conductor*
G36*
X133244029Y-76557815D02*
G01*
X133289095Y-76586777D01*
X133301348Y-76599030D01*
X133452261Y-76692115D01*
X133620573Y-76747887D01*
X133660527Y-76751968D01*
X133724446Y-76758500D01*
X133724454Y-76758500D01*
X134315500Y-76758500D01*
X134383621Y-76778502D01*
X134430114Y-76832158D01*
X134441500Y-76884500D01*
X134441500Y-77135559D01*
X134440170Y-77153819D01*
X134436659Y-77177786D01*
X134436659Y-77177794D01*
X134441260Y-77230372D01*
X134441500Y-77235866D01*
X134441500Y-77244182D01*
X134445347Y-77277094D01*
X134452112Y-77354419D01*
X134453596Y-77361606D01*
X134453531Y-77361619D01*
X134455165Y-77368989D01*
X134455229Y-77368975D01*
X134456921Y-77376116D01*
X134483473Y-77449064D01*
X134507885Y-77522736D01*
X134510987Y-77529388D01*
X134510926Y-77529416D01*
X134514211Y-77536202D01*
X134514270Y-77536173D01*
X134517560Y-77542724D01*
X134517564Y-77542731D01*
X134517565Y-77542732D01*
X134560233Y-77607605D01*
X134600968Y-77673648D01*
X134602637Y-77676353D01*
X134621374Y-77744832D01*
X134600115Y-77812571D01*
X134545608Y-77858063D01*
X134495396Y-77868500D01*
X132993371Y-77868500D01*
X132925250Y-77848498D01*
X132904276Y-77831595D01*
X132046276Y-76973595D01*
X132012250Y-76911283D01*
X132017315Y-76840468D01*
X132059862Y-76783632D01*
X132126382Y-76758821D01*
X132135371Y-76758500D01*
X132675554Y-76758500D01*
X132734906Y-76752435D01*
X132779427Y-76747887D01*
X132947739Y-76692115D01*
X133098652Y-76599030D01*
X133110904Y-76586777D01*
X133173213Y-76552752D01*
X133244029Y-76557815D01*
G37*
G04 #@! TD.AperFunction*
G04 #@! TA.AperFunction,Conductor*
G36*
X145929953Y-72278502D02*
G01*
X145976446Y-72332158D01*
X145986550Y-72402432D01*
X145958351Y-72465494D01*
X145942007Y-72484972D01*
X145938300Y-72489017D01*
X145932421Y-72494897D01*
X145932412Y-72494907D01*
X145911863Y-72520896D01*
X145861965Y-72580364D01*
X145857935Y-72586491D01*
X145857880Y-72586455D01*
X145853825Y-72592820D01*
X145853882Y-72592855D01*
X145850028Y-72599101D01*
X145817220Y-72669458D01*
X145782391Y-72738812D01*
X145779882Y-72745707D01*
X145779820Y-72745684D01*
X145777343Y-72752810D01*
X145777404Y-72752831D01*
X145775097Y-72759790D01*
X145759392Y-72835849D01*
X145741500Y-72911345D01*
X145740648Y-72918634D01*
X145740581Y-72918626D01*
X145739814Y-72926126D01*
X145739881Y-72926132D01*
X145739241Y-72933442D01*
X145741500Y-73011079D01*
X145741500Y-76323059D01*
X145740170Y-76341319D01*
X145736659Y-76365286D01*
X145736659Y-76365294D01*
X145741260Y-76417872D01*
X145741500Y-76423366D01*
X145741500Y-77091506D01*
X145744437Y-77128829D01*
X145790856Y-77288605D01*
X145875544Y-77431803D01*
X145875549Y-77431810D01*
X145993189Y-77549450D01*
X145993196Y-77549455D01*
X146136232Y-77634047D01*
X146184685Y-77685940D01*
X146197390Y-77755790D01*
X146170315Y-77821421D01*
X146112054Y-77861995D01*
X146072093Y-77868500D01*
X140740922Y-77868500D01*
X140672801Y-77848498D01*
X140626308Y-77794842D01*
X140616204Y-77724568D01*
X140635649Y-77673264D01*
X140642066Y-77663507D01*
X140642123Y-77663544D01*
X140646171Y-77657190D01*
X140646113Y-77657155D01*
X140649966Y-77650908D01*
X140682773Y-77580553D01*
X140694351Y-77557497D01*
X140717609Y-77511188D01*
X140717609Y-77511184D01*
X140720119Y-77504291D01*
X140720183Y-77504314D01*
X140722658Y-77497193D01*
X140722593Y-77497172D01*
X140724898Y-77490213D01*
X140724902Y-77490206D01*
X140733252Y-77449767D01*
X140740599Y-77414182D01*
X140758500Y-77338656D01*
X140759352Y-77331368D01*
X140759418Y-77331375D01*
X140760184Y-77323877D01*
X140760118Y-77323872D01*
X140760756Y-77316565D01*
X140760758Y-77316558D01*
X140758500Y-77238954D01*
X140758500Y-75433752D01*
X140763503Y-75398599D01*
X140805562Y-75253831D01*
X140808500Y-75216502D01*
X140808500Y-73908498D01*
X140805562Y-73871169D01*
X140759145Y-73711399D01*
X140759143Y-73711397D01*
X140759143Y-73711394D01*
X140674455Y-73568196D01*
X140674450Y-73568189D01*
X140556810Y-73450549D01*
X140556803Y-73450544D01*
X140413605Y-73365856D01*
X140253829Y-73319437D01*
X140216506Y-73316500D01*
X140216502Y-73316500D01*
X140060371Y-73316500D01*
X139992250Y-73296498D01*
X139945757Y-73242842D01*
X139935653Y-73172568D01*
X139965147Y-73107988D01*
X139971276Y-73101405D01*
X140777276Y-72295405D01*
X140839588Y-72261379D01*
X140866371Y-72258500D01*
X145861832Y-72258500D01*
X145929953Y-72278502D01*
G37*
G04 #@! TD.AperFunction*
G04 #@! TA.AperFunction,Conductor*
G36*
X127405749Y-66805502D02*
G01*
X127452242Y-66859158D01*
X127462346Y-66929432D01*
X127432852Y-66994012D01*
X127426723Y-67000596D01*
X126709222Y-67718095D01*
X126695373Y-67730063D01*
X126675948Y-67744525D01*
X126675944Y-67744529D01*
X126642007Y-67784971D01*
X126638300Y-67789017D01*
X126632421Y-67794897D01*
X126632412Y-67794907D01*
X126611863Y-67820896D01*
X126561965Y-67880364D01*
X126557935Y-67886491D01*
X126557880Y-67886455D01*
X126553825Y-67892820D01*
X126553882Y-67892855D01*
X126550028Y-67899101D01*
X126517220Y-67969458D01*
X126482391Y-68038812D01*
X126479882Y-68045707D01*
X126479820Y-68045684D01*
X126477343Y-68052810D01*
X126477404Y-68052831D01*
X126475098Y-68059789D01*
X126475096Y-68059794D01*
X126475097Y-68059794D01*
X126459392Y-68135850D01*
X126457328Y-68144554D01*
X126422159Y-68206226D01*
X126359229Y-68239094D01*
X126334725Y-68241500D01*
X125724446Y-68241500D01*
X125620578Y-68252112D01*
X125620571Y-68252113D01*
X125452261Y-68307885D01*
X125301347Y-68400970D01*
X125289093Y-68413224D01*
X125226780Y-68447247D01*
X125155964Y-68442180D01*
X125110907Y-68413224D01*
X125098654Y-68400972D01*
X125098652Y-68400970D01*
X125098651Y-68400969D01*
X124947739Y-68307885D01*
X124863582Y-68279999D01*
X124779428Y-68252113D01*
X124779421Y-68252112D01*
X124675554Y-68241500D01*
X124675546Y-68241500D01*
X124635371Y-68241500D01*
X124567250Y-68221498D01*
X124520757Y-68167842D01*
X124510653Y-68097568D01*
X124540147Y-68032988D01*
X124546276Y-68026405D01*
X125750276Y-66822405D01*
X125812588Y-66788379D01*
X125839371Y-66785500D01*
X127337628Y-66785500D01*
X127405749Y-66805502D01*
G37*
G04 #@! TD.AperFunction*
G04 #@! TA.AperFunction,Conductor*
G36*
X136467640Y-63978502D02*
G01*
X136514133Y-64032158D01*
X136522141Y-64055522D01*
X136523010Y-64059200D01*
X136574110Y-64196202D01*
X136574112Y-64196207D01*
X136661738Y-64313261D01*
X136778792Y-64400887D01*
X136778794Y-64400888D01*
X136778796Y-64400889D01*
X136821487Y-64416812D01*
X136915795Y-64451988D01*
X136915803Y-64451990D01*
X136976350Y-64458499D01*
X136976355Y-64458499D01*
X136976362Y-64458500D01*
X136976368Y-64458500D01*
X137827216Y-64458500D01*
X137895337Y-64478502D01*
X137941830Y-64532158D01*
X137951934Y-64602432D01*
X137922440Y-64667012D01*
X137907150Y-64681899D01*
X137783431Y-64783432D01*
X137773582Y-64795434D01*
X137714905Y-64835403D01*
X137676183Y-64841500D01*
X128324949Y-64841500D01*
X128256828Y-64821498D01*
X128235854Y-64804595D01*
X128054854Y-64623595D01*
X128020828Y-64561283D01*
X128025893Y-64490468D01*
X128068440Y-64433632D01*
X128134960Y-64408821D01*
X128143949Y-64408500D01*
X129023632Y-64408500D01*
X129023638Y-64408500D01*
X129023645Y-64408499D01*
X129023649Y-64408499D01*
X129084196Y-64401990D01*
X129084199Y-64401989D01*
X129084201Y-64401989D01*
X129221204Y-64350889D01*
X129262788Y-64319760D01*
X129338261Y-64263261D01*
X129425887Y-64146207D01*
X129425887Y-64146206D01*
X129425889Y-64146204D01*
X129445762Y-64092921D01*
X129465328Y-64040467D01*
X129507875Y-63983631D01*
X129574395Y-63958821D01*
X129583383Y-63958500D01*
X136399519Y-63958500D01*
X136467640Y-63978502D01*
G37*
G04 #@! TD.AperFunction*
G04 #@! TA.AperFunction,Conductor*
G36*
X153461750Y-63928502D02*
G01*
X153508243Y-63982158D01*
X153518907Y-64021032D01*
X153523009Y-64059196D01*
X153523011Y-64059204D01*
X153574110Y-64196202D01*
X153574112Y-64196207D01*
X153661738Y-64313261D01*
X153778792Y-64400887D01*
X153778794Y-64400888D01*
X153778796Y-64400889D01*
X153821487Y-64416812D01*
X153915795Y-64451988D01*
X153915803Y-64451990D01*
X153976350Y-64458499D01*
X153976355Y-64458499D01*
X153976362Y-64458500D01*
X154731050Y-64458500D01*
X154799171Y-64478502D01*
X154845664Y-64532158D01*
X154855768Y-64602432D01*
X154826274Y-64667012D01*
X154820145Y-64673595D01*
X154689145Y-64804595D01*
X154626833Y-64838621D01*
X154600050Y-64841500D01*
X145323817Y-64841500D01*
X145255696Y-64821498D01*
X145226418Y-64795434D01*
X145216568Y-64783432D01*
X145063002Y-64657403D01*
X145040960Y-64645622D01*
X144990311Y-64595871D01*
X144974601Y-64526634D01*
X144998817Y-64459895D01*
X145055270Y-64416842D01*
X145100355Y-64408500D01*
X146023632Y-64408500D01*
X146023638Y-64408500D01*
X146023645Y-64408499D01*
X146023649Y-64408499D01*
X146084196Y-64401990D01*
X146084199Y-64401989D01*
X146084201Y-64401989D01*
X146221204Y-64350889D01*
X146262788Y-64319760D01*
X146338261Y-64263261D01*
X146425887Y-64146207D01*
X146425887Y-64146206D01*
X146425889Y-64146204D01*
X146476989Y-64009201D01*
X146476989Y-64009199D01*
X146477859Y-64005522D01*
X146479316Y-64002963D01*
X146479744Y-64001816D01*
X146479929Y-64001885D01*
X146512991Y-63943827D01*
X146575901Y-63910921D01*
X146600481Y-63908500D01*
X153393629Y-63908500D01*
X153461750Y-63928502D01*
G37*
G04 #@! TD.AperFunction*
M02*
