G04 #@! TF.GenerationSoftware,KiCad,Pcbnew,7.0.6*
G04 #@! TF.CreationDate,2023-09-28T23:10:25+01:00*
G04 #@! TF.ProjectId,GalaxyModPCB,47616c61-7879-44d6-9f64-5043422e6b69,rev?*
G04 #@! TF.SameCoordinates,Original*
G04 #@! TF.FileFunction,Soldermask,Bot*
G04 #@! TF.FilePolarity,Negative*
%FSLAX46Y46*%
G04 Gerber Fmt 4.6, Leading zero omitted, Abs format (unit mm)*
G04 Created by KiCad (PCBNEW 7.0.6) date 2023-09-28 23:10:25*
%MOMM*%
%LPD*%
G01*
G04 APERTURE LIST*
G04 Aperture macros list*
%AMRoundRect*
0 Rectangle with rounded corners*
0 $1 Rounding radius*
0 $2 $3 $4 $5 $6 $7 $8 $9 X,Y pos of 4 corners*
0 Add a 4 corners polygon primitive as box body*
4,1,4,$2,$3,$4,$5,$6,$7,$8,$9,$2,$3,0*
0 Add four circle primitives for the rounded corners*
1,1,$1+$1,$2,$3*
1,1,$1+$1,$4,$5*
1,1,$1+$1,$6,$7*
1,1,$1+$1,$8,$9*
0 Add four rect primitives between the rounded corners*
20,1,$1+$1,$2,$3,$4,$5,0*
20,1,$1+$1,$4,$5,$6,$7,0*
20,1,$1+$1,$6,$7,$8,$9,0*
20,1,$1+$1,$8,$9,$2,$3,0*%
%AMFreePoly0*
4,1,6,1.000000,0.000000,0.500000,-0.750000,-0.500000,-0.750000,-0.500000,0.750000,0.500000,0.750000,1.000000,0.000000,1.000000,0.000000,$1*%
%AMFreePoly1*
4,1,6,0.500000,-0.750000,-0.650000,-0.750000,-0.150000,0.000000,-0.650000,0.750000,0.500000,0.750000,0.500000,-0.750000,0.500000,-0.750000,$1*%
G04 Aperture macros list end*
%ADD10C,2.500000*%
%ADD11C,2.000000*%
%ADD12RoundRect,0.250000X-0.250000X-0.475000X0.250000X-0.475000X0.250000X0.475000X-0.250000X0.475000X0*%
%ADD13RoundRect,0.250000X-0.450000X0.350000X-0.450000X-0.350000X0.450000X-0.350000X0.450000X0.350000X0*%
%ADD14RoundRect,0.250000X-0.350000X-0.450000X0.350000X-0.450000X0.350000X0.450000X-0.350000X0.450000X0*%
%ADD15RoundRect,0.250000X-0.475000X0.250000X-0.475000X-0.250000X0.475000X-0.250000X0.475000X0.250000X0*%
%ADD16R,1.700000X1.700000*%
%ADD17RoundRect,0.425000X-0.425000X0.425000X-0.425000X-0.425000X0.425000X-0.425000X0.425000X0.425000X0*%
%ADD18RoundRect,0.250000X0.350000X0.450000X-0.350000X0.450000X-0.350000X-0.450000X0.350000X-0.450000X0*%
%ADD19O,1.700000X1.700000*%
%ADD20RoundRect,0.250000X0.250000X0.475000X-0.250000X0.475000X-0.250000X-0.475000X0.250000X-0.475000X0*%
%ADD21RoundRect,0.150000X0.150000X-0.587500X0.150000X0.587500X-0.150000X0.587500X-0.150000X-0.587500X0*%
%ADD22R,3.500000X1.800000*%
%ADD23R,1.500000X0.900000*%
%ADD24R,0.900000X1.500000*%
%ADD25FreePoly0,0.000000*%
%ADD26FreePoly1,0.000000*%
%ADD27R,1.500000X2.000000*%
%ADD28R,3.800000X2.000000*%
%ADD29RoundRect,0.237500X0.287500X0.237500X-0.287500X0.237500X-0.287500X-0.237500X0.287500X-0.237500X0*%
G04 APERTURE END LIST*
D10*
X124500000Y-60000000D03*
D11*
X159000000Y-55500000D03*
D10*
X159000000Y-60000000D03*
D11*
X124500000Y-55500000D03*
D12*
X119800000Y-58000000D03*
X121700000Y-58000000D03*
D13*
X122000000Y-64000000D03*
X122000000Y-66000000D03*
D14*
X153500000Y-68000000D03*
X155500000Y-68000000D03*
D13*
X129000000Y-56300000D03*
X129000000Y-58300000D03*
D15*
X124500000Y-70050000D03*
X124500000Y-71950000D03*
D14*
X153500000Y-76000000D03*
X155500000Y-76000000D03*
D16*
X134620000Y-59600000D03*
D17*
X137160000Y-59600000D03*
X139700000Y-59600000D03*
X142240000Y-59600000D03*
X144780000Y-59600000D03*
D13*
X115000000Y-53000000D03*
X115000000Y-55000000D03*
D18*
X160100000Y-53300000D03*
X158100000Y-53300000D03*
D13*
X124500000Y-74000000D03*
X124500000Y-76000000D03*
X127000000Y-56300000D03*
X127000000Y-58300000D03*
D16*
X112500000Y-68500000D03*
D19*
X115040000Y-68500000D03*
D20*
X124450000Y-80000000D03*
X122550000Y-80000000D03*
D21*
X163850000Y-55037500D03*
X161950000Y-55037500D03*
X162900000Y-53162500D03*
D16*
X148725000Y-53000000D03*
D19*
X151265000Y-53000000D03*
D22*
X148800000Y-57500000D03*
X153800000Y-57500000D03*
D16*
X158000000Y-87700000D03*
D19*
X155460000Y-87700000D03*
X152920000Y-87700000D03*
D18*
X155500000Y-74000000D03*
X153500000Y-74000000D03*
D16*
X171575000Y-64500000D03*
D19*
X169035000Y-64500000D03*
X166495000Y-64500000D03*
X163955000Y-64500000D03*
X161415000Y-64500000D03*
D20*
X124450000Y-78000000D03*
X122550000Y-78000000D03*
D18*
X155500000Y-70000000D03*
X153500000Y-70000000D03*
D23*
X128750000Y-81005000D03*
X128750000Y-79735000D03*
X128750000Y-78465000D03*
X128750000Y-77195000D03*
X128750000Y-75925000D03*
X128750000Y-74655000D03*
X128750000Y-73385000D03*
X128750000Y-72115000D03*
X128750000Y-70845000D03*
X128750000Y-69575000D03*
X128750000Y-68305000D03*
X128750000Y-67035000D03*
X128750000Y-65765000D03*
X128750000Y-64495000D03*
D24*
X131790000Y-63245000D03*
X133060000Y-63245000D03*
X134330000Y-63245000D03*
X135600000Y-63245000D03*
X136870000Y-63245000D03*
X138140000Y-63245000D03*
X139410000Y-63245000D03*
X140680000Y-63245000D03*
X141950000Y-63245000D03*
X143220000Y-63245000D03*
D23*
X146250000Y-64495000D03*
X146250000Y-65765000D03*
X146250000Y-67035000D03*
X146250000Y-68305000D03*
X146250000Y-69575000D03*
X146250000Y-70845000D03*
X146250000Y-72115000D03*
X146250000Y-73385000D03*
X146250000Y-74655000D03*
X146250000Y-75925000D03*
X146250000Y-77195000D03*
X146250000Y-78465000D03*
X146250000Y-79735000D03*
X146250000Y-81005000D03*
D14*
X153500000Y-80000000D03*
X155500000Y-80000000D03*
D16*
X135275000Y-53000000D03*
D19*
X132735000Y-53000000D03*
D14*
X153500000Y-72000000D03*
X155500000Y-72000000D03*
D25*
X149275000Y-61800000D03*
D26*
X150725000Y-61800000D03*
D14*
X131700000Y-56800000D03*
X133700000Y-56800000D03*
D18*
X155500000Y-78000000D03*
X153500000Y-78000000D03*
D21*
X129000000Y-54237500D03*
X127100000Y-54237500D03*
X128050000Y-52362500D03*
D18*
X163800000Y-58400000D03*
X161800000Y-58400000D03*
X155500000Y-66000000D03*
X153500000Y-66000000D03*
D27*
X112900000Y-58000000D03*
X115200000Y-58000000D03*
D28*
X115200000Y-64300000D03*
D27*
X117500000Y-58000000D03*
D18*
X163800000Y-60400000D03*
X161800000Y-60400000D03*
D29*
X122375000Y-53000000D03*
X120625000Y-53000000D03*
M02*
