G04 #@! TF.GenerationSoftware,KiCad,Pcbnew,7.0.6*
G04 #@! TF.CreationDate,2023-08-15T03:17:02+01:00*
G04 #@! TF.ProjectId,GalaxyModPCB,47616c61-7879-44d6-9f64-5043422e6b69,rev?*
G04 #@! TF.SameCoordinates,Original*
G04 #@! TF.FileFunction,Soldermask,Bot*
G04 #@! TF.FilePolarity,Negative*
%FSLAX46Y46*%
G04 Gerber Fmt 4.6, Leading zero omitted, Abs format (unit mm)*
G04 Created by KiCad (PCBNEW 7.0.6) date 2023-08-15 03:17:02*
%MOMM*%
%LPD*%
G01*
G04 APERTURE LIST*
G04 Aperture macros list*
%AMRoundRect*
0 Rectangle with rounded corners*
0 $1 Rounding radius*
0 $2 $3 $4 $5 $6 $7 $8 $9 X,Y pos of 4 corners*
0 Add a 4 corners polygon primitive as box body*
4,1,4,$2,$3,$4,$5,$6,$7,$8,$9,$2,$3,0*
0 Add four circle primitives for the rounded corners*
1,1,$1+$1,$2,$3*
1,1,$1+$1,$4,$5*
1,1,$1+$1,$6,$7*
1,1,$1+$1,$8,$9*
0 Add four rect primitives between the rounded corners*
20,1,$1+$1,$2,$3,$4,$5,0*
20,1,$1+$1,$4,$5,$6,$7,0*
20,1,$1+$1,$6,$7,$8,$9,0*
20,1,$1+$1,$8,$9,$2,$3,0*%
G04 Aperture macros list end*
%ADD10RoundRect,0.237500X-0.287500X-0.237500X0.287500X-0.237500X0.287500X0.237500X-0.287500X0.237500X0*%
%ADD11C,2.500000*%
%ADD12C,2.000000*%
%ADD13RoundRect,0.250000X0.250000X0.475000X-0.250000X0.475000X-0.250000X-0.475000X0.250000X-0.475000X0*%
%ADD14RoundRect,0.250000X-0.450000X0.350000X-0.450000X-0.350000X0.450000X-0.350000X0.450000X0.350000X0*%
%ADD15RoundRect,0.250000X-0.350000X-0.450000X0.350000X-0.450000X0.350000X0.450000X-0.350000X0.450000X0*%
%ADD16RoundRect,0.250000X-0.475000X0.250000X-0.475000X-0.250000X0.475000X-0.250000X0.475000X0.250000X0*%
%ADD17R,1.000000X1.000000*%
%ADD18O,1.000000X1.000000*%
%ADD19RoundRect,0.250000X0.350000X0.450000X-0.350000X0.450000X-0.350000X-0.450000X0.350000X-0.450000X0*%
%ADD20R,1.700000X1.700000*%
%ADD21O,1.700000X1.700000*%
%ADD22RoundRect,0.150000X-0.587500X-0.150000X0.587500X-0.150000X0.587500X0.150000X-0.587500X0.150000X0*%
%ADD23R,3.500000X1.800000*%
%ADD24R,1.800000X3.500000*%
%ADD25R,1.500000X0.900000*%
%ADD26R,0.900000X1.500000*%
%ADD27R,1.500000X2.000000*%
%ADD28R,3.800000X2.000000*%
G04 APERTURE END LIST*
D10*
X119625000Y-52500000D03*
X121375000Y-52500000D03*
D11*
X124500000Y-60000000D03*
D12*
X159000000Y-55500000D03*
D11*
X159000000Y-60000000D03*
D12*
X124500000Y-55500000D03*
D13*
X114950000Y-52500000D03*
X113050000Y-52500000D03*
D14*
X123500000Y-64500000D03*
X123500000Y-66500000D03*
D15*
X153500000Y-68000000D03*
X155500000Y-68000000D03*
D14*
X129000000Y-54500000D03*
X129000000Y-56500000D03*
D16*
X124500000Y-70050000D03*
X124500000Y-71950000D03*
D15*
X153500000Y-76000000D03*
X155500000Y-76000000D03*
D17*
X130460000Y-60400000D03*
D18*
X131730000Y-60400000D03*
X133000000Y-60400000D03*
X134270000Y-60400000D03*
X135540000Y-60400000D03*
D15*
X123500000Y-52500000D03*
X125500000Y-52500000D03*
D19*
X164500000Y-54500000D03*
X162500000Y-54500000D03*
D14*
X124500000Y-74000000D03*
X124500000Y-76000000D03*
X127000000Y-54500000D03*
X127000000Y-56500000D03*
D20*
X112500000Y-68500000D03*
D21*
X115040000Y-68500000D03*
D13*
X124450000Y-80000000D03*
X122550000Y-80000000D03*
D22*
X167562500Y-56450000D03*
X167562500Y-54550000D03*
X169437500Y-55500000D03*
D20*
X148725000Y-53000000D03*
D21*
X151265000Y-53000000D03*
D23*
X171000000Y-60500000D03*
X166000000Y-60500000D03*
D17*
X155500000Y-87600000D03*
D18*
X154230000Y-87600000D03*
X152960000Y-87600000D03*
D19*
X155500000Y-74000000D03*
X153500000Y-74000000D03*
D20*
X171575000Y-64500000D03*
D21*
X169035000Y-64500000D03*
X166495000Y-64500000D03*
X163955000Y-64500000D03*
X161415000Y-64500000D03*
D13*
X124450000Y-78000000D03*
X122550000Y-78000000D03*
D19*
X155500000Y-70000000D03*
X153500000Y-70000000D03*
D24*
X112500000Y-59000000D03*
X112500000Y-64000000D03*
D25*
X128750000Y-81005000D03*
X128750000Y-79735000D03*
X128750000Y-78465000D03*
X128750000Y-77195000D03*
X128750000Y-75925000D03*
X128750000Y-74655000D03*
X128750000Y-73385000D03*
X128750000Y-72115000D03*
X128750000Y-70845000D03*
X128750000Y-69575000D03*
X128750000Y-68305000D03*
X128750000Y-67035000D03*
X128750000Y-65765000D03*
X128750000Y-64495000D03*
D26*
X131790000Y-63245000D03*
X133060000Y-63245000D03*
X134330000Y-63245000D03*
X135600000Y-63245000D03*
X136870000Y-63245000D03*
X138140000Y-63245000D03*
X139410000Y-63245000D03*
X140680000Y-63245000D03*
X141950000Y-63245000D03*
X143220000Y-63245000D03*
D25*
X146250000Y-64495000D03*
X146250000Y-65765000D03*
X146250000Y-67035000D03*
X146250000Y-68305000D03*
X146250000Y-69575000D03*
X146250000Y-70845000D03*
X146250000Y-72115000D03*
X146250000Y-73385000D03*
X146250000Y-74655000D03*
X146250000Y-75925000D03*
X146250000Y-77195000D03*
X146250000Y-78465000D03*
X146250000Y-79735000D03*
X146250000Y-81005000D03*
D15*
X153500000Y-80000000D03*
X155500000Y-80000000D03*
D20*
X135275000Y-53000000D03*
D21*
X132735000Y-53000000D03*
D15*
X153500000Y-72000000D03*
X155500000Y-72000000D03*
X149000000Y-63000000D03*
X151000000Y-63000000D03*
D19*
X138000000Y-56500000D03*
X136000000Y-56500000D03*
X155500000Y-78000000D03*
X153500000Y-78000000D03*
D22*
X148062500Y-57950000D03*
X148062500Y-56050000D03*
X149937500Y-57000000D03*
D19*
X163500000Y-57500000D03*
X161500000Y-57500000D03*
X155500000Y-66000000D03*
X153500000Y-66000000D03*
D27*
X116200000Y-58350000D03*
X118500000Y-58350000D03*
D28*
X118500000Y-64650000D03*
D27*
X120800000Y-58350000D03*
D14*
X156000000Y-55500000D03*
X156000000Y-57500000D03*
M02*
