G04 #@! TF.GenerationSoftware,KiCad,Pcbnew,7.0.6*
G04 #@! TF.CreationDate,2023-09-28T23:10:25+01:00*
G04 #@! TF.ProjectId,GalaxyModPCB,47616c61-7879-44d6-9f64-5043422e6b69,rev?*
G04 #@! TF.SameCoordinates,Original*
G04 #@! TF.FileFunction,Paste,Top*
G04 #@! TF.FilePolarity,Positive*
%FSLAX46Y46*%
G04 Gerber Fmt 4.6, Leading zero omitted, Abs format (unit mm)*
G04 Created by KiCad (PCBNEW 7.0.6) date 2023-09-28 23:10:25*
%MOMM*%
%LPD*%
G01*
G04 APERTURE LIST*
G04 Aperture macros list*
%AMRoundRect*
0 Rectangle with rounded corners*
0 $1 Rounding radius*
0 $2 $3 $4 $5 $6 $7 $8 $9 X,Y pos of 4 corners*
0 Add a 4 corners polygon primitive as box body*
4,1,4,$2,$3,$4,$5,$6,$7,$8,$9,$2,$3,0*
0 Add four circle primitives for the rounded corners*
1,1,$1+$1,$2,$3*
1,1,$1+$1,$4,$5*
1,1,$1+$1,$6,$7*
1,1,$1+$1,$8,$9*
0 Add four rect primitives between the rounded corners*
20,1,$1+$1,$2,$3,$4,$5,0*
20,1,$1+$1,$4,$5,$6,$7,0*
20,1,$1+$1,$6,$7,$8,$9,0*
20,1,$1+$1,$8,$9,$2,$3,0*%
G04 Aperture macros list end*
%ADD10RoundRect,0.250000X0.250000X0.475000X-0.250000X0.475000X-0.250000X-0.475000X0.250000X-0.475000X0*%
%ADD11RoundRect,0.250000X0.475000X-0.250000X0.475000X0.250000X-0.475000X0.250000X-0.475000X-0.250000X0*%
%ADD12R,1.550000X1.300000*%
%ADD13RoundRect,0.150000X-0.150000X0.587500X-0.150000X-0.587500X0.150000X-0.587500X0.150000X0.587500X0*%
%ADD14RoundRect,0.249999X-1.425001X0.450001X-1.425001X-0.450001X1.425001X-0.450001X1.425001X0.450001X0*%
%ADD15RoundRect,0.150000X0.150000X-0.587500X0.150000X0.587500X-0.150000X0.587500X-0.150000X-0.587500X0*%
%ADD16RoundRect,0.250000X-0.350000X-0.450000X0.350000X-0.450000X0.350000X0.450000X-0.350000X0.450000X0*%
%ADD17RoundRect,0.250000X-0.250000X-0.475000X0.250000X-0.475000X0.250000X0.475000X-0.250000X0.475000X0*%
G04 APERTURE END LIST*
D10*
X118950000Y-59500000D03*
X117050000Y-59500000D03*
D11*
X143000000Y-60450000D03*
X143000000Y-58550000D03*
D12*
X154800000Y-63300000D03*
X145200000Y-63250000D03*
X154800000Y-58800000D03*
X145200000Y-58750000D03*
D13*
X155950000Y-81525000D03*
X154050000Y-81525000D03*
X155000000Y-83400000D03*
D14*
X131200000Y-69450000D03*
X131200000Y-75550000D03*
D15*
X154050000Y-76437500D03*
X155950000Y-76437500D03*
X155000000Y-74562500D03*
D11*
X140000000Y-60450000D03*
X140000000Y-58550000D03*
D12*
X171800000Y-57300000D03*
X162200000Y-57250000D03*
X171800000Y-52800000D03*
X162200000Y-52750000D03*
D15*
X139050000Y-76437500D03*
X140950000Y-76437500D03*
X140000000Y-74562500D03*
X146550000Y-76437500D03*
X148450000Y-76437500D03*
X147500000Y-74562500D03*
D12*
X121800000Y-57300000D03*
X112200000Y-57250000D03*
X121800000Y-52800000D03*
X112200000Y-52750000D03*
D16*
X112500000Y-66000000D03*
X114500000Y-66000000D03*
D14*
X127200000Y-69450000D03*
X127200000Y-75550000D03*
X135200000Y-69450000D03*
X135200000Y-75550000D03*
X123200000Y-69450000D03*
X123200000Y-75550000D03*
D12*
X137800000Y-63300000D03*
X128200000Y-63250000D03*
X137800000Y-58800000D03*
X128200000Y-58750000D03*
D17*
X165050000Y-59500000D03*
X166950000Y-59500000D03*
D13*
X115450000Y-61825000D03*
X113550000Y-61825000D03*
X114500000Y-63700000D03*
M02*
