G04 #@! TF.GenerationSoftware,KiCad,Pcbnew,7.0.6*
G04 #@! TF.CreationDate,2023-09-28T23:10:25+01:00*
G04 #@! TF.ProjectId,GalaxyModPCB,47616c61-7879-44d6-9f64-5043422e6b69,rev?*
G04 #@! TF.SameCoordinates,Original*
G04 #@! TF.FileFunction,Paste,Bot*
G04 #@! TF.FilePolarity,Positive*
%FSLAX46Y46*%
G04 Gerber Fmt 4.6, Leading zero omitted, Abs format (unit mm)*
G04 Created by KiCad (PCBNEW 7.0.6) date 2023-09-28 23:10:25*
%MOMM*%
%LPD*%
G01*
G04 APERTURE LIST*
G04 Aperture macros list*
%AMRoundRect*
0 Rectangle with rounded corners*
0 $1 Rounding radius*
0 $2 $3 $4 $5 $6 $7 $8 $9 X,Y pos of 4 corners*
0 Add a 4 corners polygon primitive as box body*
4,1,4,$2,$3,$4,$5,$6,$7,$8,$9,$2,$3,0*
0 Add four circle primitives for the rounded corners*
1,1,$1+$1,$2,$3*
1,1,$1+$1,$4,$5*
1,1,$1+$1,$6,$7*
1,1,$1+$1,$8,$9*
0 Add four rect primitives between the rounded corners*
20,1,$1+$1,$2,$3,$4,$5,0*
20,1,$1+$1,$4,$5,$6,$7,0*
20,1,$1+$1,$6,$7,$8,$9,0*
20,1,$1+$1,$8,$9,$2,$3,0*%
G04 Aperture macros list end*
%ADD10RoundRect,0.250000X-0.250000X-0.475000X0.250000X-0.475000X0.250000X0.475000X-0.250000X0.475000X0*%
%ADD11RoundRect,0.250000X-0.450000X0.350000X-0.450000X-0.350000X0.450000X-0.350000X0.450000X0.350000X0*%
%ADD12RoundRect,0.250000X-0.350000X-0.450000X0.350000X-0.450000X0.350000X0.450000X-0.350000X0.450000X0*%
%ADD13RoundRect,0.250000X-0.475000X0.250000X-0.475000X-0.250000X0.475000X-0.250000X0.475000X0.250000X0*%
%ADD14R,1.700000X1.700000*%
%ADD15RoundRect,0.425000X-0.425000X0.425000X-0.425000X-0.425000X0.425000X-0.425000X0.425000X0.425000X0*%
%ADD16RoundRect,0.250000X0.350000X0.450000X-0.350000X0.450000X-0.350000X-0.450000X0.350000X-0.450000X0*%
%ADD17RoundRect,0.250000X0.250000X0.475000X-0.250000X0.475000X-0.250000X-0.475000X0.250000X-0.475000X0*%
%ADD18RoundRect,0.150000X0.150000X-0.587500X0.150000X0.587500X-0.150000X0.587500X-0.150000X-0.587500X0*%
%ADD19R,3.500000X1.800000*%
%ADD20R,1.500000X0.900000*%
%ADD21R,0.900000X1.500000*%
%ADD22R,1.500000X2.000000*%
%ADD23R,3.800000X2.000000*%
%ADD24RoundRect,0.237500X0.287500X0.237500X-0.287500X0.237500X-0.287500X-0.237500X0.287500X-0.237500X0*%
G04 APERTURE END LIST*
D10*
X119800000Y-58000000D03*
X121700000Y-58000000D03*
D11*
X122000000Y-64000000D03*
X122000000Y-66000000D03*
D12*
X153500000Y-68000000D03*
X155500000Y-68000000D03*
D11*
X129000000Y-56300000D03*
X129000000Y-58300000D03*
D13*
X124500000Y-70050000D03*
X124500000Y-71950000D03*
D12*
X153500000Y-76000000D03*
X155500000Y-76000000D03*
D14*
X134620000Y-59600000D03*
D15*
X137160000Y-59600000D03*
X139700000Y-59600000D03*
X142240000Y-59600000D03*
X144780000Y-59600000D03*
D11*
X115000000Y-53000000D03*
X115000000Y-55000000D03*
D16*
X160100000Y-53300000D03*
X158100000Y-53300000D03*
D11*
X124500000Y-74000000D03*
X124500000Y-76000000D03*
X127000000Y-56300000D03*
X127000000Y-58300000D03*
D17*
X124450000Y-80000000D03*
X122550000Y-80000000D03*
D18*
X163850000Y-55037500D03*
X161950000Y-55037500D03*
X162900000Y-53162500D03*
D19*
X148800000Y-57500000D03*
X153800000Y-57500000D03*
D16*
X155500000Y-74000000D03*
X153500000Y-74000000D03*
D17*
X124450000Y-78000000D03*
X122550000Y-78000000D03*
D16*
X155500000Y-70000000D03*
X153500000Y-70000000D03*
D20*
X128750000Y-81005000D03*
X128750000Y-79735000D03*
X128750000Y-78465000D03*
X128750000Y-77195000D03*
X128750000Y-75925000D03*
X128750000Y-74655000D03*
X128750000Y-73385000D03*
X128750000Y-72115000D03*
X128750000Y-70845000D03*
X128750000Y-69575000D03*
X128750000Y-68305000D03*
X128750000Y-67035000D03*
X128750000Y-65765000D03*
X128750000Y-64495000D03*
D21*
X131790000Y-63245000D03*
X133060000Y-63245000D03*
X134330000Y-63245000D03*
X135600000Y-63245000D03*
X136870000Y-63245000D03*
X138140000Y-63245000D03*
X139410000Y-63245000D03*
X140680000Y-63245000D03*
X141950000Y-63245000D03*
X143220000Y-63245000D03*
D20*
X146250000Y-64495000D03*
X146250000Y-65765000D03*
X146250000Y-67035000D03*
X146250000Y-68305000D03*
X146250000Y-69575000D03*
X146250000Y-70845000D03*
X146250000Y-72115000D03*
X146250000Y-73385000D03*
X146250000Y-74655000D03*
X146250000Y-75925000D03*
X146250000Y-77195000D03*
X146250000Y-78465000D03*
X146250000Y-79735000D03*
X146250000Y-81005000D03*
D12*
X153500000Y-80000000D03*
X155500000Y-80000000D03*
X153500000Y-72000000D03*
X155500000Y-72000000D03*
X131700000Y-56800000D03*
X133700000Y-56800000D03*
D16*
X155500000Y-78000000D03*
X153500000Y-78000000D03*
D18*
X129000000Y-54237500D03*
X127100000Y-54237500D03*
X128050000Y-52362500D03*
D16*
X163800000Y-58400000D03*
X161800000Y-58400000D03*
X155500000Y-66000000D03*
X153500000Y-66000000D03*
D22*
X112900000Y-58000000D03*
X115200000Y-58000000D03*
D23*
X115200000Y-64300000D03*
D22*
X117500000Y-58000000D03*
D16*
X163800000Y-60400000D03*
X161800000Y-60400000D03*
D24*
X122375000Y-53000000D03*
X120625000Y-53000000D03*
M02*
