G04 #@! TF.GenerationSoftware,KiCad,Pcbnew,7.0.6*
G04 #@! TF.CreationDate,2023-08-15T03:17:02+01:00*
G04 #@! TF.ProjectId,GalaxyModPCB,47616c61-7879-44d6-9f64-5043422e6b69,rev?*
G04 #@! TF.SameCoordinates,Original*
G04 #@! TF.FileFunction,Copper,L4,Bot*
G04 #@! TF.FilePolarity,Positive*
%FSLAX46Y46*%
G04 Gerber Fmt 4.6, Leading zero omitted, Abs format (unit mm)*
G04 Created by KiCad (PCBNEW 7.0.6) date 2023-08-15 03:17:02*
%MOMM*%
%LPD*%
G01*
G04 APERTURE LIST*
G04 Aperture macros list*
%AMRoundRect*
0 Rectangle with rounded corners*
0 $1 Rounding radius*
0 $2 $3 $4 $5 $6 $7 $8 $9 X,Y pos of 4 corners*
0 Add a 4 corners polygon primitive as box body*
4,1,4,$2,$3,$4,$5,$6,$7,$8,$9,$2,$3,0*
0 Add four circle primitives for the rounded corners*
1,1,$1+$1,$2,$3*
1,1,$1+$1,$4,$5*
1,1,$1+$1,$6,$7*
1,1,$1+$1,$8,$9*
0 Add four rect primitives between the rounded corners*
20,1,$1+$1,$2,$3,$4,$5,0*
20,1,$1+$1,$4,$5,$6,$7,0*
20,1,$1+$1,$6,$7,$8,$9,0*
20,1,$1+$1,$8,$9,$2,$3,0*%
G04 Aperture macros list end*
G04 #@! TA.AperFunction,SMDPad,CuDef*
%ADD10RoundRect,0.237500X-0.287500X-0.237500X0.287500X-0.237500X0.287500X0.237500X-0.287500X0.237500X0*%
G04 #@! TD*
G04 #@! TA.AperFunction,SMDPad,CuDef*
%ADD11RoundRect,0.250000X0.250000X0.475000X-0.250000X0.475000X-0.250000X-0.475000X0.250000X-0.475000X0*%
G04 #@! TD*
G04 #@! TA.AperFunction,SMDPad,CuDef*
%ADD12RoundRect,0.250000X-0.450000X0.350000X-0.450000X-0.350000X0.450000X-0.350000X0.450000X0.350000X0*%
G04 #@! TD*
G04 #@! TA.AperFunction,SMDPad,CuDef*
%ADD13RoundRect,0.250000X-0.350000X-0.450000X0.350000X-0.450000X0.350000X0.450000X-0.350000X0.450000X0*%
G04 #@! TD*
G04 #@! TA.AperFunction,SMDPad,CuDef*
%ADD14RoundRect,0.250000X-0.475000X0.250000X-0.475000X-0.250000X0.475000X-0.250000X0.475000X0.250000X0*%
G04 #@! TD*
G04 #@! TA.AperFunction,ComponentPad*
%ADD15R,1.000000X1.000000*%
G04 #@! TD*
G04 #@! TA.AperFunction,ComponentPad*
%ADD16O,1.000000X1.000000*%
G04 #@! TD*
G04 #@! TA.AperFunction,SMDPad,CuDef*
%ADD17RoundRect,0.250000X0.350000X0.450000X-0.350000X0.450000X-0.350000X-0.450000X0.350000X-0.450000X0*%
G04 #@! TD*
G04 #@! TA.AperFunction,ComponentPad*
%ADD18R,1.700000X1.700000*%
G04 #@! TD*
G04 #@! TA.AperFunction,ComponentPad*
%ADD19O,1.700000X1.700000*%
G04 #@! TD*
G04 #@! TA.AperFunction,SMDPad,CuDef*
%ADD20RoundRect,0.150000X-0.587500X-0.150000X0.587500X-0.150000X0.587500X0.150000X-0.587500X0.150000X0*%
G04 #@! TD*
G04 #@! TA.AperFunction,SMDPad,CuDef*
%ADD21R,3.500000X1.800000*%
G04 #@! TD*
G04 #@! TA.AperFunction,SMDPad,CuDef*
%ADD22R,1.800000X3.500000*%
G04 #@! TD*
G04 #@! TA.AperFunction,SMDPad,CuDef*
%ADD23R,1.500000X0.900000*%
G04 #@! TD*
G04 #@! TA.AperFunction,SMDPad,CuDef*
%ADD24R,0.900000X1.500000*%
G04 #@! TD*
G04 #@! TA.AperFunction,SMDPad,CuDef*
%ADD25R,1.500000X2.000000*%
G04 #@! TD*
G04 #@! TA.AperFunction,SMDPad,CuDef*
%ADD26R,3.800000X2.000000*%
G04 #@! TD*
G04 #@! TA.AperFunction,ViaPad*
%ADD27C,1.000000*%
G04 #@! TD*
G04 #@! TA.AperFunction,Conductor*
%ADD28C,0.300000*%
G04 #@! TD*
G04 #@! TA.AperFunction,Conductor*
%ADD29C,0.500000*%
G04 #@! TD*
G04 APERTURE END LIST*
D10*
X119625000Y-52500000D03*
X121375000Y-52500000D03*
D11*
X114950000Y-52500000D03*
X113050000Y-52500000D03*
D12*
X123500000Y-64500000D03*
X123500000Y-66500000D03*
D13*
X153500000Y-68000000D03*
X155500000Y-68000000D03*
D12*
X129000000Y-54500000D03*
X129000000Y-56500000D03*
D14*
X124500000Y-70050000D03*
X124500000Y-71950000D03*
D13*
X153500000Y-76000000D03*
X155500000Y-76000000D03*
D15*
X130460000Y-60400000D03*
D16*
X131730000Y-60400000D03*
X133000000Y-60400000D03*
X134270000Y-60400000D03*
X135540000Y-60400000D03*
D13*
X123500000Y-52500000D03*
X125500000Y-52500000D03*
D17*
X164500000Y-54500000D03*
X162500000Y-54500000D03*
D12*
X124500000Y-74000000D03*
X124500000Y-76000000D03*
X127000000Y-54500000D03*
X127000000Y-56500000D03*
D18*
X112500000Y-68500000D03*
D19*
X115040000Y-68500000D03*
D11*
X124450000Y-80000000D03*
X122550000Y-80000000D03*
D20*
X167562500Y-56450000D03*
X167562500Y-54550000D03*
X169437500Y-55500000D03*
D18*
X148725000Y-53000000D03*
D19*
X151265000Y-53000000D03*
D21*
X171000000Y-60500000D03*
X166000000Y-60500000D03*
D15*
X155500000Y-87600000D03*
D16*
X154230000Y-87600000D03*
X152960000Y-87600000D03*
D17*
X155500000Y-74000000D03*
X153500000Y-74000000D03*
D18*
X171575000Y-64500000D03*
D19*
X169035000Y-64500000D03*
X166495000Y-64500000D03*
X163955000Y-64500000D03*
X161415000Y-64500000D03*
D11*
X124450000Y-78000000D03*
X122550000Y-78000000D03*
D17*
X155500000Y-70000000D03*
X153500000Y-70000000D03*
D22*
X112500000Y-59000000D03*
X112500000Y-64000000D03*
D23*
X128750000Y-81005000D03*
X128750000Y-79735000D03*
X128750000Y-78465000D03*
X128750000Y-77195000D03*
X128750000Y-75925000D03*
X128750000Y-74655000D03*
X128750000Y-73385000D03*
X128750000Y-72115000D03*
X128750000Y-70845000D03*
X128750000Y-69575000D03*
X128750000Y-68305000D03*
X128750000Y-67035000D03*
X128750000Y-65765000D03*
X128750000Y-64495000D03*
D24*
X131790000Y-63245000D03*
X133060000Y-63245000D03*
X134330000Y-63245000D03*
X135600000Y-63245000D03*
X136870000Y-63245000D03*
X138140000Y-63245000D03*
X139410000Y-63245000D03*
X140680000Y-63245000D03*
X141950000Y-63245000D03*
X143220000Y-63245000D03*
D23*
X146250000Y-64495000D03*
X146250000Y-65765000D03*
X146250000Y-67035000D03*
X146250000Y-68305000D03*
X146250000Y-69575000D03*
X146250000Y-70845000D03*
X146250000Y-72115000D03*
X146250000Y-73385000D03*
X146250000Y-74655000D03*
X146250000Y-75925000D03*
X146250000Y-77195000D03*
X146250000Y-78465000D03*
X146250000Y-79735000D03*
X146250000Y-81005000D03*
D13*
X153500000Y-80000000D03*
X155500000Y-80000000D03*
D18*
X135275000Y-53000000D03*
D19*
X132735000Y-53000000D03*
D13*
X153500000Y-72000000D03*
X155500000Y-72000000D03*
X149000000Y-63000000D03*
X151000000Y-63000000D03*
D17*
X138000000Y-56500000D03*
X136000000Y-56500000D03*
X155500000Y-78000000D03*
X153500000Y-78000000D03*
D20*
X148062500Y-57950000D03*
X148062500Y-56050000D03*
X149937500Y-57000000D03*
D17*
X163500000Y-57500000D03*
X161500000Y-57500000D03*
X155500000Y-66000000D03*
X153500000Y-66000000D03*
D25*
X116200000Y-58350000D03*
X118500000Y-58350000D03*
D26*
X118500000Y-64650000D03*
D25*
X120800000Y-58350000D03*
D12*
X156000000Y-55500000D03*
X156000000Y-57500000D03*
D27*
X115350000Y-61850000D03*
X115300000Y-64100000D03*
X121500000Y-55000000D03*
X122800000Y-81900000D03*
X126500000Y-71500000D03*
X165700000Y-68200000D03*
X112000000Y-54500000D03*
X153600000Y-55400000D03*
X116350000Y-70600000D03*
X143900000Y-81600000D03*
X143000000Y-73000000D03*
X122800000Y-87600000D03*
X126100000Y-81600000D03*
X125500000Y-67800000D03*
X159000000Y-69000000D03*
X143000000Y-75900000D03*
X137250000Y-81600000D03*
X171500000Y-55500000D03*
X153600000Y-51800000D03*
X162500000Y-62500000D03*
X133500000Y-77400000D03*
X150000000Y-64600000D03*
X130000000Y-53000000D03*
X133925000Y-81600000D03*
X157500000Y-85300000D03*
X140575000Y-81600000D03*
X131100000Y-57800000D03*
X151500000Y-55400000D03*
X132800000Y-56400000D03*
X117800000Y-69500000D03*
X150000000Y-61300000D03*
X152000000Y-77000000D03*
X157800000Y-63900000D03*
X150000000Y-59500000D03*
X111050000Y-70250000D03*
X151000000Y-73500000D03*
X119000000Y-68500000D03*
X157500000Y-74000000D03*
X157000000Y-79000000D03*
X141500000Y-61500000D03*
X161000000Y-52500000D03*
X157900000Y-51800000D03*
X150700000Y-80200000D03*
X120150000Y-67500000D03*
X120050000Y-72750000D03*
X146850000Y-54700000D03*
X130500000Y-64500000D03*
X152000000Y-85300000D03*
X118200000Y-52500000D03*
X162500000Y-60500000D03*
X122800000Y-84800000D03*
X137050000Y-54900000D03*
X130600000Y-78300000D03*
X168500000Y-62500000D03*
X111050000Y-52200000D03*
X151200000Y-69000000D03*
X130600000Y-81600000D03*
X142950000Y-69900000D03*
X172550000Y-62350000D03*
X126828602Y-52328602D03*
X117000000Y-55000000D03*
X144500000Y-65500000D03*
X142500000Y-65500000D03*
X140500000Y-65500000D03*
X138500000Y-65500000D03*
X163000000Y-68857500D03*
X162000000Y-69806167D03*
X161043565Y-70799232D03*
X158500000Y-79000000D03*
D28*
X143500000Y-68000000D02*
X144500000Y-67000000D01*
X134250000Y-68000000D02*
X143500000Y-68000000D01*
X128750000Y-72115000D02*
X130135000Y-72115000D01*
X130135000Y-72115000D02*
X134250000Y-68000000D01*
X144500000Y-67000000D02*
X144500000Y-65500000D01*
X141677000Y-67573000D02*
X142500000Y-66750000D01*
X130801130Y-70845000D02*
X134073130Y-67573000D01*
X134073130Y-67573000D02*
X141677000Y-67573000D01*
X128750000Y-70845000D02*
X130801130Y-70845000D01*
X142500000Y-66750000D02*
X142500000Y-65500000D01*
X140104000Y-67146000D02*
X140500000Y-66750000D01*
X133854000Y-67146000D02*
X140104000Y-67146000D01*
X131425000Y-69575000D02*
X133854000Y-67146000D01*
X140500000Y-66750000D02*
X140500000Y-65500000D01*
X128750000Y-69575000D02*
X131425000Y-69575000D01*
X138281000Y-66719000D02*
X138500000Y-66500000D01*
X138500000Y-66500000D02*
X138500000Y-65500000D01*
X133677131Y-66719000D02*
X138281000Y-66719000D01*
X132091130Y-68305000D02*
X133677131Y-66719000D01*
X128750000Y-68305000D02*
X132091130Y-68305000D01*
D29*
X121375000Y-52500000D02*
X123500000Y-52500000D01*
X127000000Y-54500000D02*
X127000000Y-53500000D01*
X122550000Y-87950000D02*
X122500000Y-88000000D01*
X127000000Y-53500000D02*
X127500000Y-53000000D01*
X127500000Y-53000000D02*
X130000000Y-53000000D01*
X122000000Y-69500000D02*
X123500000Y-68000000D01*
X128750000Y-79735000D02*
X126765000Y-79735000D01*
X126765000Y-79735000D02*
X126500000Y-80000000D01*
X124450000Y-78000000D02*
X124450000Y-76050000D01*
X123500000Y-68000000D02*
X123500000Y-66500000D01*
X124500000Y-76000000D02*
X123000000Y-76000000D01*
X123000000Y-76000000D02*
X122000000Y-75000000D01*
X124450000Y-76050000D02*
X124500000Y-76000000D01*
X124450000Y-78000000D02*
X124450000Y-80000000D01*
X126500000Y-80000000D02*
X124450000Y-80000000D01*
X122000000Y-75000000D02*
X122000000Y-69500000D01*
X126500000Y-74500000D02*
X126000000Y-74000000D01*
X127000000Y-78500000D02*
X126500000Y-78000000D01*
X124500000Y-71950000D02*
X124500000Y-74000000D01*
X126500000Y-78000000D02*
X126500000Y-74500000D01*
X128750000Y-78465000D02*
X127035000Y-78465000D01*
X127035000Y-78465000D02*
X127000000Y-78500000D01*
X126000000Y-74000000D02*
X124500000Y-74000000D01*
X116500000Y-52500000D02*
X117000000Y-53000000D01*
X171575000Y-62575000D02*
X171575000Y-64500000D01*
X117000000Y-53000000D02*
X117000000Y-55000000D01*
X112500000Y-59000000D02*
X112500000Y-56000000D01*
X112500000Y-56000000D02*
X113500000Y-55000000D01*
X171000000Y-62000000D02*
X171575000Y-62575000D01*
X125500000Y-52500000D02*
X126657204Y-52500000D01*
X120000000Y-55000000D02*
X117000000Y-55000000D01*
X171000000Y-60500000D02*
X171000000Y-62000000D01*
X113500000Y-55000000D02*
X117000000Y-55000000D01*
X126657204Y-52500000D02*
X126828602Y-52328602D01*
X120800000Y-58350000D02*
X120800000Y-55800000D01*
X120800000Y-55800000D02*
X120000000Y-55000000D01*
X114950000Y-52500000D02*
X116500000Y-52500000D01*
X112500000Y-64000000D02*
X112500000Y-68500000D01*
X172500000Y-57000000D02*
X172000000Y-57500000D01*
X172500000Y-53000000D02*
X172500000Y-57000000D01*
X167000000Y-57500000D02*
X166000000Y-58500000D01*
X171500000Y-52000000D02*
X172500000Y-53000000D01*
X166000000Y-58500000D02*
X166000000Y-60500000D01*
X161000000Y-54500000D02*
X159500000Y-53000000D01*
X162500000Y-54500000D02*
X162500000Y-53500000D01*
X162500000Y-53500000D02*
X164000000Y-52000000D01*
X172000000Y-57500000D02*
X167000000Y-57500000D01*
X159500000Y-53000000D02*
X151265000Y-53000000D01*
X164000000Y-52000000D02*
X171500000Y-52000000D01*
X162500000Y-54500000D02*
X161000000Y-54500000D01*
X146250000Y-63750000D02*
X147000000Y-63000000D01*
X149000000Y-63000000D02*
X147000000Y-63000000D01*
X146250000Y-64495000D02*
X146250000Y-63750000D01*
X141950000Y-63950000D02*
X141950000Y-63245000D01*
X145000000Y-63500000D02*
X144000000Y-64500000D01*
X144000000Y-64500000D02*
X142500000Y-64500000D01*
X145000000Y-61386712D02*
X145000000Y-63500000D01*
X144013288Y-60400000D02*
X145000000Y-61386712D01*
X135540000Y-60400000D02*
X136200000Y-60400000D01*
X135470000Y-60400000D02*
X136200000Y-60400000D01*
X142500000Y-64500000D02*
X141950000Y-63950000D01*
X136200000Y-60400000D02*
X144013288Y-60400000D01*
X127000000Y-65500000D02*
X127000000Y-64000000D01*
X131290000Y-61400000D02*
X131730000Y-60960000D01*
X128750000Y-65765000D02*
X127265000Y-65765000D01*
X129600000Y-61400000D02*
X131290000Y-61400000D01*
X127265000Y-65765000D02*
X127000000Y-65500000D01*
X129600000Y-61400000D02*
X127000000Y-64000000D01*
X131730000Y-60960000D02*
X131730000Y-60400000D01*
X133000000Y-60576712D02*
X133000000Y-60400000D01*
X131531712Y-62045000D02*
X133000000Y-60576712D01*
X129855000Y-62045000D02*
X131531712Y-62045000D01*
X129855000Y-62045000D02*
X128700000Y-63200000D01*
X128700000Y-63200000D02*
X128750000Y-63250000D01*
X128750000Y-63250000D02*
X128750000Y-64495000D01*
X132930000Y-60646712D02*
X132930000Y-60400000D01*
X133060000Y-63245000D02*
X133060000Y-61940000D01*
X134270000Y-60730000D02*
X134270000Y-60400000D01*
X133060000Y-61940000D02*
X134270000Y-60730000D01*
X149127000Y-77552000D02*
X149127000Y-80627000D01*
X152259712Y-81373000D02*
X154230000Y-83343288D01*
X147500000Y-75925000D02*
X149127000Y-77552000D01*
X149127000Y-80627000D02*
X149873000Y-81373000D01*
X149873000Y-81373000D02*
X152259712Y-81373000D01*
X154230000Y-83343288D02*
X154230000Y-87600000D01*
X146250000Y-75925000D02*
X147500000Y-75925000D01*
X149500000Y-82000000D02*
X152000000Y-82000000D01*
X152000000Y-82000000D02*
X152960000Y-82960000D01*
X148500000Y-78000000D02*
X148500000Y-81000000D01*
X147695000Y-77195000D02*
X148500000Y-78000000D01*
X148500000Y-81000000D02*
X149500000Y-82000000D01*
X146250000Y-77195000D02*
X147695000Y-77195000D01*
X152960000Y-82960000D02*
X152960000Y-87600000D01*
X135500000Y-55000000D02*
X134735000Y-55000000D01*
X136000000Y-55500000D02*
X135500000Y-55000000D01*
X136000000Y-56500000D02*
X136000000Y-55500000D01*
X134735000Y-55000000D02*
X132735000Y-53000000D01*
X163000000Y-68857500D02*
X162142500Y-68000000D01*
X162142500Y-68000000D02*
X155500000Y-68000000D01*
X158500000Y-72000000D02*
X155500000Y-72000000D01*
X160693833Y-69806167D02*
X158500000Y-72000000D01*
X162000000Y-69806167D02*
X160693833Y-69806167D01*
X161043565Y-71712102D02*
X159000000Y-73755667D01*
X159000000Y-73755667D02*
X159000000Y-75000000D01*
X161043565Y-70799232D02*
X161043565Y-71712102D01*
X159000000Y-75000000D02*
X158000000Y-76000000D01*
X158000000Y-76000000D02*
X155500000Y-76000000D01*
X158500000Y-79000000D02*
X157500000Y-80000000D01*
X157500000Y-80000000D02*
X155500000Y-80000000D01*
X164500000Y-57500000D02*
X165550000Y-56450000D01*
X163500000Y-57500000D02*
X164500000Y-57500000D01*
X165550000Y-56450000D02*
X167562500Y-56450000D01*
X164500000Y-54500000D02*
X167512500Y-54500000D01*
X167512500Y-54500000D02*
X167562500Y-54550000D01*
X148012500Y-58000000D02*
X148062500Y-57950000D01*
X134950000Y-56450000D02*
X134950000Y-57239949D01*
X133000000Y-54500000D02*
X134950000Y-56450000D01*
X129000000Y-54500000D02*
X133000000Y-54500000D01*
X134950000Y-57239949D02*
X135710051Y-58000000D01*
X135710051Y-58000000D02*
X148012500Y-58000000D01*
X145127000Y-57373000D02*
X146500000Y-56000000D01*
X146500000Y-56000000D02*
X148012500Y-56000000D01*
X148012500Y-56000000D02*
X148062500Y-56050000D01*
X140000000Y-56500000D02*
X140873000Y-57373000D01*
X138000000Y-56500000D02*
X140000000Y-56500000D01*
X140873000Y-57373000D02*
X145127000Y-57373000D01*
X119550000Y-61050000D02*
X118500000Y-60000000D01*
X118500000Y-62100000D02*
X119550000Y-61050000D01*
X118500000Y-64650000D02*
X118500000Y-62100000D01*
X123500000Y-63000000D02*
X122500000Y-62000000D01*
X120500000Y-62000000D02*
X119550000Y-61050000D01*
X123500000Y-64500000D02*
X123500000Y-63000000D01*
X122500000Y-62000000D02*
X120500000Y-62000000D01*
X118500000Y-60000000D02*
X118500000Y-58350000D01*
X146250000Y-68305000D02*
X149695000Y-68305000D01*
X153500000Y-68000000D02*
X153500000Y-66000000D01*
X150000000Y-68000000D02*
X153500000Y-68000000D01*
X149695000Y-68305000D02*
X150000000Y-68000000D01*
X147655000Y-70845000D02*
X148500000Y-70000000D01*
X153500000Y-72000000D02*
X153500000Y-70000000D01*
X148500000Y-70000000D02*
X153500000Y-70000000D01*
X146250000Y-70845000D02*
X147655000Y-70845000D01*
X146250000Y-72115000D02*
X147615000Y-72115000D01*
X147615000Y-72115000D02*
X151500000Y-76000000D01*
X151500000Y-76000000D02*
X153500000Y-76000000D01*
X153500000Y-76000000D02*
X153500000Y-74000000D01*
X151000000Y-78000000D02*
X153500000Y-78000000D01*
X147655000Y-74655000D02*
X151000000Y-78000000D01*
X146250000Y-74655000D02*
X147655000Y-74655000D01*
X153500000Y-80000000D02*
X153500000Y-78000000D01*
X156000000Y-57500000D02*
X161500000Y-57500000D01*
X146250000Y-65765000D02*
X151235000Y-65765000D01*
X156000000Y-61000000D02*
X156000000Y-57500000D01*
X151235000Y-65765000D02*
X156000000Y-61000000D01*
X127035000Y-67035000D02*
X125800000Y-65800000D01*
X129000000Y-56500000D02*
X127000000Y-56500000D01*
X127000000Y-62000000D02*
X127000000Y-57500000D01*
X125800000Y-63200000D02*
X127000000Y-62000000D01*
X128750000Y-67035000D02*
X127035000Y-67035000D01*
X127000000Y-57500000D02*
X127000000Y-56500000D01*
X125800000Y-65800000D02*
X125800000Y-63200000D01*
G04 #@! TA.AperFunction,Conductor*
G36*
X136941621Y-51020502D02*
G01*
X136988114Y-51074158D01*
X136999500Y-51126500D01*
X136999500Y-51218326D01*
X137020674Y-51460355D01*
X137024506Y-51545683D01*
X137029559Y-51561915D01*
X137037556Y-51653314D01*
X137082236Y-51906707D01*
X137092905Y-51985468D01*
X137098545Y-51999200D01*
X137113381Y-52083337D01*
X137179100Y-52328605D01*
X137183992Y-52346860D01*
X137200109Y-52417473D01*
X137205918Y-52428694D01*
X137226396Y-52505116D01*
X137325460Y-52777293D01*
X137345259Y-52838229D01*
X137350838Y-52847018D01*
X137375740Y-52915434D01*
X137505932Y-53194632D01*
X137527219Y-53244435D01*
X137532169Y-53250899D01*
X137556051Y-53302112D01*
X137560277Y-53311174D01*
X137569213Y-53326652D01*
X137724554Y-53595711D01*
X137744550Y-53632870D01*
X137748496Y-53637180D01*
X137778598Y-53689319D01*
X137778598Y-53689318D01*
X137778603Y-53689326D01*
X137934092Y-53911388D01*
X137980266Y-53977331D01*
X137995542Y-54000473D01*
X137998125Y-54002837D01*
X137998175Y-54002908D01*
X138029057Y-54047012D01*
X138271996Y-54336536D01*
X138278196Y-54344310D01*
X138279100Y-54345001D01*
X138309732Y-54381507D01*
X138618493Y-54690268D01*
X138952988Y-54970943D01*
X139310674Y-55221397D01*
X139310678Y-55221399D01*
X139310682Y-55221402D01*
X139577665Y-55375544D01*
X139688826Y-55439723D01*
X139688828Y-55439724D01*
X139688827Y-55439724D01*
X139755001Y-55470581D01*
X139803492Y-55493193D01*
X139820889Y-55501305D01*
X139874174Y-55548222D01*
X139893635Y-55616500D01*
X139873093Y-55684459D01*
X139819070Y-55730525D01*
X139767639Y-55741500D01*
X139121220Y-55741500D01*
X139053099Y-55721498D01*
X139013979Y-55681647D01*
X139010710Y-55676347D01*
X138949030Y-55576348D01*
X138949029Y-55576347D01*
X138949024Y-55576341D01*
X138823658Y-55450975D01*
X138823652Y-55450970D01*
X138779372Y-55423658D01*
X138672738Y-55357885D01*
X138560193Y-55320592D01*
X138504427Y-55302113D01*
X138504420Y-55302112D01*
X138400553Y-55291500D01*
X137599455Y-55291500D01*
X137495574Y-55302112D01*
X137327261Y-55357885D01*
X137176347Y-55450970D01*
X137176341Y-55450975D01*
X137089095Y-55538222D01*
X137026783Y-55572248D01*
X136955968Y-55567183D01*
X136910905Y-55538222D01*
X136823654Y-55450971D01*
X136807168Y-55440802D01*
X136759691Y-55388015D01*
X136750010Y-55352630D01*
X136749371Y-55352763D01*
X136747887Y-55345578D01*
X136747887Y-55345574D01*
X136747885Y-55345569D01*
X136746403Y-55338390D01*
X136746469Y-55338376D01*
X136744837Y-55331012D01*
X136744772Y-55331028D01*
X136743080Y-55323890D01*
X136738361Y-55310926D01*
X136716526Y-55250934D01*
X136692114Y-55177262D01*
X136692109Y-55177255D01*
X136689012Y-55170611D01*
X136689074Y-55170581D01*
X136685788Y-55163795D01*
X136685728Y-55163826D01*
X136682433Y-55157265D01*
X136639766Y-55092394D01*
X136599031Y-55026351D01*
X136599030Y-55026349D01*
X136599027Y-55026346D01*
X136594478Y-55020592D01*
X136594531Y-55020549D01*
X136589766Y-55014700D01*
X136589715Y-55014744D01*
X136584998Y-55009122D01*
X136528518Y-54955837D01*
X136339183Y-54766502D01*
X136140937Y-54568256D01*
X136106914Y-54505946D01*
X136111978Y-54435131D01*
X136154525Y-54378295D01*
X136216568Y-54353885D01*
X136234196Y-54351990D01*
X136234199Y-54351989D01*
X136234201Y-54351989D01*
X136371204Y-54300889D01*
X136395915Y-54282391D01*
X136488261Y-54213261D01*
X136575887Y-54096207D01*
X136575887Y-54096206D01*
X136575889Y-54096204D01*
X136626989Y-53959201D01*
X136631085Y-53921107D01*
X136633499Y-53898649D01*
X136633500Y-53898632D01*
X136633500Y-52101367D01*
X136633499Y-52101350D01*
X136626990Y-52040803D01*
X136626988Y-52040795D01*
X136591287Y-51945080D01*
X136575889Y-51903796D01*
X136575888Y-51903794D01*
X136575887Y-51903792D01*
X136488261Y-51786738D01*
X136371207Y-51699112D01*
X136371202Y-51699110D01*
X136234204Y-51648011D01*
X136234196Y-51648009D01*
X136173649Y-51641500D01*
X136173638Y-51641500D01*
X134376362Y-51641500D01*
X134376350Y-51641500D01*
X134315803Y-51648009D01*
X134315795Y-51648011D01*
X134178797Y-51699110D01*
X134178792Y-51699112D01*
X134061738Y-51786738D01*
X133974112Y-51903792D01*
X133974111Y-51903795D01*
X133930000Y-52022058D01*
X133887453Y-52078893D01*
X133820932Y-52103703D01*
X133751558Y-52088611D01*
X133719246Y-52063363D01*
X133658240Y-51997094D01*
X133658239Y-51997093D01*
X133658237Y-51997091D01*
X133575148Y-51932420D01*
X133480576Y-51858811D01*
X133282574Y-51751658D01*
X133282572Y-51751657D01*
X133282571Y-51751656D01*
X133069639Y-51678557D01*
X133069630Y-51678555D01*
X133025476Y-51671187D01*
X132847569Y-51641500D01*
X132622431Y-51641500D01*
X132474211Y-51666233D01*
X132400369Y-51678555D01*
X132400360Y-51678557D01*
X132187428Y-51751656D01*
X132187426Y-51751658D01*
X131991047Y-51857933D01*
X131989426Y-51858810D01*
X131989424Y-51858811D01*
X131811762Y-51997091D01*
X131659279Y-52162729D01*
X131659275Y-52162734D01*
X131536141Y-52351206D01*
X131445703Y-52557386D01*
X131445702Y-52557387D01*
X131390437Y-52775624D01*
X131390436Y-52775630D01*
X131390436Y-52775632D01*
X131371844Y-53000000D01*
X131387974Y-53194662D01*
X131390437Y-53224375D01*
X131445702Y-53442612D01*
X131445703Y-53442613D01*
X131445704Y-53442616D01*
X131493234Y-53550975D01*
X131499337Y-53564887D01*
X131508383Y-53635304D01*
X131477922Y-53699435D01*
X131417626Y-53736916D01*
X131383949Y-53741500D01*
X130159539Y-53741500D01*
X130091418Y-53721498D01*
X130052298Y-53681647D01*
X130049029Y-53676347D01*
X130049024Y-53676341D01*
X129923658Y-53550975D01*
X129923652Y-53550970D01*
X129920497Y-53549024D01*
X129772738Y-53457885D01*
X129663169Y-53421578D01*
X129604427Y-53402113D01*
X129604420Y-53402112D01*
X129500553Y-53391500D01*
X128499455Y-53391500D01*
X128395574Y-53402112D01*
X128227261Y-53457885D01*
X128076347Y-53550970D01*
X128076341Y-53550975D01*
X127950975Y-53676341D01*
X127950970Y-53676347D01*
X127857885Y-53827262D01*
X127802113Y-53995572D01*
X127802112Y-53995579D01*
X127791500Y-54099446D01*
X127791500Y-54900544D01*
X127802112Y-55004425D01*
X127852758Y-55157265D01*
X127857885Y-55172738D01*
X127919086Y-55271960D01*
X127937823Y-55340438D01*
X127916564Y-55408177D01*
X127862057Y-55453669D01*
X127791608Y-55462470D01*
X127772213Y-55457711D01*
X127604427Y-55402113D01*
X127604420Y-55402112D01*
X127500553Y-55391500D01*
X126499455Y-55391500D01*
X126395574Y-55402112D01*
X126227261Y-55457885D01*
X126076347Y-55550970D01*
X125963632Y-55663685D01*
X125901320Y-55697710D01*
X125830504Y-55692644D01*
X125773668Y-55650098D01*
X125748858Y-55583577D01*
X125748664Y-55568936D01*
X125748743Y-55567183D01*
X125754290Y-55443670D01*
X125724075Y-55220613D01*
X125723935Y-55220183D01*
X125697242Y-55138031D01*
X125654517Y-55006536D01*
X125599897Y-54905035D01*
X125547855Y-54808324D01*
X125547851Y-54808317D01*
X125407506Y-54632332D01*
X125296307Y-54535180D01*
X125237996Y-54484235D01*
X125044764Y-54368785D01*
X125000009Y-54351988D01*
X124834019Y-54289691D01*
X124634770Y-54253533D01*
X124612547Y-54249500D01*
X124443845Y-54249500D01*
X124414823Y-54252112D01*
X124275810Y-54264622D01*
X124275810Y-54264623D01*
X124058832Y-54324505D01*
X123856031Y-54422168D01*
X123856023Y-54422173D01*
X123673921Y-54554478D01*
X123673920Y-54554479D01*
X123518369Y-54717172D01*
X123394367Y-54905027D01*
X123394363Y-54905035D01*
X123305897Y-55112011D01*
X123305896Y-55112013D01*
X123255809Y-55331461D01*
X123255809Y-55331463D01*
X123248469Y-55494907D01*
X123245710Y-55556330D01*
X123262519Y-55680421D01*
X123275925Y-55779390D01*
X123345484Y-55993467D01*
X123452144Y-56191675D01*
X123452148Y-56191682D01*
X123485496Y-56233498D01*
X123592492Y-56367666D01*
X123762004Y-56515765D01*
X123955236Y-56631215D01*
X124165976Y-56710307D01*
X124165978Y-56710307D01*
X124165980Y-56710308D01*
X124275119Y-56730114D01*
X124387453Y-56750500D01*
X124387454Y-56750500D01*
X124556149Y-56750500D01*
X124556155Y-56750500D01*
X124713759Y-56736315D01*
X124724189Y-56735377D01*
X124724189Y-56735376D01*
X124918872Y-56681647D01*
X124941167Y-56675494D01*
X124941167Y-56675493D01*
X124941170Y-56675493D01*
X125143973Y-56577829D01*
X125326078Y-56445522D01*
X125481632Y-56282825D01*
X125560344Y-56163580D01*
X125614564Y-56117748D01*
X125684957Y-56108505D01*
X125749172Y-56138786D01*
X125786822Y-56198978D01*
X125791500Y-56232994D01*
X125791500Y-56900544D01*
X125802112Y-57004425D01*
X125857885Y-57172738D01*
X125950970Y-57323652D01*
X125950975Y-57323658D01*
X126076341Y-57449024D01*
X126076345Y-57449027D01*
X126076348Y-57449030D01*
X126181647Y-57513979D01*
X126229125Y-57566763D01*
X126241500Y-57621219D01*
X126241499Y-59799305D01*
X126221497Y-59867426D01*
X126167841Y-59913919D01*
X126097567Y-59924022D01*
X126032987Y-59894529D01*
X125994603Y-59834803D01*
X125991222Y-59820067D01*
X125959571Y-59630386D01*
X125882570Y-59406090D01*
X125878829Y-59395192D01*
X125878828Y-59395190D01*
X125760474Y-59176491D01*
X125760473Y-59176490D01*
X125699389Y-59098009D01*
X125607738Y-58980256D01*
X125607736Y-58980254D01*
X125607732Y-58980249D01*
X125424785Y-58811835D01*
X125216606Y-58675826D01*
X125216607Y-58675826D01*
X124988884Y-58575938D01*
X124988877Y-58575935D01*
X124747828Y-58514893D01*
X124747823Y-58514892D01*
X124747821Y-58514892D01*
X124614630Y-58503855D01*
X124562069Y-58499500D01*
X124562067Y-58499500D01*
X124437933Y-58499500D01*
X124437931Y-58499500D01*
X124376707Y-58504573D01*
X124252179Y-58514892D01*
X124252177Y-58514892D01*
X124252171Y-58514893D01*
X124011122Y-58575935D01*
X124011115Y-58575938D01*
X123783393Y-58675826D01*
X123575214Y-58811835D01*
X123392267Y-58980249D01*
X123239526Y-59176490D01*
X123239525Y-59176491D01*
X123121171Y-59395190D01*
X123121170Y-59395192D01*
X123040430Y-59630381D01*
X123040428Y-59630390D01*
X123032170Y-59679880D01*
X122999500Y-59875665D01*
X122999500Y-60124335D01*
X123032607Y-60322736D01*
X123040428Y-60369609D01*
X123040430Y-60369618D01*
X123121170Y-60604807D01*
X123121171Y-60604809D01*
X123234921Y-60814999D01*
X123239526Y-60823509D01*
X123373942Y-60996207D01*
X123392267Y-61019750D01*
X123575214Y-61188164D01*
X123783393Y-61324173D01*
X123783392Y-61324173D01*
X123929411Y-61388222D01*
X124011119Y-61424063D01*
X124011120Y-61424063D01*
X124011122Y-61424064D01*
X124215983Y-61475942D01*
X124252179Y-61485108D01*
X124417446Y-61498802D01*
X124437931Y-61500500D01*
X124437933Y-61500500D01*
X124562069Y-61500500D01*
X124581483Y-61498891D01*
X124747821Y-61485108D01*
X124988881Y-61424063D01*
X125216607Y-61324173D01*
X125424785Y-61188164D01*
X125478088Y-61139095D01*
X125607732Y-61019750D01*
X125607733Y-61019748D01*
X125607738Y-61019744D01*
X125760474Y-60823509D01*
X125878828Y-60604810D01*
X125959571Y-60369614D01*
X125991219Y-60179950D01*
X126022158Y-60116057D01*
X126082734Y-60079029D01*
X126153713Y-60080629D01*
X126212559Y-60120348D01*
X126240589Y-60185577D01*
X126241499Y-60200694D01*
X126241500Y-61633627D01*
X126221498Y-61701748D01*
X126204595Y-61722723D01*
X125309222Y-62618095D01*
X125295373Y-62630063D01*
X125275948Y-62644525D01*
X125275944Y-62644529D01*
X125275942Y-62644530D01*
X125275942Y-62644531D01*
X125271381Y-62649967D01*
X125242007Y-62684971D01*
X125238300Y-62689017D01*
X125232421Y-62694897D01*
X125232412Y-62694907D01*
X125212476Y-62720121D01*
X125211863Y-62720896D01*
X125178897Y-62760185D01*
X125161965Y-62780364D01*
X125157935Y-62786491D01*
X125157880Y-62786455D01*
X125153825Y-62792820D01*
X125153882Y-62792855D01*
X125150028Y-62799101D01*
X125117220Y-62869458D01*
X125082391Y-62938812D01*
X125079882Y-62945707D01*
X125079820Y-62945684D01*
X125077343Y-62952810D01*
X125077404Y-62952831D01*
X125075097Y-62959790D01*
X125059392Y-63035849D01*
X125041500Y-63111345D01*
X125040648Y-63118634D01*
X125040581Y-63118626D01*
X125039814Y-63126126D01*
X125039881Y-63126132D01*
X125039241Y-63133442D01*
X125041500Y-63211079D01*
X125041500Y-65735559D01*
X125040170Y-65753819D01*
X125036659Y-65777786D01*
X125036659Y-65777794D01*
X125038483Y-65798638D01*
X125040987Y-65827262D01*
X125041260Y-65830372D01*
X125041500Y-65835866D01*
X125041500Y-65844182D01*
X125045347Y-65877094D01*
X125052112Y-65954419D01*
X125053596Y-65961606D01*
X125053531Y-65961619D01*
X125055165Y-65968989D01*
X125055229Y-65968975D01*
X125056921Y-65976116D01*
X125073021Y-66020348D01*
X125083473Y-66049065D01*
X125091135Y-66072186D01*
X125107885Y-66122736D01*
X125110987Y-66129388D01*
X125110926Y-66129416D01*
X125114211Y-66136202D01*
X125114270Y-66136173D01*
X125117560Y-66142724D01*
X125117564Y-66142731D01*
X125117565Y-66142732D01*
X125123654Y-66151990D01*
X125160233Y-66207605D01*
X125200967Y-66273648D01*
X125205522Y-66279408D01*
X125205468Y-66279450D01*
X125210228Y-66285292D01*
X125210279Y-66285250D01*
X125214993Y-66290868D01*
X125214998Y-66290873D01*
X125214999Y-66290874D01*
X125271482Y-66344163D01*
X126453092Y-67525773D01*
X126465065Y-67539627D01*
X126468038Y-67543621D01*
X126479531Y-67559058D01*
X126495958Y-67572842D01*
X126519975Y-67592994D01*
X126524021Y-67596702D01*
X126529900Y-67602581D01*
X126555895Y-67623135D01*
X126615360Y-67673032D01*
X126615366Y-67673035D01*
X126621495Y-67677067D01*
X126621458Y-67677122D01*
X126627811Y-67681169D01*
X126627847Y-67681113D01*
X126634092Y-67684965D01*
X126634095Y-67684967D01*
X126704452Y-67717775D01*
X126773812Y-67752609D01*
X126773813Y-67752609D01*
X126773817Y-67752611D01*
X126780713Y-67755121D01*
X126780689Y-67755185D01*
X126787805Y-67757659D01*
X126787827Y-67757595D01*
X126794791Y-67759903D01*
X126870849Y-67775607D01*
X126904866Y-67783669D01*
X126946344Y-67793500D01*
X126946350Y-67793500D01*
X126953633Y-67794352D01*
X126953625Y-67794419D01*
X126961122Y-67795185D01*
X126961128Y-67795119D01*
X126968435Y-67795757D01*
X126968442Y-67795759D01*
X127046080Y-67793500D01*
X127365500Y-67793500D01*
X127433621Y-67813502D01*
X127480114Y-67867158D01*
X127491500Y-67919500D01*
X127491500Y-68803649D01*
X127498009Y-68864195D01*
X127498010Y-68864198D01*
X127509860Y-68895970D01*
X127514923Y-68966786D01*
X127509860Y-68984030D01*
X127498010Y-69015801D01*
X127498009Y-69015804D01*
X127491500Y-69076350D01*
X127491500Y-70073649D01*
X127498009Y-70134195D01*
X127498010Y-70134198D01*
X127509860Y-70165970D01*
X127514923Y-70236786D01*
X127509860Y-70254030D01*
X127498010Y-70285801D01*
X127498009Y-70285804D01*
X127491500Y-70346350D01*
X127491500Y-71343649D01*
X127498009Y-71404195D01*
X127498010Y-71404198D01*
X127509860Y-71435970D01*
X127514923Y-71506786D01*
X127509860Y-71524029D01*
X127498220Y-71555240D01*
X127498010Y-71555802D01*
X127491500Y-71616350D01*
X127491500Y-72613649D01*
X127498009Y-72674195D01*
X127498010Y-72674198D01*
X127498010Y-72674200D01*
X127498011Y-72674201D01*
X127504692Y-72692114D01*
X127509860Y-72705970D01*
X127514923Y-72776786D01*
X127509860Y-72794030D01*
X127498010Y-72825801D01*
X127498009Y-72825804D01*
X127491500Y-72886350D01*
X127491500Y-73883649D01*
X127498009Y-73944195D01*
X127498010Y-73944198D01*
X127509860Y-73975970D01*
X127514923Y-74046786D01*
X127509860Y-74064030D01*
X127498010Y-74095801D01*
X127498009Y-74095804D01*
X127491500Y-74156350D01*
X127491499Y-74156368D01*
X127491499Y-74294059D01*
X127471496Y-74362179D01*
X127417840Y-74408672D01*
X127347566Y-74418775D01*
X127282986Y-74389282D01*
X127244603Y-74329555D01*
X127243155Y-74324098D01*
X127243079Y-74323890D01*
X127243079Y-74323887D01*
X127216526Y-74250934D01*
X127192114Y-74177262D01*
X127192109Y-74177255D01*
X127189012Y-74170611D01*
X127189074Y-74170581D01*
X127185788Y-74163795D01*
X127185728Y-74163826D01*
X127182433Y-74157265D01*
X127139766Y-74092394D01*
X127136697Y-74087418D01*
X127099030Y-74026349D01*
X127099027Y-74026346D01*
X127094478Y-74020592D01*
X127094531Y-74020549D01*
X127089766Y-74014700D01*
X127089715Y-74014744D01*
X127084998Y-74009122D01*
X127028518Y-73955837D01*
X126839427Y-73766746D01*
X126581901Y-73509220D01*
X126569936Y-73495375D01*
X126569269Y-73494479D01*
X126555469Y-73475942D01*
X126555467Y-73475940D01*
X126515024Y-73442003D01*
X126510970Y-73438289D01*
X126505107Y-73432425D01*
X126503804Y-73431395D01*
X126479103Y-73411863D01*
X126419640Y-73361968D01*
X126419638Y-73361967D01*
X126419636Y-73361965D01*
X126413506Y-73357933D01*
X126413541Y-73357878D01*
X126407187Y-73353829D01*
X126407153Y-73353886D01*
X126400906Y-73350033D01*
X126330540Y-73317220D01*
X126261188Y-73282391D01*
X126261186Y-73282390D01*
X126261183Y-73282389D01*
X126254289Y-73279880D01*
X126254311Y-73279817D01*
X126247189Y-73277341D01*
X126247169Y-73277404D01*
X126240209Y-73275097D01*
X126164150Y-73259392D01*
X126088652Y-73241499D01*
X126081367Y-73240648D01*
X126081374Y-73240580D01*
X126073877Y-73239814D01*
X126073872Y-73239881D01*
X126066559Y-73239241D01*
X126066558Y-73239241D01*
X125988920Y-73241500D01*
X125659539Y-73241500D01*
X125591418Y-73221498D01*
X125552298Y-73181647D01*
X125549029Y-73176347D01*
X125549024Y-73176341D01*
X125423658Y-73050975D01*
X125423654Y-73050972D01*
X125423652Y-73050970D01*
X125405786Y-73039950D01*
X125358309Y-72987167D01*
X125346905Y-72917092D01*
X125375196Y-72851976D01*
X125405785Y-72825470D01*
X125448652Y-72799030D01*
X125574030Y-72673652D01*
X125667115Y-72522738D01*
X125722887Y-72354426D01*
X125733500Y-72250545D01*
X125733499Y-71649456D01*
X125722887Y-71545574D01*
X125667115Y-71377262D01*
X125574030Y-71226348D01*
X125574029Y-71226347D01*
X125574024Y-71226341D01*
X125448658Y-71100975D01*
X125448652Y-71100970D01*
X125448652Y-71100969D01*
X125297738Y-71007885D01*
X125213581Y-70979998D01*
X125129427Y-70952113D01*
X125129420Y-70952112D01*
X125025553Y-70941500D01*
X123974455Y-70941500D01*
X123870574Y-70952112D01*
X123702261Y-71007885D01*
X123551347Y-71100970D01*
X123551341Y-71100975D01*
X123425975Y-71226341D01*
X123425970Y-71226347D01*
X123332885Y-71377262D01*
X123277113Y-71545572D01*
X123277112Y-71545579D01*
X123266500Y-71649446D01*
X123266500Y-72250544D01*
X123277112Y-72354425D01*
X123332885Y-72522738D01*
X123425970Y-72673652D01*
X123425975Y-72673658D01*
X123551341Y-72799024D01*
X123551347Y-72799029D01*
X123551348Y-72799030D01*
X123594213Y-72825470D01*
X123641691Y-72878255D01*
X123653094Y-72948330D01*
X123624802Y-73013446D01*
X123594213Y-73039950D01*
X123576353Y-73050966D01*
X123576341Y-73050975D01*
X123450975Y-73176341D01*
X123450970Y-73176347D01*
X123357885Y-73327262D01*
X123302113Y-73495572D01*
X123302112Y-73495579D01*
X123291500Y-73599446D01*
X123291500Y-74400544D01*
X123302112Y-74504425D01*
X123335249Y-74604426D01*
X123357885Y-74672738D01*
X123450970Y-74823652D01*
X123538223Y-74910905D01*
X123572247Y-74973215D01*
X123567183Y-75044031D01*
X123538223Y-75089094D01*
X123450968Y-75176349D01*
X123449611Y-75178066D01*
X123448381Y-75178936D01*
X123445781Y-75181537D01*
X123445336Y-75181092D01*
X123391667Y-75219091D01*
X123320742Y-75222276D01*
X123261685Y-75189004D01*
X122795405Y-74722724D01*
X122761379Y-74660412D01*
X122758500Y-74633629D01*
X122758500Y-69866370D01*
X122778502Y-69798249D01*
X122795400Y-69777279D01*
X123990778Y-68581901D01*
X124004617Y-68569941D01*
X124024058Y-68555469D01*
X124058001Y-68515015D01*
X124061700Y-68510979D01*
X124067580Y-68505101D01*
X124088136Y-68479103D01*
X124096030Y-68469695D01*
X124138035Y-68419637D01*
X124142066Y-68413508D01*
X124142122Y-68413545D01*
X124146171Y-68407190D01*
X124146113Y-68407154D01*
X124149964Y-68400910D01*
X124149964Y-68400909D01*
X124149967Y-68400906D01*
X124182775Y-68330546D01*
X124217609Y-68261188D01*
X124217609Y-68261185D01*
X124220120Y-68254289D01*
X124220183Y-68254312D01*
X124222657Y-68247196D01*
X124222593Y-68247175D01*
X124224902Y-68240206D01*
X124240600Y-68164176D01*
X124246110Y-68140932D01*
X124258500Y-68088656D01*
X124258500Y-68088655D01*
X124259352Y-68081368D01*
X124259418Y-68081375D01*
X124260184Y-68073877D01*
X124260118Y-68073872D01*
X124260756Y-68066565D01*
X124260758Y-68066558D01*
X124258500Y-67988954D01*
X124258500Y-67621218D01*
X124278502Y-67553098D01*
X124318352Y-67513979D01*
X124423652Y-67449030D01*
X124549030Y-67323652D01*
X124642115Y-67172738D01*
X124697887Y-67004426D01*
X124708500Y-66900545D01*
X124708499Y-66099456D01*
X124704519Y-66060500D01*
X124697887Y-65995574D01*
X124674755Y-65925766D01*
X124642115Y-65827262D01*
X124549030Y-65676348D01*
X124508530Y-65635848D01*
X124461777Y-65589094D01*
X124427752Y-65526782D01*
X124432818Y-65455966D01*
X124461776Y-65410905D01*
X124549030Y-65323652D01*
X124642115Y-65172738D01*
X124697887Y-65004426D01*
X124708500Y-64900545D01*
X124708499Y-64099456D01*
X124704201Y-64057387D01*
X124697887Y-63995574D01*
X124678080Y-63935799D01*
X124642115Y-63827262D01*
X124549030Y-63676348D01*
X124549029Y-63676347D01*
X124549024Y-63676341D01*
X124423658Y-63550975D01*
X124423652Y-63550970D01*
X124407156Y-63540795D01*
X124318352Y-63486020D01*
X124270875Y-63433235D01*
X124258500Y-63378780D01*
X124258500Y-63064441D01*
X124259830Y-63046182D01*
X124261343Y-63035849D01*
X124263341Y-63022211D01*
X124259883Y-62982683D01*
X124258740Y-62969614D01*
X124258500Y-62964121D01*
X124258500Y-62955819D01*
X124254652Y-62922905D01*
X124253924Y-62914588D01*
X124247887Y-62845574D01*
X124247885Y-62845570D01*
X124246403Y-62838388D01*
X124246469Y-62838374D01*
X124244837Y-62831012D01*
X124244772Y-62831028D01*
X124243080Y-62823890D01*
X124236706Y-62806379D01*
X124216526Y-62750934D01*
X124192114Y-62677262D01*
X124192109Y-62677255D01*
X124189012Y-62670611D01*
X124189074Y-62670581D01*
X124185788Y-62663795D01*
X124185728Y-62663826D01*
X124182433Y-62657265D01*
X124139766Y-62592394D01*
X124124462Y-62567582D01*
X124099030Y-62526349D01*
X124099027Y-62526346D01*
X124094478Y-62520592D01*
X124094531Y-62520549D01*
X124089766Y-62514700D01*
X124089715Y-62514744D01*
X124084998Y-62509122D01*
X124028518Y-62455837D01*
X123555365Y-61982684D01*
X123081901Y-61509220D01*
X123069936Y-61495375D01*
X123055469Y-61475942D01*
X123047413Y-61469182D01*
X123015024Y-61442003D01*
X123010970Y-61438289D01*
X123005107Y-61432425D01*
X122996512Y-61425629D01*
X122979103Y-61411863D01*
X122919640Y-61361968D01*
X122919638Y-61361967D01*
X122919636Y-61361965D01*
X122913506Y-61357933D01*
X122913541Y-61357878D01*
X122907187Y-61353829D01*
X122907153Y-61353886D01*
X122900906Y-61350033D01*
X122830540Y-61317220D01*
X122815399Y-61309616D01*
X122761188Y-61282391D01*
X122761186Y-61282390D01*
X122761183Y-61282389D01*
X122754289Y-61279880D01*
X122754311Y-61279817D01*
X122747189Y-61277341D01*
X122747169Y-61277404D01*
X122740209Y-61275097D01*
X122664150Y-61259392D01*
X122588652Y-61241499D01*
X122581367Y-61240648D01*
X122581374Y-61240580D01*
X122573877Y-61239814D01*
X122573872Y-61239881D01*
X122566559Y-61239241D01*
X122566558Y-61239241D01*
X122488920Y-61241500D01*
X120866371Y-61241500D01*
X120798250Y-61221498D01*
X120777276Y-61204595D01*
X120444163Y-60871482D01*
X120103232Y-60530551D01*
X120100734Y-60527903D01*
X120067781Y-60490874D01*
X120057681Y-60479524D01*
X120057515Y-60479408D01*
X120048441Y-60473054D01*
X120031617Y-60458936D01*
X119528892Y-59956211D01*
X119494866Y-59893899D01*
X119499931Y-59823084D01*
X119542476Y-59766249D01*
X119574492Y-59742282D01*
X119641013Y-59717473D01*
X119710387Y-59732565D01*
X119725503Y-59742279D01*
X119801680Y-59799305D01*
X119803796Y-59800889D01*
X119940795Y-59851988D01*
X119940803Y-59851990D01*
X120001350Y-59858499D01*
X120001355Y-59858499D01*
X120001362Y-59858500D01*
X120001368Y-59858500D01*
X121598632Y-59858500D01*
X121598638Y-59858500D01*
X121598645Y-59858499D01*
X121598649Y-59858499D01*
X121659196Y-59851990D01*
X121659199Y-59851989D01*
X121659201Y-59851989D01*
X121796204Y-59800889D01*
X121853587Y-59757933D01*
X121913261Y-59713261D01*
X122000887Y-59596207D01*
X122000887Y-59596206D01*
X122000889Y-59596204D01*
X122051989Y-59459201D01*
X122058500Y-59398638D01*
X122058500Y-57301362D01*
X122056648Y-57284131D01*
X122051990Y-57240803D01*
X122051988Y-57240795D01*
X122022924Y-57162875D01*
X122000889Y-57103796D01*
X122000888Y-57103794D01*
X122000887Y-57103792D01*
X121913261Y-56986738D01*
X121796207Y-56899112D01*
X121796202Y-56899110D01*
X121659198Y-56848009D01*
X121655512Y-56847138D01*
X121652951Y-56845679D01*
X121651816Y-56845256D01*
X121651884Y-56845071D01*
X121593820Y-56812000D01*
X121560919Y-56749087D01*
X121558500Y-56724518D01*
X121558500Y-55864441D01*
X121559830Y-55846182D01*
X121562601Y-55827261D01*
X121563341Y-55822211D01*
X121559595Y-55779390D01*
X121558740Y-55769614D01*
X121558500Y-55764121D01*
X121558500Y-55755819D01*
X121554652Y-55722905D01*
X121553380Y-55708367D01*
X121547887Y-55645574D01*
X121547885Y-55645570D01*
X121546403Y-55638388D01*
X121546469Y-55638374D01*
X121544837Y-55631012D01*
X121544772Y-55631028D01*
X121543080Y-55623890D01*
X121534057Y-55599101D01*
X121516526Y-55550934D01*
X121492114Y-55477262D01*
X121492109Y-55477255D01*
X121489012Y-55470611D01*
X121489074Y-55470581D01*
X121485788Y-55463795D01*
X121485728Y-55463826D01*
X121482433Y-55457265D01*
X121439766Y-55392394D01*
X121399031Y-55326351D01*
X121399030Y-55326349D01*
X121399027Y-55326346D01*
X121394478Y-55320592D01*
X121394531Y-55320549D01*
X121389766Y-55314700D01*
X121389715Y-55314744D01*
X121384998Y-55309122D01*
X121328518Y-55255837D01*
X120973225Y-54900544D01*
X120581901Y-54509220D01*
X120569936Y-54495375D01*
X120561644Y-54484237D01*
X120555469Y-54475942D01*
X120550154Y-54471482D01*
X120515024Y-54442003D01*
X120510970Y-54438289D01*
X120505107Y-54432425D01*
X120492135Y-54422168D01*
X120479103Y-54411863D01*
X120419640Y-54361968D01*
X120419638Y-54361967D01*
X120419636Y-54361965D01*
X120413506Y-54357933D01*
X120413541Y-54357878D01*
X120407187Y-54353829D01*
X120407153Y-54353886D01*
X120400906Y-54350033D01*
X120330540Y-54317220D01*
X120324554Y-54314214D01*
X120261188Y-54282391D01*
X120261186Y-54282390D01*
X120261183Y-54282389D01*
X120254289Y-54279880D01*
X120254311Y-54279817D01*
X120247189Y-54277341D01*
X120247169Y-54277404D01*
X120240209Y-54275097D01*
X120164150Y-54259392D01*
X120088652Y-54241499D01*
X120081367Y-54240648D01*
X120081374Y-54240580D01*
X120073877Y-54239814D01*
X120073872Y-54239881D01*
X120066559Y-54239241D01*
X120066558Y-54239241D01*
X119988920Y-54241500D01*
X117884500Y-54241500D01*
X117816379Y-54221498D01*
X117769886Y-54167842D01*
X117758500Y-54115500D01*
X117758500Y-53064441D01*
X117759830Y-53046182D01*
X117760940Y-53038600D01*
X117763341Y-53022211D01*
X117760083Y-52984971D01*
X117758740Y-52969614D01*
X117758500Y-52964121D01*
X117758500Y-52955819D01*
X117755489Y-52930062D01*
X117754652Y-52922904D01*
X117747887Y-52845574D01*
X117747885Y-52845570D01*
X117746403Y-52838388D01*
X117746469Y-52838374D01*
X117744837Y-52831012D01*
X117744772Y-52831028D01*
X117743080Y-52823890D01*
X117729730Y-52787212D01*
X120341500Y-52787212D01*
X120351937Y-52889380D01*
X120406791Y-53054920D01*
X120498342Y-53203346D01*
X120498347Y-53203352D01*
X120621647Y-53326652D01*
X120621653Y-53326657D01*
X120621654Y-53326658D01*
X120770080Y-53418209D01*
X120935619Y-53473062D01*
X121037787Y-53483500D01*
X121712212Y-53483499D01*
X121814381Y-53473062D01*
X121979920Y-53418209D01*
X122128346Y-53326658D01*
X122143832Y-53311172D01*
X122159600Y-53295405D01*
X122221912Y-53261379D01*
X122248695Y-53258500D01*
X122378780Y-53258500D01*
X122446901Y-53278502D01*
X122486020Y-53318352D01*
X122511652Y-53359907D01*
X122550970Y-53423652D01*
X122550975Y-53423658D01*
X122676341Y-53549024D01*
X122676347Y-53549029D01*
X122676348Y-53549030D01*
X122827262Y-53642115D01*
X122995574Y-53697887D01*
X123099455Y-53708500D01*
X123900544Y-53708499D01*
X124004426Y-53697887D01*
X124172738Y-53642115D01*
X124323652Y-53549030D01*
X124323657Y-53549023D01*
X124410905Y-53461778D01*
X124473217Y-53427752D01*
X124544032Y-53432817D01*
X124589095Y-53461778D01*
X124676341Y-53549024D01*
X124676347Y-53549029D01*
X124676348Y-53549030D01*
X124827262Y-53642115D01*
X124995574Y-53697887D01*
X125099455Y-53708500D01*
X125900544Y-53708499D01*
X126004426Y-53697887D01*
X126172738Y-53642115D01*
X126323652Y-53549030D01*
X126449030Y-53423652D01*
X126479300Y-53374575D01*
X126532086Y-53327098D01*
X126602161Y-53315695D01*
X126623117Y-53320149D01*
X126630897Y-53322509D01*
X126630898Y-53322509D01*
X126630901Y-53322510D01*
X126630904Y-53322510D01*
X126630908Y-53322511D01*
X126828599Y-53341982D01*
X126828602Y-53341982D01*
X126828605Y-53341982D01*
X127026296Y-53322511D01*
X127026297Y-53322510D01*
X127026303Y-53322510D01*
X127216406Y-53264843D01*
X127391606Y-53171197D01*
X127545170Y-53045170D01*
X127671197Y-52891606D01*
X127764843Y-52716406D01*
X127822510Y-52526303D01*
X127823073Y-52520592D01*
X127841982Y-52328605D01*
X127841982Y-52328598D01*
X127822511Y-52130907D01*
X127822510Y-52130905D01*
X127822510Y-52130901D01*
X127764843Y-51940798D01*
X127671197Y-51765598D01*
X127545170Y-51612034D01*
X127391606Y-51486007D01*
X127216406Y-51392361D01*
X127026303Y-51334694D01*
X127026302Y-51334693D01*
X127026296Y-51334692D01*
X126828605Y-51315222D01*
X126828599Y-51315222D01*
X126630907Y-51334692D01*
X126440796Y-51392361D01*
X126440793Y-51392362D01*
X126391018Y-51418968D01*
X126321512Y-51433440D01*
X126265477Y-51415087D01*
X126172738Y-51357885D01*
X126050017Y-51317220D01*
X126004427Y-51302113D01*
X126004420Y-51302112D01*
X125900553Y-51291500D01*
X125099455Y-51291500D01*
X124995574Y-51302112D01*
X124827261Y-51357885D01*
X124676347Y-51450970D01*
X124676341Y-51450975D01*
X124589095Y-51538222D01*
X124526783Y-51572248D01*
X124455968Y-51567183D01*
X124410905Y-51538222D01*
X124323658Y-51450975D01*
X124323652Y-51450970D01*
X124283129Y-51425975D01*
X124172738Y-51357885D01*
X124050017Y-51317220D01*
X124004427Y-51302113D01*
X124004420Y-51302112D01*
X123900553Y-51291500D01*
X123099455Y-51291500D01*
X122995574Y-51302112D01*
X122827261Y-51357885D01*
X122676347Y-51450970D01*
X122676341Y-51450975D01*
X122550975Y-51576341D01*
X122550970Y-51576347D01*
X122510784Y-51641500D01*
X122487928Y-51678556D01*
X122486021Y-51681647D01*
X122433235Y-51729125D01*
X122378780Y-51741500D01*
X122248695Y-51741500D01*
X122180574Y-51721498D01*
X122159600Y-51704595D01*
X122128352Y-51673347D01*
X122128346Y-51673342D01*
X122128346Y-51673341D01*
X121979920Y-51581791D01*
X121814381Y-51526938D01*
X121814379Y-51526937D01*
X121814377Y-51526937D01*
X121712221Y-51516500D01*
X121037787Y-51516500D01*
X120935619Y-51526937D01*
X120770079Y-51581791D01*
X120621653Y-51673342D01*
X120621647Y-51673347D01*
X120498347Y-51796647D01*
X120498342Y-51796653D01*
X120406791Y-51945080D01*
X120351937Y-52110622D01*
X120341500Y-52212778D01*
X120341500Y-52787212D01*
X117729730Y-52787212D01*
X117725512Y-52775624D01*
X117716526Y-52750934D01*
X117692114Y-52677262D01*
X117692109Y-52677255D01*
X117689012Y-52670611D01*
X117689074Y-52670581D01*
X117685788Y-52663795D01*
X117685728Y-52663826D01*
X117682433Y-52657265D01*
X117639766Y-52592394D01*
X117599031Y-52526351D01*
X117599030Y-52526349D01*
X117599027Y-52526346D01*
X117594478Y-52520592D01*
X117594531Y-52520549D01*
X117589766Y-52514700D01*
X117589715Y-52514744D01*
X117584998Y-52509122D01*
X117528518Y-52455837D01*
X117311922Y-52239241D01*
X117081901Y-52009220D01*
X117069936Y-51995375D01*
X117055469Y-51975942D01*
X117053697Y-51974455D01*
X117015024Y-51942003D01*
X117010970Y-51938289D01*
X117005107Y-51932425D01*
X116979104Y-51911864D01*
X116919636Y-51861965D01*
X116913506Y-51857933D01*
X116913541Y-51857878D01*
X116907187Y-51853829D01*
X116907153Y-51853886D01*
X116900906Y-51850033D01*
X116830540Y-51817220D01*
X116761188Y-51782391D01*
X116761186Y-51782390D01*
X116761183Y-51782389D01*
X116754289Y-51779880D01*
X116754311Y-51779817D01*
X116747189Y-51777341D01*
X116747169Y-51777404D01*
X116740209Y-51775097D01*
X116664150Y-51759392D01*
X116588652Y-51741499D01*
X116581367Y-51740648D01*
X116581374Y-51740580D01*
X116573877Y-51739814D01*
X116573872Y-51739881D01*
X116566559Y-51739241D01*
X116566558Y-51739241D01*
X116488920Y-51741500D01*
X115986640Y-51741500D01*
X115918519Y-51721498D01*
X115879399Y-51681647D01*
X115877493Y-51678557D01*
X115799030Y-51551348D01*
X115799029Y-51551347D01*
X115799024Y-51551341D01*
X115673658Y-51425975D01*
X115673652Y-51425970D01*
X115645914Y-51408861D01*
X115522738Y-51332885D01*
X115438581Y-51304998D01*
X115354427Y-51277113D01*
X115354420Y-51277112D01*
X115250553Y-51266500D01*
X114649455Y-51266500D01*
X114545574Y-51277112D01*
X114377261Y-51332885D01*
X114226347Y-51425970D01*
X114226341Y-51425975D01*
X114100975Y-51551341D01*
X114100970Y-51551347D01*
X114007885Y-51702262D01*
X113952113Y-51870572D01*
X113952112Y-51870579D01*
X113941500Y-51974446D01*
X113941500Y-53025544D01*
X113952112Y-53129425D01*
X114007885Y-53297738D01*
X114100970Y-53448652D01*
X114100975Y-53448658D01*
X114226341Y-53574024D01*
X114226347Y-53574029D01*
X114226348Y-53574030D01*
X114377262Y-53667115D01*
X114545574Y-53722887D01*
X114649455Y-53733500D01*
X115250544Y-53733499D01*
X115354426Y-53722887D01*
X115522738Y-53667115D01*
X115673652Y-53574030D01*
X115799030Y-53448652D01*
X115879400Y-53318351D01*
X115932185Y-53270875D01*
X115986640Y-53258500D01*
X116115500Y-53258500D01*
X116183621Y-53278502D01*
X116230114Y-53332158D01*
X116241500Y-53384500D01*
X116241500Y-54115500D01*
X116221498Y-54183621D01*
X116167842Y-54230114D01*
X116115500Y-54241500D01*
X113564441Y-54241500D01*
X113546182Y-54240170D01*
X113522212Y-54236659D01*
X113522211Y-54236659D01*
X113515773Y-54237222D01*
X113469615Y-54241260D01*
X113464122Y-54241500D01*
X113455817Y-54241500D01*
X113422904Y-54245347D01*
X113345574Y-54252112D01*
X113338389Y-54253596D01*
X113338376Y-54253533D01*
X113331003Y-54255168D01*
X113331018Y-54255231D01*
X113323881Y-54256922D01*
X113273947Y-54275097D01*
X113250934Y-54283473D01*
X113232170Y-54289691D01*
X113177261Y-54307886D01*
X113170612Y-54310987D01*
X113170583Y-54310926D01*
X113163792Y-54314214D01*
X113163822Y-54314273D01*
X113157269Y-54317563D01*
X113092394Y-54360232D01*
X113026351Y-54400968D01*
X113020588Y-54405525D01*
X113020547Y-54405473D01*
X113014704Y-54410233D01*
X113014746Y-54410283D01*
X113009128Y-54414996D01*
X112955836Y-54471482D01*
X112009225Y-55418092D01*
X111995376Y-55430062D01*
X111975943Y-55444530D01*
X111942007Y-55484971D01*
X111938300Y-55489017D01*
X111932421Y-55494897D01*
X111932412Y-55494907D01*
X111911863Y-55520896D01*
X111865335Y-55576348D01*
X111861965Y-55580364D01*
X111857935Y-55586491D01*
X111857880Y-55586455D01*
X111853825Y-55592820D01*
X111853882Y-55592855D01*
X111850028Y-55599101D01*
X111817220Y-55669458D01*
X111782391Y-55738812D01*
X111779882Y-55745707D01*
X111779820Y-55745684D01*
X111777343Y-55752810D01*
X111777404Y-55752831D01*
X111775097Y-55759790D01*
X111759392Y-55835849D01*
X111754792Y-55855260D01*
X111742762Y-55906022D01*
X111741500Y-55911345D01*
X111740648Y-55918634D01*
X111740581Y-55918626D01*
X111739814Y-55926126D01*
X111739881Y-55926132D01*
X111739241Y-55933442D01*
X111741500Y-56011079D01*
X111741500Y-56615500D01*
X111721498Y-56683621D01*
X111667842Y-56730114D01*
X111615500Y-56741500D01*
X111551350Y-56741500D01*
X111490803Y-56748009D01*
X111490795Y-56748011D01*
X111353797Y-56799110D01*
X111353792Y-56799112D01*
X111236738Y-56886738D01*
X111149112Y-57003792D01*
X111149110Y-57003797D01*
X111098011Y-57140795D01*
X111098009Y-57140803D01*
X111091500Y-57201350D01*
X111091500Y-60798649D01*
X111098009Y-60859196D01*
X111098011Y-60859204D01*
X111149110Y-60996202D01*
X111149112Y-60996207D01*
X111236738Y-61113261D01*
X111353792Y-61200887D01*
X111353794Y-61200888D01*
X111353796Y-61200889D01*
X111398951Y-61217731D01*
X111490795Y-61251988D01*
X111490803Y-61251990D01*
X111551350Y-61258499D01*
X111551355Y-61258499D01*
X111551362Y-61258500D01*
X111551368Y-61258500D01*
X113448632Y-61258500D01*
X113448638Y-61258500D01*
X113448645Y-61258499D01*
X113448649Y-61258499D01*
X113509196Y-61251990D01*
X113509199Y-61251989D01*
X113509201Y-61251989D01*
X113513655Y-61250328D01*
X113543379Y-61239241D01*
X113646204Y-61200889D01*
X113676110Y-61178502D01*
X113763261Y-61113261D01*
X113850887Y-60996207D01*
X113850887Y-60996206D01*
X113850889Y-60996204D01*
X113901989Y-60859201D01*
X113903780Y-60842549D01*
X113908499Y-60798649D01*
X113908500Y-60798632D01*
X113908500Y-57201367D01*
X113908499Y-57201350D01*
X113901990Y-57140803D01*
X113901988Y-57140795D01*
X113851124Y-57004426D01*
X113850889Y-57003796D01*
X113850888Y-57003794D01*
X113850887Y-57003792D01*
X113763261Y-56886738D01*
X113646207Y-56799112D01*
X113646202Y-56799110D01*
X113509204Y-56748011D01*
X113509196Y-56748009D01*
X113448649Y-56741500D01*
X113448638Y-56741500D01*
X113384500Y-56741500D01*
X113316379Y-56721498D01*
X113269886Y-56667842D01*
X113258500Y-56615500D01*
X113258500Y-56366371D01*
X113278502Y-56298250D01*
X113295405Y-56277276D01*
X113777276Y-55795405D01*
X113839588Y-55761379D01*
X113866371Y-55758500D01*
X116289442Y-55758500D01*
X116357563Y-55778502D01*
X116369375Y-55787101D01*
X116436992Y-55842592D01*
X116436992Y-55842593D01*
X116467428Y-55858861D01*
X116612196Y-55936241D01*
X116802299Y-55993908D01*
X116802303Y-55993908D01*
X116802305Y-55993909D01*
X116999997Y-56013380D01*
X117000000Y-56013380D01*
X117000003Y-56013380D01*
X117197694Y-55993909D01*
X117197695Y-55993908D01*
X117197701Y-55993908D01*
X117387804Y-55936241D01*
X117563004Y-55842595D01*
X117563005Y-55842593D01*
X117563007Y-55842593D01*
X117563007Y-55842592D01*
X117593924Y-55817220D01*
X117630625Y-55787101D01*
X117695972Y-55759347D01*
X117710558Y-55758500D01*
X119633628Y-55758500D01*
X119701749Y-55778502D01*
X119722723Y-55795404D01*
X120004595Y-56077275D01*
X120038620Y-56139588D01*
X120041500Y-56166371D01*
X120041500Y-56724518D01*
X120021498Y-56792639D01*
X119967842Y-56839132D01*
X119944488Y-56847138D01*
X119940801Y-56848009D01*
X119803797Y-56899110D01*
X119803792Y-56899113D01*
X119725509Y-56957715D01*
X119658989Y-56982526D01*
X119589614Y-56967434D01*
X119574491Y-56957715D01*
X119496207Y-56899113D01*
X119496202Y-56899110D01*
X119359204Y-56848011D01*
X119359196Y-56848009D01*
X119298649Y-56841500D01*
X119298638Y-56841500D01*
X117701362Y-56841500D01*
X117701350Y-56841500D01*
X117640803Y-56848009D01*
X117640795Y-56848011D01*
X117503797Y-56899110D01*
X117503792Y-56899112D01*
X117386738Y-56986738D01*
X117299112Y-57103792D01*
X117299110Y-57103797D01*
X117248011Y-57240795D01*
X117248009Y-57240803D01*
X117241500Y-57301350D01*
X117241500Y-59398649D01*
X117248009Y-59459196D01*
X117248011Y-59459204D01*
X117299110Y-59596202D01*
X117299112Y-59596207D01*
X117386738Y-59713261D01*
X117503792Y-59800887D01*
X117503794Y-59800888D01*
X117503796Y-59800889D01*
X117564841Y-59823658D01*
X117648184Y-59854744D01*
X117647623Y-59856246D01*
X117701380Y-59886860D01*
X117734285Y-59949771D01*
X117736077Y-59971147D01*
X117741260Y-60030372D01*
X117741500Y-60035866D01*
X117741500Y-60044182D01*
X117745347Y-60077094D01*
X117752112Y-60154419D01*
X117753596Y-60161606D01*
X117753531Y-60161619D01*
X117755165Y-60168989D01*
X117755229Y-60168975D01*
X117756921Y-60176116D01*
X117783473Y-60249064D01*
X117807885Y-60322736D01*
X117810987Y-60329388D01*
X117810926Y-60329416D01*
X117814211Y-60336202D01*
X117814270Y-60336173D01*
X117817560Y-60342724D01*
X117817564Y-60342731D01*
X117817565Y-60342732D01*
X117855228Y-60399996D01*
X117860233Y-60407605D01*
X117900967Y-60473648D01*
X117905522Y-60479408D01*
X117905468Y-60479450D01*
X117910228Y-60485292D01*
X117910279Y-60485250D01*
X117914993Y-60490868D01*
X117914998Y-60490873D01*
X117914999Y-60490874D01*
X117971482Y-60544163D01*
X118388224Y-60960905D01*
X118422248Y-61023216D01*
X118417184Y-61094031D01*
X118388223Y-61139095D01*
X118009222Y-61518095D01*
X117995373Y-61530063D01*
X117975948Y-61544525D01*
X117975944Y-61544529D01*
X117942007Y-61584971D01*
X117938300Y-61589017D01*
X117932421Y-61594897D01*
X117932412Y-61594907D01*
X117911863Y-61620896D01*
X117875706Y-61663988D01*
X117861965Y-61680364D01*
X117857935Y-61686491D01*
X117857880Y-61686455D01*
X117853825Y-61692820D01*
X117853882Y-61692855D01*
X117850028Y-61699101D01*
X117817220Y-61769458D01*
X117782391Y-61838812D01*
X117779882Y-61845707D01*
X117779820Y-61845684D01*
X117777343Y-61852810D01*
X117777404Y-61852831D01*
X117775097Y-61859790D01*
X117759392Y-61935849D01*
X117741499Y-62011346D01*
X117740648Y-62018631D01*
X117740583Y-62018623D01*
X117739816Y-62026130D01*
X117739880Y-62026136D01*
X117739241Y-62033440D01*
X117739241Y-62033442D01*
X117741499Y-62111079D01*
X117741499Y-62624585D01*
X117741500Y-63015500D01*
X117721498Y-63083621D01*
X117667842Y-63130114D01*
X117615500Y-63141500D01*
X116551350Y-63141500D01*
X116490803Y-63148009D01*
X116490795Y-63148011D01*
X116353797Y-63199110D01*
X116353792Y-63199112D01*
X116236738Y-63286738D01*
X116149112Y-63403792D01*
X116149110Y-63403797D01*
X116098011Y-63540795D01*
X116098009Y-63540803D01*
X116091500Y-63601350D01*
X116091500Y-65698649D01*
X116098009Y-65759196D01*
X116098011Y-65759204D01*
X116149110Y-65896202D01*
X116149112Y-65896207D01*
X116236738Y-66013261D01*
X116353792Y-66100887D01*
X116353794Y-66100888D01*
X116353796Y-66100889D01*
X116407101Y-66120771D01*
X116490795Y-66151988D01*
X116490803Y-66151990D01*
X116551350Y-66158499D01*
X116551355Y-66158499D01*
X116551362Y-66158500D01*
X116551368Y-66158500D01*
X120448632Y-66158500D01*
X120448638Y-66158500D01*
X120448645Y-66158499D01*
X120448649Y-66158499D01*
X120509196Y-66151990D01*
X120509199Y-66151989D01*
X120509201Y-66151989D01*
X120646204Y-66100889D01*
X120648119Y-66099456D01*
X120763261Y-66013261D01*
X120850887Y-65896207D01*
X120850887Y-65896206D01*
X120850889Y-65896204D01*
X120901989Y-65759201D01*
X120903157Y-65748343D01*
X120908499Y-65698649D01*
X120908500Y-65698632D01*
X120908500Y-63601367D01*
X120908499Y-63601350D01*
X120901990Y-63540803D01*
X120901988Y-63540795D01*
X120850889Y-63403797D01*
X120850887Y-63403792D01*
X120763261Y-63286738D01*
X120646207Y-63199112D01*
X120646202Y-63199110D01*
X120509204Y-63148011D01*
X120509196Y-63148009D01*
X120448649Y-63141500D01*
X120448638Y-63141500D01*
X119384500Y-63141500D01*
X119316379Y-63121498D01*
X119269886Y-63067842D01*
X119258500Y-63015500D01*
X119258500Y-62750934D01*
X119258500Y-62466367D01*
X119278501Y-62398250D01*
X119295399Y-62377280D01*
X119460906Y-62211774D01*
X119523217Y-62177750D01*
X119594033Y-62182815D01*
X119639095Y-62211776D01*
X119918092Y-62490773D01*
X119930065Y-62504627D01*
X119941950Y-62520592D01*
X119944531Y-62524058D01*
X119968491Y-62544163D01*
X119984975Y-62557994D01*
X119989021Y-62561702D01*
X119994900Y-62567581D01*
X120020895Y-62588135D01*
X120080360Y-62638032D01*
X120080366Y-62638035D01*
X120086495Y-62642067D01*
X120086458Y-62642122D01*
X120092811Y-62646169D01*
X120092847Y-62646113D01*
X120099092Y-62649965D01*
X120099095Y-62649967D01*
X120169452Y-62682775D01*
X120238812Y-62717609D01*
X120238813Y-62717609D01*
X120238817Y-62717611D01*
X120245713Y-62720121D01*
X120245689Y-62720185D01*
X120252805Y-62722659D01*
X120252827Y-62722595D01*
X120259791Y-62724903D01*
X120335849Y-62740607D01*
X120369866Y-62748669D01*
X120411344Y-62758500D01*
X120411350Y-62758500D01*
X120418633Y-62759352D01*
X120418625Y-62759419D01*
X120426122Y-62760185D01*
X120426128Y-62760119D01*
X120433435Y-62760757D01*
X120433442Y-62760759D01*
X120511080Y-62758500D01*
X122133628Y-62758500D01*
X122201749Y-62778502D01*
X122222723Y-62795404D01*
X122704595Y-63277275D01*
X122738620Y-63339588D01*
X122741500Y-63366381D01*
X122741499Y-63378790D01*
X122721491Y-63446909D01*
X122681646Y-63486020D01*
X122576353Y-63550966D01*
X122576341Y-63550975D01*
X122450975Y-63676341D01*
X122450970Y-63676347D01*
X122357885Y-63827262D01*
X122302113Y-63995572D01*
X122302112Y-63995579D01*
X122291500Y-64099446D01*
X122291500Y-64900544D01*
X122302112Y-65004425D01*
X122357885Y-65172738D01*
X122450970Y-65323652D01*
X122450975Y-65323658D01*
X122538222Y-65410905D01*
X122572248Y-65473217D01*
X122567183Y-65544032D01*
X122538222Y-65589095D01*
X122450975Y-65676341D01*
X122450970Y-65676347D01*
X122357885Y-65827262D01*
X122302113Y-65995572D01*
X122302112Y-65995579D01*
X122291500Y-66099446D01*
X122291500Y-66900544D01*
X122302112Y-67004425D01*
X122357885Y-67172738D01*
X122450970Y-67323652D01*
X122450975Y-67323658D01*
X122576341Y-67449024D01*
X122576347Y-67449029D01*
X122576348Y-67449030D01*
X122681647Y-67513979D01*
X122729124Y-67566764D01*
X122741499Y-67621219D01*
X122741499Y-67633628D01*
X122721497Y-67701749D01*
X122704594Y-67722723D01*
X121509225Y-68918092D01*
X121495376Y-68930062D01*
X121475943Y-68944530D01*
X121442007Y-68984971D01*
X121438300Y-68989017D01*
X121432421Y-68994897D01*
X121432412Y-68994907D01*
X121415893Y-69015799D01*
X121411863Y-69020896D01*
X121365335Y-69076348D01*
X121361965Y-69080364D01*
X121357935Y-69086491D01*
X121357880Y-69086455D01*
X121353825Y-69092820D01*
X121353882Y-69092855D01*
X121350028Y-69099101D01*
X121317220Y-69169458D01*
X121282391Y-69238812D01*
X121279882Y-69245707D01*
X121279820Y-69245684D01*
X121277343Y-69252810D01*
X121277404Y-69252831D01*
X121275097Y-69259790D01*
X121259392Y-69335849D01*
X121241499Y-69411346D01*
X121240648Y-69418631D01*
X121240583Y-69418623D01*
X121239816Y-69426129D01*
X121239880Y-69426135D01*
X121239241Y-69433439D01*
X121241500Y-69511079D01*
X121241500Y-74935559D01*
X121240170Y-74953819D01*
X121239856Y-74955966D01*
X121236659Y-74977789D01*
X121240945Y-75026781D01*
X121241260Y-75030372D01*
X121241500Y-75035866D01*
X121241500Y-75044182D01*
X121245347Y-75077094D01*
X121252112Y-75154419D01*
X121253596Y-75161606D01*
X121253531Y-75161619D01*
X121255165Y-75168989D01*
X121255229Y-75168975D01*
X121256921Y-75176116D01*
X121276835Y-75230826D01*
X121283473Y-75249065D01*
X121288162Y-75263216D01*
X121307885Y-75322736D01*
X121310987Y-75329388D01*
X121310926Y-75329416D01*
X121314211Y-75336202D01*
X121314270Y-75336173D01*
X121317560Y-75342724D01*
X121360233Y-75407605D01*
X121400967Y-75473648D01*
X121405522Y-75479408D01*
X121405468Y-75479450D01*
X121410228Y-75485292D01*
X121410279Y-75485250D01*
X121414993Y-75490868D01*
X121414998Y-75490873D01*
X121414999Y-75490874D01*
X121471482Y-75544163D01*
X122418098Y-76490779D01*
X122430065Y-76504627D01*
X122444530Y-76524057D01*
X122484975Y-76557994D01*
X122489021Y-76561702D01*
X122494900Y-76567581D01*
X122520895Y-76588135D01*
X122580360Y-76638032D01*
X122580366Y-76638035D01*
X122586495Y-76642067D01*
X122586458Y-76642122D01*
X122592811Y-76646169D01*
X122592847Y-76646113D01*
X122599092Y-76649965D01*
X122599095Y-76649967D01*
X122669452Y-76682775D01*
X122738812Y-76717609D01*
X122738813Y-76717609D01*
X122738817Y-76717611D01*
X122745713Y-76720121D01*
X122745689Y-76720185D01*
X122752805Y-76722659D01*
X122752827Y-76722595D01*
X122759791Y-76724903D01*
X122835849Y-76740607D01*
X122866561Y-76747886D01*
X122911344Y-76758500D01*
X122911350Y-76758500D01*
X122918633Y-76759352D01*
X122918625Y-76759419D01*
X122926122Y-76760185D01*
X122926128Y-76760119D01*
X122933435Y-76760757D01*
X122933442Y-76760759D01*
X123011080Y-76758500D01*
X123340461Y-76758500D01*
X123408582Y-76778502D01*
X123447702Y-76818353D01*
X123450970Y-76823652D01*
X123450975Y-76823658D01*
X123560162Y-76932845D01*
X123594188Y-76995157D01*
X123589123Y-77065972D01*
X123578308Y-77088086D01*
X123507887Y-77202258D01*
X123507885Y-77202262D01*
X123505818Y-77208500D01*
X123452113Y-77370572D01*
X123452112Y-77370579D01*
X123441500Y-77474446D01*
X123441500Y-78525544D01*
X123452112Y-78629425D01*
X123494883Y-78758500D01*
X123507885Y-78797738D01*
X123589402Y-78929898D01*
X123591842Y-78933853D01*
X123610579Y-79002333D01*
X123591842Y-79066146D01*
X123545997Y-79140473D01*
X123507885Y-79202262D01*
X123452113Y-79370572D01*
X123452112Y-79370579D01*
X123441500Y-79474446D01*
X123441500Y-80525544D01*
X123452112Y-80629425D01*
X123507885Y-80797738D01*
X123600970Y-80948652D01*
X123600975Y-80948658D01*
X123726341Y-81074024D01*
X123726347Y-81074029D01*
X123726348Y-81074030D01*
X123877262Y-81167115D01*
X124045574Y-81222887D01*
X124149455Y-81233500D01*
X124750544Y-81233499D01*
X124854426Y-81222887D01*
X125022738Y-81167115D01*
X125173652Y-81074030D01*
X125299030Y-80948652D01*
X125379400Y-80818351D01*
X125432185Y-80770875D01*
X125486640Y-80758500D01*
X126435559Y-80758500D01*
X126453819Y-80759830D01*
X126458715Y-80760547D01*
X126477789Y-80763341D01*
X126511146Y-80760422D01*
X126530385Y-80758740D01*
X126535878Y-80758500D01*
X126544176Y-80758500D01*
X126544180Y-80758500D01*
X126570512Y-80755421D01*
X126577096Y-80754652D01*
X126583861Y-80754060D01*
X126654426Y-80747887D01*
X126654432Y-80747884D01*
X126661618Y-80746402D01*
X126661631Y-80746468D01*
X126668987Y-80744836D01*
X126668972Y-80744771D01*
X126676104Y-80743079D01*
X126676113Y-80743079D01*
X126749065Y-80716526D01*
X126822738Y-80692114D01*
X126822740Y-80692112D01*
X126829389Y-80689012D01*
X126829418Y-80689074D01*
X126836203Y-80685789D01*
X126836173Y-80685729D01*
X126842728Y-80682436D01*
X126842732Y-80682435D01*
X126907605Y-80639766D01*
X126973651Y-80599030D01*
X126973660Y-80599020D01*
X126979408Y-80594477D01*
X126979450Y-80594531D01*
X126985289Y-80589775D01*
X126985246Y-80589723D01*
X126990865Y-80585006D01*
X126990874Y-80585001D01*
X127039900Y-80533034D01*
X127101198Y-80497211D01*
X127131551Y-80493500D01*
X127532674Y-80493500D01*
X127600795Y-80513502D01*
X127633540Y-80543989D01*
X127636737Y-80548260D01*
X127753792Y-80635887D01*
X127753794Y-80635888D01*
X127753796Y-80635889D01*
X127764191Y-80639766D01*
X127890795Y-80686988D01*
X127890803Y-80686990D01*
X127951350Y-80693499D01*
X127951355Y-80693499D01*
X127951362Y-80693500D01*
X127951368Y-80693500D01*
X129548632Y-80693500D01*
X129548638Y-80693500D01*
X129548645Y-80693499D01*
X129548649Y-80693499D01*
X129609196Y-80686990D01*
X129609199Y-80686989D01*
X129609201Y-80686989D01*
X129612419Y-80685789D01*
X129628045Y-80679960D01*
X129746204Y-80635889D01*
X129755164Y-80629182D01*
X129863261Y-80548261D01*
X129950887Y-80431207D01*
X129950887Y-80431206D01*
X129950889Y-80431204D01*
X130001989Y-80294201D01*
X130002438Y-80290033D01*
X130008499Y-80233649D01*
X130008500Y-80233632D01*
X130008500Y-79236367D01*
X130008499Y-79236350D01*
X130001990Y-79175803D01*
X130001989Y-79175802D01*
X130001989Y-79175801D01*
X130001989Y-79175799D01*
X129990139Y-79144030D01*
X129985075Y-79073216D01*
X129990137Y-79055974D01*
X130001989Y-79024201D01*
X130002363Y-79020730D01*
X130008499Y-78963649D01*
X130008500Y-78963632D01*
X130008500Y-77966367D01*
X130008499Y-77966350D01*
X130001990Y-77905803D01*
X130001989Y-77905802D01*
X130001989Y-77905799D01*
X129990139Y-77874030D01*
X129985075Y-77803216D01*
X129990137Y-77785974D01*
X130001989Y-77754201D01*
X130007339Y-77704443D01*
X130008499Y-77693649D01*
X130008500Y-77693632D01*
X130008500Y-76696367D01*
X130008499Y-76696350D01*
X130001990Y-76635804D01*
X130001989Y-76635800D01*
X129990140Y-76604031D01*
X129985076Y-76533215D01*
X129990139Y-76515970D01*
X130001989Y-76484201D01*
X130008500Y-76423638D01*
X130008500Y-75426362D01*
X130008499Y-75426350D01*
X130001990Y-75365803D01*
X130001989Y-75365802D01*
X130001989Y-75365801D01*
X130001989Y-75365799D01*
X129990139Y-75334030D01*
X129985075Y-75263216D01*
X129990137Y-75245974D01*
X130001989Y-75214201D01*
X130004662Y-75189345D01*
X130008499Y-75153649D01*
X130008500Y-75153632D01*
X130008500Y-74156367D01*
X130008499Y-74156350D01*
X130001990Y-74095803D01*
X130001989Y-74095802D01*
X130001989Y-74095801D01*
X130001989Y-74095799D01*
X129990139Y-74064030D01*
X129985075Y-73993216D01*
X129990137Y-73975974D01*
X130001989Y-73944201D01*
X130002722Y-73937391D01*
X130008499Y-73883649D01*
X130008500Y-73883632D01*
X130008500Y-72899902D01*
X130028502Y-72831781D01*
X130082158Y-72785288D01*
X130130546Y-72773964D01*
X130143396Y-72773561D01*
X130145346Y-72773500D01*
X130176425Y-72773500D01*
X130176432Y-72773500D01*
X130183779Y-72772571D01*
X130189682Y-72772106D01*
X130238831Y-72770562D01*
X130259421Y-72764579D01*
X130278776Y-72760571D01*
X130300064Y-72757882D01*
X130345796Y-72739775D01*
X130351380Y-72737863D01*
X130398600Y-72724145D01*
X130417050Y-72713232D01*
X130434813Y-72704530D01*
X130454756Y-72696635D01*
X130494537Y-72667730D01*
X130499487Y-72664480D01*
X130509175Y-72658750D01*
X130541807Y-72639453D01*
X130556977Y-72624281D01*
X130572005Y-72611447D01*
X130589357Y-72598841D01*
X130620702Y-72560950D01*
X130624670Y-72556588D01*
X134485854Y-68695405D01*
X134548167Y-68661379D01*
X134574950Y-68658500D01*
X143413389Y-68658500D01*
X143429620Y-68660291D01*
X143429644Y-68660042D01*
X143437536Y-68660788D01*
X143437536Y-68660787D01*
X143437537Y-68660788D01*
X143510342Y-68658500D01*
X143541432Y-68658500D01*
X143548779Y-68657571D01*
X143554682Y-68657106D01*
X143603831Y-68655562D01*
X143624421Y-68649579D01*
X143643776Y-68645571D01*
X143665064Y-68642882D01*
X143710796Y-68624775D01*
X143716380Y-68622863D01*
X143763600Y-68609145D01*
X143782050Y-68598232D01*
X143799813Y-68589530D01*
X143819756Y-68581635D01*
X143859537Y-68552730D01*
X143864487Y-68549480D01*
X143874175Y-68543750D01*
X143906807Y-68524453D01*
X143921977Y-68509281D01*
X143937005Y-68496447D01*
X143954357Y-68483841D01*
X143985702Y-68445950D01*
X143989670Y-68441588D01*
X144783111Y-67648147D01*
X144845421Y-67614123D01*
X144916236Y-67619188D01*
X144973072Y-67661735D01*
X144997883Y-67728255D01*
X144997482Y-67750711D01*
X144991501Y-67806347D01*
X144991500Y-67806367D01*
X144991500Y-68803649D01*
X144998009Y-68864195D01*
X144998010Y-68864198D01*
X145009860Y-68895970D01*
X145014923Y-68966786D01*
X145009860Y-68984030D01*
X144998010Y-69015801D01*
X144998009Y-69015804D01*
X144991500Y-69076350D01*
X144991500Y-70073649D01*
X144998009Y-70134195D01*
X144998010Y-70134198D01*
X145009860Y-70165970D01*
X145014923Y-70236786D01*
X145009860Y-70254029D01*
X144998010Y-70285802D01*
X144991500Y-70346350D01*
X144991500Y-71343649D01*
X144998009Y-71404195D01*
X144998010Y-71404198D01*
X145009860Y-71435970D01*
X145014923Y-71506786D01*
X145009860Y-71524030D01*
X144998010Y-71555801D01*
X144998009Y-71555804D01*
X144991500Y-71616350D01*
X144991500Y-72613649D01*
X144998009Y-72674195D01*
X144998010Y-72674198D01*
X144998010Y-72674200D01*
X144998011Y-72674201D01*
X145004692Y-72692114D01*
X145009860Y-72705970D01*
X145014923Y-72776786D01*
X145009860Y-72794030D01*
X144998010Y-72825801D01*
X144998009Y-72825804D01*
X144991500Y-72886350D01*
X144991500Y-73883649D01*
X144998009Y-73944195D01*
X144998010Y-73944198D01*
X145009860Y-73975970D01*
X145014923Y-74046786D01*
X145009860Y-74064029D01*
X144998220Y-74095240D01*
X144998010Y-74095802D01*
X144991500Y-74156350D01*
X144991500Y-75153649D01*
X144998009Y-75214195D01*
X144998010Y-75214198D01*
X145009860Y-75245970D01*
X145014923Y-75316786D01*
X145009860Y-75334030D01*
X144998010Y-75365801D01*
X144998009Y-75365804D01*
X144991500Y-75426350D01*
X144991500Y-76423649D01*
X144998009Y-76484195D01*
X144998010Y-76484198D01*
X145009860Y-76515970D01*
X145014923Y-76586786D01*
X145009860Y-76604030D01*
X144998010Y-76635801D01*
X144998009Y-76635804D01*
X144991500Y-76696350D01*
X144991500Y-77693649D01*
X144998009Y-77754195D01*
X144998010Y-77754198D01*
X145009860Y-77785970D01*
X145014923Y-77856786D01*
X145009860Y-77874029D01*
X144998010Y-77905802D01*
X144991500Y-77966350D01*
X144991500Y-78963649D01*
X144998009Y-79024195D01*
X144998010Y-79024198D01*
X145009860Y-79055970D01*
X145014923Y-79126786D01*
X145009860Y-79144030D01*
X144998010Y-79175801D01*
X144998009Y-79175804D01*
X144991500Y-79236350D01*
X144991500Y-80233649D01*
X144998009Y-80294196D01*
X144998011Y-80294204D01*
X145049110Y-80431202D01*
X145049112Y-80431207D01*
X145136738Y-80548261D01*
X145253792Y-80635887D01*
X145253794Y-80635888D01*
X145253796Y-80635889D01*
X145264191Y-80639766D01*
X145390795Y-80686988D01*
X145390803Y-80686990D01*
X145451350Y-80693499D01*
X145451355Y-80693499D01*
X145451362Y-80693500D01*
X145451368Y-80693500D01*
X147048632Y-80693500D01*
X147048638Y-80693500D01*
X147048645Y-80693499D01*
X147048649Y-80693499D01*
X147109196Y-80686990D01*
X147109199Y-80686989D01*
X147109201Y-80686989D01*
X147112419Y-80685789D01*
X147128045Y-80679960D01*
X147246204Y-80635889D01*
X147255164Y-80629182D01*
X147363261Y-80548261D01*
X147450887Y-80431207D01*
X147450889Y-80431203D01*
X147450890Y-80431202D01*
X147497445Y-80306385D01*
X147539992Y-80249549D01*
X147606512Y-80224739D01*
X147675886Y-80239831D01*
X147726088Y-80290033D01*
X147741500Y-80350418D01*
X147741500Y-80935559D01*
X147740170Y-80953819D01*
X147736659Y-80977786D01*
X147736659Y-80977794D01*
X147741260Y-81030372D01*
X147741500Y-81035866D01*
X147741500Y-81044182D01*
X147745347Y-81077094D01*
X147752112Y-81154419D01*
X147753596Y-81161606D01*
X147753531Y-81161619D01*
X147755165Y-81168989D01*
X147755229Y-81168975D01*
X147756921Y-81176116D01*
X147783473Y-81249064D01*
X147807885Y-81322736D01*
X147810987Y-81329388D01*
X147810926Y-81329416D01*
X147814211Y-81336202D01*
X147814270Y-81336173D01*
X147817560Y-81342724D01*
X147860233Y-81407605D01*
X147900967Y-81473648D01*
X147905522Y-81479408D01*
X147905468Y-81479450D01*
X147910228Y-81485292D01*
X147910279Y-81485250D01*
X147914993Y-81490868D01*
X147914998Y-81490873D01*
X147914999Y-81490874D01*
X147971482Y-81544163D01*
X148712225Y-82284906D01*
X148746249Y-82347217D01*
X148741185Y-82418032D01*
X148698638Y-82474868D01*
X148632118Y-82499679D01*
X148623129Y-82500000D01*
X123500000Y-82500000D01*
X123500000Y-89033500D01*
X123479998Y-89101621D01*
X123426342Y-89148114D01*
X123374000Y-89159500D01*
X121625070Y-89159500D01*
X121556949Y-89139498D01*
X121510456Y-89085842D01*
X121499078Y-89034932D01*
X121494066Y-88593909D01*
X121430500Y-82999983D01*
X121430500Y-78999901D01*
X121430500Y-78739676D01*
X121409996Y-78439927D01*
X121407183Y-78361145D01*
X121403815Y-78349555D01*
X121394970Y-78220241D01*
X121350086Y-77893687D01*
X121343171Y-77829372D01*
X121340093Y-77820987D01*
X121324075Y-77704443D01*
X121321828Y-77693632D01*
X121250262Y-77349235D01*
X121241993Y-77303405D01*
X121239651Y-77298172D01*
X121218146Y-77194684D01*
X121109775Y-76807905D01*
X121104131Y-76785794D01*
X121102969Y-76783615D01*
X121077676Y-76693343D01*
X120903322Y-76202757D01*
X120695895Y-75725212D01*
X120537560Y-75419640D01*
X120456366Y-75262942D01*
X120446045Y-75245970D01*
X120185843Y-74818085D01*
X120183087Y-74814181D01*
X120074545Y-74660412D01*
X119885595Y-74392731D01*
X119644026Y-74095803D01*
X119557022Y-73988860D01*
X119201650Y-73608350D01*
X118821140Y-73252978D01*
X118620159Y-73089468D01*
X118417269Y-72924405D01*
X118110950Y-72708181D01*
X117991914Y-72624156D01*
X117547063Y-72353637D01*
X117547062Y-72353636D01*
X117547058Y-72353634D01*
X117233584Y-72191205D01*
X117084788Y-72114105D01*
X116607243Y-71906678D01*
X116116657Y-71732324D01*
X116083815Y-71723122D01*
X116026382Y-71707029D01*
X116024743Y-71706004D01*
X116002046Y-71700211D01*
X115730856Y-71624227D01*
X115615316Y-71591854D01*
X115615314Y-71591853D01*
X115511825Y-71570347D01*
X115507871Y-71568235D01*
X115460713Y-71559727D01*
X115365150Y-71539869D01*
X115105557Y-71485925D01*
X115022753Y-71474543D01*
X114989013Y-71469906D01*
X114982639Y-71467043D01*
X114916244Y-71459904D01*
X114783557Y-71441667D01*
X114589759Y-71415030D01*
X114460432Y-71406183D01*
X114451578Y-71402912D01*
X114370023Y-71399999D01*
X114085543Y-71380541D01*
X114070324Y-71379500D01*
X114070323Y-71379500D01*
X110126500Y-71379500D01*
X110058379Y-71359498D01*
X110011886Y-71305842D01*
X110000500Y-71253500D01*
X110000500Y-65798649D01*
X111091500Y-65798649D01*
X111098009Y-65859196D01*
X111098011Y-65859204D01*
X111149110Y-65996202D01*
X111149112Y-65996207D01*
X111236738Y-66113261D01*
X111353792Y-66200887D01*
X111353794Y-66200888D01*
X111353796Y-66200889D01*
X111411857Y-66222545D01*
X111490795Y-66251988D01*
X111490803Y-66251990D01*
X111551350Y-66258499D01*
X111551355Y-66258499D01*
X111551362Y-66258500D01*
X111615500Y-66258500D01*
X111683621Y-66278502D01*
X111730114Y-66332158D01*
X111741500Y-66384500D01*
X111741500Y-67015500D01*
X111721498Y-67083621D01*
X111667842Y-67130114D01*
X111615500Y-67141500D01*
X111601350Y-67141500D01*
X111540803Y-67148009D01*
X111540795Y-67148011D01*
X111403797Y-67199110D01*
X111403792Y-67199112D01*
X111286738Y-67286738D01*
X111199112Y-67403792D01*
X111199110Y-67403797D01*
X111148011Y-67540795D01*
X111148009Y-67540803D01*
X111141500Y-67601350D01*
X111141500Y-69398649D01*
X111148009Y-69459196D01*
X111148011Y-69459204D01*
X111199110Y-69596202D01*
X111199112Y-69596207D01*
X111286738Y-69713261D01*
X111403792Y-69800887D01*
X111403794Y-69800888D01*
X111403796Y-69800889D01*
X111439433Y-69814181D01*
X111540795Y-69851988D01*
X111540803Y-69851990D01*
X111601350Y-69858499D01*
X111601355Y-69858499D01*
X111601362Y-69858500D01*
X111601368Y-69858500D01*
X113398632Y-69858500D01*
X113398638Y-69858500D01*
X113398645Y-69858499D01*
X113398649Y-69858499D01*
X113459196Y-69851990D01*
X113459199Y-69851989D01*
X113459201Y-69851989D01*
X113596204Y-69800889D01*
X113713261Y-69713261D01*
X113800889Y-69596204D01*
X113851989Y-69459201D01*
X113854759Y-69433442D01*
X113858499Y-69398649D01*
X113858500Y-69398632D01*
X113858500Y-67601367D01*
X113858499Y-67601350D01*
X113851990Y-67540803D01*
X113851988Y-67540795D01*
X113817761Y-67449031D01*
X113800889Y-67403796D01*
X113800888Y-67403794D01*
X113800887Y-67403792D01*
X113713261Y-67286738D01*
X113596207Y-67199112D01*
X113596202Y-67199110D01*
X113459204Y-67148011D01*
X113459196Y-67148009D01*
X113398649Y-67141500D01*
X113398638Y-67141500D01*
X113384500Y-67141500D01*
X113316379Y-67121498D01*
X113269886Y-67067842D01*
X113258500Y-67015500D01*
X113258500Y-66384500D01*
X113278502Y-66316379D01*
X113332158Y-66269886D01*
X113384500Y-66258500D01*
X113448632Y-66258500D01*
X113448638Y-66258500D01*
X113448645Y-66258499D01*
X113448649Y-66258499D01*
X113509196Y-66251990D01*
X113509199Y-66251989D01*
X113509201Y-66251989D01*
X113646204Y-66200889D01*
X113654674Y-66194549D01*
X113763261Y-66113261D01*
X113850887Y-65996207D01*
X113850887Y-65996206D01*
X113850889Y-65996204D01*
X113901989Y-65859201D01*
X113902065Y-65858500D01*
X113908499Y-65798649D01*
X113908500Y-65798632D01*
X113908500Y-62201367D01*
X113908499Y-62201350D01*
X113901990Y-62140803D01*
X113901988Y-62140795D01*
X113865952Y-62044182D01*
X113850889Y-62003796D01*
X113850888Y-62003794D01*
X113850887Y-62003792D01*
X113763261Y-61886738D01*
X113646207Y-61799112D01*
X113646202Y-61799110D01*
X113509204Y-61748011D01*
X113509196Y-61748009D01*
X113448649Y-61741500D01*
X113448638Y-61741500D01*
X111551362Y-61741500D01*
X111551350Y-61741500D01*
X111490803Y-61748009D01*
X111490795Y-61748011D01*
X111353797Y-61799110D01*
X111353792Y-61799112D01*
X111236738Y-61886738D01*
X111149112Y-62003792D01*
X111149110Y-62003797D01*
X111098011Y-62140795D01*
X111098009Y-62140803D01*
X111091500Y-62201350D01*
X111091500Y-65798649D01*
X110000500Y-65798649D01*
X110000500Y-51126500D01*
X110020502Y-51058379D01*
X110074158Y-51011886D01*
X110126500Y-51000500D01*
X136873500Y-51000500D01*
X136941621Y-51020502D01*
G37*
G04 #@! TD.AperFunction*
G04 #@! TA.AperFunction,Conductor*
G36*
X159496481Y-79602373D02*
G01*
X159527693Y-79666141D01*
X159529500Y-79687405D01*
X159529500Y-89033500D01*
X159509498Y-89101621D01*
X159455842Y-89148114D01*
X159403500Y-89159500D01*
X151626000Y-89159500D01*
X151557879Y-89139498D01*
X151511386Y-89085842D01*
X151500000Y-89033500D01*
X151500000Y-82884500D01*
X151520002Y-82816379D01*
X151573658Y-82769886D01*
X151626000Y-82758500D01*
X151633629Y-82758500D01*
X151701750Y-82778502D01*
X151722724Y-82795405D01*
X152164595Y-83237276D01*
X152198621Y-83299588D01*
X152201500Y-83326371D01*
X152201500Y-86889442D01*
X152181498Y-86957563D01*
X152172899Y-86969375D01*
X152117407Y-87036992D01*
X152117406Y-87036992D01*
X152023759Y-87212195D01*
X151966090Y-87402305D01*
X151946620Y-87599996D01*
X151946620Y-87600003D01*
X151966090Y-87797694D01*
X151966091Y-87797700D01*
X151966092Y-87797701D01*
X152023759Y-87987804D01*
X152117405Y-88163004D01*
X152243432Y-88316568D01*
X152396996Y-88442595D01*
X152572196Y-88536241D01*
X152762299Y-88593908D01*
X152762303Y-88593908D01*
X152762305Y-88593909D01*
X152959997Y-88613380D01*
X152960000Y-88613380D01*
X152960003Y-88613380D01*
X153157694Y-88593909D01*
X153157695Y-88593908D01*
X153157701Y-88593908D01*
X153347804Y-88536241D01*
X153523004Y-88442595D01*
X153523017Y-88442584D01*
X153524993Y-88441265D01*
X153526198Y-88440887D01*
X153528463Y-88439677D01*
X153528692Y-88440106D01*
X153592744Y-88420047D01*
X153661212Y-88438827D01*
X153665007Y-88441265D01*
X153666987Y-88442587D01*
X153666996Y-88442595D01*
X153842196Y-88536241D01*
X154032299Y-88593908D01*
X154032303Y-88593908D01*
X154032305Y-88593909D01*
X154229997Y-88613380D01*
X154230000Y-88613380D01*
X154230003Y-88613380D01*
X154427694Y-88593909D01*
X154427695Y-88593908D01*
X154427701Y-88593908D01*
X154617804Y-88536241D01*
X154793004Y-88442595D01*
X154946568Y-88316568D01*
X155072595Y-88163004D01*
X155166241Y-87987804D01*
X155223908Y-87797701D01*
X155243380Y-87600000D01*
X155223908Y-87402299D01*
X155166241Y-87212196D01*
X155072595Y-87036996D01*
X155072593Y-87036992D01*
X155017101Y-86969375D01*
X154989347Y-86904028D01*
X154988500Y-86889442D01*
X154988500Y-83407723D01*
X154989831Y-83389460D01*
X154993340Y-83365504D01*
X154993341Y-83365499D01*
X154989918Y-83326371D01*
X154988740Y-83312902D01*
X154988500Y-83307409D01*
X154988500Y-83299107D01*
X154984652Y-83266193D01*
X154982122Y-83237276D01*
X154977887Y-83188862D01*
X154977885Y-83188858D01*
X154976403Y-83181676D01*
X154976469Y-83181662D01*
X154974837Y-83174300D01*
X154974772Y-83174316D01*
X154973080Y-83167178D01*
X154946526Y-83094222D01*
X154946525Y-83094221D01*
X154922114Y-83020550D01*
X154922109Y-83020543D01*
X154919012Y-83013899D01*
X154919074Y-83013869D01*
X154915788Y-83007083D01*
X154915728Y-83007114D01*
X154912433Y-83000553D01*
X154869766Y-82935682D01*
X154829031Y-82869639D01*
X154829030Y-82869637D01*
X154829027Y-82869634D01*
X154824478Y-82863880D01*
X154824531Y-82863837D01*
X154819766Y-82857988D01*
X154819715Y-82858032D01*
X154814998Y-82852410D01*
X154758518Y-82799125D01*
X153382987Y-81423594D01*
X153348962Y-81361282D01*
X153354026Y-81290467D01*
X153396573Y-81233631D01*
X153463093Y-81208820D01*
X153472082Y-81208499D01*
X153900544Y-81208499D01*
X154004426Y-81197887D01*
X154172738Y-81142115D01*
X154323652Y-81049030D01*
X154342310Y-81030372D01*
X154410905Y-80961778D01*
X154473217Y-80927752D01*
X154544032Y-80932817D01*
X154589095Y-80961778D01*
X154676341Y-81049024D01*
X154676347Y-81049029D01*
X154676348Y-81049030D01*
X154827262Y-81142115D01*
X154995574Y-81197887D01*
X155099455Y-81208500D01*
X155900544Y-81208499D01*
X156004426Y-81197887D01*
X156172738Y-81142115D01*
X156323652Y-81049030D01*
X156449030Y-80923652D01*
X156513979Y-80818352D01*
X156566765Y-80770875D01*
X156621220Y-80758500D01*
X157435559Y-80758500D01*
X157453819Y-80759830D01*
X157458715Y-80760547D01*
X157477789Y-80763341D01*
X157511146Y-80760422D01*
X157530385Y-80758740D01*
X157535878Y-80758500D01*
X157544176Y-80758500D01*
X157544180Y-80758500D01*
X157570512Y-80755421D01*
X157577096Y-80754652D01*
X157583861Y-80754060D01*
X157654426Y-80747887D01*
X157654432Y-80747884D01*
X157661618Y-80746402D01*
X157661631Y-80746468D01*
X157668987Y-80744836D01*
X157668972Y-80744771D01*
X157676104Y-80743079D01*
X157676113Y-80743079D01*
X157749065Y-80716526D01*
X157822738Y-80692114D01*
X157822740Y-80692112D01*
X157829389Y-80689012D01*
X157829418Y-80689074D01*
X157836203Y-80685789D01*
X157836173Y-80685729D01*
X157842728Y-80682436D01*
X157842732Y-80682435D01*
X157907605Y-80639766D01*
X157973651Y-80599030D01*
X157973660Y-80599020D01*
X157979408Y-80594477D01*
X157979450Y-80594531D01*
X157985289Y-80589775D01*
X157985246Y-80589723D01*
X157990865Y-80585006D01*
X157990874Y-80585001D01*
X158044163Y-80528517D01*
X158533902Y-80038777D01*
X158596211Y-80004755D01*
X158610642Y-80002482D01*
X158638598Y-79999729D01*
X158697694Y-79993909D01*
X158697695Y-79993908D01*
X158697701Y-79993908D01*
X158887804Y-79936241D01*
X159063004Y-79842595D01*
X159216568Y-79716568D01*
X159306102Y-79607470D01*
X159364777Y-79567503D01*
X159435749Y-79565602D01*
X159496481Y-79602373D01*
G37*
G04 #@! TD.AperFunction*
G04 #@! TA.AperFunction,Conductor*
G36*
X150094012Y-78167147D02*
G01*
X150100595Y-78173276D01*
X150418092Y-78490773D01*
X150430065Y-78504627D01*
X150444531Y-78524058D01*
X150468491Y-78544163D01*
X150484975Y-78557994D01*
X150489021Y-78561702D01*
X150494899Y-78567580D01*
X150520896Y-78588136D01*
X150580360Y-78638032D01*
X150580366Y-78638035D01*
X150586495Y-78642067D01*
X150586457Y-78642123D01*
X150592813Y-78646172D01*
X150592849Y-78646115D01*
X150599089Y-78649963D01*
X150599094Y-78649967D01*
X150669453Y-78682775D01*
X150738812Y-78717609D01*
X150738819Y-78717610D01*
X150745707Y-78720118D01*
X150745684Y-78720180D01*
X150752810Y-78722657D01*
X150752831Y-78722595D01*
X150759788Y-78724899D01*
X150759793Y-78724902D01*
X150835822Y-78740600D01*
X150873582Y-78749550D01*
X150911343Y-78758500D01*
X150918632Y-78759352D01*
X150918624Y-78759418D01*
X150926122Y-78760184D01*
X150926128Y-78760118D01*
X150933435Y-78760756D01*
X150933442Y-78760758D01*
X151011045Y-78758500D01*
X152378780Y-78758500D01*
X152446901Y-78778502D01*
X152486020Y-78818352D01*
X152548437Y-78919546D01*
X152554823Y-78929898D01*
X152553194Y-78930902D01*
X152576105Y-78987679D01*
X152562860Y-79057429D01*
X152554747Y-79070055D01*
X152554823Y-79070102D01*
X152550971Y-79076346D01*
X152550970Y-79076348D01*
X152473487Y-79201968D01*
X152457885Y-79227262D01*
X152402113Y-79395572D01*
X152402112Y-79395579D01*
X152391500Y-79499446D01*
X152391500Y-80487955D01*
X152371498Y-80556076D01*
X152317842Y-80602569D01*
X152269170Y-80613902D01*
X152252207Y-80614395D01*
X152248632Y-80614500D01*
X150239371Y-80614500D01*
X150171250Y-80594498D01*
X150150280Y-80577599D01*
X149922404Y-80349723D01*
X149888379Y-80287411D01*
X149885500Y-80260628D01*
X149885500Y-78262371D01*
X149905502Y-78194250D01*
X149959158Y-78147757D01*
X150029432Y-78137653D01*
X150094012Y-78167147D01*
G37*
G04 #@! TD.AperFunction*
G04 #@! TA.AperFunction,Conductor*
G36*
X159447532Y-75729314D02*
G01*
X159504368Y-75771861D01*
X159529179Y-75838381D01*
X159529500Y-75847370D01*
X159529500Y-78312594D01*
X159509498Y-78380715D01*
X159455842Y-78427208D01*
X159385568Y-78437312D01*
X159320988Y-78407818D01*
X159306101Y-78392528D01*
X159296406Y-78380715D01*
X159216568Y-78283432D01*
X159063004Y-78157405D01*
X158887804Y-78063759D01*
X158697701Y-78006092D01*
X158697700Y-78006091D01*
X158697694Y-78006090D01*
X158500003Y-77986620D01*
X158499997Y-77986620D01*
X158302305Y-78006090D01*
X158112195Y-78063759D01*
X157936995Y-78157405D01*
X157783432Y-78283432D01*
X157657405Y-78436995D01*
X157563759Y-78612194D01*
X157530270Y-78722595D01*
X157506149Y-78802113D01*
X157506092Y-78802300D01*
X157497517Y-78889354D01*
X157470934Y-78955186D01*
X157461220Y-78966097D01*
X157222724Y-79204595D01*
X157160412Y-79238620D01*
X157133628Y-79241500D01*
X156621220Y-79241500D01*
X156553099Y-79221498D01*
X156513979Y-79181647D01*
X156510375Y-79175804D01*
X156449030Y-79076348D01*
X156449029Y-79076347D01*
X156449024Y-79076341D01*
X156323658Y-78950975D01*
X156323652Y-78950970D01*
X156289489Y-78929898D01*
X156172738Y-78857885D01*
X156053436Y-78818353D01*
X156004427Y-78802113D01*
X156004420Y-78802112D01*
X155900553Y-78791500D01*
X155099455Y-78791500D01*
X154995574Y-78802112D01*
X154827261Y-78857885D01*
X154728040Y-78919086D01*
X154659560Y-78937823D01*
X154591821Y-78916564D01*
X154546330Y-78862056D01*
X154537529Y-78791607D01*
X154542284Y-78772227D01*
X154597887Y-78604426D01*
X154608500Y-78500545D01*
X154608499Y-77499456D01*
X154597887Y-77395574D01*
X154542287Y-77227783D01*
X154539848Y-77156832D01*
X154576156Y-77095822D01*
X154639685Y-77064127D01*
X154710265Y-77071809D01*
X154728029Y-77080907D01*
X154827262Y-77142115D01*
X154995574Y-77197887D01*
X155099455Y-77208500D01*
X155900544Y-77208499D01*
X156004426Y-77197887D01*
X156172738Y-77142115D01*
X156323652Y-77049030D01*
X156449030Y-76923652D01*
X156513979Y-76818352D01*
X156566765Y-76770875D01*
X156621220Y-76758500D01*
X157935559Y-76758500D01*
X157953819Y-76759830D01*
X157958715Y-76760547D01*
X157977789Y-76763341D01*
X158011146Y-76760422D01*
X158030385Y-76758740D01*
X158035878Y-76758500D01*
X158044176Y-76758500D01*
X158044180Y-76758500D01*
X158070512Y-76755421D01*
X158077096Y-76754652D01*
X158083860Y-76754060D01*
X158154426Y-76747887D01*
X158154432Y-76747884D01*
X158161618Y-76746402D01*
X158161631Y-76746468D01*
X158168987Y-76744836D01*
X158168972Y-76744771D01*
X158176104Y-76743079D01*
X158176113Y-76743079D01*
X158249065Y-76716526D01*
X158322738Y-76692114D01*
X158322740Y-76692112D01*
X158329389Y-76689012D01*
X158329418Y-76689074D01*
X158336203Y-76685789D01*
X158336173Y-76685729D01*
X158342728Y-76682436D01*
X158342732Y-76682435D01*
X158407605Y-76639766D01*
X158473651Y-76599030D01*
X158473660Y-76599020D01*
X158479408Y-76594477D01*
X158479450Y-76594531D01*
X158485289Y-76589775D01*
X158485246Y-76589723D01*
X158490865Y-76585006D01*
X158490874Y-76585001D01*
X158544163Y-76528517D01*
X159314406Y-75758273D01*
X159376717Y-75724250D01*
X159447532Y-75729314D01*
G37*
G04 #@! TD.AperFunction*
G04 #@! TA.AperFunction,Conductor*
G36*
X150979702Y-76557859D02*
G01*
X150997466Y-76569610D01*
X151020895Y-76588135D01*
X151080360Y-76638032D01*
X151080366Y-76638035D01*
X151086495Y-76642067D01*
X151086458Y-76642122D01*
X151092811Y-76646169D01*
X151092847Y-76646113D01*
X151099092Y-76649965D01*
X151099095Y-76649967D01*
X151169452Y-76682775D01*
X151238812Y-76717609D01*
X151238813Y-76717609D01*
X151238817Y-76717611D01*
X151245713Y-76720121D01*
X151245689Y-76720185D01*
X151252805Y-76722659D01*
X151252827Y-76722595D01*
X151259791Y-76724903D01*
X151335849Y-76740607D01*
X151366561Y-76747886D01*
X151411344Y-76758500D01*
X151411350Y-76758500D01*
X151418633Y-76759352D01*
X151418625Y-76759419D01*
X151426122Y-76760185D01*
X151426128Y-76760119D01*
X151433435Y-76760757D01*
X151433442Y-76760759D01*
X151511080Y-76758500D01*
X152378780Y-76758500D01*
X152446901Y-76778502D01*
X152486020Y-76818352D01*
X152499999Y-76841016D01*
X152554823Y-76929898D01*
X152553194Y-76930902D01*
X152576105Y-76987679D01*
X152562860Y-77057429D01*
X152554747Y-77070055D01*
X152554823Y-77070102D01*
X152550971Y-77076346D01*
X152550970Y-77076348D01*
X152501327Y-77156832D01*
X152486021Y-77181647D01*
X152433235Y-77229125D01*
X152378780Y-77241500D01*
X151366370Y-77241500D01*
X151298249Y-77221498D01*
X151277275Y-77204595D01*
X150830222Y-76757542D01*
X150796196Y-76695230D01*
X150801261Y-76624415D01*
X150843808Y-76567579D01*
X150910328Y-76542768D01*
X150979702Y-76557859D01*
G37*
G04 #@! TD.AperFunction*
G04 #@! TA.AperFunction,Conductor*
G36*
X152446901Y-70778502D02*
G01*
X152486020Y-70818352D01*
X152510404Y-70857885D01*
X152554823Y-70929898D01*
X152553194Y-70930902D01*
X152576105Y-70987679D01*
X152562860Y-71057429D01*
X152554747Y-71070055D01*
X152554823Y-71070102D01*
X152457885Y-71227262D01*
X152402113Y-71395572D01*
X152402112Y-71395579D01*
X152391500Y-71499446D01*
X152391500Y-72500544D01*
X152402112Y-72604425D01*
X152450731Y-72751148D01*
X152457885Y-72772738D01*
X152527969Y-72886362D01*
X152554823Y-72929898D01*
X152553194Y-72930902D01*
X152576105Y-72987679D01*
X152562860Y-73057429D01*
X152554747Y-73070055D01*
X152554823Y-73070102D01*
X152550971Y-73076346D01*
X152550970Y-73076348D01*
X152489290Y-73176347D01*
X152457885Y-73227262D01*
X152402113Y-73395572D01*
X152402112Y-73395579D01*
X152391500Y-73499446D01*
X152391500Y-74500544D01*
X152402112Y-74604425D01*
X152441312Y-74722724D01*
X152457885Y-74772738D01*
X152543106Y-74910903D01*
X152554823Y-74929898D01*
X152553194Y-74930902D01*
X152576105Y-74987679D01*
X152562860Y-75057429D01*
X152554747Y-75070055D01*
X152554823Y-75070102D01*
X152550971Y-75076346D01*
X152550970Y-75076348D01*
X152487693Y-75178936D01*
X152486021Y-75181647D01*
X152433235Y-75229125D01*
X152378780Y-75241500D01*
X151866371Y-75241500D01*
X151798250Y-75221498D01*
X151777276Y-75204595D01*
X148196908Y-71624227D01*
X148184936Y-71610375D01*
X148170466Y-71590938D01*
X148165432Y-71585603D01*
X148167381Y-71583763D01*
X148134968Y-71535033D01*
X148133850Y-71464045D01*
X148163641Y-71411168D01*
X148199163Y-71373517D01*
X148471710Y-71100970D01*
X148777277Y-70795404D01*
X148839589Y-70761379D01*
X148866372Y-70758500D01*
X152378780Y-70758500D01*
X152446901Y-70778502D01*
G37*
G04 #@! TD.AperFunction*
G04 #@! TA.AperFunction,Conductor*
G36*
X158686748Y-72765137D02*
G01*
X158737741Y-72814537D01*
X158753931Y-72883663D01*
X158730179Y-72950568D01*
X158717220Y-72965764D01*
X158509225Y-73173759D01*
X158495376Y-73185729D01*
X158475943Y-73200197D01*
X158442007Y-73240638D01*
X158438300Y-73244684D01*
X158432421Y-73250564D01*
X158432412Y-73250574D01*
X158416454Y-73270757D01*
X158411863Y-73276563D01*
X158377724Y-73317250D01*
X158361965Y-73336031D01*
X158357935Y-73342158D01*
X158357880Y-73342122D01*
X158353825Y-73348487D01*
X158353882Y-73348522D01*
X158350028Y-73354768D01*
X158317220Y-73425125D01*
X158282391Y-73494479D01*
X158279882Y-73501374D01*
X158279820Y-73501351D01*
X158277343Y-73508477D01*
X158277404Y-73508498D01*
X158275097Y-73515457D01*
X158259392Y-73591516D01*
X158241500Y-73667012D01*
X158240648Y-73674301D01*
X158240581Y-73674293D01*
X158239814Y-73681793D01*
X158239881Y-73681799D01*
X158239241Y-73689109D01*
X158241500Y-73766746D01*
X158241500Y-74633627D01*
X158221498Y-74701748D01*
X158204596Y-74722722D01*
X157722724Y-75204595D01*
X157660411Y-75238620D01*
X157633628Y-75241500D01*
X156621220Y-75241500D01*
X156553099Y-75221498D01*
X156513979Y-75181647D01*
X156512307Y-75178936D01*
X156449030Y-75076348D01*
X156449029Y-75076347D01*
X156449024Y-75076341D01*
X156323658Y-74950975D01*
X156323652Y-74950970D01*
X156289489Y-74929898D01*
X156172738Y-74857885D01*
X156069428Y-74823652D01*
X156004427Y-74802113D01*
X156004420Y-74802112D01*
X155900553Y-74791500D01*
X155099455Y-74791500D01*
X154995574Y-74802112D01*
X154827261Y-74857885D01*
X154728040Y-74919086D01*
X154659560Y-74937823D01*
X154591821Y-74916564D01*
X154546330Y-74862056D01*
X154537529Y-74791607D01*
X154542284Y-74772227D01*
X154597887Y-74604426D01*
X154608500Y-74500545D01*
X154608499Y-73499456D01*
X154608102Y-73495574D01*
X154597887Y-73395574D01*
X154580175Y-73342122D01*
X154542287Y-73227783D01*
X154539848Y-73156832D01*
X154576156Y-73095822D01*
X154639685Y-73064127D01*
X154710265Y-73071809D01*
X154728029Y-73080907D01*
X154827262Y-73142115D01*
X154995574Y-73197887D01*
X155099455Y-73208500D01*
X155900544Y-73208499D01*
X156004426Y-73197887D01*
X156172738Y-73142115D01*
X156323652Y-73049030D01*
X156449030Y-72923652D01*
X156513979Y-72818352D01*
X156566765Y-72770875D01*
X156621220Y-72758500D01*
X158435559Y-72758500D01*
X158453819Y-72759830D01*
X158458715Y-72760547D01*
X158477789Y-72763341D01*
X158511146Y-72760422D01*
X158530385Y-72758740D01*
X158535878Y-72758500D01*
X158544176Y-72758500D01*
X158544180Y-72758500D01*
X158570512Y-72755421D01*
X158577096Y-72754652D01*
X158582528Y-72754176D01*
X158617144Y-72751148D01*
X158686748Y-72765137D01*
G37*
G04 #@! TD.AperFunction*
G04 #@! TA.AperFunction,Conductor*
G36*
X173419712Y-57032574D02*
G01*
X173475749Y-57076166D01*
X173499324Y-57143135D01*
X173499500Y-57149794D01*
X173499500Y-59457117D01*
X173479498Y-59525238D01*
X173425842Y-59571731D01*
X173355568Y-59581835D01*
X173290988Y-59552341D01*
X173255904Y-59497751D01*
X173254744Y-59498184D01*
X173252753Y-59492847D01*
X173252604Y-59492615D01*
X173252450Y-59492033D01*
X173200889Y-59353797D01*
X173200887Y-59353792D01*
X173113261Y-59236738D01*
X172996207Y-59149112D01*
X172996202Y-59149110D01*
X172859204Y-59098011D01*
X172859196Y-59098009D01*
X172798649Y-59091500D01*
X172798638Y-59091500D01*
X169201362Y-59091500D01*
X169201350Y-59091500D01*
X169140803Y-59098009D01*
X169140795Y-59098011D01*
X169003797Y-59149110D01*
X169003792Y-59149112D01*
X168886738Y-59236738D01*
X168799112Y-59353792D01*
X168799110Y-59353797D01*
X168748011Y-59490795D01*
X168748009Y-59490803D01*
X168741500Y-59551350D01*
X168741500Y-61448649D01*
X168748009Y-61509196D01*
X168748011Y-61509204D01*
X168799110Y-61646202D01*
X168799112Y-61646207D01*
X168886738Y-61763261D01*
X169003792Y-61850887D01*
X169003794Y-61850888D01*
X169003796Y-61850889D01*
X169062875Y-61872924D01*
X169140795Y-61901988D01*
X169140803Y-61901990D01*
X169201350Y-61908499D01*
X169201355Y-61908499D01*
X169201362Y-61908500D01*
X170115140Y-61908500D01*
X170183261Y-61928502D01*
X170229754Y-61982158D01*
X170240659Y-62023517D01*
X170240889Y-62026136D01*
X170241260Y-62030376D01*
X170241500Y-62035867D01*
X170241500Y-62044182D01*
X170245347Y-62077094D01*
X170252112Y-62154419D01*
X170253596Y-62161606D01*
X170253531Y-62161619D01*
X170255165Y-62168989D01*
X170255229Y-62168975D01*
X170256921Y-62176116D01*
X170276835Y-62230826D01*
X170283473Y-62249065D01*
X170294873Y-62283469D01*
X170307885Y-62322736D01*
X170310987Y-62329388D01*
X170310926Y-62329416D01*
X170314211Y-62336202D01*
X170314270Y-62336173D01*
X170317560Y-62342724D01*
X170317564Y-62342731D01*
X170317565Y-62342732D01*
X170345891Y-62385799D01*
X170360233Y-62407605D01*
X170400967Y-62473648D01*
X170405522Y-62479408D01*
X170405468Y-62479450D01*
X170410228Y-62485292D01*
X170410279Y-62485250D01*
X170414993Y-62490868D01*
X170414998Y-62490873D01*
X170414999Y-62490874D01*
X170471482Y-62544163D01*
X170779596Y-62852277D01*
X170813620Y-62914588D01*
X170816500Y-62941371D01*
X170816500Y-63015500D01*
X170796498Y-63083621D01*
X170742842Y-63130114D01*
X170690500Y-63141500D01*
X170676350Y-63141500D01*
X170615803Y-63148009D01*
X170615795Y-63148011D01*
X170478797Y-63199110D01*
X170478792Y-63199112D01*
X170361738Y-63286738D01*
X170274112Y-63403792D01*
X170274111Y-63403795D01*
X170230000Y-63522058D01*
X170187453Y-63578893D01*
X170120932Y-63603703D01*
X170051558Y-63588611D01*
X170019246Y-63563363D01*
X169958240Y-63497094D01*
X169958239Y-63497093D01*
X169958237Y-63497091D01*
X169838372Y-63403796D01*
X169780576Y-63358811D01*
X169582574Y-63251658D01*
X169582572Y-63251657D01*
X169582571Y-63251656D01*
X169369639Y-63178557D01*
X169369630Y-63178555D01*
X169311284Y-63168819D01*
X169147569Y-63141500D01*
X168922431Y-63141500D01*
X168774211Y-63166233D01*
X168700369Y-63178555D01*
X168700360Y-63178557D01*
X168487428Y-63251656D01*
X168487426Y-63251658D01*
X168289426Y-63358810D01*
X168289424Y-63358811D01*
X168111762Y-63497091D01*
X167959279Y-63662729D01*
X167870483Y-63798643D01*
X167816479Y-63844731D01*
X167746131Y-63854306D01*
X167681774Y-63824329D01*
X167659517Y-63798643D01*
X167570720Y-63662729D01*
X167418237Y-63497091D01*
X167298372Y-63403796D01*
X167240576Y-63358811D01*
X167042574Y-63251658D01*
X167042572Y-63251657D01*
X167042571Y-63251656D01*
X166829639Y-63178557D01*
X166829630Y-63178555D01*
X166771284Y-63168819D01*
X166607569Y-63141500D01*
X166382431Y-63141500D01*
X166234211Y-63166233D01*
X166160369Y-63178555D01*
X166160360Y-63178557D01*
X165947428Y-63251656D01*
X165947426Y-63251658D01*
X165749426Y-63358810D01*
X165749424Y-63358811D01*
X165571762Y-63497091D01*
X165419279Y-63662729D01*
X165330483Y-63798643D01*
X165276479Y-63844731D01*
X165206131Y-63854306D01*
X165141774Y-63824329D01*
X165119517Y-63798643D01*
X165030720Y-63662729D01*
X164878237Y-63497091D01*
X164758372Y-63403796D01*
X164700576Y-63358811D01*
X164502574Y-63251658D01*
X164502572Y-63251657D01*
X164502571Y-63251656D01*
X164289639Y-63178557D01*
X164289630Y-63178555D01*
X164231284Y-63168819D01*
X164067569Y-63141500D01*
X163842431Y-63141500D01*
X163694211Y-63166233D01*
X163620369Y-63178555D01*
X163620360Y-63178557D01*
X163407428Y-63251656D01*
X163407426Y-63251658D01*
X163209426Y-63358810D01*
X163209424Y-63358811D01*
X163031762Y-63497091D01*
X162879279Y-63662729D01*
X162790483Y-63798643D01*
X162736479Y-63844731D01*
X162666131Y-63854306D01*
X162601774Y-63824329D01*
X162579517Y-63798643D01*
X162490720Y-63662729D01*
X162338237Y-63497091D01*
X162218372Y-63403796D01*
X162160576Y-63358811D01*
X161962574Y-63251658D01*
X161962572Y-63251657D01*
X161962571Y-63251656D01*
X161749639Y-63178557D01*
X161749630Y-63178555D01*
X161691284Y-63168819D01*
X161527569Y-63141500D01*
X161302431Y-63141500D01*
X161154211Y-63166233D01*
X161080369Y-63178555D01*
X161080360Y-63178557D01*
X160867428Y-63251656D01*
X160867426Y-63251658D01*
X160669426Y-63358810D01*
X160669424Y-63358811D01*
X160491762Y-63497091D01*
X160339279Y-63662729D01*
X160339275Y-63662734D01*
X160216141Y-63851206D01*
X160125703Y-64057386D01*
X160125702Y-64057387D01*
X160070437Y-64275624D01*
X160070436Y-64275630D01*
X160070436Y-64275632D01*
X160051844Y-64500000D01*
X160070313Y-64722885D01*
X160070437Y-64724375D01*
X160125702Y-64942612D01*
X160125703Y-64942613D01*
X160125704Y-64942616D01*
X160184364Y-65076348D01*
X160216141Y-65148793D01*
X160339275Y-65337265D01*
X160339279Y-65337270D01*
X160491762Y-65502908D01*
X160544598Y-65544032D01*
X160669424Y-65641189D01*
X160867426Y-65748342D01*
X160867427Y-65748342D01*
X160867428Y-65748343D01*
X160953202Y-65777789D01*
X161080365Y-65821444D01*
X161302431Y-65858500D01*
X161302435Y-65858500D01*
X161527565Y-65858500D01*
X161527569Y-65858500D01*
X161749635Y-65821444D01*
X161962574Y-65748342D01*
X162160576Y-65641189D01*
X162338240Y-65502906D01*
X162490722Y-65337268D01*
X162579519Y-65201353D01*
X162633518Y-65155268D01*
X162703866Y-65145692D01*
X162768224Y-65175668D01*
X162790482Y-65201356D01*
X162879275Y-65337265D01*
X162879279Y-65337270D01*
X163031762Y-65502908D01*
X163084598Y-65544032D01*
X163209424Y-65641189D01*
X163407426Y-65748342D01*
X163407427Y-65748342D01*
X163407428Y-65748343D01*
X163493202Y-65777789D01*
X163620365Y-65821444D01*
X163842431Y-65858500D01*
X163842435Y-65858500D01*
X164067565Y-65858500D01*
X164067569Y-65858500D01*
X164289635Y-65821444D01*
X164502574Y-65748342D01*
X164700576Y-65641189D01*
X164878240Y-65502906D01*
X165030722Y-65337268D01*
X165119518Y-65201354D01*
X165173520Y-65155268D01*
X165243868Y-65145692D01*
X165308225Y-65175669D01*
X165330480Y-65201353D01*
X165333388Y-65205803D01*
X165419275Y-65337265D01*
X165419279Y-65337270D01*
X165571762Y-65502908D01*
X165624598Y-65544032D01*
X165749424Y-65641189D01*
X165947426Y-65748342D01*
X165947427Y-65748342D01*
X165947428Y-65748343D01*
X166033202Y-65777789D01*
X166160365Y-65821444D01*
X166382431Y-65858500D01*
X166382435Y-65858500D01*
X166607565Y-65858500D01*
X166607569Y-65858500D01*
X166829635Y-65821444D01*
X167042574Y-65748342D01*
X167240576Y-65641189D01*
X167418240Y-65502906D01*
X167570722Y-65337268D01*
X167659519Y-65201353D01*
X167713518Y-65155268D01*
X167783866Y-65145692D01*
X167848224Y-65175668D01*
X167870482Y-65201356D01*
X167959275Y-65337265D01*
X167959279Y-65337270D01*
X168111762Y-65502908D01*
X168164598Y-65544032D01*
X168289424Y-65641189D01*
X168487426Y-65748342D01*
X168487427Y-65748342D01*
X168487428Y-65748343D01*
X168573202Y-65777789D01*
X168700365Y-65821444D01*
X168922431Y-65858500D01*
X168922435Y-65858500D01*
X169147565Y-65858500D01*
X169147569Y-65858500D01*
X169369635Y-65821444D01*
X169582574Y-65748342D01*
X169780576Y-65641189D01*
X169958240Y-65502906D01*
X170019245Y-65436637D01*
X170080096Y-65400067D01*
X170151061Y-65402200D01*
X170209606Y-65442362D01*
X170230000Y-65477941D01*
X170274111Y-65596204D01*
X170274112Y-65596207D01*
X170361738Y-65713261D01*
X170478792Y-65800887D01*
X170478794Y-65800888D01*
X170478796Y-65800889D01*
X170533900Y-65821442D01*
X170615795Y-65851988D01*
X170615803Y-65851990D01*
X170676350Y-65858499D01*
X170676355Y-65858499D01*
X170676362Y-65858500D01*
X170676368Y-65858500D01*
X172473632Y-65858500D01*
X172473638Y-65858500D01*
X172473645Y-65858499D01*
X172473649Y-65858499D01*
X172534196Y-65851990D01*
X172534199Y-65851989D01*
X172534201Y-65851989D01*
X172671204Y-65800889D01*
X172674197Y-65798649D01*
X172788261Y-65713261D01*
X172875887Y-65596207D01*
X172875887Y-65596206D01*
X172875889Y-65596204D01*
X172926989Y-65459201D01*
X172928083Y-65449030D01*
X172933499Y-65398649D01*
X172933500Y-65398632D01*
X172933500Y-63601367D01*
X172933499Y-63601350D01*
X172926990Y-63540803D01*
X172926988Y-63540795D01*
X172875889Y-63403797D01*
X172875887Y-63403792D01*
X172788261Y-63286738D01*
X172671207Y-63199112D01*
X172671202Y-63199110D01*
X172534204Y-63148011D01*
X172534196Y-63148009D01*
X172473649Y-63141500D01*
X172473638Y-63141500D01*
X172459500Y-63141500D01*
X172391379Y-63121498D01*
X172344886Y-63067842D01*
X172333500Y-63015500D01*
X172333500Y-62639441D01*
X172334830Y-62621182D01*
X172335940Y-62613600D01*
X172338341Y-62597211D01*
X172335235Y-62561713D01*
X172333740Y-62544614D01*
X172333500Y-62539121D01*
X172333500Y-62530819D01*
X172329652Y-62497905D01*
X172329028Y-62490773D01*
X172322887Y-62420574D01*
X172322885Y-62420570D01*
X172321403Y-62413388D01*
X172321469Y-62413374D01*
X172319837Y-62406012D01*
X172319772Y-62406028D01*
X172318080Y-62398890D01*
X172291526Y-62325934D01*
X172286553Y-62310926D01*
X172267114Y-62252262D01*
X172267109Y-62252255D01*
X172264012Y-62245611D01*
X172264074Y-62245581D01*
X172260788Y-62238795D01*
X172260728Y-62238826D01*
X172257433Y-62232265D01*
X172214766Y-62167394D01*
X172173597Y-62100646D01*
X172154860Y-62032166D01*
X172176120Y-61964428D01*
X172230627Y-61918937D01*
X172280838Y-61908500D01*
X172798632Y-61908500D01*
X172798638Y-61908500D01*
X172798645Y-61908499D01*
X172798649Y-61908499D01*
X172859196Y-61901990D01*
X172859199Y-61901989D01*
X172859201Y-61901989D01*
X172996204Y-61850889D01*
X173003127Y-61845707D01*
X173113261Y-61763261D01*
X173200887Y-61646207D01*
X173200887Y-61646206D01*
X173200889Y-61646204D01*
X173234733Y-61555465D01*
X173254744Y-61501816D01*
X173257233Y-61502744D01*
X173286006Y-61452214D01*
X173348914Y-61419304D01*
X173419628Y-61425629D01*
X173475697Y-61469182D01*
X173499319Y-61536133D01*
X173499500Y-61542882D01*
X173499500Y-66173500D01*
X173479498Y-66241621D01*
X173425842Y-66288114D01*
X173373500Y-66299500D01*
X169694750Y-66299500D01*
X169690849Y-66299226D01*
X169690064Y-66299404D01*
X169689616Y-66299616D01*
X169688796Y-66299958D01*
X169685984Y-66302384D01*
X161963063Y-72094576D01*
X161896565Y-72119447D01*
X161827177Y-72104418D01*
X161776930Y-72054261D01*
X161761776Y-71984901D01*
X161767861Y-71954135D01*
X161768461Y-71952321D01*
X161768467Y-71952309D01*
X161784165Y-71876279D01*
X161802065Y-71800758D01*
X161802065Y-71800757D01*
X161802917Y-71793470D01*
X161802983Y-71793477D01*
X161803749Y-71785979D01*
X161803683Y-71785974D01*
X161804321Y-71778667D01*
X161804323Y-71778660D01*
X161802065Y-71701056D01*
X161802065Y-71509787D01*
X161822067Y-71441667D01*
X161830662Y-71429859D01*
X161886160Y-71362236D01*
X161979806Y-71187036D01*
X162037473Y-70996933D01*
X162038385Y-70987679D01*
X162042932Y-70941501D01*
X162045346Y-70916990D01*
X162071927Y-70851159D01*
X162129881Y-70810148D01*
X162158390Y-70803947D01*
X162197694Y-70800076D01*
X162197695Y-70800075D01*
X162197701Y-70800075D01*
X162387804Y-70742408D01*
X162563004Y-70648762D01*
X162716568Y-70522735D01*
X162842595Y-70369171D01*
X162936241Y-70193971D01*
X162993908Y-70003868D01*
X162996939Y-69973090D01*
X163023519Y-69907261D01*
X163081472Y-69866249D01*
X163109981Y-69860047D01*
X163162393Y-69854885D01*
X163197693Y-69851409D01*
X163197694Y-69851408D01*
X163197701Y-69851408D01*
X163387804Y-69793741D01*
X163563004Y-69700095D01*
X163716568Y-69574068D01*
X163842595Y-69420504D01*
X163936241Y-69245304D01*
X163993908Y-69055201D01*
X163994517Y-69049024D01*
X164013380Y-68857503D01*
X164013380Y-68857496D01*
X163993909Y-68659805D01*
X163993908Y-68659803D01*
X163993908Y-68659799D01*
X163936241Y-68469696D01*
X163842595Y-68294496D01*
X163716568Y-68140932D01*
X163563004Y-68014905D01*
X163514453Y-67988954D01*
X163387805Y-67921259D01*
X163340278Y-67906842D01*
X163197701Y-67863592D01*
X163131770Y-67857098D01*
X163110644Y-67855017D01*
X163044812Y-67828434D01*
X163033900Y-67818719D01*
X162724408Y-67509227D01*
X162712436Y-67495375D01*
X162697969Y-67475942D01*
X162692654Y-67471482D01*
X162657524Y-67442003D01*
X162653470Y-67438289D01*
X162647607Y-67432425D01*
X162621604Y-67411864D01*
X162618025Y-67408861D01*
X162562140Y-67361968D01*
X162562138Y-67361967D01*
X162562136Y-67361965D01*
X162556006Y-67357933D01*
X162556041Y-67357878D01*
X162549687Y-67353829D01*
X162549653Y-67353886D01*
X162543406Y-67350033D01*
X162473040Y-67317220D01*
X162467054Y-67314214D01*
X162403688Y-67282391D01*
X162403686Y-67282390D01*
X162403683Y-67282389D01*
X162396789Y-67279880D01*
X162396811Y-67279817D01*
X162389689Y-67277341D01*
X162389669Y-67277404D01*
X162382709Y-67275097D01*
X162306650Y-67259392D01*
X162231152Y-67241499D01*
X162223867Y-67240648D01*
X162223874Y-67240580D01*
X162216377Y-67239814D01*
X162216372Y-67239881D01*
X162209059Y-67239241D01*
X162209058Y-67239241D01*
X162131420Y-67241500D01*
X156621220Y-67241500D01*
X156553099Y-67221498D01*
X156513979Y-67181647D01*
X156508484Y-67172738D01*
X156449030Y-67076348D01*
X156449029Y-67076347D01*
X156449024Y-67076341D01*
X156323658Y-66950975D01*
X156323652Y-66950970D01*
X156302337Y-66937823D01*
X156172738Y-66857885D01*
X156088581Y-66829998D01*
X156004427Y-66802113D01*
X156004420Y-66802112D01*
X155900553Y-66791500D01*
X155099455Y-66791500D01*
X154995574Y-66802112D01*
X154827261Y-66857885D01*
X154728040Y-66919086D01*
X154659560Y-66937823D01*
X154591821Y-66916564D01*
X154546330Y-66862056D01*
X154537529Y-66791607D01*
X154542284Y-66772227D01*
X154597887Y-66604426D01*
X154608500Y-66500545D01*
X154608499Y-65499456D01*
X154597887Y-65395574D01*
X154542115Y-65227262D01*
X154449030Y-65076348D01*
X154449029Y-65076347D01*
X154449024Y-65076341D01*
X154323658Y-64950975D01*
X154323652Y-64950970D01*
X154241900Y-64900545D01*
X154172738Y-64857885D01*
X154088581Y-64829998D01*
X154004427Y-64802113D01*
X154004420Y-64802112D01*
X153900553Y-64791500D01*
X153900545Y-64791500D01*
X153585370Y-64791500D01*
X153517249Y-64771498D01*
X153470756Y-64717842D01*
X153460652Y-64647568D01*
X153490146Y-64582988D01*
X153496275Y-64576405D01*
X154989059Y-63083621D01*
X156490778Y-61581901D01*
X156504617Y-61569941D01*
X156524058Y-61555469D01*
X156558001Y-61515015D01*
X156561700Y-61510979D01*
X156567581Y-61505100D01*
X156583388Y-61485108D01*
X156588135Y-61479105D01*
X156619267Y-61442003D01*
X156638032Y-61419640D01*
X156638033Y-61419636D01*
X156638036Y-61419634D01*
X156642070Y-61413502D01*
X156642127Y-61413539D01*
X156646171Y-61407191D01*
X156646112Y-61407155D01*
X156649961Y-61400912D01*
X156649967Y-61400905D01*
X156682775Y-61330547D01*
X156717609Y-61261188D01*
X156717610Y-61261182D01*
X156720119Y-61254291D01*
X156720184Y-61254314D01*
X156722658Y-61247197D01*
X156722594Y-61247176D01*
X156724903Y-61240208D01*
X156740607Y-61164150D01*
X156757226Y-61094031D01*
X156758500Y-61088656D01*
X156758500Y-61088649D01*
X156759352Y-61081368D01*
X156759419Y-61081375D01*
X156760185Y-61073877D01*
X156760119Y-61073872D01*
X156760757Y-61066565D01*
X156760759Y-61066558D01*
X156758500Y-60988920D01*
X156758500Y-58621218D01*
X156778502Y-58553098D01*
X156818352Y-58513979D01*
X156923652Y-58449030D01*
X157049030Y-58323652D01*
X157052298Y-58318352D01*
X157105084Y-58270875D01*
X157159539Y-58258500D01*
X158799972Y-58258500D01*
X158868093Y-58278502D01*
X158914586Y-58332158D01*
X158924690Y-58402432D01*
X158895196Y-58467012D01*
X158835470Y-58505396D01*
X158810381Y-58510069D01*
X158752179Y-58514892D01*
X158752177Y-58514892D01*
X158752171Y-58514893D01*
X158511122Y-58575935D01*
X158511115Y-58575938D01*
X158283393Y-58675826D01*
X158075214Y-58811835D01*
X157892267Y-58980249D01*
X157739526Y-59176490D01*
X157739525Y-59176491D01*
X157621171Y-59395190D01*
X157621170Y-59395192D01*
X157540430Y-59630381D01*
X157540428Y-59630390D01*
X157532170Y-59679880D01*
X157499500Y-59875665D01*
X157499500Y-60124335D01*
X157532607Y-60322736D01*
X157540428Y-60369609D01*
X157540430Y-60369618D01*
X157621170Y-60604807D01*
X157621171Y-60604809D01*
X157734921Y-60814999D01*
X157739526Y-60823509D01*
X157873942Y-60996207D01*
X157892267Y-61019750D01*
X158075214Y-61188164D01*
X158283393Y-61324173D01*
X158283392Y-61324173D01*
X158429411Y-61388222D01*
X158511119Y-61424063D01*
X158511120Y-61424063D01*
X158511122Y-61424064D01*
X158715983Y-61475942D01*
X158752179Y-61485108D01*
X158917446Y-61498802D01*
X158937931Y-61500500D01*
X158937933Y-61500500D01*
X159062069Y-61500500D01*
X159081483Y-61498891D01*
X159247821Y-61485108D01*
X159488881Y-61424063D01*
X159716607Y-61324173D01*
X159924785Y-61188164D01*
X159978088Y-61139095D01*
X160107732Y-61019750D01*
X160107733Y-61019748D01*
X160107738Y-61019744D01*
X160260474Y-60823509D01*
X160378828Y-60604810D01*
X160459571Y-60369614D01*
X160500500Y-60124335D01*
X160500500Y-59875665D01*
X160459571Y-59630386D01*
X160382570Y-59406090D01*
X160378829Y-59395192D01*
X160378828Y-59395190D01*
X160260474Y-59176491D01*
X160260473Y-59176490D01*
X160199389Y-59098009D01*
X160107738Y-58980256D01*
X160107736Y-58980254D01*
X160107732Y-58980249D01*
X159924785Y-58811835D01*
X159716606Y-58675826D01*
X159716607Y-58675826D01*
X159488884Y-58575938D01*
X159488877Y-58575935D01*
X159247828Y-58514893D01*
X159247823Y-58514892D01*
X159247821Y-58514892D01*
X159189621Y-58510069D01*
X159123386Y-58484510D01*
X159081483Y-58427198D01*
X159077217Y-58356330D01*
X159111943Y-58294406D01*
X159174635Y-58261085D01*
X159200028Y-58258500D01*
X160378780Y-58258500D01*
X160446901Y-58278502D01*
X160486020Y-58318352D01*
X160509445Y-58356330D01*
X160550970Y-58423652D01*
X160550975Y-58423658D01*
X160676341Y-58549024D01*
X160676347Y-58549029D01*
X160676348Y-58549030D01*
X160827262Y-58642115D01*
X160995574Y-58697887D01*
X161099455Y-58708500D01*
X161900544Y-58708499D01*
X162004426Y-58697887D01*
X162172738Y-58642115D01*
X162323652Y-58549030D01*
X162365879Y-58506803D01*
X162410905Y-58461778D01*
X162473217Y-58427752D01*
X162544032Y-58432817D01*
X162589095Y-58461778D01*
X162676341Y-58549024D01*
X162676347Y-58549029D01*
X162676348Y-58549030D01*
X162827262Y-58642115D01*
X162995574Y-58697887D01*
X163099455Y-58708500D01*
X163900544Y-58708499D01*
X164004426Y-58697887D01*
X164172738Y-58642115D01*
X164323652Y-58549030D01*
X164449030Y-58423652D01*
X164518692Y-58310711D01*
X164571476Y-58263236D01*
X164614947Y-58251340D01*
X164654426Y-58247887D01*
X164654430Y-58247885D01*
X164661618Y-58246402D01*
X164661631Y-58246468D01*
X164668987Y-58244836D01*
X164668972Y-58244771D01*
X164676104Y-58243079D01*
X164676113Y-58243079D01*
X164749065Y-58216526D01*
X164822738Y-58192114D01*
X164822740Y-58192112D01*
X164829389Y-58189012D01*
X164829418Y-58189074D01*
X164836203Y-58185789D01*
X164836173Y-58185729D01*
X164842728Y-58182436D01*
X164842732Y-58182435D01*
X164907605Y-58139766D01*
X164973651Y-58099030D01*
X164973660Y-58099020D01*
X164979408Y-58094477D01*
X164979450Y-58094531D01*
X164985289Y-58089775D01*
X164985246Y-58089723D01*
X164990865Y-58085006D01*
X164990874Y-58085001D01*
X165044163Y-58028517D01*
X165242455Y-57830224D01*
X165304765Y-57796201D01*
X165375581Y-57801265D01*
X165432417Y-57843812D01*
X165457228Y-57910332D01*
X165442137Y-57979706D01*
X165430386Y-57997470D01*
X165411864Y-58020894D01*
X165361965Y-58080363D01*
X165357935Y-58086491D01*
X165357880Y-58086455D01*
X165353825Y-58092820D01*
X165353882Y-58092855D01*
X165350028Y-58099101D01*
X165317220Y-58169458D01*
X165282391Y-58238812D01*
X165279882Y-58245707D01*
X165279820Y-58245684D01*
X165277343Y-58252810D01*
X165277404Y-58252831D01*
X165275097Y-58259790D01*
X165259392Y-58335849D01*
X165241500Y-58411345D01*
X165240648Y-58418634D01*
X165240581Y-58418626D01*
X165239814Y-58426126D01*
X165239881Y-58426132D01*
X165239241Y-58433442D01*
X165241500Y-58511079D01*
X165241500Y-58965500D01*
X165221498Y-59033621D01*
X165167842Y-59080114D01*
X165115500Y-59091500D01*
X164201350Y-59091500D01*
X164140803Y-59098009D01*
X164140795Y-59098011D01*
X164003797Y-59149110D01*
X164003792Y-59149112D01*
X163886738Y-59236738D01*
X163799112Y-59353792D01*
X163799110Y-59353797D01*
X163748011Y-59490795D01*
X163748009Y-59490803D01*
X163741500Y-59551350D01*
X163741500Y-61448649D01*
X163748009Y-61509196D01*
X163748011Y-61509204D01*
X163799110Y-61646202D01*
X163799112Y-61646207D01*
X163886738Y-61763261D01*
X164003792Y-61850887D01*
X164003794Y-61850888D01*
X164003796Y-61850889D01*
X164062875Y-61872924D01*
X164140795Y-61901988D01*
X164140803Y-61901990D01*
X164201350Y-61908499D01*
X164201355Y-61908499D01*
X164201362Y-61908500D01*
X164201368Y-61908500D01*
X167798632Y-61908500D01*
X167798638Y-61908500D01*
X167798645Y-61908499D01*
X167798649Y-61908499D01*
X167859196Y-61901990D01*
X167859199Y-61901989D01*
X167859201Y-61901989D01*
X167996204Y-61850889D01*
X168003127Y-61845707D01*
X168113261Y-61763261D01*
X168200887Y-61646207D01*
X168200887Y-61646206D01*
X168200889Y-61646204D01*
X168249816Y-61515027D01*
X168251988Y-61509204D01*
X168251990Y-61509196D01*
X168258499Y-61448649D01*
X168258500Y-61448632D01*
X168258500Y-59551367D01*
X168258499Y-59551350D01*
X168251990Y-59490803D01*
X168251988Y-59490795D01*
X168200889Y-59353797D01*
X168200887Y-59353792D01*
X168113261Y-59236738D01*
X167996207Y-59149112D01*
X167996202Y-59149110D01*
X167859204Y-59098011D01*
X167859196Y-59098009D01*
X167798649Y-59091500D01*
X167798638Y-59091500D01*
X166884500Y-59091500D01*
X166816379Y-59071498D01*
X166769886Y-59017842D01*
X166758500Y-58965500D01*
X166758500Y-58866371D01*
X166778502Y-58798250D01*
X166795405Y-58777276D01*
X167277276Y-58295405D01*
X167339588Y-58261379D01*
X167366371Y-58258500D01*
X171935559Y-58258500D01*
X171953819Y-58259830D01*
X171958715Y-58260547D01*
X171977789Y-58263341D01*
X172011146Y-58260422D01*
X172030385Y-58258740D01*
X172035878Y-58258500D01*
X172044176Y-58258500D01*
X172044180Y-58258500D01*
X172070512Y-58255421D01*
X172077096Y-58254652D01*
X172083861Y-58254060D01*
X172154426Y-58247887D01*
X172154432Y-58247884D01*
X172161618Y-58246402D01*
X172161631Y-58246468D01*
X172168987Y-58244836D01*
X172168972Y-58244771D01*
X172176104Y-58243079D01*
X172176113Y-58243079D01*
X172249065Y-58216526D01*
X172322738Y-58192114D01*
X172322740Y-58192112D01*
X172329389Y-58189012D01*
X172329418Y-58189074D01*
X172336203Y-58185789D01*
X172336173Y-58185729D01*
X172342728Y-58182436D01*
X172342732Y-58182435D01*
X172407605Y-58139766D01*
X172473651Y-58099030D01*
X172473660Y-58099020D01*
X172479408Y-58094477D01*
X172479450Y-58094531D01*
X172485289Y-58089775D01*
X172485246Y-58089723D01*
X172490865Y-58085006D01*
X172490874Y-58085001D01*
X172544163Y-58028517D01*
X172990784Y-57581895D01*
X173004617Y-57569941D01*
X173024058Y-57555469D01*
X173058001Y-57515015D01*
X173061700Y-57510979D01*
X173067581Y-57505100D01*
X173080300Y-57489014D01*
X173088135Y-57479105D01*
X173113371Y-57449029D01*
X173138032Y-57419640D01*
X173138033Y-57419636D01*
X173138036Y-57419634D01*
X173142070Y-57413502D01*
X173142127Y-57413539D01*
X173146171Y-57407191D01*
X173146112Y-57407155D01*
X173149961Y-57400912D01*
X173149967Y-57400905D01*
X173182775Y-57330547D01*
X173217609Y-57261188D01*
X173217610Y-57261182D01*
X173220119Y-57254291D01*
X173220184Y-57254314D01*
X173222658Y-57247197D01*
X173222594Y-57247176D01*
X173224903Y-57240208D01*
X173240607Y-57164150D01*
X173250897Y-57120735D01*
X173286070Y-57059064D01*
X173349002Y-57026199D01*
X173419712Y-57032574D01*
G37*
G04 #@! TD.AperFunction*
G04 #@! TA.AperFunction,Conductor*
G36*
X161402851Y-68778502D02*
G01*
X161449344Y-68832158D01*
X161459448Y-68902432D01*
X161429954Y-68967012D01*
X161414664Y-68981899D01*
X161369376Y-69019066D01*
X161304029Y-69046820D01*
X161289442Y-69047667D01*
X160758274Y-69047667D01*
X160740014Y-69046337D01*
X160716044Y-69042826D01*
X160663448Y-69047427D01*
X160657955Y-69047667D01*
X160649651Y-69047667D01*
X160635039Y-69049375D01*
X160616738Y-69051514D01*
X160607565Y-69052316D01*
X160539410Y-69058279D01*
X160532219Y-69059764D01*
X160532205Y-69059699D01*
X160524847Y-69061330D01*
X160524863Y-69061395D01*
X160517722Y-69063087D01*
X160444777Y-69089636D01*
X160371093Y-69114052D01*
X160364446Y-69117153D01*
X160364418Y-69117093D01*
X160357631Y-69120379D01*
X160357660Y-69120437D01*
X160351104Y-69123729D01*
X160286228Y-69166399D01*
X160220182Y-69207136D01*
X160214429Y-69211686D01*
X160214388Y-69211634D01*
X160208537Y-69216400D01*
X160208579Y-69216450D01*
X160202961Y-69221163D01*
X160154987Y-69272012D01*
X160149669Y-69277649D01*
X158222722Y-71204596D01*
X158160412Y-71238620D01*
X158133629Y-71241500D01*
X156621220Y-71241500D01*
X156553099Y-71221498D01*
X156513979Y-71181647D01*
X156449029Y-71076347D01*
X156449024Y-71076341D01*
X156323658Y-70950975D01*
X156323652Y-70950970D01*
X156289489Y-70929898D01*
X156172738Y-70857885D01*
X156040547Y-70814082D01*
X156004427Y-70802113D01*
X156004420Y-70802112D01*
X155900553Y-70791500D01*
X155099455Y-70791500D01*
X154995574Y-70802112D01*
X154827261Y-70857885D01*
X154728040Y-70919086D01*
X154659560Y-70937823D01*
X154591821Y-70916564D01*
X154546330Y-70862056D01*
X154537529Y-70791607D01*
X154542284Y-70772227D01*
X154597887Y-70604426D01*
X154608500Y-70500545D01*
X154608499Y-69499456D01*
X154597887Y-69395574D01*
X154542287Y-69227783D01*
X154539848Y-69156832D01*
X154576156Y-69095822D01*
X154639685Y-69064127D01*
X154710265Y-69071809D01*
X154728029Y-69080907D01*
X154827262Y-69142115D01*
X154995574Y-69197887D01*
X155099455Y-69208500D01*
X155900544Y-69208499D01*
X156004426Y-69197887D01*
X156172738Y-69142115D01*
X156323652Y-69049030D01*
X156449030Y-68923652D01*
X156513979Y-68818352D01*
X156566765Y-68770875D01*
X156621220Y-68758500D01*
X161334730Y-68758500D01*
X161402851Y-68778502D01*
G37*
G04 #@! TD.AperFunction*
G04 #@! TA.AperFunction,Conductor*
G36*
X152446901Y-68778502D02*
G01*
X152486020Y-68818352D01*
X152538868Y-68904032D01*
X152554823Y-68929898D01*
X152553194Y-68930902D01*
X152576105Y-68987679D01*
X152562860Y-69057429D01*
X152554747Y-69070055D01*
X152554823Y-69070102D01*
X152550971Y-69076346D01*
X152550970Y-69076348D01*
X152486021Y-69181647D01*
X152433235Y-69229125D01*
X152378780Y-69241500D01*
X150061048Y-69241500D01*
X149992927Y-69221498D01*
X149946434Y-69167842D01*
X149936330Y-69097568D01*
X149965824Y-69032988D01*
X150011997Y-69002180D01*
X150011082Y-69000218D01*
X150024389Y-68994012D01*
X150024418Y-68994074D01*
X150031203Y-68990789D01*
X150031173Y-68990729D01*
X150037728Y-68987436D01*
X150037732Y-68987435D01*
X150102605Y-68944766D01*
X150168651Y-68904030D01*
X150168660Y-68904020D01*
X150174408Y-68899477D01*
X150174450Y-68899531D01*
X150180289Y-68894775D01*
X150180246Y-68894723D01*
X150185866Y-68890005D01*
X150185874Y-68890001D01*
X150239163Y-68833517D01*
X150277278Y-68795402D01*
X150339589Y-68761379D01*
X150366371Y-68758500D01*
X152378780Y-68758500D01*
X152446901Y-68778502D01*
G37*
G04 #@! TD.AperFunction*
G04 #@! TA.AperFunction,Conductor*
G36*
X132042492Y-62705065D02*
G01*
X132089551Y-62758224D01*
X132101499Y-62811779D01*
X132101499Y-64043632D01*
X132101500Y-64043649D01*
X132108009Y-64104196D01*
X132108011Y-64104204D01*
X132159110Y-64241202D01*
X132159112Y-64241207D01*
X132246738Y-64358261D01*
X132363792Y-64445887D01*
X132363794Y-64445888D01*
X132363796Y-64445889D01*
X132422875Y-64467924D01*
X132500795Y-64496988D01*
X132500803Y-64496990D01*
X132561350Y-64503499D01*
X132561355Y-64503499D01*
X132561362Y-64503500D01*
X132561368Y-64503500D01*
X133558632Y-64503500D01*
X133558638Y-64503500D01*
X133558645Y-64503499D01*
X133558649Y-64503499D01*
X133619196Y-64496990D01*
X133619197Y-64496989D01*
X133619201Y-64496989D01*
X133650966Y-64485140D01*
X133721779Y-64480074D01*
X133739025Y-64485137D01*
X133770799Y-64496989D01*
X133770801Y-64496989D01*
X133770803Y-64496990D01*
X133831350Y-64503499D01*
X133831355Y-64503499D01*
X133831362Y-64503500D01*
X133831368Y-64503500D01*
X134828632Y-64503500D01*
X134828638Y-64503500D01*
X134828645Y-64503499D01*
X134828649Y-64503499D01*
X134889196Y-64496990D01*
X134889197Y-64496989D01*
X134889201Y-64496989D01*
X134920966Y-64485140D01*
X134991779Y-64480074D01*
X135009025Y-64485137D01*
X135040799Y-64496989D01*
X135040801Y-64496989D01*
X135040803Y-64496990D01*
X135101350Y-64503499D01*
X135101355Y-64503499D01*
X135101362Y-64503500D01*
X135101368Y-64503500D01*
X136098632Y-64503500D01*
X136098638Y-64503500D01*
X136098645Y-64503499D01*
X136098649Y-64503499D01*
X136159196Y-64496990D01*
X136159197Y-64496989D01*
X136159201Y-64496989D01*
X136190966Y-64485140D01*
X136261779Y-64480074D01*
X136279025Y-64485137D01*
X136310799Y-64496989D01*
X136310801Y-64496989D01*
X136310803Y-64496990D01*
X136371350Y-64503499D01*
X136371355Y-64503499D01*
X136371362Y-64503500D01*
X136371368Y-64503500D01*
X137368632Y-64503500D01*
X137368638Y-64503500D01*
X137368645Y-64503499D01*
X137368649Y-64503499D01*
X137429196Y-64496990D01*
X137429197Y-64496989D01*
X137429201Y-64496989D01*
X137460966Y-64485140D01*
X137531779Y-64480074D01*
X137549025Y-64485137D01*
X137580799Y-64496989D01*
X137580801Y-64496989D01*
X137580803Y-64496990D01*
X137641350Y-64503499D01*
X137641355Y-64503499D01*
X137641362Y-64503500D01*
X137772384Y-64503500D01*
X137840505Y-64523502D01*
X137886998Y-64577158D01*
X137897102Y-64647432D01*
X137867608Y-64712012D01*
X137852317Y-64726899D01*
X137783434Y-64783429D01*
X137657405Y-64936995D01*
X137563759Y-65112195D01*
X137506090Y-65302305D01*
X137486620Y-65499996D01*
X137486620Y-65500003D01*
X137506090Y-65697694D01*
X137506091Y-65697700D01*
X137506092Y-65697701D01*
X137530386Y-65777789D01*
X137565556Y-65893728D01*
X137563977Y-65894206D01*
X137570720Y-65956858D01*
X137538948Y-66020348D01*
X137477894Y-66056583D01*
X137446720Y-66060500D01*
X133763742Y-66060500D01*
X133747510Y-66058708D01*
X133747487Y-66058958D01*
X133739594Y-66058211D01*
X133669008Y-66060430D01*
X133666789Y-66060500D01*
X133635699Y-66060500D01*
X133628353Y-66061427D01*
X133622440Y-66061893D01*
X133573303Y-66063437D01*
X133573301Y-66063437D01*
X133573300Y-66063438D01*
X133552702Y-66069421D01*
X133533352Y-66073428D01*
X133512071Y-66076116D01*
X133512066Y-66076118D01*
X133466345Y-66094219D01*
X133460730Y-66096141D01*
X133413537Y-66109852D01*
X133413529Y-66109855D01*
X133395072Y-66120771D01*
X133377324Y-66129466D01*
X133370327Y-66132237D01*
X133357375Y-66137365D01*
X133357370Y-66137368D01*
X133317592Y-66166268D01*
X133312641Y-66169520D01*
X133278420Y-66189759D01*
X133270322Y-66194549D01*
X133255160Y-66209711D01*
X133240133Y-66222545D01*
X133222777Y-66235156D01*
X133222774Y-66235158D01*
X133191425Y-66273051D01*
X133187429Y-66277442D01*
X131855275Y-67609595D01*
X131792963Y-67643621D01*
X131766180Y-67646500D01*
X130134500Y-67646500D01*
X130066379Y-67626498D01*
X130019886Y-67572842D01*
X130008500Y-67520500D01*
X130008500Y-66536367D01*
X130008499Y-66536350D01*
X130001990Y-66475804D01*
X130001989Y-66475800D01*
X129990140Y-66444031D01*
X129985076Y-66373215D01*
X129990138Y-66355972D01*
X130001989Y-66324201D01*
X130002031Y-66323816D01*
X130008499Y-66263649D01*
X130008500Y-66263632D01*
X130008500Y-65266367D01*
X130008499Y-65266350D01*
X130001990Y-65205803D01*
X130001989Y-65205801D01*
X130001989Y-65205799D01*
X129990140Y-65174033D01*
X129985074Y-65103221D01*
X129990137Y-65085974D01*
X130001989Y-65054201D01*
X130005281Y-65023585D01*
X130008499Y-64993649D01*
X130008500Y-64993632D01*
X130008500Y-63996367D01*
X130008499Y-63996350D01*
X130001990Y-63935803D01*
X130001988Y-63935795D01*
X129950889Y-63798797D01*
X129950887Y-63798792D01*
X129863261Y-63681738D01*
X129746207Y-63594112D01*
X129746203Y-63594110D01*
X129662137Y-63562755D01*
X129605301Y-63520208D01*
X129580491Y-63453688D01*
X129595583Y-63384314D01*
X129617069Y-63355611D01*
X130132278Y-62840402D01*
X130194588Y-62806379D01*
X130221371Y-62803500D01*
X131467271Y-62803500D01*
X131485531Y-62804830D01*
X131490427Y-62805547D01*
X131509501Y-62808341D01*
X131542858Y-62805422D01*
X131562097Y-62803740D01*
X131567590Y-62803500D01*
X131575888Y-62803500D01*
X131575892Y-62803500D01*
X131602224Y-62800421D01*
X131608808Y-62799652D01*
X131615572Y-62799060D01*
X131686138Y-62792887D01*
X131686144Y-62792884D01*
X131693330Y-62791402D01*
X131693343Y-62791468D01*
X131700699Y-62789836D01*
X131700684Y-62789771D01*
X131707816Y-62788079D01*
X131707825Y-62788079D01*
X131780777Y-62761526D01*
X131854450Y-62737114D01*
X131854452Y-62737112D01*
X131861101Y-62734012D01*
X131861130Y-62734074D01*
X131867915Y-62730789D01*
X131867885Y-62730729D01*
X131874436Y-62727437D01*
X131874444Y-62727435D01*
X131906257Y-62706510D01*
X131974163Y-62685786D01*
X132042492Y-62705065D01*
G37*
G04 #@! TD.AperFunction*
G04 #@! TA.AperFunction,Conductor*
G36*
X163710153Y-51038333D02*
G01*
X163778227Y-51058490D01*
X163824598Y-51112250D01*
X163834543Y-51182547D01*
X163804903Y-51247061D01*
X163753313Y-51282605D01*
X163752819Y-51282786D01*
X163750944Y-51283469D01*
X163726709Y-51291500D01*
X163677260Y-51307886D01*
X163670613Y-51310986D01*
X163670585Y-51310926D01*
X163663801Y-51314210D01*
X163663831Y-51314269D01*
X163657268Y-51317565D01*
X163592400Y-51360228D01*
X163526347Y-51400971D01*
X163520592Y-51405522D01*
X163520551Y-51405470D01*
X163514704Y-51410233D01*
X163514746Y-51410283D01*
X163509128Y-51414996D01*
X163455836Y-51471482D01*
X162009225Y-52918092D01*
X161995376Y-52930062D01*
X161975943Y-52944530D01*
X161942007Y-52984971D01*
X161938300Y-52989017D01*
X161932421Y-52994897D01*
X161932412Y-52994907D01*
X161911863Y-53020896D01*
X161875326Y-53064441D01*
X161861965Y-53080364D01*
X161857935Y-53086491D01*
X161857880Y-53086455D01*
X161853825Y-53092820D01*
X161853882Y-53092855D01*
X161850028Y-53099101D01*
X161817220Y-53169458D01*
X161782391Y-53238812D01*
X161779882Y-53245707D01*
X161779820Y-53245684D01*
X161777343Y-53252810D01*
X161777404Y-53252831D01*
X161775097Y-53259790D01*
X161766358Y-53302113D01*
X161760155Y-53332158D01*
X161759392Y-53335851D01*
X161753690Y-53359907D01*
X161718515Y-53421578D01*
X161697237Y-53438085D01*
X161676349Y-53450969D01*
X161550971Y-53576346D01*
X161550970Y-53576347D01*
X161532924Y-53605605D01*
X161489294Y-53676341D01*
X161486021Y-53681647D01*
X161433235Y-53729125D01*
X161378780Y-53741500D01*
X161366371Y-53741500D01*
X161298250Y-53721498D01*
X161277276Y-53704595D01*
X160081908Y-52509227D01*
X160069936Y-52495375D01*
X160055469Y-52475942D01*
X160055467Y-52475940D01*
X160015024Y-52442003D01*
X160010970Y-52438289D01*
X160005107Y-52432425D01*
X160000388Y-52428694D01*
X159979103Y-52411863D01*
X159919640Y-52361968D01*
X159919638Y-52361967D01*
X159919636Y-52361965D01*
X159913506Y-52357933D01*
X159913541Y-52357878D01*
X159907187Y-52353829D01*
X159907153Y-52353886D01*
X159900906Y-52350033D01*
X159830540Y-52317220D01*
X159784236Y-52293966D01*
X159761188Y-52282391D01*
X159761186Y-52282390D01*
X159761183Y-52282389D01*
X159754289Y-52279880D01*
X159754311Y-52279817D01*
X159747189Y-52277341D01*
X159747169Y-52277404D01*
X159740209Y-52275097D01*
X159664150Y-52259392D01*
X159588652Y-52241499D01*
X159581367Y-52240648D01*
X159581374Y-52240580D01*
X159573877Y-52239814D01*
X159573872Y-52239881D01*
X159566559Y-52239241D01*
X159566558Y-52239241D01*
X159488920Y-52241500D01*
X152460372Y-52241500D01*
X152392251Y-52221498D01*
X152354890Y-52184417D01*
X152340723Y-52162734D01*
X152340722Y-52162732D01*
X152188240Y-51997094D01*
X152188239Y-51997093D01*
X152188237Y-51997091D01*
X152105148Y-51932420D01*
X152010576Y-51858811D01*
X151812574Y-51751658D01*
X151812572Y-51751657D01*
X151812571Y-51751656D01*
X151599639Y-51678557D01*
X151599630Y-51678555D01*
X151555476Y-51671187D01*
X151377569Y-51641500D01*
X151152431Y-51641500D01*
X151004211Y-51666233D01*
X150930369Y-51678555D01*
X150930360Y-51678557D01*
X150717428Y-51751656D01*
X150717426Y-51751658D01*
X150521047Y-51857933D01*
X150519426Y-51858810D01*
X150519424Y-51858811D01*
X150341762Y-51997091D01*
X150280754Y-52063363D01*
X150219901Y-52099933D01*
X150148936Y-52097798D01*
X150090391Y-52057636D01*
X150069999Y-52022057D01*
X150026989Y-51906746D01*
X150025889Y-51903796D01*
X150025888Y-51903794D01*
X150025887Y-51903792D01*
X149938261Y-51786738D01*
X149821207Y-51699112D01*
X149821202Y-51699110D01*
X149684204Y-51648011D01*
X149684196Y-51648009D01*
X149623649Y-51641500D01*
X149623638Y-51641500D01*
X147826362Y-51641500D01*
X147826350Y-51641500D01*
X147765803Y-51648009D01*
X147765795Y-51648011D01*
X147628797Y-51699110D01*
X147628792Y-51699112D01*
X147511738Y-51786738D01*
X147424112Y-51903792D01*
X147424110Y-51903797D01*
X147373011Y-52040795D01*
X147373009Y-52040803D01*
X147366500Y-52101350D01*
X147366500Y-53898649D01*
X147373009Y-53959196D01*
X147373011Y-53959204D01*
X147424110Y-54096202D01*
X147424112Y-54096207D01*
X147511738Y-54213261D01*
X147628792Y-54300887D01*
X147628794Y-54300888D01*
X147628796Y-54300889D01*
X147673506Y-54317565D01*
X147765795Y-54351988D01*
X147765803Y-54351990D01*
X147826350Y-54358499D01*
X147826355Y-54358499D01*
X147826362Y-54358500D01*
X147826368Y-54358500D01*
X149623632Y-54358500D01*
X149623638Y-54358500D01*
X149623645Y-54358499D01*
X149623649Y-54358499D01*
X149684196Y-54351990D01*
X149684199Y-54351989D01*
X149684201Y-54351989D01*
X149821204Y-54300889D01*
X149845915Y-54282391D01*
X149938261Y-54213261D01*
X150025886Y-54096208D01*
X150025885Y-54096208D01*
X150025889Y-54096204D01*
X150069999Y-53977939D01*
X150112545Y-53921107D01*
X150179066Y-53896296D01*
X150248440Y-53911388D01*
X150280753Y-53936635D01*
X150341699Y-54002840D01*
X150341762Y-54002908D01*
X150396331Y-54045381D01*
X150519424Y-54141189D01*
X150717426Y-54248342D01*
X150717427Y-54248342D01*
X150717428Y-54248343D01*
X150816607Y-54282391D01*
X150930365Y-54321444D01*
X151152431Y-54358500D01*
X151152435Y-54358500D01*
X151377565Y-54358500D01*
X151377569Y-54358500D01*
X151599635Y-54321444D01*
X151812574Y-54248342D01*
X152010576Y-54141189D01*
X152188240Y-54002906D01*
X152340722Y-53837268D01*
X152354889Y-53815583D01*
X152408895Y-53769495D01*
X152460372Y-53758500D01*
X159133629Y-53758500D01*
X159201750Y-53778502D01*
X159222724Y-53795405D01*
X159535520Y-54108201D01*
X159569546Y-54170513D01*
X159564481Y-54241328D01*
X159521934Y-54298164D01*
X159455414Y-54322975D01*
X159402152Y-54315262D01*
X159390761Y-54310987D01*
X159334024Y-54289693D01*
X159334019Y-54289691D01*
X159134770Y-54253533D01*
X159112547Y-54249500D01*
X158943845Y-54249500D01*
X158914823Y-54252112D01*
X158775810Y-54264622D01*
X158775810Y-54264623D01*
X158558832Y-54324505D01*
X158356031Y-54422168D01*
X158356023Y-54422173D01*
X158173921Y-54554478D01*
X158173920Y-54554479D01*
X158018369Y-54717172D01*
X157894367Y-54905027D01*
X157894363Y-54905035D01*
X157805897Y-55112011D01*
X157805896Y-55112013D01*
X157755809Y-55331461D01*
X157755809Y-55331463D01*
X157748469Y-55494907D01*
X157745710Y-55556330D01*
X157762519Y-55680421D01*
X157775925Y-55779390D01*
X157845484Y-55993467D01*
X157952144Y-56191675D01*
X157952148Y-56191682D01*
X158092493Y-56367667D01*
X158266265Y-56519488D01*
X158264820Y-56521141D01*
X158302334Y-56569802D01*
X158308400Y-56640539D01*
X158275260Y-56703326D01*
X158213435Y-56738229D01*
X158184913Y-56741500D01*
X157159539Y-56741500D01*
X157091418Y-56721498D01*
X157052298Y-56681647D01*
X157049029Y-56676347D01*
X157049024Y-56676341D01*
X156923658Y-56550975D01*
X156923652Y-56550970D01*
X156885306Y-56527318D01*
X156772738Y-56457885D01*
X156688582Y-56429999D01*
X156604427Y-56402113D01*
X156604420Y-56402112D01*
X156500553Y-56391500D01*
X155499455Y-56391500D01*
X155395574Y-56402112D01*
X155227261Y-56457885D01*
X155076347Y-56550970D01*
X155076341Y-56550975D01*
X154950975Y-56676341D01*
X154950970Y-56676347D01*
X154857885Y-56827262D01*
X154802113Y-56995572D01*
X154802112Y-56995579D01*
X154791500Y-57099446D01*
X154791500Y-57900544D01*
X154802112Y-58004425D01*
X154857885Y-58172738D01*
X154950970Y-58323652D01*
X154950975Y-58323658D01*
X155076341Y-58449024D01*
X155076345Y-58449027D01*
X155076348Y-58449030D01*
X155181647Y-58513979D01*
X155229125Y-58566763D01*
X155241500Y-58621219D01*
X155241500Y-60633628D01*
X155221498Y-60701749D01*
X155204595Y-60722723D01*
X150957724Y-64969595D01*
X150895412Y-65003621D01*
X150868629Y-65006500D01*
X147634500Y-65006500D01*
X147566379Y-64986498D01*
X147519886Y-64932842D01*
X147508500Y-64880500D01*
X147508500Y-63996367D01*
X147508499Y-63996350D01*
X147501990Y-63935803D01*
X147501989Y-63935801D01*
X147501989Y-63935799D01*
X147499279Y-63928535D01*
X147494213Y-63857720D01*
X147528236Y-63795407D01*
X147590547Y-63761380D01*
X147617334Y-63758500D01*
X147878780Y-63758500D01*
X147946901Y-63778502D01*
X147986020Y-63818352D01*
X147991516Y-63827262D01*
X148050970Y-63923652D01*
X148050975Y-63923658D01*
X148176341Y-64049024D01*
X148176347Y-64049029D01*
X148176348Y-64049030D01*
X148327262Y-64142115D01*
X148495574Y-64197887D01*
X148599455Y-64208500D01*
X149400544Y-64208499D01*
X149504426Y-64197887D01*
X149672738Y-64142115D01*
X149823652Y-64049030D01*
X149949030Y-63923652D01*
X150042115Y-63772738D01*
X150097887Y-63604426D01*
X150108500Y-63500545D01*
X150108499Y-62499456D01*
X150108340Y-62497904D01*
X150097887Y-62395574D01*
X150080377Y-62342732D01*
X150042115Y-62227262D01*
X149949030Y-62076348D01*
X149949029Y-62076347D01*
X149949024Y-62076341D01*
X149823658Y-61950975D01*
X149823652Y-61950970D01*
X149787226Y-61928502D01*
X149672738Y-61857885D01*
X149588581Y-61829998D01*
X149504427Y-61802113D01*
X149504420Y-61802112D01*
X149400553Y-61791500D01*
X148599455Y-61791500D01*
X148495574Y-61802112D01*
X148327261Y-61857885D01*
X148176347Y-61950970D01*
X148176341Y-61950975D01*
X148050975Y-62076341D01*
X148050970Y-62076347D01*
X148011216Y-62140799D01*
X147988425Y-62177750D01*
X147986021Y-62181647D01*
X147933235Y-62229125D01*
X147878780Y-62241500D01*
X147064441Y-62241500D01*
X147046181Y-62240170D01*
X147022211Y-62236659D01*
X146969615Y-62241260D01*
X146964122Y-62241500D01*
X146955818Y-62241500D01*
X146933876Y-62244064D01*
X146922905Y-62245347D01*
X146919888Y-62245611D01*
X146845577Y-62252112D01*
X146838386Y-62253597D01*
X146838372Y-62253532D01*
X146831014Y-62255163D01*
X146831030Y-62255228D01*
X146823889Y-62256920D01*
X146750944Y-62283469D01*
X146677260Y-62307885D01*
X146670613Y-62310986D01*
X146670585Y-62310926D01*
X146663801Y-62314210D01*
X146663831Y-62314269D01*
X146657268Y-62317565D01*
X146592400Y-62360228D01*
X146526347Y-62400971D01*
X146520592Y-62405522D01*
X146520551Y-62405470D01*
X146514704Y-62410233D01*
X146514746Y-62410283D01*
X146509128Y-62414996D01*
X146455836Y-62471482D01*
X145973595Y-62953722D01*
X145911283Y-62987748D01*
X145840468Y-62982683D01*
X145783632Y-62940136D01*
X145758821Y-62873616D01*
X145758500Y-62864627D01*
X145758500Y-61451147D01*
X145759831Y-61432884D01*
X145763340Y-61408928D01*
X145763341Y-61408923D01*
X145760882Y-61380817D01*
X145758740Y-61356325D01*
X145758500Y-61350832D01*
X145758500Y-61342536D01*
X145757764Y-61336241D01*
X145754652Y-61309617D01*
X145747887Y-61232285D01*
X145747886Y-61232282D01*
X145747886Y-61232280D01*
X145746403Y-61225099D01*
X145746469Y-61225085D01*
X145744839Y-61217731D01*
X145744773Y-61217747D01*
X145743079Y-61210605D01*
X145743079Y-61210599D01*
X145716530Y-61137656D01*
X145692114Y-61063973D01*
X145692110Y-61063967D01*
X145689014Y-61057327D01*
X145689076Y-61057298D01*
X145685791Y-61050512D01*
X145685731Y-61050543D01*
X145682437Y-61043984D01*
X145682435Y-61043982D01*
X145682435Y-61043980D01*
X145639767Y-60979107D01*
X145599029Y-60913060D01*
X145599028Y-60913059D01*
X145594476Y-60907302D01*
X145594529Y-60907259D01*
X145589766Y-60901412D01*
X145589715Y-60901456D01*
X145584998Y-60895834D01*
X145528518Y-60842549D01*
X145085965Y-60399996D01*
X144595189Y-59909220D01*
X144583224Y-59895375D01*
X144576885Y-59886860D01*
X144568757Y-59875942D01*
X144568427Y-59875665D01*
X144528312Y-59842003D01*
X144524258Y-59838289D01*
X144518395Y-59832425D01*
X144492392Y-59811864D01*
X144492391Y-59811863D01*
X144432928Y-59761968D01*
X144432926Y-59761967D01*
X144432924Y-59761965D01*
X144426794Y-59757933D01*
X144426829Y-59757878D01*
X144420475Y-59753829D01*
X144420441Y-59753886D01*
X144414194Y-59750033D01*
X144343828Y-59717220D01*
X144335945Y-59713261D01*
X144274476Y-59682391D01*
X144274474Y-59682390D01*
X144274471Y-59682389D01*
X144267577Y-59679880D01*
X144267599Y-59679817D01*
X144260477Y-59677341D01*
X144260457Y-59677404D01*
X144253497Y-59675097D01*
X144177438Y-59659392D01*
X144101940Y-59641499D01*
X144094655Y-59640648D01*
X144094662Y-59640580D01*
X144087165Y-59639814D01*
X144087160Y-59639881D01*
X144079847Y-59639241D01*
X144079846Y-59639241D01*
X144002208Y-59641500D01*
X136250558Y-59641500D01*
X136182437Y-59621498D01*
X136170625Y-59612899D01*
X136103007Y-59557407D01*
X136103007Y-59557406D01*
X135927804Y-59463759D01*
X135737694Y-59406090D01*
X135540003Y-59386620D01*
X135539997Y-59386620D01*
X135342305Y-59406090D01*
X135152195Y-59463759D01*
X134976991Y-59557407D01*
X134974997Y-59558740D01*
X134973793Y-59559116D01*
X134971537Y-59560323D01*
X134971308Y-59559894D01*
X134907243Y-59579952D01*
X134838777Y-59561166D01*
X134835003Y-59558740D01*
X134833008Y-59557407D01*
X134657804Y-59463759D01*
X134467694Y-59406090D01*
X134270003Y-59386620D01*
X134269997Y-59386620D01*
X134072305Y-59406090D01*
X133882195Y-59463759D01*
X133706991Y-59557407D01*
X133704997Y-59558740D01*
X133703793Y-59559116D01*
X133701537Y-59560323D01*
X133701308Y-59559894D01*
X133637243Y-59579952D01*
X133568777Y-59561166D01*
X133565003Y-59558740D01*
X133563008Y-59557407D01*
X133387804Y-59463759D01*
X133197694Y-59406090D01*
X133000003Y-59386620D01*
X132999997Y-59386620D01*
X132802305Y-59406090D01*
X132612195Y-59463759D01*
X132436989Y-59557408D01*
X132434989Y-59558745D01*
X132433783Y-59559122D01*
X132431537Y-59560323D01*
X132431309Y-59559896D01*
X132367234Y-59579952D01*
X132298769Y-59561162D01*
X132294995Y-59558736D01*
X132293008Y-59557408D01*
X132293004Y-59557405D01*
X132117804Y-59463759D01*
X131927701Y-59406092D01*
X131927700Y-59406091D01*
X131927694Y-59406090D01*
X131730003Y-59386620D01*
X131729997Y-59386620D01*
X131532305Y-59406090D01*
X131342195Y-59463759D01*
X131166995Y-59557405D01*
X131013432Y-59683432D01*
X130887405Y-59836995D01*
X130793759Y-60012195D01*
X130736090Y-60202305D01*
X130716620Y-60399996D01*
X130716620Y-60400003D01*
X130726779Y-60503150D01*
X130713550Y-60572903D01*
X130664710Y-60624431D01*
X130601386Y-60641500D01*
X129664441Y-60641500D01*
X129646181Y-60640170D01*
X129622211Y-60636659D01*
X129569615Y-60641260D01*
X129564122Y-60641500D01*
X129555818Y-60641500D01*
X129533876Y-60644064D01*
X129522905Y-60645347D01*
X129513732Y-60646149D01*
X129445577Y-60652112D01*
X129438386Y-60653597D01*
X129438372Y-60653532D01*
X129431014Y-60655163D01*
X129431030Y-60655228D01*
X129423889Y-60656920D01*
X129350944Y-60683469D01*
X129277260Y-60707885D01*
X129270613Y-60710986D01*
X129270585Y-60710926D01*
X129263801Y-60714210D01*
X129263831Y-60714269D01*
X129257268Y-60717565D01*
X129192400Y-60760228D01*
X129126347Y-60800971D01*
X129120592Y-60805522D01*
X129120551Y-60805470D01*
X129114704Y-60810233D01*
X129114746Y-60810283D01*
X129109128Y-60814996D01*
X129055836Y-60871482D01*
X127973594Y-61953723D01*
X127911282Y-61987749D01*
X127840467Y-61982684D01*
X127783631Y-61940137D01*
X127758820Y-61873617D01*
X127758499Y-61864628D01*
X127758499Y-59799305D01*
X127758499Y-57621215D01*
X127778501Y-57553098D01*
X127818349Y-57513981D01*
X127914870Y-57454446D01*
X127929899Y-57445177D01*
X127930903Y-57446804D01*
X127987676Y-57423894D01*
X128057426Y-57437137D01*
X128070055Y-57445253D01*
X128070102Y-57445177D01*
X128076346Y-57449028D01*
X128076348Y-57449030D01*
X128227262Y-57542115D01*
X128395574Y-57597887D01*
X128499455Y-57608500D01*
X129500544Y-57608499D01*
X129604426Y-57597887D01*
X129772738Y-57542115D01*
X129923652Y-57449030D01*
X130049030Y-57323652D01*
X130142115Y-57172738D01*
X130197887Y-57004426D01*
X130208500Y-56900545D01*
X130208499Y-56099456D01*
X130197887Y-55995574D01*
X130142115Y-55827262D01*
X130049030Y-55676348D01*
X130049029Y-55676347D01*
X130049024Y-55676341D01*
X129961778Y-55589095D01*
X129927752Y-55526783D01*
X129932817Y-55455968D01*
X129961778Y-55410905D01*
X130049024Y-55323658D01*
X130049030Y-55323652D01*
X130052298Y-55318352D01*
X130105084Y-55270875D01*
X130159539Y-55258500D01*
X132633629Y-55258500D01*
X132701750Y-55278502D01*
X132722724Y-55295405D01*
X134154595Y-56727276D01*
X134188621Y-56789588D01*
X134191500Y-56816371D01*
X134191500Y-57175508D01*
X134190170Y-57193768D01*
X134186659Y-57217735D01*
X134186659Y-57217743D01*
X134188625Y-57240206D01*
X134190460Y-57261186D01*
X134191260Y-57270321D01*
X134191500Y-57275815D01*
X134191500Y-57284131D01*
X134195347Y-57317043D01*
X134202112Y-57394368D01*
X134203596Y-57401555D01*
X134203531Y-57401568D01*
X134205165Y-57408938D01*
X134205229Y-57408924D01*
X134206921Y-57416065D01*
X134226835Y-57470776D01*
X134233473Y-57489014D01*
X134240747Y-57510965D01*
X134257885Y-57562685D01*
X134260987Y-57569337D01*
X134260926Y-57569365D01*
X134264211Y-57576151D01*
X134264270Y-57576122D01*
X134267560Y-57582673D01*
X134310233Y-57647554D01*
X134350967Y-57713597D01*
X134355522Y-57719357D01*
X134355468Y-57719399D01*
X134360228Y-57725241D01*
X134360279Y-57725199D01*
X134364993Y-57730817D01*
X134364998Y-57730822D01*
X134364999Y-57730823D01*
X134421482Y-57784112D01*
X135128149Y-58490779D01*
X135140116Y-58504627D01*
X135140688Y-58505396D01*
X135154582Y-58524058D01*
X135184341Y-58549029D01*
X135195026Y-58557994D01*
X135199072Y-58561702D01*
X135204950Y-58567580D01*
X135230947Y-58588136D01*
X135290411Y-58638032D01*
X135290417Y-58638035D01*
X135296546Y-58642067D01*
X135296508Y-58642123D01*
X135302864Y-58646172D01*
X135302900Y-58646115D01*
X135309140Y-58649963D01*
X135309145Y-58649967D01*
X135379504Y-58682775D01*
X135448863Y-58717609D01*
X135448870Y-58717610D01*
X135455758Y-58720118D01*
X135455735Y-58720180D01*
X135462861Y-58722657D01*
X135462882Y-58722595D01*
X135469839Y-58724899D01*
X135469844Y-58724902D01*
X135545873Y-58740600D01*
X135583634Y-58749550D01*
X135621394Y-58758500D01*
X135628683Y-58759352D01*
X135628675Y-58759418D01*
X135636173Y-58760184D01*
X135636179Y-58760118D01*
X135643486Y-58760756D01*
X135643493Y-58760758D01*
X135721096Y-58758500D01*
X147408498Y-58758500D01*
X147948059Y-58758500D01*
X147966319Y-58759830D01*
X147971215Y-58760547D01*
X147990289Y-58763341D01*
X148023646Y-58760422D01*
X148042885Y-58758740D01*
X148048378Y-58758500D01*
X148716506Y-58758500D01*
X148741388Y-58756541D01*
X148753831Y-58755562D01*
X148913601Y-58709145D01*
X148913603Y-58709143D01*
X148913605Y-58709143D01*
X149013665Y-58649967D01*
X149056807Y-58624453D01*
X149174453Y-58506807D01*
X149224312Y-58422501D01*
X149259143Y-58363605D01*
X149259143Y-58363603D01*
X149259145Y-58363601D01*
X149305562Y-58203831D01*
X149308009Y-58172738D01*
X149308500Y-58166506D01*
X149308500Y-57733494D01*
X149305562Y-57696170D01*
X149280092Y-57608500D01*
X149259145Y-57536399D01*
X149259143Y-57536397D01*
X149259143Y-57536394D01*
X149174455Y-57393196D01*
X149174450Y-57393189D01*
X149056810Y-57275549D01*
X149056803Y-57275544D01*
X148913605Y-57190856D01*
X148753829Y-57144437D01*
X148716506Y-57141500D01*
X148716502Y-57141500D01*
X147408498Y-57141500D01*
X147408494Y-57141500D01*
X147371170Y-57144437D01*
X147211396Y-57190856D01*
X147181563Y-57208500D01*
X147155432Y-57223953D01*
X147091294Y-57241500D01*
X146635371Y-57241500D01*
X146567250Y-57221498D01*
X146520757Y-57167842D01*
X146510653Y-57097568D01*
X146540147Y-57032988D01*
X146546276Y-57026405D01*
X146777276Y-56795405D01*
X146839588Y-56761379D01*
X146866371Y-56758500D01*
X147091294Y-56758500D01*
X147155432Y-56776046D01*
X147211399Y-56809145D01*
X147371169Y-56855562D01*
X147378634Y-56856149D01*
X147408494Y-56858500D01*
X147408498Y-56858500D01*
X148716506Y-56858500D01*
X148741388Y-56856541D01*
X148753831Y-56855562D01*
X148913601Y-56809145D01*
X148913603Y-56809143D01*
X148913605Y-56809143D01*
X149012764Y-56750500D01*
X149056807Y-56724453D01*
X149174453Y-56606807D01*
X149225116Y-56521141D01*
X149259143Y-56463605D01*
X149259143Y-56463603D01*
X149259145Y-56463601D01*
X149305562Y-56303831D01*
X149308500Y-56266502D01*
X149308500Y-55833498D01*
X149308157Y-55829146D01*
X149305562Y-55796170D01*
X149305340Y-55795405D01*
X149259145Y-55636399D01*
X149259143Y-55636397D01*
X149259143Y-55636394D01*
X149174455Y-55493196D01*
X149174450Y-55493189D01*
X149056810Y-55375549D01*
X149056803Y-55375544D01*
X148913605Y-55290856D01*
X148753829Y-55244437D01*
X148716506Y-55241500D01*
X148716502Y-55241500D01*
X148102872Y-55241500D01*
X148086377Y-55239814D01*
X148086372Y-55239881D01*
X148079059Y-55239241D01*
X148079058Y-55239241D01*
X148001420Y-55241500D01*
X146564441Y-55241500D01*
X146546181Y-55240170D01*
X146522211Y-55236659D01*
X146469615Y-55241260D01*
X146464122Y-55241500D01*
X146455818Y-55241500D01*
X146433876Y-55244064D01*
X146422905Y-55245347D01*
X146413732Y-55246149D01*
X146345577Y-55252112D01*
X146338386Y-55253597D01*
X146338372Y-55253532D01*
X146331014Y-55255163D01*
X146331030Y-55255228D01*
X146323889Y-55256920D01*
X146250944Y-55283469D01*
X146177260Y-55307885D01*
X146170613Y-55310986D01*
X146170585Y-55310926D01*
X146163801Y-55314210D01*
X146163831Y-55314269D01*
X146157268Y-55317565D01*
X146092400Y-55360228D01*
X146026347Y-55400971D01*
X146020592Y-55405522D01*
X146020551Y-55405470D01*
X146014704Y-55410233D01*
X146014746Y-55410283D01*
X146009128Y-55414996D01*
X145963088Y-55463795D01*
X145955836Y-55471482D01*
X144849722Y-56577596D01*
X144787412Y-56611620D01*
X144760629Y-56614500D01*
X141239371Y-56614500D01*
X141171250Y-56594498D01*
X141150276Y-56577595D01*
X140624401Y-56051720D01*
X140590375Y-55989408D01*
X140595440Y-55918593D01*
X140637987Y-55861757D01*
X140704507Y-55836946D01*
X140746102Y-55840917D01*
X140916663Y-55886619D01*
X141346686Y-55962444D01*
X141346686Y-55962443D01*
X141781673Y-56000500D01*
X141781674Y-56000500D01*
X142218326Y-56000500D01*
X142218327Y-56000500D01*
X142653314Y-55962443D01*
X142653314Y-55962444D01*
X143083337Y-55886619D01*
X143505117Y-55773604D01*
X143505116Y-55773604D01*
X143844445Y-55650098D01*
X143915432Y-55624261D01*
X144009578Y-55580360D01*
X144311173Y-55439724D01*
X144311172Y-55439724D01*
X144311174Y-55439723D01*
X144422335Y-55375544D01*
X144689318Y-55221402D01*
X144689321Y-55221399D01*
X144689326Y-55221397D01*
X145047012Y-54970943D01*
X145381507Y-54690268D01*
X145690264Y-54381511D01*
X145690263Y-54381513D01*
X145692963Y-54378295D01*
X145720898Y-54345002D01*
X145721645Y-54344505D01*
X145727949Y-54336600D01*
X145970943Y-54047012D01*
X146001873Y-54002839D01*
X146004035Y-54001110D01*
X146019699Y-53977380D01*
X146221397Y-53689326D01*
X146251501Y-53637183D01*
X146254840Y-53633999D01*
X146275433Y-53595732D01*
X146275446Y-53595711D01*
X146439723Y-53311174D01*
X146467830Y-53250899D01*
X146472079Y-53246072D01*
X146494046Y-53194676D01*
X146624261Y-52915432D01*
X146649161Y-52847018D01*
X146654032Y-52840402D01*
X146674521Y-52777342D01*
X146767971Y-52520592D01*
X146773603Y-52505118D01*
X146776214Y-52495375D01*
X146794079Y-52428699D01*
X146799272Y-52420179D01*
X146815993Y-52346914D01*
X146886619Y-52083337D01*
X146901453Y-51999208D01*
X146906652Y-51988716D01*
X146917753Y-51906765D01*
X146950421Y-51721498D01*
X146962444Y-51653314D01*
X146962443Y-51653315D01*
X146970429Y-51562035D01*
X146975318Y-51549536D01*
X146979321Y-51460397D01*
X147000500Y-51218327D01*
X147000500Y-51126785D01*
X147020502Y-51058665D01*
X147074158Y-51012172D01*
X147126780Y-51000786D01*
X163710153Y-51038333D01*
G37*
G04 #@! TD.AperFunction*
G04 #@! TA.AperFunction,Conductor*
G36*
X143715038Y-61178502D02*
G01*
X143736012Y-61195405D01*
X144204595Y-61663988D01*
X144238621Y-61726300D01*
X144241500Y-61753083D01*
X144241500Y-62035908D01*
X144221498Y-62104029D01*
X144167842Y-62150522D01*
X144097568Y-62160626D01*
X144039991Y-62136776D01*
X143916207Y-62044112D01*
X143916202Y-62044110D01*
X143779204Y-61993011D01*
X143779196Y-61993009D01*
X143718649Y-61986500D01*
X143718638Y-61986500D01*
X142721362Y-61986500D01*
X142721350Y-61986500D01*
X142660804Y-61993009D01*
X142660801Y-61993010D01*
X142629030Y-62004860D01*
X142558214Y-62009923D01*
X142540970Y-62004860D01*
X142538117Y-62003796D01*
X142509201Y-61993011D01*
X142509200Y-61993010D01*
X142509198Y-61993010D01*
X142509195Y-61993009D01*
X142448649Y-61986500D01*
X142448638Y-61986500D01*
X141451362Y-61986500D01*
X141451350Y-61986500D01*
X141390804Y-61993009D01*
X141390801Y-61993010D01*
X141359030Y-62004860D01*
X141288214Y-62009923D01*
X141270970Y-62004860D01*
X141268117Y-62003796D01*
X141239201Y-61993011D01*
X141239200Y-61993010D01*
X141239198Y-61993010D01*
X141239195Y-61993009D01*
X141178649Y-61986500D01*
X141178638Y-61986500D01*
X140181362Y-61986500D01*
X140181350Y-61986500D01*
X140120804Y-61993009D01*
X140120801Y-61993010D01*
X140089030Y-62004860D01*
X140018214Y-62009923D01*
X140000970Y-62004860D01*
X139998117Y-62003796D01*
X139969201Y-61993011D01*
X139969200Y-61993010D01*
X139969198Y-61993010D01*
X139969195Y-61993009D01*
X139908649Y-61986500D01*
X139908638Y-61986500D01*
X138911362Y-61986500D01*
X138911350Y-61986500D01*
X138850804Y-61993009D01*
X138850801Y-61993010D01*
X138819030Y-62004860D01*
X138748214Y-62009923D01*
X138730970Y-62004860D01*
X138728117Y-62003796D01*
X138699201Y-61993011D01*
X138699200Y-61993010D01*
X138699198Y-61993010D01*
X138699195Y-61993009D01*
X138638649Y-61986500D01*
X138638638Y-61986500D01*
X137641362Y-61986500D01*
X137641350Y-61986500D01*
X137580804Y-61993009D01*
X137580801Y-61993010D01*
X137549030Y-62004860D01*
X137478214Y-62009923D01*
X137460970Y-62004860D01*
X137458117Y-62003796D01*
X137429201Y-61993011D01*
X137429200Y-61993010D01*
X137429198Y-61993010D01*
X137429195Y-61993009D01*
X137368649Y-61986500D01*
X137368638Y-61986500D01*
X136371362Y-61986500D01*
X136371350Y-61986500D01*
X136310804Y-61993009D01*
X136310801Y-61993010D01*
X136279030Y-62004860D01*
X136208214Y-62009923D01*
X136190970Y-62004860D01*
X136188117Y-62003796D01*
X136159201Y-61993011D01*
X136159200Y-61993010D01*
X136159198Y-61993010D01*
X136159195Y-61993009D01*
X136098649Y-61986500D01*
X136098638Y-61986500D01*
X135101362Y-61986500D01*
X135101350Y-61986500D01*
X135040804Y-61993009D01*
X135040801Y-61993010D01*
X135009030Y-62004860D01*
X134938214Y-62009923D01*
X134920970Y-62004860D01*
X134918117Y-62003796D01*
X134889201Y-61993011D01*
X134889200Y-61993010D01*
X134889198Y-61993010D01*
X134889195Y-61993009D01*
X134828649Y-61986500D01*
X134828638Y-61986500D01*
X134390372Y-61986500D01*
X134322251Y-61966498D01*
X134275758Y-61912842D01*
X134265654Y-61842568D01*
X134295148Y-61777988D01*
X134301276Y-61771405D01*
X134410768Y-61661912D01*
X134760780Y-61311899D01*
X134774628Y-61299933D01*
X134794058Y-61285469D01*
X134810219Y-61266207D01*
X134869328Y-61226878D01*
X134940316Y-61225749D01*
X134971380Y-61239970D01*
X134971537Y-61239677D01*
X134976296Y-61242220D01*
X134976740Y-61242424D01*
X134976994Y-61242594D01*
X134976996Y-61242595D01*
X135152196Y-61336241D01*
X135342299Y-61393908D01*
X135342303Y-61393908D01*
X135342305Y-61393909D01*
X135539997Y-61413380D01*
X135540000Y-61413380D01*
X135540003Y-61413380D01*
X135737694Y-61393909D01*
X135737695Y-61393908D01*
X135737701Y-61393908D01*
X135927804Y-61336241D01*
X136103004Y-61242595D01*
X136103005Y-61242593D01*
X136103007Y-61242593D01*
X136103007Y-61242592D01*
X136128711Y-61221498D01*
X136170625Y-61187101D01*
X136235972Y-61159347D01*
X136250558Y-61158500D01*
X143646917Y-61158500D01*
X143715038Y-61178502D01*
G37*
G04 #@! TD.AperFunction*
G04 #@! TA.AperFunction,Conductor*
G36*
X171201749Y-52778502D02*
G01*
X171222723Y-52795404D01*
X171704595Y-53277275D01*
X171738620Y-53339588D01*
X171741500Y-53366371D01*
X171741500Y-56615500D01*
X171721498Y-56683621D01*
X171667842Y-56730114D01*
X171615500Y-56741500D01*
X168934500Y-56741500D01*
X168866379Y-56721498D01*
X168819886Y-56667842D01*
X168808500Y-56615500D01*
X168808500Y-56233494D01*
X168805562Y-56196170D01*
X168796094Y-56163581D01*
X168759145Y-56036399D01*
X168759143Y-56036397D01*
X168759143Y-56036394D01*
X168674455Y-55893196D01*
X168674450Y-55893189D01*
X168556810Y-55775549D01*
X168556803Y-55775544D01*
X168413605Y-55690856D01*
X168253829Y-55644437D01*
X168216506Y-55641500D01*
X168216502Y-55641500D01*
X166908498Y-55641500D01*
X166908494Y-55641500D01*
X166871170Y-55644437D01*
X166871167Y-55644438D01*
X166726398Y-55686497D01*
X166691246Y-55691500D01*
X165614441Y-55691500D01*
X165596181Y-55690170D01*
X165572211Y-55686659D01*
X165519615Y-55691260D01*
X165514122Y-55691500D01*
X165505817Y-55691500D01*
X165498259Y-55692383D01*
X165428277Y-55680421D01*
X165375872Y-55632522D01*
X165357682Y-55563895D01*
X165379482Y-55496329D01*
X165394538Y-55478143D01*
X165449030Y-55423652D01*
X165513979Y-55318352D01*
X165566765Y-55270875D01*
X165621220Y-55258500D01*
X166591294Y-55258500D01*
X166655432Y-55276046D01*
X166711399Y-55309145D01*
X166871169Y-55355562D01*
X166878634Y-55356149D01*
X166908494Y-55358500D01*
X166908498Y-55358500D01*
X168216506Y-55358500D01*
X168241388Y-55356541D01*
X168253831Y-55355562D01*
X168413601Y-55309145D01*
X168413603Y-55309143D01*
X168413605Y-55309143D01*
X168496501Y-55260118D01*
X168556807Y-55224453D01*
X168674453Y-55106807D01*
X168739236Y-54997266D01*
X168759143Y-54963605D01*
X168759143Y-54963603D01*
X168759145Y-54963601D01*
X168805562Y-54803831D01*
X168808500Y-54766502D01*
X168808500Y-54333498D01*
X168807792Y-54324507D01*
X168805562Y-54296170D01*
X168805562Y-54296169D01*
X168759145Y-54136399D01*
X168759143Y-54136397D01*
X168759143Y-54136394D01*
X168674455Y-53993196D01*
X168674450Y-53993189D01*
X168556810Y-53875549D01*
X168556803Y-53875544D01*
X168413605Y-53790856D01*
X168253829Y-53744437D01*
X168216506Y-53741500D01*
X168216502Y-53741500D01*
X167602872Y-53741500D01*
X167586377Y-53739814D01*
X167586372Y-53739881D01*
X167579059Y-53739241D01*
X167579058Y-53739241D01*
X167501420Y-53741500D01*
X165621220Y-53741500D01*
X165553099Y-53721498D01*
X165513979Y-53681647D01*
X165510710Y-53676347D01*
X165449030Y-53576348D01*
X165449028Y-53576346D01*
X165449024Y-53576341D01*
X165323658Y-53450975D01*
X165323652Y-53450970D01*
X165279372Y-53423658D01*
X165172738Y-53357885D01*
X165078481Y-53326652D01*
X165004427Y-53302113D01*
X165004420Y-53302112D01*
X164900553Y-53291500D01*
X164099449Y-53291500D01*
X164097282Y-53291722D01*
X164096814Y-53291635D01*
X164096246Y-53291664D01*
X164096239Y-53291527D01*
X164027483Y-53278734D01*
X163975786Y-53230073D01*
X163958605Y-53161186D01*
X163981393Y-53093947D01*
X163995394Y-53077286D01*
X164277276Y-52795404D01*
X164339589Y-52761379D01*
X164366372Y-52758500D01*
X171133628Y-52758500D01*
X171201749Y-52778502D01*
G37*
G04 #@! TD.AperFunction*
M02*
