G04 #@! TF.GenerationSoftware,KiCad,Pcbnew,7.0.6*
G04 #@! TF.CreationDate,2023-09-28T23:10:25+01:00*
G04 #@! TF.ProjectId,GalaxyModPCB,47616c61-7879-44d6-9f64-5043422e6b69,rev?*
G04 #@! TF.SameCoordinates,Original*
G04 #@! TF.FileFunction,Legend,Bot*
G04 #@! TF.FilePolarity,Positive*
%FSLAX46Y46*%
G04 Gerber Fmt 4.6, Leading zero omitted, Abs format (unit mm)*
G04 Created by KiCad (PCBNEW 7.0.6) date 2023-09-28 23:10:25*
%MOMM*%
%LPD*%
G01*
G04 APERTURE LIST*
G04 Aperture macros list*
%AMRoundRect*
0 Rectangle with rounded corners*
0 $1 Rounding radius*
0 $2 $3 $4 $5 $6 $7 $8 $9 X,Y pos of 4 corners*
0 Add a 4 corners polygon primitive as box body*
4,1,4,$2,$3,$4,$5,$6,$7,$8,$9,$2,$3,0*
0 Add four circle primitives for the rounded corners*
1,1,$1+$1,$2,$3*
1,1,$1+$1,$4,$5*
1,1,$1+$1,$6,$7*
1,1,$1+$1,$8,$9*
0 Add four rect primitives between the rounded corners*
20,1,$1+$1,$2,$3,$4,$5,0*
20,1,$1+$1,$4,$5,$6,$7,0*
20,1,$1+$1,$6,$7,$8,$9,0*
20,1,$1+$1,$8,$9,$2,$3,0*%
%AMFreePoly0*
4,1,6,1.000000,0.000000,0.500000,-0.750000,-0.500000,-0.750000,-0.500000,0.750000,0.500000,0.750000,1.000000,0.000000,1.000000,0.000000,$1*%
%AMFreePoly1*
4,1,6,0.500000,-0.750000,-0.650000,-0.750000,-0.150000,0.000000,-0.650000,0.750000,0.500000,0.750000,0.500000,-0.750000,0.500000,-0.750000,$1*%
G04 Aperture macros list end*
%ADD10C,0.150000*%
%ADD11C,0.120000*%
%ADD12C,2.500000*%
%ADD13C,2.000000*%
%ADD14RoundRect,0.250000X-0.250000X-0.475000X0.250000X-0.475000X0.250000X0.475000X-0.250000X0.475000X0*%
%ADD15RoundRect,0.250000X-0.450000X0.350000X-0.450000X-0.350000X0.450000X-0.350000X0.450000X0.350000X0*%
%ADD16RoundRect,0.250000X-0.350000X-0.450000X0.350000X-0.450000X0.350000X0.450000X-0.350000X0.450000X0*%
%ADD17RoundRect,0.250000X-0.475000X0.250000X-0.475000X-0.250000X0.475000X-0.250000X0.475000X0.250000X0*%
%ADD18R,1.700000X1.700000*%
%ADD19RoundRect,0.425000X-0.425000X0.425000X-0.425000X-0.425000X0.425000X-0.425000X0.425000X0.425000X0*%
%ADD20RoundRect,0.250000X0.350000X0.450000X-0.350000X0.450000X-0.350000X-0.450000X0.350000X-0.450000X0*%
%ADD21O,1.700000X1.700000*%
%ADD22RoundRect,0.250000X0.250000X0.475000X-0.250000X0.475000X-0.250000X-0.475000X0.250000X-0.475000X0*%
%ADD23RoundRect,0.150000X0.150000X-0.587500X0.150000X0.587500X-0.150000X0.587500X-0.150000X-0.587500X0*%
%ADD24R,3.500000X1.800000*%
%ADD25R,1.500000X0.900000*%
%ADD26R,0.900000X1.500000*%
%ADD27FreePoly0,0.000000*%
%ADD28FreePoly1,0.000000*%
%ADD29R,1.500000X2.000000*%
%ADD30R,3.800000X2.000000*%
%ADD31RoundRect,0.237500X0.287500X0.237500X-0.287500X0.237500X-0.287500X-0.237500X0.287500X-0.237500X0*%
G04 APERTURE END LIST*
D10*
X127761904Y-83431009D02*
X127428571Y-83431009D01*
X127285714Y-83954819D02*
X127761904Y-83954819D01*
X127761904Y-83954819D02*
X127761904Y-82954819D01*
X127761904Y-82954819D02*
X127285714Y-82954819D01*
X126904761Y-83907200D02*
X126761904Y-83954819D01*
X126761904Y-83954819D02*
X126523809Y-83954819D01*
X126523809Y-83954819D02*
X126428571Y-83907200D01*
X126428571Y-83907200D02*
X126380952Y-83859580D01*
X126380952Y-83859580D02*
X126333333Y-83764342D01*
X126333333Y-83764342D02*
X126333333Y-83669104D01*
X126333333Y-83669104D02*
X126380952Y-83573866D01*
X126380952Y-83573866D02*
X126428571Y-83526247D01*
X126428571Y-83526247D02*
X126523809Y-83478628D01*
X126523809Y-83478628D02*
X126714285Y-83431009D01*
X126714285Y-83431009D02*
X126809523Y-83383390D01*
X126809523Y-83383390D02*
X126857142Y-83335771D01*
X126857142Y-83335771D02*
X126904761Y-83240533D01*
X126904761Y-83240533D02*
X126904761Y-83145295D01*
X126904761Y-83145295D02*
X126857142Y-83050057D01*
X126857142Y-83050057D02*
X126809523Y-83002438D01*
X126809523Y-83002438D02*
X126714285Y-82954819D01*
X126714285Y-82954819D02*
X126476190Y-82954819D01*
X126476190Y-82954819D02*
X126333333Y-83002438D01*
X125904761Y-83954819D02*
X125904761Y-82954819D01*
X125904761Y-82954819D02*
X125523809Y-82954819D01*
X125523809Y-82954819D02*
X125428571Y-83002438D01*
X125428571Y-83002438D02*
X125380952Y-83050057D01*
X125380952Y-83050057D02*
X125333333Y-83145295D01*
X125333333Y-83145295D02*
X125333333Y-83288152D01*
X125333333Y-83288152D02*
X125380952Y-83383390D01*
X125380952Y-83383390D02*
X125428571Y-83431009D01*
X125428571Y-83431009D02*
X125523809Y-83478628D01*
X125523809Y-83478628D02*
X125904761Y-83478628D01*
X124904761Y-83573866D02*
X124142857Y-83573866D01*
X123761904Y-82954819D02*
X123142857Y-82954819D01*
X123142857Y-82954819D02*
X123476190Y-83335771D01*
X123476190Y-83335771D02*
X123333333Y-83335771D01*
X123333333Y-83335771D02*
X123238095Y-83383390D01*
X123238095Y-83383390D02*
X123190476Y-83431009D01*
X123190476Y-83431009D02*
X123142857Y-83526247D01*
X123142857Y-83526247D02*
X123142857Y-83764342D01*
X123142857Y-83764342D02*
X123190476Y-83859580D01*
X123190476Y-83859580D02*
X123238095Y-83907200D01*
X123238095Y-83907200D02*
X123333333Y-83954819D01*
X123333333Y-83954819D02*
X123619047Y-83954819D01*
X123619047Y-83954819D02*
X123714285Y-83907200D01*
X123714285Y-83907200D02*
X123761904Y-83859580D01*
X122761904Y-83050057D02*
X122714285Y-83002438D01*
X122714285Y-83002438D02*
X122619047Y-82954819D01*
X122619047Y-82954819D02*
X122380952Y-82954819D01*
X122380952Y-82954819D02*
X122285714Y-83002438D01*
X122285714Y-83002438D02*
X122238095Y-83050057D01*
X122238095Y-83050057D02*
X122190476Y-83145295D01*
X122190476Y-83145295D02*
X122190476Y-83240533D01*
X122190476Y-83240533D02*
X122238095Y-83383390D01*
X122238095Y-83383390D02*
X122809523Y-83954819D01*
X122809523Y-83954819D02*
X122190476Y-83954819D01*
X120916666Y-56609580D02*
X120964285Y-56657200D01*
X120964285Y-56657200D02*
X121107142Y-56704819D01*
X121107142Y-56704819D02*
X121202380Y-56704819D01*
X121202380Y-56704819D02*
X121345237Y-56657200D01*
X121345237Y-56657200D02*
X121440475Y-56561961D01*
X121440475Y-56561961D02*
X121488094Y-56466723D01*
X121488094Y-56466723D02*
X121535713Y-56276247D01*
X121535713Y-56276247D02*
X121535713Y-56133390D01*
X121535713Y-56133390D02*
X121488094Y-55942914D01*
X121488094Y-55942914D02*
X121440475Y-55847676D01*
X121440475Y-55847676D02*
X121345237Y-55752438D01*
X121345237Y-55752438D02*
X121202380Y-55704819D01*
X121202380Y-55704819D02*
X121107142Y-55704819D01*
X121107142Y-55704819D02*
X120964285Y-55752438D01*
X120964285Y-55752438D02*
X120916666Y-55800057D01*
X119964285Y-56704819D02*
X120535713Y-56704819D01*
X120249999Y-56704819D02*
X120249999Y-55704819D01*
X120249999Y-55704819D02*
X120345237Y-55847676D01*
X120345237Y-55847676D02*
X120440475Y-55942914D01*
X120440475Y-55942914D02*
X120535713Y-55990533D01*
X124166666Y-65454819D02*
X124499999Y-64978628D01*
X124738094Y-65454819D02*
X124738094Y-64454819D01*
X124738094Y-64454819D02*
X124357142Y-64454819D01*
X124357142Y-64454819D02*
X124261904Y-64502438D01*
X124261904Y-64502438D02*
X124214285Y-64550057D01*
X124214285Y-64550057D02*
X124166666Y-64645295D01*
X124166666Y-64645295D02*
X124166666Y-64788152D01*
X124166666Y-64788152D02*
X124214285Y-64883390D01*
X124214285Y-64883390D02*
X124261904Y-64931009D01*
X124261904Y-64931009D02*
X124357142Y-64978628D01*
X124357142Y-64978628D02*
X124738094Y-64978628D01*
X123214285Y-65454819D02*
X123785713Y-65454819D01*
X123499999Y-65454819D02*
X123499999Y-64454819D01*
X123499999Y-64454819D02*
X123595237Y-64597676D01*
X123595237Y-64597676D02*
X123690475Y-64692914D01*
X123690475Y-64692914D02*
X123785713Y-64740533D01*
X151666666Y-68454819D02*
X151999999Y-67978628D01*
X152238094Y-68454819D02*
X152238094Y-67454819D01*
X152238094Y-67454819D02*
X151857142Y-67454819D01*
X151857142Y-67454819D02*
X151761904Y-67502438D01*
X151761904Y-67502438D02*
X151714285Y-67550057D01*
X151714285Y-67550057D02*
X151666666Y-67645295D01*
X151666666Y-67645295D02*
X151666666Y-67788152D01*
X151666666Y-67788152D02*
X151714285Y-67883390D01*
X151714285Y-67883390D02*
X151761904Y-67931009D01*
X151761904Y-67931009D02*
X151857142Y-67978628D01*
X151857142Y-67978628D02*
X152238094Y-67978628D01*
X151095237Y-67883390D02*
X151190475Y-67835771D01*
X151190475Y-67835771D02*
X151238094Y-67788152D01*
X151238094Y-67788152D02*
X151285713Y-67692914D01*
X151285713Y-67692914D02*
X151285713Y-67645295D01*
X151285713Y-67645295D02*
X151238094Y-67550057D01*
X151238094Y-67550057D02*
X151190475Y-67502438D01*
X151190475Y-67502438D02*
X151095237Y-67454819D01*
X151095237Y-67454819D02*
X150904761Y-67454819D01*
X150904761Y-67454819D02*
X150809523Y-67502438D01*
X150809523Y-67502438D02*
X150761904Y-67550057D01*
X150761904Y-67550057D02*
X150714285Y-67645295D01*
X150714285Y-67645295D02*
X150714285Y-67692914D01*
X150714285Y-67692914D02*
X150761904Y-67788152D01*
X150761904Y-67788152D02*
X150809523Y-67835771D01*
X150809523Y-67835771D02*
X150904761Y-67883390D01*
X150904761Y-67883390D02*
X151095237Y-67883390D01*
X151095237Y-67883390D02*
X151190475Y-67931009D01*
X151190475Y-67931009D02*
X151238094Y-67978628D01*
X151238094Y-67978628D02*
X151285713Y-68073866D01*
X151285713Y-68073866D02*
X151285713Y-68264342D01*
X151285713Y-68264342D02*
X151238094Y-68359580D01*
X151238094Y-68359580D02*
X151190475Y-68407200D01*
X151190475Y-68407200D02*
X151095237Y-68454819D01*
X151095237Y-68454819D02*
X150904761Y-68454819D01*
X150904761Y-68454819D02*
X150809523Y-68407200D01*
X150809523Y-68407200D02*
X150761904Y-68359580D01*
X150761904Y-68359580D02*
X150714285Y-68264342D01*
X150714285Y-68264342D02*
X150714285Y-68073866D01*
X150714285Y-68073866D02*
X150761904Y-67978628D01*
X150761904Y-67978628D02*
X150809523Y-67931009D01*
X150809523Y-67931009D02*
X150904761Y-67883390D01*
X129642857Y-60254819D02*
X129976190Y-59778628D01*
X130214285Y-60254819D02*
X130214285Y-59254819D01*
X130214285Y-59254819D02*
X129833333Y-59254819D01*
X129833333Y-59254819D02*
X129738095Y-59302438D01*
X129738095Y-59302438D02*
X129690476Y-59350057D01*
X129690476Y-59350057D02*
X129642857Y-59445295D01*
X129642857Y-59445295D02*
X129642857Y-59588152D01*
X129642857Y-59588152D02*
X129690476Y-59683390D01*
X129690476Y-59683390D02*
X129738095Y-59731009D01*
X129738095Y-59731009D02*
X129833333Y-59778628D01*
X129833333Y-59778628D02*
X130214285Y-59778628D01*
X128690476Y-60254819D02*
X129261904Y-60254819D01*
X128976190Y-60254819D02*
X128976190Y-59254819D01*
X128976190Y-59254819D02*
X129071428Y-59397676D01*
X129071428Y-59397676D02*
X129166666Y-59492914D01*
X129166666Y-59492914D02*
X129261904Y-59540533D01*
X128214285Y-60254819D02*
X128023809Y-60254819D01*
X128023809Y-60254819D02*
X127928571Y-60207200D01*
X127928571Y-60207200D02*
X127880952Y-60159580D01*
X127880952Y-60159580D02*
X127785714Y-60016723D01*
X127785714Y-60016723D02*
X127738095Y-59826247D01*
X127738095Y-59826247D02*
X127738095Y-59445295D01*
X127738095Y-59445295D02*
X127785714Y-59350057D01*
X127785714Y-59350057D02*
X127833333Y-59302438D01*
X127833333Y-59302438D02*
X127928571Y-59254819D01*
X127928571Y-59254819D02*
X128119047Y-59254819D01*
X128119047Y-59254819D02*
X128214285Y-59302438D01*
X128214285Y-59302438D02*
X128261904Y-59350057D01*
X128261904Y-59350057D02*
X128309523Y-59445295D01*
X128309523Y-59445295D02*
X128309523Y-59683390D01*
X128309523Y-59683390D02*
X128261904Y-59778628D01*
X128261904Y-59778628D02*
X128214285Y-59826247D01*
X128214285Y-59826247D02*
X128119047Y-59873866D01*
X128119047Y-59873866D02*
X127928571Y-59873866D01*
X127928571Y-59873866D02*
X127833333Y-59826247D01*
X127833333Y-59826247D02*
X127785714Y-59778628D01*
X127785714Y-59778628D02*
X127738095Y-59683390D01*
X122986666Y-71359580D02*
X123034285Y-71407200D01*
X123034285Y-71407200D02*
X123177142Y-71454819D01*
X123177142Y-71454819D02*
X123272380Y-71454819D01*
X123272380Y-71454819D02*
X123415237Y-71407200D01*
X123415237Y-71407200D02*
X123510475Y-71311961D01*
X123510475Y-71311961D02*
X123558094Y-71216723D01*
X123558094Y-71216723D02*
X123605713Y-71026247D01*
X123605713Y-71026247D02*
X123605713Y-70883390D01*
X123605713Y-70883390D02*
X123558094Y-70692914D01*
X123558094Y-70692914D02*
X123510475Y-70597676D01*
X123510475Y-70597676D02*
X123415237Y-70502438D01*
X123415237Y-70502438D02*
X123272380Y-70454819D01*
X123272380Y-70454819D02*
X123177142Y-70454819D01*
X123177142Y-70454819D02*
X123034285Y-70502438D01*
X123034285Y-70502438D02*
X122986666Y-70550057D01*
X122129523Y-70788152D02*
X122129523Y-71454819D01*
X122367618Y-70407200D02*
X122605713Y-71121485D01*
X122605713Y-71121485D02*
X121986666Y-71121485D01*
X151642857Y-76454819D02*
X151976190Y-75978628D01*
X152214285Y-76454819D02*
X152214285Y-75454819D01*
X152214285Y-75454819D02*
X151833333Y-75454819D01*
X151833333Y-75454819D02*
X151738095Y-75502438D01*
X151738095Y-75502438D02*
X151690476Y-75550057D01*
X151690476Y-75550057D02*
X151642857Y-75645295D01*
X151642857Y-75645295D02*
X151642857Y-75788152D01*
X151642857Y-75788152D02*
X151690476Y-75883390D01*
X151690476Y-75883390D02*
X151738095Y-75931009D01*
X151738095Y-75931009D02*
X151833333Y-75978628D01*
X151833333Y-75978628D02*
X152214285Y-75978628D01*
X150690476Y-76454819D02*
X151261904Y-76454819D01*
X150976190Y-76454819D02*
X150976190Y-75454819D01*
X150976190Y-75454819D02*
X151071428Y-75597676D01*
X151071428Y-75597676D02*
X151166666Y-75692914D01*
X151166666Y-75692914D02*
X151261904Y-75740533D01*
X150309523Y-75550057D02*
X150261904Y-75502438D01*
X150261904Y-75502438D02*
X150166666Y-75454819D01*
X150166666Y-75454819D02*
X149928571Y-75454819D01*
X149928571Y-75454819D02*
X149833333Y-75502438D01*
X149833333Y-75502438D02*
X149785714Y-75550057D01*
X149785714Y-75550057D02*
X149738095Y-75645295D01*
X149738095Y-75645295D02*
X149738095Y-75740533D01*
X149738095Y-75740533D02*
X149785714Y-75883390D01*
X149785714Y-75883390D02*
X150357142Y-76454819D01*
X150357142Y-76454819D02*
X149738095Y-76454819D01*
X132583333Y-59204819D02*
X132583333Y-59919104D01*
X132583333Y-59919104D02*
X132630952Y-60061961D01*
X132630952Y-60061961D02*
X132726190Y-60157200D01*
X132726190Y-60157200D02*
X132869047Y-60204819D01*
X132869047Y-60204819D02*
X132964285Y-60204819D01*
X131678571Y-59538152D02*
X131678571Y-60204819D01*
X131916666Y-59157200D02*
X132154761Y-59871485D01*
X132154761Y-59871485D02*
X131535714Y-59871485D01*
X141966666Y-57054819D02*
X141966666Y-57769104D01*
X141966666Y-57769104D02*
X142014285Y-57911961D01*
X142014285Y-57911961D02*
X142109523Y-58007200D01*
X142109523Y-58007200D02*
X142252380Y-58054819D01*
X142252380Y-58054819D02*
X142347618Y-58054819D01*
X141633332Y-57054819D02*
X141061904Y-57054819D01*
X141347618Y-58054819D02*
X141347618Y-57054819D01*
X140776189Y-57769104D02*
X140299999Y-57769104D01*
X140871427Y-58054819D02*
X140538094Y-57054819D01*
X140538094Y-57054819D02*
X140204761Y-58054819D01*
X139347618Y-57102438D02*
X139442856Y-57054819D01*
X139442856Y-57054819D02*
X139585713Y-57054819D01*
X139585713Y-57054819D02*
X139728570Y-57102438D01*
X139728570Y-57102438D02*
X139823808Y-57197676D01*
X139823808Y-57197676D02*
X139871427Y-57292914D01*
X139871427Y-57292914D02*
X139919046Y-57483390D01*
X139919046Y-57483390D02*
X139919046Y-57626247D01*
X139919046Y-57626247D02*
X139871427Y-57816723D01*
X139871427Y-57816723D02*
X139823808Y-57911961D01*
X139823808Y-57911961D02*
X139728570Y-58007200D01*
X139728570Y-58007200D02*
X139585713Y-58054819D01*
X139585713Y-58054819D02*
X139490475Y-58054819D01*
X139490475Y-58054819D02*
X139347618Y-58007200D01*
X139347618Y-58007200D02*
X139299999Y-57959580D01*
X139299999Y-57959580D02*
X139299999Y-57626247D01*
X139299999Y-57626247D02*
X139490475Y-57626247D01*
X140299999Y-62154819D02*
X140299999Y-61154819D01*
X140299999Y-61154819D02*
X140061904Y-61154819D01*
X140061904Y-61154819D02*
X139919047Y-61202438D01*
X139919047Y-61202438D02*
X139823809Y-61297676D01*
X139823809Y-61297676D02*
X139776190Y-61392914D01*
X139776190Y-61392914D02*
X139728571Y-61583390D01*
X139728571Y-61583390D02*
X139728571Y-61726247D01*
X139728571Y-61726247D02*
X139776190Y-61916723D01*
X139776190Y-61916723D02*
X139823809Y-62011961D01*
X139823809Y-62011961D02*
X139919047Y-62107200D01*
X139919047Y-62107200D02*
X140061904Y-62154819D01*
X140061904Y-62154819D02*
X140299999Y-62154819D01*
X139299999Y-62154819D02*
X139299999Y-61154819D01*
X145565713Y-62154819D02*
X145565713Y-61154819D01*
X145565713Y-61154819D02*
X145327618Y-61154819D01*
X145327618Y-61154819D02*
X145184761Y-61202438D01*
X145184761Y-61202438D02*
X145089523Y-61297676D01*
X145089523Y-61297676D02*
X145041904Y-61392914D01*
X145041904Y-61392914D02*
X144994285Y-61583390D01*
X144994285Y-61583390D02*
X144994285Y-61726247D01*
X144994285Y-61726247D02*
X145041904Y-61916723D01*
X145041904Y-61916723D02*
X145089523Y-62011961D01*
X145089523Y-62011961D02*
X145184761Y-62107200D01*
X145184761Y-62107200D02*
X145327618Y-62154819D01*
X145327618Y-62154819D02*
X145565713Y-62154819D01*
X144375237Y-61154819D02*
X144184761Y-61154819D01*
X144184761Y-61154819D02*
X144089523Y-61202438D01*
X144089523Y-61202438D02*
X143994285Y-61297676D01*
X143994285Y-61297676D02*
X143946666Y-61488152D01*
X143946666Y-61488152D02*
X143946666Y-61821485D01*
X143946666Y-61821485D02*
X143994285Y-62011961D01*
X143994285Y-62011961D02*
X144089523Y-62107200D01*
X144089523Y-62107200D02*
X144184761Y-62154819D01*
X144184761Y-62154819D02*
X144375237Y-62154819D01*
X144375237Y-62154819D02*
X144470475Y-62107200D01*
X144470475Y-62107200D02*
X144565713Y-62011961D01*
X144565713Y-62011961D02*
X144613332Y-61821485D01*
X144613332Y-61821485D02*
X144613332Y-61488152D01*
X144613332Y-61488152D02*
X144565713Y-61297676D01*
X144565713Y-61297676D02*
X144470475Y-61202438D01*
X144470475Y-61202438D02*
X144375237Y-61154819D01*
X137969523Y-62154819D02*
X137969523Y-61154819D01*
X137969523Y-61154819D02*
X137636190Y-61869104D01*
X137636190Y-61869104D02*
X137302857Y-61154819D01*
X137302857Y-61154819D02*
X137302857Y-62154819D01*
X136874285Y-62107200D02*
X136731428Y-62154819D01*
X136731428Y-62154819D02*
X136493333Y-62154819D01*
X136493333Y-62154819D02*
X136398095Y-62107200D01*
X136398095Y-62107200D02*
X136350476Y-62059580D01*
X136350476Y-62059580D02*
X136302857Y-61964342D01*
X136302857Y-61964342D02*
X136302857Y-61869104D01*
X136302857Y-61869104D02*
X136350476Y-61773866D01*
X136350476Y-61773866D02*
X136398095Y-61726247D01*
X136398095Y-61726247D02*
X136493333Y-61678628D01*
X136493333Y-61678628D02*
X136683809Y-61631009D01*
X136683809Y-61631009D02*
X136779047Y-61583390D01*
X136779047Y-61583390D02*
X136826666Y-61535771D01*
X136826666Y-61535771D02*
X136874285Y-61440533D01*
X136874285Y-61440533D02*
X136874285Y-61345295D01*
X136874285Y-61345295D02*
X136826666Y-61250057D01*
X136826666Y-61250057D02*
X136779047Y-61202438D01*
X136779047Y-61202438D02*
X136683809Y-61154819D01*
X136683809Y-61154819D02*
X136445714Y-61154819D01*
X136445714Y-61154819D02*
X136302857Y-61202438D01*
X142430476Y-62059580D02*
X142478095Y-62107200D01*
X142478095Y-62107200D02*
X142620952Y-62154819D01*
X142620952Y-62154819D02*
X142716190Y-62154819D01*
X142716190Y-62154819D02*
X142859047Y-62107200D01*
X142859047Y-62107200D02*
X142954285Y-62011961D01*
X142954285Y-62011961D02*
X143001904Y-61916723D01*
X143001904Y-61916723D02*
X143049523Y-61726247D01*
X143049523Y-61726247D02*
X143049523Y-61583390D01*
X143049523Y-61583390D02*
X143001904Y-61392914D01*
X143001904Y-61392914D02*
X142954285Y-61297676D01*
X142954285Y-61297676D02*
X142859047Y-61202438D01*
X142859047Y-61202438D02*
X142716190Y-61154819D01*
X142716190Y-61154819D02*
X142620952Y-61154819D01*
X142620952Y-61154819D02*
X142478095Y-61202438D01*
X142478095Y-61202438D02*
X142430476Y-61250057D01*
X142001904Y-62154819D02*
X142001904Y-61154819D01*
X141430476Y-62154819D02*
X141859047Y-61583390D01*
X141430476Y-61154819D02*
X142001904Y-61726247D01*
X113166666Y-54454819D02*
X113499999Y-53978628D01*
X113738094Y-54454819D02*
X113738094Y-53454819D01*
X113738094Y-53454819D02*
X113357142Y-53454819D01*
X113357142Y-53454819D02*
X113261904Y-53502438D01*
X113261904Y-53502438D02*
X113214285Y-53550057D01*
X113214285Y-53550057D02*
X113166666Y-53645295D01*
X113166666Y-53645295D02*
X113166666Y-53788152D01*
X113166666Y-53788152D02*
X113214285Y-53883390D01*
X113214285Y-53883390D02*
X113261904Y-53931009D01*
X113261904Y-53931009D02*
X113357142Y-53978628D01*
X113357142Y-53978628D02*
X113738094Y-53978628D01*
X112785713Y-53550057D02*
X112738094Y-53502438D01*
X112738094Y-53502438D02*
X112642856Y-53454819D01*
X112642856Y-53454819D02*
X112404761Y-53454819D01*
X112404761Y-53454819D02*
X112309523Y-53502438D01*
X112309523Y-53502438D02*
X112261904Y-53550057D01*
X112261904Y-53550057D02*
X112214285Y-53645295D01*
X112214285Y-53645295D02*
X112214285Y-53740533D01*
X112214285Y-53740533D02*
X112261904Y-53883390D01*
X112261904Y-53883390D02*
X112833332Y-54454819D01*
X112833332Y-54454819D02*
X112214285Y-54454819D01*
X159642857Y-52254819D02*
X159976190Y-51778628D01*
X160214285Y-52254819D02*
X160214285Y-51254819D01*
X160214285Y-51254819D02*
X159833333Y-51254819D01*
X159833333Y-51254819D02*
X159738095Y-51302438D01*
X159738095Y-51302438D02*
X159690476Y-51350057D01*
X159690476Y-51350057D02*
X159642857Y-51445295D01*
X159642857Y-51445295D02*
X159642857Y-51588152D01*
X159642857Y-51588152D02*
X159690476Y-51683390D01*
X159690476Y-51683390D02*
X159738095Y-51731009D01*
X159738095Y-51731009D02*
X159833333Y-51778628D01*
X159833333Y-51778628D02*
X160214285Y-51778628D01*
X159261904Y-51350057D02*
X159214285Y-51302438D01*
X159214285Y-51302438D02*
X159119047Y-51254819D01*
X159119047Y-51254819D02*
X158880952Y-51254819D01*
X158880952Y-51254819D02*
X158785714Y-51302438D01*
X158785714Y-51302438D02*
X158738095Y-51350057D01*
X158738095Y-51350057D02*
X158690476Y-51445295D01*
X158690476Y-51445295D02*
X158690476Y-51540533D01*
X158690476Y-51540533D02*
X158738095Y-51683390D01*
X158738095Y-51683390D02*
X159309523Y-52254819D01*
X159309523Y-52254819D02*
X158690476Y-52254819D01*
X158071428Y-51254819D02*
X157976190Y-51254819D01*
X157976190Y-51254819D02*
X157880952Y-51302438D01*
X157880952Y-51302438D02*
X157833333Y-51350057D01*
X157833333Y-51350057D02*
X157785714Y-51445295D01*
X157785714Y-51445295D02*
X157738095Y-51635771D01*
X157738095Y-51635771D02*
X157738095Y-51873866D01*
X157738095Y-51873866D02*
X157785714Y-52064342D01*
X157785714Y-52064342D02*
X157833333Y-52159580D01*
X157833333Y-52159580D02*
X157880952Y-52207200D01*
X157880952Y-52207200D02*
X157976190Y-52254819D01*
X157976190Y-52254819D02*
X158071428Y-52254819D01*
X158071428Y-52254819D02*
X158166666Y-52207200D01*
X158166666Y-52207200D02*
X158214285Y-52159580D01*
X158214285Y-52159580D02*
X158261904Y-52064342D01*
X158261904Y-52064342D02*
X158309523Y-51873866D01*
X158309523Y-51873866D02*
X158309523Y-51635771D01*
X158309523Y-51635771D02*
X158261904Y-51445295D01*
X158261904Y-51445295D02*
X158214285Y-51350057D01*
X158214285Y-51350057D02*
X158166666Y-51302438D01*
X158166666Y-51302438D02*
X158071428Y-51254819D01*
X122866666Y-75454819D02*
X123199999Y-74978628D01*
X123438094Y-75454819D02*
X123438094Y-74454819D01*
X123438094Y-74454819D02*
X123057142Y-74454819D01*
X123057142Y-74454819D02*
X122961904Y-74502438D01*
X122961904Y-74502438D02*
X122914285Y-74550057D01*
X122914285Y-74550057D02*
X122866666Y-74645295D01*
X122866666Y-74645295D02*
X122866666Y-74788152D01*
X122866666Y-74788152D02*
X122914285Y-74883390D01*
X122914285Y-74883390D02*
X122961904Y-74931009D01*
X122961904Y-74931009D02*
X123057142Y-74978628D01*
X123057142Y-74978628D02*
X123438094Y-74978628D01*
X122533332Y-74454819D02*
X121914285Y-74454819D01*
X121914285Y-74454819D02*
X122247618Y-74835771D01*
X122247618Y-74835771D02*
X122104761Y-74835771D01*
X122104761Y-74835771D02*
X122009523Y-74883390D01*
X122009523Y-74883390D02*
X121961904Y-74931009D01*
X121961904Y-74931009D02*
X121914285Y-75026247D01*
X121914285Y-75026247D02*
X121914285Y-75264342D01*
X121914285Y-75264342D02*
X121961904Y-75359580D01*
X121961904Y-75359580D02*
X122009523Y-75407200D01*
X122009523Y-75407200D02*
X122104761Y-75454819D01*
X122104761Y-75454819D02*
X122390475Y-75454819D01*
X122390475Y-75454819D02*
X122485713Y-75407200D01*
X122485713Y-75407200D02*
X122533332Y-75359580D01*
X125242857Y-58154819D02*
X125576190Y-57678628D01*
X125814285Y-58154819D02*
X125814285Y-57154819D01*
X125814285Y-57154819D02*
X125433333Y-57154819D01*
X125433333Y-57154819D02*
X125338095Y-57202438D01*
X125338095Y-57202438D02*
X125290476Y-57250057D01*
X125290476Y-57250057D02*
X125242857Y-57345295D01*
X125242857Y-57345295D02*
X125242857Y-57488152D01*
X125242857Y-57488152D02*
X125290476Y-57583390D01*
X125290476Y-57583390D02*
X125338095Y-57631009D01*
X125338095Y-57631009D02*
X125433333Y-57678628D01*
X125433333Y-57678628D02*
X125814285Y-57678628D01*
X124290476Y-58154819D02*
X124861904Y-58154819D01*
X124576190Y-58154819D02*
X124576190Y-57154819D01*
X124576190Y-57154819D02*
X124671428Y-57297676D01*
X124671428Y-57297676D02*
X124766666Y-57392914D01*
X124766666Y-57392914D02*
X124861904Y-57440533D01*
X123719047Y-57583390D02*
X123814285Y-57535771D01*
X123814285Y-57535771D02*
X123861904Y-57488152D01*
X123861904Y-57488152D02*
X123909523Y-57392914D01*
X123909523Y-57392914D02*
X123909523Y-57345295D01*
X123909523Y-57345295D02*
X123861904Y-57250057D01*
X123861904Y-57250057D02*
X123814285Y-57202438D01*
X123814285Y-57202438D02*
X123719047Y-57154819D01*
X123719047Y-57154819D02*
X123528571Y-57154819D01*
X123528571Y-57154819D02*
X123433333Y-57202438D01*
X123433333Y-57202438D02*
X123385714Y-57250057D01*
X123385714Y-57250057D02*
X123338095Y-57345295D01*
X123338095Y-57345295D02*
X123338095Y-57392914D01*
X123338095Y-57392914D02*
X123385714Y-57488152D01*
X123385714Y-57488152D02*
X123433333Y-57535771D01*
X123433333Y-57535771D02*
X123528571Y-57583390D01*
X123528571Y-57583390D02*
X123719047Y-57583390D01*
X123719047Y-57583390D02*
X123814285Y-57631009D01*
X123814285Y-57631009D02*
X123861904Y-57678628D01*
X123861904Y-57678628D02*
X123909523Y-57773866D01*
X123909523Y-57773866D02*
X123909523Y-57964342D01*
X123909523Y-57964342D02*
X123861904Y-58059580D01*
X123861904Y-58059580D02*
X123814285Y-58107200D01*
X123814285Y-58107200D02*
X123719047Y-58154819D01*
X123719047Y-58154819D02*
X123528571Y-58154819D01*
X123528571Y-58154819D02*
X123433333Y-58107200D01*
X123433333Y-58107200D02*
X123385714Y-58059580D01*
X123385714Y-58059580D02*
X123338095Y-57964342D01*
X123338095Y-57964342D02*
X123338095Y-57773866D01*
X123338095Y-57773866D02*
X123385714Y-57678628D01*
X123385714Y-57678628D02*
X123433333Y-57631009D01*
X123433333Y-57631009D02*
X123528571Y-57583390D01*
X117633333Y-67954819D02*
X117633333Y-68669104D01*
X117633333Y-68669104D02*
X117680952Y-68811961D01*
X117680952Y-68811961D02*
X117776190Y-68907200D01*
X117776190Y-68907200D02*
X117919047Y-68954819D01*
X117919047Y-68954819D02*
X118014285Y-68954819D01*
X116633333Y-68954819D02*
X117204761Y-68954819D01*
X116919047Y-68954819D02*
X116919047Y-67954819D01*
X116919047Y-67954819D02*
X117014285Y-68097676D01*
X117014285Y-68097676D02*
X117109523Y-68192914D01*
X117109523Y-68192914D02*
X117204761Y-68240533D01*
X112690476Y-70054819D02*
X113166666Y-70054819D01*
X113166666Y-70054819D02*
X113214285Y-70531009D01*
X113214285Y-70531009D02*
X113166666Y-70483390D01*
X113166666Y-70483390D02*
X113071428Y-70435771D01*
X113071428Y-70435771D02*
X112833333Y-70435771D01*
X112833333Y-70435771D02*
X112738095Y-70483390D01*
X112738095Y-70483390D02*
X112690476Y-70531009D01*
X112690476Y-70531009D02*
X112642857Y-70626247D01*
X112642857Y-70626247D02*
X112642857Y-70864342D01*
X112642857Y-70864342D02*
X112690476Y-70959580D01*
X112690476Y-70959580D02*
X112738095Y-71007200D01*
X112738095Y-71007200D02*
X112833333Y-71054819D01*
X112833333Y-71054819D02*
X113071428Y-71054819D01*
X113071428Y-71054819D02*
X113166666Y-71007200D01*
X113166666Y-71007200D02*
X113214285Y-70959580D01*
X112357142Y-70054819D02*
X112023809Y-71054819D01*
X112023809Y-71054819D02*
X111690476Y-70054819D01*
X115861904Y-66002438D02*
X115957142Y-65954819D01*
X115957142Y-65954819D02*
X116099999Y-65954819D01*
X116099999Y-65954819D02*
X116242856Y-66002438D01*
X116242856Y-66002438D02*
X116338094Y-66097676D01*
X116338094Y-66097676D02*
X116385713Y-66192914D01*
X116385713Y-66192914D02*
X116433332Y-66383390D01*
X116433332Y-66383390D02*
X116433332Y-66526247D01*
X116433332Y-66526247D02*
X116385713Y-66716723D01*
X116385713Y-66716723D02*
X116338094Y-66811961D01*
X116338094Y-66811961D02*
X116242856Y-66907200D01*
X116242856Y-66907200D02*
X116099999Y-66954819D01*
X116099999Y-66954819D02*
X116004761Y-66954819D01*
X116004761Y-66954819D02*
X115861904Y-66907200D01*
X115861904Y-66907200D02*
X115814285Y-66859580D01*
X115814285Y-66859580D02*
X115814285Y-66526247D01*
X115814285Y-66526247D02*
X116004761Y-66526247D01*
X115385713Y-66954819D02*
X115385713Y-65954819D01*
X115385713Y-65954819D02*
X114814285Y-66954819D01*
X114814285Y-66954819D02*
X114814285Y-65954819D01*
X114338094Y-66954819D02*
X114338094Y-65954819D01*
X114338094Y-65954819D02*
X114099999Y-65954819D01*
X114099999Y-65954819D02*
X113957142Y-66002438D01*
X113957142Y-66002438D02*
X113861904Y-66097676D01*
X113861904Y-66097676D02*
X113814285Y-66192914D01*
X113814285Y-66192914D02*
X113766666Y-66383390D01*
X113766666Y-66383390D02*
X113766666Y-66526247D01*
X113766666Y-66526247D02*
X113814285Y-66716723D01*
X113814285Y-66716723D02*
X113861904Y-66811961D01*
X113861904Y-66811961D02*
X113957142Y-66907200D01*
X113957142Y-66907200D02*
X114099999Y-66954819D01*
X114099999Y-66954819D02*
X114338094Y-66954819D01*
X126666666Y-80359580D02*
X126714285Y-80407200D01*
X126714285Y-80407200D02*
X126857142Y-80454819D01*
X126857142Y-80454819D02*
X126952380Y-80454819D01*
X126952380Y-80454819D02*
X127095237Y-80407200D01*
X127095237Y-80407200D02*
X127190475Y-80311961D01*
X127190475Y-80311961D02*
X127238094Y-80216723D01*
X127238094Y-80216723D02*
X127285713Y-80026247D01*
X127285713Y-80026247D02*
X127285713Y-79883390D01*
X127285713Y-79883390D02*
X127238094Y-79692914D01*
X127238094Y-79692914D02*
X127190475Y-79597676D01*
X127190475Y-79597676D02*
X127095237Y-79502438D01*
X127095237Y-79502438D02*
X126952380Y-79454819D01*
X126952380Y-79454819D02*
X126857142Y-79454819D01*
X126857142Y-79454819D02*
X126714285Y-79502438D01*
X126714285Y-79502438D02*
X126666666Y-79550057D01*
X126285713Y-79550057D02*
X126238094Y-79502438D01*
X126238094Y-79502438D02*
X126142856Y-79454819D01*
X126142856Y-79454819D02*
X125904761Y-79454819D01*
X125904761Y-79454819D02*
X125809523Y-79502438D01*
X125809523Y-79502438D02*
X125761904Y-79550057D01*
X125761904Y-79550057D02*
X125714285Y-79645295D01*
X125714285Y-79645295D02*
X125714285Y-79740533D01*
X125714285Y-79740533D02*
X125761904Y-79883390D01*
X125761904Y-79883390D02*
X126333332Y-80454819D01*
X126333332Y-80454819D02*
X125714285Y-80454819D01*
X165695238Y-54650057D02*
X165790476Y-54602438D01*
X165790476Y-54602438D02*
X165885714Y-54507200D01*
X165885714Y-54507200D02*
X166028571Y-54364342D01*
X166028571Y-54364342D02*
X166123809Y-54316723D01*
X166123809Y-54316723D02*
X166219047Y-54316723D01*
X166171428Y-54554819D02*
X166266666Y-54507200D01*
X166266666Y-54507200D02*
X166361904Y-54411961D01*
X166361904Y-54411961D02*
X166409523Y-54221485D01*
X166409523Y-54221485D02*
X166409523Y-53888152D01*
X166409523Y-53888152D02*
X166361904Y-53697676D01*
X166361904Y-53697676D02*
X166266666Y-53602438D01*
X166266666Y-53602438D02*
X166171428Y-53554819D01*
X166171428Y-53554819D02*
X165980952Y-53554819D01*
X165980952Y-53554819D02*
X165885714Y-53602438D01*
X165885714Y-53602438D02*
X165790476Y-53697676D01*
X165790476Y-53697676D02*
X165742857Y-53888152D01*
X165742857Y-53888152D02*
X165742857Y-54221485D01*
X165742857Y-54221485D02*
X165790476Y-54411961D01*
X165790476Y-54411961D02*
X165885714Y-54507200D01*
X165885714Y-54507200D02*
X165980952Y-54554819D01*
X165980952Y-54554819D02*
X166171428Y-54554819D01*
X164838095Y-53554819D02*
X165314285Y-53554819D01*
X165314285Y-53554819D02*
X165361904Y-54031009D01*
X165361904Y-54031009D02*
X165314285Y-53983390D01*
X165314285Y-53983390D02*
X165219047Y-53935771D01*
X165219047Y-53935771D02*
X164980952Y-53935771D01*
X164980952Y-53935771D02*
X164885714Y-53983390D01*
X164885714Y-53983390D02*
X164838095Y-54031009D01*
X164838095Y-54031009D02*
X164790476Y-54126247D01*
X164790476Y-54126247D02*
X164790476Y-54364342D01*
X164790476Y-54364342D02*
X164838095Y-54459580D01*
X164838095Y-54459580D02*
X164885714Y-54507200D01*
X164885714Y-54507200D02*
X164980952Y-54554819D01*
X164980952Y-54554819D02*
X165219047Y-54554819D01*
X165219047Y-54554819D02*
X165314285Y-54507200D01*
X165314285Y-54507200D02*
X165361904Y-54459580D01*
X154133333Y-52554819D02*
X154133333Y-53269104D01*
X154133333Y-53269104D02*
X154180952Y-53411961D01*
X154180952Y-53411961D02*
X154276190Y-53507200D01*
X154276190Y-53507200D02*
X154419047Y-53554819D01*
X154419047Y-53554819D02*
X154514285Y-53554819D01*
X153228571Y-52554819D02*
X153419047Y-52554819D01*
X153419047Y-52554819D02*
X153514285Y-52602438D01*
X153514285Y-52602438D02*
X153561904Y-52650057D01*
X153561904Y-52650057D02*
X153657142Y-52792914D01*
X153657142Y-52792914D02*
X153704761Y-52983390D01*
X153704761Y-52983390D02*
X153704761Y-53364342D01*
X153704761Y-53364342D02*
X153657142Y-53459580D01*
X153657142Y-53459580D02*
X153609523Y-53507200D01*
X153609523Y-53507200D02*
X153514285Y-53554819D01*
X153514285Y-53554819D02*
X153323809Y-53554819D01*
X153323809Y-53554819D02*
X153228571Y-53507200D01*
X153228571Y-53507200D02*
X153180952Y-53459580D01*
X153180952Y-53459580D02*
X153133333Y-53364342D01*
X153133333Y-53364342D02*
X153133333Y-53126247D01*
X153133333Y-53126247D02*
X153180952Y-53031009D01*
X153180952Y-53031009D02*
X153228571Y-52983390D01*
X153228571Y-52983390D02*
X153323809Y-52935771D01*
X153323809Y-52935771D02*
X153514285Y-52935771D01*
X153514285Y-52935771D02*
X153609523Y-52983390D01*
X153609523Y-52983390D02*
X153657142Y-53031009D01*
X153657142Y-53031009D02*
X153704761Y-53126247D01*
X151533333Y-55554819D02*
X151533333Y-54554819D01*
X151533333Y-54554819D02*
X151200000Y-55269104D01*
X151200000Y-55269104D02*
X150866667Y-54554819D01*
X150866667Y-54554819D02*
X150866667Y-55554819D01*
X150247619Y-55554819D02*
X150342857Y-55507200D01*
X150342857Y-55507200D02*
X150390476Y-55459580D01*
X150390476Y-55459580D02*
X150438095Y-55364342D01*
X150438095Y-55364342D02*
X150438095Y-55078628D01*
X150438095Y-55078628D02*
X150390476Y-54983390D01*
X150390476Y-54983390D02*
X150342857Y-54935771D01*
X150342857Y-54935771D02*
X150247619Y-54888152D01*
X150247619Y-54888152D02*
X150104762Y-54888152D01*
X150104762Y-54888152D02*
X150009524Y-54935771D01*
X150009524Y-54935771D02*
X149961905Y-54983390D01*
X149961905Y-54983390D02*
X149914286Y-55078628D01*
X149914286Y-55078628D02*
X149914286Y-55364342D01*
X149914286Y-55364342D02*
X149961905Y-55459580D01*
X149961905Y-55459580D02*
X150009524Y-55507200D01*
X150009524Y-55507200D02*
X150104762Y-55554819D01*
X150104762Y-55554819D02*
X150247619Y-55554819D01*
X149628571Y-54888152D02*
X149247619Y-54888152D01*
X149485714Y-54554819D02*
X149485714Y-55411961D01*
X149485714Y-55411961D02*
X149438095Y-55507200D01*
X149438095Y-55507200D02*
X149342857Y-55554819D01*
X149342857Y-55554819D02*
X149247619Y-55554819D01*
X148771428Y-55554819D02*
X148866666Y-55507200D01*
X148866666Y-55507200D02*
X148914285Y-55459580D01*
X148914285Y-55459580D02*
X148961904Y-55364342D01*
X148961904Y-55364342D02*
X148961904Y-55078628D01*
X148961904Y-55078628D02*
X148914285Y-54983390D01*
X148914285Y-54983390D02*
X148866666Y-54935771D01*
X148866666Y-54935771D02*
X148771428Y-54888152D01*
X148771428Y-54888152D02*
X148628571Y-54888152D01*
X148628571Y-54888152D02*
X148533333Y-54935771D01*
X148533333Y-54935771D02*
X148485714Y-54983390D01*
X148485714Y-54983390D02*
X148438095Y-55078628D01*
X148438095Y-55078628D02*
X148438095Y-55364342D01*
X148438095Y-55364342D02*
X148485714Y-55459580D01*
X148485714Y-55459580D02*
X148533333Y-55507200D01*
X148533333Y-55507200D02*
X148628571Y-55554819D01*
X148628571Y-55554819D02*
X148771428Y-55554819D01*
X148009523Y-55554819D02*
X148009523Y-54888152D01*
X148009523Y-55078628D02*
X147961904Y-54983390D01*
X147961904Y-54983390D02*
X147914285Y-54935771D01*
X147914285Y-54935771D02*
X147819047Y-54888152D01*
X147819047Y-54888152D02*
X147723809Y-54888152D01*
X157988094Y-57954819D02*
X157988094Y-56954819D01*
X157988094Y-56954819D02*
X157749999Y-56954819D01*
X157749999Y-56954819D02*
X157607142Y-57002438D01*
X157607142Y-57002438D02*
X157511904Y-57097676D01*
X157511904Y-57097676D02*
X157464285Y-57192914D01*
X157464285Y-57192914D02*
X157416666Y-57383390D01*
X157416666Y-57383390D02*
X157416666Y-57526247D01*
X157416666Y-57526247D02*
X157464285Y-57716723D01*
X157464285Y-57716723D02*
X157511904Y-57811961D01*
X157511904Y-57811961D02*
X157607142Y-57907200D01*
X157607142Y-57907200D02*
X157749999Y-57954819D01*
X157749999Y-57954819D02*
X157988094Y-57954819D01*
X157083332Y-56954819D02*
X156464285Y-56954819D01*
X156464285Y-56954819D02*
X156797618Y-57335771D01*
X156797618Y-57335771D02*
X156654761Y-57335771D01*
X156654761Y-57335771D02*
X156559523Y-57383390D01*
X156559523Y-57383390D02*
X156511904Y-57431009D01*
X156511904Y-57431009D02*
X156464285Y-57526247D01*
X156464285Y-57526247D02*
X156464285Y-57764342D01*
X156464285Y-57764342D02*
X156511904Y-57859580D01*
X156511904Y-57859580D02*
X156559523Y-57907200D01*
X156559523Y-57907200D02*
X156654761Y-57954819D01*
X156654761Y-57954819D02*
X156940475Y-57954819D01*
X156940475Y-57954819D02*
X157035713Y-57907200D01*
X157035713Y-57907200D02*
X157083332Y-57859580D01*
X150633333Y-86354819D02*
X150633333Y-87069104D01*
X150633333Y-87069104D02*
X150680952Y-87211961D01*
X150680952Y-87211961D02*
X150776190Y-87307200D01*
X150776190Y-87307200D02*
X150919047Y-87354819D01*
X150919047Y-87354819D02*
X151014285Y-87354819D01*
X149680952Y-86354819D02*
X150157142Y-86354819D01*
X150157142Y-86354819D02*
X150204761Y-86831009D01*
X150204761Y-86831009D02*
X150157142Y-86783390D01*
X150157142Y-86783390D02*
X150061904Y-86735771D01*
X150061904Y-86735771D02*
X149823809Y-86735771D01*
X149823809Y-86735771D02*
X149728571Y-86783390D01*
X149728571Y-86783390D02*
X149680952Y-86831009D01*
X149680952Y-86831009D02*
X149633333Y-86926247D01*
X149633333Y-86926247D02*
X149633333Y-87164342D01*
X149633333Y-87164342D02*
X149680952Y-87259580D01*
X149680952Y-87259580D02*
X149728571Y-87307200D01*
X149728571Y-87307200D02*
X149823809Y-87354819D01*
X149823809Y-87354819D02*
X150061904Y-87354819D01*
X150061904Y-87354819D02*
X150157142Y-87307200D01*
X150157142Y-87307200D02*
X150204761Y-87259580D01*
X155666666Y-86154819D02*
X155999999Y-85678628D01*
X156238094Y-86154819D02*
X156238094Y-85154819D01*
X156238094Y-85154819D02*
X155857142Y-85154819D01*
X155857142Y-85154819D02*
X155761904Y-85202438D01*
X155761904Y-85202438D02*
X155714285Y-85250057D01*
X155714285Y-85250057D02*
X155666666Y-85345295D01*
X155666666Y-85345295D02*
X155666666Y-85488152D01*
X155666666Y-85488152D02*
X155714285Y-85583390D01*
X155714285Y-85583390D02*
X155761904Y-85631009D01*
X155761904Y-85631009D02*
X155857142Y-85678628D01*
X155857142Y-85678628D02*
X156238094Y-85678628D01*
X155333332Y-85154819D02*
X154666666Y-86154819D01*
X154666666Y-85154819D02*
X155333332Y-86154819D01*
X153661904Y-85154819D02*
X153090476Y-85154819D01*
X153376190Y-86154819D02*
X153376190Y-85154819D01*
X152852380Y-85154819D02*
X152185714Y-86154819D01*
X152185714Y-85154819D02*
X152852380Y-86154819D01*
X150995237Y-87854819D02*
X150995237Y-88664342D01*
X150995237Y-88664342D02*
X150947618Y-88759580D01*
X150947618Y-88759580D02*
X150899999Y-88807200D01*
X150899999Y-88807200D02*
X150804761Y-88854819D01*
X150804761Y-88854819D02*
X150614285Y-88854819D01*
X150614285Y-88854819D02*
X150519047Y-88807200D01*
X150519047Y-88807200D02*
X150471428Y-88759580D01*
X150471428Y-88759580D02*
X150423809Y-88664342D01*
X150423809Y-88664342D02*
X150423809Y-87854819D01*
X149995237Y-88569104D02*
X149519047Y-88569104D01*
X150090475Y-88854819D02*
X149757142Y-87854819D01*
X149757142Y-87854819D02*
X149423809Y-88854819D01*
X148519047Y-88854819D02*
X148852380Y-88378628D01*
X149090475Y-88854819D02*
X149090475Y-87854819D01*
X149090475Y-87854819D02*
X148709523Y-87854819D01*
X148709523Y-87854819D02*
X148614285Y-87902438D01*
X148614285Y-87902438D02*
X148566666Y-87950057D01*
X148566666Y-87950057D02*
X148519047Y-88045295D01*
X148519047Y-88045295D02*
X148519047Y-88188152D01*
X148519047Y-88188152D02*
X148566666Y-88283390D01*
X148566666Y-88283390D02*
X148614285Y-88331009D01*
X148614285Y-88331009D02*
X148709523Y-88378628D01*
X148709523Y-88378628D02*
X149090475Y-88378628D01*
X148233332Y-87854819D02*
X147661904Y-87854819D01*
X147947618Y-88854819D02*
X147947618Y-87854819D01*
X158761904Y-85202438D02*
X158857142Y-85154819D01*
X158857142Y-85154819D02*
X158999999Y-85154819D01*
X158999999Y-85154819D02*
X159142856Y-85202438D01*
X159142856Y-85202438D02*
X159238094Y-85297676D01*
X159238094Y-85297676D02*
X159285713Y-85392914D01*
X159285713Y-85392914D02*
X159333332Y-85583390D01*
X159333332Y-85583390D02*
X159333332Y-85726247D01*
X159333332Y-85726247D02*
X159285713Y-85916723D01*
X159285713Y-85916723D02*
X159238094Y-86011961D01*
X159238094Y-86011961D02*
X159142856Y-86107200D01*
X159142856Y-86107200D02*
X158999999Y-86154819D01*
X158999999Y-86154819D02*
X158904761Y-86154819D01*
X158904761Y-86154819D02*
X158761904Y-86107200D01*
X158761904Y-86107200D02*
X158714285Y-86059580D01*
X158714285Y-86059580D02*
X158714285Y-85726247D01*
X158714285Y-85726247D02*
X158904761Y-85726247D01*
X158285713Y-86154819D02*
X158285713Y-85154819D01*
X158285713Y-85154819D02*
X157714285Y-86154819D01*
X157714285Y-86154819D02*
X157714285Y-85154819D01*
X157238094Y-86154819D02*
X157238094Y-85154819D01*
X157238094Y-85154819D02*
X156999999Y-85154819D01*
X156999999Y-85154819D02*
X156857142Y-85202438D01*
X156857142Y-85202438D02*
X156761904Y-85297676D01*
X156761904Y-85297676D02*
X156714285Y-85392914D01*
X156714285Y-85392914D02*
X156666666Y-85583390D01*
X156666666Y-85583390D02*
X156666666Y-85726247D01*
X156666666Y-85726247D02*
X156714285Y-85916723D01*
X156714285Y-85916723D02*
X156761904Y-86011961D01*
X156761904Y-86011961D02*
X156857142Y-86107200D01*
X156857142Y-86107200D02*
X156999999Y-86154819D01*
X156999999Y-86154819D02*
X157238094Y-86154819D01*
X151642857Y-74454819D02*
X151976190Y-73978628D01*
X152214285Y-74454819D02*
X152214285Y-73454819D01*
X152214285Y-73454819D02*
X151833333Y-73454819D01*
X151833333Y-73454819D02*
X151738095Y-73502438D01*
X151738095Y-73502438D02*
X151690476Y-73550057D01*
X151690476Y-73550057D02*
X151642857Y-73645295D01*
X151642857Y-73645295D02*
X151642857Y-73788152D01*
X151642857Y-73788152D02*
X151690476Y-73883390D01*
X151690476Y-73883390D02*
X151738095Y-73931009D01*
X151738095Y-73931009D02*
X151833333Y-73978628D01*
X151833333Y-73978628D02*
X152214285Y-73978628D01*
X150690476Y-74454819D02*
X151261904Y-74454819D01*
X150976190Y-74454819D02*
X150976190Y-73454819D01*
X150976190Y-73454819D02*
X151071428Y-73597676D01*
X151071428Y-73597676D02*
X151166666Y-73692914D01*
X151166666Y-73692914D02*
X151261904Y-73740533D01*
X150357142Y-73454819D02*
X149738095Y-73454819D01*
X149738095Y-73454819D02*
X150071428Y-73835771D01*
X150071428Y-73835771D02*
X149928571Y-73835771D01*
X149928571Y-73835771D02*
X149833333Y-73883390D01*
X149833333Y-73883390D02*
X149785714Y-73931009D01*
X149785714Y-73931009D02*
X149738095Y-74026247D01*
X149738095Y-74026247D02*
X149738095Y-74264342D01*
X149738095Y-74264342D02*
X149785714Y-74359580D01*
X149785714Y-74359580D02*
X149833333Y-74407200D01*
X149833333Y-74407200D02*
X149928571Y-74454819D01*
X149928571Y-74454819D02*
X150214285Y-74454819D01*
X150214285Y-74454819D02*
X150309523Y-74407200D01*
X150309523Y-74407200D02*
X150357142Y-74359580D01*
X159333333Y-63954819D02*
X159333333Y-64669104D01*
X159333333Y-64669104D02*
X159380952Y-64811961D01*
X159380952Y-64811961D02*
X159476190Y-64907200D01*
X159476190Y-64907200D02*
X159619047Y-64954819D01*
X159619047Y-64954819D02*
X159714285Y-64954819D01*
X158952380Y-63954819D02*
X158333333Y-63954819D01*
X158333333Y-63954819D02*
X158666666Y-64335771D01*
X158666666Y-64335771D02*
X158523809Y-64335771D01*
X158523809Y-64335771D02*
X158428571Y-64383390D01*
X158428571Y-64383390D02*
X158380952Y-64431009D01*
X158380952Y-64431009D02*
X158333333Y-64526247D01*
X158333333Y-64526247D02*
X158333333Y-64764342D01*
X158333333Y-64764342D02*
X158380952Y-64859580D01*
X158380952Y-64859580D02*
X158428571Y-64907200D01*
X158428571Y-64907200D02*
X158523809Y-64954819D01*
X158523809Y-64954819D02*
X158809523Y-64954819D01*
X158809523Y-64954819D02*
X158904761Y-64907200D01*
X158904761Y-64907200D02*
X158952380Y-64859580D01*
X167000000Y-67454819D02*
X167333333Y-66978628D01*
X167571428Y-67454819D02*
X167571428Y-66454819D01*
X167571428Y-66454819D02*
X167190476Y-66454819D01*
X167190476Y-66454819D02*
X167095238Y-66502438D01*
X167095238Y-66502438D02*
X167047619Y-66550057D01*
X167047619Y-66550057D02*
X167000000Y-66645295D01*
X167000000Y-66645295D02*
X167000000Y-66788152D01*
X167000000Y-66788152D02*
X167047619Y-66883390D01*
X167047619Y-66883390D02*
X167095238Y-66931009D01*
X167095238Y-66931009D02*
X167190476Y-66978628D01*
X167190476Y-66978628D02*
X167571428Y-66978628D01*
X166047619Y-66502438D02*
X166142857Y-66454819D01*
X166142857Y-66454819D02*
X166285714Y-66454819D01*
X166285714Y-66454819D02*
X166428571Y-66502438D01*
X166428571Y-66502438D02*
X166523809Y-66597676D01*
X166523809Y-66597676D02*
X166571428Y-66692914D01*
X166571428Y-66692914D02*
X166619047Y-66883390D01*
X166619047Y-66883390D02*
X166619047Y-67026247D01*
X166619047Y-67026247D02*
X166571428Y-67216723D01*
X166571428Y-67216723D02*
X166523809Y-67311961D01*
X166523809Y-67311961D02*
X166428571Y-67407200D01*
X166428571Y-67407200D02*
X166285714Y-67454819D01*
X166285714Y-67454819D02*
X166190476Y-67454819D01*
X166190476Y-67454819D02*
X166047619Y-67407200D01*
X166047619Y-67407200D02*
X166000000Y-67359580D01*
X166000000Y-67359580D02*
X166000000Y-67026247D01*
X166000000Y-67026247D02*
X166190476Y-67026247D01*
X165238095Y-66931009D02*
X165095238Y-66978628D01*
X165095238Y-66978628D02*
X165047619Y-67026247D01*
X165047619Y-67026247D02*
X165000000Y-67121485D01*
X165000000Y-67121485D02*
X165000000Y-67264342D01*
X165000000Y-67264342D02*
X165047619Y-67359580D01*
X165047619Y-67359580D02*
X165095238Y-67407200D01*
X165095238Y-67407200D02*
X165190476Y-67454819D01*
X165190476Y-67454819D02*
X165571428Y-67454819D01*
X165571428Y-67454819D02*
X165571428Y-66454819D01*
X165571428Y-66454819D02*
X165238095Y-66454819D01*
X165238095Y-66454819D02*
X165142857Y-66502438D01*
X165142857Y-66502438D02*
X165095238Y-66550057D01*
X165095238Y-66550057D02*
X165047619Y-66645295D01*
X165047619Y-66645295D02*
X165047619Y-66740533D01*
X165047619Y-66740533D02*
X165095238Y-66835771D01*
X165095238Y-66835771D02*
X165142857Y-66883390D01*
X165142857Y-66883390D02*
X165238095Y-66931009D01*
X165238095Y-66931009D02*
X165571428Y-66931009D01*
X164666666Y-66454819D02*
X164428571Y-67454819D01*
X164428571Y-67454819D02*
X164238095Y-66740533D01*
X164238095Y-66740533D02*
X164047619Y-67454819D01*
X164047619Y-67454819D02*
X163809524Y-66454819D01*
X162190476Y-67454819D02*
X162666666Y-67454819D01*
X162666666Y-67454819D02*
X162666666Y-66454819D01*
X161857142Y-66931009D02*
X161523809Y-66931009D01*
X161380952Y-67454819D02*
X161857142Y-67454819D01*
X161857142Y-67454819D02*
X161857142Y-66454819D01*
X161857142Y-66454819D02*
X161380952Y-66454819D01*
X160952380Y-67454819D02*
X160952380Y-66454819D01*
X160952380Y-66454819D02*
X160714285Y-66454819D01*
X160714285Y-66454819D02*
X160571428Y-66502438D01*
X160571428Y-66502438D02*
X160476190Y-66597676D01*
X160476190Y-66597676D02*
X160428571Y-66692914D01*
X160428571Y-66692914D02*
X160380952Y-66883390D01*
X160380952Y-66883390D02*
X160380952Y-67026247D01*
X160380952Y-67026247D02*
X160428571Y-67216723D01*
X160428571Y-67216723D02*
X160476190Y-67311961D01*
X160476190Y-67311961D02*
X160571428Y-67407200D01*
X160571428Y-67407200D02*
X160714285Y-67454819D01*
X160714285Y-67454819D02*
X160952380Y-67454819D01*
X126666666Y-78359580D02*
X126714285Y-78407200D01*
X126714285Y-78407200D02*
X126857142Y-78454819D01*
X126857142Y-78454819D02*
X126952380Y-78454819D01*
X126952380Y-78454819D02*
X127095237Y-78407200D01*
X127095237Y-78407200D02*
X127190475Y-78311961D01*
X127190475Y-78311961D02*
X127238094Y-78216723D01*
X127238094Y-78216723D02*
X127285713Y-78026247D01*
X127285713Y-78026247D02*
X127285713Y-77883390D01*
X127285713Y-77883390D02*
X127238094Y-77692914D01*
X127238094Y-77692914D02*
X127190475Y-77597676D01*
X127190475Y-77597676D02*
X127095237Y-77502438D01*
X127095237Y-77502438D02*
X126952380Y-77454819D01*
X126952380Y-77454819D02*
X126857142Y-77454819D01*
X126857142Y-77454819D02*
X126714285Y-77502438D01*
X126714285Y-77502438D02*
X126666666Y-77550057D01*
X126333332Y-77454819D02*
X125714285Y-77454819D01*
X125714285Y-77454819D02*
X126047618Y-77835771D01*
X126047618Y-77835771D02*
X125904761Y-77835771D01*
X125904761Y-77835771D02*
X125809523Y-77883390D01*
X125809523Y-77883390D02*
X125761904Y-77931009D01*
X125761904Y-77931009D02*
X125714285Y-78026247D01*
X125714285Y-78026247D02*
X125714285Y-78264342D01*
X125714285Y-78264342D02*
X125761904Y-78359580D01*
X125761904Y-78359580D02*
X125809523Y-78407200D01*
X125809523Y-78407200D02*
X125904761Y-78454819D01*
X125904761Y-78454819D02*
X126190475Y-78454819D01*
X126190475Y-78454819D02*
X126285713Y-78407200D01*
X126285713Y-78407200D02*
X126333332Y-78359580D01*
X151642857Y-70504819D02*
X151976190Y-70028628D01*
X152214285Y-70504819D02*
X152214285Y-69504819D01*
X152214285Y-69504819D02*
X151833333Y-69504819D01*
X151833333Y-69504819D02*
X151738095Y-69552438D01*
X151738095Y-69552438D02*
X151690476Y-69600057D01*
X151690476Y-69600057D02*
X151642857Y-69695295D01*
X151642857Y-69695295D02*
X151642857Y-69838152D01*
X151642857Y-69838152D02*
X151690476Y-69933390D01*
X151690476Y-69933390D02*
X151738095Y-69981009D01*
X151738095Y-69981009D02*
X151833333Y-70028628D01*
X151833333Y-70028628D02*
X152214285Y-70028628D01*
X150690476Y-70504819D02*
X151261904Y-70504819D01*
X150976190Y-70504819D02*
X150976190Y-69504819D01*
X150976190Y-69504819D02*
X151071428Y-69647676D01*
X151071428Y-69647676D02*
X151166666Y-69742914D01*
X151166666Y-69742914D02*
X151261904Y-69790533D01*
X149738095Y-70504819D02*
X150309523Y-70504819D01*
X150023809Y-70504819D02*
X150023809Y-69504819D01*
X150023809Y-69504819D02*
X150119047Y-69647676D01*
X150119047Y-69647676D02*
X150214285Y-69742914D01*
X150214285Y-69742914D02*
X150309523Y-69790533D01*
X129961904Y-61454819D02*
X129961904Y-62264342D01*
X129961904Y-62264342D02*
X129914285Y-62359580D01*
X129914285Y-62359580D02*
X129866666Y-62407200D01*
X129866666Y-62407200D02*
X129771428Y-62454819D01*
X129771428Y-62454819D02*
X129580952Y-62454819D01*
X129580952Y-62454819D02*
X129485714Y-62407200D01*
X129485714Y-62407200D02*
X129438095Y-62359580D01*
X129438095Y-62359580D02*
X129390476Y-62264342D01*
X129390476Y-62264342D02*
X129390476Y-61454819D01*
X128961904Y-61550057D02*
X128914285Y-61502438D01*
X128914285Y-61502438D02*
X128819047Y-61454819D01*
X128819047Y-61454819D02*
X128580952Y-61454819D01*
X128580952Y-61454819D02*
X128485714Y-61502438D01*
X128485714Y-61502438D02*
X128438095Y-61550057D01*
X128438095Y-61550057D02*
X128390476Y-61645295D01*
X128390476Y-61645295D02*
X128390476Y-61740533D01*
X128390476Y-61740533D02*
X128438095Y-61883390D01*
X128438095Y-61883390D02*
X129009523Y-62454819D01*
X129009523Y-62454819D02*
X128390476Y-62454819D01*
X140261904Y-72931009D02*
X139928571Y-72931009D01*
X139785714Y-73454819D02*
X140261904Y-73454819D01*
X140261904Y-73454819D02*
X140261904Y-72454819D01*
X140261904Y-72454819D02*
X139785714Y-72454819D01*
X139404761Y-73407200D02*
X139261904Y-73454819D01*
X139261904Y-73454819D02*
X139023809Y-73454819D01*
X139023809Y-73454819D02*
X138928571Y-73407200D01*
X138928571Y-73407200D02*
X138880952Y-73359580D01*
X138880952Y-73359580D02*
X138833333Y-73264342D01*
X138833333Y-73264342D02*
X138833333Y-73169104D01*
X138833333Y-73169104D02*
X138880952Y-73073866D01*
X138880952Y-73073866D02*
X138928571Y-73026247D01*
X138928571Y-73026247D02*
X139023809Y-72978628D01*
X139023809Y-72978628D02*
X139214285Y-72931009D01*
X139214285Y-72931009D02*
X139309523Y-72883390D01*
X139309523Y-72883390D02*
X139357142Y-72835771D01*
X139357142Y-72835771D02*
X139404761Y-72740533D01*
X139404761Y-72740533D02*
X139404761Y-72645295D01*
X139404761Y-72645295D02*
X139357142Y-72550057D01*
X139357142Y-72550057D02*
X139309523Y-72502438D01*
X139309523Y-72502438D02*
X139214285Y-72454819D01*
X139214285Y-72454819D02*
X138976190Y-72454819D01*
X138976190Y-72454819D02*
X138833333Y-72502438D01*
X138404761Y-73454819D02*
X138404761Y-72454819D01*
X138404761Y-72454819D02*
X138023809Y-72454819D01*
X138023809Y-72454819D02*
X137928571Y-72502438D01*
X137928571Y-72502438D02*
X137880952Y-72550057D01*
X137880952Y-72550057D02*
X137833333Y-72645295D01*
X137833333Y-72645295D02*
X137833333Y-72788152D01*
X137833333Y-72788152D02*
X137880952Y-72883390D01*
X137880952Y-72883390D02*
X137928571Y-72931009D01*
X137928571Y-72931009D02*
X138023809Y-72978628D01*
X138023809Y-72978628D02*
X138404761Y-72978628D01*
X137404761Y-73073866D02*
X136642857Y-73073866D01*
X136261904Y-72454819D02*
X135642857Y-72454819D01*
X135642857Y-72454819D02*
X135976190Y-72835771D01*
X135976190Y-72835771D02*
X135833333Y-72835771D01*
X135833333Y-72835771D02*
X135738095Y-72883390D01*
X135738095Y-72883390D02*
X135690476Y-72931009D01*
X135690476Y-72931009D02*
X135642857Y-73026247D01*
X135642857Y-73026247D02*
X135642857Y-73264342D01*
X135642857Y-73264342D02*
X135690476Y-73359580D01*
X135690476Y-73359580D02*
X135738095Y-73407200D01*
X135738095Y-73407200D02*
X135833333Y-73454819D01*
X135833333Y-73454819D02*
X136119047Y-73454819D01*
X136119047Y-73454819D02*
X136214285Y-73407200D01*
X136214285Y-73407200D02*
X136261904Y-73359580D01*
X135261904Y-72550057D02*
X135214285Y-72502438D01*
X135214285Y-72502438D02*
X135119047Y-72454819D01*
X135119047Y-72454819D02*
X134880952Y-72454819D01*
X134880952Y-72454819D02*
X134785714Y-72502438D01*
X134785714Y-72502438D02*
X134738095Y-72550057D01*
X134738095Y-72550057D02*
X134690476Y-72645295D01*
X134690476Y-72645295D02*
X134690476Y-72740533D01*
X134690476Y-72740533D02*
X134738095Y-72883390D01*
X134738095Y-72883390D02*
X135309523Y-73454819D01*
X135309523Y-73454819D02*
X134690476Y-73454819D01*
X151642857Y-80454819D02*
X151976190Y-79978628D01*
X152214285Y-80454819D02*
X152214285Y-79454819D01*
X152214285Y-79454819D02*
X151833333Y-79454819D01*
X151833333Y-79454819D02*
X151738095Y-79502438D01*
X151738095Y-79502438D02*
X151690476Y-79550057D01*
X151690476Y-79550057D02*
X151642857Y-79645295D01*
X151642857Y-79645295D02*
X151642857Y-79788152D01*
X151642857Y-79788152D02*
X151690476Y-79883390D01*
X151690476Y-79883390D02*
X151738095Y-79931009D01*
X151738095Y-79931009D02*
X151833333Y-79978628D01*
X151833333Y-79978628D02*
X152214285Y-79978628D01*
X150690476Y-80454819D02*
X151261904Y-80454819D01*
X150976190Y-80454819D02*
X150976190Y-79454819D01*
X150976190Y-79454819D02*
X151071428Y-79597676D01*
X151071428Y-79597676D02*
X151166666Y-79692914D01*
X151166666Y-79692914D02*
X151261904Y-79740533D01*
X149833333Y-79788152D02*
X149833333Y-80454819D01*
X150071428Y-79407200D02*
X150309523Y-80121485D01*
X150309523Y-80121485D02*
X149690476Y-80121485D01*
X130833333Y-52454819D02*
X130833333Y-53169104D01*
X130833333Y-53169104D02*
X130880952Y-53311961D01*
X130880952Y-53311961D02*
X130976190Y-53407200D01*
X130976190Y-53407200D02*
X131119047Y-53454819D01*
X131119047Y-53454819D02*
X131214285Y-53454819D01*
X130452380Y-52454819D02*
X129785714Y-52454819D01*
X129785714Y-52454819D02*
X130214285Y-53454819D01*
X134987635Y-55486761D02*
X134987635Y-54486761D01*
X134987635Y-54486761D02*
X134654302Y-55201046D01*
X134654302Y-55201046D02*
X134320969Y-54486761D01*
X134320969Y-54486761D02*
X134320969Y-55486761D01*
X133701921Y-55486761D02*
X133797159Y-55439142D01*
X133797159Y-55439142D02*
X133844778Y-55391522D01*
X133844778Y-55391522D02*
X133892397Y-55296284D01*
X133892397Y-55296284D02*
X133892397Y-55010570D01*
X133892397Y-55010570D02*
X133844778Y-54915332D01*
X133844778Y-54915332D02*
X133797159Y-54867713D01*
X133797159Y-54867713D02*
X133701921Y-54820094D01*
X133701921Y-54820094D02*
X133559064Y-54820094D01*
X133559064Y-54820094D02*
X133463826Y-54867713D01*
X133463826Y-54867713D02*
X133416207Y-54915332D01*
X133416207Y-54915332D02*
X133368588Y-55010570D01*
X133368588Y-55010570D02*
X133368588Y-55296284D01*
X133368588Y-55296284D02*
X133416207Y-55391522D01*
X133416207Y-55391522D02*
X133463826Y-55439142D01*
X133463826Y-55439142D02*
X133559064Y-55486761D01*
X133559064Y-55486761D02*
X133701921Y-55486761D01*
X132797159Y-55486761D02*
X132892397Y-55439142D01*
X132892397Y-55439142D02*
X132940016Y-55391522D01*
X132940016Y-55391522D02*
X132987635Y-55296284D01*
X132987635Y-55296284D02*
X132987635Y-55010570D01*
X132987635Y-55010570D02*
X132940016Y-54915332D01*
X132940016Y-54915332D02*
X132892397Y-54867713D01*
X132892397Y-54867713D02*
X132797159Y-54820094D01*
X132797159Y-54820094D02*
X132654302Y-54820094D01*
X132654302Y-54820094D02*
X132559064Y-54867713D01*
X132559064Y-54867713D02*
X132511445Y-54915332D01*
X132511445Y-54915332D02*
X132463826Y-55010570D01*
X132463826Y-55010570D02*
X132463826Y-55296284D01*
X132463826Y-55296284D02*
X132511445Y-55391522D01*
X132511445Y-55391522D02*
X132559064Y-55439142D01*
X132559064Y-55439142D02*
X132654302Y-55486761D01*
X132654302Y-55486761D02*
X132797159Y-55486761D01*
X132035254Y-54820094D02*
X132035254Y-55486761D01*
X132035254Y-54915332D02*
X131987635Y-54867713D01*
X131987635Y-54867713D02*
X131892397Y-54820094D01*
X131892397Y-54820094D02*
X131749540Y-54820094D01*
X131749540Y-54820094D02*
X131654302Y-54867713D01*
X131654302Y-54867713D02*
X131606683Y-54962951D01*
X131606683Y-54962951D02*
X131606683Y-55486761D01*
X151642857Y-72454819D02*
X151976190Y-71978628D01*
X152214285Y-72454819D02*
X152214285Y-71454819D01*
X152214285Y-71454819D02*
X151833333Y-71454819D01*
X151833333Y-71454819D02*
X151738095Y-71502438D01*
X151738095Y-71502438D02*
X151690476Y-71550057D01*
X151690476Y-71550057D02*
X151642857Y-71645295D01*
X151642857Y-71645295D02*
X151642857Y-71788152D01*
X151642857Y-71788152D02*
X151690476Y-71883390D01*
X151690476Y-71883390D02*
X151738095Y-71931009D01*
X151738095Y-71931009D02*
X151833333Y-71978628D01*
X151833333Y-71978628D02*
X152214285Y-71978628D01*
X150690476Y-72454819D02*
X151261904Y-72454819D01*
X150976190Y-72454819D02*
X150976190Y-71454819D01*
X150976190Y-71454819D02*
X151071428Y-71597676D01*
X151071428Y-71597676D02*
X151166666Y-71692914D01*
X151166666Y-71692914D02*
X151261904Y-71740533D01*
X150071428Y-71454819D02*
X149976190Y-71454819D01*
X149976190Y-71454819D02*
X149880952Y-71502438D01*
X149880952Y-71502438D02*
X149833333Y-71550057D01*
X149833333Y-71550057D02*
X149785714Y-71645295D01*
X149785714Y-71645295D02*
X149738095Y-71835771D01*
X149738095Y-71835771D02*
X149738095Y-72073866D01*
X149738095Y-72073866D02*
X149785714Y-72264342D01*
X149785714Y-72264342D02*
X149833333Y-72359580D01*
X149833333Y-72359580D02*
X149880952Y-72407200D01*
X149880952Y-72407200D02*
X149976190Y-72454819D01*
X149976190Y-72454819D02*
X150071428Y-72454819D01*
X150071428Y-72454819D02*
X150166666Y-72407200D01*
X150166666Y-72407200D02*
X150214285Y-72359580D01*
X150214285Y-72359580D02*
X150261904Y-72264342D01*
X150261904Y-72264342D02*
X150309523Y-72073866D01*
X150309523Y-72073866D02*
X150309523Y-71835771D01*
X150309523Y-71835771D02*
X150261904Y-71645295D01*
X150261904Y-71645295D02*
X150214285Y-71550057D01*
X150214285Y-71550057D02*
X150166666Y-71502438D01*
X150166666Y-71502438D02*
X150071428Y-71454819D01*
X152583333Y-63154819D02*
X152583333Y-63869104D01*
X152583333Y-63869104D02*
X152630952Y-64011961D01*
X152630952Y-64011961D02*
X152726190Y-64107200D01*
X152726190Y-64107200D02*
X152869047Y-64154819D01*
X152869047Y-64154819D02*
X152964285Y-64154819D01*
X152154761Y-63250057D02*
X152107142Y-63202438D01*
X152107142Y-63202438D02*
X152011904Y-63154819D01*
X152011904Y-63154819D02*
X151773809Y-63154819D01*
X151773809Y-63154819D02*
X151678571Y-63202438D01*
X151678571Y-63202438D02*
X151630952Y-63250057D01*
X151630952Y-63250057D02*
X151583333Y-63345295D01*
X151583333Y-63345295D02*
X151583333Y-63440533D01*
X151583333Y-63440533D02*
X151630952Y-63583390D01*
X151630952Y-63583390D02*
X152202380Y-64154819D01*
X152202380Y-64154819D02*
X151583333Y-64154819D01*
X150419047Y-63631009D02*
X150276190Y-63678628D01*
X150276190Y-63678628D02*
X150228571Y-63726247D01*
X150228571Y-63726247D02*
X150180952Y-63821485D01*
X150180952Y-63821485D02*
X150180952Y-63964342D01*
X150180952Y-63964342D02*
X150228571Y-64059580D01*
X150228571Y-64059580D02*
X150276190Y-64107200D01*
X150276190Y-64107200D02*
X150371428Y-64154819D01*
X150371428Y-64154819D02*
X150752380Y-64154819D01*
X150752380Y-64154819D02*
X150752380Y-63154819D01*
X150752380Y-63154819D02*
X150419047Y-63154819D01*
X150419047Y-63154819D02*
X150323809Y-63202438D01*
X150323809Y-63202438D02*
X150276190Y-63250057D01*
X150276190Y-63250057D02*
X150228571Y-63345295D01*
X150228571Y-63345295D02*
X150228571Y-63440533D01*
X150228571Y-63440533D02*
X150276190Y-63535771D01*
X150276190Y-63535771D02*
X150323809Y-63583390D01*
X150323809Y-63583390D02*
X150419047Y-63631009D01*
X150419047Y-63631009D02*
X150752380Y-63631009D01*
X149609523Y-64154819D02*
X149704761Y-64107200D01*
X149704761Y-64107200D02*
X149752380Y-64059580D01*
X149752380Y-64059580D02*
X149799999Y-63964342D01*
X149799999Y-63964342D02*
X149799999Y-63678628D01*
X149799999Y-63678628D02*
X149752380Y-63583390D01*
X149752380Y-63583390D02*
X149704761Y-63535771D01*
X149704761Y-63535771D02*
X149609523Y-63488152D01*
X149609523Y-63488152D02*
X149466666Y-63488152D01*
X149466666Y-63488152D02*
X149371428Y-63535771D01*
X149371428Y-63535771D02*
X149323809Y-63583390D01*
X149323809Y-63583390D02*
X149276190Y-63678628D01*
X149276190Y-63678628D02*
X149276190Y-63964342D01*
X149276190Y-63964342D02*
X149323809Y-64059580D01*
X149323809Y-64059580D02*
X149371428Y-64107200D01*
X149371428Y-64107200D02*
X149466666Y-64154819D01*
X149466666Y-64154819D02*
X149609523Y-64154819D01*
X148704761Y-64154819D02*
X148799999Y-64107200D01*
X148799999Y-64107200D02*
X148847618Y-64059580D01*
X148847618Y-64059580D02*
X148895237Y-63964342D01*
X148895237Y-63964342D02*
X148895237Y-63678628D01*
X148895237Y-63678628D02*
X148847618Y-63583390D01*
X148847618Y-63583390D02*
X148799999Y-63535771D01*
X148799999Y-63535771D02*
X148704761Y-63488152D01*
X148704761Y-63488152D02*
X148561904Y-63488152D01*
X148561904Y-63488152D02*
X148466666Y-63535771D01*
X148466666Y-63535771D02*
X148419047Y-63583390D01*
X148419047Y-63583390D02*
X148371428Y-63678628D01*
X148371428Y-63678628D02*
X148371428Y-63964342D01*
X148371428Y-63964342D02*
X148419047Y-64059580D01*
X148419047Y-64059580D02*
X148466666Y-64107200D01*
X148466666Y-64107200D02*
X148561904Y-64154819D01*
X148561904Y-64154819D02*
X148704761Y-64154819D01*
X148085713Y-63488152D02*
X147704761Y-63488152D01*
X147942856Y-63154819D02*
X147942856Y-64011961D01*
X147942856Y-64011961D02*
X147895237Y-64107200D01*
X147895237Y-64107200D02*
X147799999Y-64154819D01*
X147799999Y-64154819D02*
X147704761Y-64154819D01*
X136442857Y-57254819D02*
X136776190Y-56778628D01*
X137014285Y-57254819D02*
X137014285Y-56254819D01*
X137014285Y-56254819D02*
X136633333Y-56254819D01*
X136633333Y-56254819D02*
X136538095Y-56302438D01*
X136538095Y-56302438D02*
X136490476Y-56350057D01*
X136490476Y-56350057D02*
X136442857Y-56445295D01*
X136442857Y-56445295D02*
X136442857Y-56588152D01*
X136442857Y-56588152D02*
X136490476Y-56683390D01*
X136490476Y-56683390D02*
X136538095Y-56731009D01*
X136538095Y-56731009D02*
X136633333Y-56778628D01*
X136633333Y-56778628D02*
X137014285Y-56778628D01*
X136061904Y-56350057D02*
X136014285Y-56302438D01*
X136014285Y-56302438D02*
X135919047Y-56254819D01*
X135919047Y-56254819D02*
X135680952Y-56254819D01*
X135680952Y-56254819D02*
X135585714Y-56302438D01*
X135585714Y-56302438D02*
X135538095Y-56350057D01*
X135538095Y-56350057D02*
X135490476Y-56445295D01*
X135490476Y-56445295D02*
X135490476Y-56540533D01*
X135490476Y-56540533D02*
X135538095Y-56683390D01*
X135538095Y-56683390D02*
X136109523Y-57254819D01*
X136109523Y-57254819D02*
X135490476Y-57254819D01*
X134538095Y-57254819D02*
X135109523Y-57254819D01*
X134823809Y-57254819D02*
X134823809Y-56254819D01*
X134823809Y-56254819D02*
X134919047Y-56397676D01*
X134919047Y-56397676D02*
X135014285Y-56492914D01*
X135014285Y-56492914D02*
X135109523Y-56540533D01*
X151642857Y-78454819D02*
X151976190Y-77978628D01*
X152214285Y-78454819D02*
X152214285Y-77454819D01*
X152214285Y-77454819D02*
X151833333Y-77454819D01*
X151833333Y-77454819D02*
X151738095Y-77502438D01*
X151738095Y-77502438D02*
X151690476Y-77550057D01*
X151690476Y-77550057D02*
X151642857Y-77645295D01*
X151642857Y-77645295D02*
X151642857Y-77788152D01*
X151642857Y-77788152D02*
X151690476Y-77883390D01*
X151690476Y-77883390D02*
X151738095Y-77931009D01*
X151738095Y-77931009D02*
X151833333Y-77978628D01*
X151833333Y-77978628D02*
X152214285Y-77978628D01*
X150690476Y-78454819D02*
X151261904Y-78454819D01*
X150976190Y-78454819D02*
X150976190Y-77454819D01*
X150976190Y-77454819D02*
X151071428Y-77597676D01*
X151071428Y-77597676D02*
X151166666Y-77692914D01*
X151166666Y-77692914D02*
X151261904Y-77740533D01*
X149785714Y-77454819D02*
X150261904Y-77454819D01*
X150261904Y-77454819D02*
X150309523Y-77931009D01*
X150309523Y-77931009D02*
X150261904Y-77883390D01*
X150261904Y-77883390D02*
X150166666Y-77835771D01*
X150166666Y-77835771D02*
X149928571Y-77835771D01*
X149928571Y-77835771D02*
X149833333Y-77883390D01*
X149833333Y-77883390D02*
X149785714Y-77931009D01*
X149785714Y-77931009D02*
X149738095Y-78026247D01*
X149738095Y-78026247D02*
X149738095Y-78264342D01*
X149738095Y-78264342D02*
X149785714Y-78359580D01*
X149785714Y-78359580D02*
X149833333Y-78407200D01*
X149833333Y-78407200D02*
X149928571Y-78454819D01*
X149928571Y-78454819D02*
X150166666Y-78454819D01*
X150166666Y-78454819D02*
X150261904Y-78407200D01*
X150261904Y-78407200D02*
X150309523Y-78359580D01*
X125495238Y-53550057D02*
X125590476Y-53502438D01*
X125590476Y-53502438D02*
X125685714Y-53407200D01*
X125685714Y-53407200D02*
X125828571Y-53264342D01*
X125828571Y-53264342D02*
X125923809Y-53216723D01*
X125923809Y-53216723D02*
X126019047Y-53216723D01*
X125971428Y-53454819D02*
X126066666Y-53407200D01*
X126066666Y-53407200D02*
X126161904Y-53311961D01*
X126161904Y-53311961D02*
X126209523Y-53121485D01*
X126209523Y-53121485D02*
X126209523Y-52788152D01*
X126209523Y-52788152D02*
X126161904Y-52597676D01*
X126161904Y-52597676D02*
X126066666Y-52502438D01*
X126066666Y-52502438D02*
X125971428Y-52454819D01*
X125971428Y-52454819D02*
X125780952Y-52454819D01*
X125780952Y-52454819D02*
X125685714Y-52502438D01*
X125685714Y-52502438D02*
X125590476Y-52597676D01*
X125590476Y-52597676D02*
X125542857Y-52788152D01*
X125542857Y-52788152D02*
X125542857Y-53121485D01*
X125542857Y-53121485D02*
X125590476Y-53311961D01*
X125590476Y-53311961D02*
X125685714Y-53407200D01*
X125685714Y-53407200D02*
X125780952Y-53454819D01*
X125780952Y-53454819D02*
X125971428Y-53454819D01*
X124685714Y-52454819D02*
X124876190Y-52454819D01*
X124876190Y-52454819D02*
X124971428Y-52502438D01*
X124971428Y-52502438D02*
X125019047Y-52550057D01*
X125019047Y-52550057D02*
X125114285Y-52692914D01*
X125114285Y-52692914D02*
X125161904Y-52883390D01*
X125161904Y-52883390D02*
X125161904Y-53264342D01*
X125161904Y-53264342D02*
X125114285Y-53359580D01*
X125114285Y-53359580D02*
X125066666Y-53407200D01*
X125066666Y-53407200D02*
X124971428Y-53454819D01*
X124971428Y-53454819D02*
X124780952Y-53454819D01*
X124780952Y-53454819D02*
X124685714Y-53407200D01*
X124685714Y-53407200D02*
X124638095Y-53359580D01*
X124638095Y-53359580D02*
X124590476Y-53264342D01*
X124590476Y-53264342D02*
X124590476Y-53026247D01*
X124590476Y-53026247D02*
X124638095Y-52931009D01*
X124638095Y-52931009D02*
X124685714Y-52883390D01*
X124685714Y-52883390D02*
X124780952Y-52835771D01*
X124780952Y-52835771D02*
X124971428Y-52835771D01*
X124971428Y-52835771D02*
X125066666Y-52883390D01*
X125066666Y-52883390D02*
X125114285Y-52931009D01*
X125114285Y-52931009D02*
X125161904Y-53026247D01*
X166742857Y-58954819D02*
X167076190Y-58478628D01*
X167314285Y-58954819D02*
X167314285Y-57954819D01*
X167314285Y-57954819D02*
X166933333Y-57954819D01*
X166933333Y-57954819D02*
X166838095Y-58002438D01*
X166838095Y-58002438D02*
X166790476Y-58050057D01*
X166790476Y-58050057D02*
X166742857Y-58145295D01*
X166742857Y-58145295D02*
X166742857Y-58288152D01*
X166742857Y-58288152D02*
X166790476Y-58383390D01*
X166790476Y-58383390D02*
X166838095Y-58431009D01*
X166838095Y-58431009D02*
X166933333Y-58478628D01*
X166933333Y-58478628D02*
X167314285Y-58478628D01*
X165790476Y-58954819D02*
X166361904Y-58954819D01*
X166076190Y-58954819D02*
X166076190Y-57954819D01*
X166076190Y-57954819D02*
X166171428Y-58097676D01*
X166171428Y-58097676D02*
X166266666Y-58192914D01*
X166266666Y-58192914D02*
X166361904Y-58240533D01*
X165457142Y-57954819D02*
X164790476Y-57954819D01*
X164790476Y-57954819D02*
X165219047Y-58954819D01*
X151666666Y-66454819D02*
X151999999Y-65978628D01*
X152238094Y-66454819D02*
X152238094Y-65454819D01*
X152238094Y-65454819D02*
X151857142Y-65454819D01*
X151857142Y-65454819D02*
X151761904Y-65502438D01*
X151761904Y-65502438D02*
X151714285Y-65550057D01*
X151714285Y-65550057D02*
X151666666Y-65645295D01*
X151666666Y-65645295D02*
X151666666Y-65788152D01*
X151666666Y-65788152D02*
X151714285Y-65883390D01*
X151714285Y-65883390D02*
X151761904Y-65931009D01*
X151761904Y-65931009D02*
X151857142Y-65978628D01*
X151857142Y-65978628D02*
X152238094Y-65978628D01*
X151190475Y-66454819D02*
X150999999Y-66454819D01*
X150999999Y-66454819D02*
X150904761Y-66407200D01*
X150904761Y-66407200D02*
X150857142Y-66359580D01*
X150857142Y-66359580D02*
X150761904Y-66216723D01*
X150761904Y-66216723D02*
X150714285Y-66026247D01*
X150714285Y-66026247D02*
X150714285Y-65645295D01*
X150714285Y-65645295D02*
X150761904Y-65550057D01*
X150761904Y-65550057D02*
X150809523Y-65502438D01*
X150809523Y-65502438D02*
X150904761Y-65454819D01*
X150904761Y-65454819D02*
X151095237Y-65454819D01*
X151095237Y-65454819D02*
X151190475Y-65502438D01*
X151190475Y-65502438D02*
X151238094Y-65550057D01*
X151238094Y-65550057D02*
X151285713Y-65645295D01*
X151285713Y-65645295D02*
X151285713Y-65883390D01*
X151285713Y-65883390D02*
X151238094Y-65978628D01*
X151238094Y-65978628D02*
X151190475Y-66026247D01*
X151190475Y-66026247D02*
X151095237Y-66073866D01*
X151095237Y-66073866D02*
X150904761Y-66073866D01*
X150904761Y-66073866D02*
X150809523Y-66026247D01*
X150809523Y-66026247D02*
X150761904Y-65978628D01*
X150761904Y-65978628D02*
X150714285Y-65883390D01*
X112961904Y-63854819D02*
X112961904Y-64664342D01*
X112961904Y-64664342D02*
X112914285Y-64759580D01*
X112914285Y-64759580D02*
X112866666Y-64807200D01*
X112866666Y-64807200D02*
X112771428Y-64854819D01*
X112771428Y-64854819D02*
X112580952Y-64854819D01*
X112580952Y-64854819D02*
X112485714Y-64807200D01*
X112485714Y-64807200D02*
X112438095Y-64759580D01*
X112438095Y-64759580D02*
X112390476Y-64664342D01*
X112390476Y-64664342D02*
X112390476Y-63854819D01*
X111390476Y-64854819D02*
X111961904Y-64854819D01*
X111676190Y-64854819D02*
X111676190Y-63854819D01*
X111676190Y-63854819D02*
X111771428Y-63997676D01*
X111771428Y-63997676D02*
X111866666Y-64092914D01*
X111866666Y-64092914D02*
X111961904Y-64140533D01*
X166742857Y-60854819D02*
X167076190Y-60378628D01*
X167314285Y-60854819D02*
X167314285Y-59854819D01*
X167314285Y-59854819D02*
X166933333Y-59854819D01*
X166933333Y-59854819D02*
X166838095Y-59902438D01*
X166838095Y-59902438D02*
X166790476Y-59950057D01*
X166790476Y-59950057D02*
X166742857Y-60045295D01*
X166742857Y-60045295D02*
X166742857Y-60188152D01*
X166742857Y-60188152D02*
X166790476Y-60283390D01*
X166790476Y-60283390D02*
X166838095Y-60331009D01*
X166838095Y-60331009D02*
X166933333Y-60378628D01*
X166933333Y-60378628D02*
X167314285Y-60378628D01*
X165790476Y-60854819D02*
X166361904Y-60854819D01*
X166076190Y-60854819D02*
X166076190Y-59854819D01*
X166076190Y-59854819D02*
X166171428Y-59997676D01*
X166171428Y-59997676D02*
X166266666Y-60092914D01*
X166266666Y-60092914D02*
X166361904Y-60140533D01*
X164933333Y-59854819D02*
X165123809Y-59854819D01*
X165123809Y-59854819D02*
X165219047Y-59902438D01*
X165219047Y-59902438D02*
X165266666Y-59950057D01*
X165266666Y-59950057D02*
X165361904Y-60092914D01*
X165361904Y-60092914D02*
X165409523Y-60283390D01*
X165409523Y-60283390D02*
X165409523Y-60664342D01*
X165409523Y-60664342D02*
X165361904Y-60759580D01*
X165361904Y-60759580D02*
X165314285Y-60807200D01*
X165314285Y-60807200D02*
X165219047Y-60854819D01*
X165219047Y-60854819D02*
X165028571Y-60854819D01*
X165028571Y-60854819D02*
X164933333Y-60807200D01*
X164933333Y-60807200D02*
X164885714Y-60759580D01*
X164885714Y-60759580D02*
X164838095Y-60664342D01*
X164838095Y-60664342D02*
X164838095Y-60426247D01*
X164838095Y-60426247D02*
X164885714Y-60331009D01*
X164885714Y-60331009D02*
X164933333Y-60283390D01*
X164933333Y-60283390D02*
X165028571Y-60235771D01*
X165028571Y-60235771D02*
X165219047Y-60235771D01*
X165219047Y-60235771D02*
X165314285Y-60283390D01*
X165314285Y-60283390D02*
X165361904Y-60331009D01*
X165361904Y-60331009D02*
X165409523Y-60426247D01*
X119538094Y-53454819D02*
X119538094Y-52454819D01*
X119538094Y-52454819D02*
X119299999Y-52454819D01*
X119299999Y-52454819D02*
X119157142Y-52502438D01*
X119157142Y-52502438D02*
X119061904Y-52597676D01*
X119061904Y-52597676D02*
X119014285Y-52692914D01*
X119014285Y-52692914D02*
X118966666Y-52883390D01*
X118966666Y-52883390D02*
X118966666Y-53026247D01*
X118966666Y-53026247D02*
X119014285Y-53216723D01*
X119014285Y-53216723D02*
X119061904Y-53311961D01*
X119061904Y-53311961D02*
X119157142Y-53407200D01*
X119157142Y-53407200D02*
X119299999Y-53454819D01*
X119299999Y-53454819D02*
X119538094Y-53454819D01*
X118585713Y-52550057D02*
X118538094Y-52502438D01*
X118538094Y-52502438D02*
X118442856Y-52454819D01*
X118442856Y-52454819D02*
X118204761Y-52454819D01*
X118204761Y-52454819D02*
X118109523Y-52502438D01*
X118109523Y-52502438D02*
X118061904Y-52550057D01*
X118061904Y-52550057D02*
X118014285Y-52645295D01*
X118014285Y-52645295D02*
X118014285Y-52740533D01*
X118014285Y-52740533D02*
X118061904Y-52883390D01*
X118061904Y-52883390D02*
X118633332Y-53454819D01*
X118633332Y-53454819D02*
X118014285Y-53454819D01*
D11*
X120488748Y-57265000D02*
X121011252Y-57265000D01*
X120488748Y-58735000D02*
X121011252Y-58735000D01*
X122735000Y-64772936D02*
X122735000Y-65227064D01*
X121265000Y-64772936D02*
X121265000Y-65227064D01*
X154272936Y-67265000D02*
X154727064Y-67265000D01*
X154272936Y-68735000D02*
X154727064Y-68735000D01*
X129735000Y-57072936D02*
X129735000Y-57527064D01*
X128265000Y-57072936D02*
X128265000Y-57527064D01*
X125235000Y-70738748D02*
X125235000Y-71261252D01*
X123765000Y-70738748D02*
X123765000Y-71261252D01*
X154272936Y-75265000D02*
X154727064Y-75265000D01*
X154272936Y-76735000D02*
X154727064Y-76735000D01*
X146110000Y-58270000D02*
X146110000Y-60930000D01*
X135890000Y-58270000D02*
X146110000Y-58270000D01*
X135890000Y-58270000D02*
X135890000Y-60930000D01*
X134620000Y-58270000D02*
X133290000Y-58270000D01*
X133290000Y-58270000D02*
X133290000Y-59600000D01*
X135890000Y-60930000D02*
X146110000Y-60930000D01*
X115735000Y-53772936D02*
X115735000Y-54227064D01*
X114265000Y-53772936D02*
X114265000Y-54227064D01*
X159327064Y-54035000D02*
X158872936Y-54035000D01*
X159327064Y-52565000D02*
X158872936Y-52565000D01*
X125235000Y-74772936D02*
X125235000Y-75227064D01*
X123765000Y-74772936D02*
X123765000Y-75227064D01*
X127735000Y-57072936D02*
X127735000Y-57527064D01*
X126265000Y-57072936D02*
X126265000Y-57527064D01*
X116370000Y-67170000D02*
X116370000Y-69830000D01*
X113770000Y-67170000D02*
X116370000Y-67170000D01*
X113770000Y-67170000D02*
X113770000Y-69830000D01*
X112500000Y-67170000D02*
X111170000Y-67170000D01*
X111170000Y-67170000D02*
X111170000Y-68500000D01*
X113770000Y-69830000D02*
X116370000Y-69830000D01*
X123761252Y-80735000D02*
X123238748Y-80735000D01*
X123761252Y-79265000D02*
X123238748Y-79265000D01*
X161340000Y-54100000D02*
X161340000Y-54750000D01*
X161340000Y-54100000D02*
X161340000Y-53450000D01*
X164460000Y-54100000D02*
X164460000Y-55775000D01*
X164460000Y-54100000D02*
X164460000Y-53450000D01*
X152595000Y-51670000D02*
X152595000Y-54330000D01*
X149995000Y-51670000D02*
X152595000Y-51670000D01*
X149995000Y-51670000D02*
X149995000Y-54330000D01*
X148725000Y-51670000D02*
X147395000Y-51670000D01*
X147395000Y-51670000D02*
X147395000Y-53000000D01*
X149995000Y-54330000D02*
X152595000Y-54330000D01*
X146728000Y-55850000D02*
X153800000Y-55850000D01*
X146728000Y-59150000D02*
X146728000Y-55850000D01*
X146728000Y-59150000D02*
X153800000Y-59150000D01*
X151590000Y-89030000D02*
X151590000Y-86370000D01*
X156730000Y-89030000D02*
X151590000Y-89030000D01*
X156730000Y-89030000D02*
X156730000Y-86370000D01*
X158000000Y-89030000D02*
X159330000Y-89030000D01*
X159330000Y-89030000D02*
X159330000Y-87700000D01*
X156730000Y-86370000D02*
X151590000Y-86370000D01*
X154727064Y-74735000D02*
X154272936Y-74735000D01*
X154727064Y-73265000D02*
X154272936Y-73265000D01*
X160085000Y-65830000D02*
X160085000Y-63170000D01*
X170305000Y-65830000D02*
X160085000Y-65830000D01*
X170305000Y-65830000D02*
X170305000Y-63170000D01*
X171575000Y-65830000D02*
X172905000Y-65830000D01*
X172905000Y-65830000D02*
X172905000Y-64500000D01*
X170305000Y-63170000D02*
X160085000Y-63170000D01*
X123761252Y-78735000D02*
X123238748Y-78735000D01*
X123761252Y-77265000D02*
X123238748Y-77265000D01*
X154727064Y-70735000D02*
X154272936Y-70735000D01*
X154727064Y-69265000D02*
X154272936Y-69265000D01*
X128380000Y-62875000D02*
X129380000Y-62875000D01*
X128380000Y-63655000D02*
X128380000Y-62875000D01*
X128380000Y-82200000D02*
X128000000Y-82200000D01*
X128380000Y-88615000D02*
X128380000Y-82200000D01*
X128380000Y-88615000D02*
X146620000Y-88615000D01*
X146620000Y-62875000D02*
X145620000Y-62875000D01*
X146620000Y-63655000D02*
X146620000Y-62875000D01*
X146620000Y-88615000D02*
X146620000Y-82200000D01*
X154272936Y-79265000D02*
X154727064Y-79265000D01*
X154272936Y-80735000D02*
X154727064Y-80735000D01*
X131405000Y-54330000D02*
X131405000Y-51670000D01*
X134005000Y-54330000D02*
X131405000Y-54330000D01*
X134005000Y-54330000D02*
X134005000Y-51670000D01*
X135275000Y-54330000D02*
X136605000Y-54330000D01*
X136605000Y-54330000D02*
X136605000Y-53000000D01*
X134005000Y-51670000D02*
X131405000Y-51670000D01*
X154272936Y-71265000D02*
X154727064Y-71265000D01*
X154272936Y-72735000D02*
X154727064Y-72735000D01*
X148500000Y-60700000D02*
X148500000Y-62900000D01*
X148500000Y-62900000D02*
X151500000Y-62900000D01*
X151500000Y-60700000D02*
X148500000Y-60700000D01*
X151500000Y-62900000D02*
X151500000Y-60700000D01*
X132472936Y-56065000D02*
X132927064Y-56065000D01*
X132472936Y-57535000D02*
X132927064Y-57535000D01*
X154727064Y-78735000D02*
X154272936Y-78735000D01*
X154727064Y-77265000D02*
X154272936Y-77265000D01*
X126490000Y-53300000D02*
X126490000Y-53950000D01*
X126490000Y-53300000D02*
X126490000Y-52650000D01*
X129610000Y-53300000D02*
X129610000Y-54975000D01*
X129610000Y-53300000D02*
X129610000Y-52650000D01*
X163027064Y-59135000D02*
X162572936Y-59135000D01*
X163027064Y-57665000D02*
X162572936Y-57665000D01*
X154727064Y-66735000D02*
X154272936Y-66735000D01*
X154727064Y-65265000D02*
X154272936Y-65265000D01*
X111790000Y-57050000D02*
X111790000Y-63060000D01*
X118610000Y-59300000D02*
X118610000Y-63060000D01*
X118610000Y-63060000D02*
X117350000Y-63060000D01*
X111790000Y-63060000D02*
X113050000Y-63060000D01*
X163027064Y-61135000D02*
X162572936Y-61135000D01*
X163027064Y-59665000D02*
X162572936Y-59665000D01*
X123160000Y-53735000D02*
X120700000Y-53735000D01*
X123160000Y-52265000D02*
X123160000Y-53735000D01*
X120700000Y-52265000D02*
X123160000Y-52265000D01*
%LPC*%
D12*
X124500000Y-60000000D03*
D13*
X159000000Y-55500000D03*
D12*
X159000000Y-60000000D03*
D13*
X124500000Y-55500000D03*
D14*
X119800000Y-58000000D03*
X121700000Y-58000000D03*
D15*
X122000000Y-64000000D03*
X122000000Y-66000000D03*
D16*
X153500000Y-68000000D03*
X155500000Y-68000000D03*
D15*
X129000000Y-56300000D03*
X129000000Y-58300000D03*
D17*
X124500000Y-70050000D03*
X124500000Y-71950000D03*
D16*
X153500000Y-76000000D03*
X155500000Y-76000000D03*
D18*
X134620000Y-59600000D03*
D19*
X137160000Y-59600000D03*
X139700000Y-59600000D03*
X142240000Y-59600000D03*
X144780000Y-59600000D03*
D15*
X115000000Y-53000000D03*
X115000000Y-55000000D03*
D20*
X160100000Y-53300000D03*
X158100000Y-53300000D03*
D15*
X124500000Y-74000000D03*
X124500000Y-76000000D03*
X127000000Y-56300000D03*
X127000000Y-58300000D03*
D18*
X112500000Y-68500000D03*
D21*
X115040000Y-68500000D03*
D22*
X124450000Y-80000000D03*
X122550000Y-80000000D03*
D23*
X163850000Y-55037500D03*
X161950000Y-55037500D03*
X162900000Y-53162500D03*
D18*
X148725000Y-53000000D03*
D21*
X151265000Y-53000000D03*
D24*
X148800000Y-57500000D03*
X153800000Y-57500000D03*
D18*
X158000000Y-87700000D03*
D21*
X155460000Y-87700000D03*
X152920000Y-87700000D03*
D20*
X155500000Y-74000000D03*
X153500000Y-74000000D03*
D18*
X171575000Y-64500000D03*
D21*
X169035000Y-64500000D03*
X166495000Y-64500000D03*
X163955000Y-64500000D03*
X161415000Y-64500000D03*
D22*
X124450000Y-78000000D03*
X122550000Y-78000000D03*
D20*
X155500000Y-70000000D03*
X153500000Y-70000000D03*
D25*
X128750000Y-81005000D03*
X128750000Y-79735000D03*
X128750000Y-78465000D03*
X128750000Y-77195000D03*
X128750000Y-75925000D03*
X128750000Y-74655000D03*
X128750000Y-73385000D03*
X128750000Y-72115000D03*
X128750000Y-70845000D03*
X128750000Y-69575000D03*
X128750000Y-68305000D03*
X128750000Y-67035000D03*
X128750000Y-65765000D03*
X128750000Y-64495000D03*
D26*
X131790000Y-63245000D03*
X133060000Y-63245000D03*
X134330000Y-63245000D03*
X135600000Y-63245000D03*
X136870000Y-63245000D03*
X138140000Y-63245000D03*
X139410000Y-63245000D03*
X140680000Y-63245000D03*
X141950000Y-63245000D03*
X143220000Y-63245000D03*
D25*
X146250000Y-64495000D03*
X146250000Y-65765000D03*
X146250000Y-67035000D03*
X146250000Y-68305000D03*
X146250000Y-69575000D03*
X146250000Y-70845000D03*
X146250000Y-72115000D03*
X146250000Y-73385000D03*
X146250000Y-74655000D03*
X146250000Y-75925000D03*
X146250000Y-77195000D03*
X146250000Y-78465000D03*
X146250000Y-79735000D03*
X146250000Y-81005000D03*
D16*
X153500000Y-80000000D03*
X155500000Y-80000000D03*
D18*
X135275000Y-53000000D03*
D21*
X132735000Y-53000000D03*
D16*
X153500000Y-72000000D03*
X155500000Y-72000000D03*
D27*
X149275000Y-61800000D03*
D28*
X150725000Y-61800000D03*
D16*
X131700000Y-56800000D03*
X133700000Y-56800000D03*
D20*
X155500000Y-78000000D03*
X153500000Y-78000000D03*
D23*
X129000000Y-54237500D03*
X127100000Y-54237500D03*
X128050000Y-52362500D03*
D20*
X163800000Y-58400000D03*
X161800000Y-58400000D03*
X155500000Y-66000000D03*
X153500000Y-66000000D03*
D29*
X112900000Y-58000000D03*
X115200000Y-58000000D03*
D30*
X115200000Y-64300000D03*
D29*
X117500000Y-58000000D03*
D20*
X163800000Y-60400000D03*
X161800000Y-60400000D03*
D31*
X122375000Y-53000000D03*
X120625000Y-53000000D03*
%LPD*%
M02*
