M48
; DRILL file {KiCad 7.0.6} date Thu Sep 28 23:10:46 2023
; FORMAT={-:-/ absolute / metric / decimal}
; #@! TF.CreationDate,2023-09-28T23:10:46+01:00
; #@! TF.GenerationSoftware,Kicad,Pcbnew,7.0.6
; #@! TF.FileFunction,Plated,1,4,PTH
FMAT,2
METRIC
; #@! TA.AperFunction,Plated,PTH,ViaDrill
T1C0.500
; #@! TA.AperFunction,Plated,PTH,ComponentDrill
T2C1.000
%
G90
G05
T1
X110.75Y-64.75
X110.9Y-61.8
X111.0Y-55.75
X111.0Y-59.5
X111.05Y-52.2
X111.05Y-70.25
X111.9Y-63.5
X113.0Y-59.75
X116.35Y-70.6
X117.0Y-55.0
X117.8Y-69.5
X118.0Y-51.75
X118.7Y-62.6
X119.0Y-68.5
X119.25Y-55.0
X120.05Y-72.75
X120.15Y-67.5
X121.25Y-62.5
X121.5Y-55.0
X122.8Y-81.9
X122.8Y-84.8
X122.8Y-87.6
X124.25Y-64.0
X125.5Y-67.8
X125.75Y-78.931
X126.1Y-81.6
X126.6Y-71.1
X126.75Y-51.75
X130.25Y-51.75
X130.5Y-64.5
X130.6Y-78.3
X130.6Y-81.6
X130.7Y-58.6
X131.25Y-73.8
X133.1Y-59.7
X133.5Y-77.4
X133.925Y-81.6
X134.2Y-71.3
X134.6Y-59.6
X137.05Y-54.9
X137.25Y-81.6
X137.75Y-76.75
X138.25Y-56.75
X138.5Y-65.5
X138.9Y-69.9
X140.5Y-65.5
X140.575Y-81.6
X141.5Y-61.5
X142.5Y-65.5
X142.95Y-69.9
X143.0Y-73.0
X143.0Y-75.9
X143.9Y-81.6
X144.5Y-65.5
X145.3Y-56.9
X146.85Y-54.7
X147.2Y-59.9
X147.8Y-81.9
X150.0Y-64.6
X150.1Y-55.4
X150.7Y-80.2
X151.0Y-73.5
X151.2Y-69.0
X152.0Y-77.0
X152.2Y-59.7
X153.0Y-83.3
X153.0Y-84.5
X153.6Y-51.8
X154.0Y-60.75
X154.8Y-54.4
X156.5Y-55.3
X156.8Y-51.8
X157.0Y-79.0
X157.1Y-70.0
X157.5Y-64.75
X157.5Y-74.0
X157.9Y-83.3
X158.5Y-79.0
X158.8Y-77.3
X159.0Y-63.25
X159.0Y-69.0
X160.8Y-56.1
X161.044Y-70.799
X162.0Y-69.806
X162.5Y-62.5
X163.0Y-68.858
X164.7Y-52.7
X165.4Y-62.5
X165.7Y-68.2
X167.0Y-55.0
X168.5Y-51.9
X168.5Y-58.9
X168.5Y-62.5
X172.55Y-62.35
X172.7Y-51.9
X172.7Y-55.0
X172.7Y-58.9
T2
X112.5Y-68.5
X115.04Y-68.5
X132.735Y-53.0
X135.275Y-53.0
X148.725Y-53.0
X151.265Y-53.0
X152.92Y-87.7
X155.46Y-87.7
X158.0Y-87.7
X161.415Y-64.5
X163.955Y-64.5
X166.495Y-64.5
X169.035Y-64.5
X171.575Y-64.5
T0
M30
