G04 #@! TF.GenerationSoftware,KiCad,Pcbnew,7.0.6*
G04 #@! TF.CreationDate,2023-09-28T23:10:25+01:00*
G04 #@! TF.ProjectId,GalaxyModPCB,47616c61-7879-44d6-9f64-5043422e6b69,rev?*
G04 #@! TF.SameCoordinates,Original*
G04 #@! TF.FileFunction,Copper,L4,Bot*
G04 #@! TF.FilePolarity,Positive*
%FSLAX46Y46*%
G04 Gerber Fmt 4.6, Leading zero omitted, Abs format (unit mm)*
G04 Created by KiCad (PCBNEW 7.0.6) date 2023-09-28 23:10:25*
%MOMM*%
%LPD*%
G01*
G04 APERTURE LIST*
G04 Aperture macros list*
%AMRoundRect*
0 Rectangle with rounded corners*
0 $1 Rounding radius*
0 $2 $3 $4 $5 $6 $7 $8 $9 X,Y pos of 4 corners*
0 Add a 4 corners polygon primitive as box body*
4,1,4,$2,$3,$4,$5,$6,$7,$8,$9,$2,$3,0*
0 Add four circle primitives for the rounded corners*
1,1,$1+$1,$2,$3*
1,1,$1+$1,$4,$5*
1,1,$1+$1,$6,$7*
1,1,$1+$1,$8,$9*
0 Add four rect primitives between the rounded corners*
20,1,$1+$1,$2,$3,$4,$5,0*
20,1,$1+$1,$4,$5,$6,$7,0*
20,1,$1+$1,$6,$7,$8,$9,0*
20,1,$1+$1,$8,$9,$2,$3,0*%
%AMFreePoly0*
4,1,6,1.000000,0.000000,0.500000,-0.750000,-0.500000,-0.750000,-0.500000,0.750000,0.500000,0.750000,1.000000,0.000000,1.000000,0.000000,$1*%
%AMFreePoly1*
4,1,6,0.500000,-0.750000,-0.650000,-0.750000,-0.150000,0.000000,-0.650000,0.750000,0.500000,0.750000,0.500000,-0.750000,0.500000,-0.750000,$1*%
G04 Aperture macros list end*
G04 #@! TA.AperFunction,SMDPad,CuDef*
%ADD10RoundRect,0.250000X-0.250000X-0.475000X0.250000X-0.475000X0.250000X0.475000X-0.250000X0.475000X0*%
G04 #@! TD*
G04 #@! TA.AperFunction,SMDPad,CuDef*
%ADD11RoundRect,0.250000X-0.450000X0.350000X-0.450000X-0.350000X0.450000X-0.350000X0.450000X0.350000X0*%
G04 #@! TD*
G04 #@! TA.AperFunction,SMDPad,CuDef*
%ADD12RoundRect,0.250000X-0.350000X-0.450000X0.350000X-0.450000X0.350000X0.450000X-0.350000X0.450000X0*%
G04 #@! TD*
G04 #@! TA.AperFunction,SMDPad,CuDef*
%ADD13RoundRect,0.250000X-0.475000X0.250000X-0.475000X-0.250000X0.475000X-0.250000X0.475000X0.250000X0*%
G04 #@! TD*
G04 #@! TA.AperFunction,SMDPad,CuDef*
%ADD14R,1.700000X1.700000*%
G04 #@! TD*
G04 #@! TA.AperFunction,SMDPad,CuDef*
%ADD15RoundRect,0.425000X-0.425000X0.425000X-0.425000X-0.425000X0.425000X-0.425000X0.425000X0.425000X0*%
G04 #@! TD*
G04 #@! TA.AperFunction,SMDPad,CuDef*
%ADD16RoundRect,0.250000X0.350000X0.450000X-0.350000X0.450000X-0.350000X-0.450000X0.350000X-0.450000X0*%
G04 #@! TD*
G04 #@! TA.AperFunction,ComponentPad*
%ADD17R,1.700000X1.700000*%
G04 #@! TD*
G04 #@! TA.AperFunction,ComponentPad*
%ADD18O,1.700000X1.700000*%
G04 #@! TD*
G04 #@! TA.AperFunction,SMDPad,CuDef*
%ADD19RoundRect,0.250000X0.250000X0.475000X-0.250000X0.475000X-0.250000X-0.475000X0.250000X-0.475000X0*%
G04 #@! TD*
G04 #@! TA.AperFunction,SMDPad,CuDef*
%ADD20RoundRect,0.150000X0.150000X-0.587500X0.150000X0.587500X-0.150000X0.587500X-0.150000X-0.587500X0*%
G04 #@! TD*
G04 #@! TA.AperFunction,SMDPad,CuDef*
%ADD21R,3.500000X1.800000*%
G04 #@! TD*
G04 #@! TA.AperFunction,SMDPad,CuDef*
%ADD22R,1.500000X0.900000*%
G04 #@! TD*
G04 #@! TA.AperFunction,SMDPad,CuDef*
%ADD23R,0.900000X1.500000*%
G04 #@! TD*
G04 #@! TA.AperFunction,SMDPad,CuDef*
%ADD24FreePoly0,0.000000*%
G04 #@! TD*
G04 #@! TA.AperFunction,SMDPad,CuDef*
%ADD25FreePoly1,0.000000*%
G04 #@! TD*
G04 #@! TA.AperFunction,SMDPad,CuDef*
%ADD26R,1.500000X2.000000*%
G04 #@! TD*
G04 #@! TA.AperFunction,SMDPad,CuDef*
%ADD27R,3.800000X2.000000*%
G04 #@! TD*
G04 #@! TA.AperFunction,SMDPad,CuDef*
%ADD28RoundRect,0.237500X0.287500X0.237500X-0.287500X0.237500X-0.287500X-0.237500X0.287500X-0.237500X0*%
G04 #@! TD*
G04 #@! TA.AperFunction,ViaPad*
%ADD29C,1.000000*%
G04 #@! TD*
G04 #@! TA.AperFunction,Conductor*
%ADD30C,0.500000*%
G04 #@! TD*
G04 #@! TA.AperFunction,Conductor*
%ADD31C,0.300000*%
G04 #@! TD*
G04 APERTURE END LIST*
D10*
X119800000Y-58000000D03*
X121700000Y-58000000D03*
D11*
X122000000Y-64000000D03*
X122000000Y-66000000D03*
D12*
X153500000Y-68000000D03*
X155500000Y-68000000D03*
D11*
X129000000Y-56300000D03*
X129000000Y-58300000D03*
D13*
X124500000Y-70050000D03*
X124500000Y-71950000D03*
D12*
X153500000Y-76000000D03*
X155500000Y-76000000D03*
D14*
X134620000Y-59600000D03*
D15*
X137160000Y-59600000D03*
X139700000Y-59600000D03*
X142240000Y-59600000D03*
X144780000Y-59600000D03*
D11*
X115000000Y-53000000D03*
X115000000Y-55000000D03*
D16*
X160100000Y-53300000D03*
X158100000Y-53300000D03*
D11*
X124500000Y-74000000D03*
X124500000Y-76000000D03*
X127000000Y-56300000D03*
X127000000Y-58300000D03*
D17*
X112500000Y-68500000D03*
D18*
X115040000Y-68500000D03*
D19*
X124450000Y-80000000D03*
X122550000Y-80000000D03*
D20*
X163850000Y-55037500D03*
X161950000Y-55037500D03*
X162900000Y-53162500D03*
D17*
X148725000Y-53000000D03*
D18*
X151265000Y-53000000D03*
D21*
X148800000Y-57500000D03*
X153800000Y-57500000D03*
D17*
X158000000Y-87700000D03*
D18*
X155460000Y-87700000D03*
X152920000Y-87700000D03*
D16*
X155500000Y-74000000D03*
X153500000Y-74000000D03*
D17*
X171575000Y-64500000D03*
D18*
X169035000Y-64500000D03*
X166495000Y-64500000D03*
X163955000Y-64500000D03*
X161415000Y-64500000D03*
D19*
X124450000Y-78000000D03*
X122550000Y-78000000D03*
D16*
X155500000Y-70000000D03*
X153500000Y-70000000D03*
D22*
X128750000Y-81005000D03*
X128750000Y-79735000D03*
X128750000Y-78465000D03*
X128750000Y-77195000D03*
X128750000Y-75925000D03*
X128750000Y-74655000D03*
X128750000Y-73385000D03*
X128750000Y-72115000D03*
X128750000Y-70845000D03*
X128750000Y-69575000D03*
X128750000Y-68305000D03*
X128750000Y-67035000D03*
X128750000Y-65765000D03*
X128750000Y-64495000D03*
D23*
X131790000Y-63245000D03*
X133060000Y-63245000D03*
X134330000Y-63245000D03*
X135600000Y-63245000D03*
X136870000Y-63245000D03*
X138140000Y-63245000D03*
X139410000Y-63245000D03*
X140680000Y-63245000D03*
X141950000Y-63245000D03*
X143220000Y-63245000D03*
D22*
X146250000Y-64495000D03*
X146250000Y-65765000D03*
X146250000Y-67035000D03*
X146250000Y-68305000D03*
X146250000Y-69575000D03*
X146250000Y-70845000D03*
X146250000Y-72115000D03*
X146250000Y-73385000D03*
X146250000Y-74655000D03*
X146250000Y-75925000D03*
X146250000Y-77195000D03*
X146250000Y-78465000D03*
X146250000Y-79735000D03*
X146250000Y-81005000D03*
D12*
X153500000Y-80000000D03*
X155500000Y-80000000D03*
D17*
X135275000Y-53000000D03*
D18*
X132735000Y-53000000D03*
D12*
X153500000Y-72000000D03*
X155500000Y-72000000D03*
D24*
X149275000Y-61800000D03*
D25*
X150725000Y-61800000D03*
D12*
X131700000Y-56800000D03*
X133700000Y-56800000D03*
D16*
X155500000Y-78000000D03*
X153500000Y-78000000D03*
D20*
X129000000Y-54237500D03*
X127100000Y-54237500D03*
X128050000Y-52362500D03*
D16*
X163800000Y-58400000D03*
X161800000Y-58400000D03*
X155500000Y-66000000D03*
X153500000Y-66000000D03*
D26*
X112900000Y-58000000D03*
X115200000Y-58000000D03*
D27*
X115200000Y-64300000D03*
D26*
X117500000Y-58000000D03*
D16*
X163800000Y-60400000D03*
X161800000Y-60400000D03*
D28*
X122375000Y-53000000D03*
X120625000Y-53000000D03*
D29*
X165400000Y-62500000D03*
X158800000Y-77300000D03*
X121500000Y-55000000D03*
X172700000Y-55000000D03*
X168500000Y-58900000D03*
X157900000Y-83300000D03*
X122800000Y-81900000D03*
X172700000Y-51900000D03*
X126600000Y-71100000D03*
X165700000Y-68200000D03*
X168500000Y-51900000D03*
X111000000Y-59500000D03*
X152200000Y-59700000D03*
X131250000Y-73800000D03*
X133100000Y-59700000D03*
X116350000Y-70600000D03*
X143900000Y-81600000D03*
X124250000Y-64000000D03*
X130700000Y-58600000D03*
X143000000Y-73000000D03*
X160800000Y-56100000D03*
X122800000Y-87600000D03*
X126100000Y-81600000D03*
X111000000Y-55750000D03*
X125500000Y-67800000D03*
X159000000Y-69000000D03*
X143000000Y-75900000D03*
X137250000Y-81600000D03*
X147800000Y-81900000D03*
X137750000Y-76750000D03*
X159000000Y-63250000D03*
X153600000Y-51800000D03*
X162500000Y-62500000D03*
X133500000Y-77400000D03*
X150000000Y-64600000D03*
X119250000Y-55000000D03*
X126750000Y-51750000D03*
X138900000Y-69900000D03*
X113000000Y-59750000D03*
X121250000Y-62500000D03*
X133925000Y-81600000D03*
X125750000Y-78931500D03*
X140575000Y-81600000D03*
X145300000Y-56900000D03*
X153000000Y-84500000D03*
X138250000Y-56750000D03*
X110750000Y-64750000D03*
X134200000Y-71300000D03*
X167000000Y-55000000D03*
X118000000Y-51750000D03*
X150100000Y-55400000D03*
X117800000Y-69500000D03*
X172700000Y-58900498D03*
X147200000Y-59900000D03*
X152000000Y-77000000D03*
X154800000Y-54400000D03*
X157500000Y-64750000D03*
X111050000Y-70250000D03*
X151000000Y-73500000D03*
X119000000Y-68500000D03*
X156500000Y-55300000D03*
X164700000Y-52700000D03*
X157500000Y-74000000D03*
X157000000Y-79000000D03*
X141500000Y-61500000D03*
X153000000Y-83300000D03*
X156800000Y-51800000D03*
X150700000Y-80200000D03*
X120150000Y-67500000D03*
X120050000Y-72750000D03*
X146850000Y-54700000D03*
X157100000Y-70000000D03*
X130500000Y-64500000D03*
X111900000Y-63500000D03*
X154000000Y-60750000D03*
X122800000Y-84800000D03*
X134600000Y-59600000D03*
X137050000Y-54900000D03*
X130600000Y-78300000D03*
X168500000Y-62500000D03*
X130250000Y-51750000D03*
X111050000Y-52200000D03*
X151200000Y-69000000D03*
X130600000Y-81600000D03*
X118700000Y-62600000D03*
X142950000Y-69900000D03*
X172550000Y-62350000D03*
X110900000Y-61800000D03*
X117000000Y-55000000D03*
X144500000Y-65500000D03*
X142500000Y-65500000D03*
X140500000Y-65500000D03*
X138500000Y-65500000D03*
X163000000Y-68857500D03*
X162000000Y-69806167D03*
X161043565Y-70799232D03*
X158500000Y-79000000D03*
D30*
X122550000Y-87950000D02*
X122500000Y-88000000D01*
X134620000Y-59600000D02*
X134600000Y-59600000D01*
X122000000Y-66000000D02*
X122000000Y-75000000D01*
X123000000Y-76000000D02*
X124500000Y-76000000D01*
X128750000Y-79735000D02*
X126765000Y-79735000D01*
X126765000Y-79735000D02*
X126500000Y-80000000D01*
X124450000Y-78000000D02*
X124450000Y-76050000D01*
X124450000Y-76050000D02*
X124500000Y-76000000D01*
X124450000Y-78000000D02*
X124450000Y-80000000D01*
X122000000Y-75000000D02*
X123000000Y-76000000D01*
X126500000Y-80000000D02*
X124450000Y-80000000D01*
X126500000Y-74500000D02*
X126000000Y-74000000D01*
X127000000Y-78500000D02*
X126500000Y-78000000D01*
X124500000Y-71950000D02*
X124500000Y-74000000D01*
X126500000Y-78000000D02*
X126500000Y-74500000D01*
X128750000Y-78465000D02*
X127035000Y-78465000D01*
X127035000Y-78465000D02*
X127000000Y-78500000D01*
X126000000Y-74000000D02*
X124500000Y-74000000D01*
X148725000Y-53000000D02*
X148725000Y-57425000D01*
X148725000Y-57425000D02*
X148800000Y-57500000D01*
X115000000Y-55000000D02*
X117000000Y-55000000D01*
X117500000Y-55500000D02*
X117500000Y-58000000D01*
X117000000Y-55000000D02*
X117500000Y-55500000D01*
X117500000Y-58000000D02*
X119800000Y-58000000D01*
D31*
X128750000Y-72115000D02*
X130135000Y-72115000D01*
X144500000Y-67000000D02*
X144500000Y-65500000D01*
X143500000Y-68000000D02*
X144500000Y-67000000D01*
X130135000Y-72115000D02*
X134250000Y-68000000D01*
X134250000Y-68000000D02*
X143500000Y-68000000D01*
X142500000Y-66750000D02*
X142500000Y-65500000D01*
X141677000Y-67573000D02*
X142500000Y-66750000D01*
X128750000Y-70845000D02*
X130801130Y-70845000D01*
X130801130Y-70845000D02*
X134073130Y-67573000D01*
X134073130Y-67573000D02*
X141677000Y-67573000D01*
X131425000Y-69575000D02*
X133854000Y-67146000D01*
X140500000Y-66750000D02*
X140500000Y-65500000D01*
X133854000Y-67146000D02*
X140104000Y-67146000D01*
X140104000Y-67146000D02*
X140500000Y-66750000D01*
X128750000Y-69575000D02*
X131425000Y-69575000D01*
X138281000Y-66719000D02*
X138500000Y-66500000D01*
X138500000Y-66500000D02*
X138500000Y-65500000D01*
X133677131Y-66719000D02*
X138281000Y-66719000D01*
X128750000Y-68305000D02*
X132091130Y-68305000D01*
X132091130Y-68305000D02*
X133677131Y-66719000D01*
D30*
X115000000Y-53000000D02*
X120625000Y-53000000D01*
X157800000Y-53000000D02*
X158100000Y-53300000D01*
X153200000Y-55100000D02*
X153800000Y-55700000D01*
X151265000Y-53000000D02*
X157800000Y-53000000D01*
X151265000Y-53000000D02*
X151265000Y-54665000D01*
X153800000Y-55700000D02*
X153800000Y-57500000D01*
X151700000Y-55100000D02*
X153200000Y-55100000D01*
X151265000Y-54665000D02*
X151700000Y-55100000D01*
X148200000Y-61800000D02*
X149275000Y-61800000D01*
X146250000Y-63750000D02*
X148200000Y-61800000D01*
X146250000Y-64495000D02*
X146250000Y-63750000D01*
X141950000Y-63245000D02*
X141950000Y-63950000D01*
X144000000Y-64500000D02*
X144780000Y-63720000D01*
X141950000Y-63950000D02*
X142500000Y-64500000D01*
X144780000Y-63720000D02*
X144780000Y-59600000D01*
X142500000Y-64500000D02*
X144000000Y-64500000D01*
X132700000Y-58300000D02*
X129600000Y-61400000D01*
X127265000Y-65765000D02*
X128750000Y-65765000D01*
X127000000Y-64000000D02*
X127000000Y-65500000D01*
X135860000Y-58300000D02*
X132700000Y-58300000D01*
X129600000Y-61400000D02*
X127000000Y-64000000D01*
X137160000Y-59600000D02*
X135860000Y-58300000D01*
X127000000Y-65500000D02*
X127265000Y-65765000D01*
X138400000Y-60900000D02*
X131000000Y-60900000D01*
X131000000Y-60900000D02*
X128700000Y-63200000D01*
X128750000Y-63250000D02*
X128750000Y-64495000D01*
X139700000Y-59600000D02*
X138400000Y-60900000D01*
X128700000Y-63200000D02*
X128750000Y-63250000D01*
X133060000Y-63245000D02*
X133060000Y-61995000D01*
X133528000Y-61527000D02*
X140073000Y-61527000D01*
X133060000Y-61995000D02*
X133528000Y-61527000D01*
X140073000Y-61527000D02*
X142000000Y-59600000D01*
X142000000Y-59600000D02*
X142240000Y-59600000D01*
X149127000Y-80627000D02*
X149873000Y-81373000D01*
X146250000Y-75925000D02*
X147500000Y-75925000D01*
X149127000Y-77552000D02*
X149127000Y-80627000D01*
X147500000Y-75925000D02*
X149127000Y-77552000D01*
X154473000Y-81373000D02*
X155460000Y-82360000D01*
X149873000Y-81373000D02*
X154473000Y-81373000D01*
X155460000Y-82360000D02*
X155460000Y-87700000D01*
X154213288Y-82000000D02*
X149500000Y-82000000D01*
X154833000Y-85787000D02*
X154833000Y-82619712D01*
X154833000Y-82619712D02*
X154213288Y-82000000D01*
X147695000Y-77195000D02*
X146250000Y-77195000D01*
X149500000Y-82000000D02*
X148500000Y-81000000D01*
X148500000Y-78000000D02*
X147695000Y-77195000D01*
X152920000Y-87700000D02*
X154833000Y-85787000D01*
X148500000Y-81000000D02*
X148500000Y-78000000D01*
X132735000Y-53000000D02*
X132735000Y-54235000D01*
X133700000Y-55200000D02*
X133700000Y-56800000D01*
X132735000Y-54235000D02*
X133700000Y-55200000D01*
X163000000Y-68857500D02*
X162142500Y-68000000D01*
X162142500Y-68000000D02*
X155500000Y-68000000D01*
X158500000Y-72000000D02*
X155500000Y-72000000D01*
X160693833Y-69806167D02*
X158500000Y-72000000D01*
X162000000Y-69806167D02*
X160693833Y-69806167D01*
X161043565Y-71712102D02*
X159000000Y-73755667D01*
X159000000Y-73755667D02*
X159000000Y-75000000D01*
X161043565Y-70799232D02*
X161043565Y-71712102D01*
X159000000Y-75000000D02*
X158000000Y-76000000D01*
X158000000Y-76000000D02*
X155500000Y-76000000D01*
X158500000Y-79000000D02*
X157500000Y-80000000D01*
X157500000Y-80000000D02*
X155500000Y-80000000D01*
X163850000Y-58350000D02*
X163800000Y-58400000D01*
X163850000Y-55037500D02*
X163850000Y-58350000D01*
X129000000Y-54237500D02*
X129000000Y-56300000D01*
X162762500Y-53300000D02*
X162900000Y-53162500D01*
X160100000Y-53300000D02*
X162762500Y-53300000D01*
X115250000Y-58300000D02*
X115250000Y-59750000D01*
X115200000Y-58000000D02*
X115200000Y-58250000D01*
X122000000Y-64000000D02*
X122200000Y-63800000D01*
X121250000Y-61000000D02*
X116500000Y-61000000D01*
X115200000Y-64300000D02*
X121700000Y-64300000D01*
X115250000Y-59750000D02*
X116500000Y-61000000D01*
X121700000Y-64300000D02*
X122000000Y-64000000D01*
X122200000Y-63800000D02*
X122200000Y-61950000D01*
X115200000Y-58250000D02*
X115250000Y-58300000D01*
X122200000Y-61950000D02*
X121250000Y-61000000D01*
X146250000Y-68305000D02*
X149695000Y-68305000D01*
X153500000Y-68000000D02*
X153500000Y-66000000D01*
X150000000Y-68000000D02*
X153500000Y-68000000D01*
X149695000Y-68305000D02*
X150000000Y-68000000D01*
X147655000Y-70845000D02*
X148500000Y-70000000D01*
X153500000Y-72000000D02*
X153500000Y-70000000D01*
X148500000Y-70000000D02*
X153500000Y-70000000D01*
X146250000Y-70845000D02*
X147655000Y-70845000D01*
X146250000Y-72115000D02*
X147615000Y-72115000D01*
X147615000Y-72115000D02*
X151500000Y-76000000D01*
X151500000Y-76000000D02*
X153500000Y-76000000D01*
X153500000Y-76000000D02*
X153500000Y-74000000D01*
X151000000Y-78000000D02*
X153500000Y-78000000D01*
X147655000Y-74655000D02*
X151000000Y-78000000D01*
X146250000Y-74655000D02*
X147655000Y-74655000D01*
X153500000Y-80000000D02*
X153500000Y-78000000D01*
X150635000Y-65765000D02*
X154300000Y-62100000D01*
X154300000Y-62100000D02*
X161000000Y-62100000D01*
X161800000Y-61300000D02*
X161800000Y-60400000D01*
X146250000Y-65765000D02*
X150635000Y-65765000D01*
X161000000Y-62100000D02*
X161800000Y-61300000D01*
X161800000Y-58400000D02*
X161800000Y-60400000D01*
X127035000Y-67035000D02*
X125800000Y-65800000D01*
X129000000Y-58300000D02*
X127000000Y-58300000D01*
X125800000Y-63200000D02*
X127000000Y-62000000D01*
X128750000Y-67035000D02*
X127035000Y-67035000D01*
X125800000Y-65800000D02*
X125800000Y-63200000D01*
X127000000Y-58300000D02*
X127000000Y-62000000D01*
X130400000Y-56400000D02*
X130800000Y-56800000D01*
X128050000Y-52362500D02*
X129162500Y-52362500D01*
X130800000Y-56800000D02*
X131700000Y-56800000D01*
X129162500Y-52362500D02*
X130400000Y-53600000D01*
X130400000Y-53600000D02*
X130400000Y-56400000D01*
G04 #@! TA.AperFunction,Conductor*
G36*
X127523542Y-51020502D02*
G01*
X127570035Y-51074158D01*
X127580139Y-51144432D01*
X127550645Y-51209012D01*
X127519561Y-51234952D01*
X127510023Y-51240593D01*
X127493190Y-51250548D01*
X127375549Y-51368189D01*
X127375544Y-51368196D01*
X127290856Y-51511394D01*
X127244437Y-51671170D01*
X127241500Y-51708494D01*
X127241500Y-53016506D01*
X127244437Y-53053829D01*
X127290856Y-53213605D01*
X127375544Y-53356803D01*
X127375549Y-53356810D01*
X127493189Y-53474450D01*
X127493196Y-53474455D01*
X127636394Y-53559143D01*
X127636397Y-53559143D01*
X127636399Y-53559145D01*
X127796169Y-53605562D01*
X127803634Y-53606149D01*
X127833494Y-53608500D01*
X127833498Y-53608500D01*
X128065500Y-53608500D01*
X128133621Y-53628502D01*
X128180114Y-53682158D01*
X128191500Y-53734500D01*
X128191500Y-54891506D01*
X128194437Y-54928829D01*
X128211551Y-54987736D01*
X128228354Y-55045573D01*
X128236497Y-55073599D01*
X128241500Y-55108752D01*
X128241500Y-55178780D01*
X128221498Y-55246901D01*
X128181647Y-55286020D01*
X128147833Y-55306876D01*
X128076347Y-55350970D01*
X128076341Y-55350975D01*
X127950975Y-55476341D01*
X127950970Y-55476347D01*
X127857885Y-55627262D01*
X127802113Y-55795572D01*
X127802112Y-55795579D01*
X127791500Y-55899446D01*
X127791500Y-56700544D01*
X127802112Y-56804425D01*
X127850798Y-56951350D01*
X127857885Y-56972738D01*
X127919086Y-57071960D01*
X127937823Y-57140438D01*
X127916564Y-57208177D01*
X127862057Y-57253669D01*
X127791608Y-57262470D01*
X127772213Y-57257711D01*
X127604427Y-57202113D01*
X127604420Y-57202112D01*
X127500553Y-57191500D01*
X126499455Y-57191500D01*
X126395574Y-57202112D01*
X126227261Y-57257885D01*
X126076347Y-57350970D01*
X126076341Y-57350975D01*
X125950975Y-57476341D01*
X125950970Y-57476347D01*
X125857885Y-57627262D01*
X125802113Y-57795572D01*
X125802112Y-57795579D01*
X125791500Y-57899446D01*
X125791500Y-58700544D01*
X125802113Y-58804426D01*
X125818359Y-58853455D01*
X125820799Y-58924410D01*
X125784490Y-58985419D01*
X125720961Y-59017115D01*
X125650382Y-59009432D01*
X125612412Y-58982873D01*
X125611573Y-58983785D01*
X125424785Y-58811835D01*
X125216606Y-58675826D01*
X125216607Y-58675826D01*
X124988884Y-58575938D01*
X124988877Y-58575935D01*
X124747828Y-58514893D01*
X124747823Y-58514892D01*
X124747821Y-58514892D01*
X124614630Y-58503855D01*
X124562069Y-58499500D01*
X124562067Y-58499500D01*
X124437933Y-58499500D01*
X124437931Y-58499500D01*
X124376707Y-58504573D01*
X124252179Y-58514892D01*
X124252177Y-58514892D01*
X124252171Y-58514893D01*
X124011122Y-58575935D01*
X124011115Y-58575938D01*
X123783393Y-58675826D01*
X123575214Y-58811835D01*
X123392267Y-58980249D01*
X123239526Y-59176490D01*
X123239525Y-59176491D01*
X123121171Y-59395190D01*
X123121170Y-59395192D01*
X123040430Y-59630381D01*
X123040428Y-59630390D01*
X123031222Y-59685559D01*
X122999500Y-59875665D01*
X122999500Y-60124335D01*
X123027839Y-60294163D01*
X123040428Y-60369609D01*
X123040430Y-60369618D01*
X123121170Y-60604807D01*
X123121171Y-60604809D01*
X123233413Y-60812213D01*
X123239526Y-60823509D01*
X123380340Y-61004427D01*
X123392267Y-61019750D01*
X123575214Y-61188164D01*
X123783393Y-61324173D01*
X123783392Y-61324173D01*
X123858053Y-61356922D01*
X124011119Y-61424063D01*
X124011120Y-61424063D01*
X124011122Y-61424064D01*
X124224442Y-61478084D01*
X124252179Y-61485108D01*
X124417446Y-61498802D01*
X124437931Y-61500500D01*
X124437933Y-61500500D01*
X124562069Y-61500500D01*
X124581483Y-61498891D01*
X124747821Y-61485108D01*
X124988881Y-61424063D01*
X125216607Y-61324173D01*
X125424785Y-61188164D01*
X125484722Y-61132988D01*
X125607732Y-61019750D01*
X125607733Y-61019748D01*
X125607738Y-61019744D01*
X125760474Y-60823509D01*
X125878828Y-60604810D01*
X125959571Y-60369614D01*
X125991219Y-60179953D01*
X126022160Y-60116056D01*
X126082736Y-60079028D01*
X126153714Y-60080629D01*
X126212560Y-60120349D01*
X126240590Y-60185578D01*
X126241500Y-60200694D01*
X126241500Y-61633628D01*
X126221498Y-61701749D01*
X126204599Y-61722718D01*
X125739514Y-62187804D01*
X125309225Y-62618093D01*
X125295376Y-62630062D01*
X125275943Y-62644530D01*
X125242007Y-62684971D01*
X125238300Y-62689017D01*
X125232421Y-62694897D01*
X125232412Y-62694907D01*
X125211863Y-62720896D01*
X125161965Y-62780364D01*
X125157935Y-62786491D01*
X125157880Y-62786455D01*
X125153825Y-62792820D01*
X125153882Y-62792855D01*
X125150028Y-62799101D01*
X125117220Y-62869458D01*
X125082391Y-62938812D01*
X125079882Y-62945707D01*
X125079820Y-62945684D01*
X125077343Y-62952810D01*
X125077404Y-62952831D01*
X125075097Y-62959790D01*
X125059392Y-63035849D01*
X125041500Y-63111345D01*
X125040648Y-63118634D01*
X125040581Y-63118626D01*
X125039814Y-63126126D01*
X125039881Y-63126132D01*
X125039241Y-63133442D01*
X125041500Y-63211079D01*
X125041500Y-65735559D01*
X125040170Y-65753819D01*
X125036659Y-65777789D01*
X125040478Y-65821444D01*
X125041260Y-65830372D01*
X125041500Y-65835866D01*
X125041500Y-65844182D01*
X125045347Y-65877094D01*
X125052112Y-65954419D01*
X125053596Y-65961606D01*
X125053531Y-65961619D01*
X125055165Y-65968989D01*
X125055229Y-65968975D01*
X125056921Y-65976116D01*
X125073021Y-66020348D01*
X125083473Y-66049065D01*
X125091135Y-66072186D01*
X125107885Y-66122736D01*
X125110987Y-66129388D01*
X125110926Y-66129416D01*
X125114211Y-66136202D01*
X125114270Y-66136173D01*
X125117560Y-66142724D01*
X125160233Y-66207605D01*
X125200967Y-66273648D01*
X125205522Y-66279408D01*
X125205468Y-66279450D01*
X125210228Y-66285292D01*
X125210279Y-66285250D01*
X125214993Y-66290868D01*
X125214998Y-66290873D01*
X125214999Y-66290874D01*
X125250318Y-66324196D01*
X125271482Y-66344163D01*
X126453092Y-67525773D01*
X126465065Y-67539627D01*
X126468038Y-67543621D01*
X126479531Y-67559058D01*
X126495958Y-67572842D01*
X126519975Y-67592994D01*
X126524021Y-67596702D01*
X126529900Y-67602581D01*
X126555895Y-67623135D01*
X126615360Y-67673032D01*
X126615366Y-67673035D01*
X126621495Y-67677067D01*
X126621458Y-67677122D01*
X126627811Y-67681169D01*
X126627847Y-67681113D01*
X126634092Y-67684965D01*
X126634095Y-67684967D01*
X126704452Y-67717775D01*
X126773812Y-67752609D01*
X126773813Y-67752609D01*
X126773817Y-67752611D01*
X126780713Y-67755121D01*
X126780689Y-67755185D01*
X126787805Y-67757659D01*
X126787827Y-67757595D01*
X126794791Y-67759903D01*
X126870849Y-67775607D01*
X126904866Y-67783669D01*
X126946344Y-67793500D01*
X126946350Y-67793500D01*
X126953633Y-67794352D01*
X126953625Y-67794419D01*
X126961122Y-67795185D01*
X126961128Y-67795119D01*
X126968435Y-67795757D01*
X126968442Y-67795759D01*
X127046080Y-67793500D01*
X127365500Y-67793500D01*
X127433621Y-67813502D01*
X127480114Y-67867158D01*
X127491500Y-67919500D01*
X127491500Y-68803649D01*
X127498009Y-68864195D01*
X127498010Y-68864198D01*
X127509860Y-68895970D01*
X127514923Y-68966786D01*
X127509860Y-68984030D01*
X127498010Y-69015801D01*
X127498009Y-69015804D01*
X127491500Y-69076350D01*
X127491500Y-70073649D01*
X127498009Y-70134195D01*
X127498010Y-70134198D01*
X127509860Y-70165970D01*
X127514923Y-70236786D01*
X127509860Y-70254030D01*
X127498010Y-70285801D01*
X127498009Y-70285804D01*
X127491500Y-70346350D01*
X127491500Y-71343649D01*
X127498009Y-71404195D01*
X127498010Y-71404198D01*
X127509860Y-71435970D01*
X127514923Y-71506786D01*
X127509860Y-71524029D01*
X127498220Y-71555240D01*
X127498010Y-71555802D01*
X127491500Y-71616350D01*
X127491500Y-72613649D01*
X127498009Y-72674195D01*
X127498010Y-72674198D01*
X127498010Y-72674200D01*
X127498011Y-72674201D01*
X127504692Y-72692114D01*
X127509860Y-72705970D01*
X127514923Y-72776786D01*
X127509860Y-72794030D01*
X127498010Y-72825801D01*
X127498009Y-72825804D01*
X127491500Y-72886350D01*
X127491500Y-73883649D01*
X127498009Y-73944195D01*
X127498010Y-73944198D01*
X127509860Y-73975970D01*
X127514923Y-74046786D01*
X127509860Y-74064030D01*
X127498010Y-74095801D01*
X127498009Y-74095804D01*
X127491500Y-74156350D01*
X127491499Y-74156368D01*
X127491499Y-74294059D01*
X127471496Y-74362179D01*
X127417840Y-74408672D01*
X127347566Y-74418775D01*
X127282986Y-74389282D01*
X127244603Y-74329555D01*
X127243155Y-74324098D01*
X127243079Y-74323890D01*
X127243079Y-74323887D01*
X127216526Y-74250934D01*
X127192114Y-74177262D01*
X127192109Y-74177255D01*
X127189012Y-74170611D01*
X127189074Y-74170581D01*
X127185788Y-74163795D01*
X127185728Y-74163826D01*
X127182433Y-74157265D01*
X127139766Y-74092394D01*
X127136697Y-74087418D01*
X127099030Y-74026349D01*
X127099027Y-74026346D01*
X127094478Y-74020592D01*
X127094531Y-74020549D01*
X127089766Y-74014700D01*
X127089715Y-74014744D01*
X127084998Y-74009122D01*
X127028518Y-73955837D01*
X126839427Y-73766746D01*
X126581901Y-73509220D01*
X126569936Y-73495375D01*
X126569269Y-73494479D01*
X126555469Y-73475942D01*
X126555467Y-73475940D01*
X126515024Y-73442003D01*
X126510970Y-73438289D01*
X126505107Y-73432425D01*
X126503804Y-73431395D01*
X126479103Y-73411863D01*
X126419640Y-73361968D01*
X126419638Y-73361967D01*
X126419636Y-73361965D01*
X126413506Y-73357933D01*
X126413541Y-73357878D01*
X126407187Y-73353829D01*
X126407153Y-73353886D01*
X126400906Y-73350033D01*
X126330540Y-73317220D01*
X126261188Y-73282391D01*
X126261186Y-73282390D01*
X126261183Y-73282389D01*
X126254289Y-73279880D01*
X126254311Y-73279817D01*
X126247189Y-73277341D01*
X126247169Y-73277404D01*
X126240209Y-73275097D01*
X126164150Y-73259392D01*
X126088652Y-73241499D01*
X126081367Y-73240648D01*
X126081374Y-73240580D01*
X126073877Y-73239814D01*
X126073872Y-73239881D01*
X126066559Y-73239241D01*
X126066558Y-73239241D01*
X125988920Y-73241500D01*
X125659539Y-73241500D01*
X125591418Y-73221498D01*
X125552298Y-73181647D01*
X125549029Y-73176347D01*
X125549024Y-73176341D01*
X125423658Y-73050975D01*
X125423654Y-73050972D01*
X125423652Y-73050970D01*
X125405786Y-73039950D01*
X125358309Y-72987167D01*
X125346905Y-72917092D01*
X125375196Y-72851976D01*
X125405785Y-72825470D01*
X125448652Y-72799030D01*
X125574030Y-72673652D01*
X125667115Y-72522738D01*
X125722887Y-72354426D01*
X125733500Y-72250545D01*
X125733499Y-71649456D01*
X125722887Y-71545574D01*
X125667115Y-71377262D01*
X125574030Y-71226348D01*
X125574029Y-71226347D01*
X125574024Y-71226341D01*
X125448658Y-71100975D01*
X125448652Y-71100970D01*
X125448652Y-71100969D01*
X125297738Y-71007885D01*
X125213581Y-70979998D01*
X125129427Y-70952113D01*
X125129420Y-70952112D01*
X125025553Y-70941500D01*
X123974455Y-70941500D01*
X123870574Y-70952112D01*
X123702261Y-71007885D01*
X123551347Y-71100970D01*
X123551341Y-71100975D01*
X123425975Y-71226341D01*
X123425970Y-71226347D01*
X123332885Y-71377262D01*
X123277113Y-71545572D01*
X123277112Y-71545579D01*
X123266500Y-71649446D01*
X123266500Y-72250544D01*
X123277112Y-72354425D01*
X123332885Y-72522738D01*
X123425970Y-72673652D01*
X123425975Y-72673658D01*
X123551341Y-72799024D01*
X123551347Y-72799029D01*
X123551348Y-72799030D01*
X123594213Y-72825470D01*
X123641691Y-72878255D01*
X123653094Y-72948330D01*
X123624802Y-73013446D01*
X123594213Y-73039950D01*
X123576353Y-73050966D01*
X123576341Y-73050975D01*
X123450975Y-73176341D01*
X123450970Y-73176347D01*
X123357885Y-73327262D01*
X123302113Y-73495572D01*
X123302112Y-73495579D01*
X123291500Y-73599446D01*
X123291500Y-74400544D01*
X123302112Y-74504425D01*
X123335249Y-74604426D01*
X123357885Y-74672738D01*
X123450970Y-74823652D01*
X123538223Y-74910905D01*
X123572247Y-74973215D01*
X123567183Y-75044031D01*
X123538223Y-75089094D01*
X123450966Y-75176351D01*
X123449613Y-75178063D01*
X123448386Y-75178931D01*
X123445781Y-75181537D01*
X123445335Y-75181091D01*
X123391670Y-75219089D01*
X123320745Y-75222276D01*
X123261686Y-75189003D01*
X122795405Y-74722722D01*
X122761379Y-74660410D01*
X122758500Y-74633627D01*
X122758500Y-67121219D01*
X122778502Y-67053098D01*
X122818352Y-67013979D01*
X122923652Y-66949030D01*
X123049030Y-66823652D01*
X123142115Y-66672738D01*
X123197887Y-66504426D01*
X123208500Y-66400545D01*
X123208499Y-65599456D01*
X123197887Y-65495574D01*
X123142115Y-65327262D01*
X123049030Y-65176348D01*
X123049029Y-65176347D01*
X123049024Y-65176341D01*
X122961778Y-65089095D01*
X122927752Y-65026783D01*
X122932817Y-64955968D01*
X122961778Y-64910905D01*
X123049024Y-64823658D01*
X123049030Y-64823652D01*
X123142115Y-64672738D01*
X123197887Y-64504426D01*
X123208500Y-64400545D01*
X123208499Y-63599456D01*
X123197887Y-63495574D01*
X123142115Y-63327262D01*
X123049030Y-63176348D01*
X123049029Y-63176347D01*
X123049024Y-63176341D01*
X122995405Y-63122722D01*
X122961379Y-63060410D01*
X122958500Y-63033627D01*
X122958500Y-62014441D01*
X122959830Y-61996182D01*
X122961807Y-61982685D01*
X122963341Y-61972211D01*
X122959512Y-61928442D01*
X122958740Y-61919614D01*
X122958500Y-61914121D01*
X122958500Y-61905819D01*
X122954652Y-61872905D01*
X122950973Y-61830850D01*
X122947887Y-61795574D01*
X122947885Y-61795570D01*
X122946403Y-61788388D01*
X122946469Y-61788374D01*
X122944837Y-61781012D01*
X122944772Y-61781028D01*
X122943080Y-61773890D01*
X122937478Y-61758500D01*
X122916526Y-61700934D01*
X122892114Y-61627262D01*
X122892109Y-61627255D01*
X122889012Y-61620611D01*
X122889074Y-61620581D01*
X122885788Y-61613795D01*
X122885728Y-61613826D01*
X122882433Y-61607265D01*
X122839766Y-61542394D01*
X122834303Y-61533537D01*
X122799030Y-61476349D01*
X122799027Y-61476346D01*
X122794478Y-61470592D01*
X122794531Y-61470549D01*
X122789766Y-61464700D01*
X122789715Y-61464744D01*
X122784998Y-61459122D01*
X122728518Y-61405837D01*
X122281180Y-60958499D01*
X121831901Y-60509220D01*
X121819936Y-60495375D01*
X121805469Y-60475942D01*
X121805467Y-60475940D01*
X121765024Y-60442003D01*
X121760970Y-60438289D01*
X121755107Y-60432425D01*
X121729104Y-60411864D01*
X121729103Y-60411863D01*
X121669640Y-60361968D01*
X121669638Y-60361967D01*
X121669636Y-60361965D01*
X121663506Y-60357933D01*
X121663541Y-60357878D01*
X121657187Y-60353829D01*
X121657153Y-60353886D01*
X121650906Y-60350033D01*
X121580540Y-60317220D01*
X121511188Y-60282391D01*
X121511186Y-60282390D01*
X121511183Y-60282389D01*
X121504289Y-60279880D01*
X121504311Y-60279817D01*
X121497189Y-60277341D01*
X121497169Y-60277404D01*
X121490209Y-60275097D01*
X121414150Y-60259392D01*
X121338652Y-60241499D01*
X121331367Y-60240648D01*
X121331374Y-60240580D01*
X121323877Y-60239814D01*
X121323872Y-60239881D01*
X121316559Y-60239241D01*
X121316558Y-60239241D01*
X121238920Y-60241500D01*
X116866371Y-60241500D01*
X116798250Y-60221498D01*
X116777276Y-60204595D01*
X116200298Y-59627617D01*
X116166272Y-59565305D01*
X116171337Y-59494490D01*
X116213883Y-59437655D01*
X116252830Y-59408499D01*
X116274490Y-59392284D01*
X116341009Y-59367473D01*
X116410383Y-59382564D01*
X116425508Y-59392284D01*
X116503792Y-59450887D01*
X116503794Y-59450888D01*
X116503796Y-59450889D01*
X116539288Y-59464127D01*
X116640795Y-59501988D01*
X116640803Y-59501990D01*
X116701350Y-59508499D01*
X116701355Y-59508499D01*
X116701362Y-59508500D01*
X116701368Y-59508500D01*
X118298632Y-59508500D01*
X118298638Y-59508500D01*
X118298645Y-59508499D01*
X118298649Y-59508499D01*
X118359196Y-59501990D01*
X118359199Y-59501989D01*
X118359201Y-59501989D01*
X118496204Y-59450889D01*
X118498688Y-59449030D01*
X118613261Y-59363261D01*
X118700887Y-59246207D01*
X118700887Y-59246206D01*
X118700889Y-59246204D01*
X118751816Y-59109664D01*
X118751988Y-59109204D01*
X118751990Y-59109196D01*
X118758738Y-59046422D01*
X118785906Y-58980830D01*
X118844223Y-58940338D01*
X118915175Y-58937802D01*
X118973111Y-58970794D01*
X119076341Y-59074024D01*
X119076347Y-59074029D01*
X119076348Y-59074030D01*
X119227262Y-59167115D01*
X119395574Y-59222887D01*
X119499455Y-59233500D01*
X120100544Y-59233499D01*
X120204426Y-59222887D01*
X120372738Y-59167115D01*
X120523652Y-59074030D01*
X120649030Y-58948652D01*
X120742115Y-58797738D01*
X120797887Y-58629426D01*
X120808500Y-58525545D01*
X120808499Y-57474456D01*
X120808273Y-57472248D01*
X120797887Y-57370574D01*
X120774682Y-57300545D01*
X120742115Y-57202262D01*
X120649030Y-57051348D01*
X120649029Y-57051347D01*
X120649024Y-57051341D01*
X120523658Y-56925975D01*
X120523652Y-56925970D01*
X120523652Y-56925969D01*
X120372738Y-56832885D01*
X120286850Y-56804425D01*
X120204427Y-56777113D01*
X120204420Y-56777112D01*
X120100553Y-56766500D01*
X119499455Y-56766500D01*
X119395574Y-56777112D01*
X119227261Y-56832885D01*
X119076347Y-56925970D01*
X118973111Y-57029206D01*
X118910799Y-57063231D01*
X118839983Y-57058165D01*
X118783147Y-57015619D01*
X118758738Y-56953577D01*
X118751990Y-56890803D01*
X118751988Y-56890795D01*
X118709586Y-56777113D01*
X118700889Y-56753796D01*
X118700888Y-56753794D01*
X118700887Y-56753792D01*
X118613261Y-56636738D01*
X118496207Y-56549112D01*
X118496202Y-56549110D01*
X118359203Y-56498011D01*
X118355513Y-56497139D01*
X118352948Y-56495678D01*
X118351816Y-56495256D01*
X118351884Y-56495072D01*
X118293821Y-56462002D01*
X118260918Y-56399090D01*
X118258500Y-56374528D01*
X118258500Y-55564441D01*
X118259091Y-55556330D01*
X123245710Y-55556330D01*
X123262975Y-55683791D01*
X123275925Y-55779390D01*
X123345484Y-55993467D01*
X123452144Y-56191675D01*
X123452148Y-56191682D01*
X123524833Y-56282825D01*
X123592492Y-56367666D01*
X123762004Y-56515765D01*
X123955236Y-56631215D01*
X124165976Y-56710307D01*
X124165978Y-56710307D01*
X124165980Y-56710308D01*
X124299229Y-56734489D01*
X124387453Y-56750500D01*
X124387454Y-56750500D01*
X124556149Y-56750500D01*
X124556155Y-56750500D01*
X124713759Y-56736315D01*
X124724189Y-56735377D01*
X124724189Y-56735376D01*
X124903766Y-56685816D01*
X124941167Y-56675494D01*
X124941167Y-56675493D01*
X124941170Y-56675493D01*
X125143973Y-56577829D01*
X125326078Y-56445522D01*
X125481632Y-56282825D01*
X125605635Y-56094968D01*
X125694103Y-55887988D01*
X125744191Y-55668537D01*
X125754290Y-55443670D01*
X125724075Y-55220613D01*
X125724054Y-55220549D01*
X125692327Y-55122904D01*
X125654517Y-55006536D01*
X125647980Y-54994388D01*
X125547855Y-54808324D01*
X125547851Y-54808317D01*
X125419466Y-54647329D01*
X125407508Y-54632334D01*
X125384458Y-54612196D01*
X125304116Y-54542003D01*
X125237996Y-54484235D01*
X125044764Y-54368785D01*
X124863856Y-54300889D01*
X124834019Y-54289691D01*
X124644091Y-54255224D01*
X124612547Y-54249500D01*
X124443845Y-54249500D01*
X124412558Y-54252315D01*
X124275810Y-54264622D01*
X124275810Y-54264623D01*
X124058832Y-54324505D01*
X123856031Y-54422168D01*
X123856023Y-54422173D01*
X123673921Y-54554478D01*
X123673920Y-54554479D01*
X123518369Y-54717172D01*
X123394367Y-54905027D01*
X123394363Y-54905035D01*
X123305897Y-55112011D01*
X123305896Y-55112013D01*
X123255809Y-55331461D01*
X123255809Y-55331463D01*
X123249605Y-55469614D01*
X123245710Y-55556330D01*
X118259091Y-55556330D01*
X118259830Y-55546182D01*
X118262189Y-55530075D01*
X118263341Y-55522211D01*
X118259410Y-55477275D01*
X118258740Y-55469614D01*
X118258500Y-55464121D01*
X118258500Y-55455819D01*
X118254652Y-55422905D01*
X118250659Y-55377262D01*
X118247887Y-55345574D01*
X118247885Y-55345570D01*
X118246403Y-55338388D01*
X118246469Y-55338374D01*
X118244837Y-55331012D01*
X118244772Y-55331028D01*
X118243080Y-55323890D01*
X118216526Y-55250934D01*
X118207008Y-55222211D01*
X118192114Y-55177262D01*
X118192109Y-55177255D01*
X118189012Y-55170611D01*
X118189074Y-55170581D01*
X118185788Y-55163795D01*
X118185728Y-55163826D01*
X118182433Y-55157265D01*
X118139766Y-55092394D01*
X118138099Y-55089691D01*
X118099030Y-55026349D01*
X118099027Y-55026346D01*
X118094478Y-55020592D01*
X118094531Y-55020549D01*
X118089766Y-55014700D01*
X118089715Y-55014744D01*
X118084998Y-55009122D01*
X118041338Y-54967931D01*
X118005515Y-54906635D01*
X118002411Y-54888631D01*
X117993909Y-54802306D01*
X117993908Y-54802304D01*
X117993908Y-54802299D01*
X117936241Y-54612196D01*
X117842595Y-54436996D01*
X117716568Y-54283432D01*
X117563004Y-54157405D01*
X117387804Y-54063759D01*
X117197701Y-54006092D01*
X117197697Y-54006091D01*
X117194346Y-54005075D01*
X117134964Y-53966160D01*
X117106048Y-53901318D01*
X117116779Y-53831137D01*
X117163749Y-53777899D01*
X117230921Y-53758500D01*
X119751305Y-53758500D01*
X119819426Y-53778502D01*
X119840400Y-53795405D01*
X119871647Y-53826652D01*
X119871653Y-53826657D01*
X119871654Y-53826658D01*
X120020080Y-53918209D01*
X120185619Y-53973062D01*
X120287787Y-53983500D01*
X120962212Y-53983499D01*
X121064381Y-53973062D01*
X121229920Y-53918209D01*
X121378346Y-53826658D01*
X121501658Y-53703346D01*
X121593209Y-53554920D01*
X121648062Y-53389381D01*
X121658500Y-53287213D01*
X121658499Y-52712788D01*
X121648062Y-52610619D01*
X121593209Y-52445080D01*
X121501658Y-52296654D01*
X121501657Y-52296653D01*
X121501652Y-52296647D01*
X121378352Y-52173347D01*
X121378346Y-52173342D01*
X121353288Y-52157886D01*
X121229920Y-52081791D01*
X121064381Y-52026938D01*
X121064379Y-52026937D01*
X121064377Y-52026937D01*
X120962221Y-52016500D01*
X120287787Y-52016500D01*
X120185619Y-52026937D01*
X120020079Y-52081791D01*
X119871653Y-52173342D01*
X119871647Y-52173347D01*
X119840400Y-52204595D01*
X119778088Y-52238621D01*
X119751305Y-52241500D01*
X116159539Y-52241500D01*
X116091418Y-52221498D01*
X116052298Y-52181647D01*
X116049029Y-52176347D01*
X116049024Y-52176341D01*
X115923658Y-52050975D01*
X115923652Y-52050970D01*
X115884690Y-52026938D01*
X115772738Y-51957885D01*
X115688581Y-51929998D01*
X115604427Y-51902113D01*
X115604420Y-51902112D01*
X115500553Y-51891500D01*
X114499455Y-51891500D01*
X114395574Y-51902112D01*
X114227261Y-51957885D01*
X114076347Y-52050970D01*
X114076341Y-52050975D01*
X113950975Y-52176341D01*
X113950970Y-52176347D01*
X113857885Y-52327262D01*
X113802113Y-52495572D01*
X113802112Y-52495579D01*
X113791500Y-52599446D01*
X113791500Y-53400544D01*
X113802112Y-53504425D01*
X113857885Y-53672738D01*
X113950970Y-53823652D01*
X113950975Y-53823658D01*
X114038222Y-53910905D01*
X114072248Y-53973217D01*
X114067183Y-54044032D01*
X114038222Y-54089095D01*
X113950975Y-54176341D01*
X113950970Y-54176347D01*
X113857885Y-54327262D01*
X113802113Y-54495572D01*
X113802112Y-54495579D01*
X113791500Y-54599446D01*
X113791500Y-55400544D01*
X113802112Y-55504425D01*
X113857885Y-55672738D01*
X113950970Y-55823652D01*
X113950975Y-55823658D01*
X114076341Y-55949024D01*
X114076347Y-55949029D01*
X114076348Y-55949030D01*
X114227262Y-56042115D01*
X114395574Y-56097887D01*
X114499455Y-56108500D01*
X115500544Y-56108499D01*
X115604426Y-56097887D01*
X115772738Y-56042115D01*
X115923652Y-55949030D01*
X116049030Y-55823652D01*
X116052298Y-55818352D01*
X116105084Y-55770875D01*
X116159539Y-55758500D01*
X116289442Y-55758500D01*
X116357563Y-55778502D01*
X116369375Y-55787101D01*
X116436992Y-55842592D01*
X116436992Y-55842593D01*
X116612196Y-55936241D01*
X116612198Y-55936242D01*
X116635987Y-55943457D01*
X116652073Y-55948337D01*
X116711455Y-55987250D01*
X116740372Y-56052091D01*
X116741500Y-56068912D01*
X116741500Y-56374518D01*
X116721498Y-56442639D01*
X116667842Y-56489132D01*
X116644488Y-56497138D01*
X116640801Y-56498009D01*
X116503797Y-56549110D01*
X116503792Y-56549113D01*
X116425509Y-56607715D01*
X116358989Y-56632526D01*
X116289614Y-56617434D01*
X116274491Y-56607715D01*
X116196207Y-56549113D01*
X116196202Y-56549110D01*
X116059204Y-56498011D01*
X116059196Y-56498009D01*
X115998649Y-56491500D01*
X115998638Y-56491500D01*
X114401362Y-56491500D01*
X114401350Y-56491500D01*
X114340803Y-56498009D01*
X114340795Y-56498011D01*
X114203797Y-56549110D01*
X114203792Y-56549112D01*
X114086738Y-56636738D01*
X113999112Y-56753792D01*
X113999110Y-56753797D01*
X113948011Y-56890795D01*
X113948009Y-56890803D01*
X113941500Y-56951350D01*
X113941500Y-59048649D01*
X113948009Y-59109196D01*
X113948011Y-59109204D01*
X113999110Y-59246202D01*
X113999112Y-59246207D01*
X114086738Y-59363261D01*
X114203792Y-59450887D01*
X114203794Y-59450888D01*
X114203796Y-59450889D01*
X114239288Y-59464127D01*
X114340795Y-59501988D01*
X114340798Y-59501988D01*
X114340799Y-59501989D01*
X114340804Y-59501990D01*
X114369812Y-59505108D01*
X114378965Y-59506092D01*
X114444558Y-59533259D01*
X114485051Y-59591576D01*
X114491500Y-59631370D01*
X114491500Y-59685559D01*
X114490170Y-59703819D01*
X114486659Y-59727786D01*
X114486659Y-59727794D01*
X114491260Y-59780372D01*
X114491500Y-59785866D01*
X114491500Y-59794182D01*
X114495347Y-59827094D01*
X114502112Y-59904419D01*
X114503596Y-59911606D01*
X114503531Y-59911619D01*
X114505165Y-59918989D01*
X114505229Y-59918975D01*
X114506921Y-59926116D01*
X114533473Y-59999064D01*
X114557885Y-60072736D01*
X114560987Y-60079388D01*
X114560926Y-60079416D01*
X114564211Y-60086202D01*
X114564270Y-60086173D01*
X114567560Y-60092724D01*
X114567564Y-60092731D01*
X114567565Y-60092732D01*
X114610233Y-60157605D01*
X114650967Y-60223648D01*
X114655522Y-60229408D01*
X114655468Y-60229450D01*
X114660228Y-60235292D01*
X114660279Y-60235250D01*
X114664993Y-60240868D01*
X114664998Y-60240873D01*
X114664999Y-60240874D01*
X114665663Y-60241500D01*
X114721482Y-60294163D01*
X115918092Y-61490773D01*
X115930065Y-61504627D01*
X115937807Y-61515027D01*
X115944531Y-61524058D01*
X115980561Y-61554291D01*
X115984975Y-61557994D01*
X115989021Y-61561702D01*
X115994900Y-61567581D01*
X115994901Y-61567582D01*
X116020894Y-61588134D01*
X116020895Y-61588135D01*
X116080360Y-61638032D01*
X116080366Y-61638035D01*
X116086495Y-61642067D01*
X116086458Y-61642122D01*
X116092811Y-61646169D01*
X116092847Y-61646113D01*
X116099092Y-61649965D01*
X116099095Y-61649967D01*
X116169452Y-61682775D01*
X116238812Y-61717609D01*
X116238813Y-61717609D01*
X116238817Y-61717611D01*
X116245713Y-61720121D01*
X116245689Y-61720185D01*
X116252805Y-61722659D01*
X116252827Y-61722595D01*
X116259791Y-61724903D01*
X116335849Y-61740607D01*
X116369866Y-61748669D01*
X116411344Y-61758500D01*
X116411350Y-61758500D01*
X116418633Y-61759352D01*
X116418625Y-61759419D01*
X116426122Y-61760185D01*
X116426128Y-61760119D01*
X116433435Y-61760757D01*
X116433442Y-61760759D01*
X116511080Y-61758500D01*
X120883629Y-61758500D01*
X120951750Y-61778502D01*
X120972724Y-61795405D01*
X121404595Y-62227276D01*
X121438621Y-62289588D01*
X121441500Y-62316371D01*
X121441500Y-62795909D01*
X121421498Y-62864030D01*
X121367842Y-62910523D01*
X121355140Y-62915511D01*
X121291081Y-62936738D01*
X121227261Y-62957885D01*
X121076347Y-63050970D01*
X121076341Y-63050975D01*
X120950975Y-63176341D01*
X120950970Y-63176347D01*
X120882880Y-63286739D01*
X120857885Y-63327262D01*
X120815512Y-63455135D01*
X120775101Y-63513504D01*
X120709545Y-63540760D01*
X120695910Y-63541500D01*
X117734500Y-63541500D01*
X117666379Y-63521498D01*
X117619886Y-63467842D01*
X117608500Y-63415500D01*
X117608500Y-63251367D01*
X117608499Y-63251350D01*
X117601990Y-63190803D01*
X117601988Y-63190795D01*
X117550889Y-63053797D01*
X117550887Y-63053792D01*
X117463261Y-62936738D01*
X117346207Y-62849112D01*
X117346202Y-62849110D01*
X117209204Y-62798011D01*
X117209196Y-62798009D01*
X117148649Y-62791500D01*
X117148638Y-62791500D01*
X113251362Y-62791500D01*
X113251350Y-62791500D01*
X113190803Y-62798009D01*
X113190795Y-62798011D01*
X113053797Y-62849110D01*
X113053792Y-62849112D01*
X112936738Y-62936738D01*
X112849112Y-63053792D01*
X112849110Y-63053797D01*
X112798011Y-63190795D01*
X112798009Y-63190803D01*
X112791500Y-63251350D01*
X112791500Y-65348649D01*
X112798009Y-65409196D01*
X112798011Y-65409204D01*
X112849110Y-65546202D01*
X112849112Y-65546207D01*
X112936738Y-65663261D01*
X113053792Y-65750887D01*
X113053794Y-65750888D01*
X113053796Y-65750889D01*
X113061652Y-65753819D01*
X113190795Y-65801988D01*
X113190803Y-65801990D01*
X113251350Y-65808499D01*
X113251355Y-65808499D01*
X113251362Y-65808500D01*
X113251368Y-65808500D01*
X117148632Y-65808500D01*
X117148638Y-65808500D01*
X117148645Y-65808499D01*
X117148649Y-65808499D01*
X117209196Y-65801990D01*
X117209199Y-65801989D01*
X117209201Y-65801989D01*
X117346204Y-65750889D01*
X117349607Y-65748342D01*
X117463261Y-65663261D01*
X117550887Y-65546207D01*
X117550887Y-65546206D01*
X117550889Y-65546204D01*
X117601989Y-65409201D01*
X117603124Y-65398649D01*
X117608499Y-65348649D01*
X117608500Y-65348632D01*
X117608500Y-65184500D01*
X117628502Y-65116379D01*
X117682158Y-65069886D01*
X117734500Y-65058500D01*
X120797901Y-65058500D01*
X120866022Y-65078502D01*
X120912515Y-65132158D01*
X120922619Y-65202432D01*
X120905142Y-65250647D01*
X120857885Y-65327262D01*
X120802113Y-65495572D01*
X120802112Y-65495579D01*
X120791500Y-65599446D01*
X120791500Y-66400544D01*
X120802112Y-66504425D01*
X120857885Y-66672738D01*
X120950970Y-66823652D01*
X120950975Y-66823658D01*
X121076341Y-66949024D01*
X121076347Y-66949029D01*
X121076348Y-66949030D01*
X121181647Y-67013979D01*
X121229124Y-67066764D01*
X121241499Y-67121219D01*
X121241499Y-74935559D01*
X121240169Y-74953815D01*
X121236659Y-74977779D01*
X121236659Y-74977789D01*
X121240945Y-75026781D01*
X121241260Y-75030372D01*
X121241500Y-75035866D01*
X121241500Y-75044182D01*
X121245347Y-75077094D01*
X121252112Y-75154419D01*
X121253596Y-75161606D01*
X121253531Y-75161619D01*
X121255165Y-75168989D01*
X121255229Y-75168975D01*
X121256921Y-75176116D01*
X121276835Y-75230826D01*
X121283473Y-75249065D01*
X121288162Y-75263216D01*
X121307885Y-75322736D01*
X121310987Y-75329388D01*
X121310926Y-75329416D01*
X121314211Y-75336202D01*
X121314270Y-75336173D01*
X121317560Y-75342724D01*
X121360233Y-75407605D01*
X121400967Y-75473648D01*
X121405522Y-75479408D01*
X121405468Y-75479450D01*
X121410228Y-75485292D01*
X121410279Y-75485250D01*
X121414993Y-75490868D01*
X121414998Y-75490873D01*
X121414999Y-75490874D01*
X121471482Y-75544163D01*
X122418098Y-76490779D01*
X122430065Y-76504627D01*
X122444530Y-76524057D01*
X122484975Y-76557994D01*
X122489021Y-76561702D01*
X122494900Y-76567581D01*
X122520895Y-76588135D01*
X122580360Y-76638032D01*
X122580366Y-76638035D01*
X122586495Y-76642067D01*
X122586458Y-76642122D01*
X122592811Y-76646169D01*
X122592847Y-76646113D01*
X122599092Y-76649965D01*
X122599095Y-76649967D01*
X122669452Y-76682775D01*
X122738812Y-76717609D01*
X122738813Y-76717609D01*
X122738817Y-76717611D01*
X122745713Y-76720121D01*
X122745689Y-76720185D01*
X122752805Y-76722659D01*
X122752827Y-76722595D01*
X122759791Y-76724903D01*
X122835849Y-76740607D01*
X122866561Y-76747886D01*
X122911344Y-76758500D01*
X122911350Y-76758500D01*
X122918633Y-76759352D01*
X122918625Y-76759419D01*
X122926122Y-76760185D01*
X122926128Y-76760119D01*
X122933435Y-76760757D01*
X122933442Y-76760759D01*
X123011080Y-76758500D01*
X123340461Y-76758500D01*
X123408582Y-76778502D01*
X123447702Y-76818353D01*
X123450970Y-76823652D01*
X123450975Y-76823658D01*
X123560162Y-76932845D01*
X123594188Y-76995157D01*
X123589123Y-77065972D01*
X123578308Y-77088086D01*
X123507887Y-77202258D01*
X123507885Y-77202262D01*
X123505818Y-77208500D01*
X123452113Y-77370572D01*
X123452112Y-77370579D01*
X123441500Y-77474446D01*
X123441500Y-78525544D01*
X123452112Y-78629425D01*
X123494883Y-78758500D01*
X123507885Y-78797738D01*
X123589402Y-78929898D01*
X123591842Y-78933853D01*
X123610579Y-79002333D01*
X123591842Y-79066146D01*
X123545997Y-79140473D01*
X123507885Y-79202262D01*
X123452113Y-79370572D01*
X123452112Y-79370579D01*
X123441500Y-79474446D01*
X123441500Y-80525544D01*
X123452112Y-80629425D01*
X123507885Y-80797738D01*
X123600970Y-80948652D01*
X123600975Y-80948658D01*
X123726341Y-81074024D01*
X123726347Y-81074029D01*
X123726348Y-81074030D01*
X123877262Y-81167115D01*
X124045574Y-81222887D01*
X124149455Y-81233500D01*
X124750544Y-81233499D01*
X124854426Y-81222887D01*
X125022738Y-81167115D01*
X125173652Y-81074030D01*
X125299030Y-80948652D01*
X125379400Y-80818351D01*
X125432185Y-80770875D01*
X125486640Y-80758500D01*
X126435559Y-80758500D01*
X126453819Y-80759830D01*
X126458715Y-80760547D01*
X126477789Y-80763341D01*
X126511146Y-80760422D01*
X126530385Y-80758740D01*
X126535878Y-80758500D01*
X126544176Y-80758500D01*
X126544180Y-80758500D01*
X126570512Y-80755421D01*
X126577096Y-80754652D01*
X126583861Y-80754060D01*
X126654426Y-80747887D01*
X126654432Y-80747884D01*
X126661618Y-80746402D01*
X126661631Y-80746468D01*
X126668987Y-80744836D01*
X126668972Y-80744771D01*
X126676104Y-80743079D01*
X126676113Y-80743079D01*
X126749065Y-80716526D01*
X126822738Y-80692114D01*
X126822740Y-80692112D01*
X126829389Y-80689012D01*
X126829418Y-80689074D01*
X126836203Y-80685789D01*
X126836173Y-80685729D01*
X126842728Y-80682436D01*
X126842732Y-80682435D01*
X126907605Y-80639766D01*
X126973651Y-80599030D01*
X126973660Y-80599020D01*
X126979408Y-80594477D01*
X126979450Y-80594531D01*
X126985289Y-80589775D01*
X126985246Y-80589723D01*
X126990865Y-80585006D01*
X126990874Y-80585001D01*
X127039900Y-80533034D01*
X127101198Y-80497211D01*
X127131551Y-80493500D01*
X127532674Y-80493500D01*
X127600795Y-80513502D01*
X127633540Y-80543989D01*
X127636737Y-80548260D01*
X127753792Y-80635887D01*
X127753794Y-80635888D01*
X127753796Y-80635889D01*
X127764191Y-80639766D01*
X127890795Y-80686988D01*
X127890803Y-80686990D01*
X127951350Y-80693499D01*
X127951355Y-80693499D01*
X127951362Y-80693500D01*
X127951368Y-80693500D01*
X129548632Y-80693500D01*
X129548638Y-80693500D01*
X129548645Y-80693499D01*
X129548649Y-80693499D01*
X129609196Y-80686990D01*
X129609199Y-80686989D01*
X129609201Y-80686989D01*
X129612419Y-80685789D01*
X129628045Y-80679960D01*
X129746204Y-80635889D01*
X129774777Y-80614500D01*
X129863261Y-80548261D01*
X129950887Y-80431207D01*
X129950887Y-80431206D01*
X129950889Y-80431204D01*
X130001989Y-80294201D01*
X130002438Y-80290033D01*
X130008499Y-80233649D01*
X130008500Y-80233632D01*
X130008500Y-79236367D01*
X130008499Y-79236350D01*
X130001990Y-79175803D01*
X130001989Y-79175802D01*
X130001989Y-79175801D01*
X130001989Y-79175799D01*
X129990139Y-79144030D01*
X129985075Y-79073216D01*
X129990137Y-79055974D01*
X130001989Y-79024201D01*
X130002363Y-79020730D01*
X130008499Y-78963649D01*
X130008500Y-78963632D01*
X130008500Y-77966367D01*
X130008499Y-77966350D01*
X130001990Y-77905803D01*
X130001989Y-77905802D01*
X130001989Y-77905799D01*
X129990139Y-77874030D01*
X129985075Y-77803216D01*
X129990137Y-77785974D01*
X130001989Y-77754201D01*
X130007339Y-77704443D01*
X130008499Y-77693649D01*
X130008500Y-77693632D01*
X130008500Y-76696367D01*
X130008499Y-76696350D01*
X130001990Y-76635804D01*
X130001989Y-76635800D01*
X129990140Y-76604031D01*
X129985076Y-76533215D01*
X129990139Y-76515970D01*
X130001989Y-76484201D01*
X130008500Y-76423638D01*
X130008500Y-75426362D01*
X130008499Y-75426350D01*
X130001990Y-75365803D01*
X130001989Y-75365802D01*
X130001989Y-75365801D01*
X130001989Y-75365799D01*
X129990139Y-75334030D01*
X129985075Y-75263216D01*
X129990137Y-75245974D01*
X130001989Y-75214201D01*
X130004662Y-75189345D01*
X130008499Y-75153649D01*
X130008500Y-75153632D01*
X130008500Y-74156367D01*
X130008499Y-74156350D01*
X130001990Y-74095803D01*
X130001989Y-74095802D01*
X130001989Y-74095801D01*
X130001989Y-74095799D01*
X129990139Y-74064030D01*
X129985075Y-73993216D01*
X129990137Y-73975974D01*
X130001989Y-73944201D01*
X130002722Y-73937391D01*
X130008499Y-73883649D01*
X130008500Y-73883632D01*
X130008500Y-72899902D01*
X130028502Y-72831781D01*
X130082158Y-72785288D01*
X130130546Y-72773964D01*
X130143396Y-72773561D01*
X130145346Y-72773500D01*
X130176425Y-72773500D01*
X130176432Y-72773500D01*
X130183779Y-72772571D01*
X130189682Y-72772106D01*
X130238831Y-72770562D01*
X130259421Y-72764579D01*
X130278776Y-72760571D01*
X130300064Y-72757882D01*
X130345796Y-72739775D01*
X130351380Y-72737863D01*
X130398600Y-72724145D01*
X130417050Y-72713232D01*
X130434813Y-72704530D01*
X130454756Y-72696635D01*
X130494537Y-72667730D01*
X130499487Y-72664480D01*
X130509175Y-72658750D01*
X130541807Y-72639453D01*
X130556977Y-72624281D01*
X130572005Y-72611447D01*
X130589357Y-72598841D01*
X130620702Y-72560950D01*
X130624670Y-72556588D01*
X134485854Y-68695405D01*
X134548167Y-68661379D01*
X134574950Y-68658500D01*
X143413389Y-68658500D01*
X143429620Y-68660291D01*
X143429644Y-68660042D01*
X143437536Y-68660788D01*
X143437536Y-68660787D01*
X143437537Y-68660788D01*
X143510342Y-68658500D01*
X143541432Y-68658500D01*
X143548779Y-68657571D01*
X143554682Y-68657106D01*
X143603831Y-68655562D01*
X143624421Y-68649579D01*
X143643776Y-68645571D01*
X143665064Y-68642882D01*
X143710796Y-68624775D01*
X143716380Y-68622863D01*
X143763600Y-68609145D01*
X143782050Y-68598232D01*
X143799813Y-68589530D01*
X143819756Y-68581635D01*
X143859537Y-68552730D01*
X143864487Y-68549480D01*
X143874175Y-68543750D01*
X143906807Y-68524453D01*
X143921977Y-68509281D01*
X143937005Y-68496447D01*
X143954357Y-68483841D01*
X143985702Y-68445950D01*
X143989670Y-68441588D01*
X144783111Y-67648147D01*
X144845421Y-67614123D01*
X144916236Y-67619188D01*
X144973072Y-67661735D01*
X144997883Y-67728255D01*
X144997482Y-67750711D01*
X144991501Y-67806347D01*
X144991500Y-67806367D01*
X144991500Y-68803649D01*
X144998009Y-68864195D01*
X144998010Y-68864198D01*
X145009860Y-68895970D01*
X145014923Y-68966786D01*
X145009860Y-68984030D01*
X144998010Y-69015801D01*
X144998009Y-69015804D01*
X144991500Y-69076350D01*
X144991500Y-70073649D01*
X144998009Y-70134195D01*
X144998010Y-70134198D01*
X145009860Y-70165970D01*
X145014923Y-70236786D01*
X145009860Y-70254029D01*
X144998010Y-70285802D01*
X144991500Y-70346350D01*
X144991500Y-71343649D01*
X144998009Y-71404195D01*
X144998010Y-71404198D01*
X145009860Y-71435970D01*
X145014923Y-71506786D01*
X145009860Y-71524030D01*
X144998010Y-71555801D01*
X144998009Y-71555804D01*
X144991500Y-71616350D01*
X144991500Y-72613649D01*
X144998009Y-72674195D01*
X144998010Y-72674198D01*
X144998010Y-72674200D01*
X144998011Y-72674201D01*
X145004692Y-72692114D01*
X145009860Y-72705970D01*
X145014923Y-72776786D01*
X145009860Y-72794030D01*
X144998010Y-72825801D01*
X144998009Y-72825804D01*
X144991500Y-72886350D01*
X144991500Y-73883649D01*
X144998009Y-73944195D01*
X144998010Y-73944198D01*
X145009860Y-73975970D01*
X145014923Y-74046786D01*
X145009860Y-74064029D01*
X144998220Y-74095240D01*
X144998010Y-74095802D01*
X144991500Y-74156350D01*
X144991500Y-75153649D01*
X144998009Y-75214195D01*
X144998010Y-75214198D01*
X145009860Y-75245970D01*
X145014923Y-75316786D01*
X145009860Y-75334030D01*
X144998010Y-75365801D01*
X144998009Y-75365804D01*
X144991500Y-75426350D01*
X144991500Y-76423649D01*
X144998009Y-76484195D01*
X144998010Y-76484198D01*
X145009860Y-76515970D01*
X145014923Y-76586786D01*
X145009860Y-76604030D01*
X144998010Y-76635801D01*
X144998009Y-76635804D01*
X144991500Y-76696350D01*
X144991500Y-77693649D01*
X144998009Y-77754195D01*
X144998010Y-77754198D01*
X145009860Y-77785970D01*
X145014923Y-77856786D01*
X145009860Y-77874029D01*
X144998010Y-77905802D01*
X144991500Y-77966350D01*
X144991500Y-78963649D01*
X144998009Y-79024195D01*
X144998010Y-79024198D01*
X145009860Y-79055970D01*
X145014923Y-79126786D01*
X145009860Y-79144030D01*
X144998010Y-79175801D01*
X144998009Y-79175804D01*
X144991500Y-79236350D01*
X144991500Y-80233649D01*
X144998009Y-80294196D01*
X144998011Y-80294204D01*
X145049110Y-80431202D01*
X145049112Y-80431207D01*
X145136738Y-80548261D01*
X145253792Y-80635887D01*
X145253794Y-80635888D01*
X145253796Y-80635889D01*
X145264191Y-80639766D01*
X145390795Y-80686988D01*
X145390803Y-80686990D01*
X145451350Y-80693499D01*
X145451355Y-80693499D01*
X145451362Y-80693500D01*
X145451368Y-80693500D01*
X147048632Y-80693500D01*
X147048638Y-80693500D01*
X147048645Y-80693499D01*
X147048649Y-80693499D01*
X147109196Y-80686990D01*
X147109199Y-80686989D01*
X147109201Y-80686989D01*
X147112419Y-80685789D01*
X147128045Y-80679960D01*
X147246204Y-80635889D01*
X147274777Y-80614500D01*
X147363261Y-80548261D01*
X147450887Y-80431207D01*
X147450889Y-80431203D01*
X147450890Y-80431202D01*
X147497445Y-80306385D01*
X147539992Y-80249549D01*
X147606512Y-80224739D01*
X147675886Y-80239831D01*
X147726088Y-80290033D01*
X147741500Y-80350418D01*
X147741500Y-80935559D01*
X147740170Y-80953819D01*
X147736659Y-80977786D01*
X147736659Y-80977794D01*
X147741260Y-81030372D01*
X147741500Y-81035866D01*
X147741500Y-81044182D01*
X147745347Y-81077094D01*
X147752112Y-81154419D01*
X147753596Y-81161606D01*
X147753531Y-81161619D01*
X147755165Y-81168989D01*
X147755229Y-81168975D01*
X147756921Y-81176116D01*
X147783473Y-81249064D01*
X147807885Y-81322736D01*
X147810987Y-81329388D01*
X147810926Y-81329416D01*
X147814211Y-81336202D01*
X147814270Y-81336173D01*
X147817560Y-81342724D01*
X147860233Y-81407605D01*
X147900967Y-81473648D01*
X147905522Y-81479408D01*
X147905468Y-81479450D01*
X147910228Y-81485292D01*
X147910279Y-81485250D01*
X147914993Y-81490868D01*
X147914998Y-81490873D01*
X147914999Y-81490874D01*
X147971482Y-81544163D01*
X148712225Y-82284906D01*
X148746249Y-82347217D01*
X148741185Y-82418032D01*
X148698638Y-82474868D01*
X148632118Y-82499679D01*
X148623129Y-82500000D01*
X123500000Y-82500000D01*
X123500000Y-89033500D01*
X123479998Y-89101621D01*
X123426342Y-89148114D01*
X123374000Y-89159500D01*
X121625070Y-89159500D01*
X121556949Y-89139498D01*
X121510456Y-89085842D01*
X121499078Y-89034932D01*
X121498124Y-88950988D01*
X121430500Y-82999983D01*
X121430500Y-78999901D01*
X121430500Y-78739676D01*
X121409996Y-78439927D01*
X121407183Y-78361145D01*
X121403815Y-78349555D01*
X121394970Y-78220241D01*
X121350086Y-77893687D01*
X121343171Y-77829372D01*
X121340093Y-77820987D01*
X121324075Y-77704443D01*
X121321828Y-77693632D01*
X121250262Y-77349235D01*
X121241993Y-77303405D01*
X121239651Y-77298172D01*
X121218146Y-77194684D01*
X121109775Y-76807905D01*
X121104131Y-76785794D01*
X121102969Y-76783615D01*
X121077676Y-76693343D01*
X120903322Y-76202757D01*
X120695895Y-75725212D01*
X120537560Y-75419640D01*
X120456366Y-75262942D01*
X120446045Y-75245970D01*
X120185843Y-74818085D01*
X120183087Y-74814181D01*
X120055638Y-74633627D01*
X119885595Y-74392731D01*
X119644026Y-74095803D01*
X119557022Y-73988860D01*
X119201650Y-73608350D01*
X118821140Y-73252978D01*
X118620159Y-73089468D01*
X118417269Y-72924405D01*
X118110950Y-72708181D01*
X117991914Y-72624156D01*
X117547063Y-72353637D01*
X117547062Y-72353636D01*
X117547058Y-72353634D01*
X117233584Y-72191205D01*
X117084788Y-72114105D01*
X116607243Y-71906678D01*
X116116657Y-71732324D01*
X116083815Y-71723122D01*
X116026382Y-71707029D01*
X116024743Y-71706004D01*
X116002046Y-71700211D01*
X115730856Y-71624227D01*
X115615316Y-71591854D01*
X115615314Y-71591853D01*
X115511825Y-71570347D01*
X115507871Y-71568235D01*
X115460713Y-71559727D01*
X115365150Y-71539869D01*
X115105557Y-71485925D01*
X115022753Y-71474543D01*
X114989013Y-71469906D01*
X114982639Y-71467043D01*
X114916244Y-71459904D01*
X114783557Y-71441667D01*
X114589759Y-71415030D01*
X114460432Y-71406183D01*
X114451578Y-71402912D01*
X114370023Y-71399999D01*
X114085543Y-71380541D01*
X114070324Y-71379500D01*
X114070323Y-71379500D01*
X110126500Y-71379500D01*
X110058379Y-71359498D01*
X110011886Y-71305842D01*
X110000500Y-71253500D01*
X110000500Y-69398649D01*
X111141500Y-69398649D01*
X111148009Y-69459196D01*
X111148011Y-69459204D01*
X111199110Y-69596202D01*
X111199112Y-69596207D01*
X111286738Y-69713261D01*
X111403792Y-69800887D01*
X111403794Y-69800888D01*
X111403796Y-69800889D01*
X111462875Y-69822924D01*
X111540795Y-69851988D01*
X111540803Y-69851990D01*
X111601350Y-69858499D01*
X111601355Y-69858499D01*
X111601362Y-69858500D01*
X111601368Y-69858500D01*
X113398632Y-69858500D01*
X113398638Y-69858500D01*
X113398645Y-69858499D01*
X113398649Y-69858499D01*
X113459196Y-69851990D01*
X113459199Y-69851989D01*
X113459201Y-69851989D01*
X113596204Y-69800889D01*
X113713261Y-69713261D01*
X113800889Y-69596204D01*
X113851989Y-69459201D01*
X113856150Y-69420504D01*
X113858499Y-69398649D01*
X113858500Y-69398632D01*
X113858500Y-67601367D01*
X113858499Y-67601350D01*
X113851990Y-67540803D01*
X113851988Y-67540795D01*
X113821223Y-67458314D01*
X113800889Y-67403796D01*
X113800888Y-67403794D01*
X113800887Y-67403792D01*
X113713261Y-67286738D01*
X113596207Y-67199112D01*
X113596202Y-67199110D01*
X113459204Y-67148011D01*
X113459196Y-67148009D01*
X113398649Y-67141500D01*
X113398638Y-67141500D01*
X111601362Y-67141500D01*
X111601350Y-67141500D01*
X111540803Y-67148009D01*
X111540795Y-67148011D01*
X111403797Y-67199110D01*
X111403792Y-67199112D01*
X111286738Y-67286738D01*
X111199112Y-67403792D01*
X111199110Y-67403797D01*
X111148011Y-67540795D01*
X111148009Y-67540803D01*
X111141500Y-67601350D01*
X111141500Y-69398649D01*
X110000500Y-69398649D01*
X110000500Y-62632844D01*
X110020502Y-62564723D01*
X110074158Y-62518230D01*
X110144432Y-62508126D01*
X110206433Y-62535444D01*
X110336996Y-62642595D01*
X110512196Y-62736241D01*
X110702299Y-62793908D01*
X110702303Y-62793908D01*
X110702305Y-62793909D01*
X110899997Y-62813380D01*
X110900000Y-62813380D01*
X110900003Y-62813380D01*
X111097694Y-62793909D01*
X111097695Y-62793908D01*
X111097701Y-62793908D01*
X111287804Y-62736241D01*
X111463004Y-62642595D01*
X111616568Y-62516568D01*
X111742595Y-62363004D01*
X111836241Y-62187804D01*
X111893908Y-61997701D01*
X111895012Y-61986500D01*
X111913380Y-61800003D01*
X111913380Y-61799996D01*
X111893909Y-61602305D01*
X111893908Y-61602303D01*
X111893908Y-61602299D01*
X111836241Y-61412196D01*
X111742595Y-61236996D01*
X111616568Y-61083432D01*
X111463004Y-60957405D01*
X111287804Y-60863759D01*
X111097701Y-60806092D01*
X111097700Y-60806091D01*
X111097694Y-60806090D01*
X110900003Y-60786620D01*
X110899997Y-60786620D01*
X110702305Y-60806090D01*
X110512195Y-60863759D01*
X110336992Y-60957406D01*
X110336992Y-60957407D01*
X110206433Y-61064554D01*
X110141086Y-61092308D01*
X110071108Y-61080326D01*
X110018716Y-61032413D01*
X110000500Y-60967155D01*
X110000500Y-51126500D01*
X110020502Y-51058379D01*
X110074158Y-51011886D01*
X110126500Y-51000500D01*
X127455421Y-51000500D01*
X127523542Y-51020502D01*
G37*
G04 #@! TD.AperFunction*
G04 #@! TA.AperFunction,Conductor*
G36*
X159496481Y-79602373D02*
G01*
X159527693Y-79666141D01*
X159529500Y-79687405D01*
X159529500Y-89033500D01*
X159509498Y-89101621D01*
X159455842Y-89148114D01*
X159403500Y-89159500D01*
X156114951Y-89159500D01*
X156046830Y-89139498D01*
X156000337Y-89085842D01*
X155990233Y-89015568D01*
X156019727Y-88950988D01*
X156054982Y-88922686D01*
X156205576Y-88841189D01*
X156383240Y-88702906D01*
X156535722Y-88537268D01*
X156658860Y-88348791D01*
X156749296Y-88142616D01*
X156804564Y-87924368D01*
X156823156Y-87700000D01*
X156804564Y-87475632D01*
X156749296Y-87257384D01*
X156658860Y-87051209D01*
X156603492Y-86966462D01*
X156535724Y-86862734D01*
X156535720Y-86862729D01*
X156469791Y-86791112D01*
X156383240Y-86697094D01*
X156383234Y-86697089D01*
X156267109Y-86606704D01*
X156225638Y-86549079D01*
X156218500Y-86507273D01*
X156218500Y-82424441D01*
X156219830Y-82406182D01*
X156220940Y-82398600D01*
X156223341Y-82382211D01*
X156220875Y-82354027D01*
X156218740Y-82329614D01*
X156218500Y-82324121D01*
X156218500Y-82315819D01*
X156214652Y-82282905D01*
X156214652Y-82282904D01*
X156207887Y-82205574D01*
X156207885Y-82205570D01*
X156206403Y-82198388D01*
X156206469Y-82198374D01*
X156204837Y-82191012D01*
X156204772Y-82191028D01*
X156203080Y-82183890D01*
X156176526Y-82110934D01*
X156176525Y-82110933D01*
X156152114Y-82037262D01*
X156152109Y-82037255D01*
X156149012Y-82030611D01*
X156149074Y-82030581D01*
X156145788Y-82023795D01*
X156145728Y-82023826D01*
X156142433Y-82017265D01*
X156099766Y-81952394D01*
X156059031Y-81886351D01*
X156059030Y-81886349D01*
X156059027Y-81886346D01*
X156054478Y-81880592D01*
X156054531Y-81880549D01*
X156049766Y-81874700D01*
X156049715Y-81874744D01*
X156044998Y-81869122D01*
X155988518Y-81815837D01*
X155988517Y-81815836D01*
X155596273Y-81423592D01*
X155562250Y-81361282D01*
X155567314Y-81290467D01*
X155609861Y-81233631D01*
X155676381Y-81208820D01*
X155685370Y-81208499D01*
X155900544Y-81208499D01*
X156004426Y-81197887D01*
X156172738Y-81142115D01*
X156323652Y-81049030D01*
X156449030Y-80923652D01*
X156513979Y-80818352D01*
X156566765Y-80770875D01*
X156621220Y-80758500D01*
X157435559Y-80758500D01*
X157453819Y-80759830D01*
X157458715Y-80760547D01*
X157477789Y-80763341D01*
X157511146Y-80760422D01*
X157530385Y-80758740D01*
X157535878Y-80758500D01*
X157544176Y-80758500D01*
X157544180Y-80758500D01*
X157570512Y-80755421D01*
X157577096Y-80754652D01*
X157583861Y-80754060D01*
X157654426Y-80747887D01*
X157654432Y-80747884D01*
X157661618Y-80746402D01*
X157661631Y-80746468D01*
X157668987Y-80744836D01*
X157668972Y-80744771D01*
X157676104Y-80743079D01*
X157676113Y-80743079D01*
X157749065Y-80716526D01*
X157822738Y-80692114D01*
X157822740Y-80692112D01*
X157829389Y-80689012D01*
X157829418Y-80689074D01*
X157836203Y-80685789D01*
X157836173Y-80685729D01*
X157842728Y-80682436D01*
X157842732Y-80682435D01*
X157907605Y-80639766D01*
X157973651Y-80599030D01*
X157973660Y-80599020D01*
X157979408Y-80594477D01*
X157979450Y-80594531D01*
X157985289Y-80589775D01*
X157985246Y-80589723D01*
X157990865Y-80585006D01*
X157990874Y-80585001D01*
X158044163Y-80528517D01*
X158533902Y-80038777D01*
X158596211Y-80004755D01*
X158610642Y-80002482D01*
X158638598Y-79999729D01*
X158697694Y-79993909D01*
X158697695Y-79993908D01*
X158697701Y-79993908D01*
X158887804Y-79936241D01*
X159063004Y-79842595D01*
X159216568Y-79716568D01*
X159306102Y-79607470D01*
X159364777Y-79567503D01*
X159435749Y-79565602D01*
X159496481Y-79602373D01*
G37*
G04 #@! TD.AperFunction*
G04 #@! TA.AperFunction,Conductor*
G36*
X153915038Y-82778502D02*
G01*
X153936006Y-82795399D01*
X154037597Y-82896990D01*
X154071620Y-82959298D01*
X154074500Y-82986082D01*
X154074500Y-85420627D01*
X154054498Y-85488748D01*
X154037595Y-85509723D01*
X153226903Y-86320414D01*
X153164591Y-86354439D01*
X153117071Y-86355600D01*
X153081644Y-86349688D01*
X153032569Y-86341500D01*
X152807431Y-86341500D01*
X152659211Y-86366233D01*
X152585369Y-86378555D01*
X152585360Y-86378557D01*
X152372428Y-86451656D01*
X152372426Y-86451658D01*
X152174426Y-86558810D01*
X152174424Y-86558811D01*
X151996762Y-86697091D01*
X151844279Y-86862729D01*
X151844275Y-86862734D01*
X151731483Y-87035377D01*
X151677479Y-87081466D01*
X151607132Y-87091041D01*
X151542774Y-87061064D01*
X151504841Y-87001051D01*
X151500000Y-86966462D01*
X151500000Y-82884500D01*
X151520002Y-82816379D01*
X151573658Y-82769886D01*
X151626000Y-82758500D01*
X153846917Y-82758500D01*
X153915038Y-82778502D01*
G37*
G04 #@! TD.AperFunction*
G04 #@! TA.AperFunction,Conductor*
G36*
X150094012Y-78167147D02*
G01*
X150100595Y-78173276D01*
X150418092Y-78490773D01*
X150430065Y-78504627D01*
X150444531Y-78524058D01*
X150468491Y-78544163D01*
X150484975Y-78557994D01*
X150489021Y-78561702D01*
X150494899Y-78567580D01*
X150520896Y-78588136D01*
X150580360Y-78638032D01*
X150580366Y-78638035D01*
X150586495Y-78642067D01*
X150586457Y-78642123D01*
X150592813Y-78646172D01*
X150592849Y-78646115D01*
X150599089Y-78649963D01*
X150599094Y-78649967D01*
X150669453Y-78682775D01*
X150738812Y-78717609D01*
X150738819Y-78717610D01*
X150745707Y-78720118D01*
X150745684Y-78720180D01*
X150752810Y-78722657D01*
X150752831Y-78722595D01*
X150759788Y-78724899D01*
X150759793Y-78724902D01*
X150835822Y-78740600D01*
X150873582Y-78749550D01*
X150911343Y-78758500D01*
X150918632Y-78759352D01*
X150918624Y-78759418D01*
X150926122Y-78760184D01*
X150926128Y-78760118D01*
X150933435Y-78760756D01*
X150933442Y-78760758D01*
X151011045Y-78758500D01*
X152378780Y-78758500D01*
X152446901Y-78778502D01*
X152486020Y-78818352D01*
X152548437Y-78919546D01*
X152554823Y-78929898D01*
X152553194Y-78930902D01*
X152576105Y-78987679D01*
X152562860Y-79057429D01*
X152554747Y-79070055D01*
X152554823Y-79070102D01*
X152550971Y-79076346D01*
X152550970Y-79076348D01*
X152473487Y-79201968D01*
X152457885Y-79227262D01*
X152402113Y-79395572D01*
X152402112Y-79395579D01*
X152391500Y-79499446D01*
X152391501Y-80488500D01*
X152371499Y-80556621D01*
X152317843Y-80603114D01*
X152265501Y-80614500D01*
X150239371Y-80614500D01*
X150171250Y-80594498D01*
X150150280Y-80577599D01*
X149922404Y-80349723D01*
X149888379Y-80287411D01*
X149885500Y-80260628D01*
X149885500Y-78262371D01*
X149905502Y-78194250D01*
X149959158Y-78147757D01*
X150029432Y-78137653D01*
X150094012Y-78167147D01*
G37*
G04 #@! TD.AperFunction*
G04 #@! TA.AperFunction,Conductor*
G36*
X125659532Y-76817317D02*
G01*
X125716368Y-76859864D01*
X125741179Y-76926384D01*
X125741500Y-76935373D01*
X125741500Y-77935559D01*
X125740170Y-77953819D01*
X125736659Y-77977786D01*
X125736659Y-77977794D01*
X125741260Y-78030372D01*
X125741500Y-78035866D01*
X125741500Y-78044182D01*
X125745347Y-78077094D01*
X125752112Y-78154419D01*
X125753596Y-78161606D01*
X125753531Y-78161619D01*
X125755165Y-78168989D01*
X125755229Y-78168975D01*
X125756921Y-78176116D01*
X125783473Y-78249064D01*
X125807885Y-78322736D01*
X125810987Y-78329388D01*
X125810926Y-78329416D01*
X125814211Y-78336202D01*
X125814270Y-78336173D01*
X125817560Y-78342724D01*
X125860233Y-78407605D01*
X125900967Y-78473648D01*
X125905522Y-78479408D01*
X125905468Y-78479450D01*
X125910228Y-78485292D01*
X125910279Y-78485250D01*
X125914993Y-78490868D01*
X125914998Y-78490873D01*
X125914999Y-78490874D01*
X125950171Y-78524057D01*
X125971482Y-78544163D01*
X126346864Y-78919546D01*
X126380890Y-78981858D01*
X126375825Y-79052673D01*
X126333278Y-79109509D01*
X126323918Y-79115880D01*
X126291354Y-79135966D01*
X126285588Y-79140525D01*
X126285547Y-79140473D01*
X126279704Y-79145233D01*
X126279746Y-79145283D01*
X126274128Y-79149996D01*
X126225095Y-79201968D01*
X126163798Y-79237790D01*
X126133447Y-79241500D01*
X125486640Y-79241500D01*
X125418519Y-79221498D01*
X125379400Y-79181647D01*
X125312518Y-79073216D01*
X125308157Y-79066146D01*
X125289420Y-78997668D01*
X125308155Y-78933856D01*
X125392115Y-78797738D01*
X125447887Y-78629426D01*
X125458500Y-78525545D01*
X125458499Y-77474456D01*
X125447887Y-77370574D01*
X125392115Y-77202262D01*
X125389416Y-77197887D01*
X125353805Y-77140152D01*
X125335067Y-77071673D01*
X125356326Y-77003934D01*
X125394895Y-76966767D01*
X125423652Y-76949030D01*
X125449030Y-76923652D01*
X125526405Y-76846278D01*
X125588717Y-76812252D01*
X125659532Y-76817317D01*
G37*
G04 #@! TD.AperFunction*
G04 #@! TA.AperFunction,Conductor*
G36*
X159447532Y-75729314D02*
G01*
X159504368Y-75771861D01*
X159529179Y-75838381D01*
X159529500Y-75847370D01*
X159529500Y-78312594D01*
X159509498Y-78380715D01*
X159455842Y-78427208D01*
X159385568Y-78437312D01*
X159320988Y-78407818D01*
X159306101Y-78392528D01*
X159296406Y-78380715D01*
X159216568Y-78283432D01*
X159063004Y-78157405D01*
X158887804Y-78063759D01*
X158697701Y-78006092D01*
X158697700Y-78006091D01*
X158697694Y-78006090D01*
X158500003Y-77986620D01*
X158499997Y-77986620D01*
X158302305Y-78006090D01*
X158112195Y-78063759D01*
X157936995Y-78157405D01*
X157783432Y-78283432D01*
X157657405Y-78436995D01*
X157563759Y-78612194D01*
X157530270Y-78722595D01*
X157506149Y-78802113D01*
X157506092Y-78802300D01*
X157497517Y-78889354D01*
X157470934Y-78955186D01*
X157461220Y-78966097D01*
X157222724Y-79204595D01*
X157160412Y-79238620D01*
X157133628Y-79241500D01*
X156621220Y-79241500D01*
X156553099Y-79221498D01*
X156513979Y-79181647D01*
X156510375Y-79175804D01*
X156449030Y-79076348D01*
X156449029Y-79076347D01*
X156449024Y-79076341D01*
X156323658Y-78950975D01*
X156323652Y-78950970D01*
X156289489Y-78929898D01*
X156172738Y-78857885D01*
X156053436Y-78818353D01*
X156004427Y-78802113D01*
X156004420Y-78802112D01*
X155900553Y-78791500D01*
X155099455Y-78791500D01*
X154995574Y-78802112D01*
X154827261Y-78857885D01*
X154728040Y-78919086D01*
X154659560Y-78937823D01*
X154591821Y-78916564D01*
X154546330Y-78862056D01*
X154537529Y-78791607D01*
X154542284Y-78772227D01*
X154597887Y-78604426D01*
X154608500Y-78500545D01*
X154608499Y-77499456D01*
X154597887Y-77395574D01*
X154542287Y-77227783D01*
X154539848Y-77156832D01*
X154576156Y-77095822D01*
X154639685Y-77064127D01*
X154710265Y-77071809D01*
X154728029Y-77080907D01*
X154827262Y-77142115D01*
X154995574Y-77197887D01*
X155099455Y-77208500D01*
X155900544Y-77208499D01*
X156004426Y-77197887D01*
X156172738Y-77142115D01*
X156323652Y-77049030D01*
X156449030Y-76923652D01*
X156513979Y-76818352D01*
X156566765Y-76770875D01*
X156621220Y-76758500D01*
X157935559Y-76758500D01*
X157953819Y-76759830D01*
X157958715Y-76760547D01*
X157977789Y-76763341D01*
X158011146Y-76760422D01*
X158030385Y-76758740D01*
X158035878Y-76758500D01*
X158044176Y-76758500D01*
X158044180Y-76758500D01*
X158070512Y-76755421D01*
X158077096Y-76754652D01*
X158083860Y-76754060D01*
X158154426Y-76747887D01*
X158154432Y-76747884D01*
X158161618Y-76746402D01*
X158161631Y-76746468D01*
X158168987Y-76744836D01*
X158168972Y-76744771D01*
X158176104Y-76743079D01*
X158176113Y-76743079D01*
X158249065Y-76716526D01*
X158322738Y-76692114D01*
X158322740Y-76692112D01*
X158329389Y-76689012D01*
X158329418Y-76689074D01*
X158336203Y-76685789D01*
X158336173Y-76685729D01*
X158342728Y-76682436D01*
X158342732Y-76682435D01*
X158407605Y-76639766D01*
X158473651Y-76599030D01*
X158473660Y-76599020D01*
X158479408Y-76594477D01*
X158479450Y-76594531D01*
X158485289Y-76589775D01*
X158485246Y-76589723D01*
X158490865Y-76585006D01*
X158490874Y-76585001D01*
X158544163Y-76528517D01*
X159314406Y-75758273D01*
X159376717Y-75724250D01*
X159447532Y-75729314D01*
G37*
G04 #@! TD.AperFunction*
G04 #@! TA.AperFunction,Conductor*
G36*
X150979702Y-76557859D02*
G01*
X150997466Y-76569610D01*
X151020895Y-76588135D01*
X151080360Y-76638032D01*
X151080366Y-76638035D01*
X151086495Y-76642067D01*
X151086458Y-76642122D01*
X151092811Y-76646169D01*
X151092847Y-76646113D01*
X151099092Y-76649965D01*
X151099095Y-76649967D01*
X151169452Y-76682775D01*
X151238812Y-76717609D01*
X151238813Y-76717609D01*
X151238817Y-76717611D01*
X151245713Y-76720121D01*
X151245689Y-76720185D01*
X151252805Y-76722659D01*
X151252827Y-76722595D01*
X151259791Y-76724903D01*
X151335849Y-76740607D01*
X151366561Y-76747886D01*
X151411344Y-76758500D01*
X151411350Y-76758500D01*
X151418633Y-76759352D01*
X151418625Y-76759419D01*
X151426122Y-76760185D01*
X151426128Y-76760119D01*
X151433435Y-76760757D01*
X151433442Y-76760759D01*
X151511080Y-76758500D01*
X152378780Y-76758500D01*
X152446901Y-76778502D01*
X152486020Y-76818352D01*
X152499999Y-76841016D01*
X152554823Y-76929898D01*
X152553194Y-76930902D01*
X152576105Y-76987679D01*
X152562860Y-77057429D01*
X152554747Y-77070055D01*
X152554823Y-77070102D01*
X152550971Y-77076346D01*
X152550970Y-77076348D01*
X152501327Y-77156832D01*
X152486021Y-77181647D01*
X152433235Y-77229125D01*
X152378780Y-77241500D01*
X151366370Y-77241500D01*
X151298249Y-77221498D01*
X151277275Y-77204595D01*
X150830222Y-76757542D01*
X150796196Y-76695230D01*
X150801261Y-76624415D01*
X150843808Y-76567579D01*
X150910328Y-76542768D01*
X150979702Y-76557859D01*
G37*
G04 #@! TD.AperFunction*
G04 #@! TA.AperFunction,Conductor*
G36*
X152446901Y-70778502D02*
G01*
X152486020Y-70818352D01*
X152510404Y-70857885D01*
X152554823Y-70929898D01*
X152553194Y-70930902D01*
X152576105Y-70987679D01*
X152562860Y-71057429D01*
X152554747Y-71070055D01*
X152554823Y-71070102D01*
X152457885Y-71227262D01*
X152402113Y-71395572D01*
X152402112Y-71395579D01*
X152391500Y-71499446D01*
X152391500Y-72500544D01*
X152402112Y-72604425D01*
X152450731Y-72751148D01*
X152457885Y-72772738D01*
X152527969Y-72886362D01*
X152554823Y-72929898D01*
X152553194Y-72930902D01*
X152576105Y-72987679D01*
X152562860Y-73057429D01*
X152554747Y-73070055D01*
X152554823Y-73070102D01*
X152550971Y-73076346D01*
X152550970Y-73076348D01*
X152489290Y-73176347D01*
X152457885Y-73227262D01*
X152402113Y-73395572D01*
X152402112Y-73395579D01*
X152391500Y-73499446D01*
X152391500Y-74500544D01*
X152402112Y-74604425D01*
X152453167Y-74758500D01*
X152457885Y-74772738D01*
X152543106Y-74910903D01*
X152554823Y-74929898D01*
X152553194Y-74930902D01*
X152576105Y-74987679D01*
X152562860Y-75057429D01*
X152554747Y-75070055D01*
X152554823Y-75070102D01*
X152550971Y-75076346D01*
X152550970Y-75076348D01*
X152487696Y-75178931D01*
X152486021Y-75181647D01*
X152433235Y-75229125D01*
X152378780Y-75241500D01*
X151866371Y-75241500D01*
X151798250Y-75221498D01*
X151777276Y-75204595D01*
X148196908Y-71624227D01*
X148184936Y-71610375D01*
X148170466Y-71590938D01*
X148165432Y-71585603D01*
X148167381Y-71583763D01*
X148134968Y-71535033D01*
X148133850Y-71464045D01*
X148163641Y-71411168D01*
X148199163Y-71373517D01*
X148471710Y-71100970D01*
X148777277Y-70795404D01*
X148839589Y-70761379D01*
X148866372Y-70758500D01*
X152378780Y-70758500D01*
X152446901Y-70778502D01*
G37*
G04 #@! TD.AperFunction*
G04 #@! TA.AperFunction,Conductor*
G36*
X158686748Y-72765137D02*
G01*
X158737741Y-72814537D01*
X158753931Y-72883663D01*
X158730179Y-72950568D01*
X158717220Y-72965764D01*
X158509225Y-73173759D01*
X158495376Y-73185729D01*
X158475943Y-73200197D01*
X158442007Y-73240638D01*
X158438300Y-73244684D01*
X158432421Y-73250564D01*
X158432412Y-73250574D01*
X158416454Y-73270757D01*
X158411863Y-73276563D01*
X158377724Y-73317250D01*
X158361965Y-73336031D01*
X158357935Y-73342158D01*
X158357880Y-73342122D01*
X158353825Y-73348487D01*
X158353882Y-73348522D01*
X158350028Y-73354768D01*
X158317220Y-73425125D01*
X158282391Y-73494479D01*
X158279882Y-73501374D01*
X158279820Y-73501351D01*
X158277343Y-73508477D01*
X158277404Y-73508498D01*
X158275097Y-73515457D01*
X158259392Y-73591516D01*
X158241500Y-73667012D01*
X158240648Y-73674301D01*
X158240581Y-73674293D01*
X158239814Y-73681793D01*
X158239881Y-73681799D01*
X158239241Y-73689109D01*
X158241500Y-73766746D01*
X158241500Y-74633627D01*
X158221498Y-74701748D01*
X158204596Y-74722722D01*
X157722724Y-75204595D01*
X157660411Y-75238620D01*
X157633628Y-75241500D01*
X156621220Y-75241500D01*
X156553099Y-75221498D01*
X156513979Y-75181647D01*
X156512304Y-75178931D01*
X156449030Y-75076348D01*
X156449029Y-75076347D01*
X156449024Y-75076341D01*
X156323658Y-74950975D01*
X156323652Y-74950970D01*
X156289489Y-74929898D01*
X156172738Y-74857885D01*
X156069428Y-74823652D01*
X156004427Y-74802113D01*
X156004420Y-74802112D01*
X155900553Y-74791500D01*
X155099455Y-74791500D01*
X154995574Y-74802112D01*
X154827261Y-74857885D01*
X154728040Y-74919086D01*
X154659560Y-74937823D01*
X154591821Y-74916564D01*
X154546330Y-74862056D01*
X154537529Y-74791607D01*
X154542284Y-74772227D01*
X154597887Y-74604426D01*
X154608500Y-74500545D01*
X154608499Y-73499456D01*
X154608102Y-73495574D01*
X154597887Y-73395574D01*
X154580175Y-73342122D01*
X154542287Y-73227783D01*
X154539848Y-73156832D01*
X154576156Y-73095822D01*
X154639685Y-73064127D01*
X154710265Y-73071809D01*
X154728029Y-73080907D01*
X154827262Y-73142115D01*
X154995574Y-73197887D01*
X155099455Y-73208500D01*
X155900544Y-73208499D01*
X156004426Y-73197887D01*
X156172738Y-73142115D01*
X156323652Y-73049030D01*
X156449030Y-72923652D01*
X156513979Y-72818352D01*
X156566765Y-72770875D01*
X156621220Y-72758500D01*
X158435559Y-72758500D01*
X158453819Y-72759830D01*
X158458715Y-72760547D01*
X158477789Y-72763341D01*
X158511146Y-72760422D01*
X158530385Y-72758740D01*
X158535878Y-72758500D01*
X158544176Y-72758500D01*
X158544180Y-72758500D01*
X158570512Y-72755421D01*
X158577096Y-72754652D01*
X158582528Y-72754176D01*
X158617144Y-72751148D01*
X158686748Y-72765137D01*
G37*
G04 #@! TD.AperFunction*
G04 #@! TA.AperFunction,Conductor*
G36*
X136941621Y-51020502D02*
G01*
X136988114Y-51074158D01*
X136999500Y-51126500D01*
X136999500Y-51218326D01*
X137020674Y-51460355D01*
X137024506Y-51545683D01*
X137029559Y-51561915D01*
X137037556Y-51653314D01*
X137082236Y-51906707D01*
X137092905Y-51985468D01*
X137098545Y-51999200D01*
X137113381Y-52083337D01*
X137178740Y-52327262D01*
X137183992Y-52346860D01*
X137200109Y-52417473D01*
X137205918Y-52428694D01*
X137226396Y-52505116D01*
X137325460Y-52777293D01*
X137345259Y-52838229D01*
X137350838Y-52847018D01*
X137375740Y-52915434D01*
X137505932Y-53194632D01*
X137527219Y-53244435D01*
X137532169Y-53250899D01*
X137560276Y-53311172D01*
X137724554Y-53595711D01*
X137744550Y-53632870D01*
X137748496Y-53637180D01*
X137778598Y-53689319D01*
X137778598Y-53689318D01*
X137778603Y-53689326D01*
X137977277Y-53973062D01*
X137980266Y-53977331D01*
X137995542Y-54000473D01*
X137998125Y-54002837D01*
X138014893Y-54026783D01*
X138029057Y-54047012D01*
X138271996Y-54336536D01*
X138278196Y-54344310D01*
X138279100Y-54345001D01*
X138309732Y-54381507D01*
X138618493Y-54690268D01*
X138952988Y-54970943D01*
X139310674Y-55221397D01*
X139310678Y-55221399D01*
X139310682Y-55221402D01*
X139525750Y-55345571D01*
X139688826Y-55439723D01*
X139688828Y-55439724D01*
X139688827Y-55439724D01*
X139915821Y-55545573D01*
X140084568Y-55624261D01*
X140203589Y-55667581D01*
X140494884Y-55773604D01*
X140494883Y-55773604D01*
X140916663Y-55886619D01*
X141346686Y-55962444D01*
X141346686Y-55962443D01*
X141781673Y-56000500D01*
X141781674Y-56000500D01*
X142218326Y-56000500D01*
X142218327Y-56000500D01*
X142653314Y-55962443D01*
X142653314Y-55962444D01*
X143083337Y-55886619D01*
X143505117Y-55773604D01*
X143505116Y-55773604D01*
X143796411Y-55667581D01*
X143915432Y-55624261D01*
X144084179Y-55545573D01*
X144311173Y-55439724D01*
X144311172Y-55439724D01*
X144311174Y-55439723D01*
X144474250Y-55345571D01*
X144689318Y-55221402D01*
X144689321Y-55221399D01*
X144689326Y-55221397D01*
X145047012Y-54970943D01*
X145381507Y-54690268D01*
X145690264Y-54381511D01*
X145690263Y-54381513D01*
X145693711Y-54377404D01*
X145720898Y-54345002D01*
X145721645Y-54344505D01*
X145727949Y-54336600D01*
X145970943Y-54047012D01*
X146001873Y-54002839D01*
X146004035Y-54001110D01*
X146019699Y-53977380D01*
X146221397Y-53689326D01*
X146251501Y-53637183D01*
X146254840Y-53633999D01*
X146275433Y-53595732D01*
X146275446Y-53595711D01*
X146439723Y-53311174D01*
X146467830Y-53250899D01*
X146472079Y-53246072D01*
X146494046Y-53194676D01*
X146624261Y-52915432D01*
X146649161Y-52847018D01*
X146654032Y-52840402D01*
X146674521Y-52777342D01*
X146773605Y-52505112D01*
X146794079Y-52428699D01*
X146799272Y-52420179D01*
X146815993Y-52346914D01*
X146886619Y-52083337D01*
X146901453Y-51999208D01*
X146906652Y-51988716D01*
X146917753Y-51906765D01*
X146954368Y-51699112D01*
X146962444Y-51653314D01*
X146962443Y-51653315D01*
X146970429Y-51562035D01*
X146975318Y-51549536D01*
X146979321Y-51460397D01*
X147000500Y-51218327D01*
X147000500Y-51126785D01*
X147020502Y-51058665D01*
X147074158Y-51012172D01*
X147126780Y-51000786D01*
X173373786Y-51060213D01*
X173441861Y-51080370D01*
X173488232Y-51134130D01*
X173499500Y-51186213D01*
X173499500Y-66173500D01*
X173479498Y-66241621D01*
X173425842Y-66288114D01*
X173373500Y-66299500D01*
X169694750Y-66299500D01*
X169690849Y-66299226D01*
X169690064Y-66299404D01*
X169689616Y-66299616D01*
X169688796Y-66299958D01*
X169685984Y-66302384D01*
X161963063Y-72094576D01*
X161896565Y-72119447D01*
X161827177Y-72104418D01*
X161776930Y-72054261D01*
X161761776Y-71984901D01*
X161767861Y-71954135D01*
X161768461Y-71952321D01*
X161768467Y-71952309D01*
X161784165Y-71876279D01*
X161802065Y-71800758D01*
X161802065Y-71800757D01*
X161802917Y-71793470D01*
X161802983Y-71793477D01*
X161803749Y-71785979D01*
X161803683Y-71785974D01*
X161804321Y-71778667D01*
X161804323Y-71778660D01*
X161802065Y-71701056D01*
X161802065Y-71509787D01*
X161822067Y-71441667D01*
X161830662Y-71429859D01*
X161886160Y-71362236D01*
X161979806Y-71187036D01*
X162037473Y-70996933D01*
X162038385Y-70987679D01*
X162042932Y-70941501D01*
X162045346Y-70916990D01*
X162071927Y-70851159D01*
X162129881Y-70810148D01*
X162158390Y-70803947D01*
X162197694Y-70800076D01*
X162197695Y-70800075D01*
X162197701Y-70800075D01*
X162387804Y-70742408D01*
X162563004Y-70648762D01*
X162716568Y-70522735D01*
X162842595Y-70369171D01*
X162936241Y-70193971D01*
X162993908Y-70003868D01*
X162996939Y-69973090D01*
X163023519Y-69907261D01*
X163081472Y-69866249D01*
X163109981Y-69860047D01*
X163162393Y-69854885D01*
X163197693Y-69851409D01*
X163197694Y-69851408D01*
X163197701Y-69851408D01*
X163387804Y-69793741D01*
X163563004Y-69700095D01*
X163716568Y-69574068D01*
X163842595Y-69420504D01*
X163936241Y-69245304D01*
X163993908Y-69055201D01*
X163994517Y-69049024D01*
X164013380Y-68857503D01*
X164013380Y-68857496D01*
X163993909Y-68659805D01*
X163993908Y-68659803D01*
X163993908Y-68659799D01*
X163936241Y-68469696D01*
X163842595Y-68294496D01*
X163716568Y-68140932D01*
X163563004Y-68014905D01*
X163563004Y-68014904D01*
X163387805Y-67921259D01*
X163340278Y-67906842D01*
X163197701Y-67863592D01*
X163131770Y-67857098D01*
X163110644Y-67855017D01*
X163044812Y-67828434D01*
X163033900Y-67818719D01*
X162724408Y-67509227D01*
X162712436Y-67495375D01*
X162697969Y-67475942D01*
X162692654Y-67471482D01*
X162657524Y-67442003D01*
X162653470Y-67438289D01*
X162647607Y-67432425D01*
X162621604Y-67411864D01*
X162618025Y-67408861D01*
X162562140Y-67361968D01*
X162562138Y-67361967D01*
X162562136Y-67361965D01*
X162556006Y-67357933D01*
X162556041Y-67357878D01*
X162549687Y-67353829D01*
X162549653Y-67353886D01*
X162543406Y-67350033D01*
X162473040Y-67317220D01*
X162467054Y-67314214D01*
X162403688Y-67282391D01*
X162403686Y-67282390D01*
X162403683Y-67282389D01*
X162396789Y-67279880D01*
X162396811Y-67279817D01*
X162389689Y-67277341D01*
X162389669Y-67277404D01*
X162382709Y-67275097D01*
X162306650Y-67259392D01*
X162231152Y-67241499D01*
X162223867Y-67240648D01*
X162223874Y-67240580D01*
X162216377Y-67239814D01*
X162216372Y-67239881D01*
X162209059Y-67239241D01*
X162209058Y-67239241D01*
X162131420Y-67241500D01*
X156621220Y-67241500D01*
X156553099Y-67221498D01*
X156513979Y-67181647D01*
X156493231Y-67148009D01*
X156449030Y-67076348D01*
X156449029Y-67076347D01*
X156449024Y-67076341D01*
X156323658Y-66950975D01*
X156323652Y-66950970D01*
X156302337Y-66937823D01*
X156172738Y-66857885D01*
X156069428Y-66823652D01*
X156004427Y-66802113D01*
X156004420Y-66802112D01*
X155900553Y-66791500D01*
X155099455Y-66791500D01*
X154995574Y-66802112D01*
X154827261Y-66857885D01*
X154728040Y-66919086D01*
X154659560Y-66937823D01*
X154591821Y-66916564D01*
X154546330Y-66862056D01*
X154537529Y-66791607D01*
X154542284Y-66772227D01*
X154597887Y-66604426D01*
X154608500Y-66500545D01*
X154608499Y-65499456D01*
X154608102Y-65495574D01*
X154597887Y-65395574D01*
X154578567Y-65337270D01*
X154542115Y-65227262D01*
X154449030Y-65076348D01*
X154449029Y-65076347D01*
X154449024Y-65076341D01*
X154323658Y-64950975D01*
X154323652Y-64950970D01*
X154259862Y-64911624D01*
X154172738Y-64857885D01*
X154069428Y-64823652D01*
X154004427Y-64802113D01*
X154004420Y-64802112D01*
X153900553Y-64791500D01*
X153099455Y-64791500D01*
X152988731Y-64802812D01*
X152988501Y-64800567D01*
X152928286Y-64796055D01*
X152871595Y-64753315D01*
X152847011Y-64686711D01*
X152862339Y-64617388D01*
X152883625Y-64589055D01*
X152908922Y-64563759D01*
X152972681Y-64500000D01*
X160051844Y-64500000D01*
X160070313Y-64722885D01*
X160070437Y-64724375D01*
X160125702Y-64942612D01*
X160125703Y-64942613D01*
X160125704Y-64942616D01*
X160184364Y-65076348D01*
X160216141Y-65148793D01*
X160339275Y-65337265D01*
X160339279Y-65337270D01*
X160491762Y-65502908D01*
X160546331Y-65545381D01*
X160669424Y-65641189D01*
X160867426Y-65748342D01*
X160867427Y-65748342D01*
X160867428Y-65748343D01*
X160953202Y-65777789D01*
X161080365Y-65821444D01*
X161302431Y-65858500D01*
X161302435Y-65858500D01*
X161527565Y-65858500D01*
X161527569Y-65858500D01*
X161749635Y-65821444D01*
X161962574Y-65748342D01*
X162160576Y-65641189D01*
X162338240Y-65502906D01*
X162490722Y-65337268D01*
X162579519Y-65201353D01*
X162633518Y-65155268D01*
X162703866Y-65145692D01*
X162768224Y-65175668D01*
X162790482Y-65201356D01*
X162879275Y-65337265D01*
X162879279Y-65337270D01*
X163031762Y-65502908D01*
X163086331Y-65545381D01*
X163209424Y-65641189D01*
X163407426Y-65748342D01*
X163407427Y-65748342D01*
X163407428Y-65748343D01*
X163493202Y-65777789D01*
X163620365Y-65821444D01*
X163842431Y-65858500D01*
X163842435Y-65858500D01*
X164067565Y-65858500D01*
X164067569Y-65858500D01*
X164289635Y-65821444D01*
X164502574Y-65748342D01*
X164700576Y-65641189D01*
X164878240Y-65502906D01*
X165030722Y-65337268D01*
X165119518Y-65201354D01*
X165173520Y-65155268D01*
X165243868Y-65145692D01*
X165308225Y-65175669D01*
X165330480Y-65201353D01*
X165333388Y-65205803D01*
X165419275Y-65337265D01*
X165419279Y-65337270D01*
X165571762Y-65502908D01*
X165626331Y-65545381D01*
X165749424Y-65641189D01*
X165947426Y-65748342D01*
X165947427Y-65748342D01*
X165947428Y-65748343D01*
X166033202Y-65777789D01*
X166160365Y-65821444D01*
X166382431Y-65858500D01*
X166382435Y-65858500D01*
X166607565Y-65858500D01*
X166607569Y-65858500D01*
X166829635Y-65821444D01*
X167042574Y-65748342D01*
X167240576Y-65641189D01*
X167418240Y-65502906D01*
X167570722Y-65337268D01*
X167659519Y-65201353D01*
X167713518Y-65155268D01*
X167783866Y-65145692D01*
X167848224Y-65175668D01*
X167870482Y-65201356D01*
X167959275Y-65337265D01*
X167959279Y-65337270D01*
X168111762Y-65502908D01*
X168166331Y-65545381D01*
X168289424Y-65641189D01*
X168487426Y-65748342D01*
X168487427Y-65748342D01*
X168487428Y-65748343D01*
X168573202Y-65777789D01*
X168700365Y-65821444D01*
X168922431Y-65858500D01*
X168922435Y-65858500D01*
X169147565Y-65858500D01*
X169147569Y-65858500D01*
X169369635Y-65821444D01*
X169582574Y-65748342D01*
X169780576Y-65641189D01*
X169958240Y-65502906D01*
X170019245Y-65436637D01*
X170080096Y-65400067D01*
X170151061Y-65402200D01*
X170209606Y-65442362D01*
X170230000Y-65477941D01*
X170274111Y-65596204D01*
X170274112Y-65596207D01*
X170361738Y-65713261D01*
X170478792Y-65800887D01*
X170478794Y-65800888D01*
X170478796Y-65800889D01*
X170499202Y-65808500D01*
X170615795Y-65851988D01*
X170615803Y-65851990D01*
X170676350Y-65858499D01*
X170676355Y-65858499D01*
X170676362Y-65858500D01*
X170676368Y-65858500D01*
X172473632Y-65858500D01*
X172473638Y-65858500D01*
X172473645Y-65858499D01*
X172473649Y-65858499D01*
X172534196Y-65851990D01*
X172534199Y-65851989D01*
X172534201Y-65851989D01*
X172671204Y-65800889D01*
X172741399Y-65748342D01*
X172788261Y-65713261D01*
X172875887Y-65596207D01*
X172875887Y-65596206D01*
X172875889Y-65596204D01*
X172926989Y-65459201D01*
X172928800Y-65442362D01*
X172933499Y-65398649D01*
X172933500Y-65398632D01*
X172933500Y-63601367D01*
X172933499Y-63601350D01*
X172926990Y-63540803D01*
X172926988Y-63540795D01*
X172897924Y-63462875D01*
X172875889Y-63403796D01*
X172875888Y-63403794D01*
X172875887Y-63403792D01*
X172788261Y-63286738D01*
X172671207Y-63199112D01*
X172671202Y-63199110D01*
X172534204Y-63148011D01*
X172534196Y-63148009D01*
X172473649Y-63141500D01*
X172473638Y-63141500D01*
X170676362Y-63141500D01*
X170676350Y-63141500D01*
X170615803Y-63148009D01*
X170615795Y-63148011D01*
X170478797Y-63199110D01*
X170478792Y-63199112D01*
X170361738Y-63286738D01*
X170274112Y-63403792D01*
X170274111Y-63403795D01*
X170230000Y-63522058D01*
X170187453Y-63578893D01*
X170120932Y-63603703D01*
X170051558Y-63588611D01*
X170019246Y-63563363D01*
X169958240Y-63497094D01*
X169958239Y-63497093D01*
X169958237Y-63497091D01*
X169876382Y-63433381D01*
X169780576Y-63358811D01*
X169582574Y-63251658D01*
X169582572Y-63251657D01*
X169582571Y-63251656D01*
X169369639Y-63178557D01*
X169369630Y-63178555D01*
X169306927Y-63168092D01*
X169147569Y-63141500D01*
X168922431Y-63141500D01*
X168774211Y-63166233D01*
X168700369Y-63178555D01*
X168700360Y-63178557D01*
X168487428Y-63251656D01*
X168487426Y-63251658D01*
X168307380Y-63349094D01*
X168289426Y-63358810D01*
X168289424Y-63358811D01*
X168111762Y-63497091D01*
X167959279Y-63662729D01*
X167870483Y-63798643D01*
X167816479Y-63844731D01*
X167746131Y-63854306D01*
X167681774Y-63824329D01*
X167659517Y-63798643D01*
X167570720Y-63662729D01*
X167439516Y-63520206D01*
X167418240Y-63497094D01*
X167418239Y-63497093D01*
X167418237Y-63497091D01*
X167336382Y-63433381D01*
X167240576Y-63358811D01*
X167042574Y-63251658D01*
X167042572Y-63251657D01*
X167042571Y-63251656D01*
X166829639Y-63178557D01*
X166829630Y-63178555D01*
X166766927Y-63168092D01*
X166607569Y-63141500D01*
X166382431Y-63141500D01*
X166234211Y-63166233D01*
X166160369Y-63178555D01*
X166160360Y-63178557D01*
X165947428Y-63251656D01*
X165947426Y-63251658D01*
X165767380Y-63349094D01*
X165749426Y-63358810D01*
X165749424Y-63358811D01*
X165571762Y-63497091D01*
X165419279Y-63662729D01*
X165330483Y-63798643D01*
X165276479Y-63844731D01*
X165206131Y-63854306D01*
X165141774Y-63824329D01*
X165119517Y-63798643D01*
X165030720Y-63662729D01*
X164899516Y-63520206D01*
X164878240Y-63497094D01*
X164878239Y-63497093D01*
X164878237Y-63497091D01*
X164796382Y-63433381D01*
X164700576Y-63358811D01*
X164502574Y-63251658D01*
X164502572Y-63251657D01*
X164502571Y-63251656D01*
X164289639Y-63178557D01*
X164289630Y-63178555D01*
X164226927Y-63168092D01*
X164067569Y-63141500D01*
X163842431Y-63141500D01*
X163694211Y-63166233D01*
X163620369Y-63178555D01*
X163620360Y-63178557D01*
X163407428Y-63251656D01*
X163407426Y-63251658D01*
X163227380Y-63349094D01*
X163209426Y-63358810D01*
X163209424Y-63358811D01*
X163031762Y-63497091D01*
X162879279Y-63662729D01*
X162790483Y-63798643D01*
X162736479Y-63844731D01*
X162666131Y-63854306D01*
X162601774Y-63824329D01*
X162579517Y-63798643D01*
X162490720Y-63662729D01*
X162359516Y-63520206D01*
X162338240Y-63497094D01*
X162338239Y-63497093D01*
X162338237Y-63497091D01*
X162256382Y-63433381D01*
X162160576Y-63358811D01*
X161962574Y-63251658D01*
X161962572Y-63251657D01*
X161962571Y-63251656D01*
X161749639Y-63178557D01*
X161749630Y-63178555D01*
X161686927Y-63168092D01*
X161527569Y-63141500D01*
X161302431Y-63141500D01*
X161154211Y-63166233D01*
X161080369Y-63178555D01*
X161080360Y-63178557D01*
X160867428Y-63251656D01*
X160867426Y-63251658D01*
X160687380Y-63349094D01*
X160669426Y-63358810D01*
X160669424Y-63358811D01*
X160491762Y-63497091D01*
X160339279Y-63662729D01*
X160339275Y-63662734D01*
X160216141Y-63851206D01*
X160125703Y-64057386D01*
X160125702Y-64057387D01*
X160070437Y-64275624D01*
X160070436Y-64275630D01*
X160070436Y-64275632D01*
X160051844Y-64500000D01*
X152972681Y-64500000D01*
X154577275Y-62895405D01*
X154639588Y-62861379D01*
X154666371Y-62858500D01*
X160935559Y-62858500D01*
X160953819Y-62859830D01*
X160958715Y-62860547D01*
X160977789Y-62863341D01*
X161011146Y-62860422D01*
X161030385Y-62858740D01*
X161035878Y-62858500D01*
X161044176Y-62858500D01*
X161044180Y-62858500D01*
X161070512Y-62855421D01*
X161077096Y-62854652D01*
X161083861Y-62854060D01*
X161154426Y-62847887D01*
X161154432Y-62847884D01*
X161161618Y-62846402D01*
X161161631Y-62846468D01*
X161168987Y-62844836D01*
X161168972Y-62844771D01*
X161176104Y-62843079D01*
X161176113Y-62843079D01*
X161249065Y-62816526D01*
X161322738Y-62792114D01*
X161322740Y-62792112D01*
X161329389Y-62789012D01*
X161329418Y-62789074D01*
X161336203Y-62785789D01*
X161336173Y-62785729D01*
X161342728Y-62782436D01*
X161342732Y-62782435D01*
X161407605Y-62739766D01*
X161473651Y-62699030D01*
X161473660Y-62699020D01*
X161479408Y-62694477D01*
X161479450Y-62694531D01*
X161485289Y-62689775D01*
X161485246Y-62689723D01*
X161490865Y-62685006D01*
X161490874Y-62685001D01*
X161544163Y-62628517D01*
X162290784Y-61881895D01*
X162304617Y-61869941D01*
X162324058Y-61855469D01*
X162358001Y-61815015D01*
X162361700Y-61810979D01*
X162367581Y-61805100D01*
X162386614Y-61781028D01*
X162388135Y-61779105D01*
X162426140Y-61733812D01*
X162438032Y-61719640D01*
X162438033Y-61719636D01*
X162438036Y-61719634D01*
X162442070Y-61713502D01*
X162442127Y-61713539D01*
X162446171Y-61707191D01*
X162446112Y-61707155D01*
X162449961Y-61700912D01*
X162449967Y-61700905D01*
X162482775Y-61630547D01*
X162517609Y-61561188D01*
X162517610Y-61561182D01*
X162520119Y-61554291D01*
X162520184Y-61554314D01*
X162522630Y-61547277D01*
X162522567Y-61547257D01*
X162523058Y-61545772D01*
X162523250Y-61545492D01*
X162525634Y-61538638D01*
X162528014Y-61533537D01*
X162530662Y-61534772D01*
X162563433Y-61487374D01*
X162576530Y-61478094D01*
X162623652Y-61449030D01*
X162749030Y-61323652D01*
X162842115Y-61172738D01*
X162897887Y-61004426D01*
X162908500Y-60900545D01*
X162908499Y-59899456D01*
X162897887Y-59795574D01*
X162842287Y-59627783D01*
X162839848Y-59556832D01*
X162876156Y-59495822D01*
X162939685Y-59464127D01*
X163010265Y-59471809D01*
X163028029Y-59480907D01*
X163127262Y-59542115D01*
X163295574Y-59597887D01*
X163399455Y-59608500D01*
X164200544Y-59608499D01*
X164304426Y-59597887D01*
X164472738Y-59542115D01*
X164623652Y-59449030D01*
X164749030Y-59323652D01*
X164842115Y-59172738D01*
X164897887Y-59004426D01*
X164908500Y-58900545D01*
X164908499Y-57899456D01*
X164897887Y-57795574D01*
X164842115Y-57627262D01*
X164749030Y-57476348D01*
X164749029Y-57476347D01*
X164749024Y-57476341D01*
X164645405Y-57372722D01*
X164611379Y-57310410D01*
X164608500Y-57283627D01*
X164608500Y-55908752D01*
X164613503Y-55873599D01*
X164655562Y-55728831D01*
X164656541Y-55716388D01*
X164658500Y-55691506D01*
X164658500Y-54383494D01*
X164655562Y-54346170D01*
X164655223Y-54345003D01*
X164609145Y-54186399D01*
X164609143Y-54186397D01*
X164609143Y-54186394D01*
X164524455Y-54043196D01*
X164524450Y-54043189D01*
X164406810Y-53925549D01*
X164406803Y-53925544D01*
X164263605Y-53840856D01*
X164103829Y-53794437D01*
X164066506Y-53791500D01*
X164066502Y-53791500D01*
X163834500Y-53791500D01*
X163766379Y-53771498D01*
X163719886Y-53717842D01*
X163708500Y-53665500D01*
X163708500Y-52508494D01*
X163705562Y-52471170D01*
X163705562Y-52471169D01*
X163659145Y-52311399D01*
X163659143Y-52311395D01*
X163659143Y-52311394D01*
X163574455Y-52168196D01*
X163574450Y-52168189D01*
X163456810Y-52050549D01*
X163456803Y-52050544D01*
X163313605Y-51965856D01*
X163153829Y-51919437D01*
X163116506Y-51916500D01*
X163116502Y-51916500D01*
X162683498Y-51916500D01*
X162683494Y-51916500D01*
X162646170Y-51919437D01*
X162486394Y-51965856D01*
X162343196Y-52050544D01*
X162343189Y-52050549D01*
X162225549Y-52168189D01*
X162225544Y-52168196D01*
X162140856Y-52311395D01*
X162140854Y-52311399D01*
X162140855Y-52311399D01*
X162102018Y-52445080D01*
X162100399Y-52450652D01*
X162062186Y-52510488D01*
X161997690Y-52540166D01*
X161979402Y-52541500D01*
X161221220Y-52541500D01*
X161153099Y-52521498D01*
X161113979Y-52481647D01*
X161049029Y-52376347D01*
X161049024Y-52376341D01*
X160923658Y-52250975D01*
X160923652Y-52250970D01*
X160903631Y-52238621D01*
X160772738Y-52157885D01*
X160688582Y-52129999D01*
X160604427Y-52102113D01*
X160604420Y-52102112D01*
X160500553Y-52091500D01*
X159699455Y-52091500D01*
X159595574Y-52102112D01*
X159427261Y-52157885D01*
X159276347Y-52250970D01*
X159276341Y-52250975D01*
X159189095Y-52338222D01*
X159126783Y-52372248D01*
X159055968Y-52367183D01*
X159010905Y-52338222D01*
X158923658Y-52250975D01*
X158923652Y-52250970D01*
X158903631Y-52238621D01*
X158772738Y-52157885D01*
X158688582Y-52129999D01*
X158604427Y-52102113D01*
X158604420Y-52102112D01*
X158500553Y-52091500D01*
X157699455Y-52091500D01*
X157595574Y-52102112D01*
X157427259Y-52157886D01*
X157322113Y-52222741D01*
X157255967Y-52241500D01*
X152460372Y-52241500D01*
X152392251Y-52221498D01*
X152354890Y-52184417D01*
X152347654Y-52173342D01*
X152340722Y-52162732D01*
X152188240Y-51997094D01*
X152188239Y-51997093D01*
X152188237Y-51997091D01*
X152068372Y-51903796D01*
X152010576Y-51858811D01*
X151812574Y-51751658D01*
X151812572Y-51751657D01*
X151812571Y-51751656D01*
X151599639Y-51678557D01*
X151599630Y-51678555D01*
X151555367Y-51671169D01*
X151377569Y-51641500D01*
X151152431Y-51641500D01*
X151004211Y-51666233D01*
X150930369Y-51678555D01*
X150930360Y-51678557D01*
X150717428Y-51751656D01*
X150717426Y-51751658D01*
X150557067Y-51838440D01*
X150519426Y-51858810D01*
X150519424Y-51858811D01*
X150341762Y-51997091D01*
X150280754Y-52063363D01*
X150219901Y-52099933D01*
X150148936Y-52097798D01*
X150090391Y-52057636D01*
X150069999Y-52022057D01*
X150026989Y-51906746D01*
X150025889Y-51903796D01*
X150025888Y-51903794D01*
X150025887Y-51903792D01*
X149938261Y-51786738D01*
X149821207Y-51699112D01*
X149821202Y-51699110D01*
X149684204Y-51648011D01*
X149684196Y-51648009D01*
X149623649Y-51641500D01*
X149623638Y-51641500D01*
X147826362Y-51641500D01*
X147826350Y-51641500D01*
X147765803Y-51648009D01*
X147765795Y-51648011D01*
X147628797Y-51699110D01*
X147628792Y-51699112D01*
X147511738Y-51786738D01*
X147424112Y-51903792D01*
X147424110Y-51903797D01*
X147373011Y-52040795D01*
X147373009Y-52040803D01*
X147366500Y-52101350D01*
X147366500Y-53898649D01*
X147373009Y-53959196D01*
X147373011Y-53959204D01*
X147424110Y-54096202D01*
X147424112Y-54096207D01*
X147511738Y-54213261D01*
X147628792Y-54300887D01*
X147628794Y-54300888D01*
X147628796Y-54300889D01*
X147664259Y-54314116D01*
X147765795Y-54351988D01*
X147765803Y-54351990D01*
X147826350Y-54358499D01*
X147826355Y-54358499D01*
X147826362Y-54358500D01*
X147840500Y-54358500D01*
X147908621Y-54378502D01*
X147955114Y-54432158D01*
X147966500Y-54484500D01*
X147966500Y-55965500D01*
X147946498Y-56033621D01*
X147892842Y-56080114D01*
X147840500Y-56091500D01*
X147001350Y-56091500D01*
X146940803Y-56098009D01*
X146940795Y-56098011D01*
X146803797Y-56149110D01*
X146803792Y-56149112D01*
X146686738Y-56236738D01*
X146599112Y-56353792D01*
X146599110Y-56353797D01*
X146548011Y-56490795D01*
X146548009Y-56490803D01*
X146541500Y-56551350D01*
X146541500Y-58448649D01*
X146548009Y-58509196D01*
X146548011Y-58509204D01*
X146599110Y-58646202D01*
X146599112Y-58646207D01*
X146686738Y-58763261D01*
X146803792Y-58850887D01*
X146803794Y-58850888D01*
X146803796Y-58850889D01*
X146862875Y-58872924D01*
X146940795Y-58901988D01*
X146940803Y-58901990D01*
X147001350Y-58908499D01*
X147001355Y-58908499D01*
X147001362Y-58908500D01*
X147001368Y-58908500D01*
X150598632Y-58908500D01*
X150598638Y-58908500D01*
X150598645Y-58908499D01*
X150598649Y-58908499D01*
X150659196Y-58901990D01*
X150659199Y-58901989D01*
X150659201Y-58901989D01*
X150663073Y-58900545D01*
X150678045Y-58894960D01*
X150796204Y-58850889D01*
X150913261Y-58763261D01*
X150960210Y-58700545D01*
X151000887Y-58646207D01*
X151000887Y-58646206D01*
X151000889Y-58646204D01*
X151051989Y-58509201D01*
X151058500Y-58448638D01*
X151058500Y-56551362D01*
X151058499Y-56551350D01*
X151051990Y-56490803D01*
X151051988Y-56490795D01*
X151008618Y-56374518D01*
X151000889Y-56353796D01*
X151000888Y-56353794D01*
X151000887Y-56353792D01*
X150913261Y-56236738D01*
X150796207Y-56149112D01*
X150796202Y-56149110D01*
X150659204Y-56098011D01*
X150659196Y-56098009D01*
X150598649Y-56091500D01*
X150598638Y-56091500D01*
X149609500Y-56091500D01*
X149541379Y-56071498D01*
X149494886Y-56017842D01*
X149483500Y-55965500D01*
X149483500Y-54484500D01*
X149503502Y-54416379D01*
X149557158Y-54369886D01*
X149609500Y-54358500D01*
X149623632Y-54358500D01*
X149623638Y-54358500D01*
X149623645Y-54358499D01*
X149623649Y-54358499D01*
X149684196Y-54351990D01*
X149684199Y-54351989D01*
X149684201Y-54351989D01*
X149692151Y-54349024D01*
X149719221Y-54338927D01*
X149821204Y-54300889D01*
X149856523Y-54274450D01*
X149938261Y-54213261D01*
X150025886Y-54096208D01*
X150025885Y-54096208D01*
X150025889Y-54096204D01*
X150069999Y-53977939D01*
X150112545Y-53921107D01*
X150179066Y-53896296D01*
X150248440Y-53911388D01*
X150280753Y-53936635D01*
X150341760Y-54002906D01*
X150457892Y-54093296D01*
X150499362Y-54150919D01*
X150506500Y-54192726D01*
X150506500Y-54600559D01*
X150505170Y-54618819D01*
X150501659Y-54642786D01*
X150501659Y-54642794D01*
X150506260Y-54695372D01*
X150506500Y-54700866D01*
X150506500Y-54709182D01*
X150510347Y-54742094D01*
X150517112Y-54819419D01*
X150518596Y-54826606D01*
X150518531Y-54826619D01*
X150520165Y-54833989D01*
X150520229Y-54833975D01*
X150521921Y-54841116D01*
X150535078Y-54877262D01*
X150548473Y-54914065D01*
X150553366Y-54928831D01*
X150572885Y-54987736D01*
X150575987Y-54994388D01*
X150575926Y-54994416D01*
X150579211Y-55001202D01*
X150579270Y-55001173D01*
X150582560Y-55007724D01*
X150582564Y-55007731D01*
X150582565Y-55007732D01*
X150602718Y-55038373D01*
X150625233Y-55072605D01*
X150665967Y-55138648D01*
X150670522Y-55144408D01*
X150670468Y-55144450D01*
X150675228Y-55150292D01*
X150675279Y-55150250D01*
X150679993Y-55155868D01*
X150679998Y-55155873D01*
X150679999Y-55155874D01*
X150736482Y-55209163D01*
X151118098Y-55590779D01*
X151130065Y-55604627D01*
X151143672Y-55622905D01*
X151144531Y-55624058D01*
X151182388Y-55655824D01*
X151184975Y-55657994D01*
X151189021Y-55661702D01*
X151194900Y-55667581D01*
X151220895Y-55688135D01*
X151280360Y-55738032D01*
X151280366Y-55738035D01*
X151286495Y-55742067D01*
X151286458Y-55742122D01*
X151292811Y-55746169D01*
X151292847Y-55746113D01*
X151299092Y-55749965D01*
X151299095Y-55749967D01*
X151369452Y-55782775D01*
X151438812Y-55817609D01*
X151438813Y-55817609D01*
X151438817Y-55817611D01*
X151445713Y-55820121D01*
X151445689Y-55820185D01*
X151452805Y-55822659D01*
X151452827Y-55822595D01*
X151459791Y-55824903D01*
X151535849Y-55840607D01*
X151569866Y-55848669D01*
X151611344Y-55858500D01*
X151611350Y-55858500D01*
X151618633Y-55859352D01*
X151618625Y-55859419D01*
X151626122Y-55860185D01*
X151626128Y-55860119D01*
X151633435Y-55860757D01*
X151633442Y-55860759D01*
X151711080Y-55858500D01*
X151884582Y-55858500D01*
X151952703Y-55878502D01*
X151999196Y-55932158D01*
X152009300Y-56002432D01*
X151979806Y-56067012D01*
X151928615Y-56102555D01*
X151803796Y-56149110D01*
X151803792Y-56149112D01*
X151686738Y-56236738D01*
X151599112Y-56353792D01*
X151599110Y-56353797D01*
X151548011Y-56490795D01*
X151548009Y-56490803D01*
X151541500Y-56551350D01*
X151541500Y-58448649D01*
X151548009Y-58509196D01*
X151548011Y-58509204D01*
X151599110Y-58646202D01*
X151599112Y-58646207D01*
X151686738Y-58763261D01*
X151803792Y-58850887D01*
X151803794Y-58850888D01*
X151803796Y-58850889D01*
X151862875Y-58872924D01*
X151940795Y-58901988D01*
X151940803Y-58901990D01*
X152001350Y-58908499D01*
X152001355Y-58908499D01*
X152001362Y-58908500D01*
X152001368Y-58908500D01*
X155598632Y-58908500D01*
X155598638Y-58908500D01*
X155598645Y-58908499D01*
X155598649Y-58908499D01*
X155659196Y-58901990D01*
X155659199Y-58901989D01*
X155659201Y-58901989D01*
X155663073Y-58900545D01*
X155678045Y-58894960D01*
X155796204Y-58850889D01*
X155913261Y-58763261D01*
X155960210Y-58700545D01*
X156000887Y-58646207D01*
X156000887Y-58646206D01*
X156000889Y-58646204D01*
X156051989Y-58509201D01*
X156058500Y-58448638D01*
X156058500Y-56551362D01*
X156058499Y-56551350D01*
X156051990Y-56490803D01*
X156051988Y-56490795D01*
X156008618Y-56374518D01*
X156000889Y-56353796D01*
X156000888Y-56353794D01*
X156000887Y-56353792D01*
X155913261Y-56236738D01*
X155796207Y-56149112D01*
X155796202Y-56149110D01*
X155659204Y-56098011D01*
X155659196Y-56098009D01*
X155598649Y-56091500D01*
X155598638Y-56091500D01*
X154684500Y-56091500D01*
X154616379Y-56071498D01*
X154569886Y-56017842D01*
X154558500Y-55965500D01*
X154558500Y-55764435D01*
X154559831Y-55746172D01*
X154561023Y-55738032D01*
X154563341Y-55722211D01*
X154559013Y-55672738D01*
X154558740Y-55669613D01*
X154558500Y-55664120D01*
X154558500Y-55655824D01*
X154554652Y-55622904D01*
X154549706Y-55566371D01*
X154547887Y-55545573D01*
X154547886Y-55545570D01*
X154547886Y-55545568D01*
X154546403Y-55538387D01*
X154546469Y-55538373D01*
X154544839Y-55531019D01*
X154544773Y-55531035D01*
X154543078Y-55523883D01*
X154516528Y-55450938D01*
X154492112Y-55377256D01*
X154489014Y-55370614D01*
X154489075Y-55370585D01*
X154485788Y-55363795D01*
X154485728Y-55363826D01*
X154482433Y-55357265D01*
X154465462Y-55331463D01*
X154439766Y-55292394D01*
X154399030Y-55226349D01*
X154399027Y-55226346D01*
X154394478Y-55220592D01*
X154394531Y-55220549D01*
X154389766Y-55214700D01*
X154389715Y-55214744D01*
X154384998Y-55209122D01*
X154328518Y-55155837D01*
X154061312Y-54888631D01*
X153781901Y-54609220D01*
X153769936Y-54595375D01*
X153760095Y-54582156D01*
X153755469Y-54575942D01*
X153755467Y-54575940D01*
X153715024Y-54542003D01*
X153710970Y-54538289D01*
X153705107Y-54532425D01*
X153700636Y-54528890D01*
X153679103Y-54511863D01*
X153619640Y-54461968D01*
X153619638Y-54461967D01*
X153619636Y-54461965D01*
X153613506Y-54457933D01*
X153613541Y-54457878D01*
X153607187Y-54453829D01*
X153607153Y-54453886D01*
X153600906Y-54450033D01*
X153530540Y-54417220D01*
X153528865Y-54416379D01*
X153461188Y-54382391D01*
X153461186Y-54382390D01*
X153461183Y-54382389D01*
X153454289Y-54379880D01*
X153454311Y-54379817D01*
X153447189Y-54377341D01*
X153447169Y-54377404D01*
X153440209Y-54375097D01*
X153364150Y-54359392D01*
X153288652Y-54341499D01*
X153281367Y-54340648D01*
X153281374Y-54340580D01*
X153273877Y-54339814D01*
X153273872Y-54339881D01*
X153266559Y-54339241D01*
X153266558Y-54339241D01*
X153188920Y-54341500D01*
X152149500Y-54341500D01*
X152081379Y-54321498D01*
X152034886Y-54267842D01*
X152023500Y-54215500D01*
X152023500Y-54192726D01*
X152043502Y-54124605D01*
X152072106Y-54093297D01*
X152188240Y-54002906D01*
X152340722Y-53837268D01*
X152354889Y-53815583D01*
X152408895Y-53769495D01*
X152460372Y-53758500D01*
X156873421Y-53758500D01*
X156941542Y-53778502D01*
X156988035Y-53832158D01*
X156998769Y-53871694D01*
X157002112Y-53904425D01*
X157057885Y-54072738D01*
X157150970Y-54223652D01*
X157150975Y-54223658D01*
X157276341Y-54349024D01*
X157276347Y-54349029D01*
X157276348Y-54349030D01*
X157427262Y-54442115D01*
X157595574Y-54497887D01*
X157699455Y-54508500D01*
X157923138Y-54508499D01*
X157991258Y-54528501D01*
X158037751Y-54582156D01*
X158047856Y-54652430D01*
X158021661Y-54713043D01*
X158018373Y-54717166D01*
X157894367Y-54905027D01*
X157894363Y-54905035D01*
X157805897Y-55112011D01*
X157805896Y-55112013D01*
X157755809Y-55331461D01*
X157755809Y-55331463D01*
X157749605Y-55469614D01*
X157745710Y-55556330D01*
X157762975Y-55683791D01*
X157775925Y-55779390D01*
X157845484Y-55993467D01*
X157952144Y-56191675D01*
X157952148Y-56191682D01*
X158024833Y-56282825D01*
X158092492Y-56367666D01*
X158262004Y-56515765D01*
X158455236Y-56631215D01*
X158665976Y-56710307D01*
X158665978Y-56710307D01*
X158665980Y-56710308D01*
X158799229Y-56734489D01*
X158887453Y-56750500D01*
X158887454Y-56750500D01*
X159056149Y-56750500D01*
X159056155Y-56750500D01*
X159213759Y-56736315D01*
X159224189Y-56735377D01*
X159224189Y-56735376D01*
X159403766Y-56685816D01*
X159441167Y-56675494D01*
X159441167Y-56675493D01*
X159441170Y-56675493D01*
X159643973Y-56577829D01*
X159826078Y-56445522D01*
X159981632Y-56282825D01*
X160105635Y-56094968D01*
X160194103Y-55887988D01*
X160244191Y-55668537D01*
X160254290Y-55443670D01*
X160224075Y-55220613D01*
X160224054Y-55220549D01*
X160192327Y-55122904D01*
X160154517Y-55006536D01*
X160147980Y-54994388D01*
X160047855Y-54808324D01*
X160047846Y-54808310D01*
X159971885Y-54713059D01*
X159945050Y-54647329D01*
X159958011Y-54577526D01*
X160006654Y-54525811D01*
X160070395Y-54508499D01*
X160500544Y-54508499D01*
X160604426Y-54497887D01*
X160772738Y-54442115D01*
X160923652Y-54349030D01*
X161049030Y-54223652D01*
X161113979Y-54118352D01*
X161166765Y-54070875D01*
X161221220Y-54058500D01*
X162095539Y-54058500D01*
X162163660Y-54078502D01*
X162203992Y-54120360D01*
X162225546Y-54156806D01*
X162225549Y-54156810D01*
X162343189Y-54274450D01*
X162343196Y-54274455D01*
X162486394Y-54359143D01*
X162486397Y-54359143D01*
X162486399Y-54359145D01*
X162646169Y-54405562D01*
X162653634Y-54406149D01*
X162683494Y-54408500D01*
X162683498Y-54408500D01*
X162915500Y-54408500D01*
X162983621Y-54428502D01*
X163030114Y-54482158D01*
X163041500Y-54534500D01*
X163041500Y-55691506D01*
X163044437Y-55728829D01*
X163060110Y-55782775D01*
X163082766Y-55860759D01*
X163086497Y-55873599D01*
X163091500Y-55908752D01*
X163091500Y-57209620D01*
X163071498Y-57277741D01*
X163031648Y-57316860D01*
X162976349Y-57350968D01*
X162976341Y-57350975D01*
X162889095Y-57438222D01*
X162826783Y-57472248D01*
X162755968Y-57467183D01*
X162710905Y-57438222D01*
X162623658Y-57350975D01*
X162623652Y-57350970D01*
X162541900Y-57300545D01*
X162472738Y-57257885D01*
X162388582Y-57229999D01*
X162304427Y-57202113D01*
X162304420Y-57202112D01*
X162200553Y-57191500D01*
X161399455Y-57191500D01*
X161295574Y-57202112D01*
X161127261Y-57257885D01*
X160976347Y-57350970D01*
X160976341Y-57350975D01*
X160850975Y-57476341D01*
X160850970Y-57476347D01*
X160757885Y-57627262D01*
X160702113Y-57795572D01*
X160702112Y-57795579D01*
X160691500Y-57899446D01*
X160691500Y-58900544D01*
X160702112Y-59004425D01*
X160741620Y-59123652D01*
X160757885Y-59172738D01*
X160845129Y-59314183D01*
X160854823Y-59329898D01*
X160853197Y-59330900D01*
X160876107Y-59387695D01*
X160862853Y-59457444D01*
X160854747Y-59470055D01*
X160854823Y-59470102D01*
X160850971Y-59476346D01*
X160850970Y-59476348D01*
X160757885Y-59627262D01*
X160724575Y-59727789D01*
X160719243Y-59743879D01*
X160678829Y-59802251D01*
X160613273Y-59829507D01*
X160543387Y-59816994D01*
X160491361Y-59768684D01*
X160475356Y-59724985D01*
X160459571Y-59630386D01*
X160387764Y-59421219D01*
X160378829Y-59395192D01*
X160378828Y-59395190D01*
X160260474Y-59176491D01*
X160260473Y-59176490D01*
X160253176Y-59167115D01*
X160107738Y-58980256D01*
X160107736Y-58980254D01*
X160107732Y-58980249D01*
X159924785Y-58811835D01*
X159716606Y-58675826D01*
X159716607Y-58675826D01*
X159488884Y-58575938D01*
X159488877Y-58575935D01*
X159247828Y-58514893D01*
X159247823Y-58514892D01*
X159247821Y-58514892D01*
X159114630Y-58503855D01*
X159062069Y-58499500D01*
X159062067Y-58499500D01*
X158937933Y-58499500D01*
X158937931Y-58499500D01*
X158876707Y-58504573D01*
X158752179Y-58514892D01*
X158752177Y-58514892D01*
X158752171Y-58514893D01*
X158511122Y-58575935D01*
X158511115Y-58575938D01*
X158283393Y-58675826D01*
X158075214Y-58811835D01*
X157892267Y-58980249D01*
X157739526Y-59176490D01*
X157739525Y-59176491D01*
X157621171Y-59395190D01*
X157621170Y-59395192D01*
X157540430Y-59630381D01*
X157540428Y-59630390D01*
X157531222Y-59685559D01*
X157499500Y-59875665D01*
X157499500Y-60124335D01*
X157527839Y-60294163D01*
X157540428Y-60369609D01*
X157540430Y-60369618D01*
X157621170Y-60604807D01*
X157621171Y-60604809D01*
X157733413Y-60812213D01*
X157739526Y-60823509D01*
X157880340Y-61004427D01*
X157892264Y-61019746D01*
X157906024Y-61032413D01*
X157994375Y-61113746D01*
X158004209Y-61122798D01*
X158040780Y-61183651D01*
X158038647Y-61254616D01*
X157998485Y-61313161D01*
X157933047Y-61340700D01*
X157918872Y-61341500D01*
X154364441Y-61341500D01*
X154346182Y-61340170D01*
X154322212Y-61336659D01*
X154322211Y-61336659D01*
X154315773Y-61337222D01*
X154269615Y-61341260D01*
X154264122Y-61341500D01*
X154255817Y-61341500D01*
X154222904Y-61345347D01*
X154145574Y-61352112D01*
X154138389Y-61353596D01*
X154138376Y-61353533D01*
X154131003Y-61355168D01*
X154131018Y-61355231D01*
X154123881Y-61356922D01*
X154068088Y-61377229D01*
X154050934Y-61383473D01*
X154014097Y-61395679D01*
X153977261Y-61407886D01*
X153970612Y-61410987D01*
X153970583Y-61410926D01*
X153963792Y-61414214D01*
X153963822Y-61414273D01*
X153957269Y-61417563D01*
X153892394Y-61460232D01*
X153826351Y-61500968D01*
X153820588Y-61505525D01*
X153820547Y-61505473D01*
X153814704Y-61510233D01*
X153814746Y-61510283D01*
X153809128Y-61514996D01*
X153755836Y-61571482D01*
X152040580Y-63286739D01*
X150357724Y-64969595D01*
X150295412Y-65003620D01*
X150268629Y-65006500D01*
X147634500Y-65006500D01*
X147566379Y-64986498D01*
X147519886Y-64932842D01*
X147508500Y-64880500D01*
X147508500Y-63996367D01*
X147508499Y-63996350D01*
X147501990Y-63935803D01*
X147501988Y-63935795D01*
X147450889Y-63798797D01*
X147450887Y-63798793D01*
X147440539Y-63784969D01*
X147415729Y-63718448D01*
X147430821Y-63649074D01*
X147452310Y-63620369D01*
X148197980Y-62874699D01*
X148260290Y-62840675D01*
X148331105Y-62845740D01*
X148382294Y-62881279D01*
X148386749Y-62886420D01*
X148386750Y-62886421D01*
X148497257Y-62982176D01*
X148630266Y-63042919D01*
X148630271Y-63042919D01*
X148630272Y-63042920D01*
X148774993Y-63063728D01*
X148774998Y-63063729D01*
X148775000Y-63063729D01*
X149775000Y-63063729D01*
X149839557Y-63059657D01*
X149839556Y-63059656D01*
X149980528Y-63020824D01*
X150104850Y-62943849D01*
X150202448Y-62834966D01*
X150501895Y-62385795D01*
X150702448Y-62084967D01*
X150706099Y-62079284D01*
X150711782Y-62070442D01*
X150770282Y-61936431D01*
X150783655Y-61830850D01*
X150788656Y-61791371D01*
X150788174Y-61788374D01*
X150765418Y-61647004D01*
X150702448Y-61515034D01*
X150702445Y-61515030D01*
X150702444Y-61515027D01*
X150202446Y-60765031D01*
X150202447Y-60765032D01*
X150163248Y-60713577D01*
X150163244Y-60713572D01*
X150052747Y-60617827D01*
X150052743Y-60617824D01*
X149919734Y-60557081D01*
X149919727Y-60557079D01*
X149775006Y-60536271D01*
X149775000Y-60536271D01*
X148775000Y-60536271D01*
X148749173Y-60538118D01*
X148701892Y-60541499D01*
X148701884Y-60541501D01*
X148561589Y-60582696D01*
X148561587Y-60582697D01*
X148438579Y-60661749D01*
X148342824Y-60772256D01*
X148301037Y-60863759D01*
X148282081Y-60905266D01*
X148278031Y-60933432D01*
X148248539Y-60998012D01*
X148188813Y-61036396D01*
X148159435Y-61040619D01*
X148159474Y-61041287D01*
X148155821Y-61041499D01*
X148126752Y-61044897D01*
X148122905Y-61045347D01*
X148113732Y-61046149D01*
X148045577Y-61052112D01*
X148038386Y-61053597D01*
X148038372Y-61053532D01*
X148031014Y-61055163D01*
X148031030Y-61055228D01*
X148023889Y-61056920D01*
X147950944Y-61083469D01*
X147877260Y-61107885D01*
X147870613Y-61110986D01*
X147870585Y-61110926D01*
X147863798Y-61114212D01*
X147863827Y-61114270D01*
X147857271Y-61117562D01*
X147792395Y-61160232D01*
X147726349Y-61200969D01*
X147720596Y-61205519D01*
X147720555Y-61205467D01*
X147714704Y-61210233D01*
X147714746Y-61210283D01*
X147709128Y-61214996D01*
X147655836Y-61271482D01*
X145759225Y-63168092D01*
X145745379Y-63180059D01*
X145739749Y-63184251D01*
X145673165Y-63208891D01*
X145603830Y-63193621D01*
X145553757Y-63143290D01*
X145538500Y-63083189D01*
X145538500Y-60979977D01*
X145558502Y-60911856D01*
X145607297Y-60867710D01*
X145716221Y-60812211D01*
X145716225Y-60812207D01*
X145716228Y-60812206D01*
X145868720Y-60688720D01*
X145992206Y-60536228D01*
X145992207Y-60536225D01*
X145992211Y-60536221D01*
X146081298Y-60361379D01*
X146132086Y-60171836D01*
X146138500Y-60090337D01*
X146138499Y-59109664D01*
X146132086Y-59028164D01*
X146081298Y-58838621D01*
X145992211Y-58663779D01*
X145992209Y-58663776D01*
X145992206Y-58663771D01*
X145868720Y-58511279D01*
X145716228Y-58387793D01*
X145716219Y-58387788D01*
X145541377Y-58298701D01*
X145408147Y-58263002D01*
X145351836Y-58247914D01*
X145289581Y-58243014D01*
X145270340Y-58241500D01*
X145270337Y-58241500D01*
X144779946Y-58241500D01*
X144289661Y-58241501D01*
X144208165Y-58247913D01*
X144018622Y-58298701D01*
X143843780Y-58387788D01*
X143843771Y-58387793D01*
X143691279Y-58511279D01*
X143607920Y-58614220D01*
X143549506Y-58654572D01*
X143478549Y-58656938D01*
X143417577Y-58620565D01*
X143412080Y-58614220D01*
X143328720Y-58511279D01*
X143176228Y-58387793D01*
X143176219Y-58387788D01*
X143001377Y-58298701D01*
X142868147Y-58263002D01*
X142811836Y-58247914D01*
X142749582Y-58243014D01*
X142730340Y-58241500D01*
X142730337Y-58241500D01*
X142240426Y-58241500D01*
X141749661Y-58241501D01*
X141668165Y-58247913D01*
X141478622Y-58298701D01*
X141303780Y-58387788D01*
X141303771Y-58387793D01*
X141151279Y-58511279D01*
X141067920Y-58614220D01*
X141009506Y-58654572D01*
X140938549Y-58656938D01*
X140877577Y-58620565D01*
X140872080Y-58614220D01*
X140788720Y-58511279D01*
X140636228Y-58387793D01*
X140636219Y-58387788D01*
X140461377Y-58298701D01*
X140328147Y-58263002D01*
X140271836Y-58247914D01*
X140209581Y-58243014D01*
X140190340Y-58241500D01*
X140190337Y-58241500D01*
X139699541Y-58241500D01*
X139209661Y-58241501D01*
X139128165Y-58247913D01*
X138938622Y-58298701D01*
X138763780Y-58387788D01*
X138763771Y-58387793D01*
X138611279Y-58511279D01*
X138527920Y-58614220D01*
X138469506Y-58654572D01*
X138398549Y-58656938D01*
X138337577Y-58620565D01*
X138332080Y-58614220D01*
X138248720Y-58511279D01*
X138096228Y-58387793D01*
X138096219Y-58387788D01*
X137921377Y-58298701D01*
X137788147Y-58263002D01*
X137731836Y-58247914D01*
X137669582Y-58243014D01*
X137650340Y-58241500D01*
X137650337Y-58241500D01*
X136926371Y-58241500D01*
X136858250Y-58221498D01*
X136837276Y-58204595D01*
X136441908Y-57809227D01*
X136429936Y-57795375D01*
X136415469Y-57775942D01*
X136415467Y-57775940D01*
X136375024Y-57742003D01*
X136370970Y-57738289D01*
X136365107Y-57732425D01*
X136339104Y-57711864D01*
X136279636Y-57661965D01*
X136273506Y-57657933D01*
X136273541Y-57657878D01*
X136267187Y-57653829D01*
X136267153Y-57653886D01*
X136260906Y-57650033D01*
X136190540Y-57617220D01*
X136121188Y-57582391D01*
X136121186Y-57582390D01*
X136121183Y-57582389D01*
X136114289Y-57579880D01*
X136114311Y-57579817D01*
X136107189Y-57577341D01*
X136107169Y-57577404D01*
X136100209Y-57575097D01*
X136024150Y-57559392D01*
X135948652Y-57541499D01*
X135941367Y-57540648D01*
X135941374Y-57540580D01*
X135933877Y-57539814D01*
X135933872Y-57539881D01*
X135926559Y-57539241D01*
X135926558Y-57539241D01*
X135848920Y-57541500D01*
X134923411Y-57541500D01*
X134855290Y-57521498D01*
X134808797Y-57467842D01*
X134798064Y-57402693D01*
X134803348Y-57350970D01*
X134808500Y-57300545D01*
X134808499Y-56299456D01*
X134797887Y-56195574D01*
X134742115Y-56027262D01*
X134649030Y-55876348D01*
X134649029Y-55876347D01*
X134649024Y-55876341D01*
X134523652Y-55750969D01*
X134523650Y-55750968D01*
X134518351Y-55747699D01*
X134470874Y-55694913D01*
X134458500Y-55640460D01*
X134458500Y-55264435D01*
X134459831Y-55246172D01*
X134459920Y-55245562D01*
X134463341Y-55222211D01*
X134460882Y-55194105D01*
X134458740Y-55169613D01*
X134458500Y-55164120D01*
X134458500Y-55155824D01*
X134457853Y-55150292D01*
X134454652Y-55122905D01*
X134447887Y-55045573D01*
X134447886Y-55045570D01*
X134447886Y-55045568D01*
X134446403Y-55038387D01*
X134446469Y-55038373D01*
X134444839Y-55031019D01*
X134444773Y-55031035D01*
X134443078Y-55023883D01*
X134416528Y-54950938D01*
X134392112Y-54877256D01*
X134389014Y-54870614D01*
X134389075Y-54870585D01*
X134385788Y-54863795D01*
X134385728Y-54863826D01*
X134382433Y-54857265D01*
X134371809Y-54841113D01*
X134339766Y-54792394D01*
X134299030Y-54726349D01*
X134299027Y-54726346D01*
X134294478Y-54720592D01*
X134294531Y-54720549D01*
X134289766Y-54714700D01*
X134289715Y-54714744D01*
X134284998Y-54709122D01*
X134228518Y-54655837D01*
X134101572Y-54528890D01*
X134067546Y-54466578D01*
X134072611Y-54395763D01*
X134115158Y-54338927D01*
X134181678Y-54314116D01*
X134234697Y-54321739D01*
X134280779Y-54338927D01*
X134315798Y-54351989D01*
X134315803Y-54351990D01*
X134376350Y-54358499D01*
X134376355Y-54358499D01*
X134376362Y-54358500D01*
X134376368Y-54358500D01*
X136173632Y-54358500D01*
X136173638Y-54358500D01*
X136173645Y-54358499D01*
X136173649Y-54358499D01*
X136234196Y-54351990D01*
X136234199Y-54351989D01*
X136234201Y-54351989D01*
X136242151Y-54349024D01*
X136269221Y-54338927D01*
X136371204Y-54300889D01*
X136406523Y-54274450D01*
X136488261Y-54213261D01*
X136575887Y-54096207D01*
X136575887Y-54096206D01*
X136575889Y-54096204D01*
X136626989Y-53959201D01*
X136628083Y-53949030D01*
X136633499Y-53898649D01*
X136633500Y-53898632D01*
X136633500Y-52101367D01*
X136633499Y-52101350D01*
X136626990Y-52040803D01*
X136626988Y-52040795D01*
X136576989Y-51906746D01*
X136575889Y-51903796D01*
X136575888Y-51903794D01*
X136575887Y-51903792D01*
X136488261Y-51786738D01*
X136371207Y-51699112D01*
X136371202Y-51699110D01*
X136234204Y-51648011D01*
X136234196Y-51648009D01*
X136173649Y-51641500D01*
X136173638Y-51641500D01*
X134376362Y-51641500D01*
X134376350Y-51641500D01*
X134315803Y-51648009D01*
X134315795Y-51648011D01*
X134178797Y-51699110D01*
X134178792Y-51699112D01*
X134061738Y-51786738D01*
X133974112Y-51903792D01*
X133974111Y-51903795D01*
X133930000Y-52022058D01*
X133887453Y-52078893D01*
X133820932Y-52103703D01*
X133751558Y-52088611D01*
X133719246Y-52063363D01*
X133658240Y-51997094D01*
X133658239Y-51997093D01*
X133658237Y-51997091D01*
X133538372Y-51903796D01*
X133480576Y-51858811D01*
X133282574Y-51751658D01*
X133282572Y-51751657D01*
X133282571Y-51751656D01*
X133069639Y-51678557D01*
X133069630Y-51678555D01*
X133025367Y-51671169D01*
X132847569Y-51641500D01*
X132622431Y-51641500D01*
X132474211Y-51666233D01*
X132400369Y-51678555D01*
X132400360Y-51678557D01*
X132187428Y-51751656D01*
X132187426Y-51751658D01*
X132027067Y-51838440D01*
X131989426Y-51858810D01*
X131989424Y-51858811D01*
X131811762Y-51997091D01*
X131659279Y-52162729D01*
X131659275Y-52162734D01*
X131536141Y-52351206D01*
X131445703Y-52557386D01*
X131445702Y-52557387D01*
X131390437Y-52775624D01*
X131390436Y-52775630D01*
X131390436Y-52775632D01*
X131371844Y-53000000D01*
X131389544Y-53213605D01*
X131390437Y-53224375D01*
X131445702Y-53442612D01*
X131445703Y-53442613D01*
X131445704Y-53442616D01*
X131536140Y-53648791D01*
X131536141Y-53648793D01*
X131659275Y-53837265D01*
X131659279Y-53837270D01*
X131715784Y-53898649D01*
X131811760Y-54002906D01*
X131924977Y-54091027D01*
X131966447Y-54148650D01*
X131972256Y-54208710D01*
X131971659Y-54212782D01*
X131971659Y-54212791D01*
X131976259Y-54265384D01*
X131976499Y-54270868D01*
X131976499Y-54279171D01*
X131976500Y-54279183D01*
X131980347Y-54312095D01*
X131987112Y-54389419D01*
X131988596Y-54396606D01*
X131988531Y-54396619D01*
X131990165Y-54403989D01*
X131990229Y-54403975D01*
X131991921Y-54411116D01*
X132008942Y-54457878D01*
X132018473Y-54484065D01*
X132023053Y-54497886D01*
X132042885Y-54557736D01*
X132045987Y-54564388D01*
X132045926Y-54564416D01*
X132049211Y-54571202D01*
X132049270Y-54571173D01*
X132052560Y-54577724D01*
X132052564Y-54577731D01*
X132052565Y-54577732D01*
X132073618Y-54609741D01*
X132095233Y-54642605D01*
X132135967Y-54708648D01*
X132140522Y-54714408D01*
X132140468Y-54714450D01*
X132145228Y-54720292D01*
X132145279Y-54720250D01*
X132149993Y-54725868D01*
X132149998Y-54725873D01*
X132149999Y-54725874D01*
X132206482Y-54779163D01*
X132904596Y-55477277D01*
X132938620Y-55539588D01*
X132941500Y-55566371D01*
X132941500Y-55640460D01*
X132921498Y-55708581D01*
X132881649Y-55747699D01*
X132876349Y-55750968D01*
X132876347Y-55750969D01*
X132789095Y-55838222D01*
X132726783Y-55872248D01*
X132655968Y-55867183D01*
X132610905Y-55838222D01*
X132523658Y-55750975D01*
X132523652Y-55750970D01*
X132487756Y-55728829D01*
X132372738Y-55657885D01*
X132270650Y-55624057D01*
X132204427Y-55602113D01*
X132204420Y-55602112D01*
X132100553Y-55591500D01*
X131299451Y-55591500D01*
X131297285Y-55591722D01*
X131296817Y-55591634D01*
X131296246Y-55591664D01*
X131296239Y-55591527D01*
X131227486Y-55578735D01*
X131175788Y-55530075D01*
X131158499Y-55466372D01*
X131158499Y-54642605D01*
X131158499Y-53664421D01*
X131159828Y-53646189D01*
X131163341Y-53622211D01*
X131160882Y-53594105D01*
X131158740Y-53569613D01*
X131158500Y-53564120D01*
X131158500Y-53555824D01*
X131158394Y-53554920D01*
X131154652Y-53522905D01*
X131147887Y-53445573D01*
X131147886Y-53445570D01*
X131147886Y-53445568D01*
X131146403Y-53438387D01*
X131146469Y-53438373D01*
X131144839Y-53431019D01*
X131144773Y-53431035D01*
X131143079Y-53423893D01*
X131143079Y-53423887D01*
X131116530Y-53350944D01*
X131092114Y-53277261D01*
X131092110Y-53277255D01*
X131089014Y-53270615D01*
X131089076Y-53270586D01*
X131085791Y-53263800D01*
X131085731Y-53263831D01*
X131082435Y-53257268D01*
X131039771Y-53192400D01*
X130999031Y-53126350D01*
X130994477Y-53120591D01*
X130994530Y-53120548D01*
X130989766Y-53114700D01*
X130989715Y-53114744D01*
X130984998Y-53109122D01*
X130928518Y-53055837D01*
X129744408Y-51871727D01*
X129732436Y-51857875D01*
X129717969Y-51838442D01*
X129717967Y-51838440D01*
X129677524Y-51804503D01*
X129673470Y-51800789D01*
X129667607Y-51794925D01*
X129657254Y-51786739D01*
X129641603Y-51774363D01*
X129582140Y-51724468D01*
X129582138Y-51724467D01*
X129582136Y-51724465D01*
X129576006Y-51720433D01*
X129576041Y-51720378D01*
X129569687Y-51716329D01*
X129569653Y-51716386D01*
X129563406Y-51712533D01*
X129493040Y-51679720D01*
X129476013Y-51671169D01*
X129423688Y-51644891D01*
X129423686Y-51644890D01*
X129423683Y-51644889D01*
X129416789Y-51642380D01*
X129416811Y-51642317D01*
X129409689Y-51639841D01*
X129409669Y-51639904D01*
X129402709Y-51637597D01*
X129326650Y-51621892D01*
X129251152Y-51603999D01*
X129243867Y-51603148D01*
X129243874Y-51603080D01*
X129236377Y-51602314D01*
X129236372Y-51602381D01*
X129229059Y-51601741D01*
X129229058Y-51601741D01*
X129151420Y-51604000D01*
X128930651Y-51604000D01*
X128862530Y-51583998D01*
X128816037Y-51530342D01*
X128809654Y-51513152D01*
X128809145Y-51511399D01*
X128778975Y-51460385D01*
X128724455Y-51368196D01*
X128724450Y-51368189D01*
X128606809Y-51250548D01*
X128599051Y-51245960D01*
X128580439Y-51234953D01*
X128531987Y-51183061D01*
X128519282Y-51113210D01*
X128546357Y-51047579D01*
X128604617Y-51007005D01*
X128644579Y-51000500D01*
X136873500Y-51000500D01*
X136941621Y-51020502D01*
G37*
G04 #@! TD.AperFunction*
G04 #@! TA.AperFunction,Conductor*
G36*
X161402851Y-68778502D02*
G01*
X161449344Y-68832158D01*
X161459448Y-68902432D01*
X161429954Y-68967012D01*
X161414664Y-68981899D01*
X161369376Y-69019066D01*
X161304029Y-69046820D01*
X161289442Y-69047667D01*
X160758274Y-69047667D01*
X160740014Y-69046337D01*
X160716044Y-69042826D01*
X160663448Y-69047427D01*
X160657955Y-69047667D01*
X160649651Y-69047667D01*
X160635039Y-69049375D01*
X160616738Y-69051514D01*
X160607565Y-69052316D01*
X160539410Y-69058279D01*
X160532219Y-69059764D01*
X160532205Y-69059699D01*
X160524847Y-69061330D01*
X160524863Y-69061395D01*
X160517722Y-69063087D01*
X160444777Y-69089636D01*
X160371093Y-69114052D01*
X160364446Y-69117153D01*
X160364418Y-69117093D01*
X160357631Y-69120379D01*
X160357660Y-69120437D01*
X160351104Y-69123729D01*
X160286228Y-69166399D01*
X160220182Y-69207136D01*
X160214429Y-69211686D01*
X160214388Y-69211634D01*
X160208537Y-69216400D01*
X160208579Y-69216450D01*
X160202961Y-69221163D01*
X160173761Y-69252113D01*
X160149669Y-69277649D01*
X158222722Y-71204596D01*
X158160412Y-71238620D01*
X158133629Y-71241500D01*
X156621220Y-71241500D01*
X156553099Y-71221498D01*
X156513979Y-71181647D01*
X156449029Y-71076347D01*
X156449024Y-71076341D01*
X156323658Y-70950975D01*
X156323652Y-70950970D01*
X156289489Y-70929898D01*
X156172738Y-70857885D01*
X156040547Y-70814082D01*
X156004427Y-70802113D01*
X156004420Y-70802112D01*
X155900553Y-70791500D01*
X155099455Y-70791500D01*
X154995574Y-70802112D01*
X154827261Y-70857885D01*
X154728040Y-70919086D01*
X154659560Y-70937823D01*
X154591821Y-70916564D01*
X154546330Y-70862056D01*
X154537529Y-70791607D01*
X154542284Y-70772227D01*
X154597887Y-70604426D01*
X154608500Y-70500545D01*
X154608499Y-69499456D01*
X154597887Y-69395574D01*
X154542287Y-69227783D01*
X154539848Y-69156832D01*
X154576156Y-69095822D01*
X154639685Y-69064127D01*
X154710265Y-69071809D01*
X154728029Y-69080907D01*
X154827262Y-69142115D01*
X154995574Y-69197887D01*
X155099455Y-69208500D01*
X155900544Y-69208499D01*
X156004426Y-69197887D01*
X156172738Y-69142115D01*
X156323652Y-69049030D01*
X156449030Y-68923652D01*
X156513979Y-68818352D01*
X156566765Y-68770875D01*
X156621220Y-68758500D01*
X161334730Y-68758500D01*
X161402851Y-68778502D01*
G37*
G04 #@! TD.AperFunction*
G04 #@! TA.AperFunction,Conductor*
G36*
X152446901Y-68778502D02*
G01*
X152486020Y-68818352D01*
X152538868Y-68904032D01*
X152554823Y-68929898D01*
X152553194Y-68930902D01*
X152576105Y-68987679D01*
X152562860Y-69057429D01*
X152554747Y-69070055D01*
X152554823Y-69070102D01*
X152550971Y-69076346D01*
X152550970Y-69076348D01*
X152501327Y-69156832D01*
X152486021Y-69181647D01*
X152433235Y-69229125D01*
X152378780Y-69241500D01*
X150061048Y-69241500D01*
X149992927Y-69221498D01*
X149946434Y-69167842D01*
X149936330Y-69097568D01*
X149965824Y-69032988D01*
X150011997Y-69002180D01*
X150011082Y-69000218D01*
X150024389Y-68994012D01*
X150024418Y-68994074D01*
X150031203Y-68990789D01*
X150031173Y-68990729D01*
X150037728Y-68987436D01*
X150037732Y-68987435D01*
X150102605Y-68944766D01*
X150168651Y-68904030D01*
X150168660Y-68904020D01*
X150174408Y-68899477D01*
X150174450Y-68899531D01*
X150180289Y-68894775D01*
X150180246Y-68894723D01*
X150185866Y-68890005D01*
X150185874Y-68890001D01*
X150239163Y-68833517D01*
X150277278Y-68795402D01*
X150339589Y-68761379D01*
X150366371Y-68758500D01*
X152378780Y-68758500D01*
X152446901Y-68778502D01*
G37*
G04 #@! TD.AperFunction*
G04 #@! TA.AperFunction,Conductor*
G36*
X132268426Y-61678502D02*
G01*
X132314919Y-61732158D01*
X132325023Y-61802432D01*
X132323701Y-61809981D01*
X132319392Y-61830850D01*
X132301499Y-61906345D01*
X132300648Y-61913634D01*
X132300581Y-61913626D01*
X132299814Y-61921126D01*
X132299881Y-61921132D01*
X132299241Y-61928442D01*
X132301500Y-62006079D01*
X132301500Y-62027674D01*
X132281498Y-62095795D01*
X132251011Y-62128540D01*
X132246739Y-62131737D01*
X132159112Y-62248792D01*
X132159110Y-62248797D01*
X132108011Y-62385795D01*
X132108009Y-62385803D01*
X132101500Y-62446350D01*
X132101500Y-64043649D01*
X132108009Y-64104196D01*
X132108011Y-64104204D01*
X132159110Y-64241202D01*
X132159112Y-64241207D01*
X132246738Y-64358261D01*
X132363792Y-64445887D01*
X132363794Y-64445888D01*
X132363796Y-64445889D01*
X132422875Y-64467924D01*
X132500795Y-64496988D01*
X132500803Y-64496990D01*
X132561350Y-64503499D01*
X132561355Y-64503499D01*
X132561362Y-64503500D01*
X132561368Y-64503500D01*
X133558632Y-64503500D01*
X133558638Y-64503500D01*
X133558645Y-64503499D01*
X133558649Y-64503499D01*
X133619196Y-64496990D01*
X133619197Y-64496989D01*
X133619201Y-64496989D01*
X133650966Y-64485140D01*
X133721779Y-64480074D01*
X133739025Y-64485137D01*
X133770799Y-64496989D01*
X133770801Y-64496989D01*
X133770803Y-64496990D01*
X133831350Y-64503499D01*
X133831355Y-64503499D01*
X133831362Y-64503500D01*
X133831368Y-64503500D01*
X134828632Y-64503500D01*
X134828638Y-64503500D01*
X134828645Y-64503499D01*
X134828649Y-64503499D01*
X134889196Y-64496990D01*
X134889197Y-64496989D01*
X134889201Y-64496989D01*
X134920966Y-64485140D01*
X134991779Y-64480074D01*
X135009025Y-64485137D01*
X135040799Y-64496989D01*
X135040801Y-64496989D01*
X135040803Y-64496990D01*
X135101350Y-64503499D01*
X135101355Y-64503499D01*
X135101362Y-64503500D01*
X135101368Y-64503500D01*
X136098632Y-64503500D01*
X136098638Y-64503500D01*
X136098645Y-64503499D01*
X136098649Y-64503499D01*
X136159196Y-64496990D01*
X136159197Y-64496989D01*
X136159201Y-64496989D01*
X136190966Y-64485140D01*
X136261779Y-64480074D01*
X136279025Y-64485137D01*
X136310799Y-64496989D01*
X136310801Y-64496989D01*
X136310803Y-64496990D01*
X136371350Y-64503499D01*
X136371355Y-64503499D01*
X136371362Y-64503500D01*
X136371368Y-64503500D01*
X137368632Y-64503500D01*
X137368638Y-64503500D01*
X137368645Y-64503499D01*
X137368649Y-64503499D01*
X137429196Y-64496990D01*
X137429197Y-64496989D01*
X137429201Y-64496989D01*
X137460966Y-64485140D01*
X137531779Y-64480074D01*
X137549025Y-64485137D01*
X137580799Y-64496989D01*
X137580801Y-64496989D01*
X137580803Y-64496990D01*
X137641350Y-64503499D01*
X137641355Y-64503499D01*
X137641362Y-64503500D01*
X137772384Y-64503500D01*
X137840505Y-64523502D01*
X137886998Y-64577158D01*
X137897102Y-64647432D01*
X137867608Y-64712012D01*
X137852317Y-64726899D01*
X137783434Y-64783429D01*
X137657405Y-64936995D01*
X137563759Y-65112195D01*
X137506090Y-65302305D01*
X137486620Y-65499996D01*
X137486620Y-65500003D01*
X137506090Y-65697694D01*
X137506091Y-65697700D01*
X137506092Y-65697701D01*
X137530386Y-65777789D01*
X137565556Y-65893728D01*
X137563977Y-65894206D01*
X137570720Y-65956858D01*
X137538948Y-66020348D01*
X137477894Y-66056583D01*
X137446720Y-66060500D01*
X133763742Y-66060500D01*
X133747510Y-66058708D01*
X133747487Y-66058958D01*
X133739594Y-66058211D01*
X133669008Y-66060430D01*
X133666789Y-66060500D01*
X133635699Y-66060500D01*
X133628353Y-66061427D01*
X133622440Y-66061893D01*
X133573303Y-66063437D01*
X133573301Y-66063437D01*
X133573300Y-66063438D01*
X133552702Y-66069421D01*
X133533352Y-66073428D01*
X133512071Y-66076116D01*
X133512066Y-66076118D01*
X133466345Y-66094219D01*
X133460730Y-66096141D01*
X133413537Y-66109852D01*
X133413529Y-66109855D01*
X133395072Y-66120771D01*
X133377324Y-66129466D01*
X133370327Y-66132237D01*
X133357375Y-66137365D01*
X133357370Y-66137368D01*
X133317592Y-66166268D01*
X133312641Y-66169520D01*
X133278420Y-66189759D01*
X133270322Y-66194549D01*
X133255160Y-66209711D01*
X133240133Y-66222545D01*
X133222777Y-66235156D01*
X133222774Y-66235158D01*
X133191425Y-66273051D01*
X133187429Y-66277442D01*
X131855275Y-67609595D01*
X131792963Y-67643621D01*
X131766180Y-67646500D01*
X130134500Y-67646500D01*
X130066379Y-67626498D01*
X130019886Y-67572842D01*
X130008500Y-67520500D01*
X130008500Y-66536367D01*
X130008499Y-66536350D01*
X130001990Y-66475804D01*
X130001989Y-66475800D01*
X129990140Y-66444031D01*
X129985076Y-66373215D01*
X129990138Y-66355972D01*
X130001989Y-66324201D01*
X130002031Y-66323816D01*
X130008499Y-66263649D01*
X130008500Y-66263632D01*
X130008500Y-65266367D01*
X130008499Y-65266350D01*
X130001990Y-65205803D01*
X130001989Y-65205801D01*
X130001989Y-65205799D01*
X129990140Y-65174033D01*
X129985074Y-65103221D01*
X129990137Y-65085974D01*
X130001989Y-65054201D01*
X130002337Y-65050970D01*
X130008499Y-64993649D01*
X130008500Y-64993632D01*
X130008500Y-63996367D01*
X130008499Y-63996350D01*
X130001990Y-63935803D01*
X130001988Y-63935795D01*
X129950889Y-63798797D01*
X129950887Y-63798792D01*
X129863261Y-63681738D01*
X129746207Y-63594112D01*
X129746204Y-63594111D01*
X129662136Y-63562754D01*
X129605301Y-63520206D01*
X129580491Y-63453686D01*
X129595583Y-63384312D01*
X129617068Y-63355611D01*
X131277278Y-61695402D01*
X131339588Y-61661379D01*
X131366371Y-61658500D01*
X132200305Y-61658500D01*
X132268426Y-61678502D01*
G37*
G04 #@! TD.AperFunction*
G04 #@! TA.AperFunction,Conductor*
G36*
X143602422Y-60579434D02*
G01*
X143607908Y-60585764D01*
X143691280Y-60688720D01*
X143691282Y-60688722D01*
X143843771Y-60812206D01*
X143843777Y-60812209D01*
X143843779Y-60812211D01*
X143952702Y-60867710D01*
X144004318Y-60916458D01*
X144021500Y-60979977D01*
X144021500Y-61901909D01*
X144001498Y-61970030D01*
X143947842Y-62016523D01*
X143877568Y-62026627D01*
X143851468Y-62019965D01*
X143779200Y-61993010D01*
X143779196Y-61993009D01*
X143718649Y-61986500D01*
X143718638Y-61986500D01*
X142721362Y-61986500D01*
X142721350Y-61986500D01*
X142660804Y-61993009D01*
X142660801Y-61993010D01*
X142629030Y-62004860D01*
X142558214Y-62009923D01*
X142540970Y-62004860D01*
X142509201Y-61993011D01*
X142509200Y-61993010D01*
X142509198Y-61993010D01*
X142509195Y-61993009D01*
X142448649Y-61986500D01*
X142448638Y-61986500D01*
X141451362Y-61986500D01*
X141451350Y-61986500D01*
X141390804Y-61993009D01*
X141390801Y-61993010D01*
X141359030Y-62004860D01*
X141288214Y-62009923D01*
X141270970Y-62004860D01*
X141239201Y-61993011D01*
X141239200Y-61993010D01*
X141239198Y-61993010D01*
X141239195Y-61993009D01*
X141178649Y-61986500D01*
X141178638Y-61986500D01*
X140990371Y-61986500D01*
X140922250Y-61966498D01*
X140875757Y-61912842D01*
X140865653Y-61842568D01*
X140895147Y-61777988D01*
X140901264Y-61771416D01*
X141677278Y-60995401D01*
X141739587Y-60961379D01*
X141766360Y-60958499D01*
X142730336Y-60958499D01*
X142730339Y-60958499D01*
X142779235Y-60954651D01*
X142811836Y-60952086D01*
X143001379Y-60901298D01*
X143176221Y-60812211D01*
X143176225Y-60812207D01*
X143176228Y-60812206D01*
X143269080Y-60737015D01*
X143328720Y-60688720D01*
X143412080Y-60585777D01*
X143470493Y-60545427D01*
X143541451Y-60543061D01*
X143602422Y-60579434D01*
G37*
G04 #@! TD.AperFunction*
G04 #@! TA.AperFunction,Conductor*
G36*
X130242733Y-57322549D02*
G01*
X130244530Y-57324057D01*
X130244531Y-57324058D01*
X130276604Y-57350970D01*
X130284976Y-57357995D01*
X130289010Y-57361691D01*
X130294899Y-57367580D01*
X130320896Y-57388136D01*
X130380360Y-57438032D01*
X130380366Y-57438035D01*
X130386495Y-57442067D01*
X130386457Y-57442123D01*
X130392813Y-57446172D01*
X130392849Y-57446115D01*
X130399089Y-57449963D01*
X130399094Y-57449967D01*
X130469453Y-57482775D01*
X130538812Y-57517609D01*
X130538819Y-57517610D01*
X130545707Y-57520118D01*
X130545684Y-57520180D01*
X130552810Y-57522657D01*
X130552831Y-57522595D01*
X130559787Y-57524900D01*
X130559790Y-57524900D01*
X130559793Y-57524902D01*
X130585160Y-57530139D01*
X130647827Y-57563501D01*
X130666922Y-57587389D01*
X130750970Y-57723652D01*
X130750975Y-57723658D01*
X130876341Y-57849024D01*
X130876347Y-57849029D01*
X130876348Y-57849030D01*
X131027262Y-57942115D01*
X131195574Y-57997887D01*
X131299455Y-58008500D01*
X131614629Y-58008499D01*
X131682748Y-58028501D01*
X131729241Y-58082156D01*
X131739346Y-58152430D01*
X131709853Y-58217011D01*
X131703723Y-58223594D01*
X129089451Y-60837864D01*
X129089443Y-60837875D01*
X127973594Y-61953724D01*
X127911282Y-61987750D01*
X127840467Y-61982685D01*
X127783631Y-61940138D01*
X127758820Y-61873618D01*
X127758499Y-61864629D01*
X127758499Y-60688720D01*
X127758499Y-59421215D01*
X127778501Y-59353098D01*
X127818349Y-59313981D01*
X127923652Y-59249030D01*
X127923651Y-59249030D01*
X127929899Y-59245177D01*
X127930903Y-59246804D01*
X127987676Y-59223894D01*
X128057426Y-59237137D01*
X128070055Y-59245253D01*
X128070102Y-59245177D01*
X128076346Y-59249028D01*
X128076348Y-59249030D01*
X128227262Y-59342115D01*
X128395574Y-59397887D01*
X128499455Y-59408500D01*
X129500544Y-59408499D01*
X129604426Y-59397887D01*
X129772738Y-59342115D01*
X129923652Y-59249030D01*
X130049030Y-59123652D01*
X130142115Y-58972738D01*
X130197887Y-58804426D01*
X130208500Y-58700545D01*
X130208499Y-57899456D01*
X130197887Y-57795574D01*
X130142115Y-57627262D01*
X130054500Y-57485217D01*
X130035764Y-57416738D01*
X130057023Y-57349000D01*
X130111531Y-57303508D01*
X130181980Y-57294707D01*
X130242733Y-57322549D01*
G37*
G04 #@! TD.AperFunction*
G04 #@! TA.AperFunction,Conductor*
G36*
X135561750Y-59078502D02*
G01*
X135582724Y-59095405D01*
X135764595Y-59277276D01*
X135798621Y-59339588D01*
X135801500Y-59366371D01*
X135801500Y-59694741D01*
X135801501Y-60015500D01*
X135781499Y-60083621D01*
X135727843Y-60130114D01*
X135675501Y-60141500D01*
X132235371Y-60141500D01*
X132167250Y-60121498D01*
X132120757Y-60067842D01*
X132110653Y-59997568D01*
X132140147Y-59932988D01*
X132146276Y-59926405D01*
X132977276Y-59095405D01*
X133039588Y-59061379D01*
X133066371Y-59058500D01*
X135493629Y-59058500D01*
X135561750Y-59078502D01*
G37*
G04 #@! TD.AperFunction*
M02*
