G04 #@! TF.GenerationSoftware,KiCad,Pcbnew,7.0.6*
G04 #@! TF.CreationDate,2023-08-15T03:17:02+01:00*
G04 #@! TF.ProjectId,GalaxyModPCB,47616c61-7879-44d6-9f64-5043422e6b69,rev?*
G04 #@! TF.SameCoordinates,Original*
G04 #@! TF.FileFunction,Copper,L2,Inr*
G04 #@! TF.FilePolarity,Positive*
%FSLAX46Y46*%
G04 Gerber Fmt 4.6, Leading zero omitted, Abs format (unit mm)*
G04 Created by KiCad (PCBNEW 7.0.6) date 2023-08-15 03:17:02*
%MOMM*%
%LPD*%
G01*
G04 APERTURE LIST*
G04 #@! TA.AperFunction,ComponentPad*
%ADD10R,1.000000X1.000000*%
G04 #@! TD*
G04 #@! TA.AperFunction,ComponentPad*
%ADD11O,1.000000X1.000000*%
G04 #@! TD*
G04 #@! TA.AperFunction,ComponentPad*
%ADD12R,1.700000X1.700000*%
G04 #@! TD*
G04 #@! TA.AperFunction,ComponentPad*
%ADD13O,1.700000X1.700000*%
G04 #@! TD*
G04 #@! TA.AperFunction,ViaPad*
%ADD14C,1.000000*%
G04 #@! TD*
G04 APERTURE END LIST*
D10*
X130460000Y-60400000D03*
D11*
X131730000Y-60400000D03*
X133000000Y-60400000D03*
X134270000Y-60400000D03*
X135540000Y-60400000D03*
D12*
X112500000Y-68500000D03*
D13*
X115040000Y-68500000D03*
D12*
X148725000Y-53000000D03*
D13*
X151265000Y-53000000D03*
D10*
X155500000Y-87600000D03*
D11*
X154230000Y-87600000D03*
X152960000Y-87600000D03*
D12*
X171575000Y-64500000D03*
D13*
X169035000Y-64500000D03*
X166495000Y-64500000D03*
X163955000Y-64500000D03*
X161415000Y-64500000D03*
D12*
X135275000Y-53000000D03*
D13*
X132735000Y-53000000D03*
D14*
X115350000Y-61850000D03*
X115300000Y-64100000D03*
X121500000Y-55000000D03*
X122800000Y-81900000D03*
X126500000Y-71500000D03*
X165700000Y-68200000D03*
X112000000Y-54500000D03*
X153600000Y-55400000D03*
X116350000Y-70600000D03*
X143900000Y-81600000D03*
X143000000Y-73000000D03*
X122800000Y-87600000D03*
X126100000Y-81600000D03*
X125500000Y-67800000D03*
X159000000Y-69000000D03*
X143000000Y-75900000D03*
X137250000Y-81600000D03*
X171500000Y-55500000D03*
X153600000Y-51800000D03*
X162500000Y-62500000D03*
X133500000Y-77400000D03*
X150000000Y-64600000D03*
X130000000Y-53000000D03*
X133925000Y-81600000D03*
X157500000Y-85300000D03*
X140575000Y-81600000D03*
X131100000Y-57800000D03*
X151500000Y-55400000D03*
X132800000Y-56400000D03*
X117800000Y-69500000D03*
X150000000Y-61300000D03*
X152000000Y-77000000D03*
X157800000Y-63900000D03*
X150000000Y-59500000D03*
X111050000Y-70250000D03*
X151000000Y-73500000D03*
X119000000Y-68500000D03*
X157500000Y-74000000D03*
X157000000Y-79000000D03*
X141500000Y-61500000D03*
X161000000Y-52500000D03*
X157900000Y-51800000D03*
X150700000Y-80200000D03*
X120150000Y-67500000D03*
X120050000Y-72750000D03*
X146850000Y-54700000D03*
X130500000Y-64500000D03*
X152000000Y-85300000D03*
X118200000Y-52500000D03*
X162500000Y-60500000D03*
X122800000Y-84800000D03*
X137050000Y-54900000D03*
X130600000Y-78300000D03*
X168500000Y-62500000D03*
X111050000Y-52200000D03*
X151200000Y-69000000D03*
X130600000Y-81600000D03*
X142950000Y-69900000D03*
X172550000Y-62350000D03*
X126828602Y-52328602D03*
X117000000Y-55000000D03*
X144500000Y-65500000D03*
X142500000Y-65500000D03*
X140500000Y-65500000D03*
X138500000Y-65500000D03*
X163000000Y-68857500D03*
X162000000Y-69806167D03*
X161043565Y-70799232D03*
X158500000Y-79000000D03*
G04 #@! TA.AperFunction,Conductor*
G36*
X136941621Y-51020502D02*
G01*
X136988114Y-51074158D01*
X136999500Y-51126500D01*
X136999500Y-51218326D01*
X137020674Y-51460355D01*
X137024506Y-51545683D01*
X137029559Y-51561915D01*
X137037556Y-51653314D01*
X137082236Y-51906707D01*
X137092905Y-51985468D01*
X137098545Y-51999200D01*
X137113381Y-52083337D01*
X137179100Y-52328605D01*
X137183992Y-52346860D01*
X137200109Y-52417473D01*
X137205918Y-52428694D01*
X137226396Y-52505116D01*
X137325460Y-52777293D01*
X137345259Y-52838229D01*
X137350838Y-52847018D01*
X137375740Y-52915434D01*
X137505932Y-53194632D01*
X137527219Y-53244435D01*
X137532169Y-53250899D01*
X137560276Y-53311172D01*
X137560277Y-53311174D01*
X137578064Y-53341982D01*
X137724554Y-53595711D01*
X137744550Y-53632870D01*
X137748496Y-53637180D01*
X137778598Y-53689319D01*
X137778598Y-53689318D01*
X137778603Y-53689326D01*
X137980266Y-53977331D01*
X137995542Y-54000473D01*
X137998125Y-54002837D01*
X138004610Y-54012098D01*
X138029057Y-54047012D01*
X138271996Y-54336536D01*
X138278196Y-54344310D01*
X138279100Y-54345001D01*
X138309732Y-54381507D01*
X138618493Y-54690268D01*
X138952988Y-54970943D01*
X139310674Y-55221397D01*
X139310678Y-55221399D01*
X139310682Y-55221402D01*
X139501314Y-55331463D01*
X139688826Y-55439723D01*
X139688828Y-55439724D01*
X139688827Y-55439724D01*
X139884754Y-55531086D01*
X140084568Y-55624261D01*
X140206213Y-55668536D01*
X140494884Y-55773604D01*
X140494883Y-55773604D01*
X140916663Y-55886619D01*
X141346686Y-55962444D01*
X141346686Y-55962443D01*
X141781673Y-56000500D01*
X141781674Y-56000500D01*
X142218326Y-56000500D01*
X142218327Y-56000500D01*
X142653314Y-55962443D01*
X142653314Y-55962444D01*
X143083337Y-55886619D01*
X143505117Y-55773604D01*
X143505116Y-55773604D01*
X143793787Y-55668536D01*
X143915432Y-55624261D01*
X144061110Y-55556330D01*
X157745710Y-55556330D01*
X157754912Y-55624260D01*
X157775925Y-55779390D01*
X157845484Y-55993467D01*
X157952144Y-56191675D01*
X157952148Y-56191682D01*
X158024833Y-56282825D01*
X158092492Y-56367666D01*
X158262004Y-56515765D01*
X158455236Y-56631215D01*
X158665976Y-56710307D01*
X158665978Y-56710307D01*
X158665980Y-56710308D01*
X158796709Y-56734032D01*
X158887453Y-56750500D01*
X158887454Y-56750500D01*
X159056149Y-56750500D01*
X159056155Y-56750500D01*
X159213759Y-56736315D01*
X159224189Y-56735377D01*
X159224189Y-56735376D01*
X159399507Y-56686991D01*
X159441167Y-56675494D01*
X159441167Y-56675493D01*
X159441170Y-56675493D01*
X159643973Y-56577829D01*
X159826078Y-56445522D01*
X159981632Y-56282825D01*
X160105635Y-56094968D01*
X160194103Y-55887988D01*
X160244191Y-55668537D01*
X160254290Y-55443670D01*
X160224075Y-55220613D01*
X160223654Y-55219318D01*
X160194438Y-55129399D01*
X160154517Y-55006536D01*
X160152596Y-55002966D01*
X160047855Y-54808324D01*
X160047851Y-54808317D01*
X159953705Y-54690263D01*
X159907508Y-54632334D01*
X159905151Y-54630275D01*
X159796597Y-54535433D01*
X161052500Y-54535433D01*
X161058903Y-54547333D01*
X161060187Y-54549853D01*
X161076264Y-54583240D01*
X161077434Y-54585817D01*
X161096434Y-54630275D01*
X161097486Y-54632898D01*
X161110487Y-54667544D01*
X161111420Y-54670211D01*
X161195918Y-54930264D01*
X161196732Y-54932973D01*
X161206585Y-54968678D01*
X161207276Y-54971420D01*
X161218034Y-55018557D01*
X161218601Y-55021327D01*
X161225212Y-55057757D01*
X161225654Y-55060549D01*
X161260595Y-55318500D01*
X162578500Y-55318500D01*
X162578500Y-53792500D01*
X163592500Y-53792500D01*
X163592500Y-55318500D01*
X165118500Y-55318500D01*
X165118500Y-53792500D01*
X166132500Y-53792500D01*
X166132500Y-55318500D01*
X167658500Y-55318500D01*
X167658500Y-53792500D01*
X168672500Y-53792500D01*
X168672500Y-55318500D01*
X170118562Y-55318500D01*
X170122950Y-55268341D01*
X170126764Y-55246711D01*
X170184098Y-55032737D01*
X170191610Y-55012099D01*
X170198500Y-54997323D01*
X170198500Y-53792500D01*
X171212500Y-53792500D01*
X171212500Y-54135930D01*
X171246711Y-54126764D01*
X171268340Y-54122950D01*
X171489018Y-54103643D01*
X171510982Y-54103643D01*
X171731660Y-54122950D01*
X171753289Y-54126764D01*
X171967263Y-54184098D01*
X171987902Y-54191610D01*
X172188668Y-54285229D01*
X172207688Y-54296211D01*
X172389148Y-54423270D01*
X172405973Y-54437388D01*
X172485500Y-54516915D01*
X172485500Y-53792500D01*
X171212500Y-53792500D01*
X170198500Y-53792500D01*
X168672500Y-53792500D01*
X167658500Y-53792500D01*
X166132500Y-53792500D01*
X165118500Y-53792500D01*
X163592500Y-53792500D01*
X162578500Y-53792500D01*
X161521978Y-53792500D01*
X161487902Y-53808390D01*
X161467263Y-53815902D01*
X161253289Y-53873236D01*
X161231660Y-53877050D01*
X161052500Y-53892724D01*
X161052500Y-54535433D01*
X159796597Y-54535433D01*
X159749204Y-54494027D01*
X159737996Y-54484235D01*
X159544764Y-54368785D01*
X159363856Y-54300889D01*
X159334019Y-54289691D01*
X159144091Y-54255224D01*
X159112547Y-54249500D01*
X158943845Y-54249500D01*
X158912558Y-54252315D01*
X158775810Y-54264622D01*
X158775810Y-54264623D01*
X158558832Y-54324505D01*
X158356031Y-54422168D01*
X158356023Y-54422173D01*
X158173921Y-54554478D01*
X158173920Y-54554479D01*
X158018369Y-54717172D01*
X157894367Y-54905027D01*
X157894363Y-54905035D01*
X157805897Y-55112011D01*
X157805896Y-55112013D01*
X157755809Y-55331461D01*
X157755809Y-55331463D01*
X157750770Y-55443673D01*
X157745710Y-55556330D01*
X144061110Y-55556330D01*
X144115246Y-55531086D01*
X144311173Y-55439724D01*
X144311172Y-55439724D01*
X144311174Y-55439723D01*
X144498686Y-55331463D01*
X144689318Y-55221402D01*
X144689321Y-55221399D01*
X144689326Y-55221397D01*
X145047012Y-54970943D01*
X145381507Y-54690268D01*
X145690264Y-54381511D01*
X145690263Y-54381513D01*
X145700764Y-54368998D01*
X145720898Y-54345002D01*
X145721645Y-54344505D01*
X145727949Y-54336600D01*
X145970943Y-54047012D01*
X146001873Y-54002839D01*
X146004035Y-54001110D01*
X146019699Y-53977380D01*
X146074827Y-53898649D01*
X147366500Y-53898649D01*
X147373009Y-53959196D01*
X147373011Y-53959204D01*
X147424110Y-54096202D01*
X147424112Y-54096207D01*
X147511738Y-54213261D01*
X147628792Y-54300887D01*
X147628794Y-54300888D01*
X147628796Y-54300889D01*
X147648907Y-54308390D01*
X147765795Y-54351988D01*
X147765803Y-54351990D01*
X147826350Y-54358499D01*
X147826355Y-54358499D01*
X147826362Y-54358500D01*
X147826368Y-54358500D01*
X149623632Y-54358500D01*
X149623638Y-54358500D01*
X149623645Y-54358499D01*
X149623649Y-54358499D01*
X149684196Y-54351990D01*
X149684199Y-54351989D01*
X149684201Y-54351989D01*
X149821204Y-54300889D01*
X149842124Y-54285229D01*
X149938261Y-54213261D01*
X150025886Y-54096208D01*
X150025885Y-54096208D01*
X150025889Y-54096204D01*
X150069999Y-53977939D01*
X150112545Y-53921107D01*
X150179066Y-53896296D01*
X150248440Y-53911388D01*
X150280753Y-53936635D01*
X150341699Y-54002840D01*
X150341762Y-54002908D01*
X150360299Y-54017336D01*
X150519424Y-54141189D01*
X150717426Y-54248342D01*
X150717427Y-54248342D01*
X150717428Y-54248343D01*
X150819640Y-54283432D01*
X150930365Y-54321444D01*
X151152431Y-54358500D01*
X151152435Y-54358500D01*
X151377565Y-54358500D01*
X151377569Y-54358500D01*
X151599635Y-54321444D01*
X151812574Y-54248342D01*
X152010576Y-54141189D01*
X152169701Y-54017336D01*
X153432500Y-54017336D01*
X153589018Y-54003643D01*
X153610982Y-54003643D01*
X153831660Y-54022950D01*
X153853289Y-54026764D01*
X154067263Y-54084098D01*
X154087902Y-54091610D01*
X154288668Y-54185229D01*
X154307688Y-54196211D01*
X154489148Y-54323270D01*
X154505973Y-54337388D01*
X154662612Y-54494027D01*
X154676730Y-54510852D01*
X154803789Y-54692312D01*
X154814771Y-54711332D01*
X154908390Y-54912098D01*
X154915902Y-54932737D01*
X154958500Y-55091715D01*
X154958500Y-53792500D01*
X155972500Y-53792500D01*
X155972500Y-55318500D01*
X156741370Y-55318500D01*
X156743915Y-55261822D01*
X156744105Y-55259002D01*
X156747424Y-55222127D01*
X156747740Y-55219318D01*
X156754229Y-55171407D01*
X156754671Y-55168613D01*
X156761284Y-55132170D01*
X156761851Y-55129399D01*
X156822701Y-54862799D01*
X156823392Y-54860055D01*
X156833251Y-54824338D01*
X156834064Y-54821630D01*
X156849007Y-54775647D01*
X156849941Y-54772979D01*
X156862947Y-54738327D01*
X156863999Y-54735704D01*
X156971463Y-54484280D01*
X156972632Y-54481706D01*
X156988694Y-54448353D01*
X156989977Y-54445835D01*
X157012887Y-54403259D01*
X157014282Y-54400799D01*
X157033282Y-54368998D01*
X157034787Y-54366603D01*
X157185422Y-54138401D01*
X157187031Y-54136079D01*
X157208783Y-54106138D01*
X157210494Y-54103889D01*
X157240638Y-54066086D01*
X157242451Y-54063913D01*
X157266831Y-54036008D01*
X157268739Y-54033919D01*
X157457717Y-53836265D01*
X157459715Y-53834266D01*
X157486488Y-53808668D01*
X157488577Y-53806758D01*
X157498500Y-53798089D01*
X157498500Y-53792500D01*
X155972500Y-53792500D01*
X154958500Y-53792500D01*
X153506270Y-53792500D01*
X153505708Y-53794136D01*
X153492360Y-53828346D01*
X153432500Y-53964814D01*
X153432500Y-54017336D01*
X152169701Y-54017336D01*
X152188240Y-54002906D01*
X152340722Y-53837268D01*
X152463860Y-53648791D01*
X152554296Y-53442616D01*
X152609564Y-53224368D01*
X152628156Y-53000000D01*
X152609564Y-52775632D01*
X152554296Y-52557384D01*
X152463860Y-52351209D01*
X152446500Y-52324637D01*
X152340724Y-52162734D01*
X152340720Y-52162729D01*
X152222965Y-52034815D01*
X155972500Y-52034815D01*
X155972500Y-52778500D01*
X156909915Y-52778500D01*
X156837388Y-52705973D01*
X156823270Y-52689148D01*
X156696211Y-52507688D01*
X156685229Y-52488668D01*
X156591610Y-52287902D01*
X156584098Y-52267263D01*
X156526764Y-52053289D01*
X156526549Y-52052068D01*
X163592500Y-52052068D01*
X163592500Y-52778500D01*
X165118500Y-52778500D01*
X165118500Y-52057819D01*
X166132500Y-52057819D01*
X166132500Y-52778500D01*
X167658500Y-52778500D01*
X167658500Y-52063570D01*
X168672500Y-52063570D01*
X168672500Y-52778500D01*
X170198500Y-52778500D01*
X170198500Y-52069321D01*
X171212500Y-52069321D01*
X171212500Y-52778500D01*
X172485500Y-52778500D01*
X172485500Y-52072204D01*
X171212500Y-52069321D01*
X170198500Y-52069321D01*
X170198500Y-52067025D01*
X168672500Y-52063570D01*
X167658500Y-52063570D01*
X167658500Y-52061274D01*
X166132500Y-52057819D01*
X165118500Y-52057819D01*
X165118500Y-52055523D01*
X163592500Y-52052068D01*
X156526549Y-52052068D01*
X156523726Y-52036064D01*
X155972500Y-52034815D01*
X152222965Y-52034815D01*
X152211220Y-52022057D01*
X152188240Y-51997094D01*
X152188239Y-51997093D01*
X152188237Y-51997091D01*
X152068372Y-51903796D01*
X152010576Y-51858811D01*
X151812574Y-51751658D01*
X151812572Y-51751657D01*
X151812571Y-51751656D01*
X151599639Y-51678557D01*
X151599630Y-51678555D01*
X151555476Y-51671187D01*
X151377569Y-51641500D01*
X151152431Y-51641500D01*
X151004211Y-51666233D01*
X150930369Y-51678555D01*
X150930360Y-51678557D01*
X150717428Y-51751656D01*
X150717426Y-51751658D01*
X150519426Y-51858810D01*
X150519424Y-51858811D01*
X150341762Y-51997091D01*
X150280754Y-52063363D01*
X150219901Y-52099933D01*
X150148936Y-52097798D01*
X150090391Y-52057636D01*
X150069999Y-52022057D01*
X150026989Y-51906746D01*
X150025889Y-51903796D01*
X150025888Y-51903794D01*
X150025887Y-51903792D01*
X149938261Y-51786738D01*
X149821207Y-51699112D01*
X149821202Y-51699110D01*
X149684204Y-51648011D01*
X149684196Y-51648009D01*
X149623649Y-51641500D01*
X149623638Y-51641500D01*
X147826362Y-51641500D01*
X147826350Y-51641500D01*
X147765803Y-51648009D01*
X147765795Y-51648011D01*
X147628797Y-51699110D01*
X147628792Y-51699112D01*
X147511738Y-51786738D01*
X147424112Y-51903792D01*
X147424110Y-51903797D01*
X147373011Y-52040795D01*
X147373009Y-52040803D01*
X147366500Y-52101350D01*
X147366500Y-53898649D01*
X146074827Y-53898649D01*
X146221397Y-53689326D01*
X146251501Y-53637183D01*
X146254840Y-53633999D01*
X146275433Y-53595732D01*
X146275446Y-53595711D01*
X146439723Y-53311174D01*
X146467830Y-53250899D01*
X146472079Y-53246072D01*
X146494046Y-53194676D01*
X146624261Y-52915432D01*
X146649161Y-52847018D01*
X146654032Y-52840402D01*
X146674521Y-52777342D01*
X146765895Y-52526296D01*
X146773603Y-52505118D01*
X146778011Y-52488668D01*
X146794079Y-52428699D01*
X146799272Y-52420179D01*
X146815993Y-52346914D01*
X146886619Y-52083337D01*
X146901453Y-51999208D01*
X146906652Y-51988716D01*
X146917753Y-51906765D01*
X146954368Y-51699112D01*
X146962444Y-51653314D01*
X146962443Y-51653315D01*
X146970429Y-51562035D01*
X146975318Y-51549536D01*
X146979321Y-51460397D01*
X147000500Y-51218327D01*
X147000500Y-51126785D01*
X147020502Y-51058665D01*
X147074158Y-51012172D01*
X147126780Y-51000786D01*
X173373786Y-51060213D01*
X173441861Y-51080370D01*
X173488232Y-51134130D01*
X173499500Y-51186213D01*
X173499500Y-66173500D01*
X173479498Y-66241621D01*
X173425842Y-66288114D01*
X173373500Y-66299500D01*
X169694750Y-66299500D01*
X169690849Y-66299226D01*
X169690064Y-66299404D01*
X169689616Y-66299616D01*
X169688796Y-66299958D01*
X169685984Y-66302384D01*
X159542158Y-73910254D01*
X159534663Y-73914555D01*
X159529489Y-73919744D01*
X159528411Y-73927399D01*
X159529500Y-73936002D01*
X159529500Y-78312594D01*
X159509498Y-78380715D01*
X159455842Y-78427208D01*
X159385568Y-78437312D01*
X159320988Y-78407818D01*
X159306101Y-78392528D01*
X159296406Y-78380715D01*
X159216568Y-78283432D01*
X159063004Y-78157405D01*
X158887804Y-78063759D01*
X158697701Y-78006092D01*
X158697700Y-78006091D01*
X158697694Y-78006090D01*
X158500003Y-77986620D01*
X158499997Y-77986620D01*
X158302305Y-78006090D01*
X158112195Y-78063759D01*
X157936995Y-78157405D01*
X157783432Y-78283432D01*
X157657405Y-78436995D01*
X157563759Y-78612195D01*
X157506090Y-78802305D01*
X157486620Y-78999996D01*
X157486620Y-79000003D01*
X157506090Y-79197694D01*
X157506091Y-79197700D01*
X157506092Y-79197701D01*
X157563759Y-79387804D01*
X157657405Y-79563004D01*
X157783432Y-79716568D01*
X157936996Y-79842595D01*
X158112196Y-79936241D01*
X158302299Y-79993908D01*
X158302303Y-79993908D01*
X158302305Y-79993909D01*
X158499997Y-80013380D01*
X158500000Y-80013380D01*
X158500003Y-80013380D01*
X158697694Y-79993909D01*
X158697695Y-79993908D01*
X158697701Y-79993908D01*
X158887804Y-79936241D01*
X159063004Y-79842595D01*
X159216568Y-79716568D01*
X159306102Y-79607470D01*
X159364777Y-79567503D01*
X159435749Y-79565602D01*
X159496481Y-79602373D01*
X159527693Y-79666141D01*
X159529500Y-79687405D01*
X159529500Y-89033500D01*
X159509498Y-89101621D01*
X159455842Y-89148114D01*
X159403500Y-89159500D01*
X151626000Y-89159500D01*
X151557879Y-89139498D01*
X151511386Y-89085842D01*
X151500000Y-89033500D01*
X151500000Y-87600003D01*
X151946620Y-87600003D01*
X151966090Y-87797694D01*
X151966091Y-87797700D01*
X151966092Y-87797701D01*
X152023759Y-87987804D01*
X152117405Y-88163004D01*
X152243432Y-88316568D01*
X152396996Y-88442595D01*
X152572196Y-88536241D01*
X152762299Y-88593908D01*
X152762303Y-88593908D01*
X152762305Y-88593909D01*
X152959997Y-88613380D01*
X152960000Y-88613380D01*
X152960003Y-88613380D01*
X153157694Y-88593909D01*
X153157695Y-88593908D01*
X153157701Y-88593908D01*
X153347804Y-88536241D01*
X153523004Y-88442595D01*
X153523017Y-88442584D01*
X153524993Y-88441265D01*
X153526198Y-88440887D01*
X153528463Y-88439677D01*
X153528692Y-88440106D01*
X153592744Y-88420047D01*
X153661212Y-88438827D01*
X153665007Y-88441265D01*
X153666987Y-88442587D01*
X153666996Y-88442595D01*
X153842196Y-88536241D01*
X154032299Y-88593908D01*
X154032303Y-88593908D01*
X154032305Y-88593909D01*
X154229997Y-88613380D01*
X154230000Y-88613380D01*
X154230003Y-88613380D01*
X154427694Y-88593909D01*
X154427695Y-88593908D01*
X154427701Y-88593908D01*
X154617804Y-88536241D01*
X154793004Y-88442595D01*
X154946568Y-88316568D01*
X155072595Y-88163004D01*
X155166241Y-87987804D01*
X155223908Y-87797701D01*
X155243380Y-87600000D01*
X155223908Y-87402299D01*
X155166241Y-87212196D01*
X155072595Y-87036996D01*
X154946568Y-86883432D01*
X154860137Y-86812500D01*
X156515146Y-86812500D01*
X156530216Y-86841014D01*
X156576015Y-86971900D01*
X156582536Y-87001751D01*
X156585725Y-87035759D01*
X156586000Y-87041644D01*
X156586000Y-88145500D01*
X157498500Y-88145500D01*
X157498500Y-86812500D01*
X156515146Y-86812500D01*
X154860137Y-86812500D01*
X154793004Y-86757405D01*
X154617804Y-86663759D01*
X154427701Y-86606092D01*
X154427700Y-86606091D01*
X154427694Y-86606090D01*
X154230003Y-86586620D01*
X154229997Y-86586620D01*
X154032305Y-86606090D01*
X153842195Y-86663759D01*
X153666991Y-86757407D01*
X153664997Y-86758740D01*
X153663793Y-86759116D01*
X153661537Y-86760323D01*
X153661308Y-86759894D01*
X153597243Y-86779952D01*
X153528777Y-86761166D01*
X153525003Y-86758740D01*
X153523008Y-86757407D01*
X153347804Y-86663759D01*
X153157694Y-86606090D01*
X152960003Y-86586620D01*
X152959997Y-86586620D01*
X152762305Y-86606090D01*
X152572195Y-86663759D01*
X152396995Y-86757405D01*
X152243432Y-86883432D01*
X152117405Y-87036995D01*
X152023759Y-87212195D01*
X151966090Y-87402305D01*
X151946620Y-87599996D01*
X151946620Y-87600003D01*
X151500000Y-87600003D01*
X151500000Y-84272500D01*
X153432500Y-84272500D01*
X153432500Y-85629824D01*
X153595000Y-85679117D01*
X153763245Y-85628082D01*
X153766224Y-85627257D01*
X153805487Y-85617421D01*
X153808502Y-85616744D01*
X153860369Y-85606424D01*
X153863419Y-85605894D01*
X153903513Y-85599946D01*
X153906583Y-85599567D01*
X154156927Y-85574911D01*
X154160010Y-85574684D01*
X154200465Y-85572696D01*
X154203557Y-85572620D01*
X154256443Y-85572620D01*
X154259535Y-85572696D01*
X154299990Y-85574684D01*
X154303073Y-85574911D01*
X154553417Y-85599567D01*
X154556487Y-85599946D01*
X154596581Y-85605894D01*
X154599631Y-85606424D01*
X154651498Y-85616744D01*
X154654513Y-85617421D01*
X154693776Y-85627257D01*
X154696756Y-85628082D01*
X154937456Y-85701097D01*
X154940392Y-85702067D01*
X154958500Y-85708545D01*
X154958500Y-84272500D01*
X155972500Y-84272500D01*
X155972500Y-85798500D01*
X156196552Y-85798500D01*
X156191610Y-85787902D01*
X156184098Y-85767263D01*
X156126764Y-85553289D01*
X156122950Y-85531660D01*
X156103643Y-85310982D01*
X156103643Y-85289018D01*
X156122950Y-85068340D01*
X156126764Y-85046711D01*
X156184098Y-84832737D01*
X156191610Y-84812098D01*
X156285229Y-84611332D01*
X156296211Y-84592312D01*
X156423270Y-84410852D01*
X156437388Y-84394027D01*
X156558915Y-84272500D01*
X155972500Y-84272500D01*
X154958500Y-84272500D01*
X153432500Y-84272500D01*
X151500000Y-84272500D01*
X151500000Y-82500000D01*
X123500000Y-82500000D01*
X123500000Y-89033500D01*
X123479998Y-89101621D01*
X123426342Y-89148114D01*
X123374000Y-89159500D01*
X121625070Y-89159500D01*
X121556949Y-89139498D01*
X121510456Y-89085842D01*
X121499078Y-89034932D01*
X121494066Y-88593909D01*
X121430500Y-82999983D01*
X121430500Y-81732500D01*
X153432500Y-81732500D01*
X153432500Y-83258500D01*
X154958500Y-83258500D01*
X154958500Y-81732500D01*
X155972500Y-81732500D01*
X155972500Y-83258500D01*
X157498500Y-83258500D01*
X157498500Y-81732500D01*
X155972500Y-81732500D01*
X154958500Y-81732500D01*
X153432500Y-81732500D01*
X121430500Y-81732500D01*
X121430500Y-80516025D01*
X122952499Y-80516025D01*
X123031660Y-80522951D01*
X123053289Y-80526764D01*
X123267263Y-80584098D01*
X123287902Y-80591610D01*
X123488668Y-80685229D01*
X123507688Y-80696210D01*
X123539522Y-80718500D01*
X124478500Y-80718500D01*
X124478500Y-80347379D01*
X125492499Y-80347379D01*
X125612098Y-80291610D01*
X125632737Y-80284098D01*
X125846711Y-80226764D01*
X125868340Y-80222950D01*
X126089018Y-80203643D01*
X126110982Y-80203643D01*
X126331660Y-80222950D01*
X126353289Y-80226764D01*
X126567263Y-80284098D01*
X126587902Y-80291610D01*
X126788668Y-80385229D01*
X126807688Y-80396211D01*
X126989148Y-80523270D01*
X127005973Y-80537388D01*
X127018500Y-80549914D01*
X127018500Y-79192500D01*
X128032500Y-79192500D01*
X128032500Y-80718500D01*
X129517915Y-80718500D01*
X129523270Y-80710852D01*
X129537388Y-80694027D01*
X129558499Y-80672915D01*
X129558499Y-80205088D01*
X130572499Y-80205088D01*
X130589019Y-80203643D01*
X130610982Y-80203643D01*
X130831660Y-80222950D01*
X130853289Y-80226764D01*
X131067263Y-80284098D01*
X131087902Y-80291610D01*
X131288668Y-80385229D01*
X131307688Y-80396211D01*
X131489148Y-80523270D01*
X131505973Y-80537388D01*
X131662612Y-80694027D01*
X131676730Y-80710852D01*
X131682085Y-80718500D01*
X132098500Y-80718500D01*
X132098500Y-80469601D01*
X133112499Y-80469601D01*
X133217312Y-80396211D01*
X133236332Y-80385229D01*
X133437098Y-80291610D01*
X133457737Y-80284098D01*
X133671711Y-80226764D01*
X133693340Y-80222950D01*
X133914018Y-80203643D01*
X133935982Y-80203643D01*
X134156660Y-80222950D01*
X134178289Y-80226764D01*
X134392263Y-80284098D01*
X134412902Y-80291610D01*
X134613668Y-80385229D01*
X134632688Y-80396211D01*
X134638500Y-80400280D01*
X134638500Y-79192500D01*
X135652500Y-79192500D01*
X135652500Y-80718500D01*
X136167915Y-80718500D01*
X136173270Y-80710852D01*
X136187388Y-80694027D01*
X136344027Y-80537388D01*
X136360852Y-80523270D01*
X136542312Y-80396211D01*
X136561332Y-80385229D01*
X136762098Y-80291610D01*
X136782737Y-80284098D01*
X136996711Y-80226764D01*
X137018340Y-80222950D01*
X137178500Y-80208937D01*
X137178500Y-79192500D01*
X138192500Y-79192500D01*
X138192500Y-80573915D01*
X138312612Y-80694027D01*
X138326730Y-80710852D01*
X138332085Y-80718500D01*
X139492915Y-80718500D01*
X139498270Y-80710852D01*
X139512388Y-80694027D01*
X139669027Y-80537388D01*
X139685851Y-80523270D01*
X139718500Y-80500408D01*
X139718500Y-79192500D01*
X140732500Y-79192500D01*
X140732500Y-80216462D01*
X140806660Y-80222951D01*
X140828289Y-80226764D01*
X141042263Y-80284098D01*
X141062902Y-80291610D01*
X141263668Y-80385229D01*
X141282688Y-80396211D01*
X141464148Y-80523270D01*
X141480973Y-80537388D01*
X141637612Y-80694027D01*
X141651730Y-80710852D01*
X141657085Y-80718500D01*
X142258500Y-80718500D01*
X142258500Y-79192500D01*
X143272500Y-79192500D01*
X143272500Y-80356705D01*
X143412098Y-80291610D01*
X143432737Y-80284098D01*
X143646711Y-80226764D01*
X143668340Y-80222950D01*
X143889018Y-80203643D01*
X143910982Y-80203643D01*
X144131660Y-80222950D01*
X144153289Y-80226764D01*
X144367263Y-80284098D01*
X144387902Y-80291610D01*
X144588668Y-80385229D01*
X144607688Y-80396211D01*
X144789148Y-80523270D01*
X144798500Y-80531117D01*
X144798500Y-79192500D01*
X145812500Y-79192500D01*
X145812500Y-80718500D01*
X147338500Y-80718500D01*
X147338500Y-79192500D01*
X148352500Y-79192500D01*
X148352500Y-80718500D01*
X149405878Y-80718500D01*
X149391610Y-80687902D01*
X149384098Y-80667263D01*
X149326764Y-80453289D01*
X149322950Y-80431660D01*
X149303643Y-80210982D01*
X149303643Y-80189018D01*
X149322950Y-79968340D01*
X149326764Y-79946711D01*
X149384098Y-79732737D01*
X149391610Y-79712098D01*
X149485229Y-79511332D01*
X149496211Y-79492312D01*
X149623270Y-79310852D01*
X149637388Y-79294027D01*
X149738915Y-79192500D01*
X151661085Y-79192500D01*
X151762612Y-79294027D01*
X151776730Y-79310852D01*
X151903789Y-79492312D01*
X151914771Y-79511332D01*
X152008390Y-79712098D01*
X152015902Y-79732737D01*
X152073236Y-79946711D01*
X152077050Y-79968340D01*
X152096357Y-80189018D01*
X152096357Y-80210982D01*
X152077050Y-80431660D01*
X152073236Y-80453289D01*
X152015902Y-80667263D01*
X152008390Y-80687902D01*
X151994122Y-80718500D01*
X152418500Y-80718500D01*
X152418500Y-79192500D01*
X153432500Y-79192500D01*
X153432500Y-80718500D01*
X154958500Y-80718500D01*
X154958500Y-79941084D01*
X155972500Y-79941084D01*
X155972500Y-80718500D01*
X157425691Y-80718500D01*
X157398254Y-80702054D01*
X157395643Y-80700401D01*
X157351670Y-80671020D01*
X157349141Y-80669239D01*
X157316601Y-80645106D01*
X157314163Y-80643203D01*
X157119716Y-80483624D01*
X157117374Y-80481604D01*
X157087363Y-80454403D01*
X157085123Y-80452271D01*
X157047729Y-80414877D01*
X157045597Y-80412637D01*
X157029381Y-80394746D01*
X157010983Y-80396356D01*
X156989018Y-80396357D01*
X156768340Y-80377050D01*
X156746711Y-80373236D01*
X156532737Y-80315902D01*
X156512098Y-80308390D01*
X156311332Y-80214771D01*
X156292312Y-80203789D01*
X156110852Y-80076730D01*
X156094027Y-80062612D01*
X155972500Y-79941084D01*
X154958500Y-79941084D01*
X154958500Y-79192500D01*
X153432500Y-79192500D01*
X152418500Y-79192500D01*
X151661085Y-79192500D01*
X149738915Y-79192500D01*
X148352500Y-79192500D01*
X147338500Y-79192500D01*
X145812500Y-79192500D01*
X144798500Y-79192500D01*
X143272500Y-79192500D01*
X142258500Y-79192500D01*
X140732500Y-79192500D01*
X139718500Y-79192500D01*
X138192500Y-79192500D01*
X137178500Y-79192500D01*
X135652500Y-79192500D01*
X134638500Y-79192500D01*
X133112500Y-79192500D01*
X133112499Y-80469601D01*
X132098500Y-80469601D01*
X132098500Y-79192500D01*
X131673918Y-79192500D01*
X131662612Y-79205973D01*
X131505973Y-79362612D01*
X131489148Y-79376730D01*
X131307688Y-79503789D01*
X131288668Y-79514771D01*
X131087902Y-79608390D01*
X131067263Y-79615902D01*
X130853289Y-79673236D01*
X130831660Y-79677050D01*
X130610982Y-79696357D01*
X130589018Y-79696357D01*
X130572499Y-79694911D01*
X130572499Y-80205088D01*
X129558499Y-80205088D01*
X129558499Y-79227084D01*
X129537388Y-79205973D01*
X129526082Y-79192500D01*
X128032500Y-79192500D01*
X127018500Y-79192500D01*
X125492500Y-79192500D01*
X125492499Y-80347379D01*
X124478500Y-80347379D01*
X124478500Y-79192500D01*
X122952500Y-79192500D01*
X122952499Y-80516025D01*
X121430500Y-80516025D01*
X121430500Y-78999901D01*
X121430500Y-78739676D01*
X121409996Y-78439927D01*
X121407183Y-78361145D01*
X121403815Y-78349555D01*
X121394970Y-78220241D01*
X121350086Y-77893687D01*
X121343171Y-77829372D01*
X121340093Y-77820987D01*
X121324075Y-77704443D01*
X121291509Y-77547729D01*
X121250262Y-77349235D01*
X121241993Y-77303405D01*
X121239651Y-77298172D01*
X121218146Y-77194684D01*
X121109775Y-76807905D01*
X121104131Y-76785794D01*
X121102969Y-76783615D01*
X121077676Y-76693343D01*
X121063160Y-76652500D01*
X122952500Y-76652500D01*
X122952500Y-78178500D01*
X124478500Y-78178500D01*
X124478500Y-76652500D01*
X125492500Y-76652500D01*
X125492500Y-78178500D01*
X127018500Y-78178500D01*
X127018500Y-76652500D01*
X128032500Y-76652500D01*
X128032500Y-78178500D01*
X129213312Y-78178500D01*
X129222950Y-78068340D01*
X129226764Y-78046711D01*
X129284098Y-77832737D01*
X129291610Y-77812098D01*
X129385229Y-77611332D01*
X129396211Y-77592312D01*
X129523270Y-77410852D01*
X129537388Y-77394027D01*
X129558500Y-77372915D01*
X129558500Y-76905088D01*
X130572499Y-76905088D01*
X130589019Y-76903643D01*
X130610982Y-76903643D01*
X130831660Y-76922950D01*
X130853289Y-76926764D01*
X131067263Y-76984098D01*
X131087902Y-76991610D01*
X131288668Y-77085229D01*
X131307688Y-77096211D01*
X131489148Y-77223270D01*
X131505973Y-77237388D01*
X131662612Y-77394027D01*
X131676730Y-77410852D01*
X131803789Y-77592312D01*
X131814771Y-77611332D01*
X131908390Y-77812098D01*
X131915902Y-77832737D01*
X131973236Y-78046711D01*
X131977050Y-78068340D01*
X131986688Y-78178500D01*
X132098500Y-78178500D01*
X132098500Y-76652500D01*
X135652500Y-76652500D01*
X135652500Y-78178500D01*
X137178500Y-78178500D01*
X137178500Y-76652500D01*
X138192500Y-76652500D01*
X138192500Y-78178500D01*
X139718500Y-78178500D01*
X139718500Y-76652500D01*
X140732500Y-76652500D01*
X140732500Y-78178500D01*
X142258500Y-78178500D01*
X143272500Y-78178500D01*
X144798500Y-78178500D01*
X144798500Y-76652500D01*
X145812500Y-76652500D01*
X145812500Y-78178500D01*
X147338500Y-78178500D01*
X147338500Y-76652500D01*
X148352500Y-76652500D01*
X148352500Y-78178500D01*
X149878500Y-78178500D01*
X149878500Y-76652500D01*
X153432500Y-76652500D01*
X153432500Y-78178500D01*
X154958500Y-78178500D01*
X154958500Y-76652500D01*
X155972500Y-76652500D01*
X155972500Y-78058915D01*
X156094027Y-77937388D01*
X156110852Y-77923270D01*
X156292312Y-77796211D01*
X156311332Y-77785229D01*
X156512098Y-77691610D01*
X156532737Y-77684098D01*
X156746711Y-77626764D01*
X156768340Y-77622950D01*
X156989018Y-77603643D01*
X157010982Y-77603643D01*
X157029382Y-77605252D01*
X157045597Y-77587363D01*
X157047729Y-77585123D01*
X157085123Y-77547729D01*
X157087363Y-77545597D01*
X157117374Y-77518396D01*
X157119716Y-77516376D01*
X157314163Y-77356797D01*
X157316601Y-77354894D01*
X157349141Y-77330761D01*
X157351670Y-77328980D01*
X157395643Y-77299599D01*
X157398254Y-77297946D01*
X157432990Y-77277125D01*
X157435682Y-77275600D01*
X157498500Y-77242022D01*
X157498500Y-76652500D01*
X155972500Y-76652500D01*
X154958500Y-76652500D01*
X153432500Y-76652500D01*
X149878500Y-76652500D01*
X148352500Y-76652500D01*
X147338500Y-76652500D01*
X145812500Y-76652500D01*
X144798500Y-76652500D01*
X144172411Y-76652500D01*
X144076730Y-76789148D01*
X144062612Y-76805973D01*
X143905973Y-76962612D01*
X143889148Y-76976730D01*
X143707688Y-77103789D01*
X143688668Y-77114771D01*
X143487902Y-77208390D01*
X143467263Y-77215902D01*
X143272500Y-77268088D01*
X143272500Y-78178500D01*
X142258500Y-78178500D01*
X142258500Y-77080113D01*
X142110852Y-76976730D01*
X142094027Y-76962612D01*
X141937388Y-76805973D01*
X141923270Y-76789148D01*
X141827589Y-76652500D01*
X140732500Y-76652500D01*
X139718500Y-76652500D01*
X138192500Y-76652500D01*
X137178500Y-76652500D01*
X135652500Y-76652500D01*
X132098500Y-76652500D01*
X130572500Y-76652500D01*
X130572499Y-76905088D01*
X129558500Y-76905088D01*
X129558500Y-76652500D01*
X128032500Y-76652500D01*
X127018500Y-76652500D01*
X125492500Y-76652500D01*
X124478500Y-76652500D01*
X122952500Y-76652500D01*
X121063160Y-76652500D01*
X120903322Y-76202757D01*
X120695895Y-75725212D01*
X120515492Y-75377050D01*
X120456366Y-75262942D01*
X120334543Y-75062612D01*
X120185843Y-74818085D01*
X120116526Y-74719886D01*
X120085760Y-74676300D01*
X119885595Y-74392731D01*
X119657610Y-74112500D01*
X120928958Y-74112500D01*
X121024231Y-74247471D01*
X121043224Y-74276427D01*
X121331719Y-74750837D01*
X121348693Y-74781020D01*
X121604181Y-75274089D01*
X121619052Y-75305361D01*
X121763756Y-75638500D01*
X121938500Y-75638500D01*
X121938500Y-74112500D01*
X122952500Y-74112500D01*
X122952500Y-75638500D01*
X124478500Y-75638500D01*
X124478500Y-74112500D01*
X125492500Y-74112500D01*
X125492500Y-75638500D01*
X127018500Y-75638500D01*
X127018500Y-74112500D01*
X128032500Y-74112500D01*
X128032500Y-75638500D01*
X129558500Y-75638500D01*
X129558500Y-74112500D01*
X130572500Y-74112500D01*
X130572500Y-75638500D01*
X132098500Y-75638500D01*
X132098500Y-74112500D01*
X133112500Y-74112500D01*
X133112500Y-75638500D01*
X134638500Y-75638500D01*
X134638500Y-74112500D01*
X135652500Y-74112500D01*
X135652500Y-75638500D01*
X137178500Y-75638500D01*
X137178500Y-74112500D01*
X138192500Y-74112500D01*
X138192500Y-75638500D01*
X139718500Y-75638500D01*
X139718500Y-74112500D01*
X140732500Y-74112500D01*
X140732500Y-75638500D01*
X141628964Y-75638500D01*
X141684098Y-75432737D01*
X141691610Y-75412098D01*
X141785229Y-75211332D01*
X141796211Y-75192312D01*
X141923270Y-75010852D01*
X141937388Y-74994027D01*
X142094027Y-74837388D01*
X142110852Y-74823270D01*
X142258500Y-74719886D01*
X142258500Y-74531911D01*
X143272500Y-74531911D01*
X143467263Y-74584098D01*
X143487902Y-74591610D01*
X143688668Y-74685229D01*
X143707688Y-74696211D01*
X143889148Y-74823270D01*
X143905973Y-74837388D01*
X144062612Y-74994027D01*
X144076730Y-75010852D01*
X144203789Y-75192312D01*
X144214771Y-75211332D01*
X144308390Y-75412098D01*
X144315902Y-75432737D01*
X144371036Y-75638500D01*
X144798500Y-75638500D01*
X144798500Y-74112500D01*
X145812500Y-74112500D01*
X145812500Y-75638500D01*
X147338500Y-75638500D01*
X147338500Y-74112500D01*
X148352500Y-74112500D01*
X148352500Y-75638500D01*
X149878500Y-75638500D01*
X150892500Y-75638500D01*
X151702912Y-75638500D01*
X151746711Y-75626764D01*
X151768340Y-75622950D01*
X151989018Y-75603643D01*
X152010982Y-75603643D01*
X152231660Y-75622950D01*
X152253289Y-75626764D01*
X152297088Y-75638500D01*
X152418500Y-75638500D01*
X152418500Y-74112500D01*
X153432500Y-74112500D01*
X153432500Y-75638500D01*
X154958500Y-75638500D01*
X154958500Y-74112500D01*
X155972500Y-74112500D01*
X155972500Y-75638500D01*
X157498500Y-75638500D01*
X157498500Y-75396356D01*
X157489018Y-75396357D01*
X157268340Y-75377050D01*
X157246711Y-75373236D01*
X157032737Y-75315902D01*
X157012098Y-75308390D01*
X156811332Y-75214771D01*
X156792312Y-75203789D01*
X156610852Y-75076730D01*
X156594027Y-75062612D01*
X156437388Y-74905973D01*
X156423270Y-74889148D01*
X156296211Y-74707688D01*
X156285229Y-74688668D01*
X156191610Y-74487902D01*
X156184098Y-74467263D01*
X156126764Y-74253289D01*
X156122950Y-74231660D01*
X156112525Y-74112500D01*
X155972500Y-74112500D01*
X154958500Y-74112500D01*
X153432500Y-74112500D01*
X152418500Y-74112500D01*
X152250289Y-74112500D01*
X152214771Y-74188668D01*
X152203789Y-74207688D01*
X152076730Y-74389148D01*
X152062612Y-74405973D01*
X151905973Y-74562612D01*
X151889148Y-74576730D01*
X151707688Y-74703789D01*
X151688668Y-74714771D01*
X151487902Y-74808390D01*
X151467263Y-74815902D01*
X151253289Y-74873236D01*
X151231660Y-74877050D01*
X151010982Y-74896357D01*
X150989018Y-74896357D01*
X150892500Y-74887912D01*
X150892500Y-75638500D01*
X149878500Y-75638500D01*
X149878500Y-74325209D01*
X149796211Y-74207689D01*
X149785229Y-74188668D01*
X149749711Y-74112500D01*
X148352500Y-74112500D01*
X147338500Y-74112500D01*
X145812500Y-74112500D01*
X144798500Y-74112500D01*
X143838063Y-74112500D01*
X143707688Y-74203789D01*
X143688668Y-74214771D01*
X143487902Y-74308390D01*
X143467263Y-74315902D01*
X143272500Y-74368088D01*
X143272500Y-74531911D01*
X142258500Y-74531911D01*
X142258500Y-74180113D01*
X142161937Y-74112500D01*
X140732500Y-74112500D01*
X139718500Y-74112500D01*
X138192500Y-74112500D01*
X137178500Y-74112500D01*
X135652500Y-74112500D01*
X134638500Y-74112500D01*
X133112500Y-74112500D01*
X132098500Y-74112500D01*
X130572500Y-74112500D01*
X129558500Y-74112500D01*
X128032500Y-74112500D01*
X127018500Y-74112500D01*
X125492500Y-74112500D01*
X124478500Y-74112500D01*
X122952500Y-74112500D01*
X121938500Y-74112500D01*
X120928958Y-74112500D01*
X119657610Y-74112500D01*
X119557020Y-73988858D01*
X119201650Y-73608350D01*
X118821142Y-73252980D01*
X118417269Y-72924405D01*
X118063646Y-72674790D01*
X117991914Y-72624156D01*
X117547063Y-72353637D01*
X117547062Y-72353636D01*
X117547058Y-72353634D01*
X117317639Y-72234759D01*
X117084788Y-72114105D01*
X116607243Y-71906678D01*
X116116657Y-71732324D01*
X116083815Y-71723122D01*
X116026382Y-71707029D01*
X116024743Y-71706004D01*
X116002046Y-71700211D01*
X115793271Y-71641715D01*
X115615316Y-71591854D01*
X115615314Y-71591853D01*
X115522185Y-71572500D01*
X120795233Y-71572500D01*
X120939148Y-71673270D01*
X120955973Y-71687388D01*
X121112612Y-71844027D01*
X121126730Y-71860852D01*
X121253789Y-72042312D01*
X121264771Y-72061332D01*
X121358390Y-72262098D01*
X121365902Y-72282737D01*
X121423236Y-72496711D01*
X121427050Y-72518340D01*
X121446357Y-72739018D01*
X121446357Y-72760982D01*
X121427050Y-72981660D01*
X121423236Y-73003289D01*
X121397724Y-73098500D01*
X121938500Y-73098500D01*
X121938500Y-71572500D01*
X122952500Y-71572500D01*
X122952500Y-73098500D01*
X124478500Y-73098500D01*
X124478500Y-72461085D01*
X125492500Y-72461085D01*
X125492500Y-73098500D01*
X127018500Y-73098500D01*
X127018500Y-72794121D01*
X126987902Y-72808390D01*
X126967263Y-72815902D01*
X126753289Y-72873236D01*
X126731660Y-72877050D01*
X126510982Y-72896357D01*
X126489018Y-72896357D01*
X126268340Y-72877050D01*
X126246711Y-72873236D01*
X126032737Y-72815902D01*
X126012098Y-72808390D01*
X125811332Y-72714771D01*
X125792312Y-72703789D01*
X125610852Y-72576730D01*
X125594027Y-72562612D01*
X125492500Y-72461085D01*
X124478500Y-72461085D01*
X124478500Y-71572500D01*
X128032500Y-71572500D01*
X128032500Y-73098500D01*
X129558500Y-73098500D01*
X129558500Y-71572500D01*
X130572500Y-71572500D01*
X130572500Y-73098500D01*
X132098500Y-73098500D01*
X132098500Y-71572500D01*
X133112500Y-71572500D01*
X133112500Y-73098500D01*
X134638500Y-73098500D01*
X134638500Y-71572500D01*
X135652500Y-71572500D01*
X135652500Y-73098500D01*
X137178500Y-73098500D01*
X137178500Y-71572500D01*
X138192500Y-71572500D01*
X138192500Y-73098500D01*
X139718500Y-73098500D01*
X139718500Y-71572500D01*
X140732500Y-71572500D01*
X140732500Y-73098500D01*
X141611300Y-73098500D01*
X141603643Y-73010982D01*
X141603643Y-72989018D01*
X141622950Y-72768340D01*
X141626764Y-72746711D01*
X141684098Y-72532737D01*
X141691610Y-72512098D01*
X141785229Y-72311332D01*
X141796211Y-72292312D01*
X141923270Y-72110852D01*
X141937388Y-72094027D01*
X142094027Y-71937388D01*
X142110852Y-71923270D01*
X142258500Y-71819886D01*
X142258500Y-71572500D01*
X143272500Y-71572500D01*
X143272500Y-71631911D01*
X143467263Y-71684098D01*
X143487902Y-71691610D01*
X143688668Y-71785229D01*
X143707688Y-71796211D01*
X143889148Y-71923270D01*
X143905973Y-71937388D01*
X144062612Y-72094027D01*
X144076730Y-72110852D01*
X144203789Y-72292312D01*
X144214771Y-72311332D01*
X144308390Y-72512098D01*
X144315902Y-72532737D01*
X144373236Y-72746711D01*
X144377050Y-72768340D01*
X144396357Y-72989018D01*
X144396357Y-73010982D01*
X144388700Y-73098500D01*
X144798500Y-73098500D01*
X144798500Y-71572500D01*
X145812500Y-71572500D01*
X145812500Y-73098500D01*
X147338500Y-73098500D01*
X147338500Y-71572500D01*
X148352500Y-71572500D01*
X148352500Y-73098500D01*
X149666477Y-73098500D01*
X149684098Y-73032737D01*
X149691610Y-73012098D01*
X149785229Y-72811332D01*
X149796211Y-72792312D01*
X149878500Y-72674790D01*
X149878500Y-71572500D01*
X150892500Y-71572500D01*
X150892500Y-72112087D01*
X150989018Y-72103643D01*
X151010982Y-72103643D01*
X151231660Y-72122950D01*
X151253289Y-72126764D01*
X151467263Y-72184098D01*
X151487902Y-72191610D01*
X151688668Y-72285229D01*
X151707688Y-72296211D01*
X151889148Y-72423270D01*
X151905973Y-72437388D01*
X152062612Y-72594027D01*
X152076730Y-72610852D01*
X152203789Y-72792312D01*
X152214771Y-72811332D01*
X152308390Y-73012098D01*
X152315902Y-73032737D01*
X152333523Y-73098500D01*
X152418500Y-73098500D01*
X152418500Y-71572500D01*
X153432500Y-71572500D01*
X153432500Y-73098500D01*
X154958500Y-73098500D01*
X154958500Y-71572500D01*
X155972500Y-71572500D01*
X155972500Y-73098500D01*
X156433635Y-73098500D01*
X156437388Y-73094027D01*
X156594027Y-72937388D01*
X156610852Y-72923270D01*
X156792312Y-72796211D01*
X156811332Y-72785229D01*
X157012098Y-72691610D01*
X157032737Y-72684098D01*
X157246711Y-72626764D01*
X157268340Y-72622950D01*
X157489018Y-72603643D01*
X157498500Y-72603643D01*
X157498500Y-71572500D01*
X158512500Y-71572500D01*
X158512500Y-73043913D01*
X158562613Y-73094027D01*
X158566366Y-73098500D01*
X158929281Y-73098500D01*
X158980397Y-73064073D01*
X159834578Y-72423436D01*
X159663281Y-72282856D01*
X159660939Y-72280836D01*
X159630928Y-72253635D01*
X159628688Y-72251503D01*
X159591294Y-72214109D01*
X159589162Y-72211869D01*
X159561961Y-72181858D01*
X159559941Y-72179516D01*
X159400362Y-71985069D01*
X159398459Y-71982631D01*
X159374326Y-71950091D01*
X159372545Y-71947562D01*
X159343164Y-71903589D01*
X159341511Y-71900978D01*
X159320690Y-71866242D01*
X159319165Y-71863550D01*
X159200592Y-71641715D01*
X159199202Y-71638953D01*
X159181887Y-71602344D01*
X159180634Y-71599517D01*
X159169442Y-71572500D01*
X158512500Y-71572500D01*
X157498500Y-71572500D01*
X155972500Y-71572500D01*
X154958500Y-71572500D01*
X153432500Y-71572500D01*
X152418500Y-71572500D01*
X150892500Y-71572500D01*
X149878500Y-71572500D01*
X148352500Y-71572500D01*
X147338500Y-71572500D01*
X145812500Y-71572500D01*
X144798500Y-71572500D01*
X143272500Y-71572500D01*
X142258500Y-71572500D01*
X140732500Y-71572500D01*
X139718500Y-71572500D01*
X138192500Y-71572500D01*
X137178500Y-71572500D01*
X135652500Y-71572500D01*
X134638500Y-71572500D01*
X133112500Y-71572500D01*
X132098500Y-71572500D01*
X130572500Y-71572500D01*
X129558500Y-71572500D01*
X128032500Y-71572500D01*
X124478500Y-71572500D01*
X122952500Y-71572500D01*
X121938500Y-71572500D01*
X120795233Y-71572500D01*
X115522185Y-71572500D01*
X115511825Y-71570347D01*
X115507871Y-71568235D01*
X115460713Y-71559727D01*
X115365150Y-71539869D01*
X115105557Y-71485925D01*
X115022753Y-71474543D01*
X114989013Y-71469906D01*
X114982639Y-71467043D01*
X114916244Y-71459904D01*
X114790387Y-71442605D01*
X114589759Y-71415030D01*
X114460432Y-71406183D01*
X114451578Y-71402912D01*
X114370023Y-71399999D01*
X114085543Y-71380541D01*
X114070324Y-71379500D01*
X114070323Y-71379500D01*
X110126500Y-71379500D01*
X110058379Y-71359498D01*
X110011886Y-71305842D01*
X110000500Y-71253500D01*
X110000500Y-70799235D01*
X160030185Y-70799235D01*
X160049655Y-70996926D01*
X160049656Y-70996932D01*
X160049657Y-70996933D01*
X160107324Y-71187036D01*
X160200970Y-71362236D01*
X160326997Y-71515800D01*
X160480561Y-71641827D01*
X160655761Y-71735473D01*
X160845864Y-71793140D01*
X160845868Y-71793140D01*
X160845870Y-71793141D01*
X161043562Y-71812612D01*
X161043565Y-71812612D01*
X161043568Y-71812612D01*
X161241259Y-71793141D01*
X161241260Y-71793140D01*
X161241266Y-71793140D01*
X161431369Y-71735473D01*
X161606569Y-71641827D01*
X161760133Y-71515800D01*
X161886160Y-71362236D01*
X161979806Y-71187036D01*
X162037473Y-70996933D01*
X162045346Y-70916990D01*
X162071927Y-70851159D01*
X162129881Y-70810148D01*
X162158390Y-70803947D01*
X162197694Y-70800076D01*
X162197695Y-70800075D01*
X162197701Y-70800075D01*
X162387804Y-70742408D01*
X162563004Y-70648762D01*
X162716568Y-70522735D01*
X162842595Y-70369171D01*
X162936241Y-70193971D01*
X162993908Y-70003868D01*
X162996939Y-69973090D01*
X163023519Y-69907261D01*
X163081472Y-69866249D01*
X163109981Y-69860047D01*
X163162393Y-69854885D01*
X163197693Y-69851409D01*
X163197694Y-69851408D01*
X163197701Y-69851408D01*
X163387804Y-69793741D01*
X163563004Y-69700095D01*
X163716568Y-69574068D01*
X163842595Y-69420504D01*
X163936241Y-69245304D01*
X163993908Y-69055201D01*
X164013380Y-68857500D01*
X164013380Y-68857496D01*
X163993909Y-68659805D01*
X163993908Y-68659803D01*
X163993908Y-68659799D01*
X163936241Y-68469696D01*
X163842595Y-68294496D01*
X163716568Y-68140932D01*
X163563004Y-68014905D01*
X163387804Y-67921259D01*
X163197701Y-67863592D01*
X163197700Y-67863591D01*
X163197694Y-67863590D01*
X163000003Y-67844120D01*
X162999997Y-67844120D01*
X162802305Y-67863590D01*
X162612195Y-67921259D01*
X162436995Y-68014905D01*
X162283432Y-68140932D01*
X162157405Y-68294495D01*
X162063759Y-68469695D01*
X162006090Y-68659806D01*
X162003060Y-68690576D01*
X161976478Y-68756408D01*
X161918523Y-68797418D01*
X161890018Y-68803618D01*
X161802299Y-68812259D01*
X161707247Y-68841092D01*
X161612194Y-68869926D01*
X161436995Y-68963572D01*
X161283432Y-69089599D01*
X161157405Y-69243162D01*
X161063759Y-69418361D01*
X161055263Y-69446370D01*
X161006092Y-69608466D01*
X161006091Y-69608468D01*
X161006092Y-69608468D01*
X160998217Y-69688411D01*
X160971633Y-69754243D01*
X160913678Y-69795252D01*
X160885176Y-69801451D01*
X160845864Y-69805324D01*
X160782496Y-69824546D01*
X160655759Y-69862991D01*
X160480560Y-69956637D01*
X160326997Y-70082664D01*
X160200970Y-70236227D01*
X160107324Y-70411427D01*
X160049655Y-70601537D01*
X160030185Y-70799228D01*
X160030185Y-70799235D01*
X110000500Y-70799235D01*
X110000500Y-69398649D01*
X111141500Y-69398649D01*
X111148009Y-69459196D01*
X111148011Y-69459204D01*
X111199110Y-69596202D01*
X111199112Y-69596207D01*
X111286738Y-69713261D01*
X111403792Y-69800887D01*
X111403794Y-69800888D01*
X111403796Y-69800889D01*
X111415687Y-69805324D01*
X111540795Y-69851988D01*
X111540803Y-69851990D01*
X111601350Y-69858499D01*
X111601355Y-69858499D01*
X111601362Y-69858500D01*
X111601368Y-69858500D01*
X113398632Y-69858500D01*
X113398638Y-69858500D01*
X113398645Y-69858499D01*
X113398649Y-69858499D01*
X113459196Y-69851990D01*
X113459199Y-69851989D01*
X113459201Y-69851989D01*
X113596204Y-69800889D01*
X113713261Y-69713261D01*
X113800889Y-69596204D01*
X113851989Y-69459201D01*
X113853369Y-69446370D01*
X113858499Y-69398649D01*
X113858500Y-69398632D01*
X113858500Y-69032500D01*
X120412500Y-69032500D01*
X120412500Y-70558500D01*
X121938500Y-70558500D01*
X121938500Y-69032500D01*
X122952500Y-69032500D01*
X122952500Y-70558500D01*
X124478500Y-70558500D01*
X124478500Y-70538915D01*
X125492500Y-70538915D01*
X125594027Y-70437388D01*
X125610852Y-70423270D01*
X125792312Y-70296211D01*
X125811332Y-70285229D01*
X126012098Y-70191610D01*
X126032737Y-70184098D01*
X126246711Y-70126764D01*
X126268340Y-70122950D01*
X126489018Y-70103643D01*
X126510982Y-70103643D01*
X126731660Y-70122950D01*
X126753289Y-70126764D01*
X126967263Y-70184098D01*
X126987902Y-70191610D01*
X127018499Y-70205878D01*
X127018500Y-69032500D01*
X128032500Y-69032500D01*
X128032500Y-70558500D01*
X129558500Y-70558500D01*
X129558500Y-69032500D01*
X130572500Y-69032500D01*
X130572500Y-70558500D01*
X132098500Y-70558500D01*
X132098500Y-69032500D01*
X133112500Y-69032500D01*
X133112500Y-70558500D01*
X134638500Y-70558500D01*
X134638500Y-69032500D01*
X135652500Y-69032500D01*
X135652500Y-70558500D01*
X137178500Y-70558500D01*
X137178500Y-69032500D01*
X138192500Y-69032500D01*
X138192500Y-70558500D01*
X139718500Y-70558500D01*
X139718500Y-69032500D01*
X140732500Y-69032500D01*
X140732500Y-70558500D01*
X141721161Y-70558500D01*
X141641610Y-70387902D01*
X141634098Y-70367263D01*
X141576764Y-70153289D01*
X141572950Y-70131660D01*
X141553643Y-69910982D01*
X141553643Y-69889018D01*
X141572950Y-69668340D01*
X141576764Y-69646711D01*
X141634098Y-69432737D01*
X141641610Y-69412098D01*
X141735229Y-69211332D01*
X141746211Y-69192312D01*
X141858112Y-69032500D01*
X144041888Y-69032500D01*
X144153789Y-69192312D01*
X144164771Y-69211332D01*
X144258390Y-69412098D01*
X144265902Y-69432737D01*
X144323236Y-69646711D01*
X144327050Y-69668340D01*
X144346357Y-69889018D01*
X144346357Y-69910982D01*
X144327050Y-70131660D01*
X144323236Y-70153289D01*
X144265902Y-70367263D01*
X144258390Y-70387902D01*
X144178839Y-70558500D01*
X144798500Y-70558500D01*
X144798500Y-69032500D01*
X145812500Y-69032500D01*
X145812500Y-70558500D01*
X147338500Y-70558500D01*
X147338500Y-69032500D01*
X148352500Y-69032500D01*
X148352500Y-70558500D01*
X149878500Y-70558500D01*
X150892500Y-70558500D01*
X152418500Y-70558500D01*
X152418500Y-69680671D01*
X152414771Y-69688668D01*
X152403789Y-69707688D01*
X152276730Y-69889148D01*
X152262612Y-69905973D01*
X152105973Y-70062612D01*
X152089148Y-70076730D01*
X151907688Y-70203789D01*
X151888668Y-70214771D01*
X151687902Y-70308390D01*
X151667263Y-70315902D01*
X151453289Y-70373236D01*
X151431660Y-70377050D01*
X151210982Y-70396357D01*
X151189018Y-70396357D01*
X150968340Y-70377050D01*
X150946711Y-70373236D01*
X150892500Y-70358710D01*
X150892500Y-70558500D01*
X149878500Y-70558500D01*
X149878500Y-69446370D01*
X149826764Y-69253289D01*
X149822950Y-69231660D01*
X149805526Y-69032500D01*
X153432500Y-69032500D01*
X153432500Y-70558500D01*
X154958500Y-70558500D01*
X154958500Y-69032500D01*
X155972500Y-69032500D01*
X155972500Y-70558500D01*
X157498500Y-70558500D01*
X157498500Y-69032500D01*
X155972500Y-69032500D01*
X154958500Y-69032500D01*
X153432500Y-69032500D01*
X149805526Y-69032500D01*
X148352500Y-69032500D01*
X147338500Y-69032500D01*
X145812500Y-69032500D01*
X144798500Y-69032500D01*
X144041888Y-69032500D01*
X141858112Y-69032500D01*
X140732500Y-69032500D01*
X139718500Y-69032500D01*
X138192500Y-69032500D01*
X137178500Y-69032500D01*
X135652500Y-69032500D01*
X134638500Y-69032500D01*
X133112500Y-69032500D01*
X132098500Y-69032500D01*
X130572500Y-69032500D01*
X129558500Y-69032500D01*
X128032500Y-69032500D01*
X127018500Y-69032500D01*
X126150648Y-69032500D01*
X125987902Y-69108390D01*
X125967263Y-69115902D01*
X125753289Y-69173236D01*
X125731660Y-69177050D01*
X125510982Y-69196357D01*
X125492500Y-69196357D01*
X125492500Y-70538915D01*
X124478500Y-70538915D01*
X124478500Y-69032500D01*
X122952500Y-69032500D01*
X121938500Y-69032500D01*
X120412500Y-69032500D01*
X113858500Y-69032500D01*
X113858500Y-67601367D01*
X113858499Y-67601350D01*
X113851990Y-67540803D01*
X113851988Y-67540795D01*
X113813418Y-67437388D01*
X113800889Y-67403796D01*
X113800888Y-67403794D01*
X113800887Y-67403792D01*
X113713261Y-67286738D01*
X113596207Y-67199112D01*
X113596202Y-67199110D01*
X113459204Y-67148011D01*
X113459196Y-67148009D01*
X113398649Y-67141500D01*
X113398638Y-67141500D01*
X111601362Y-67141500D01*
X111601350Y-67141500D01*
X111540803Y-67148009D01*
X111540795Y-67148011D01*
X111403797Y-67199110D01*
X111403792Y-67199112D01*
X111286738Y-67286738D01*
X111199112Y-67403792D01*
X111199110Y-67403797D01*
X111148011Y-67540795D01*
X111148009Y-67540803D01*
X111141500Y-67601350D01*
X111141500Y-69398649D01*
X110000500Y-69398649D01*
X110000500Y-66492500D01*
X115332500Y-66492500D01*
X115332500Y-67271835D01*
X115375091Y-67279797D01*
X115397455Y-67286160D01*
X115593597Y-67362146D01*
X115614410Y-67372510D01*
X115793250Y-67483243D01*
X115811806Y-67497255D01*
X115967254Y-67638965D01*
X115982918Y-67656148D01*
X116109680Y-67824008D01*
X116121920Y-67843777D01*
X116208922Y-68018500D01*
X116858500Y-68018500D01*
X116858500Y-66492500D01*
X117872500Y-66492500D01*
X117872500Y-67683359D01*
X117923270Y-67610852D01*
X117937388Y-67594027D01*
X118094027Y-67437388D01*
X118110852Y-67423270D01*
X118292312Y-67296211D01*
X118311332Y-67285229D01*
X118512098Y-67191610D01*
X118532737Y-67184098D01*
X118746711Y-67126764D01*
X118768339Y-67122951D01*
X118810923Y-67119225D01*
X118834098Y-67032737D01*
X118841610Y-67012098D01*
X118935229Y-66811332D01*
X118946211Y-66792312D01*
X119073270Y-66610852D01*
X119087388Y-66594027D01*
X119188915Y-66492500D01*
X121111085Y-66492500D01*
X121212612Y-66594027D01*
X121226730Y-66610852D01*
X121353789Y-66792312D01*
X121364771Y-66811332D01*
X121458390Y-67012098D01*
X121465902Y-67032737D01*
X121523236Y-67246711D01*
X121527050Y-67268340D01*
X121546357Y-67489018D01*
X121546357Y-67510982D01*
X121527050Y-67731660D01*
X121523236Y-67753289D01*
X121465902Y-67967263D01*
X121458390Y-67987902D01*
X121444122Y-68018500D01*
X121938500Y-68018500D01*
X121938500Y-66492500D01*
X122952500Y-66492500D01*
X122952500Y-68018500D01*
X124121799Y-68018500D01*
X124103643Y-67810982D01*
X124103643Y-67789018D01*
X124122950Y-67568340D01*
X124126764Y-67546711D01*
X124184098Y-67332737D01*
X124191610Y-67312098D01*
X124285229Y-67111332D01*
X124296211Y-67092312D01*
X124423270Y-66910852D01*
X124437387Y-66894027D01*
X124478500Y-66852913D01*
X124478500Y-66492500D01*
X125989811Y-66492500D01*
X126188668Y-66585229D01*
X126207688Y-66596211D01*
X126389148Y-66723270D01*
X126405973Y-66737388D01*
X126562612Y-66894027D01*
X126576730Y-66910852D01*
X126703789Y-67092312D01*
X126714771Y-67111332D01*
X126808390Y-67312098D01*
X126815902Y-67332737D01*
X126873236Y-67546711D01*
X126877050Y-67568340D01*
X126896357Y-67789018D01*
X126896357Y-67810982D01*
X126878201Y-68018500D01*
X127018500Y-68018500D01*
X127018500Y-66492500D01*
X128032500Y-66492500D01*
X128032500Y-68018500D01*
X129558500Y-68018500D01*
X129558500Y-66492500D01*
X130572500Y-66492500D01*
X130572500Y-68018500D01*
X132098500Y-68018500D01*
X132098500Y-66492500D01*
X133112500Y-66492500D01*
X133112500Y-68018500D01*
X134638500Y-68018500D01*
X134638500Y-66492500D01*
X135652500Y-66492500D01*
X135652500Y-68018500D01*
X137178500Y-68018500D01*
X138192500Y-68018500D01*
X139718500Y-68018500D01*
X140732500Y-68018500D01*
X142258500Y-68018500D01*
X143272500Y-68018500D01*
X144798500Y-68018500D01*
X145812500Y-68018500D01*
X147338500Y-68018500D01*
X147338500Y-66492500D01*
X148352500Y-66492500D01*
X148352500Y-68018500D01*
X149878500Y-68018500D01*
X149878500Y-66492500D01*
X150892500Y-66492500D01*
X150892500Y-67641289D01*
X150946711Y-67626764D01*
X150968340Y-67622950D01*
X151189018Y-67603643D01*
X151210982Y-67603643D01*
X151431660Y-67622950D01*
X151453289Y-67626764D01*
X151667263Y-67684098D01*
X151687902Y-67691610D01*
X151888668Y-67785229D01*
X151907688Y-67796211D01*
X152089148Y-67923270D01*
X152105973Y-67937388D01*
X152187085Y-68018500D01*
X152418500Y-68018500D01*
X152418500Y-66492500D01*
X153432500Y-66492500D01*
X153432500Y-68018500D01*
X154958500Y-68018500D01*
X154958500Y-66492500D01*
X155972500Y-66492500D01*
X155972500Y-68018500D01*
X157498500Y-68018500D01*
X157498500Y-66492500D01*
X158512500Y-66492500D01*
X158512500Y-67691463D01*
X158532737Y-67684098D01*
X158746711Y-67626764D01*
X158768340Y-67622950D01*
X158989018Y-67603643D01*
X159010982Y-67603643D01*
X159231660Y-67622950D01*
X159253289Y-67626764D01*
X159467263Y-67684098D01*
X159487902Y-67691610D01*
X159688668Y-67785229D01*
X159707688Y-67796211D01*
X159889148Y-67923270D01*
X159905973Y-67937388D01*
X159987085Y-68018500D01*
X160038500Y-68018500D01*
X161052500Y-68018500D01*
X161054047Y-68018500D01*
X161157517Y-67963194D01*
X161160279Y-67961804D01*
X161193992Y-67945858D01*
X161275600Y-67793182D01*
X161277125Y-67790490D01*
X161297946Y-67755754D01*
X161299599Y-67753143D01*
X161328980Y-67709170D01*
X161330761Y-67706641D01*
X161354894Y-67674101D01*
X161356797Y-67671663D01*
X161516376Y-67477216D01*
X161518396Y-67474874D01*
X161545597Y-67444863D01*
X161547729Y-67442623D01*
X161585123Y-67405229D01*
X161587363Y-67403097D01*
X161617374Y-67375896D01*
X161619716Y-67373876D01*
X161814163Y-67214297D01*
X161816601Y-67212394D01*
X161849141Y-67188261D01*
X161851670Y-67186480D01*
X161895643Y-67157099D01*
X161898254Y-67155446D01*
X161932990Y-67134625D01*
X161935682Y-67133100D01*
X162157517Y-67014527D01*
X162160279Y-67013137D01*
X162196888Y-66995822D01*
X162199715Y-66994569D01*
X162248575Y-66974329D01*
X162251463Y-66973215D01*
X162289608Y-66959567D01*
X162292544Y-66958597D01*
X162407502Y-66923725D01*
X163592500Y-66923725D01*
X163707456Y-66958597D01*
X163710392Y-66959567D01*
X163748537Y-66973215D01*
X163751425Y-66974329D01*
X163800285Y-66994569D01*
X163803112Y-66995822D01*
X163839721Y-67013137D01*
X163842483Y-67014527D01*
X164064318Y-67133100D01*
X164067010Y-67134625D01*
X164101746Y-67155446D01*
X164104357Y-67157099D01*
X164148330Y-67186480D01*
X164150859Y-67188261D01*
X164183399Y-67212394D01*
X164185837Y-67214297D01*
X164380284Y-67373876D01*
X164382626Y-67375896D01*
X164412637Y-67403097D01*
X164414877Y-67405229D01*
X164452271Y-67442623D01*
X164454403Y-67444863D01*
X164481604Y-67474874D01*
X164483624Y-67477216D01*
X164496129Y-67492453D01*
X164496211Y-67492312D01*
X164623270Y-67310852D01*
X164637388Y-67294027D01*
X164794027Y-67137388D01*
X164810852Y-67123270D01*
X164992312Y-66996211D01*
X165011332Y-66985229D01*
X165118500Y-66935255D01*
X165118500Y-66567981D01*
X164964460Y-66651344D01*
X164931484Y-66667465D01*
X164888321Y-66686399D01*
X164854113Y-66699748D01*
X164596595Y-66788153D01*
X164561422Y-66798626D01*
X164515728Y-66810197D01*
X164479784Y-66817735D01*
X164211226Y-66862548D01*
X164174810Y-66867088D01*
X164127837Y-66870982D01*
X164091143Y-66872500D01*
X163818857Y-66872500D01*
X163782163Y-66870982D01*
X163735190Y-66867088D01*
X163698774Y-66862548D01*
X163592500Y-66844814D01*
X163592500Y-66923725D01*
X162407502Y-66923725D01*
X162533244Y-66885582D01*
X162536224Y-66884757D01*
X162575487Y-66874921D01*
X162578500Y-66874244D01*
X162578500Y-66567981D01*
X162424460Y-66651344D01*
X162391484Y-66667465D01*
X162348321Y-66686399D01*
X162314113Y-66699748D01*
X162056595Y-66788153D01*
X162021422Y-66798626D01*
X161975728Y-66810197D01*
X161939784Y-66817735D01*
X161671226Y-66862548D01*
X161634810Y-66867088D01*
X161587837Y-66870982D01*
X161551143Y-66872500D01*
X161278857Y-66872500D01*
X161242163Y-66870982D01*
X161195190Y-66867088D01*
X161158774Y-66862548D01*
X161052500Y-66844814D01*
X161052500Y-68018500D01*
X160038500Y-68018500D01*
X160038500Y-66492500D01*
X158512500Y-66492500D01*
X157498500Y-66492500D01*
X155972500Y-66492500D01*
X154958500Y-66492500D01*
X153432500Y-66492500D01*
X152418500Y-66492500D01*
X150892500Y-66492500D01*
X149878500Y-66492500D01*
X148352500Y-66492500D01*
X147338500Y-66492500D01*
X146262787Y-66492500D01*
X146224400Y-66564318D01*
X146222875Y-66567010D01*
X146202054Y-66601746D01*
X146200401Y-66604357D01*
X146171020Y-66648330D01*
X146169239Y-66650859D01*
X146145106Y-66683399D01*
X146143203Y-66685837D01*
X145983624Y-66880284D01*
X145981604Y-66882626D01*
X145954403Y-66912637D01*
X145952271Y-66914877D01*
X145914877Y-66952271D01*
X145912637Y-66954403D01*
X145882626Y-66981604D01*
X145880284Y-66983624D01*
X145812500Y-67039252D01*
X145812500Y-68018500D01*
X144798500Y-68018500D01*
X144798500Y-67502887D01*
X144573073Y-67525089D01*
X144569990Y-67525316D01*
X144529535Y-67527304D01*
X144526443Y-67527380D01*
X144473557Y-67527380D01*
X144470465Y-67527304D01*
X144430010Y-67525316D01*
X144426927Y-67525089D01*
X144176583Y-67500433D01*
X144173513Y-67500054D01*
X144133419Y-67494106D01*
X144130369Y-67493576D01*
X144078502Y-67483256D01*
X144075487Y-67482579D01*
X144036224Y-67472743D01*
X144033244Y-67471918D01*
X143792544Y-67398903D01*
X143789608Y-67397933D01*
X143751463Y-67384285D01*
X143748575Y-67383171D01*
X143699715Y-67362931D01*
X143696888Y-67361678D01*
X143660279Y-67344363D01*
X143657516Y-67342973D01*
X143500000Y-67258778D01*
X143342484Y-67342973D01*
X143339721Y-67344363D01*
X143303112Y-67361678D01*
X143300285Y-67362931D01*
X143272500Y-67374440D01*
X143272500Y-68018500D01*
X142258500Y-68018500D01*
X142258500Y-67508500D01*
X142176584Y-67500433D01*
X142173513Y-67500054D01*
X142133419Y-67494106D01*
X142130369Y-67493576D01*
X142078502Y-67483256D01*
X142075487Y-67482579D01*
X142036224Y-67472743D01*
X142033244Y-67471918D01*
X141792544Y-67398903D01*
X141789608Y-67397933D01*
X141751463Y-67384285D01*
X141748575Y-67383171D01*
X141699715Y-67362931D01*
X141696888Y-67361678D01*
X141660279Y-67344363D01*
X141657516Y-67342973D01*
X141500000Y-67258778D01*
X141342484Y-67342973D01*
X141339721Y-67344363D01*
X141303112Y-67361678D01*
X141300285Y-67362931D01*
X141251425Y-67383171D01*
X141248537Y-67384285D01*
X141210392Y-67397933D01*
X141207456Y-67398903D01*
X140966756Y-67471918D01*
X140963776Y-67472743D01*
X140924513Y-67482579D01*
X140921498Y-67483256D01*
X140869631Y-67493576D01*
X140866581Y-67494106D01*
X140826487Y-67500054D01*
X140823417Y-67500433D01*
X140732500Y-67509387D01*
X140732500Y-68018500D01*
X139718500Y-68018500D01*
X139718500Y-67370712D01*
X139699715Y-67362931D01*
X139696888Y-67361678D01*
X139660279Y-67344363D01*
X139657516Y-67342973D01*
X139500000Y-67258778D01*
X139342484Y-67342973D01*
X139339721Y-67344363D01*
X139303112Y-67361678D01*
X139300285Y-67362931D01*
X139251425Y-67383171D01*
X139248537Y-67384285D01*
X139210392Y-67397933D01*
X139207456Y-67398903D01*
X138966756Y-67471918D01*
X138963776Y-67472743D01*
X138924513Y-67482579D01*
X138921498Y-67483256D01*
X138869631Y-67493576D01*
X138866581Y-67494106D01*
X138826487Y-67500054D01*
X138823417Y-67500433D01*
X138573073Y-67525089D01*
X138569990Y-67525316D01*
X138529535Y-67527304D01*
X138526443Y-67527380D01*
X138473557Y-67527380D01*
X138470465Y-67527304D01*
X138430010Y-67525316D01*
X138426927Y-67525089D01*
X138192500Y-67502000D01*
X138192500Y-68018500D01*
X137178500Y-68018500D01*
X137178500Y-67031866D01*
X137119716Y-66983624D01*
X137117374Y-66981604D01*
X137087363Y-66954403D01*
X137085123Y-66952271D01*
X137047729Y-66914877D01*
X137045597Y-66912637D01*
X137018396Y-66882626D01*
X137016376Y-66880284D01*
X136856797Y-66685837D01*
X136854894Y-66683399D01*
X136830761Y-66650859D01*
X136828980Y-66648330D01*
X136799599Y-66604357D01*
X136797946Y-66601746D01*
X136777125Y-66567010D01*
X136775600Y-66564318D01*
X136737213Y-66492500D01*
X135652500Y-66492500D01*
X134638500Y-66492500D01*
X133112500Y-66492500D01*
X132098500Y-66492500D01*
X130572500Y-66492500D01*
X129558500Y-66492500D01*
X128032500Y-66492500D01*
X127018500Y-66492500D01*
X125989811Y-66492500D01*
X124478500Y-66492500D01*
X122952500Y-66492500D01*
X121938500Y-66492500D01*
X121111085Y-66492500D01*
X119188915Y-66492500D01*
X117872500Y-66492500D01*
X116858500Y-66492500D01*
X115332500Y-66492500D01*
X110000500Y-66492500D01*
X110000500Y-65500003D01*
X137486620Y-65500003D01*
X137506090Y-65697694D01*
X137506091Y-65697700D01*
X137506092Y-65697701D01*
X137563759Y-65887804D01*
X137657405Y-66063004D01*
X137783432Y-66216568D01*
X137936996Y-66342595D01*
X138112196Y-66436241D01*
X138302299Y-66493908D01*
X138302303Y-66493908D01*
X138302305Y-66493909D01*
X138499997Y-66513380D01*
X138500000Y-66513380D01*
X138500003Y-66513380D01*
X138697694Y-66493909D01*
X138697695Y-66493908D01*
X138697701Y-66493908D01*
X138887804Y-66436241D01*
X139063004Y-66342595D01*
X139216568Y-66216568D01*
X139342595Y-66063004D01*
X139388878Y-65976413D01*
X139438630Y-65925766D01*
X139507866Y-65910056D01*
X139574606Y-65934272D01*
X139611121Y-65976413D01*
X139657405Y-66063004D01*
X139783432Y-66216568D01*
X139936996Y-66342595D01*
X140112196Y-66436241D01*
X140302299Y-66493908D01*
X140302303Y-66493908D01*
X140302305Y-66493909D01*
X140499997Y-66513380D01*
X140500000Y-66513380D01*
X140500003Y-66513380D01*
X140697694Y-66493909D01*
X140697695Y-66493908D01*
X140697701Y-66493908D01*
X140887804Y-66436241D01*
X141063004Y-66342595D01*
X141216568Y-66216568D01*
X141342595Y-66063004D01*
X141388878Y-65976413D01*
X141438630Y-65925766D01*
X141507866Y-65910056D01*
X141574606Y-65934272D01*
X141611121Y-65976413D01*
X141657405Y-66063004D01*
X141783432Y-66216568D01*
X141936996Y-66342595D01*
X142112196Y-66436241D01*
X142302299Y-66493908D01*
X142302303Y-66493908D01*
X142302305Y-66493909D01*
X142499997Y-66513380D01*
X142500000Y-66513380D01*
X142500003Y-66513380D01*
X142697694Y-66493909D01*
X142697695Y-66493908D01*
X142697701Y-66493908D01*
X142887804Y-66436241D01*
X143063004Y-66342595D01*
X143216568Y-66216568D01*
X143342595Y-66063004D01*
X143388878Y-65976413D01*
X143438630Y-65925766D01*
X143507866Y-65910056D01*
X143574606Y-65934272D01*
X143611121Y-65976413D01*
X143657405Y-66063004D01*
X143783432Y-66216568D01*
X143936996Y-66342595D01*
X144112196Y-66436241D01*
X144302299Y-66493908D01*
X144302303Y-66493908D01*
X144302305Y-66493909D01*
X144499997Y-66513380D01*
X144500000Y-66513380D01*
X144500003Y-66513380D01*
X144697694Y-66493909D01*
X144697695Y-66493908D01*
X144697701Y-66493908D01*
X144887804Y-66436241D01*
X145063004Y-66342595D01*
X145216568Y-66216568D01*
X145342595Y-66063004D01*
X145436241Y-65887804D01*
X145493908Y-65697701D01*
X145503905Y-65596207D01*
X145513380Y-65500003D01*
X145513380Y-65499996D01*
X145493909Y-65302305D01*
X145493908Y-65302303D01*
X145493908Y-65302299D01*
X145436241Y-65112196D01*
X145342595Y-64936996D01*
X145216568Y-64783432D01*
X145063004Y-64657405D01*
X144887804Y-64563759D01*
X144697701Y-64506092D01*
X144697700Y-64506091D01*
X144697694Y-64506090D01*
X144500003Y-64486620D01*
X144499997Y-64486620D01*
X144302305Y-64506090D01*
X144112195Y-64563759D01*
X143936995Y-64657405D01*
X143783432Y-64783432D01*
X143657405Y-64936995D01*
X143611122Y-65023585D01*
X143561370Y-65074233D01*
X143492133Y-65089943D01*
X143425394Y-65065727D01*
X143388878Y-65023585D01*
X143345597Y-64942613D01*
X143342595Y-64936996D01*
X143216568Y-64783432D01*
X143063004Y-64657405D01*
X142887804Y-64563759D01*
X142697701Y-64506092D01*
X142697700Y-64506091D01*
X142697694Y-64506090D01*
X142500003Y-64486620D01*
X142499997Y-64486620D01*
X142302305Y-64506090D01*
X142112195Y-64563759D01*
X141936995Y-64657405D01*
X141783432Y-64783432D01*
X141657405Y-64936995D01*
X141611122Y-65023585D01*
X141561370Y-65074233D01*
X141492133Y-65089943D01*
X141425394Y-65065727D01*
X141388878Y-65023585D01*
X141345597Y-64942613D01*
X141342595Y-64936996D01*
X141216568Y-64783432D01*
X141063004Y-64657405D01*
X140887804Y-64563759D01*
X140697701Y-64506092D01*
X140697700Y-64506091D01*
X140697694Y-64506090D01*
X140500003Y-64486620D01*
X140499997Y-64486620D01*
X140302305Y-64506090D01*
X140112195Y-64563759D01*
X139936995Y-64657405D01*
X139783432Y-64783432D01*
X139657405Y-64936995D01*
X139611122Y-65023585D01*
X139561370Y-65074233D01*
X139492133Y-65089943D01*
X139425394Y-65065727D01*
X139388878Y-65023585D01*
X139345597Y-64942613D01*
X139342595Y-64936996D01*
X139216568Y-64783432D01*
X139063004Y-64657405D01*
X138887804Y-64563759D01*
X138697701Y-64506092D01*
X138697700Y-64506091D01*
X138697694Y-64506090D01*
X138500003Y-64486620D01*
X138499997Y-64486620D01*
X138302305Y-64506090D01*
X138112195Y-64563759D01*
X137936995Y-64657405D01*
X137783432Y-64783432D01*
X137657405Y-64936995D01*
X137563759Y-65112195D01*
X137506090Y-65302305D01*
X137486620Y-65499996D01*
X137486620Y-65500003D01*
X110000500Y-65500003D01*
X110000500Y-63952500D01*
X111014500Y-63952500D01*
X111014500Y-65478500D01*
X111778500Y-65478500D01*
X111778500Y-63952500D01*
X112792500Y-63952500D01*
X112792500Y-65478500D01*
X114318500Y-65478500D01*
X115515087Y-65478500D01*
X116858500Y-65478500D01*
X116858500Y-63952500D01*
X117872500Y-63952500D01*
X117872500Y-65478500D01*
X119398500Y-65478500D01*
X119398500Y-63952500D01*
X120412500Y-63952500D01*
X120412500Y-65478500D01*
X121938500Y-65478500D01*
X121938500Y-63952500D01*
X122952500Y-63952500D01*
X122952500Y-65478500D01*
X124478500Y-65478500D01*
X124478500Y-63952500D01*
X125492500Y-63952500D01*
X125492500Y-65478500D01*
X127018500Y-65478500D01*
X127018500Y-63952500D01*
X128032500Y-63952500D01*
X128032500Y-65478500D01*
X129509915Y-65478500D01*
X131490085Y-65478500D01*
X132098500Y-65478500D01*
X132098500Y-63952500D01*
X133112500Y-63952500D01*
X133112500Y-65478500D01*
X134638500Y-65478500D01*
X134638500Y-63952500D01*
X135652500Y-63952500D01*
X135652500Y-65478500D01*
X136472620Y-65478500D01*
X136472620Y-65473557D01*
X136472696Y-65470465D01*
X136474684Y-65430010D01*
X136474911Y-65426927D01*
X136499567Y-65176583D01*
X136499946Y-65173513D01*
X136505894Y-65133419D01*
X136506424Y-65130369D01*
X136516744Y-65078502D01*
X136517421Y-65075487D01*
X136527257Y-65036224D01*
X136528082Y-65033244D01*
X136601097Y-64792544D01*
X136602067Y-64789608D01*
X136615715Y-64751463D01*
X136616829Y-64748575D01*
X136637069Y-64699715D01*
X136638322Y-64696888D01*
X136655637Y-64660279D01*
X136657027Y-64657517D01*
X136775600Y-64435682D01*
X136777125Y-64432990D01*
X136797946Y-64398254D01*
X136799599Y-64395643D01*
X136828980Y-64351670D01*
X136830761Y-64349141D01*
X136854894Y-64316601D01*
X136856797Y-64314163D01*
X137016376Y-64119716D01*
X137018396Y-64117374D01*
X137045597Y-64087363D01*
X137047729Y-64085123D01*
X137085123Y-64047729D01*
X137087363Y-64045597D01*
X137117374Y-64018396D01*
X137119716Y-64016376D01*
X137178500Y-63968132D01*
X137178500Y-63952500D01*
X145812500Y-63952500D01*
X145812500Y-63960746D01*
X145880284Y-64016376D01*
X145882626Y-64018396D01*
X145912637Y-64045597D01*
X145914877Y-64047729D01*
X145952271Y-64085123D01*
X145954403Y-64087363D01*
X145981604Y-64117374D01*
X145983624Y-64119716D01*
X146143203Y-64314163D01*
X146145106Y-64316601D01*
X146169239Y-64349141D01*
X146171020Y-64351670D01*
X146200401Y-64395643D01*
X146202054Y-64398254D01*
X146222875Y-64432990D01*
X146224400Y-64435682D01*
X146342973Y-64657517D01*
X146344363Y-64660279D01*
X146361678Y-64696888D01*
X146362931Y-64699715D01*
X146383171Y-64748575D01*
X146384285Y-64751463D01*
X146397933Y-64789608D01*
X146398903Y-64792544D01*
X146471918Y-65033244D01*
X146472743Y-65036224D01*
X146482579Y-65075487D01*
X146483256Y-65078502D01*
X146493576Y-65130369D01*
X146494106Y-65133419D01*
X146500054Y-65173513D01*
X146500433Y-65176583D01*
X146525089Y-65426927D01*
X146525316Y-65430010D01*
X146527304Y-65470465D01*
X146527380Y-65473557D01*
X146527380Y-65478500D01*
X147338500Y-65478500D01*
X147338500Y-63952500D01*
X148352500Y-63952500D01*
X148352500Y-65478500D01*
X148915814Y-65478500D01*
X151084186Y-65478500D01*
X152418500Y-65478500D01*
X152418500Y-63952500D01*
X153432500Y-63952500D01*
X153432500Y-65478500D01*
X154958500Y-65478500D01*
X154958500Y-63952500D01*
X155972500Y-63952500D01*
X155972500Y-65478500D01*
X157498500Y-65478500D01*
X157498500Y-65260317D01*
X157332737Y-65215902D01*
X157312098Y-65208390D01*
X157111332Y-65114771D01*
X157092312Y-65103789D01*
X156910852Y-64976730D01*
X156894027Y-64962612D01*
X156737388Y-64805973D01*
X156723270Y-64789148D01*
X156596211Y-64607688D01*
X156585229Y-64588668D01*
X156543882Y-64500000D01*
X160051844Y-64500000D01*
X160068393Y-64699715D01*
X160070437Y-64724375D01*
X160125702Y-64942612D01*
X160125703Y-64942613D01*
X160125704Y-64942616D01*
X160209397Y-65133419D01*
X160216141Y-65148793D01*
X160339275Y-65337265D01*
X160339279Y-65337270D01*
X160491762Y-65502908D01*
X160546331Y-65545381D01*
X160669424Y-65641189D01*
X160867426Y-65748342D01*
X160867427Y-65748342D01*
X160867428Y-65748343D01*
X160979227Y-65786723D01*
X161080365Y-65821444D01*
X161302431Y-65858500D01*
X161302435Y-65858500D01*
X161527565Y-65858500D01*
X161527569Y-65858500D01*
X161749635Y-65821444D01*
X161962574Y-65748342D01*
X162160576Y-65641189D01*
X162338240Y-65502906D01*
X162490722Y-65337268D01*
X162579519Y-65201353D01*
X162633518Y-65155268D01*
X162703866Y-65145692D01*
X162768224Y-65175668D01*
X162790482Y-65201356D01*
X162879275Y-65337265D01*
X162879279Y-65337270D01*
X163031762Y-65502908D01*
X163086331Y-65545381D01*
X163209424Y-65641189D01*
X163407426Y-65748342D01*
X163407427Y-65748342D01*
X163407428Y-65748343D01*
X163519227Y-65786723D01*
X163620365Y-65821444D01*
X163842431Y-65858500D01*
X163842435Y-65858500D01*
X164067565Y-65858500D01*
X164067569Y-65858500D01*
X164289635Y-65821444D01*
X164502574Y-65748342D01*
X164700576Y-65641189D01*
X164878240Y-65502906D01*
X165030722Y-65337268D01*
X165119518Y-65201354D01*
X165173520Y-65155268D01*
X165243868Y-65145692D01*
X165308225Y-65175669D01*
X165330480Y-65201353D01*
X165335078Y-65208390D01*
X165419275Y-65337265D01*
X165419279Y-65337270D01*
X165571762Y-65502908D01*
X165626331Y-65545381D01*
X165749424Y-65641189D01*
X165947426Y-65748342D01*
X165947427Y-65748342D01*
X165947428Y-65748343D01*
X166059227Y-65786723D01*
X166160365Y-65821444D01*
X166382431Y-65858500D01*
X166382435Y-65858500D01*
X166607565Y-65858500D01*
X166607569Y-65858500D01*
X166829635Y-65821444D01*
X167042574Y-65748342D01*
X167240576Y-65641189D01*
X167418240Y-65502906D01*
X167570722Y-65337268D01*
X167659519Y-65201353D01*
X167713518Y-65155268D01*
X167783866Y-65145692D01*
X167848224Y-65175668D01*
X167870482Y-65201356D01*
X167959275Y-65337265D01*
X167959279Y-65337270D01*
X168111762Y-65502908D01*
X168166331Y-65545381D01*
X168289424Y-65641189D01*
X168487426Y-65748342D01*
X168487427Y-65748342D01*
X168487428Y-65748343D01*
X168599227Y-65786723D01*
X168700365Y-65821444D01*
X168922431Y-65858500D01*
X168922435Y-65858500D01*
X169147565Y-65858500D01*
X169147569Y-65858500D01*
X169369635Y-65821444D01*
X169582574Y-65748342D01*
X169780576Y-65641189D01*
X169958240Y-65502906D01*
X170019245Y-65436637D01*
X170080096Y-65400067D01*
X170151061Y-65402200D01*
X170209606Y-65442362D01*
X170230000Y-65477941D01*
X170274111Y-65596204D01*
X170274112Y-65596207D01*
X170361738Y-65713261D01*
X170478792Y-65800887D01*
X170478794Y-65800888D01*
X170478796Y-65800889D01*
X170533900Y-65821442D01*
X170615795Y-65851988D01*
X170615803Y-65851990D01*
X170676350Y-65858499D01*
X170676355Y-65858499D01*
X170676362Y-65858500D01*
X170676368Y-65858500D01*
X172473632Y-65858500D01*
X172473638Y-65858500D01*
X172473645Y-65858499D01*
X172473649Y-65858499D01*
X172534196Y-65851990D01*
X172534199Y-65851989D01*
X172534201Y-65851989D01*
X172671204Y-65800889D01*
X172741399Y-65748342D01*
X172788261Y-65713261D01*
X172875887Y-65596207D01*
X172875887Y-65596206D01*
X172875889Y-65596204D01*
X172926989Y-65459201D01*
X172928800Y-65442362D01*
X172933499Y-65398649D01*
X172933500Y-65398632D01*
X172933500Y-63601367D01*
X172933499Y-63601350D01*
X172926990Y-63540803D01*
X172926988Y-63540795D01*
X172875889Y-63403797D01*
X172875887Y-63403792D01*
X172788261Y-63286738D01*
X172671207Y-63199112D01*
X172671202Y-63199110D01*
X172534204Y-63148011D01*
X172534196Y-63148009D01*
X172473649Y-63141500D01*
X172473638Y-63141500D01*
X170676362Y-63141500D01*
X170676350Y-63141500D01*
X170615803Y-63148009D01*
X170615795Y-63148011D01*
X170478797Y-63199110D01*
X170478792Y-63199112D01*
X170361738Y-63286738D01*
X170274112Y-63403792D01*
X170274111Y-63403795D01*
X170230000Y-63522058D01*
X170187453Y-63578893D01*
X170120932Y-63603703D01*
X170051558Y-63588611D01*
X170019246Y-63563363D01*
X169958240Y-63497094D01*
X169958239Y-63497093D01*
X169958237Y-63497091D01*
X169838372Y-63403796D01*
X169780576Y-63358811D01*
X169582574Y-63251658D01*
X169582572Y-63251657D01*
X169582571Y-63251656D01*
X169369639Y-63178557D01*
X169369630Y-63178555D01*
X169325476Y-63171187D01*
X169147569Y-63141500D01*
X168922431Y-63141500D01*
X168774211Y-63166233D01*
X168700369Y-63178555D01*
X168700360Y-63178557D01*
X168487428Y-63251656D01*
X168487426Y-63251658D01*
X168289426Y-63358810D01*
X168289424Y-63358811D01*
X168111762Y-63497091D01*
X167959279Y-63662729D01*
X167870483Y-63798643D01*
X167816479Y-63844731D01*
X167746131Y-63854306D01*
X167681774Y-63824329D01*
X167659517Y-63798643D01*
X167570720Y-63662729D01*
X167418237Y-63497091D01*
X167298372Y-63403796D01*
X167240576Y-63358811D01*
X167042574Y-63251658D01*
X167042572Y-63251657D01*
X167042571Y-63251656D01*
X166829639Y-63178557D01*
X166829630Y-63178555D01*
X166785476Y-63171187D01*
X166607569Y-63141500D01*
X166382431Y-63141500D01*
X166234211Y-63166233D01*
X166160369Y-63178555D01*
X166160360Y-63178557D01*
X165947428Y-63251656D01*
X165947426Y-63251658D01*
X165749426Y-63358810D01*
X165749424Y-63358811D01*
X165571762Y-63497091D01*
X165419279Y-63662729D01*
X165330483Y-63798643D01*
X165276479Y-63844731D01*
X165206131Y-63854306D01*
X165141774Y-63824329D01*
X165119517Y-63798643D01*
X165030720Y-63662729D01*
X164878237Y-63497091D01*
X164758372Y-63403796D01*
X164700576Y-63358811D01*
X164502574Y-63251658D01*
X164502572Y-63251657D01*
X164502571Y-63251656D01*
X164289639Y-63178557D01*
X164289630Y-63178555D01*
X164245476Y-63171187D01*
X164067569Y-63141500D01*
X163842431Y-63141500D01*
X163694211Y-63166233D01*
X163620369Y-63178555D01*
X163620360Y-63178557D01*
X163407428Y-63251656D01*
X163407426Y-63251658D01*
X163209426Y-63358810D01*
X163209424Y-63358811D01*
X163031762Y-63497091D01*
X162879279Y-63662729D01*
X162790483Y-63798643D01*
X162736479Y-63844731D01*
X162666131Y-63854306D01*
X162601774Y-63824329D01*
X162579517Y-63798643D01*
X162490720Y-63662729D01*
X162338237Y-63497091D01*
X162218372Y-63403796D01*
X162160576Y-63358811D01*
X161962574Y-63251658D01*
X161962572Y-63251657D01*
X161962571Y-63251656D01*
X161749639Y-63178557D01*
X161749630Y-63178555D01*
X161705476Y-63171187D01*
X161527569Y-63141500D01*
X161302431Y-63141500D01*
X161154211Y-63166233D01*
X161080369Y-63178555D01*
X161080360Y-63178557D01*
X160867428Y-63251656D01*
X160867426Y-63251658D01*
X160669426Y-63358810D01*
X160669424Y-63358811D01*
X160491762Y-63497091D01*
X160339279Y-63662729D01*
X160339275Y-63662734D01*
X160216141Y-63851206D01*
X160125703Y-64057386D01*
X160125702Y-64057387D01*
X160070437Y-64275624D01*
X160070436Y-64275630D01*
X160070436Y-64275632D01*
X160051844Y-64500000D01*
X156543882Y-64500000D01*
X156491610Y-64387902D01*
X156484098Y-64367263D01*
X156426764Y-64153289D01*
X156422950Y-64131660D01*
X156407275Y-63952500D01*
X155972500Y-63952500D01*
X154958500Y-63952500D01*
X153432500Y-63952500D01*
X152418500Y-63952500D01*
X151233968Y-63952500D01*
X151308390Y-64112098D01*
X151315902Y-64132737D01*
X151373236Y-64346711D01*
X151377050Y-64368340D01*
X151396357Y-64589018D01*
X151396357Y-64610982D01*
X151377050Y-64831660D01*
X151373236Y-64853289D01*
X151315902Y-65067263D01*
X151308390Y-65087902D01*
X151214771Y-65288668D01*
X151203789Y-65307688D01*
X151084186Y-65478500D01*
X148915814Y-65478500D01*
X148796211Y-65307688D01*
X148785229Y-65288668D01*
X148691610Y-65087902D01*
X148684098Y-65067263D01*
X148626764Y-64853289D01*
X148622950Y-64831660D01*
X148603643Y-64610982D01*
X148603643Y-64589018D01*
X148622950Y-64368340D01*
X148626764Y-64346711D01*
X148684098Y-64132737D01*
X148691610Y-64112098D01*
X148766032Y-63952500D01*
X148352500Y-63952500D01*
X147338500Y-63952500D01*
X145812500Y-63952500D01*
X137178500Y-63952500D01*
X135652500Y-63952500D01*
X134638500Y-63952500D01*
X133112500Y-63952500D01*
X132098500Y-63952500D01*
X131780599Y-63952500D01*
X131808390Y-64012098D01*
X131815902Y-64032737D01*
X131873236Y-64246711D01*
X131877050Y-64268340D01*
X131896357Y-64489018D01*
X131896357Y-64510982D01*
X131877050Y-64731660D01*
X131873236Y-64753289D01*
X131815902Y-64967263D01*
X131808390Y-64987902D01*
X131714771Y-65188668D01*
X131703789Y-65207688D01*
X131576730Y-65389148D01*
X131562612Y-65405973D01*
X131490085Y-65478500D01*
X129509915Y-65478500D01*
X129437388Y-65405973D01*
X129423270Y-65389148D01*
X129296211Y-65207688D01*
X129285229Y-65188668D01*
X129191610Y-64987902D01*
X129184098Y-64967263D01*
X129126764Y-64753289D01*
X129122950Y-64731660D01*
X129103643Y-64510982D01*
X129103643Y-64489018D01*
X129122950Y-64268340D01*
X129126764Y-64246711D01*
X129184098Y-64032737D01*
X129191610Y-64012098D01*
X129219401Y-63952500D01*
X128032500Y-63952500D01*
X127018500Y-63952500D01*
X125492500Y-63952500D01*
X124478500Y-63952500D01*
X122952500Y-63952500D01*
X121938500Y-63952500D01*
X120412500Y-63952500D01*
X119398500Y-63952500D01*
X117872500Y-63952500D01*
X116858500Y-63952500D01*
X116684413Y-63952500D01*
X116696357Y-64089018D01*
X116696357Y-64110982D01*
X116677050Y-64331660D01*
X116673236Y-64353289D01*
X116615902Y-64567263D01*
X116608390Y-64587902D01*
X116514771Y-64788668D01*
X116503789Y-64807688D01*
X116376730Y-64989148D01*
X116362612Y-65005973D01*
X116205973Y-65162612D01*
X116189148Y-65176730D01*
X116007688Y-65303789D01*
X115988668Y-65314771D01*
X115787902Y-65408390D01*
X115767263Y-65415902D01*
X115553289Y-65473236D01*
X115531660Y-65477050D01*
X115515087Y-65478500D01*
X114318500Y-65478500D01*
X114318500Y-65087085D01*
X114237388Y-65005973D01*
X114223270Y-64989148D01*
X114096211Y-64807688D01*
X114085229Y-64788668D01*
X113991610Y-64587902D01*
X113984098Y-64567263D01*
X113926764Y-64353289D01*
X113922950Y-64331660D01*
X113903643Y-64110982D01*
X113903643Y-64089018D01*
X113915587Y-63952500D01*
X112792500Y-63952500D01*
X111778500Y-63952500D01*
X111014500Y-63952500D01*
X110000500Y-63952500D01*
X110000500Y-61412500D01*
X111014500Y-61412500D01*
X111014500Y-62938500D01*
X111778500Y-62938500D01*
X111778500Y-61412500D01*
X112792500Y-61412500D01*
X112792500Y-62938500D01*
X114318500Y-62938500D01*
X116222339Y-62938500D01*
X116858500Y-62938500D01*
X116858500Y-61412500D01*
X117872500Y-61412500D01*
X117872500Y-62938500D01*
X119398500Y-62938500D01*
X119398500Y-61412500D01*
X120412500Y-61412500D01*
X120412500Y-62938500D01*
X121938500Y-62938500D01*
X121938500Y-61988426D01*
X122952500Y-61988426D01*
X122952500Y-62938500D01*
X124478500Y-62938500D01*
X125492500Y-62938500D01*
X127018500Y-62938500D01*
X127018500Y-61412500D01*
X128032500Y-61412500D01*
X128032500Y-62938500D01*
X129558500Y-62938500D01*
X129558500Y-62064313D01*
X130572500Y-62064313D01*
X130572500Y-62938500D01*
X132098500Y-62938500D01*
X133112500Y-62938500D01*
X134638500Y-62938500D01*
X135652500Y-62938500D01*
X137178500Y-62938500D01*
X137178500Y-61591567D01*
X137023624Y-61780284D01*
X137021604Y-61782626D01*
X136994403Y-61812637D01*
X136992271Y-61814877D01*
X136954877Y-61852271D01*
X136952637Y-61854403D01*
X136922626Y-61881604D01*
X136920284Y-61883624D01*
X136725837Y-62043203D01*
X136723399Y-62045106D01*
X136690859Y-62069239D01*
X136688330Y-62071020D01*
X136644357Y-62100401D01*
X136641746Y-62102054D01*
X136607010Y-62122875D01*
X136604318Y-62124400D01*
X136382483Y-62242973D01*
X136379721Y-62244363D01*
X136343112Y-62261678D01*
X136340285Y-62262931D01*
X136291425Y-62283171D01*
X136288537Y-62284285D01*
X136250392Y-62297933D01*
X136247456Y-62298903D01*
X136006756Y-62371918D01*
X136003776Y-62372743D01*
X135964513Y-62382579D01*
X135961498Y-62383256D01*
X135909631Y-62393576D01*
X135906581Y-62394106D01*
X135866487Y-62400054D01*
X135863417Y-62400433D01*
X135652500Y-62421205D01*
X135652500Y-62938500D01*
X134638500Y-62938500D01*
X134638500Y-62393772D01*
X134636581Y-62394106D01*
X134596487Y-62400054D01*
X134593417Y-62400433D01*
X134343073Y-62425089D01*
X134339990Y-62425316D01*
X134299535Y-62427304D01*
X134296443Y-62427380D01*
X134243557Y-62427380D01*
X134240465Y-62427304D01*
X134200010Y-62425316D01*
X134196927Y-62425089D01*
X133946583Y-62400433D01*
X133943513Y-62400054D01*
X133903419Y-62394106D01*
X133900369Y-62393576D01*
X133848502Y-62383256D01*
X133845487Y-62382579D01*
X133806223Y-62372743D01*
X133803244Y-62371918D01*
X133635000Y-62320881D01*
X133466756Y-62371918D01*
X133463777Y-62372743D01*
X133424513Y-62382579D01*
X133421498Y-62383256D01*
X133369631Y-62393576D01*
X133366581Y-62394106D01*
X133326487Y-62400054D01*
X133323417Y-62400433D01*
X133112500Y-62421205D01*
X133112500Y-62938500D01*
X132098500Y-62938500D01*
X132098500Y-62393772D01*
X132096581Y-62394106D01*
X132056487Y-62400054D01*
X132053417Y-62400433D01*
X131803073Y-62425089D01*
X131799990Y-62425316D01*
X131759535Y-62427304D01*
X131756443Y-62427380D01*
X131703557Y-62427380D01*
X131700465Y-62427304D01*
X131660010Y-62425316D01*
X131656927Y-62425089D01*
X131406583Y-62400433D01*
X131403513Y-62400054D01*
X131363419Y-62394106D01*
X131360369Y-62393576D01*
X131308502Y-62383256D01*
X131305487Y-62382579D01*
X131266224Y-62372743D01*
X131263244Y-62371918D01*
X131022544Y-62298903D01*
X131019608Y-62297933D01*
X130981463Y-62284285D01*
X130978575Y-62283171D01*
X130929715Y-62262931D01*
X130926888Y-62261678D01*
X130890279Y-62244363D01*
X130887517Y-62242973D01*
X130665682Y-62124400D01*
X130662990Y-62122875D01*
X130628254Y-62102054D01*
X130625643Y-62100401D01*
X130581670Y-62071020D01*
X130579141Y-62069239D01*
X130572500Y-62064313D01*
X129558500Y-62064313D01*
X129558500Y-61412500D01*
X128032500Y-61412500D01*
X127018500Y-61412500D01*
X126586008Y-61412500D01*
X126575143Y-61427718D01*
X126393458Y-61661145D01*
X126369748Y-61689140D01*
X126337827Y-61723820D01*
X126311849Y-61749799D01*
X126094209Y-61950150D01*
X126066201Y-61973871D01*
X126029008Y-62002820D01*
X125999124Y-62024159D01*
X125751483Y-62185949D01*
X125719948Y-62204741D01*
X125678494Y-62227174D01*
X125645510Y-62243299D01*
X125492500Y-62310415D01*
X125492500Y-62938500D01*
X124478500Y-62938500D01*
X124478500Y-62514500D01*
X124416993Y-62514500D01*
X124375107Y-62512770D01*
X124144963Y-62493699D01*
X124108552Y-62489161D01*
X124062060Y-62481404D01*
X124026110Y-62473867D01*
X123739353Y-62401250D01*
X123704178Y-62390778D01*
X123659597Y-62375475D01*
X123625386Y-62362126D01*
X123354490Y-62243299D01*
X123321506Y-62227174D01*
X123280052Y-62204741D01*
X123248517Y-62185949D01*
X123000876Y-62024159D01*
X122970992Y-62002820D01*
X122952500Y-61988426D01*
X121938500Y-61988426D01*
X121938500Y-61412500D01*
X120412500Y-61412500D01*
X119398500Y-61412500D01*
X117872500Y-61412500D01*
X116858500Y-61412500D01*
X116673877Y-61412500D01*
X116723236Y-61596711D01*
X116727050Y-61618340D01*
X116746357Y-61839018D01*
X116746357Y-61860982D01*
X116727050Y-62081660D01*
X116723236Y-62103289D01*
X116665902Y-62317263D01*
X116658390Y-62337902D01*
X116564771Y-62538668D01*
X116553789Y-62557688D01*
X116426730Y-62739148D01*
X116412612Y-62755973D01*
X116255973Y-62912612D01*
X116239148Y-62926730D01*
X116222339Y-62938500D01*
X114318500Y-62938500D01*
X114318500Y-62787085D01*
X114287388Y-62755974D01*
X114273270Y-62739148D01*
X114146211Y-62557688D01*
X114135229Y-62538668D01*
X114041610Y-62337902D01*
X114034098Y-62317263D01*
X113976764Y-62103289D01*
X113972950Y-62081660D01*
X113953643Y-61860982D01*
X113953643Y-61839018D01*
X113972950Y-61618340D01*
X113976764Y-61596711D01*
X114026123Y-61412500D01*
X112792500Y-61412500D01*
X111778500Y-61412500D01*
X111014500Y-61412500D01*
X110000500Y-61412500D01*
X110000500Y-58872500D01*
X111014500Y-58872500D01*
X111014500Y-60398500D01*
X111778500Y-60398500D01*
X111778500Y-58872500D01*
X112792500Y-58872500D01*
X112792500Y-60398500D01*
X114318500Y-60398500D01*
X114318500Y-58872500D01*
X115332500Y-58872500D01*
X115332500Y-60398500D01*
X116858500Y-60398500D01*
X116858500Y-58872500D01*
X117872500Y-58872500D01*
X117872500Y-60398500D01*
X119398500Y-60398500D01*
X119398500Y-58872500D01*
X120412500Y-58872500D01*
X120412500Y-60398500D01*
X121938500Y-60398500D01*
X121938500Y-60124335D01*
X122999500Y-60124335D01*
X123033647Y-60328975D01*
X123040428Y-60369609D01*
X123040430Y-60369618D01*
X123121170Y-60604807D01*
X123121171Y-60604809D01*
X123121172Y-60604810D01*
X123239526Y-60823509D01*
X123348099Y-60963004D01*
X123392267Y-61019750D01*
X123575214Y-61188164D01*
X123783393Y-61324173D01*
X123783392Y-61324173D01*
X123929411Y-61388222D01*
X124011119Y-61424063D01*
X124011120Y-61424063D01*
X124011122Y-61424064D01*
X124252171Y-61485106D01*
X124252179Y-61485108D01*
X124417446Y-61498802D01*
X124437931Y-61500500D01*
X124437933Y-61500500D01*
X124562069Y-61500500D01*
X124581483Y-61498891D01*
X124747821Y-61485108D01*
X124988881Y-61424063D01*
X125216607Y-61324173D01*
X125424785Y-61188164D01*
X125502560Y-61116567D01*
X125607732Y-61019750D01*
X125607733Y-61019748D01*
X125607738Y-61019744D01*
X125760474Y-60823509D01*
X125878828Y-60604810D01*
X125949139Y-60400000D01*
X130716620Y-60400000D01*
X130736090Y-60597694D01*
X130736091Y-60597700D01*
X130736092Y-60597701D01*
X130793759Y-60787804D01*
X130887405Y-60963004D01*
X131013432Y-61116568D01*
X131166996Y-61242595D01*
X131342196Y-61336241D01*
X131532299Y-61393908D01*
X131532303Y-61393908D01*
X131532305Y-61393909D01*
X131729997Y-61413380D01*
X131730000Y-61413380D01*
X131730003Y-61413380D01*
X131927694Y-61393909D01*
X131927695Y-61393908D01*
X131927701Y-61393908D01*
X132117804Y-61336241D01*
X132293004Y-61242595D01*
X132293017Y-61242584D01*
X132294993Y-61241265D01*
X132296198Y-61240887D01*
X132298463Y-61239677D01*
X132298692Y-61240106D01*
X132362744Y-61220047D01*
X132431212Y-61238827D01*
X132435007Y-61241265D01*
X132436987Y-61242587D01*
X132436996Y-61242595D01*
X132612196Y-61336241D01*
X132802299Y-61393908D01*
X132802303Y-61393908D01*
X132802305Y-61393909D01*
X132999997Y-61413380D01*
X133000000Y-61413380D01*
X133000003Y-61413380D01*
X133197694Y-61393909D01*
X133197695Y-61393908D01*
X133197701Y-61393908D01*
X133387804Y-61336241D01*
X133563004Y-61242595D01*
X133563017Y-61242584D01*
X133564993Y-61241265D01*
X133566198Y-61240887D01*
X133568463Y-61239677D01*
X133568692Y-61240106D01*
X133632744Y-61220047D01*
X133701212Y-61238827D01*
X133705007Y-61241265D01*
X133706987Y-61242587D01*
X133706996Y-61242595D01*
X133882196Y-61336241D01*
X134072299Y-61393908D01*
X134072303Y-61393908D01*
X134072305Y-61393909D01*
X134269997Y-61413380D01*
X134270000Y-61413380D01*
X134270003Y-61413380D01*
X134467694Y-61393909D01*
X134467695Y-61393908D01*
X134467701Y-61393908D01*
X134657804Y-61336241D01*
X134833004Y-61242595D01*
X134833017Y-61242584D01*
X134834993Y-61241265D01*
X134836198Y-61240887D01*
X134838463Y-61239677D01*
X134838692Y-61240106D01*
X134902744Y-61220047D01*
X134971212Y-61238827D01*
X134975007Y-61241265D01*
X134976987Y-61242587D01*
X134976996Y-61242595D01*
X135152196Y-61336241D01*
X135342299Y-61393908D01*
X135342303Y-61393908D01*
X135342305Y-61393909D01*
X135539997Y-61413380D01*
X135540000Y-61413380D01*
X135540003Y-61413380D01*
X135548938Y-61412500D01*
X138192500Y-61412500D01*
X138192500Y-62938500D01*
X139718500Y-62938500D01*
X139718500Y-61412500D01*
X143272500Y-61412500D01*
X143272500Y-62938500D01*
X144798500Y-62938500D01*
X144798500Y-61412500D01*
X145812500Y-61412500D01*
X145812500Y-62938500D01*
X147338500Y-62938500D01*
X147338500Y-61412500D01*
X148352500Y-61412500D01*
X148352500Y-62938500D01*
X149878500Y-62938500D01*
X150892500Y-62938500D01*
X152418500Y-62938500D01*
X152418500Y-61412500D01*
X153432500Y-61412500D01*
X153432500Y-62938500D01*
X154958500Y-62938500D01*
X154958500Y-61412500D01*
X155972500Y-61412500D01*
X155972500Y-62938500D01*
X156792915Y-62938500D01*
X156894027Y-62837388D01*
X156910852Y-62823270D01*
X157087501Y-62699580D01*
X158512500Y-62699580D01*
X158689148Y-62823270D01*
X158705973Y-62837388D01*
X158807085Y-62938500D01*
X159627746Y-62938500D01*
X159761691Y-62792999D01*
X159787625Y-62767064D01*
X159822298Y-62735141D01*
X159850335Y-62711392D01*
X160038500Y-62564936D01*
X160038500Y-62290238D01*
X159874614Y-62362126D01*
X159840403Y-62375475D01*
X159795822Y-62390778D01*
X159760647Y-62401250D01*
X159473890Y-62473867D01*
X159437940Y-62481404D01*
X159391448Y-62489161D01*
X159355037Y-62493699D01*
X159124893Y-62512770D01*
X159083007Y-62514500D01*
X158916993Y-62514500D01*
X158875107Y-62512770D01*
X158644963Y-62493699D01*
X158608552Y-62489161D01*
X158562060Y-62481404D01*
X158526110Y-62473867D01*
X158512500Y-62470420D01*
X158512500Y-62699580D01*
X157087501Y-62699580D01*
X157092312Y-62696211D01*
X157111332Y-62685229D01*
X157312098Y-62591610D01*
X157332737Y-62584098D01*
X157498500Y-62539682D01*
X157498500Y-62022461D01*
X157470992Y-62002820D01*
X157433799Y-61973871D01*
X157405791Y-61950150D01*
X157188151Y-61749799D01*
X157162173Y-61723820D01*
X157130252Y-61689140D01*
X157106542Y-61661145D01*
X156924857Y-61427718D01*
X156913992Y-61412500D01*
X155972500Y-61412500D01*
X154958500Y-61412500D01*
X153432500Y-61412500D01*
X152418500Y-61412500D01*
X151387475Y-61412500D01*
X151377050Y-61531660D01*
X151373236Y-61553289D01*
X151315902Y-61767263D01*
X151308390Y-61787902D01*
X151214771Y-61988668D01*
X151203789Y-62007688D01*
X151076730Y-62189148D01*
X151062612Y-62205973D01*
X150905973Y-62362612D01*
X150892500Y-62373917D01*
X150892500Y-62938500D01*
X149878500Y-62938500D01*
X149878500Y-62686687D01*
X149768340Y-62677050D01*
X149746711Y-62673236D01*
X149532737Y-62615902D01*
X149512098Y-62608390D01*
X149311332Y-62514771D01*
X149292312Y-62503789D01*
X149110852Y-62376730D01*
X149094027Y-62362612D01*
X148937388Y-62205973D01*
X148923270Y-62189148D01*
X148796211Y-62007688D01*
X148785229Y-61988668D01*
X148691610Y-61787902D01*
X148684098Y-61767263D01*
X148626764Y-61553289D01*
X148622950Y-61531660D01*
X148612525Y-61412500D01*
X148352500Y-61412500D01*
X147338500Y-61412500D01*
X145812500Y-61412500D01*
X144798500Y-61412500D01*
X143272500Y-61412500D01*
X139718500Y-61412500D01*
X138192500Y-61412500D01*
X135548938Y-61412500D01*
X135737694Y-61393909D01*
X135737695Y-61393908D01*
X135737701Y-61393908D01*
X135927804Y-61336241D01*
X136103004Y-61242595D01*
X136256568Y-61116568D01*
X136382595Y-60963004D01*
X136476241Y-60787804D01*
X136533908Y-60597701D01*
X136553380Y-60400000D01*
X136553380Y-60399996D01*
X136533909Y-60202305D01*
X136533908Y-60202303D01*
X136533908Y-60202299D01*
X136476241Y-60012196D01*
X136382595Y-59836996D01*
X136256568Y-59683432D01*
X136103004Y-59557405D01*
X135927804Y-59463759D01*
X135737701Y-59406092D01*
X135737700Y-59406091D01*
X135737694Y-59406090D01*
X135540003Y-59386620D01*
X135539997Y-59386620D01*
X135342305Y-59406090D01*
X135152195Y-59463759D01*
X134976991Y-59557407D01*
X134974997Y-59558740D01*
X134973793Y-59559116D01*
X134971537Y-59560323D01*
X134971308Y-59559894D01*
X134907243Y-59579952D01*
X134838777Y-59561166D01*
X134835003Y-59558740D01*
X134833008Y-59557407D01*
X134657804Y-59463759D01*
X134467694Y-59406090D01*
X134270003Y-59386620D01*
X134269997Y-59386620D01*
X134072305Y-59406090D01*
X133882195Y-59463759D01*
X133706991Y-59557407D01*
X133704997Y-59558740D01*
X133703793Y-59559116D01*
X133701537Y-59560323D01*
X133701308Y-59559894D01*
X133637243Y-59579952D01*
X133568777Y-59561166D01*
X133565003Y-59558740D01*
X133563008Y-59557407D01*
X133387804Y-59463759D01*
X133197694Y-59406090D01*
X133000003Y-59386620D01*
X132999997Y-59386620D01*
X132802305Y-59406090D01*
X132612195Y-59463759D01*
X132436989Y-59557408D01*
X132434989Y-59558745D01*
X132433783Y-59559122D01*
X132431537Y-59560323D01*
X132431309Y-59559896D01*
X132367234Y-59579952D01*
X132298769Y-59561162D01*
X132294995Y-59558736D01*
X132293008Y-59557408D01*
X132293004Y-59557405D01*
X132117804Y-59463759D01*
X131927701Y-59406092D01*
X131927700Y-59406091D01*
X131927694Y-59406090D01*
X131730003Y-59386620D01*
X131729997Y-59386620D01*
X131532305Y-59406090D01*
X131342195Y-59463759D01*
X131166995Y-59557405D01*
X131013432Y-59683432D01*
X130887405Y-59836995D01*
X130793759Y-60012195D01*
X130736090Y-60202305D01*
X130716620Y-60399996D01*
X130716620Y-60400000D01*
X125949139Y-60400000D01*
X125959571Y-60369614D01*
X126000500Y-60124335D01*
X126000500Y-59875665D01*
X125959571Y-59630386D01*
X125921221Y-59518677D01*
X125878829Y-59395192D01*
X125878828Y-59395190D01*
X125760474Y-59176491D01*
X125760473Y-59176490D01*
X125718801Y-59122950D01*
X125607738Y-58980256D01*
X125607736Y-58980254D01*
X125607732Y-58980249D01*
X125490685Y-58872500D01*
X128032500Y-58872500D01*
X128032500Y-60398500D01*
X129374000Y-60398500D01*
X129374000Y-59841644D01*
X129374275Y-59835759D01*
X129377464Y-59801751D01*
X129383985Y-59771900D01*
X129429784Y-59641014D01*
X129447334Y-59607808D01*
X129529678Y-59496236D01*
X129556235Y-59469678D01*
X129558500Y-59468006D01*
X129558500Y-58872500D01*
X138192500Y-58872500D01*
X138192500Y-60398500D01*
X139718500Y-60398500D01*
X139718500Y-58872500D01*
X140732500Y-58872500D01*
X140732500Y-60338091D01*
X140792312Y-60296211D01*
X140811332Y-60285229D01*
X141012098Y-60191610D01*
X141032737Y-60184098D01*
X141246711Y-60126764D01*
X141268340Y-60122950D01*
X141489018Y-60103643D01*
X141510982Y-60103643D01*
X141731660Y-60122950D01*
X141753289Y-60126764D01*
X141967263Y-60184098D01*
X141987902Y-60191610D01*
X142188668Y-60285229D01*
X142207688Y-60296211D01*
X142258500Y-60331789D01*
X142258500Y-58872500D01*
X143272500Y-58872500D01*
X143272500Y-60398500D01*
X144798500Y-60398500D01*
X144798500Y-58872500D01*
X145812500Y-58872500D01*
X145812500Y-60398500D01*
X147338500Y-60398500D01*
X147338500Y-58872500D01*
X148352500Y-58872500D01*
X148352500Y-60398500D01*
X148931117Y-60398500D01*
X151068883Y-60398500D01*
X152418500Y-60398500D01*
X152418500Y-58872500D01*
X153432500Y-58872500D01*
X153432500Y-60398500D01*
X154958500Y-60398500D01*
X154958500Y-58872500D01*
X155972500Y-58872500D01*
X155972500Y-60398500D01*
X156517229Y-60398500D01*
X156495452Y-60267991D01*
X156490912Y-60231576D01*
X156487018Y-60184603D01*
X156485500Y-60147909D01*
X156485500Y-60124335D01*
X157499500Y-60124335D01*
X157533647Y-60328975D01*
X157540428Y-60369609D01*
X157540430Y-60369618D01*
X157621170Y-60604807D01*
X157621171Y-60604809D01*
X157621172Y-60604810D01*
X157739526Y-60823509D01*
X157848099Y-60963004D01*
X157892267Y-61019750D01*
X158075214Y-61188164D01*
X158283393Y-61324173D01*
X158283392Y-61324173D01*
X158429411Y-61388222D01*
X158511119Y-61424063D01*
X158511120Y-61424063D01*
X158511122Y-61424064D01*
X158752171Y-61485106D01*
X158752179Y-61485108D01*
X158917446Y-61498802D01*
X158937931Y-61500500D01*
X158937933Y-61500500D01*
X159062069Y-61500500D01*
X159081483Y-61498891D01*
X159247821Y-61485108D01*
X159488881Y-61424063D01*
X159515242Y-61412500D01*
X163592500Y-61412500D01*
X163592500Y-61633374D01*
X163703789Y-61792312D01*
X163714771Y-61811332D01*
X163808390Y-62012098D01*
X163815902Y-62032737D01*
X163841293Y-62127500D01*
X164091143Y-62127500D01*
X164127837Y-62129018D01*
X164174810Y-62132912D01*
X164211226Y-62137452D01*
X164479784Y-62182265D01*
X164515728Y-62189803D01*
X164561422Y-62201374D01*
X164596595Y-62211847D01*
X164854113Y-62300252D01*
X164888321Y-62313601D01*
X164931484Y-62332535D01*
X164964460Y-62348656D01*
X165118500Y-62432018D01*
X165118500Y-61412500D01*
X166132500Y-61412500D01*
X166132500Y-62155185D01*
X166238774Y-62137452D01*
X166275190Y-62132912D01*
X166322163Y-62129018D01*
X166358857Y-62127500D01*
X166631143Y-62127500D01*
X166667837Y-62129018D01*
X166714810Y-62132912D01*
X166751226Y-62137452D01*
X167019784Y-62182265D01*
X167055728Y-62189803D01*
X167101422Y-62201374D01*
X167136141Y-62211712D01*
X167184098Y-62032737D01*
X167191610Y-62012098D01*
X167285229Y-61811332D01*
X167296211Y-61792312D01*
X167423270Y-61610852D01*
X167437388Y-61594027D01*
X167594027Y-61437388D01*
X167610851Y-61423270D01*
X167626232Y-61412500D01*
X166132500Y-61412500D01*
X165118500Y-61412500D01*
X163592500Y-61412500D01*
X159515242Y-61412500D01*
X159716607Y-61324173D01*
X159924785Y-61188164D01*
X160002560Y-61116567D01*
X160107732Y-61019750D01*
X160107733Y-61019748D01*
X160107738Y-61019744D01*
X160260474Y-60823509D01*
X160378828Y-60604810D01*
X160459571Y-60369614D01*
X160500500Y-60124335D01*
X160500500Y-59875665D01*
X160459571Y-59630386D01*
X160421221Y-59518677D01*
X160378829Y-59395192D01*
X160378828Y-59395190D01*
X160260474Y-59176491D01*
X160260473Y-59176490D01*
X160218801Y-59122950D01*
X160107738Y-58980256D01*
X160107736Y-58980254D01*
X160107732Y-58980249D01*
X159990685Y-58872500D01*
X161248924Y-58872500D01*
X161281829Y-58933303D01*
X161297951Y-58966279D01*
X161316885Y-59009444D01*
X161330233Y-59043651D01*
X161426280Y-59323425D01*
X161436753Y-59358599D01*
X161448325Y-59404293D01*
X161455862Y-59440239D01*
X161475212Y-59556202D01*
X161594027Y-59437388D01*
X161610852Y-59423270D01*
X161792312Y-59296211D01*
X161811332Y-59285229D01*
X162012098Y-59191610D01*
X162032737Y-59184098D01*
X162246711Y-59126764D01*
X162268340Y-59122950D01*
X162489018Y-59103643D01*
X162510981Y-59103643D01*
X162578500Y-59109550D01*
X162578500Y-58872500D01*
X163592500Y-58872500D01*
X163592500Y-59633374D01*
X163703789Y-59792312D01*
X163714771Y-59811332D01*
X163808390Y-60012098D01*
X163815902Y-60032737D01*
X163873236Y-60246711D01*
X163877050Y-60268340D01*
X163888438Y-60398500D01*
X165118500Y-60398500D01*
X165118500Y-58872500D01*
X166132500Y-58872500D01*
X166132500Y-60398500D01*
X167658500Y-60398500D01*
X167658500Y-58872500D01*
X168672500Y-58872500D01*
X168672500Y-60398500D01*
X170198500Y-60398500D01*
X170198500Y-58872500D01*
X171212500Y-58872500D01*
X171212500Y-60398500D01*
X172485500Y-60398500D01*
X172485500Y-58872500D01*
X171212500Y-58872500D01*
X170198500Y-58872500D01*
X168672500Y-58872500D01*
X167658500Y-58872500D01*
X166132500Y-58872500D01*
X165118500Y-58872500D01*
X163592500Y-58872500D01*
X162578500Y-58872500D01*
X161248924Y-58872500D01*
X159990685Y-58872500D01*
X159924785Y-58811835D01*
X159716606Y-58675826D01*
X159716607Y-58675826D01*
X159488884Y-58575938D01*
X159488877Y-58575935D01*
X159247828Y-58514893D01*
X159247823Y-58514892D01*
X159247821Y-58514892D01*
X159114630Y-58503855D01*
X159062069Y-58499500D01*
X159062067Y-58499500D01*
X158937933Y-58499500D01*
X158937931Y-58499500D01*
X158876707Y-58504573D01*
X158752179Y-58514892D01*
X158752177Y-58514892D01*
X158752171Y-58514893D01*
X158511122Y-58575935D01*
X158511115Y-58575938D01*
X158283393Y-58675826D01*
X158075214Y-58811835D01*
X157892267Y-58980249D01*
X157739526Y-59176490D01*
X157739525Y-59176491D01*
X157621171Y-59395190D01*
X157621170Y-59395192D01*
X157540430Y-59630381D01*
X157540428Y-59630390D01*
X157531577Y-59683432D01*
X157499500Y-59875665D01*
X157499500Y-60124335D01*
X156485500Y-60124335D01*
X156485500Y-59852091D01*
X156487018Y-59815397D01*
X156490912Y-59768424D01*
X156495452Y-59732009D01*
X156544138Y-59440239D01*
X156551675Y-59404293D01*
X156563247Y-59358599D01*
X156573720Y-59323425D01*
X156669767Y-59043651D01*
X156683115Y-59009444D01*
X156702049Y-58966279D01*
X156718171Y-58933303D01*
X156751076Y-58872500D01*
X155972500Y-58872500D01*
X154958500Y-58872500D01*
X153432500Y-58872500D01*
X152418500Y-58872500D01*
X151243294Y-58872500D01*
X151308390Y-59012098D01*
X151315902Y-59032737D01*
X151373236Y-59246711D01*
X151377050Y-59268340D01*
X151396357Y-59489018D01*
X151396357Y-59510982D01*
X151377050Y-59731660D01*
X151373236Y-59753289D01*
X151315902Y-59967263D01*
X151308390Y-59987902D01*
X151214771Y-60188668D01*
X151203789Y-60207688D01*
X151076730Y-60389148D01*
X151068883Y-60398500D01*
X148931117Y-60398500D01*
X148923270Y-60389148D01*
X148796211Y-60207688D01*
X148785229Y-60188668D01*
X148691610Y-59987902D01*
X148684098Y-59967263D01*
X148626764Y-59753289D01*
X148622950Y-59731660D01*
X148603643Y-59510982D01*
X148603643Y-59489018D01*
X148622950Y-59268340D01*
X148626764Y-59246711D01*
X148684098Y-59032737D01*
X148691610Y-59012098D01*
X148756706Y-58872500D01*
X148352500Y-58872500D01*
X147338500Y-58872500D01*
X145812500Y-58872500D01*
X144798500Y-58872500D01*
X143272500Y-58872500D01*
X142258500Y-58872500D01*
X140732500Y-58872500D01*
X139718500Y-58872500D01*
X138192500Y-58872500D01*
X129558500Y-58872500D01*
X128032500Y-58872500D01*
X125490685Y-58872500D01*
X125424785Y-58811835D01*
X125216606Y-58675826D01*
X125216607Y-58675826D01*
X124988884Y-58575938D01*
X124988877Y-58575935D01*
X124747828Y-58514893D01*
X124747823Y-58514892D01*
X124747821Y-58514892D01*
X124614630Y-58503855D01*
X124562069Y-58499500D01*
X124562067Y-58499500D01*
X124437933Y-58499500D01*
X124437931Y-58499500D01*
X124376707Y-58504573D01*
X124252179Y-58514892D01*
X124252177Y-58514892D01*
X124252171Y-58514893D01*
X124011122Y-58575935D01*
X124011115Y-58575938D01*
X123783393Y-58675826D01*
X123575214Y-58811835D01*
X123392267Y-58980249D01*
X123239526Y-59176490D01*
X123239525Y-59176491D01*
X123121171Y-59395190D01*
X123121170Y-59395192D01*
X123040430Y-59630381D01*
X123040428Y-59630390D01*
X123031577Y-59683432D01*
X122999500Y-59875665D01*
X122999500Y-60124335D01*
X121938500Y-60124335D01*
X121938500Y-58872500D01*
X120412500Y-58872500D01*
X119398500Y-58872500D01*
X117872500Y-58872500D01*
X116858500Y-58872500D01*
X115332500Y-58872500D01*
X114318500Y-58872500D01*
X112792500Y-58872500D01*
X111778500Y-58872500D01*
X111014500Y-58872500D01*
X110000500Y-58872500D01*
X110000500Y-56332500D01*
X111014500Y-56332500D01*
X111014500Y-57858500D01*
X111778500Y-57858500D01*
X111778500Y-56332500D01*
X112792500Y-56332500D01*
X112792500Y-57858500D01*
X114318500Y-57858500D01*
X114318500Y-56332500D01*
X115332500Y-56332500D01*
X115332500Y-57858500D01*
X116858500Y-57858500D01*
X117872500Y-57858500D01*
X119398500Y-57858500D01*
X119398500Y-56332500D01*
X120412500Y-56332500D01*
X120412500Y-57858500D01*
X121938500Y-57858500D01*
X121938500Y-57689583D01*
X125492499Y-57689583D01*
X125645510Y-57756701D01*
X125678494Y-57772826D01*
X125719948Y-57795259D01*
X125751483Y-57814051D01*
X125819519Y-57858500D01*
X127018500Y-57858500D01*
X127018500Y-56332500D01*
X128032500Y-56332500D01*
X128032500Y-57858500D01*
X129558500Y-57858500D01*
X129558500Y-57757370D01*
X133112499Y-57757370D01*
X133112500Y-57858500D01*
X134638500Y-57858500D01*
X134638500Y-56332500D01*
X135652500Y-56332500D01*
X135652500Y-57858500D01*
X137178500Y-57858500D01*
X137178500Y-56332500D01*
X138192500Y-56332500D01*
X138192500Y-57858500D01*
X139718500Y-57858500D01*
X139718500Y-56883788D01*
X140732500Y-56883788D01*
X140732500Y-57858500D01*
X142258500Y-57858500D01*
X143272500Y-57858500D01*
X144798500Y-57858500D01*
X144798500Y-56332500D01*
X145812500Y-56332500D01*
X145812500Y-57858500D01*
X147338500Y-57858500D01*
X147338500Y-56332500D01*
X148352500Y-56332500D01*
X148352500Y-57858500D01*
X149878500Y-57858500D01*
X150892500Y-57858500D01*
X152418500Y-57858500D01*
X153432500Y-57858500D01*
X154958500Y-57858500D01*
X154958500Y-56332500D01*
X155972500Y-56332500D01*
X155972500Y-57858500D01*
X157498500Y-57858500D01*
X161052500Y-57858500D01*
X162578500Y-57858500D01*
X162578500Y-56332500D01*
X163592500Y-56332500D01*
X163592500Y-57858500D01*
X165118500Y-57858500D01*
X165118500Y-56332500D01*
X166132500Y-56332500D01*
X166132500Y-57858500D01*
X167658500Y-57858500D01*
X167658500Y-56332500D01*
X168672500Y-56332500D01*
X168672500Y-57858500D01*
X170198500Y-57858500D01*
X171212500Y-57858500D01*
X172485500Y-57858500D01*
X172485500Y-56483085D01*
X172405973Y-56562612D01*
X172389148Y-56576730D01*
X172207688Y-56703789D01*
X172188668Y-56714771D01*
X171987902Y-56808390D01*
X171967263Y-56815902D01*
X171753289Y-56873236D01*
X171731660Y-56877050D01*
X171510982Y-56896357D01*
X171489018Y-56896357D01*
X171268340Y-56877050D01*
X171246711Y-56873236D01*
X171212500Y-56864069D01*
X171212500Y-57858500D01*
X170198500Y-57858500D01*
X170198500Y-56332500D01*
X168672500Y-56332500D01*
X167658500Y-56332500D01*
X166132500Y-56332500D01*
X165118500Y-56332500D01*
X163592500Y-56332500D01*
X162578500Y-56332500D01*
X161106849Y-56332500D01*
X161052500Y-56459653D01*
X161052500Y-57858500D01*
X157498500Y-57858500D01*
X157498500Y-57195196D01*
X157407137Y-57115376D01*
X157405050Y-57113468D01*
X157378286Y-57087879D01*
X157376287Y-57085880D01*
X157342875Y-57050935D01*
X157340968Y-57048847D01*
X157316601Y-57020958D01*
X157314789Y-57018787D01*
X157144297Y-56804997D01*
X157142584Y-56802747D01*
X157120812Y-56772782D01*
X157119202Y-56770457D01*
X157092566Y-56730105D01*
X157091061Y-56727710D01*
X157072072Y-56695926D01*
X157070678Y-56693468D01*
X156941098Y-56452668D01*
X156939813Y-56450147D01*
X156923736Y-56416760D01*
X156922566Y-56414183D01*
X156903566Y-56369725D01*
X156902514Y-56367102D01*
X156889530Y-56332500D01*
X155972500Y-56332500D01*
X154958500Y-56332500D01*
X154636085Y-56332500D01*
X154505973Y-56462612D01*
X154489148Y-56476730D01*
X154307688Y-56603789D01*
X154288668Y-56614771D01*
X154087902Y-56708390D01*
X154067263Y-56715902D01*
X153853289Y-56773236D01*
X153831660Y-56777050D01*
X153610982Y-56796357D01*
X153589018Y-56796357D01*
X153432500Y-56782663D01*
X153432500Y-57858500D01*
X152418500Y-57858500D01*
X152418500Y-56450085D01*
X152405973Y-56462612D01*
X152389148Y-56476730D01*
X152207688Y-56603789D01*
X152188668Y-56614771D01*
X151987902Y-56708390D01*
X151967263Y-56715902D01*
X151753289Y-56773236D01*
X151731660Y-56777050D01*
X151510982Y-56796357D01*
X151489018Y-56796357D01*
X151268340Y-56777050D01*
X151246711Y-56773236D01*
X151032737Y-56715902D01*
X151012098Y-56708390D01*
X150892500Y-56652620D01*
X150892500Y-57858500D01*
X149878500Y-57858500D01*
X149878500Y-56332500D01*
X148352500Y-56332500D01*
X147338500Y-56332500D01*
X145812500Y-56332500D01*
X144798500Y-56332500D01*
X144792166Y-56332500D01*
X144759775Y-56349363D01*
X144323901Y-56552614D01*
X144283017Y-56569548D01*
X143831099Y-56734032D01*
X143788895Y-56747336D01*
X143324403Y-56871795D01*
X143281202Y-56881372D01*
X143272500Y-56882906D01*
X143272500Y-57858500D01*
X142258500Y-57858500D01*
X142258500Y-57013712D01*
X142240462Y-57014500D01*
X141759538Y-57014500D01*
X141715328Y-57012569D01*
X141236235Y-56970653D01*
X141192363Y-56964874D01*
X140732500Y-56883788D01*
X139718500Y-56883788D01*
X139718500Y-56570100D01*
X139716983Y-56569548D01*
X139676099Y-56552614D01*
X139240225Y-56349363D01*
X139207834Y-56332500D01*
X138192500Y-56332500D01*
X137178500Y-56332500D01*
X135652500Y-56332500D01*
X134638500Y-56332500D01*
X134191412Y-56332500D01*
X134196357Y-56389018D01*
X134196357Y-56410982D01*
X134177050Y-56631660D01*
X134173236Y-56653289D01*
X134115902Y-56867263D01*
X134108390Y-56887902D01*
X134014771Y-57088668D01*
X134003789Y-57107688D01*
X133876730Y-57289148D01*
X133862612Y-57305973D01*
X133705973Y-57462612D01*
X133689148Y-57476730D01*
X133507688Y-57603789D01*
X133488668Y-57614771D01*
X133287902Y-57708390D01*
X133267263Y-57715902D01*
X133112499Y-57757370D01*
X129558500Y-57757370D01*
X129558500Y-56332500D01*
X128032500Y-56332500D01*
X127018500Y-56332500D01*
X126606849Y-56332500D01*
X126528537Y-56515720D01*
X126527368Y-56518294D01*
X126511306Y-56551647D01*
X126510023Y-56554165D01*
X126487113Y-56596741D01*
X126485718Y-56599201D01*
X126466718Y-56631002D01*
X126465213Y-56633397D01*
X126314578Y-56861599D01*
X126312969Y-56863921D01*
X126291217Y-56893862D01*
X126289506Y-56896111D01*
X126259362Y-56933914D01*
X126257549Y-56936087D01*
X126233169Y-56963992D01*
X126231261Y-56966081D01*
X126042283Y-57163735D01*
X126040285Y-57165734D01*
X126013512Y-57191332D01*
X126011423Y-57193242D01*
X125975011Y-57225052D01*
X125972842Y-57226862D01*
X125943896Y-57249946D01*
X125941647Y-57251658D01*
X125720429Y-57412382D01*
X125718104Y-57413993D01*
X125687197Y-57434394D01*
X125684804Y-57435897D01*
X125643298Y-57460696D01*
X125640838Y-57462092D01*
X125608228Y-57479640D01*
X125605708Y-57480924D01*
X125492499Y-57535441D01*
X125492499Y-57689583D01*
X121938500Y-57689583D01*
X121938500Y-56332500D01*
X121905318Y-56332500D01*
X121753289Y-56373236D01*
X121731660Y-56377050D01*
X121510982Y-56396357D01*
X121489018Y-56396357D01*
X121268340Y-56377050D01*
X121246711Y-56373236D01*
X121094682Y-56332500D01*
X120412500Y-56332500D01*
X119398500Y-56332500D01*
X118522839Y-56332500D01*
X118483624Y-56380284D01*
X118481604Y-56382626D01*
X118454403Y-56412637D01*
X118452271Y-56414877D01*
X118414877Y-56452271D01*
X118412637Y-56454403D01*
X118382626Y-56481604D01*
X118380284Y-56483624D01*
X118185837Y-56643203D01*
X118183399Y-56645106D01*
X118150859Y-56669239D01*
X118148330Y-56671020D01*
X118104357Y-56700401D01*
X118101746Y-56702054D01*
X118067010Y-56722875D01*
X118064318Y-56724400D01*
X117872500Y-56826928D01*
X117872500Y-57858500D01*
X116858500Y-57858500D01*
X116858500Y-57018349D01*
X116676583Y-57000433D01*
X116673513Y-57000054D01*
X116633419Y-56994106D01*
X116630369Y-56993576D01*
X116578502Y-56983256D01*
X116575487Y-56982579D01*
X116536224Y-56972743D01*
X116533244Y-56971918D01*
X116292544Y-56898903D01*
X116289608Y-56897933D01*
X116251463Y-56884285D01*
X116248575Y-56883171D01*
X116199715Y-56862931D01*
X116196888Y-56861678D01*
X116160279Y-56844363D01*
X116157517Y-56842973D01*
X115935682Y-56724400D01*
X115932990Y-56722875D01*
X115898254Y-56702054D01*
X115895643Y-56700401D01*
X115851670Y-56671020D01*
X115849141Y-56669239D01*
X115816601Y-56645106D01*
X115814163Y-56643203D01*
X115619716Y-56483624D01*
X115617374Y-56481604D01*
X115587363Y-56454403D01*
X115585123Y-56452271D01*
X115547729Y-56414877D01*
X115545597Y-56412637D01*
X115518396Y-56382626D01*
X115516376Y-56380284D01*
X115477161Y-56332500D01*
X115332500Y-56332500D01*
X114318500Y-56332500D01*
X112792500Y-56332500D01*
X111778500Y-56332500D01*
X111014500Y-56332500D01*
X110000500Y-56332500D01*
X110000500Y-55318500D01*
X113126198Y-55318500D01*
X114318500Y-55318500D01*
X114318500Y-55000003D01*
X115986620Y-55000003D01*
X116006090Y-55197694D01*
X116006091Y-55197700D01*
X116006092Y-55197701D01*
X116063759Y-55387804D01*
X116157405Y-55563004D01*
X116283432Y-55716568D01*
X116436996Y-55842595D01*
X116612196Y-55936241D01*
X116802299Y-55993908D01*
X116802303Y-55993908D01*
X116802305Y-55993909D01*
X116999997Y-56013380D01*
X117000000Y-56013380D01*
X117000003Y-56013380D01*
X117197694Y-55993909D01*
X117197695Y-55993908D01*
X117197701Y-55993908D01*
X117387804Y-55936241D01*
X117563004Y-55842595D01*
X117716568Y-55716568D01*
X117842595Y-55563004D01*
X117846162Y-55556330D01*
X123245710Y-55556330D01*
X123254912Y-55624260D01*
X123275925Y-55779390D01*
X123345484Y-55993467D01*
X123452144Y-56191675D01*
X123452148Y-56191682D01*
X123524833Y-56282825D01*
X123592492Y-56367666D01*
X123762004Y-56515765D01*
X123955236Y-56631215D01*
X124165976Y-56710307D01*
X124165978Y-56710307D01*
X124165980Y-56710308D01*
X124296709Y-56734032D01*
X124387453Y-56750500D01*
X124387454Y-56750500D01*
X124556149Y-56750500D01*
X124556155Y-56750500D01*
X124713759Y-56736315D01*
X124724189Y-56735377D01*
X124724189Y-56735376D01*
X124899507Y-56686991D01*
X124941167Y-56675494D01*
X124941167Y-56675493D01*
X124941170Y-56675493D01*
X125143973Y-56577829D01*
X125326078Y-56445522D01*
X125481632Y-56282825D01*
X125605635Y-56094968D01*
X125694103Y-55887988D01*
X125744191Y-55668537D01*
X125754290Y-55443670D01*
X125737335Y-55318500D01*
X128032500Y-55318500D01*
X129558500Y-55318500D01*
X130572500Y-55318500D01*
X131917664Y-55318500D01*
X132004562Y-55257653D01*
X131835887Y-55199748D01*
X131801679Y-55186399D01*
X131758516Y-55167465D01*
X131725540Y-55151344D01*
X131486086Y-55021758D01*
X131454548Y-55002966D01*
X131415087Y-54977184D01*
X131385208Y-54955851D01*
X131170335Y-54788608D01*
X131142298Y-54764859D01*
X131107625Y-54732936D01*
X131081691Y-54707001D01*
X130897290Y-54506691D01*
X130873548Y-54478659D01*
X130844598Y-54441459D01*
X130823276Y-54411596D01*
X130693036Y-54212248D01*
X130688668Y-54214771D01*
X130572500Y-54268941D01*
X130572500Y-55318500D01*
X129558500Y-55318500D01*
X129558499Y-54322805D01*
X129532737Y-54315902D01*
X129512098Y-54308390D01*
X129311332Y-54214771D01*
X129292312Y-54203789D01*
X129110852Y-54076730D01*
X129094027Y-54062612D01*
X128937388Y-53905973D01*
X128923270Y-53889148D01*
X128855597Y-53792500D01*
X128230763Y-53792500D01*
X128211228Y-53810206D01*
X128208886Y-53812226D01*
X128032500Y-53956983D01*
X128032500Y-55318500D01*
X125737335Y-55318500D01*
X125724075Y-55220613D01*
X125723654Y-55219318D01*
X125694438Y-55129399D01*
X125654517Y-55006536D01*
X125652596Y-55002966D01*
X125547855Y-54808324D01*
X125547851Y-54808317D01*
X125453705Y-54690263D01*
X125407508Y-54632334D01*
X125405151Y-54630275D01*
X125249204Y-54494027D01*
X125237996Y-54484235D01*
X125044764Y-54368785D01*
X124863856Y-54300889D01*
X124834019Y-54289691D01*
X124644091Y-54255224D01*
X124612547Y-54249500D01*
X124443845Y-54249500D01*
X124412558Y-54252315D01*
X124275810Y-54264622D01*
X124275810Y-54264623D01*
X124058832Y-54324505D01*
X123856031Y-54422168D01*
X123856023Y-54422173D01*
X123673921Y-54554478D01*
X123673920Y-54554479D01*
X123518369Y-54717172D01*
X123394367Y-54905027D01*
X123394363Y-54905035D01*
X123305897Y-55112011D01*
X123305896Y-55112013D01*
X123255809Y-55331461D01*
X123255809Y-55331463D01*
X123250770Y-55443673D01*
X123245710Y-55556330D01*
X117846162Y-55556330D01*
X117936241Y-55387804D01*
X117993908Y-55197701D01*
X118000363Y-55132170D01*
X118013380Y-55000003D01*
X118013380Y-54999996D01*
X117993909Y-54802305D01*
X117993908Y-54802303D01*
X117993908Y-54802299D01*
X117936241Y-54612196D01*
X117842595Y-54436996D01*
X117716568Y-54283432D01*
X117563004Y-54157405D01*
X117387804Y-54063759D01*
X117197701Y-54006092D01*
X117197700Y-54006091D01*
X117197694Y-54006090D01*
X117000003Y-53986620D01*
X116999997Y-53986620D01*
X116802305Y-54006090D01*
X116612195Y-54063759D01*
X116436995Y-54157405D01*
X116283432Y-54283432D01*
X116157405Y-54436995D01*
X116063759Y-54612195D01*
X116006090Y-54802305D01*
X115986620Y-54999996D01*
X115986620Y-55000003D01*
X114318500Y-55000003D01*
X114318500Y-53820970D01*
X118648346Y-53820970D01*
X118669239Y-53849141D01*
X118671020Y-53851670D01*
X118700401Y-53895643D01*
X118702054Y-53898254D01*
X118722875Y-53932990D01*
X118724400Y-53935682D01*
X118842973Y-54157517D01*
X118844363Y-54160279D01*
X118861678Y-54196888D01*
X118862931Y-54199715D01*
X118883171Y-54248575D01*
X118884285Y-54251463D01*
X118897933Y-54289608D01*
X118898903Y-54292544D01*
X118971918Y-54533244D01*
X118972743Y-54536224D01*
X118982579Y-54575487D01*
X118983256Y-54578502D01*
X118993576Y-54630369D01*
X118994106Y-54633419D01*
X119000054Y-54673513D01*
X119000433Y-54676583D01*
X119025089Y-54926927D01*
X119025316Y-54930010D01*
X119027304Y-54970465D01*
X119027380Y-54973557D01*
X119027380Y-55026443D01*
X119027304Y-55029535D01*
X119025316Y-55069990D01*
X119025089Y-55073073D01*
X119000917Y-55318500D01*
X119398500Y-55318500D01*
X119398500Y-53792500D01*
X118721978Y-53792500D01*
X118687902Y-53808390D01*
X118667263Y-53815902D01*
X118648346Y-53820970D01*
X114318500Y-53820970D01*
X114318500Y-53792500D01*
X113203898Y-53792500D01*
X113214771Y-53811332D01*
X113308390Y-54012098D01*
X113315902Y-54032737D01*
X113373236Y-54246711D01*
X113377050Y-54268340D01*
X113396357Y-54489018D01*
X113396357Y-54510982D01*
X113377050Y-54731660D01*
X113373236Y-54753289D01*
X113315902Y-54967263D01*
X113308390Y-54987902D01*
X113214771Y-55188668D01*
X113203789Y-55207688D01*
X113126198Y-55318500D01*
X110000500Y-55318500D01*
X110000500Y-52014500D01*
X112792500Y-52014500D01*
X112792500Y-52778500D01*
X114318500Y-52778500D01*
X114318500Y-52014500D01*
X115332500Y-52014500D01*
X115332500Y-52778500D01*
X116833519Y-52778500D01*
X116826764Y-52753288D01*
X116822950Y-52731660D01*
X116803643Y-52510982D01*
X116803643Y-52489018D01*
X116822950Y-52268340D01*
X116826764Y-52246712D01*
X116858499Y-52128271D01*
X116858500Y-52014500D01*
X120412500Y-52014500D01*
X120412500Y-52778500D01*
X121938500Y-52778500D01*
X121938500Y-52014500D01*
X122952500Y-52014500D01*
X122952500Y-52778500D01*
X124478500Y-52778500D01*
X124478500Y-52328605D01*
X125815222Y-52328605D01*
X125834692Y-52526296D01*
X125834693Y-52526302D01*
X125834694Y-52526303D01*
X125892361Y-52716406D01*
X125986007Y-52891606D01*
X126112034Y-53045170D01*
X126265598Y-53171197D01*
X126440798Y-53264843D01*
X126630901Y-53322510D01*
X126630905Y-53322510D01*
X126630907Y-53322511D01*
X126828599Y-53341982D01*
X126828602Y-53341982D01*
X126828605Y-53341982D01*
X127026296Y-53322511D01*
X127026297Y-53322510D01*
X127026303Y-53322510D01*
X127216406Y-53264843D01*
X127391606Y-53171197D01*
X127545170Y-53045170D01*
X127582240Y-53000000D01*
X131371844Y-53000000D01*
X131387974Y-53194662D01*
X131390437Y-53224375D01*
X131445702Y-53442612D01*
X131445703Y-53442613D01*
X131445704Y-53442616D01*
X131529652Y-53633999D01*
X131536141Y-53648793D01*
X131659275Y-53837265D01*
X131659279Y-53837270D01*
X131787539Y-53976595D01*
X131811696Y-54002837D01*
X131811762Y-54002908D01*
X131830299Y-54017336D01*
X131989424Y-54141189D01*
X132187426Y-54248342D01*
X132187427Y-54248342D01*
X132187428Y-54248343D01*
X132289640Y-54283432D01*
X132400365Y-54321444D01*
X132622431Y-54358500D01*
X132622435Y-54358500D01*
X132847565Y-54358500D01*
X132847569Y-54358500D01*
X133069635Y-54321444D01*
X133282574Y-54248342D01*
X133480576Y-54141189D01*
X133658240Y-54002906D01*
X133719245Y-53936637D01*
X133780096Y-53900067D01*
X133851061Y-53902200D01*
X133909606Y-53942362D01*
X133930000Y-53977941D01*
X133974111Y-54096204D01*
X133974112Y-54096207D01*
X134061738Y-54213261D01*
X134178792Y-54300887D01*
X134178794Y-54300888D01*
X134178796Y-54300889D01*
X134198907Y-54308390D01*
X134315795Y-54351988D01*
X134315803Y-54351990D01*
X134376350Y-54358499D01*
X134376355Y-54358499D01*
X134376362Y-54358500D01*
X134376368Y-54358500D01*
X136173632Y-54358500D01*
X136173638Y-54358500D01*
X136173645Y-54358499D01*
X136173649Y-54358499D01*
X136234196Y-54351990D01*
X136234199Y-54351989D01*
X136234201Y-54351989D01*
X136371204Y-54300889D01*
X136392124Y-54285229D01*
X136488261Y-54213261D01*
X136575887Y-54096207D01*
X136575887Y-54096206D01*
X136575889Y-54096204D01*
X136620227Y-53977331D01*
X136626988Y-53959204D01*
X136626990Y-53959196D01*
X136633499Y-53898649D01*
X136633500Y-53898632D01*
X136633500Y-52101367D01*
X136633499Y-52101350D01*
X136626990Y-52040803D01*
X136626988Y-52040795D01*
X136576989Y-51906746D01*
X136575889Y-51903796D01*
X136575888Y-51903794D01*
X136575887Y-51903792D01*
X136488261Y-51786738D01*
X136371207Y-51699112D01*
X136371202Y-51699110D01*
X136234204Y-51648011D01*
X136234196Y-51648009D01*
X136173649Y-51641500D01*
X136173638Y-51641500D01*
X134376362Y-51641500D01*
X134376350Y-51641500D01*
X134315803Y-51648009D01*
X134315795Y-51648011D01*
X134178797Y-51699110D01*
X134178792Y-51699112D01*
X134061738Y-51786738D01*
X133974112Y-51903792D01*
X133974111Y-51903795D01*
X133930000Y-52022058D01*
X133887453Y-52078893D01*
X133820932Y-52103703D01*
X133751558Y-52088611D01*
X133719246Y-52063363D01*
X133658240Y-51997094D01*
X133658239Y-51997093D01*
X133658237Y-51997091D01*
X133538372Y-51903796D01*
X133480576Y-51858811D01*
X133282574Y-51751658D01*
X133282572Y-51751657D01*
X133282571Y-51751656D01*
X133069639Y-51678557D01*
X133069630Y-51678555D01*
X133025476Y-51671187D01*
X132847569Y-51641500D01*
X132622431Y-51641500D01*
X132474211Y-51666233D01*
X132400369Y-51678555D01*
X132400360Y-51678557D01*
X132187428Y-51751656D01*
X132187426Y-51751658D01*
X131989426Y-51858810D01*
X131989424Y-51858811D01*
X131811762Y-51997091D01*
X131659279Y-52162729D01*
X131659275Y-52162734D01*
X131536141Y-52351206D01*
X131445703Y-52557386D01*
X131445702Y-52557387D01*
X131390437Y-52775624D01*
X131390436Y-52775630D01*
X131390436Y-52775632D01*
X131371844Y-53000000D01*
X127582240Y-53000000D01*
X127671197Y-52891606D01*
X127764843Y-52716406D01*
X127822510Y-52526303D01*
X127824344Y-52507688D01*
X127841982Y-52328605D01*
X127841982Y-52328598D01*
X127822511Y-52130907D01*
X127822510Y-52130905D01*
X127822510Y-52130901D01*
X127764843Y-51940798D01*
X127671197Y-51765598D01*
X127545170Y-51612034D01*
X127391606Y-51486007D01*
X127216406Y-51392361D01*
X127026303Y-51334694D01*
X127026302Y-51334693D01*
X127026296Y-51334692D01*
X126828605Y-51315222D01*
X126828599Y-51315222D01*
X126630907Y-51334692D01*
X126440797Y-51392361D01*
X126265597Y-51486007D01*
X126112034Y-51612034D01*
X125986007Y-51765597D01*
X125892361Y-51940797D01*
X125834692Y-52130907D01*
X125815222Y-52328598D01*
X125815222Y-52328605D01*
X124478500Y-52328605D01*
X124478500Y-52014500D01*
X122952500Y-52014500D01*
X121938500Y-52014500D01*
X120412500Y-52014500D01*
X116858500Y-52014500D01*
X115332500Y-52014500D01*
X114318500Y-52014500D01*
X112792500Y-52014500D01*
X110000500Y-52014500D01*
X110000500Y-51126500D01*
X110020502Y-51058379D01*
X110074158Y-51011886D01*
X110126500Y-51000500D01*
X136873500Y-51000500D01*
X136941621Y-51020502D01*
G37*
G04 #@! TD.AperFunction*
M02*
