%TF.GenerationSoftware,KiCad,Pcbnew,7.0.6*%
%TF.CreationDate,2023-08-15T03:17:18+01:00*%
%TF.ProjectId,GalaxyModPCB,47616c61-7879-44d6-9f64-5043422e6b69,rev?*%
%TF.SameCoordinates,Original*%
%TF.FileFunction,Drillmap*%
%TF.FilePolarity,Positive*%
%FSLAX45Y45*%
G04 Gerber Fmt 4.5, Leading zero omitted, Abs format (unit mm)*
G04 Created by KiCad (PCBNEW 7.0.6) date 2023-08-15 03:17:18*
%MOMM*%
%LPD*%
G01*
G04 APERTURE LIST*
%ADD10C,0.100000*%
%ADD11C,0.200000*%
%ADD12C,0.250000*%
G04 APERTURE END LIST*
D10*
X13700000Y-5100000D02*
G75*
G03*
X14700000Y-5100000I500000J0D01*
G01*
X14300000Y-8916000D02*
X15953000Y-8916000D01*
X14700000Y-5100000D02*
X17350000Y-5106000D01*
X11000000Y-5100000D02*
X11000000Y-7138000D01*
X12143000Y-7900000D02*
G75*
G03*
X11381000Y-7138000I-762000J0D01*
G01*
X12143000Y-8300000D02*
X12143000Y-7900000D01*
X12150000Y-8916000D02*
X14300000Y-8916000D01*
X16969000Y-6630000D02*
X15953000Y-7392000D01*
X12143000Y-8300000D02*
X12150000Y-8916000D01*
X15953000Y-7392000D02*
X15953000Y-8916000D01*
X13700000Y-5100000D02*
X11000000Y-5100000D01*
X17350000Y-6630000D02*
X16969000Y-6630000D01*
X17350000Y-5106000D02*
X17350000Y-6630000D01*
X11381000Y-7138000D02*
X11000000Y-7138000D01*
D11*
X12350000Y-5450000D02*
X12550000Y-5650000D01*
X12550000Y-5450000D02*
X12350000Y-5650000D01*
X15800000Y-5450000D02*
X16000000Y-5650000D01*
X16000000Y-5450000D02*
X15800000Y-5650000D01*
D12*
X12575000Y-6000000D02*
G75*
G03*
X12575000Y-6000000I-125000J0D01*
G01*
X16025000Y-6000000D02*
G75*
G03*
X16025000Y-6000000I-125000J0D01*
G01*
D11*
X11255777Y-9232484D02*
X11255777Y-9032484D01*
X11255777Y-9032484D02*
X11303396Y-9032484D01*
X11303396Y-9032484D02*
X11331967Y-9042008D01*
X11331967Y-9042008D02*
X11351015Y-9061055D01*
X11351015Y-9061055D02*
X11360539Y-9080103D01*
X11360539Y-9080103D02*
X11370062Y-9118198D01*
X11370062Y-9118198D02*
X11370062Y-9146770D01*
X11370062Y-9146770D02*
X11360539Y-9184865D01*
X11360539Y-9184865D02*
X11351015Y-9203912D01*
X11351015Y-9203912D02*
X11331967Y-9222960D01*
X11331967Y-9222960D02*
X11303396Y-9232484D01*
X11303396Y-9232484D02*
X11255777Y-9232484D01*
X11455777Y-9232484D02*
X11455777Y-9099150D01*
X11455777Y-9137246D02*
X11465301Y-9118198D01*
X11465301Y-9118198D02*
X11474824Y-9108674D01*
X11474824Y-9108674D02*
X11493872Y-9099150D01*
X11493872Y-9099150D02*
X11512920Y-9099150D01*
X11579586Y-9232484D02*
X11579586Y-9099150D01*
X11579586Y-9032484D02*
X11570062Y-9042008D01*
X11570062Y-9042008D02*
X11579586Y-9051531D01*
X11579586Y-9051531D02*
X11589110Y-9042008D01*
X11589110Y-9042008D02*
X11579586Y-9032484D01*
X11579586Y-9032484D02*
X11579586Y-9051531D01*
X11703396Y-9232484D02*
X11684348Y-9222960D01*
X11684348Y-9222960D02*
X11674824Y-9203912D01*
X11674824Y-9203912D02*
X11674824Y-9032484D01*
X11808158Y-9232484D02*
X11789110Y-9222960D01*
X11789110Y-9222960D02*
X11779586Y-9203912D01*
X11779586Y-9203912D02*
X11779586Y-9032484D01*
X12036729Y-9232484D02*
X12036729Y-9032484D01*
X12036729Y-9032484D02*
X12103396Y-9175341D01*
X12103396Y-9175341D02*
X12170062Y-9032484D01*
X12170062Y-9032484D02*
X12170062Y-9232484D01*
X12351015Y-9232484D02*
X12351015Y-9127722D01*
X12351015Y-9127722D02*
X12341491Y-9108674D01*
X12341491Y-9108674D02*
X12322443Y-9099150D01*
X12322443Y-9099150D02*
X12284348Y-9099150D01*
X12284348Y-9099150D02*
X12265301Y-9108674D01*
X12351015Y-9222960D02*
X12331967Y-9232484D01*
X12331967Y-9232484D02*
X12284348Y-9232484D01*
X12284348Y-9232484D02*
X12265301Y-9222960D01*
X12265301Y-9222960D02*
X12255777Y-9203912D01*
X12255777Y-9203912D02*
X12255777Y-9184865D01*
X12255777Y-9184865D02*
X12265301Y-9165817D01*
X12265301Y-9165817D02*
X12284348Y-9156293D01*
X12284348Y-9156293D02*
X12331967Y-9156293D01*
X12331967Y-9156293D02*
X12351015Y-9146770D01*
X12446253Y-9099150D02*
X12446253Y-9299150D01*
X12446253Y-9108674D02*
X12465301Y-9099150D01*
X12465301Y-9099150D02*
X12503396Y-9099150D01*
X12503396Y-9099150D02*
X12522443Y-9108674D01*
X12522443Y-9108674D02*
X12531967Y-9118198D01*
X12531967Y-9118198D02*
X12541491Y-9137246D01*
X12541491Y-9137246D02*
X12541491Y-9194389D01*
X12541491Y-9194389D02*
X12531967Y-9213436D01*
X12531967Y-9213436D02*
X12522443Y-9222960D01*
X12522443Y-9222960D02*
X12503396Y-9232484D01*
X12503396Y-9232484D02*
X12465301Y-9232484D01*
X12465301Y-9232484D02*
X12446253Y-9222960D01*
X12627205Y-9213436D02*
X12636729Y-9222960D01*
X12636729Y-9222960D02*
X12627205Y-9232484D01*
X12627205Y-9232484D02*
X12617682Y-9222960D01*
X12617682Y-9222960D02*
X12627205Y-9213436D01*
X12627205Y-9213436D02*
X12627205Y-9232484D01*
X12627205Y-9108674D02*
X12636729Y-9118198D01*
X12636729Y-9118198D02*
X12627205Y-9127722D01*
X12627205Y-9127722D02*
X12617682Y-9118198D01*
X12617682Y-9118198D02*
X12627205Y-9108674D01*
X12627205Y-9108674D02*
X12627205Y-9127722D01*
X10795000Y-9461000D02*
X10995000Y-9661000D01*
X10995000Y-9461000D02*
X10795000Y-9661000D01*
X11246253Y-9471531D02*
X11255777Y-9462008D01*
X11255777Y-9462008D02*
X11274824Y-9452484D01*
X11274824Y-9452484D02*
X11322443Y-9452484D01*
X11322443Y-9452484D02*
X11341491Y-9462008D01*
X11341491Y-9462008D02*
X11351015Y-9471531D01*
X11351015Y-9471531D02*
X11360539Y-9490579D01*
X11360539Y-9490579D02*
X11360539Y-9509627D01*
X11360539Y-9509627D02*
X11351015Y-9538198D01*
X11351015Y-9538198D02*
X11236729Y-9652484D01*
X11236729Y-9652484D02*
X11360539Y-9652484D01*
X11446253Y-9633436D02*
X11455777Y-9642960D01*
X11455777Y-9642960D02*
X11446253Y-9652484D01*
X11446253Y-9652484D02*
X11436729Y-9642960D01*
X11436729Y-9642960D02*
X11446253Y-9633436D01*
X11446253Y-9633436D02*
X11446253Y-9652484D01*
X11579586Y-9452484D02*
X11598634Y-9452484D01*
X11598634Y-9452484D02*
X11617682Y-9462008D01*
X11617682Y-9462008D02*
X11627205Y-9471531D01*
X11627205Y-9471531D02*
X11636729Y-9490579D01*
X11636729Y-9490579D02*
X11646253Y-9528674D01*
X11646253Y-9528674D02*
X11646253Y-9576293D01*
X11646253Y-9576293D02*
X11636729Y-9614389D01*
X11636729Y-9614389D02*
X11627205Y-9633436D01*
X11627205Y-9633436D02*
X11617682Y-9642960D01*
X11617682Y-9642960D02*
X11598634Y-9652484D01*
X11598634Y-9652484D02*
X11579586Y-9652484D01*
X11579586Y-9652484D02*
X11560539Y-9642960D01*
X11560539Y-9642960D02*
X11551015Y-9633436D01*
X11551015Y-9633436D02*
X11541491Y-9614389D01*
X11541491Y-9614389D02*
X11531967Y-9576293D01*
X11531967Y-9576293D02*
X11531967Y-9528674D01*
X11531967Y-9528674D02*
X11541491Y-9490579D01*
X11541491Y-9490579D02*
X11551015Y-9471531D01*
X11551015Y-9471531D02*
X11560539Y-9462008D01*
X11560539Y-9462008D02*
X11579586Y-9452484D01*
X11770062Y-9452484D02*
X11789110Y-9452484D01*
X11789110Y-9452484D02*
X11808158Y-9462008D01*
X11808158Y-9462008D02*
X11817682Y-9471531D01*
X11817682Y-9471531D02*
X11827205Y-9490579D01*
X11827205Y-9490579D02*
X11836729Y-9528674D01*
X11836729Y-9528674D02*
X11836729Y-9576293D01*
X11836729Y-9576293D02*
X11827205Y-9614389D01*
X11827205Y-9614389D02*
X11817682Y-9633436D01*
X11817682Y-9633436D02*
X11808158Y-9642960D01*
X11808158Y-9642960D02*
X11789110Y-9652484D01*
X11789110Y-9652484D02*
X11770062Y-9652484D01*
X11770062Y-9652484D02*
X11751015Y-9642960D01*
X11751015Y-9642960D02*
X11741491Y-9633436D01*
X11741491Y-9633436D02*
X11731967Y-9614389D01*
X11731967Y-9614389D02*
X11722443Y-9576293D01*
X11722443Y-9576293D02*
X11722443Y-9528674D01*
X11722443Y-9528674D02*
X11731967Y-9490579D01*
X11731967Y-9490579D02*
X11741491Y-9471531D01*
X11741491Y-9471531D02*
X11751015Y-9462008D01*
X11751015Y-9462008D02*
X11770062Y-9452484D01*
X11960539Y-9452484D02*
X11979586Y-9452484D01*
X11979586Y-9452484D02*
X11998634Y-9462008D01*
X11998634Y-9462008D02*
X12008158Y-9471531D01*
X12008158Y-9471531D02*
X12017682Y-9490579D01*
X12017682Y-9490579D02*
X12027205Y-9528674D01*
X12027205Y-9528674D02*
X12027205Y-9576293D01*
X12027205Y-9576293D02*
X12017682Y-9614389D01*
X12017682Y-9614389D02*
X12008158Y-9633436D01*
X12008158Y-9633436D02*
X11998634Y-9642960D01*
X11998634Y-9642960D02*
X11979586Y-9652484D01*
X11979586Y-9652484D02*
X11960539Y-9652484D01*
X11960539Y-9652484D02*
X11941491Y-9642960D01*
X11941491Y-9642960D02*
X11931967Y-9633436D01*
X11931967Y-9633436D02*
X11922443Y-9614389D01*
X11922443Y-9614389D02*
X11912920Y-9576293D01*
X11912920Y-9576293D02*
X11912920Y-9528674D01*
X11912920Y-9528674D02*
X11922443Y-9490579D01*
X11922443Y-9490579D02*
X11931967Y-9471531D01*
X11931967Y-9471531D02*
X11941491Y-9462008D01*
X11941491Y-9462008D02*
X11960539Y-9452484D01*
X12112920Y-9652484D02*
X12112920Y-9519150D01*
X12112920Y-9538198D02*
X12122443Y-9528674D01*
X12122443Y-9528674D02*
X12141491Y-9519150D01*
X12141491Y-9519150D02*
X12170063Y-9519150D01*
X12170063Y-9519150D02*
X12189110Y-9528674D01*
X12189110Y-9528674D02*
X12198634Y-9547722D01*
X12198634Y-9547722D02*
X12198634Y-9652484D01*
X12198634Y-9547722D02*
X12208158Y-9528674D01*
X12208158Y-9528674D02*
X12227205Y-9519150D01*
X12227205Y-9519150D02*
X12255777Y-9519150D01*
X12255777Y-9519150D02*
X12274824Y-9528674D01*
X12274824Y-9528674D02*
X12284348Y-9547722D01*
X12284348Y-9547722D02*
X12284348Y-9652484D01*
X12379586Y-9652484D02*
X12379586Y-9519150D01*
X12379586Y-9538198D02*
X12389110Y-9528674D01*
X12389110Y-9528674D02*
X12408158Y-9519150D01*
X12408158Y-9519150D02*
X12436729Y-9519150D01*
X12436729Y-9519150D02*
X12455777Y-9528674D01*
X12455777Y-9528674D02*
X12465301Y-9547722D01*
X12465301Y-9547722D02*
X12465301Y-9652484D01*
X12465301Y-9547722D02*
X12474824Y-9528674D01*
X12474824Y-9528674D02*
X12493872Y-9519150D01*
X12493872Y-9519150D02*
X12522443Y-9519150D01*
X12522443Y-9519150D02*
X12541491Y-9528674D01*
X12541491Y-9528674D02*
X12551015Y-9547722D01*
X12551015Y-9547722D02*
X12551015Y-9652484D01*
X12941491Y-9442960D02*
X12770063Y-9700103D01*
X13198634Y-9452484D02*
X13217682Y-9452484D01*
X13217682Y-9452484D02*
X13236729Y-9462008D01*
X13236729Y-9462008D02*
X13246253Y-9471531D01*
X13246253Y-9471531D02*
X13255777Y-9490579D01*
X13255777Y-9490579D02*
X13265301Y-9528674D01*
X13265301Y-9528674D02*
X13265301Y-9576293D01*
X13265301Y-9576293D02*
X13255777Y-9614389D01*
X13255777Y-9614389D02*
X13246253Y-9633436D01*
X13246253Y-9633436D02*
X13236729Y-9642960D01*
X13236729Y-9642960D02*
X13217682Y-9652484D01*
X13217682Y-9652484D02*
X13198634Y-9652484D01*
X13198634Y-9652484D02*
X13179586Y-9642960D01*
X13179586Y-9642960D02*
X13170063Y-9633436D01*
X13170063Y-9633436D02*
X13160539Y-9614389D01*
X13160539Y-9614389D02*
X13151015Y-9576293D01*
X13151015Y-9576293D02*
X13151015Y-9528674D01*
X13151015Y-9528674D02*
X13160539Y-9490579D01*
X13160539Y-9490579D02*
X13170063Y-9471531D01*
X13170063Y-9471531D02*
X13179586Y-9462008D01*
X13179586Y-9462008D02*
X13198634Y-9452484D01*
X13351015Y-9633436D02*
X13360539Y-9642960D01*
X13360539Y-9642960D02*
X13351015Y-9652484D01*
X13351015Y-9652484D02*
X13341491Y-9642960D01*
X13341491Y-9642960D02*
X13351015Y-9633436D01*
X13351015Y-9633436D02*
X13351015Y-9652484D01*
X13484348Y-9452484D02*
X13503396Y-9452484D01*
X13503396Y-9452484D02*
X13522444Y-9462008D01*
X13522444Y-9462008D02*
X13531967Y-9471531D01*
X13531967Y-9471531D02*
X13541491Y-9490579D01*
X13541491Y-9490579D02*
X13551015Y-9528674D01*
X13551015Y-9528674D02*
X13551015Y-9576293D01*
X13551015Y-9576293D02*
X13541491Y-9614389D01*
X13541491Y-9614389D02*
X13531967Y-9633436D01*
X13531967Y-9633436D02*
X13522444Y-9642960D01*
X13522444Y-9642960D02*
X13503396Y-9652484D01*
X13503396Y-9652484D02*
X13484348Y-9652484D01*
X13484348Y-9652484D02*
X13465301Y-9642960D01*
X13465301Y-9642960D02*
X13455777Y-9633436D01*
X13455777Y-9633436D02*
X13446253Y-9614389D01*
X13446253Y-9614389D02*
X13436729Y-9576293D01*
X13436729Y-9576293D02*
X13436729Y-9528674D01*
X13436729Y-9528674D02*
X13446253Y-9490579D01*
X13446253Y-9490579D02*
X13455777Y-9471531D01*
X13455777Y-9471531D02*
X13465301Y-9462008D01*
X13465301Y-9462008D02*
X13484348Y-9452484D01*
X13617682Y-9452484D02*
X13751015Y-9452484D01*
X13751015Y-9452484D02*
X13665301Y-9652484D01*
X13855777Y-9538198D02*
X13836729Y-9528674D01*
X13836729Y-9528674D02*
X13827206Y-9519150D01*
X13827206Y-9519150D02*
X13817682Y-9500103D01*
X13817682Y-9500103D02*
X13817682Y-9490579D01*
X13817682Y-9490579D02*
X13827206Y-9471531D01*
X13827206Y-9471531D02*
X13836729Y-9462008D01*
X13836729Y-9462008D02*
X13855777Y-9452484D01*
X13855777Y-9452484D02*
X13893872Y-9452484D01*
X13893872Y-9452484D02*
X13912920Y-9462008D01*
X13912920Y-9462008D02*
X13922444Y-9471531D01*
X13922444Y-9471531D02*
X13931967Y-9490579D01*
X13931967Y-9490579D02*
X13931967Y-9500103D01*
X13931967Y-9500103D02*
X13922444Y-9519150D01*
X13922444Y-9519150D02*
X13912920Y-9528674D01*
X13912920Y-9528674D02*
X13893872Y-9538198D01*
X13893872Y-9538198D02*
X13855777Y-9538198D01*
X13855777Y-9538198D02*
X13836729Y-9547722D01*
X13836729Y-9547722D02*
X13827206Y-9557246D01*
X13827206Y-9557246D02*
X13817682Y-9576293D01*
X13817682Y-9576293D02*
X13817682Y-9614389D01*
X13817682Y-9614389D02*
X13827206Y-9633436D01*
X13827206Y-9633436D02*
X13836729Y-9642960D01*
X13836729Y-9642960D02*
X13855777Y-9652484D01*
X13855777Y-9652484D02*
X13893872Y-9652484D01*
X13893872Y-9652484D02*
X13912920Y-9642960D01*
X13912920Y-9642960D02*
X13922444Y-9633436D01*
X13922444Y-9633436D02*
X13931967Y-9614389D01*
X13931967Y-9614389D02*
X13931967Y-9576293D01*
X13931967Y-9576293D02*
X13922444Y-9557246D01*
X13922444Y-9557246D02*
X13912920Y-9547722D01*
X13912920Y-9547722D02*
X13893872Y-9538198D01*
X13998634Y-9452484D02*
X14131967Y-9452484D01*
X14131967Y-9452484D02*
X14046253Y-9652484D01*
X14198634Y-9452484D02*
X14198634Y-9490579D01*
X14274825Y-9452484D02*
X14274825Y-9490579D01*
X14570063Y-9728674D02*
X14560539Y-9719150D01*
X14560539Y-9719150D02*
X14541491Y-9690579D01*
X14541491Y-9690579D02*
X14531968Y-9671531D01*
X14531968Y-9671531D02*
X14522444Y-9642960D01*
X14522444Y-9642960D02*
X14512920Y-9595341D01*
X14512920Y-9595341D02*
X14512920Y-9557246D01*
X14512920Y-9557246D02*
X14522444Y-9509627D01*
X14522444Y-9509627D02*
X14531968Y-9481055D01*
X14531968Y-9481055D02*
X14541491Y-9462008D01*
X14541491Y-9462008D02*
X14560539Y-9433436D01*
X14560539Y-9433436D02*
X14570063Y-9423912D01*
X14636729Y-9471531D02*
X14646253Y-9462008D01*
X14646253Y-9462008D02*
X14665301Y-9452484D01*
X14665301Y-9452484D02*
X14712920Y-9452484D01*
X14712920Y-9452484D02*
X14731968Y-9462008D01*
X14731968Y-9462008D02*
X14741491Y-9471531D01*
X14741491Y-9471531D02*
X14751015Y-9490579D01*
X14751015Y-9490579D02*
X14751015Y-9509627D01*
X14751015Y-9509627D02*
X14741491Y-9538198D01*
X14741491Y-9538198D02*
X14627206Y-9652484D01*
X14627206Y-9652484D02*
X14751015Y-9652484D01*
X14989110Y-9652484D02*
X14989110Y-9452484D01*
X15074825Y-9652484D02*
X15074825Y-9547722D01*
X15074825Y-9547722D02*
X15065301Y-9528674D01*
X15065301Y-9528674D02*
X15046253Y-9519150D01*
X15046253Y-9519150D02*
X15017682Y-9519150D01*
X15017682Y-9519150D02*
X14998634Y-9528674D01*
X14998634Y-9528674D02*
X14989110Y-9538198D01*
X15198634Y-9652484D02*
X15179587Y-9642960D01*
X15179587Y-9642960D02*
X15170063Y-9633436D01*
X15170063Y-9633436D02*
X15160539Y-9614389D01*
X15160539Y-9614389D02*
X15160539Y-9557246D01*
X15160539Y-9557246D02*
X15170063Y-9538198D01*
X15170063Y-9538198D02*
X15179587Y-9528674D01*
X15179587Y-9528674D02*
X15198634Y-9519150D01*
X15198634Y-9519150D02*
X15227206Y-9519150D01*
X15227206Y-9519150D02*
X15246253Y-9528674D01*
X15246253Y-9528674D02*
X15255777Y-9538198D01*
X15255777Y-9538198D02*
X15265301Y-9557246D01*
X15265301Y-9557246D02*
X15265301Y-9614389D01*
X15265301Y-9614389D02*
X15255777Y-9633436D01*
X15255777Y-9633436D02*
X15246253Y-9642960D01*
X15246253Y-9642960D02*
X15227206Y-9652484D01*
X15227206Y-9652484D02*
X15198634Y-9652484D01*
X15379587Y-9652484D02*
X15360539Y-9642960D01*
X15360539Y-9642960D02*
X15351015Y-9623912D01*
X15351015Y-9623912D02*
X15351015Y-9452484D01*
X15531968Y-9642960D02*
X15512920Y-9652484D01*
X15512920Y-9652484D02*
X15474825Y-9652484D01*
X15474825Y-9652484D02*
X15455777Y-9642960D01*
X15455777Y-9642960D02*
X15446253Y-9623912D01*
X15446253Y-9623912D02*
X15446253Y-9547722D01*
X15446253Y-9547722D02*
X15455777Y-9528674D01*
X15455777Y-9528674D02*
X15474825Y-9519150D01*
X15474825Y-9519150D02*
X15512920Y-9519150D01*
X15512920Y-9519150D02*
X15531968Y-9528674D01*
X15531968Y-9528674D02*
X15541491Y-9547722D01*
X15541491Y-9547722D02*
X15541491Y-9566770D01*
X15541491Y-9566770D02*
X15446253Y-9585817D01*
X15617682Y-9642960D02*
X15636730Y-9652484D01*
X15636730Y-9652484D02*
X15674825Y-9652484D01*
X15674825Y-9652484D02*
X15693872Y-9642960D01*
X15693872Y-9642960D02*
X15703396Y-9623912D01*
X15703396Y-9623912D02*
X15703396Y-9614389D01*
X15703396Y-9614389D02*
X15693872Y-9595341D01*
X15693872Y-9595341D02*
X15674825Y-9585817D01*
X15674825Y-9585817D02*
X15646253Y-9585817D01*
X15646253Y-9585817D02*
X15627206Y-9576293D01*
X15627206Y-9576293D02*
X15617682Y-9557246D01*
X15617682Y-9557246D02*
X15617682Y-9547722D01*
X15617682Y-9547722D02*
X15627206Y-9528674D01*
X15627206Y-9528674D02*
X15646253Y-9519150D01*
X15646253Y-9519150D02*
X15674825Y-9519150D01*
X15674825Y-9519150D02*
X15693872Y-9528674D01*
X15770063Y-9728674D02*
X15779587Y-9719150D01*
X15779587Y-9719150D02*
X15798634Y-9690579D01*
X15798634Y-9690579D02*
X15808158Y-9671531D01*
X15808158Y-9671531D02*
X15817682Y-9642960D01*
X15817682Y-9642960D02*
X15827206Y-9595341D01*
X15827206Y-9595341D02*
X15827206Y-9557246D01*
X15827206Y-9557246D02*
X15817682Y-9509627D01*
X15817682Y-9509627D02*
X15808158Y-9481055D01*
X15808158Y-9481055D02*
X15798634Y-9462008D01*
X15798634Y-9462008D02*
X15779587Y-9433436D01*
X15779587Y-9433436D02*
X15770063Y-9423912D01*
X16131968Y-9728674D02*
X16122444Y-9719150D01*
X16122444Y-9719150D02*
X16103396Y-9690579D01*
X16103396Y-9690579D02*
X16093872Y-9671531D01*
X16093872Y-9671531D02*
X16084349Y-9642960D01*
X16084349Y-9642960D02*
X16074825Y-9595341D01*
X16074825Y-9595341D02*
X16074825Y-9557246D01*
X16074825Y-9557246D02*
X16084349Y-9509627D01*
X16084349Y-9509627D02*
X16093872Y-9481055D01*
X16093872Y-9481055D02*
X16103396Y-9462008D01*
X16103396Y-9462008D02*
X16122444Y-9433436D01*
X16122444Y-9433436D02*
X16131968Y-9423912D01*
X16208158Y-9519150D02*
X16208158Y-9652484D01*
X16208158Y-9538198D02*
X16217682Y-9528674D01*
X16217682Y-9528674D02*
X16236730Y-9519150D01*
X16236730Y-9519150D02*
X16265301Y-9519150D01*
X16265301Y-9519150D02*
X16284349Y-9528674D01*
X16284349Y-9528674D02*
X16293872Y-9547722D01*
X16293872Y-9547722D02*
X16293872Y-9652484D01*
X16417682Y-9652484D02*
X16398634Y-9642960D01*
X16398634Y-9642960D02*
X16389111Y-9633436D01*
X16389111Y-9633436D02*
X16379587Y-9614389D01*
X16379587Y-9614389D02*
X16379587Y-9557246D01*
X16379587Y-9557246D02*
X16389111Y-9538198D01*
X16389111Y-9538198D02*
X16398634Y-9528674D01*
X16398634Y-9528674D02*
X16417682Y-9519150D01*
X16417682Y-9519150D02*
X16446253Y-9519150D01*
X16446253Y-9519150D02*
X16465301Y-9528674D01*
X16465301Y-9528674D02*
X16474825Y-9538198D01*
X16474825Y-9538198D02*
X16484349Y-9557246D01*
X16484349Y-9557246D02*
X16484349Y-9614389D01*
X16484349Y-9614389D02*
X16474825Y-9633436D01*
X16474825Y-9633436D02*
X16465301Y-9642960D01*
X16465301Y-9642960D02*
X16446253Y-9652484D01*
X16446253Y-9652484D02*
X16417682Y-9652484D01*
X16541492Y-9519150D02*
X16617682Y-9519150D01*
X16570063Y-9452484D02*
X16570063Y-9623912D01*
X16570063Y-9623912D02*
X16579587Y-9642960D01*
X16579587Y-9642960D02*
X16598634Y-9652484D01*
X16598634Y-9652484D02*
X16617682Y-9652484D01*
X16836730Y-9519150D02*
X16836730Y-9719150D01*
X16836730Y-9528674D02*
X16855777Y-9519150D01*
X16855777Y-9519150D02*
X16893873Y-9519150D01*
X16893873Y-9519150D02*
X16912920Y-9528674D01*
X16912920Y-9528674D02*
X16922444Y-9538198D01*
X16922444Y-9538198D02*
X16931968Y-9557246D01*
X16931968Y-9557246D02*
X16931968Y-9614389D01*
X16931968Y-9614389D02*
X16922444Y-9633436D01*
X16922444Y-9633436D02*
X16912920Y-9642960D01*
X16912920Y-9642960D02*
X16893873Y-9652484D01*
X16893873Y-9652484D02*
X16855777Y-9652484D01*
X16855777Y-9652484D02*
X16836730Y-9642960D01*
X17046254Y-9652484D02*
X17027206Y-9642960D01*
X17027206Y-9642960D02*
X17017682Y-9623912D01*
X17017682Y-9623912D02*
X17017682Y-9452484D01*
X17208158Y-9652484D02*
X17208158Y-9547722D01*
X17208158Y-9547722D02*
X17198635Y-9528674D01*
X17198635Y-9528674D02*
X17179587Y-9519150D01*
X17179587Y-9519150D02*
X17141492Y-9519150D01*
X17141492Y-9519150D02*
X17122444Y-9528674D01*
X17208158Y-9642960D02*
X17189111Y-9652484D01*
X17189111Y-9652484D02*
X17141492Y-9652484D01*
X17141492Y-9652484D02*
X17122444Y-9642960D01*
X17122444Y-9642960D02*
X17112920Y-9623912D01*
X17112920Y-9623912D02*
X17112920Y-9604865D01*
X17112920Y-9604865D02*
X17122444Y-9585817D01*
X17122444Y-9585817D02*
X17141492Y-9576293D01*
X17141492Y-9576293D02*
X17189111Y-9576293D01*
X17189111Y-9576293D02*
X17208158Y-9566770D01*
X17274825Y-9519150D02*
X17351015Y-9519150D01*
X17303396Y-9452484D02*
X17303396Y-9623912D01*
X17303396Y-9623912D02*
X17312920Y-9642960D01*
X17312920Y-9642960D02*
X17331968Y-9652484D01*
X17331968Y-9652484D02*
X17351015Y-9652484D01*
X17493873Y-9642960D02*
X17474825Y-9652484D01*
X17474825Y-9652484D02*
X17436730Y-9652484D01*
X17436730Y-9652484D02*
X17417682Y-9642960D01*
X17417682Y-9642960D02*
X17408158Y-9623912D01*
X17408158Y-9623912D02*
X17408158Y-9547722D01*
X17408158Y-9547722D02*
X17417682Y-9528674D01*
X17417682Y-9528674D02*
X17436730Y-9519150D01*
X17436730Y-9519150D02*
X17474825Y-9519150D01*
X17474825Y-9519150D02*
X17493873Y-9528674D01*
X17493873Y-9528674D02*
X17503396Y-9547722D01*
X17503396Y-9547722D02*
X17503396Y-9566770D01*
X17503396Y-9566770D02*
X17408158Y-9585817D01*
X17674825Y-9652484D02*
X17674825Y-9452484D01*
X17674825Y-9642960D02*
X17655777Y-9652484D01*
X17655777Y-9652484D02*
X17617682Y-9652484D01*
X17617682Y-9652484D02*
X17598635Y-9642960D01*
X17598635Y-9642960D02*
X17589111Y-9633436D01*
X17589111Y-9633436D02*
X17579587Y-9614389D01*
X17579587Y-9614389D02*
X17579587Y-9557246D01*
X17579587Y-9557246D02*
X17589111Y-9538198D01*
X17589111Y-9538198D02*
X17598635Y-9528674D01*
X17598635Y-9528674D02*
X17617682Y-9519150D01*
X17617682Y-9519150D02*
X17655777Y-9519150D01*
X17655777Y-9519150D02*
X17674825Y-9528674D01*
X17751016Y-9728674D02*
X17760539Y-9719150D01*
X17760539Y-9719150D02*
X17779587Y-9690579D01*
X17779587Y-9690579D02*
X17789111Y-9671531D01*
X17789111Y-9671531D02*
X17798635Y-9642960D01*
X17798635Y-9642960D02*
X17808158Y-9595341D01*
X17808158Y-9595341D02*
X17808158Y-9557246D01*
X17808158Y-9557246D02*
X17798635Y-9509627D01*
X17798635Y-9509627D02*
X17789111Y-9481055D01*
X17789111Y-9481055D02*
X17779587Y-9462008D01*
X17779587Y-9462008D02*
X17760539Y-9433436D01*
X17760539Y-9433436D02*
X17751016Y-9423912D01*
X10995000Y-9881000D02*
G75*
G03*
X10995000Y-9881000I-100000J0D01*
G01*
X11246253Y-9791531D02*
X11255777Y-9782008D01*
X11255777Y-9782008D02*
X11274824Y-9772484D01*
X11274824Y-9772484D02*
X11322443Y-9772484D01*
X11322443Y-9772484D02*
X11341491Y-9782008D01*
X11341491Y-9782008D02*
X11351015Y-9791531D01*
X11351015Y-9791531D02*
X11360539Y-9810579D01*
X11360539Y-9810579D02*
X11360539Y-9829627D01*
X11360539Y-9829627D02*
X11351015Y-9858198D01*
X11351015Y-9858198D02*
X11236729Y-9972484D01*
X11236729Y-9972484D02*
X11360539Y-9972484D01*
X11446253Y-9953436D02*
X11455777Y-9962960D01*
X11455777Y-9962960D02*
X11446253Y-9972484D01*
X11446253Y-9972484D02*
X11436729Y-9962960D01*
X11436729Y-9962960D02*
X11446253Y-9953436D01*
X11446253Y-9953436D02*
X11446253Y-9972484D01*
X11636729Y-9772484D02*
X11541491Y-9772484D01*
X11541491Y-9772484D02*
X11531967Y-9867722D01*
X11531967Y-9867722D02*
X11541491Y-9858198D01*
X11541491Y-9858198D02*
X11560539Y-9848674D01*
X11560539Y-9848674D02*
X11608158Y-9848674D01*
X11608158Y-9848674D02*
X11627205Y-9858198D01*
X11627205Y-9858198D02*
X11636729Y-9867722D01*
X11636729Y-9867722D02*
X11646253Y-9886770D01*
X11646253Y-9886770D02*
X11646253Y-9934389D01*
X11646253Y-9934389D02*
X11636729Y-9953436D01*
X11636729Y-9953436D02*
X11627205Y-9962960D01*
X11627205Y-9962960D02*
X11608158Y-9972484D01*
X11608158Y-9972484D02*
X11560539Y-9972484D01*
X11560539Y-9972484D02*
X11541491Y-9962960D01*
X11541491Y-9962960D02*
X11531967Y-9953436D01*
X11770062Y-9772484D02*
X11789110Y-9772484D01*
X11789110Y-9772484D02*
X11808158Y-9782008D01*
X11808158Y-9782008D02*
X11817682Y-9791531D01*
X11817682Y-9791531D02*
X11827205Y-9810579D01*
X11827205Y-9810579D02*
X11836729Y-9848674D01*
X11836729Y-9848674D02*
X11836729Y-9896293D01*
X11836729Y-9896293D02*
X11827205Y-9934389D01*
X11827205Y-9934389D02*
X11817682Y-9953436D01*
X11817682Y-9953436D02*
X11808158Y-9962960D01*
X11808158Y-9962960D02*
X11789110Y-9972484D01*
X11789110Y-9972484D02*
X11770062Y-9972484D01*
X11770062Y-9972484D02*
X11751015Y-9962960D01*
X11751015Y-9962960D02*
X11741491Y-9953436D01*
X11741491Y-9953436D02*
X11731967Y-9934389D01*
X11731967Y-9934389D02*
X11722443Y-9896293D01*
X11722443Y-9896293D02*
X11722443Y-9848674D01*
X11722443Y-9848674D02*
X11731967Y-9810579D01*
X11731967Y-9810579D02*
X11741491Y-9791531D01*
X11741491Y-9791531D02*
X11751015Y-9782008D01*
X11751015Y-9782008D02*
X11770062Y-9772484D01*
X11960539Y-9772484D02*
X11979586Y-9772484D01*
X11979586Y-9772484D02*
X11998634Y-9782008D01*
X11998634Y-9782008D02*
X12008158Y-9791531D01*
X12008158Y-9791531D02*
X12017682Y-9810579D01*
X12017682Y-9810579D02*
X12027205Y-9848674D01*
X12027205Y-9848674D02*
X12027205Y-9896293D01*
X12027205Y-9896293D02*
X12017682Y-9934389D01*
X12017682Y-9934389D02*
X12008158Y-9953436D01*
X12008158Y-9953436D02*
X11998634Y-9962960D01*
X11998634Y-9962960D02*
X11979586Y-9972484D01*
X11979586Y-9972484D02*
X11960539Y-9972484D01*
X11960539Y-9972484D02*
X11941491Y-9962960D01*
X11941491Y-9962960D02*
X11931967Y-9953436D01*
X11931967Y-9953436D02*
X11922443Y-9934389D01*
X11922443Y-9934389D02*
X11912920Y-9896293D01*
X11912920Y-9896293D02*
X11912920Y-9848674D01*
X11912920Y-9848674D02*
X11922443Y-9810579D01*
X11922443Y-9810579D02*
X11931967Y-9791531D01*
X11931967Y-9791531D02*
X11941491Y-9782008D01*
X11941491Y-9782008D02*
X11960539Y-9772484D01*
X12112920Y-9972484D02*
X12112920Y-9839150D01*
X12112920Y-9858198D02*
X12122443Y-9848674D01*
X12122443Y-9848674D02*
X12141491Y-9839150D01*
X12141491Y-9839150D02*
X12170063Y-9839150D01*
X12170063Y-9839150D02*
X12189110Y-9848674D01*
X12189110Y-9848674D02*
X12198634Y-9867722D01*
X12198634Y-9867722D02*
X12198634Y-9972484D01*
X12198634Y-9867722D02*
X12208158Y-9848674D01*
X12208158Y-9848674D02*
X12227205Y-9839150D01*
X12227205Y-9839150D02*
X12255777Y-9839150D01*
X12255777Y-9839150D02*
X12274824Y-9848674D01*
X12274824Y-9848674D02*
X12284348Y-9867722D01*
X12284348Y-9867722D02*
X12284348Y-9972484D01*
X12379586Y-9972484D02*
X12379586Y-9839150D01*
X12379586Y-9858198D02*
X12389110Y-9848674D01*
X12389110Y-9848674D02*
X12408158Y-9839150D01*
X12408158Y-9839150D02*
X12436729Y-9839150D01*
X12436729Y-9839150D02*
X12455777Y-9848674D01*
X12455777Y-9848674D02*
X12465301Y-9867722D01*
X12465301Y-9867722D02*
X12465301Y-9972484D01*
X12465301Y-9867722D02*
X12474824Y-9848674D01*
X12474824Y-9848674D02*
X12493872Y-9839150D01*
X12493872Y-9839150D02*
X12522443Y-9839150D01*
X12522443Y-9839150D02*
X12541491Y-9848674D01*
X12541491Y-9848674D02*
X12551015Y-9867722D01*
X12551015Y-9867722D02*
X12551015Y-9972484D01*
X12941491Y-9762960D02*
X12770063Y-10020103D01*
X13198634Y-9772484D02*
X13217682Y-9772484D01*
X13217682Y-9772484D02*
X13236729Y-9782008D01*
X13236729Y-9782008D02*
X13246253Y-9791531D01*
X13246253Y-9791531D02*
X13255777Y-9810579D01*
X13255777Y-9810579D02*
X13265301Y-9848674D01*
X13265301Y-9848674D02*
X13265301Y-9896293D01*
X13265301Y-9896293D02*
X13255777Y-9934389D01*
X13255777Y-9934389D02*
X13246253Y-9953436D01*
X13246253Y-9953436D02*
X13236729Y-9962960D01*
X13236729Y-9962960D02*
X13217682Y-9972484D01*
X13217682Y-9972484D02*
X13198634Y-9972484D01*
X13198634Y-9972484D02*
X13179586Y-9962960D01*
X13179586Y-9962960D02*
X13170063Y-9953436D01*
X13170063Y-9953436D02*
X13160539Y-9934389D01*
X13160539Y-9934389D02*
X13151015Y-9896293D01*
X13151015Y-9896293D02*
X13151015Y-9848674D01*
X13151015Y-9848674D02*
X13160539Y-9810579D01*
X13160539Y-9810579D02*
X13170063Y-9791531D01*
X13170063Y-9791531D02*
X13179586Y-9782008D01*
X13179586Y-9782008D02*
X13198634Y-9772484D01*
X13351015Y-9953436D02*
X13360539Y-9962960D01*
X13360539Y-9962960D02*
X13351015Y-9972484D01*
X13351015Y-9972484D02*
X13341491Y-9962960D01*
X13341491Y-9962960D02*
X13351015Y-9953436D01*
X13351015Y-9953436D02*
X13351015Y-9972484D01*
X13484348Y-9772484D02*
X13503396Y-9772484D01*
X13503396Y-9772484D02*
X13522444Y-9782008D01*
X13522444Y-9782008D02*
X13531967Y-9791531D01*
X13531967Y-9791531D02*
X13541491Y-9810579D01*
X13541491Y-9810579D02*
X13551015Y-9848674D01*
X13551015Y-9848674D02*
X13551015Y-9896293D01*
X13551015Y-9896293D02*
X13541491Y-9934389D01*
X13541491Y-9934389D02*
X13531967Y-9953436D01*
X13531967Y-9953436D02*
X13522444Y-9962960D01*
X13522444Y-9962960D02*
X13503396Y-9972484D01*
X13503396Y-9972484D02*
X13484348Y-9972484D01*
X13484348Y-9972484D02*
X13465301Y-9962960D01*
X13465301Y-9962960D02*
X13455777Y-9953436D01*
X13455777Y-9953436D02*
X13446253Y-9934389D01*
X13446253Y-9934389D02*
X13436729Y-9896293D01*
X13436729Y-9896293D02*
X13436729Y-9848674D01*
X13436729Y-9848674D02*
X13446253Y-9810579D01*
X13446253Y-9810579D02*
X13455777Y-9791531D01*
X13455777Y-9791531D02*
X13465301Y-9782008D01*
X13465301Y-9782008D02*
X13484348Y-9772484D01*
X13646253Y-9972484D02*
X13684348Y-9972484D01*
X13684348Y-9972484D02*
X13703396Y-9962960D01*
X13703396Y-9962960D02*
X13712920Y-9953436D01*
X13712920Y-9953436D02*
X13731967Y-9924865D01*
X13731967Y-9924865D02*
X13741491Y-9886770D01*
X13741491Y-9886770D02*
X13741491Y-9810579D01*
X13741491Y-9810579D02*
X13731967Y-9791531D01*
X13731967Y-9791531D02*
X13722444Y-9782008D01*
X13722444Y-9782008D02*
X13703396Y-9772484D01*
X13703396Y-9772484D02*
X13665301Y-9772484D01*
X13665301Y-9772484D02*
X13646253Y-9782008D01*
X13646253Y-9782008D02*
X13636729Y-9791531D01*
X13636729Y-9791531D02*
X13627206Y-9810579D01*
X13627206Y-9810579D02*
X13627206Y-9858198D01*
X13627206Y-9858198D02*
X13636729Y-9877246D01*
X13636729Y-9877246D02*
X13646253Y-9886770D01*
X13646253Y-9886770D02*
X13665301Y-9896293D01*
X13665301Y-9896293D02*
X13703396Y-9896293D01*
X13703396Y-9896293D02*
X13722444Y-9886770D01*
X13722444Y-9886770D02*
X13731967Y-9877246D01*
X13731967Y-9877246D02*
X13741491Y-9858198D01*
X13855777Y-9858198D02*
X13836729Y-9848674D01*
X13836729Y-9848674D02*
X13827206Y-9839150D01*
X13827206Y-9839150D02*
X13817682Y-9820103D01*
X13817682Y-9820103D02*
X13817682Y-9810579D01*
X13817682Y-9810579D02*
X13827206Y-9791531D01*
X13827206Y-9791531D02*
X13836729Y-9782008D01*
X13836729Y-9782008D02*
X13855777Y-9772484D01*
X13855777Y-9772484D02*
X13893872Y-9772484D01*
X13893872Y-9772484D02*
X13912920Y-9782008D01*
X13912920Y-9782008D02*
X13922444Y-9791531D01*
X13922444Y-9791531D02*
X13931967Y-9810579D01*
X13931967Y-9810579D02*
X13931967Y-9820103D01*
X13931967Y-9820103D02*
X13922444Y-9839150D01*
X13922444Y-9839150D02*
X13912920Y-9848674D01*
X13912920Y-9848674D02*
X13893872Y-9858198D01*
X13893872Y-9858198D02*
X13855777Y-9858198D01*
X13855777Y-9858198D02*
X13836729Y-9867722D01*
X13836729Y-9867722D02*
X13827206Y-9877246D01*
X13827206Y-9877246D02*
X13817682Y-9896293D01*
X13817682Y-9896293D02*
X13817682Y-9934389D01*
X13817682Y-9934389D02*
X13827206Y-9953436D01*
X13827206Y-9953436D02*
X13836729Y-9962960D01*
X13836729Y-9962960D02*
X13855777Y-9972484D01*
X13855777Y-9972484D02*
X13893872Y-9972484D01*
X13893872Y-9972484D02*
X13912920Y-9962960D01*
X13912920Y-9962960D02*
X13922444Y-9953436D01*
X13922444Y-9953436D02*
X13931967Y-9934389D01*
X13931967Y-9934389D02*
X13931967Y-9896293D01*
X13931967Y-9896293D02*
X13922444Y-9877246D01*
X13922444Y-9877246D02*
X13912920Y-9867722D01*
X13912920Y-9867722D02*
X13893872Y-9858198D01*
X14103396Y-9839150D02*
X14103396Y-9972484D01*
X14055777Y-9762960D02*
X14008158Y-9905817D01*
X14008158Y-9905817D02*
X14131967Y-9905817D01*
X14198634Y-9772484D02*
X14198634Y-9810579D01*
X14274825Y-9772484D02*
X14274825Y-9810579D01*
X14570063Y-10048674D02*
X14560539Y-10039150D01*
X14560539Y-10039150D02*
X14541491Y-10010579D01*
X14541491Y-10010579D02*
X14531968Y-9991531D01*
X14531968Y-9991531D02*
X14522444Y-9962960D01*
X14522444Y-9962960D02*
X14512920Y-9915341D01*
X14512920Y-9915341D02*
X14512920Y-9877246D01*
X14512920Y-9877246D02*
X14522444Y-9829627D01*
X14522444Y-9829627D02*
X14531968Y-9801055D01*
X14531968Y-9801055D02*
X14541491Y-9782008D01*
X14541491Y-9782008D02*
X14560539Y-9753436D01*
X14560539Y-9753436D02*
X14570063Y-9743912D01*
X14636729Y-9791531D02*
X14646253Y-9782008D01*
X14646253Y-9782008D02*
X14665301Y-9772484D01*
X14665301Y-9772484D02*
X14712920Y-9772484D01*
X14712920Y-9772484D02*
X14731968Y-9782008D01*
X14731968Y-9782008D02*
X14741491Y-9791531D01*
X14741491Y-9791531D02*
X14751015Y-9810579D01*
X14751015Y-9810579D02*
X14751015Y-9829627D01*
X14751015Y-9829627D02*
X14741491Y-9858198D01*
X14741491Y-9858198D02*
X14627206Y-9972484D01*
X14627206Y-9972484D02*
X14751015Y-9972484D01*
X14989110Y-9972484D02*
X14989110Y-9772484D01*
X15074825Y-9972484D02*
X15074825Y-9867722D01*
X15074825Y-9867722D02*
X15065301Y-9848674D01*
X15065301Y-9848674D02*
X15046253Y-9839150D01*
X15046253Y-9839150D02*
X15017682Y-9839150D01*
X15017682Y-9839150D02*
X14998634Y-9848674D01*
X14998634Y-9848674D02*
X14989110Y-9858198D01*
X15198634Y-9972484D02*
X15179587Y-9962960D01*
X15179587Y-9962960D02*
X15170063Y-9953436D01*
X15170063Y-9953436D02*
X15160539Y-9934389D01*
X15160539Y-9934389D02*
X15160539Y-9877246D01*
X15160539Y-9877246D02*
X15170063Y-9858198D01*
X15170063Y-9858198D02*
X15179587Y-9848674D01*
X15179587Y-9848674D02*
X15198634Y-9839150D01*
X15198634Y-9839150D02*
X15227206Y-9839150D01*
X15227206Y-9839150D02*
X15246253Y-9848674D01*
X15246253Y-9848674D02*
X15255777Y-9858198D01*
X15255777Y-9858198D02*
X15265301Y-9877246D01*
X15265301Y-9877246D02*
X15265301Y-9934389D01*
X15265301Y-9934389D02*
X15255777Y-9953436D01*
X15255777Y-9953436D02*
X15246253Y-9962960D01*
X15246253Y-9962960D02*
X15227206Y-9972484D01*
X15227206Y-9972484D02*
X15198634Y-9972484D01*
X15379587Y-9972484D02*
X15360539Y-9962960D01*
X15360539Y-9962960D02*
X15351015Y-9943912D01*
X15351015Y-9943912D02*
X15351015Y-9772484D01*
X15531968Y-9962960D02*
X15512920Y-9972484D01*
X15512920Y-9972484D02*
X15474825Y-9972484D01*
X15474825Y-9972484D02*
X15455777Y-9962960D01*
X15455777Y-9962960D02*
X15446253Y-9943912D01*
X15446253Y-9943912D02*
X15446253Y-9867722D01*
X15446253Y-9867722D02*
X15455777Y-9848674D01*
X15455777Y-9848674D02*
X15474825Y-9839150D01*
X15474825Y-9839150D02*
X15512920Y-9839150D01*
X15512920Y-9839150D02*
X15531968Y-9848674D01*
X15531968Y-9848674D02*
X15541491Y-9867722D01*
X15541491Y-9867722D02*
X15541491Y-9886770D01*
X15541491Y-9886770D02*
X15446253Y-9905817D01*
X15617682Y-9962960D02*
X15636730Y-9972484D01*
X15636730Y-9972484D02*
X15674825Y-9972484D01*
X15674825Y-9972484D02*
X15693872Y-9962960D01*
X15693872Y-9962960D02*
X15703396Y-9943912D01*
X15703396Y-9943912D02*
X15703396Y-9934389D01*
X15703396Y-9934389D02*
X15693872Y-9915341D01*
X15693872Y-9915341D02*
X15674825Y-9905817D01*
X15674825Y-9905817D02*
X15646253Y-9905817D01*
X15646253Y-9905817D02*
X15627206Y-9896293D01*
X15627206Y-9896293D02*
X15617682Y-9877246D01*
X15617682Y-9877246D02*
X15617682Y-9867722D01*
X15617682Y-9867722D02*
X15627206Y-9848674D01*
X15627206Y-9848674D02*
X15646253Y-9839150D01*
X15646253Y-9839150D02*
X15674825Y-9839150D01*
X15674825Y-9839150D02*
X15693872Y-9848674D01*
X15770063Y-10048674D02*
X15779587Y-10039150D01*
X15779587Y-10039150D02*
X15798634Y-10010579D01*
X15798634Y-10010579D02*
X15808158Y-9991531D01*
X15808158Y-9991531D02*
X15817682Y-9962960D01*
X15817682Y-9962960D02*
X15827206Y-9915341D01*
X15827206Y-9915341D02*
X15827206Y-9877246D01*
X15827206Y-9877246D02*
X15817682Y-9829627D01*
X15817682Y-9829627D02*
X15808158Y-9801055D01*
X15808158Y-9801055D02*
X15798634Y-9782008D01*
X15798634Y-9782008D02*
X15779587Y-9753436D01*
X15779587Y-9753436D02*
X15770063Y-9743912D01*
X16131968Y-10048674D02*
X16122444Y-10039150D01*
X16122444Y-10039150D02*
X16103396Y-10010579D01*
X16103396Y-10010579D02*
X16093872Y-9991531D01*
X16093872Y-9991531D02*
X16084349Y-9962960D01*
X16084349Y-9962960D02*
X16074825Y-9915341D01*
X16074825Y-9915341D02*
X16074825Y-9877246D01*
X16074825Y-9877246D02*
X16084349Y-9829627D01*
X16084349Y-9829627D02*
X16093872Y-9801055D01*
X16093872Y-9801055D02*
X16103396Y-9782008D01*
X16103396Y-9782008D02*
X16122444Y-9753436D01*
X16122444Y-9753436D02*
X16131968Y-9743912D01*
X16208158Y-9839150D02*
X16208158Y-9972484D01*
X16208158Y-9858198D02*
X16217682Y-9848674D01*
X16217682Y-9848674D02*
X16236730Y-9839150D01*
X16236730Y-9839150D02*
X16265301Y-9839150D01*
X16265301Y-9839150D02*
X16284349Y-9848674D01*
X16284349Y-9848674D02*
X16293872Y-9867722D01*
X16293872Y-9867722D02*
X16293872Y-9972484D01*
X16417682Y-9972484D02*
X16398634Y-9962960D01*
X16398634Y-9962960D02*
X16389111Y-9953436D01*
X16389111Y-9953436D02*
X16379587Y-9934389D01*
X16379587Y-9934389D02*
X16379587Y-9877246D01*
X16379587Y-9877246D02*
X16389111Y-9858198D01*
X16389111Y-9858198D02*
X16398634Y-9848674D01*
X16398634Y-9848674D02*
X16417682Y-9839150D01*
X16417682Y-9839150D02*
X16446253Y-9839150D01*
X16446253Y-9839150D02*
X16465301Y-9848674D01*
X16465301Y-9848674D02*
X16474825Y-9858198D01*
X16474825Y-9858198D02*
X16484349Y-9877246D01*
X16484349Y-9877246D02*
X16484349Y-9934389D01*
X16484349Y-9934389D02*
X16474825Y-9953436D01*
X16474825Y-9953436D02*
X16465301Y-9962960D01*
X16465301Y-9962960D02*
X16446253Y-9972484D01*
X16446253Y-9972484D02*
X16417682Y-9972484D01*
X16541492Y-9839150D02*
X16617682Y-9839150D01*
X16570063Y-9772484D02*
X16570063Y-9943912D01*
X16570063Y-9943912D02*
X16579587Y-9962960D01*
X16579587Y-9962960D02*
X16598634Y-9972484D01*
X16598634Y-9972484D02*
X16617682Y-9972484D01*
X16836730Y-9839150D02*
X16836730Y-10039150D01*
X16836730Y-9848674D02*
X16855777Y-9839150D01*
X16855777Y-9839150D02*
X16893873Y-9839150D01*
X16893873Y-9839150D02*
X16912920Y-9848674D01*
X16912920Y-9848674D02*
X16922444Y-9858198D01*
X16922444Y-9858198D02*
X16931968Y-9877246D01*
X16931968Y-9877246D02*
X16931968Y-9934389D01*
X16931968Y-9934389D02*
X16922444Y-9953436D01*
X16922444Y-9953436D02*
X16912920Y-9962960D01*
X16912920Y-9962960D02*
X16893873Y-9972484D01*
X16893873Y-9972484D02*
X16855777Y-9972484D01*
X16855777Y-9972484D02*
X16836730Y-9962960D01*
X17046254Y-9972484D02*
X17027206Y-9962960D01*
X17027206Y-9962960D02*
X17017682Y-9943912D01*
X17017682Y-9943912D02*
X17017682Y-9772484D01*
X17208158Y-9972484D02*
X17208158Y-9867722D01*
X17208158Y-9867722D02*
X17198635Y-9848674D01*
X17198635Y-9848674D02*
X17179587Y-9839150D01*
X17179587Y-9839150D02*
X17141492Y-9839150D01*
X17141492Y-9839150D02*
X17122444Y-9848674D01*
X17208158Y-9962960D02*
X17189111Y-9972484D01*
X17189111Y-9972484D02*
X17141492Y-9972484D01*
X17141492Y-9972484D02*
X17122444Y-9962960D01*
X17122444Y-9962960D02*
X17112920Y-9943912D01*
X17112920Y-9943912D02*
X17112920Y-9924865D01*
X17112920Y-9924865D02*
X17122444Y-9905817D01*
X17122444Y-9905817D02*
X17141492Y-9896293D01*
X17141492Y-9896293D02*
X17189111Y-9896293D01*
X17189111Y-9896293D02*
X17208158Y-9886770D01*
X17274825Y-9839150D02*
X17351015Y-9839150D01*
X17303396Y-9772484D02*
X17303396Y-9943912D01*
X17303396Y-9943912D02*
X17312920Y-9962960D01*
X17312920Y-9962960D02*
X17331968Y-9972484D01*
X17331968Y-9972484D02*
X17351015Y-9972484D01*
X17493873Y-9962960D02*
X17474825Y-9972484D01*
X17474825Y-9972484D02*
X17436730Y-9972484D01*
X17436730Y-9972484D02*
X17417682Y-9962960D01*
X17417682Y-9962960D02*
X17408158Y-9943912D01*
X17408158Y-9943912D02*
X17408158Y-9867722D01*
X17408158Y-9867722D02*
X17417682Y-9848674D01*
X17417682Y-9848674D02*
X17436730Y-9839150D01*
X17436730Y-9839150D02*
X17474825Y-9839150D01*
X17474825Y-9839150D02*
X17493873Y-9848674D01*
X17493873Y-9848674D02*
X17503396Y-9867722D01*
X17503396Y-9867722D02*
X17503396Y-9886770D01*
X17503396Y-9886770D02*
X17408158Y-9905817D01*
X17674825Y-9972484D02*
X17674825Y-9772484D01*
X17674825Y-9962960D02*
X17655777Y-9972484D01*
X17655777Y-9972484D02*
X17617682Y-9972484D01*
X17617682Y-9972484D02*
X17598635Y-9962960D01*
X17598635Y-9962960D02*
X17589111Y-9953436D01*
X17589111Y-9953436D02*
X17579587Y-9934389D01*
X17579587Y-9934389D02*
X17579587Y-9877246D01*
X17579587Y-9877246D02*
X17589111Y-9858198D01*
X17589111Y-9858198D02*
X17598635Y-9848674D01*
X17598635Y-9848674D02*
X17617682Y-9839150D01*
X17617682Y-9839150D02*
X17655777Y-9839150D01*
X17655777Y-9839150D02*
X17674825Y-9848674D01*
X17751016Y-10048674D02*
X17760539Y-10039150D01*
X17760539Y-10039150D02*
X17779587Y-10010579D01*
X17779587Y-10010579D02*
X17789111Y-9991531D01*
X17789111Y-9991531D02*
X17798635Y-9962960D01*
X17798635Y-9962960D02*
X17808158Y-9915341D01*
X17808158Y-9915341D02*
X17808158Y-9877246D01*
X17808158Y-9877246D02*
X17798635Y-9829627D01*
X17798635Y-9829627D02*
X17789111Y-9801055D01*
X17789111Y-9801055D02*
X17779587Y-9782008D01*
X17779587Y-9782008D02*
X17760539Y-9753436D01*
X17760539Y-9753436D02*
X17751016Y-9743912D01*
M02*
