M48
; DRILL file {KiCad 7.0.6} date Tue Aug 15 03:17:16 2023
; FORMAT={-:-/ absolute / metric / decimal}
; #@! TF.CreationDate,2023-08-15T03:17:16+01:00
; #@! TF.GenerationSoftware,Kicad,Pcbnew,7.0.6
; #@! TF.FileFunction,Plated,1,4,PTH
FMAT,2
METRIC
; #@! TA.AperFunction,Plated,PTH,ViaDrill
T1C0.500
; #@! TA.AperFunction,Plated,PTH,ComponentDrill
T2C0.650
; #@! TA.AperFunction,Plated,PTH,ComponentDrill
T3C1.000
%
G90
G05
T1
X111.05Y-52.2
X111.05Y-70.25
X112.0Y-54.5
X115.3Y-64.1
X115.35Y-61.85
X116.35Y-70.6
X117.0Y-55.0
X117.8Y-69.5
X118.2Y-52.5
X119.0Y-68.5
X120.05Y-72.75
X120.15Y-67.5
X121.5Y-55.0
X122.8Y-81.9
X122.8Y-84.8
X122.8Y-87.6
X125.5Y-67.8
X126.1Y-81.6
X126.5Y-71.5
X126.829Y-52.329
X130.0Y-53.0
X130.5Y-64.5
X130.6Y-78.3
X130.6Y-81.6
X131.1Y-57.8
X132.8Y-56.4
X133.5Y-77.4
X133.925Y-81.6
X137.05Y-54.9
X137.25Y-81.6
X138.5Y-65.5
X140.5Y-65.5
X140.575Y-81.6
X141.5Y-61.5
X142.5Y-65.5
X142.95Y-69.9
X143.0Y-73.0
X143.0Y-75.9
X143.9Y-81.6
X144.5Y-65.5
X146.85Y-54.7
X150.0Y-59.5
X150.0Y-61.3
X150.0Y-64.6
X150.7Y-80.2
X151.0Y-73.5
X151.2Y-69.0
X151.5Y-55.4
X152.0Y-77.0
X152.0Y-85.3
X153.6Y-51.8
X153.6Y-55.4
X157.0Y-79.0
X157.5Y-74.0
X157.5Y-85.3
X157.8Y-63.9
X157.9Y-51.8
X158.5Y-79.0
X159.0Y-69.0
X161.0Y-52.5
X161.044Y-70.799
X162.0Y-69.806
X162.5Y-60.5
X162.5Y-62.5
X163.0Y-68.858
X165.7Y-68.2
X168.5Y-62.5
X171.5Y-55.5
X172.55Y-62.35
T2
X130.46Y-60.4
X131.73Y-60.4
X133.0Y-60.4
X134.27Y-60.4
X135.54Y-60.4
X152.96Y-87.6
X154.23Y-87.6
X155.5Y-87.6
T3
X112.5Y-68.5
X115.04Y-68.5
X132.735Y-53.0
X135.275Y-53.0
X148.725Y-53.0
X151.265Y-53.0
X161.415Y-64.5
X163.955Y-64.5
X166.495Y-64.5
X169.035Y-64.5
X171.575Y-64.5
T0
M30
